G04 #@! TF.GenerationSoftware,KiCad,Pcbnew,5.0.2-bee76a0~70~ubuntu18.04.1*
G04 #@! TF.CreationDate,2019-01-05T10:05:45+08:00*
G04 #@! TF.ProjectId,NeuroBytes_Touch_Sensor,4e657572-6f42-4797-9465-735f546f7563,D*
G04 #@! TF.SameCoordinates,Original*
G04 #@! TF.FileFunction,Copper,L2,Bot*
G04 #@! TF.FilePolarity,Positive*
%FSLAX46Y46*%
G04 Gerber Fmt 4.6, Leading zero omitted, Abs format (unit mm)*
G04 Created by KiCad (PCBNEW 5.0.2-bee76a0~70~ubuntu18.04.1) date Sat 05 Jan 2019 10:05:45 AM HKT*
%MOMM*%
%LPD*%
G01*
G04 APERTURE LIST*
G04 #@! TA.AperFunction,SMDPad,CuDef*
%ADD10C,0.600000*%
G04 #@! TD*
G04 #@! TA.AperFunction,Conductor*
%ADD11C,0.100000*%
G04 #@! TD*
G04 #@! TA.AperFunction,SMDPad,CuDef*
%ADD12C,1.000000*%
G04 #@! TD*
G04 #@! TA.AperFunction,ViaPad*
%ADD13C,3.000000*%
G04 #@! TD*
G04 #@! TA.AperFunction,SMDPad,CuDef*
%ADD14R,1.600000X0.800000*%
G04 #@! TD*
G04 #@! TA.AperFunction,SMDPad,CuDef*
%ADD15R,1.000000X1.200000*%
G04 #@! TD*
G04 #@! TA.AperFunction,SMDPad,CuDef*
%ADD16C,0.382310*%
G04 #@! TD*
G04 #@! TA.AperFunction,BGAPad,CuDef*
%ADD17C,1.000000*%
G04 #@! TD*
G04 #@! TA.AperFunction,SMDPad,CuDef*
%ADD18C,0.300000*%
G04 #@! TD*
G04 #@! TA.AperFunction,SMDPad,CuDef*
%ADD19C,2.200000*%
G04 #@! TD*
G04 #@! TA.AperFunction,SMDPad,CuDef*
%ADD20C,0.750000*%
G04 #@! TD*
G04 #@! TA.AperFunction,SMDPad,CuDef*
%ADD21R,0.800000X0.500000*%
G04 #@! TD*
G04 #@! TA.AperFunction,SMDPad,CuDef*
%ADD22R,0.500000X0.800000*%
G04 #@! TD*
G04 #@! TA.AperFunction,SMDPad,CuDef*
%ADD23C,0.500000*%
G04 #@! TD*
G04 #@! TA.AperFunction,SMDPad,CuDef*
%ADD24R,0.600000X1.200000*%
G04 #@! TD*
G04 #@! TA.AperFunction,SMDPad,CuDef*
%ADD25R,1.200000X0.600000*%
G04 #@! TD*
G04 #@! TA.AperFunction,SMDPad,CuDef*
%ADD26R,1.600000X1.000000*%
G04 #@! TD*
G04 #@! TA.AperFunction,ViaPad*
%ADD27C,0.600000*%
G04 #@! TD*
G04 #@! TA.AperFunction,Conductor*
%ADD28C,0.500000*%
G04 #@! TD*
G04 #@! TA.AperFunction,Conductor*
%ADD29C,0.200000*%
G04 #@! TD*
G04 #@! TA.AperFunction,Conductor*
%ADD30C,1.000000*%
G04 #@! TD*
G04 #@! TA.AperFunction,Conductor*
%ADD31C,0.300000*%
G04 #@! TD*
G04 APERTURE END LIST*
D10*
G04 #@! TO.P,P1,3*
G04 #@! TO.N,SWDIO*
X108996385Y-82765610D03*
D11*
G04 #@! TD*
G04 #@! TO.N,SWDIO*
G04 #@! TO.C,P1*
G36*
X109114975Y-83659163D02*
X108343191Y-82144452D01*
X108877795Y-81872057D01*
X109649579Y-83386768D01*
X109114975Y-83659163D01*
X109114975Y-83659163D01*
G37*
D10*
G04 #@! TO.P,P1,4*
G04 #@! TO.N,SWCLK*
X110110143Y-82198122D03*
D11*
G04 #@! TD*
G04 #@! TO.N,SWCLK*
G04 #@! TO.C,P1*
G36*
X110228733Y-83091675D02*
X109456949Y-81576964D01*
X109991553Y-81304569D01*
X110763337Y-82819280D01*
X110228733Y-83091675D01*
X110228733Y-83091675D01*
G37*
D10*
G04 #@! TO.P,P1,2*
G04 #@! TO.N,RESET*
X107882627Y-83333099D03*
D11*
G04 #@! TD*
G04 #@! TO.N,RESET*
G04 #@! TO.C,P1*
G36*
X108001217Y-84226652D02*
X107229433Y-82711941D01*
X107764037Y-82439546D01*
X108535821Y-83954257D01*
X108001217Y-84226652D01*
X108001217Y-84226652D01*
G37*
D10*
G04 #@! TO.P,P1,1*
G04 #@! TO.N,GND*
X106768868Y-83900587D03*
D11*
G04 #@! TD*
G04 #@! TO.N,GND*
G04 #@! TO.C,P1*
G36*
X106887458Y-84794140D02*
X106115674Y-83279429D01*
X106650278Y-83007034D01*
X107422062Y-84521745D01*
X106887458Y-84794140D01*
X106887458Y-84794140D01*
G37*
D12*
G04 #@! TO.P,P1,*
G04 #@! TO.N,GND*
X111621243Y-78005083D03*
D11*
G04 #@! TD*
G04 #@! TO.N,GND*
G04 #@! TO.C,P1*
G36*
X111788627Y-79434937D02*
X110562853Y-77029219D01*
X111453859Y-76575229D01*
X112679633Y-78980947D01*
X111788627Y-79434937D01*
X111788627Y-79434937D01*
G37*
D12*
G04 #@! TO.P,P1,*
G04 #@! TO.N,GND*
X103602184Y-82090998D03*
D11*
G04 #@! TD*
G04 #@! TO.N,GND*
G04 #@! TO.C,P1*
G36*
X103769568Y-83520852D02*
X102543794Y-81115134D01*
X103434800Y-80661144D01*
X104660574Y-83066862D01*
X103769568Y-83520852D01*
X103769568Y-83520852D01*
G37*
D10*
G04 #@! TO.P,P1,5*
G04 #@! TO.N,+5V*
X111223901Y-81630634D03*
D11*
G04 #@! TD*
G04 #@! TO.N,+5V*
G04 #@! TO.C,P1*
G36*
X111877095Y-82251792D02*
X111342491Y-82524187D01*
X110570707Y-81009476D01*
X111105311Y-80737081D01*
X111877095Y-82251792D01*
X111877095Y-82251792D01*
G37*
D13*
G04 #@! TO.N,*
G04 #@! TO.C,D1*
X126500000Y-69500000D03*
D14*
G04 #@! TD*
G04 #@! TO.P,D1,3*
G04 #@! TO.N,Net-(D1-Pad3)*
X129200000Y-70300000D03*
G04 #@! TO.P,D1,2*
G04 #@! TO.N,+5V*
X129200000Y-68700000D03*
G04 #@! TO.P,D1,4*
G04 #@! TO.N,Net-(D1-Pad4)*
X123800000Y-70300000D03*
G04 #@! TO.P,D1,1*
G04 #@! TO.N,Net-(D1-Pad1)*
X123800000Y-68700000D03*
D15*
G04 #@! TO.P,D1,4*
G04 #@! TO.N,Net-(D1-Pad4)*
X123500000Y-70500000D03*
G04 #@! TO.P,D1,1*
G04 #@! TO.N,Net-(D1-Pad1)*
X123500000Y-68500000D03*
G04 #@! TO.P,D1,3*
G04 #@! TO.N,Net-(D1-Pad3)*
X129500000Y-70500000D03*
G04 #@! TO.P,D1,2*
G04 #@! TO.N,+5V*
X129500000Y-68500000D03*
D16*
G04 #@! TO.P,D1,4*
G04 #@! TO.N,Net-(D1-Pad4)*
X124000000Y-70900000D03*
D11*
G04 #@! TD*
G04 #@! TO.N,Net-(D1-Pad4)*
G04 #@! TO.C,D1*
G36*
X123950000Y-71100000D02*
X123400000Y-70700000D01*
X124600000Y-70700000D01*
X124050000Y-71100000D01*
X123950000Y-71100000D01*
X123950000Y-71100000D01*
G37*
D16*
G04 #@! TO.P,D1,1*
G04 #@! TO.N,Net-(D1-Pad1)*
X124000000Y-68100000D03*
D11*
G04 #@! TD*
G04 #@! TO.N,Net-(D1-Pad1)*
G04 #@! TO.C,D1*
G36*
X124050000Y-67900000D02*
X124600000Y-68300000D01*
X123400000Y-68300000D01*
X123950000Y-67900000D01*
X124050000Y-67900000D01*
X124050000Y-67900000D01*
G37*
D16*
G04 #@! TO.P,D1,3*
G04 #@! TO.N,Net-(D1-Pad3)*
X129000000Y-70900000D03*
D11*
G04 #@! TD*
G04 #@! TO.N,Net-(D1-Pad3)*
G04 #@! TO.C,D1*
G36*
X128950000Y-71100000D02*
X128400000Y-70700000D01*
X129600000Y-70700000D01*
X129050000Y-71100000D01*
X128950000Y-71100000D01*
X128950000Y-71100000D01*
G37*
D16*
G04 #@! TO.P,D1,2*
G04 #@! TO.N,+5V*
X129000000Y-68100000D03*
D11*
G04 #@! TD*
G04 #@! TO.N,+5V*
G04 #@! TO.C,D1*
G36*
X129050000Y-67900000D02*
X129600000Y-68300000D01*
X128400000Y-68300000D01*
X128950000Y-67900000D01*
X129050000Y-67900000D01*
X129050000Y-67900000D01*
G37*
D17*
G04 #@! TO.P,REF\002A\002A,*
G04 #@! TO.N,*
X98250000Y-86250000D03*
G04 #@! TD*
G04 #@! TO.P,REF\002A\002A,*
G04 #@! TO.N,*
X114170000Y-78140000D03*
G04 #@! TD*
D18*
G04 #@! TO.P,U1,1*
G04 #@! TO.N,Net-(R4-Pad2)*
X127136396Y-75992284D03*
D11*
G04 #@! TD*
G04 #@! TO.N,Net-(R4-Pad2)*
G04 #@! TO.C,U1*
G36*
X127560660Y-75780152D02*
X126924264Y-76416548D01*
X126712132Y-76204416D01*
X127348528Y-75568020D01*
X127560660Y-75780152D01*
X127560660Y-75780152D01*
G37*
D18*
G04 #@! TO.P,U1,2*
G04 #@! TO.N,Net-(U1-Pad2)*
X127383883Y-76451903D03*
D11*
G04 #@! TD*
G04 #@! TO.N,Net-(U1-Pad2)*
G04 #@! TO.C,U1*
G36*
X127914213Y-76133705D02*
X127065685Y-76982233D01*
X126853553Y-76770101D01*
X127702081Y-75921573D01*
X127914213Y-76133705D01*
X127914213Y-76133705D01*
G37*
D18*
G04 #@! TO.P,U1,3*
G04 #@! TO.N,Net-(U1-Pad3)*
X127737437Y-76805456D03*
D11*
G04 #@! TD*
G04 #@! TO.N,Net-(U1-Pad3)*
G04 #@! TO.C,U1*
G36*
X128267767Y-76487258D02*
X127419239Y-77335786D01*
X127207107Y-77123654D01*
X128055635Y-76275126D01*
X128267767Y-76487258D01*
X128267767Y-76487258D01*
G37*
D18*
G04 #@! TO.P,U1,4*
G04 #@! TO.N,RESET*
X128090990Y-77159010D03*
D11*
G04 #@! TD*
G04 #@! TO.N,RESET*
G04 #@! TO.C,U1*
G36*
X128621320Y-76840812D02*
X127772792Y-77689340D01*
X127560660Y-77477208D01*
X128409188Y-76628680D01*
X128621320Y-76840812D01*
X128621320Y-76840812D01*
G37*
D18*
G04 #@! TO.P,U1,5*
G04 #@! TO.N,+3V3*
X128444544Y-77512563D03*
D11*
G04 #@! TD*
G04 #@! TO.N,+3V3*
G04 #@! TO.C,U1*
G36*
X128974874Y-77194365D02*
X128126346Y-78042893D01*
X127914214Y-77830761D01*
X128762742Y-76982233D01*
X128974874Y-77194365D01*
X128974874Y-77194365D01*
G37*
D18*
G04 #@! TO.P,U1,6*
G04 #@! TO.N,LED_R*
X128798097Y-77866117D03*
D11*
G04 #@! TD*
G04 #@! TO.N,LED_R*
G04 #@! TO.C,U1*
G36*
X129328427Y-77547919D02*
X128479899Y-78396447D01*
X128267767Y-78184315D01*
X129116295Y-77335787D01*
X129328427Y-77547919D01*
X129328427Y-77547919D01*
G37*
D18*
G04 #@! TO.P,U1,7*
G04 #@! TO.N,LED_G*
X129257716Y-78113604D03*
D11*
G04 #@! TD*
G04 #@! TO.N,LED_G*
G04 #@! TO.C,U1*
G36*
X129681980Y-77901472D02*
X129045584Y-78537868D01*
X128833452Y-78325736D01*
X129469848Y-77689340D01*
X129681980Y-77901472D01*
X129681980Y-77901472D01*
G37*
D18*
G04 #@! TO.P,U1,8*
G04 #@! TO.N,LED_B*
X129257716Y-79386396D03*
D11*
G04 #@! TD*
G04 #@! TO.N,LED_B*
G04 #@! TO.C,U1*
G36*
X129469848Y-79810660D02*
X128833452Y-79174264D01*
X129045584Y-78962132D01*
X129681980Y-79598528D01*
X129469848Y-79810660D01*
X129469848Y-79810660D01*
G37*
D18*
G04 #@! TO.P,U1,9*
G04 #@! TO.N,A1IN*
X128798097Y-79633883D03*
D11*
G04 #@! TD*
G04 #@! TO.N,A1IN*
G04 #@! TO.C,U1*
G36*
X129116295Y-80164213D02*
X128267767Y-79315685D01*
X128479899Y-79103553D01*
X129328427Y-79952081D01*
X129116295Y-80164213D01*
X129116295Y-80164213D01*
G37*
D18*
G04 #@! TO.P,U1,10*
G04 #@! TO.N,A1EX*
X128444544Y-79987437D03*
D11*
G04 #@! TD*
G04 #@! TO.N,A1EX*
G04 #@! TO.C,U1*
G36*
X128762742Y-80517767D02*
X127914214Y-79669239D01*
X128126346Y-79457107D01*
X128974874Y-80305635D01*
X128762742Y-80517767D01*
X128762742Y-80517767D01*
G37*
D18*
G04 #@! TO.P,U1,11*
G04 #@! TO.N,A2IN*
X128090990Y-80340990D03*
D11*
G04 #@! TD*
G04 #@! TO.N,A2IN*
G04 #@! TO.C,U1*
G36*
X128409188Y-80871320D02*
X127560660Y-80022792D01*
X127772792Y-79810660D01*
X128621320Y-80659188D01*
X128409188Y-80871320D01*
X128409188Y-80871320D01*
G37*
D18*
G04 #@! TO.P,U1,12*
G04 #@! TO.N,A2EX*
X127737437Y-80694544D03*
D11*
G04 #@! TD*
G04 #@! TO.N,A2EX*
G04 #@! TO.C,U1*
G36*
X128055635Y-81224874D02*
X127207107Y-80376346D01*
X127419239Y-80164214D01*
X128267767Y-81012742D01*
X128055635Y-81224874D01*
X128055635Y-81224874D01*
G37*
D18*
G04 #@! TO.P,U1,13*
G04 #@! TO.N,Net-(U1-Pad13)*
X127383883Y-81048097D03*
D11*
G04 #@! TD*
G04 #@! TO.N,Net-(U1-Pad13)*
G04 #@! TO.C,U1*
G36*
X127702081Y-81578427D02*
X126853553Y-80729899D01*
X127065685Y-80517767D01*
X127914213Y-81366295D01*
X127702081Y-81578427D01*
X127702081Y-81578427D01*
G37*
D18*
G04 #@! TO.P,U1,14*
G04 #@! TO.N,IDENTIFY*
X127136396Y-81507716D03*
D11*
G04 #@! TD*
G04 #@! TO.N,IDENTIFY*
G04 #@! TO.C,U1*
G36*
X127348528Y-81931980D02*
X126712132Y-81295584D01*
X126924264Y-81083452D01*
X127560660Y-81719848D01*
X127348528Y-81931980D01*
X127348528Y-81931980D01*
G37*
D18*
G04 #@! TO.P,U1,15*
G04 #@! TO.N,INPUT*
X125863604Y-81507716D03*
D11*
G04 #@! TD*
G04 #@! TO.N,INPUT*
G04 #@! TO.C,U1*
G36*
X126287868Y-81295584D02*
X125651472Y-81931980D01*
X125439340Y-81719848D01*
X126075736Y-81083452D01*
X126287868Y-81295584D01*
X126287868Y-81295584D01*
G37*
D18*
G04 #@! TO.P,U1,16*
G04 #@! TO.N,GND*
X125616117Y-81048097D03*
D11*
G04 #@! TD*
G04 #@! TO.N,GND*
G04 #@! TO.C,U1*
G36*
X126146447Y-80729899D02*
X125297919Y-81578427D01*
X125085787Y-81366295D01*
X125934315Y-80517767D01*
X126146447Y-80729899D01*
X126146447Y-80729899D01*
G37*
D18*
G04 #@! TO.P,U1,17*
G04 #@! TO.N,+3V3*
X125262563Y-80694544D03*
D11*
G04 #@! TD*
G04 #@! TO.N,+3V3*
G04 #@! TO.C,U1*
G36*
X125792893Y-80376346D02*
X124944365Y-81224874D01*
X124732233Y-81012742D01*
X125580761Y-80164214D01*
X125792893Y-80376346D01*
X125792893Y-80376346D01*
G37*
D18*
G04 #@! TO.P,U1,18*
G04 #@! TO.N,Net-(U1-Pad18)*
X124909010Y-80340990D03*
D11*
G04 #@! TD*
G04 #@! TO.N,Net-(U1-Pad18)*
G04 #@! TO.C,U1*
G36*
X125439340Y-80022792D02*
X124590812Y-80871320D01*
X124378680Y-80659188D01*
X125227208Y-79810660D01*
X125439340Y-80022792D01*
X125439340Y-80022792D01*
G37*
D18*
G04 #@! TO.P,U1,19*
G04 #@! TO.N,Net-(U1-Pad19)*
X124555456Y-79987437D03*
D11*
G04 #@! TD*
G04 #@! TO.N,Net-(U1-Pad19)*
G04 #@! TO.C,U1*
G36*
X125085786Y-79669239D02*
X124237258Y-80517767D01*
X124025126Y-80305635D01*
X124873654Y-79457107D01*
X125085786Y-79669239D01*
X125085786Y-79669239D01*
G37*
D18*
G04 #@! TO.P,U1,20*
G04 #@! TO.N,Net-(U1-Pad20)*
X124201903Y-79633883D03*
D11*
G04 #@! TD*
G04 #@! TO.N,Net-(U1-Pad20)*
G04 #@! TO.C,U1*
G36*
X124732233Y-79315685D02*
X123883705Y-80164213D01*
X123671573Y-79952081D01*
X124520101Y-79103553D01*
X124732233Y-79315685D01*
X124732233Y-79315685D01*
G37*
D18*
G04 #@! TO.P,U1,21*
G04 #@! TO.N,SWDIO*
X123742284Y-79386396D03*
D11*
G04 #@! TD*
G04 #@! TO.N,SWDIO*
G04 #@! TO.C,U1*
G36*
X124166548Y-79174264D02*
X123530152Y-79810660D01*
X123318020Y-79598528D01*
X123954416Y-78962132D01*
X124166548Y-79174264D01*
X124166548Y-79174264D01*
G37*
D18*
G04 #@! TO.P,U1,22*
G04 #@! TO.N,SWCLK*
X123742284Y-78113604D03*
D11*
G04 #@! TD*
G04 #@! TO.N,SWCLK*
G04 #@! TO.C,U1*
G36*
X123954416Y-78537868D02*
X123318020Y-77901472D01*
X123530152Y-77689340D01*
X124166548Y-78325736D01*
X123954416Y-78537868D01*
X123954416Y-78537868D01*
G37*
D18*
G04 #@! TO.P,U1,23*
G04 #@! TO.N,Net-(U1-Pad23)*
X124201903Y-77866117D03*
D11*
G04 #@! TD*
G04 #@! TO.N,Net-(U1-Pad23)*
G04 #@! TO.C,U1*
G36*
X124520101Y-78396447D02*
X123671573Y-77547919D01*
X123883705Y-77335787D01*
X124732233Y-78184315D01*
X124520101Y-78396447D01*
X124520101Y-78396447D01*
G37*
D18*
G04 #@! TO.P,U1,24*
G04 #@! TO.N,Net-(U1-Pad24)*
X124555456Y-77512563D03*
D11*
G04 #@! TD*
G04 #@! TO.N,Net-(U1-Pad24)*
G04 #@! TO.C,U1*
G36*
X124873654Y-78042893D02*
X124025126Y-77194365D01*
X124237258Y-76982233D01*
X125085786Y-77830761D01*
X124873654Y-78042893D01*
X124873654Y-78042893D01*
G37*
D18*
G04 #@! TO.P,U1,25*
G04 #@! TO.N,Net-(U1-Pad25)*
X124909010Y-77159010D03*
D11*
G04 #@! TD*
G04 #@! TO.N,Net-(U1-Pad25)*
G04 #@! TO.C,U1*
G36*
X125227208Y-77689340D02*
X124378680Y-76840812D01*
X124590812Y-76628680D01*
X125439340Y-77477208D01*
X125227208Y-77689340D01*
X125227208Y-77689340D01*
G37*
D18*
G04 #@! TO.P,U1,26*
G04 #@! TO.N,Net-(U1-Pad26)*
X125262563Y-76805456D03*
D11*
G04 #@! TD*
G04 #@! TO.N,Net-(U1-Pad26)*
G04 #@! TO.C,U1*
G36*
X125580761Y-77335786D02*
X124732233Y-76487258D01*
X124944365Y-76275126D01*
X125792893Y-77123654D01*
X125580761Y-77335786D01*
X125580761Y-77335786D01*
G37*
D18*
G04 #@! TO.P,U1,27*
G04 #@! TO.N,Net-(U1-Pad27)*
X125616117Y-76451903D03*
D11*
G04 #@! TD*
G04 #@! TO.N,Net-(U1-Pad27)*
G04 #@! TO.C,U1*
G36*
X125934315Y-76982233D02*
X125085787Y-76133705D01*
X125297919Y-75921573D01*
X126146447Y-76770101D01*
X125934315Y-76982233D01*
X125934315Y-76982233D01*
G37*
D18*
G04 #@! TO.P,U1,28*
G04 #@! TO.N,Net-(U1-Pad28)*
X125863604Y-75992284D03*
D11*
G04 #@! TD*
G04 #@! TO.N,Net-(U1-Pad28)*
G04 #@! TO.C,U1*
G36*
X126075736Y-76416548D02*
X125439340Y-75780152D01*
X125651472Y-75568020D01*
X126287868Y-76204416D01*
X126075736Y-76416548D01*
X126075736Y-76416548D01*
G37*
D18*
G04 #@! TO.P,U1,1*
G04 #@! TO.N,Net-(R4-Pad2)*
X126853553Y-76275126D03*
D11*
G04 #@! TD*
G04 #@! TO.N,Net-(R4-Pad2)*
G04 #@! TO.C,U1*
G36*
X127242462Y-76098349D02*
X126676776Y-76664035D01*
X126676776Y-76239771D01*
X126818198Y-76098349D01*
X127242462Y-76098349D01*
X127242462Y-76098349D01*
G37*
D18*
G04 #@! TO.P,U1,28*
G04 #@! TO.N,Net-(U1-Pad28)*
X126146447Y-76275126D03*
D11*
G04 #@! TD*
G04 #@! TO.N,Net-(U1-Pad28)*
G04 #@! TO.C,U1*
G36*
X126323224Y-76664035D02*
X125757538Y-76098349D01*
X126181802Y-76098349D01*
X126323224Y-76239771D01*
X126323224Y-76664035D01*
X126323224Y-76664035D01*
G37*
D18*
G04 #@! TO.P,U1,14*
G04 #@! TO.N,IDENTIFY*
X126853553Y-81224874D03*
D11*
G04 #@! TD*
G04 #@! TO.N,IDENTIFY*
G04 #@! TO.C,U1*
G36*
X126676776Y-80835965D02*
X127242462Y-81401651D01*
X126818198Y-81401651D01*
X126676776Y-81260229D01*
X126676776Y-80835965D01*
X126676776Y-80835965D01*
G37*
D18*
G04 #@! TO.P,U1,15*
G04 #@! TO.N,INPUT*
X126146447Y-81224874D03*
D11*
G04 #@! TD*
G04 #@! TO.N,INPUT*
G04 #@! TO.C,U1*
G36*
X125757538Y-81401651D02*
X126323224Y-80835965D01*
X126323224Y-81260229D01*
X126181802Y-81401651D01*
X125757538Y-81401651D01*
X125757538Y-81401651D01*
G37*
D18*
G04 #@! TO.P,U1,7*
G04 #@! TO.N,LED_G*
X128974874Y-78396447D03*
D11*
G04 #@! TD*
G04 #@! TO.N,LED_G*
G04 #@! TO.C,U1*
G36*
X128585965Y-78573224D02*
X129151651Y-78007538D01*
X129151651Y-78431802D01*
X129010229Y-78573224D01*
X128585965Y-78573224D01*
X128585965Y-78573224D01*
G37*
D18*
G04 #@! TO.P,U1,8*
G04 #@! TO.N,LED_B*
X128974874Y-79103553D03*
D11*
G04 #@! TD*
G04 #@! TO.N,LED_B*
G04 #@! TO.C,U1*
G36*
X129151651Y-79492462D02*
X128585965Y-78926776D01*
X129010229Y-78926776D01*
X129151651Y-79068198D01*
X129151651Y-79492462D01*
X129151651Y-79492462D01*
G37*
D18*
G04 #@! TO.P,U1,21*
G04 #@! TO.N,SWDIO*
X124025126Y-79103553D03*
D11*
G04 #@! TD*
G04 #@! TO.N,SWDIO*
G04 #@! TO.C,U1*
G36*
X124414035Y-78926776D02*
X123848349Y-79492462D01*
X123848349Y-79068198D01*
X123989771Y-78926776D01*
X124414035Y-78926776D01*
X124414035Y-78926776D01*
G37*
D18*
G04 #@! TO.P,U1,22*
G04 #@! TO.N,SWCLK*
X124025126Y-78396447D03*
D11*
G04 #@! TD*
G04 #@! TO.N,SWCLK*
G04 #@! TO.C,U1*
G36*
X123848349Y-78007538D02*
X124414035Y-78573224D01*
X123989771Y-78573224D01*
X123848349Y-78431802D01*
X123848349Y-78007538D01*
X123848349Y-78007538D01*
G37*
D19*
G04 #@! TO.P,SW2,1*
G04 #@! TO.N,GND*
X101856245Y-95856245D03*
D11*
G04 #@! TD*
G04 #@! TO.N,GND*
G04 #@! TO.C,SW2*
G36*
X104401829Y-94866296D02*
X100866296Y-98401829D01*
X99310661Y-96846194D01*
X102846194Y-93310661D01*
X104401829Y-94866296D01*
X104401829Y-94866296D01*
G37*
D19*
G04 #@! TO.P,SW2,2*
G04 #@! TO.N,INPUT*
X98250000Y-92250000D03*
D11*
G04 #@! TD*
G04 #@! TO.N,INPUT*
G04 #@! TO.C,SW2*
G36*
X100795584Y-91260051D02*
X97260051Y-94795584D01*
X95704416Y-93239949D01*
X99239949Y-89704416D01*
X100795584Y-91260051D01*
X100795584Y-91260051D01*
G37*
D19*
G04 #@! TO.P,SW2,3*
G04 #@! TO.N,N/C*
X94643755Y-88643755D03*
D11*
G04 #@! TD*
G04 #@! TO.N,N/C*
G04 #@! TO.C,SW2*
G36*
X97189339Y-87653806D02*
X93653806Y-91189339D01*
X92098171Y-89633704D01*
X95633704Y-86098171D01*
X97189339Y-87653806D01*
X97189339Y-87653806D01*
G37*
D10*
G04 #@! TO.P,P7,3*
G04 #@! TO.N,A2IN*
X137280977Y-84764860D03*
D11*
G04 #@! TD*
G04 #@! TO.N,A2IN*
G04 #@! TO.C,P7*
G36*
X136892068Y-83951687D02*
X138094150Y-85153769D01*
X137669886Y-85578033D01*
X136467804Y-84375951D01*
X136892068Y-83951687D01*
X136892068Y-83951687D01*
G37*
D10*
G04 #@! TO.P,P7,4*
G04 #@! TO.N,A2EX*
X136397093Y-85648744D03*
D11*
G04 #@! TD*
G04 #@! TO.N,A2EX*
G04 #@! TO.C,P7*
G36*
X136008184Y-84835571D02*
X137210266Y-86037653D01*
X136786002Y-86461917D01*
X135583920Y-85259835D01*
X136008184Y-84835571D01*
X136008184Y-84835571D01*
G37*
D10*
G04 #@! TO.P,P7,2*
G04 #@! TO.N,+5V*
X138164860Y-83880977D03*
D11*
G04 #@! TD*
G04 #@! TO.N,+5V*
G04 #@! TO.C,P7*
G36*
X137775951Y-83067804D02*
X138978033Y-84269886D01*
X138553769Y-84694150D01*
X137351687Y-83492068D01*
X137775951Y-83067804D01*
X137775951Y-83067804D01*
G37*
D10*
G04 #@! TO.P,P7,1*
G04 #@! TO.N,GND*
X139048744Y-82997093D03*
D11*
G04 #@! TD*
G04 #@! TO.N,GND*
G04 #@! TO.C,P7*
G36*
X138659835Y-82183920D02*
X139861917Y-83386002D01*
X139437653Y-83810266D01*
X138235571Y-82608184D01*
X138659835Y-82183920D01*
X138659835Y-82183920D01*
G37*
D12*
G04 #@! TO.P,P7,*
G04 #@! TO.N,GND*
X137192588Y-89166600D03*
D11*
G04 #@! TD*
G04 #@! TO.N,GND*
G04 #@! TO.C,P7*
G36*
X136591547Y-87858452D02*
X138500736Y-89767641D01*
X137793629Y-90474748D01*
X135884440Y-88565559D01*
X136591547Y-87858452D01*
X136591547Y-87858452D01*
G37*
D12*
G04 #@! TO.P,P7,*
G04 #@! TO.N,GND*
X142566600Y-83792588D03*
D11*
G04 #@! TD*
G04 #@! TO.N,GND*
G04 #@! TO.C,P7*
G36*
X141965559Y-82484440D02*
X143874748Y-84393629D01*
X143167641Y-85100736D01*
X141258452Y-83191547D01*
X141965559Y-82484440D01*
X141965559Y-82484440D01*
G37*
D10*
G04 #@! TO.P,P6,3*
G04 #@! TO.N,A1IN*
X138139860Y-79119023D03*
D11*
G04 #@! TD*
G04 #@! TO.N,A1IN*
G04 #@! TO.C,P6*
G36*
X137326687Y-79507932D02*
X138528769Y-78305850D01*
X138953033Y-78730114D01*
X137750951Y-79932196D01*
X137326687Y-79507932D01*
X137326687Y-79507932D01*
G37*
D10*
G04 #@! TO.P,P6,4*
G04 #@! TO.N,A1EX*
X139023744Y-80002907D03*
D11*
G04 #@! TD*
G04 #@! TO.N,A1EX*
G04 #@! TO.C,P6*
G36*
X138210571Y-80391816D02*
X139412653Y-79189734D01*
X139836917Y-79613998D01*
X138634835Y-80816080D01*
X138210571Y-80391816D01*
X138210571Y-80391816D01*
G37*
D10*
G04 #@! TO.P,P6,2*
G04 #@! TO.N,+5V*
X137255977Y-78235140D03*
D11*
G04 #@! TD*
G04 #@! TO.N,+5V*
G04 #@! TO.C,P6*
G36*
X136442804Y-78624049D02*
X137644886Y-77421967D01*
X138069150Y-77846231D01*
X136867068Y-79048313D01*
X136442804Y-78624049D01*
X136442804Y-78624049D01*
G37*
D10*
G04 #@! TO.P,P6,1*
G04 #@! TO.N,GND*
X136372093Y-77351256D03*
D11*
G04 #@! TD*
G04 #@! TO.N,GND*
G04 #@! TO.C,P6*
G36*
X135558920Y-77740165D02*
X136761002Y-76538083D01*
X137185266Y-76962347D01*
X135983184Y-78164429D01*
X135558920Y-77740165D01*
X135558920Y-77740165D01*
G37*
D12*
G04 #@! TO.P,P6,*
G04 #@! TO.N,GND*
X142541600Y-79207412D03*
D11*
G04 #@! TD*
G04 #@! TO.N,GND*
G04 #@! TO.C,P6*
G36*
X141233452Y-79808453D02*
X143142641Y-77899264D01*
X143849748Y-78606371D01*
X141940559Y-80515560D01*
X141233452Y-79808453D01*
X141233452Y-79808453D01*
G37*
D12*
G04 #@! TO.P,P6,*
G04 #@! TO.N,GND*
X137167588Y-73833400D03*
D11*
G04 #@! TD*
G04 #@! TO.N,GND*
G04 #@! TO.C,P6*
G36*
X135859440Y-74434441D02*
X137768629Y-72525252D01*
X138475736Y-73232359D01*
X136566547Y-75141548D01*
X135859440Y-74434441D01*
X135859440Y-74434441D01*
G37*
D20*
G04 #@! TO.P,C1,1*
G04 #@! TO.N,+5V*
X103421751Y-85828249D03*
D11*
G04 #@! TD*
G04 #@! TO.N,+5V*
G04 #@! TO.C,C1*
G36*
X103580850Y-85138820D02*
X104111180Y-85669150D01*
X103262652Y-86517678D01*
X102732322Y-85987348D01*
X103580850Y-85138820D01*
X103580850Y-85138820D01*
G37*
D20*
G04 #@! TO.P,C1,2*
G04 #@! TO.N,GND*
X102078249Y-87171751D03*
D11*
G04 #@! TD*
G04 #@! TO.N,GND*
G04 #@! TO.C,C1*
G36*
X102237348Y-86482322D02*
X102767678Y-87012652D01*
X101919150Y-87861180D01*
X101388820Y-87330850D01*
X102237348Y-86482322D01*
X102237348Y-86482322D01*
G37*
D20*
G04 #@! TO.P,C4,1*
G04 #@! TO.N,+3V3*
X105578249Y-90671751D03*
D11*
G04 #@! TD*
G04 #@! TO.N,+3V3*
G04 #@! TO.C,C4*
G36*
X105419150Y-91361180D02*
X104888820Y-90830850D01*
X105737348Y-89982322D01*
X106267678Y-90512652D01*
X105419150Y-91361180D01*
X105419150Y-91361180D01*
G37*
D20*
G04 #@! TO.P,C4,2*
G04 #@! TO.N,GND*
X106921751Y-89328249D03*
D11*
G04 #@! TD*
G04 #@! TO.N,GND*
G04 #@! TO.C,C4*
G36*
X106762652Y-90017678D02*
X106232322Y-89487348D01*
X107080850Y-88638820D01*
X107611180Y-89169150D01*
X106762652Y-90017678D01*
X106762652Y-90017678D01*
G37*
D21*
G04 #@! TO.P,R7,1*
G04 #@! TO.N,Net-(Q3-Pad1)*
X132100000Y-79250000D03*
G04 #@! TO.P,R7,2*
G04 #@! TO.N,LED_B*
X130900000Y-79250000D03*
G04 #@! TD*
G04 #@! TO.P,R6,1*
G04 #@! TO.N,Net-(Q2-Pad1)*
X132100000Y-78250000D03*
G04 #@! TO.P,R6,2*
G04 #@! TO.N,LED_G*
X130900000Y-78250000D03*
G04 #@! TD*
G04 #@! TO.P,R5,1*
G04 #@! TO.N,Net-(Q1-Pad1)*
X125900000Y-74050000D03*
G04 #@! TO.P,R5,2*
G04 #@! TO.N,LED_R*
X127100000Y-74050000D03*
G04 #@! TD*
D22*
G04 #@! TO.P,R3,1*
G04 #@! TO.N,Net-(D1-Pad3)*
X130700000Y-70300000D03*
G04 #@! TO.P,R3,2*
G04 #@! TO.N,Net-(Q3-Pad3)*
X130700000Y-71500000D03*
G04 #@! TD*
G04 #@! TO.P,R2,1*
G04 #@! TO.N,Net-(D1-Pad4)*
X122400000Y-70300000D03*
G04 #@! TO.P,R2,2*
G04 #@! TO.N,Net-(Q2-Pad3)*
X122400000Y-71500000D03*
G04 #@! TD*
G04 #@! TO.P,R1,1*
G04 #@! TO.N,Net-(D1-Pad1)*
X121600000Y-71500000D03*
G04 #@! TO.P,R1,2*
G04 #@! TO.N,Net-(Q1-Pad3)*
X121600000Y-72700000D03*
G04 #@! TD*
D23*
G04 #@! TO.P,C5,1*
G04 #@! TO.N,RESET*
X129675736Y-76324264D03*
D11*
G04 #@! TD*
G04 #@! TO.N,RESET*
G04 #@! TO.C,C5*
G36*
X129569670Y-76783883D02*
X129216117Y-76430330D01*
X129781802Y-75864645D01*
X130135355Y-76218198D01*
X129569670Y-76783883D01*
X129569670Y-76783883D01*
G37*
D23*
G04 #@! TO.P,C5,2*
G04 #@! TO.N,GND*
X130524264Y-75475736D03*
D11*
G04 #@! TD*
G04 #@! TO.N,GND*
G04 #@! TO.C,C5*
G36*
X130418198Y-75935355D02*
X130064645Y-75581802D01*
X130630330Y-75016117D01*
X130983883Y-75369670D01*
X130418198Y-75935355D01*
X130418198Y-75935355D01*
G37*
D22*
G04 #@! TO.P,C3,1*
G04 #@! TO.N,+3V3*
X123070000Y-80940000D03*
G04 #@! TO.P,C3,2*
G04 #@! TO.N,GND*
X123070000Y-82140000D03*
G04 #@! TD*
D23*
G04 #@! TO.P,R4,1*
G04 #@! TO.N,GND*
X129824264Y-74775736D03*
D11*
G04 #@! TD*
G04 #@! TO.N,GND*
G04 #@! TO.C,R4*
G36*
X129930330Y-74316117D02*
X130283883Y-74669670D01*
X129718198Y-75235355D01*
X129364645Y-74881802D01*
X129930330Y-74316117D01*
X129930330Y-74316117D01*
G37*
D23*
G04 #@! TO.P,R4,2*
G04 #@! TO.N,Net-(R4-Pad2)*
X128975736Y-75624264D03*
D11*
G04 #@! TD*
G04 #@! TO.N,Net-(R4-Pad2)*
G04 #@! TO.C,R4*
G36*
X129081802Y-75164645D02*
X129435355Y-75518198D01*
X128869670Y-76083883D01*
X128516117Y-75730330D01*
X129081802Y-75164645D01*
X129081802Y-75164645D01*
G37*
D24*
G04 #@! TO.P,Q3,3*
G04 #@! TO.N,Net-(Q3-Pad3)*
X133100000Y-69700000D03*
G04 #@! TO.P,Q3,1*
G04 #@! TO.N,Net-(Q3-Pad1)*
X134050000Y-72000000D03*
G04 #@! TO.P,Q3,2*
G04 #@! TO.N,GND*
X132150000Y-72000000D03*
G04 #@! TD*
G04 #@! TO.P,Q2,3*
G04 #@! TO.N,Net-(Q2-Pad3)*
X133100000Y-73800000D03*
G04 #@! TO.P,Q2,1*
G04 #@! TO.N,Net-(Q2-Pad1)*
X134050000Y-76100000D03*
G04 #@! TO.P,Q2,2*
G04 #@! TO.N,GND*
X132150000Y-76100000D03*
G04 #@! TD*
D25*
G04 #@! TO.P,Q1,3*
G04 #@! TO.N,Net-(Q1-Pad3)*
X122050000Y-74050000D03*
G04 #@! TO.P,Q1,1*
G04 #@! TO.N,Net-(Q1-Pad1)*
X124350000Y-73100000D03*
G04 #@! TO.P,Q1,2*
G04 #@! TO.N,GND*
X124350000Y-75000000D03*
G04 #@! TD*
D10*
G04 #@! TO.P,U2,5*
G04 #@! TO.N,+3V3*
X103015076Y-88381421D03*
D11*
G04 #@! TD*
G04 #@! TO.N,+3V3*
G04 #@! TO.C,U2*
G36*
X103651472Y-88169289D02*
X102802944Y-89017817D01*
X102378680Y-88593553D01*
X103227208Y-87745025D01*
X103651472Y-88169289D01*
X103651472Y-88169289D01*
G37*
D10*
G04 #@! TO.P,U2,4*
G04 #@! TO.N,Net-(U2-Pad4)*
X104358579Y-89724924D03*
D11*
G04 #@! TD*
G04 #@! TO.N,Net-(U2-Pad4)*
G04 #@! TO.C,U2*
G36*
X104994975Y-89512792D02*
X104146447Y-90361320D01*
X103722183Y-89937056D01*
X104570711Y-89088528D01*
X104994975Y-89512792D01*
X104994975Y-89512792D01*
G37*
D10*
G04 #@! TO.P,U2,3*
G04 #@! TO.N,+5V*
X105984924Y-88098579D03*
D11*
G04 #@! TD*
G04 #@! TO.N,+5V*
G04 #@! TO.C,U2*
G36*
X106621320Y-87886447D02*
X105772792Y-88734975D01*
X105348528Y-88310711D01*
X106197056Y-87462183D01*
X106621320Y-87886447D01*
X106621320Y-87886447D01*
G37*
D10*
G04 #@! TO.P,U2,1*
G04 #@! TO.N,+5V*
X104641421Y-86755076D03*
D11*
G04 #@! TD*
G04 #@! TO.N,+5V*
G04 #@! TO.C,U2*
G36*
X105277817Y-86542944D02*
X104429289Y-87391472D01*
X104005025Y-86967208D01*
X104853553Y-86118680D01*
X105277817Y-86542944D01*
X105277817Y-86542944D01*
G37*
D10*
G04 #@! TO.P,U2,2*
G04 #@! TO.N,GND*
X105313173Y-87426827D03*
D11*
G04 #@! TD*
G04 #@! TO.N,GND*
G04 #@! TO.C,U2*
G36*
X105949569Y-87214695D02*
X105101041Y-88063223D01*
X104676777Y-87638959D01*
X105525305Y-86790431D01*
X105949569Y-87214695D01*
X105949569Y-87214695D01*
G37*
D26*
G04 #@! TO.P,C2,1*
G04 #@! TO.N,+3V3*
X121670000Y-80040000D03*
G04 #@! TO.P,C2,2*
G04 #@! TO.N,GND*
X121670000Y-83040000D03*
G04 #@! TD*
D12*
G04 #@! TO.P,SW1,1*
G04 #@! TO.N,GND*
X133260993Y-83755491D03*
D11*
G04 #@! TD*
G04 #@! TO.N,GND*
G04 #@! TO.C,SW1*
G36*
X133943806Y-83232264D02*
X133534485Y-84571090D01*
X132578180Y-84278718D01*
X132987501Y-82939892D01*
X133943806Y-83232264D01*
X133943806Y-83232264D01*
G37*
D12*
G04 #@! TO.P,SW1,2*
G04 #@! TO.N,IDENTIFY*
X129244513Y-82527530D03*
D11*
G04 #@! TD*
G04 #@! TO.N,IDENTIFY*
G04 #@! TO.C,SW1*
G36*
X129927326Y-82004303D02*
X129518005Y-83343129D01*
X128561700Y-83050757D01*
X128971021Y-81711931D01*
X129927326Y-82004303D01*
X129927326Y-82004303D01*
G37*
D12*
G04 #@! TO.P,SW1,*
G04 #@! TO.N,GND*
X133971221Y-86220867D03*
D11*
G04 #@! TD*
G04 #@! TO.N,GND*
G04 #@! TO.C,SW1*
G36*
X135073712Y-86035086D02*
X134781340Y-86991391D01*
X132868730Y-86406648D01*
X133161102Y-85450343D01*
X135073712Y-86035086D01*
X135073712Y-86035086D01*
G37*
D12*
G04 #@! TO.P,SW1,*
G04 #@! TO.N,GND*
X127277087Y-84174265D03*
D11*
G04 #@! TD*
G04 #@! TO.N,GND*
G04 #@! TO.C,SW1*
G36*
X128379578Y-83988484D02*
X128087206Y-84944789D01*
X126174596Y-84360046D01*
X126466968Y-83403741D01*
X128379578Y-83988484D01*
X128379578Y-83988484D01*
G37*
D27*
G04 #@! TO.N,+5V*
X140470000Y-83840000D03*
X137300000Y-75350000D03*
X131800000Y-68500000D03*
X140500000Y-79500000D03*
G04 #@! TO.N,GND*
X135791393Y-76858058D03*
X139500000Y-82400000D03*
G04 #@! TO.N,+3V3*
X117569999Y-80529999D03*
X108600000Y-89100000D03*
G04 #@! TO.N,RESET*
X122870000Y-79140000D03*
X125300000Y-78500000D03*
G04 #@! TO.N,Net-(Q2-Pad3)*
X130000000Y-72250000D03*
X131700000Y-73950000D03*
G04 #@! TO.N,LED_R*
X127500000Y-74950000D03*
X130600000Y-76450000D03*
G04 #@! TO.N,INPUT*
X123070000Y-83240000D03*
X105639097Y-92526090D03*
G04 #@! TO.N,Net-(Q3-Pad1)*
X134700000Y-70650000D03*
X134700000Y-74450000D03*
G04 #@! TD*
D28*
G04 #@! TO.N,+5V*
X113379366Y-81630634D02*
X111223901Y-81630634D01*
X140470000Y-83840000D02*
X139770000Y-84540000D01*
X139770000Y-84540000D02*
X138870000Y-84540000D01*
X138870000Y-84540000D02*
X138857272Y-84552728D01*
X138857272Y-84552728D02*
X138836611Y-84552728D01*
X138836611Y-84552728D02*
X138164860Y-83880977D01*
X109870000Y-80740000D02*
X105570000Y-82940000D01*
X111223901Y-81630634D02*
X110333267Y-80740000D01*
X110333267Y-80740000D02*
X109870000Y-80740000D01*
X105570000Y-82940000D02*
X105570000Y-83095000D01*
X114200000Y-80810000D02*
X113379366Y-81630634D01*
X114200000Y-80800000D02*
X114200000Y-80810000D01*
X139000000Y-77050000D02*
X140500000Y-78550000D01*
X137300000Y-75350000D02*
X139000000Y-77050000D01*
X139000000Y-77050000D02*
X138441117Y-77050000D01*
X138441117Y-77050000D02*
X137255977Y-78235140D01*
X140500000Y-78550000D02*
X140500000Y-79500000D01*
X131800000Y-68500000D02*
X129500000Y-68500000D01*
X129500000Y-68500000D02*
X129500000Y-68400000D01*
X129500000Y-68400000D02*
X128400000Y-67300000D01*
X128400000Y-67300000D02*
X122789998Y-67300000D01*
X122549999Y-67950001D02*
X120899999Y-69600001D01*
X122789998Y-67300000D02*
X122549999Y-67539999D01*
X122549999Y-67539999D02*
X122549999Y-67950001D01*
X120899999Y-69600001D02*
X120900000Y-74100000D01*
X120900000Y-74100000D02*
X114200000Y-80800000D01*
X105300000Y-83950000D02*
X105570000Y-83095000D01*
X105570000Y-83095000D02*
X105600000Y-83000000D01*
X129600000Y-68700000D02*
X129200000Y-68700000D01*
X103457107Y-85792893D02*
X105300000Y-83950000D01*
X105300000Y-83950000D02*
X105156845Y-84093155D01*
X104429290Y-86765076D02*
X103457107Y-85792893D01*
D29*
X106479898Y-87613605D02*
X105984924Y-88108579D01*
X106479898Y-87330744D02*
X106479898Y-87613605D01*
X105419256Y-86270102D02*
X106479898Y-87330744D01*
X105136395Y-86270102D02*
X105419256Y-86270102D01*
D28*
G04 #@! TO.N,GND*
X121670000Y-82840000D02*
X122370000Y-82840000D01*
X122370000Y-82840000D02*
X123070000Y-82140000D01*
D29*
X125616117Y-81048097D02*
X124524214Y-82140000D01*
X124524214Y-82140000D02*
X123070000Y-82140000D01*
D30*
X133971221Y-86220867D02*
X133971221Y-84465719D01*
X133971221Y-84465719D02*
X133260993Y-83755491D01*
X133971221Y-86220867D02*
X127525000Y-84250000D01*
X127525000Y-84250000D02*
X127277087Y-84174265D01*
D29*
X135863946Y-76858058D02*
X135791393Y-76858058D01*
X136377119Y-77371231D02*
X135863946Y-76858058D01*
X139028769Y-82977119D02*
X139028769Y-82871231D01*
X139028769Y-82871231D02*
X139500000Y-82400000D01*
X129824264Y-74775736D02*
X130524264Y-75475736D01*
D28*
G04 #@! TO.N,+3V3*
X123070000Y-80940000D02*
X122570000Y-80940000D01*
X122570000Y-80940000D02*
X121670000Y-80040000D01*
X121670000Y-80040000D02*
X118059998Y-80040000D01*
X118059998Y-80040000D02*
X117569999Y-80529999D01*
D29*
G04 #@! TO.N,+5V*
X104641421Y-86765076D02*
X105136395Y-86270102D01*
D28*
X104641421Y-86765076D02*
X104429290Y-86765076D01*
D29*
G04 #@! TO.N,+3V3*
X125262563Y-80694544D02*
X124767589Y-81189518D01*
X124767589Y-81189518D02*
X123769518Y-81189518D01*
X123769518Y-81189518D02*
X123520000Y-80940000D01*
X123520000Y-80940000D02*
X123070000Y-80940000D01*
D28*
X105542893Y-90707107D02*
X107027833Y-90707107D01*
X108600000Y-89134940D02*
X108600000Y-89100000D01*
X107027833Y-90707107D02*
X108600000Y-89134940D01*
X105118630Y-91131370D02*
X105542893Y-90707107D01*
D29*
X125757537Y-80199570D02*
X128444544Y-77512563D01*
X125262563Y-80694544D02*
X125757537Y-80199570D01*
D28*
X104270085Y-91131370D02*
X105118630Y-91131370D01*
X103015076Y-89876361D02*
X104270085Y-91131370D01*
D29*
G04 #@! TO.N,RESET*
X107882627Y-83333099D02*
X108270000Y-83840000D01*
X108270000Y-83840000D02*
X108770000Y-83940000D01*
X113973927Y-83036073D02*
X118070000Y-78940000D01*
X108770000Y-83940000D02*
X109559474Y-85440000D01*
X118070000Y-78940000D02*
X122670000Y-78940000D01*
X109559474Y-85440000D02*
X112770000Y-85440000D01*
X112770000Y-85440000D02*
X113973927Y-84236073D01*
X113973927Y-84236073D02*
X113973927Y-83036073D01*
X122670000Y-78940000D02*
X122870000Y-79140000D01*
X126750000Y-78500000D02*
X125300000Y-78500000D01*
X128090990Y-77159010D02*
X126750000Y-78500000D01*
X129675736Y-76324264D02*
X129222183Y-76324264D01*
X129222183Y-76324264D02*
X128882411Y-76664036D01*
X128882411Y-76664036D02*
X128585964Y-76664036D01*
X128585964Y-76664036D02*
X128090990Y-77159010D01*
G04 #@! TO.N,Net-(D1-Pad3)*
X130700000Y-70300000D02*
X129700000Y-70300000D01*
X129700000Y-70300000D02*
X129500000Y-70500000D01*
G04 #@! TO.N,Net-(D1-Pad4)*
X122400000Y-70300000D02*
X123300000Y-70300000D01*
X123300000Y-70300000D02*
X123500000Y-70500000D01*
X123500000Y-70400000D02*
X123500000Y-70500000D01*
G04 #@! TO.N,Net-(D1-Pad1)*
X121600000Y-71500000D02*
X121600000Y-69700000D01*
X121600000Y-69700000D02*
X122800000Y-68500000D01*
X122800000Y-68500000D02*
X123500000Y-68500000D01*
G04 #@! TO.N,Net-(Q1-Pad3)*
X122050000Y-74050000D02*
X122050000Y-73150000D01*
X122050000Y-73150000D02*
X121600000Y-72700000D01*
G04 #@! TO.N,Net-(Q2-Pad3)*
X133100000Y-73800000D02*
X131850000Y-73800000D01*
X131850000Y-73800000D02*
X131700000Y-73950000D01*
X130000000Y-72250000D02*
X129250000Y-71500000D01*
X129250000Y-71500000D02*
X125740002Y-71500000D01*
X122400000Y-71500000D02*
X125740002Y-71500000D01*
G04 #@! TO.N,LED_R*
X127500000Y-74950000D02*
X127500000Y-74450000D01*
X127500000Y-74450000D02*
X127100000Y-74050000D01*
X128798097Y-77866117D02*
X129293071Y-77371143D01*
X129293071Y-77371143D02*
X129678857Y-77371143D01*
X129678857Y-77371143D02*
X130600000Y-76450000D01*
G04 #@! TO.N,LED_B*
X130900000Y-79250000D02*
X129394112Y-79250000D01*
X129394112Y-79250000D02*
X129257716Y-79386396D01*
G04 #@! TO.N,LED_G*
X129257716Y-78113604D02*
X130763604Y-78113604D01*
X130763604Y-78113604D02*
X130900000Y-78250000D01*
G04 #@! TO.N,IDENTIFY*
X128058644Y-82429964D02*
X127136396Y-81507716D01*
X129120359Y-82429964D02*
X128058644Y-82429964D01*
G04 #@! TO.N,INPUT*
X124331321Y-83040000D02*
X126146447Y-81224874D01*
X123070000Y-83240000D02*
X124131321Y-83240000D01*
X124131321Y-83240000D02*
X124331321Y-83040000D01*
X98250000Y-92250000D02*
X105363007Y-92250000D01*
X105363007Y-92250000D02*
X105639097Y-92526090D01*
X125800000Y-81600000D02*
X125863604Y-81507716D01*
D28*
G04 #@! TO.N,+3V3*
X103015076Y-88391421D02*
X103015076Y-89876361D01*
D29*
G04 #@! TO.N,Net-(R4-Pad2)*
X127525304Y-75603376D02*
X127136396Y-75992284D01*
X128501295Y-75603376D02*
X127525304Y-75603376D01*
X128522183Y-75624264D02*
X128501295Y-75603376D01*
X128975736Y-75624264D02*
X128522183Y-75624264D01*
G04 #@! TO.N,A1IN*
X129594118Y-80110670D02*
X129604810Y-80099978D01*
X129604810Y-80099978D02*
X137183905Y-80099978D01*
X129274884Y-80110670D02*
X129594118Y-80110670D01*
X137473134Y-79810749D02*
X138144885Y-79138998D01*
X137183905Y-80099978D02*
X137473134Y-79810749D01*
X128798097Y-79633883D02*
X129274884Y-80110670D01*
G04 #@! TO.N,A1EX*
X128939518Y-80482411D02*
X128444544Y-79987437D01*
X128957096Y-80499989D02*
X128939518Y-80482411D01*
X129179889Y-80510681D02*
X129169197Y-80499989D01*
X129770499Y-80499989D02*
X129759807Y-80510681D01*
X138027397Y-80499989D02*
X129770499Y-80499989D01*
X139028769Y-80022881D02*
X138504505Y-80022881D01*
X129169197Y-80499989D02*
X128957096Y-80499989D01*
X138504505Y-80022881D02*
X138027397Y-80499989D01*
X129759807Y-80510681D02*
X129179889Y-80510681D01*
G04 #@! TO.N,A2IN*
X133426809Y-80910692D02*
X136589251Y-84073134D01*
X128090990Y-80340990D02*
X128660692Y-80910692D01*
X136589251Y-84073134D02*
X137261002Y-84744885D01*
X128660692Y-80910692D02*
X133426809Y-80910692D01*
G04 #@! TO.N,A2EX*
X136377119Y-85104505D02*
X136377119Y-85628769D01*
X132672614Y-81400000D02*
X136377119Y-85104505D01*
X128442893Y-81400000D02*
X132672614Y-81400000D01*
X127737437Y-80694544D02*
X128442893Y-81400000D01*
G04 #@! TO.N,Net-(Q3-Pad3)*
X133100000Y-69700000D02*
X132500000Y-69700000D01*
X132500000Y-69700000D02*
X130700000Y-71500000D01*
G04 #@! TO.N,Net-(Q1-Pad1)*
X125900000Y-74050000D02*
X125300000Y-74050000D01*
X125300000Y-74050000D02*
X124350000Y-73100000D01*
G04 #@! TO.N,Net-(Q2-Pad1)*
X134050000Y-76900000D02*
X134050000Y-76100000D01*
X132100000Y-78250000D02*
X132700000Y-78250000D01*
X132700000Y-78250000D02*
X134050000Y-76900000D01*
G04 #@! TO.N,Net-(Q3-Pad1)*
X134700000Y-70650000D02*
X134700000Y-71350000D01*
X134700000Y-71350000D02*
X134050000Y-72000000D01*
X134650001Y-77299999D02*
X134650001Y-74499999D01*
X134650001Y-74499999D02*
X134700000Y-74450000D01*
X132700000Y-79250000D02*
X134650001Y-77299999D01*
X132100000Y-79250000D02*
X132700000Y-79250000D01*
G04 #@! TO.N,SWDIO*
X108996385Y-82765610D02*
X109370000Y-83240000D01*
X109370000Y-83240000D02*
X110170000Y-83440000D01*
X112870000Y-84740000D02*
X113570000Y-84040000D01*
X110170000Y-83440000D02*
X110854211Y-84740000D01*
X110854211Y-84740000D02*
X112870000Y-84740000D01*
X113570000Y-84040000D02*
X113570000Y-82840000D01*
X113570000Y-82840000D02*
X117870000Y-78540000D01*
X117870000Y-78540000D02*
X123270000Y-78540000D01*
X123565508Y-78835508D02*
X123565508Y-79209620D01*
X123270000Y-78540000D02*
X123565508Y-78835508D01*
X123565508Y-79209620D02*
X123742284Y-79386396D01*
G04 #@! TO.N,SWCLK*
X110110143Y-82198122D02*
X110370000Y-82540000D01*
X112770000Y-84240000D02*
X113170000Y-83840000D01*
X110370000Y-82540000D02*
X111270000Y-82840000D01*
X111270000Y-82840000D02*
X111970000Y-84240000D01*
X113170000Y-83840000D02*
X113170000Y-82640000D01*
X123416548Y-78100000D02*
X123430152Y-78113604D01*
X111970000Y-84240000D02*
X112770000Y-84240000D01*
X123430152Y-78113604D02*
X123742284Y-78113604D01*
X113170000Y-82640000D02*
X117710000Y-78100000D01*
X117710000Y-78100000D02*
X123416548Y-78100000D01*
G04 #@! TD*
D31*
G04 #@! TO.N,GND*
G36*
X127365679Y-64080982D02*
X128024096Y-64177145D01*
X128613400Y-64331429D01*
X129135475Y-64530219D01*
X129591725Y-64760058D01*
X129983103Y-65007452D01*
X130310094Y-65258642D01*
X130578851Y-65504919D01*
X137436199Y-72362707D01*
X136663774Y-73135132D01*
X136663774Y-73258876D01*
X137167588Y-73762689D01*
X137181730Y-73748547D01*
X137252441Y-73819258D01*
X137238299Y-73833400D01*
X137742112Y-74337214D01*
X137865856Y-74337214D01*
X138638242Y-73564828D01*
X142810038Y-77736892D01*
X142037786Y-78509144D01*
X142037786Y-78632888D01*
X142541600Y-79136701D01*
X142555742Y-79122559D01*
X142626453Y-79193270D01*
X142612311Y-79207412D01*
X143116124Y-79711226D01*
X143239868Y-79711226D01*
X143797583Y-79153511D01*
X143797730Y-83821636D01*
X143264868Y-83288774D01*
X143141124Y-83288774D01*
X142637311Y-83792588D01*
X142651453Y-83806730D01*
X142580742Y-83877441D01*
X142566600Y-83863299D01*
X142062786Y-84367112D01*
X142062786Y-84490856D01*
X142795874Y-85223944D01*
X138622614Y-89394544D01*
X137890856Y-88662786D01*
X137767112Y-88662786D01*
X137263299Y-89166600D01*
X137277441Y-89180742D01*
X137206730Y-89251453D01*
X137192588Y-89237311D01*
X137178446Y-89251453D01*
X137107735Y-89180742D01*
X137121877Y-89166600D01*
X136017023Y-88061746D01*
X135893279Y-88061746D01*
X135730722Y-88224303D01*
X135443329Y-88011728D01*
X135438431Y-88007578D01*
X135427530Y-88000043D01*
X135416893Y-87992175D01*
X135411392Y-87988887D01*
X135235483Y-87867291D01*
X136087734Y-87867291D01*
X136087734Y-87991035D01*
X137192588Y-89095889D01*
X137696402Y-88592076D01*
X137696402Y-88468332D01*
X136863410Y-87635340D01*
X136814659Y-87586590D01*
X136757335Y-87548286D01*
X136693639Y-87521903D01*
X136626019Y-87508452D01*
X136557075Y-87508452D01*
X136489456Y-87521903D01*
X136425760Y-87548286D01*
X136368435Y-87586590D01*
X136087734Y-87867291D01*
X135235483Y-87867291D01*
X134873554Y-87617111D01*
X134868417Y-87613039D01*
X134857389Y-87605937D01*
X134846618Y-87598492D01*
X134840896Y-87595316D01*
X134300415Y-87247266D01*
X134295042Y-87243291D01*
X134283892Y-87236626D01*
X134272991Y-87229606D01*
X134267055Y-87226561D01*
X134176618Y-87172501D01*
X134711976Y-87336176D01*
X134780572Y-87343084D01*
X134849199Y-87336476D01*
X134915218Y-87316607D01*
X134976092Y-87284239D01*
X135029482Y-87240618D01*
X135073336Y-87187419D01*
X135105968Y-87126687D01*
X135126125Y-87060755D01*
X135222031Y-86747061D01*
X135163937Y-86637802D01*
X134004418Y-86283301D01*
X133998570Y-86302428D01*
X133902940Y-86273190D01*
X133908787Y-86254064D01*
X133691623Y-86187670D01*
X134033655Y-86187670D01*
X135193174Y-86542171D01*
X135302434Y-86484077D01*
X135398340Y-86170382D01*
X135418497Y-86104451D01*
X135425404Y-86035854D01*
X135418796Y-85967227D01*
X135398927Y-85901208D01*
X135366560Y-85840334D01*
X135322938Y-85786945D01*
X135269739Y-85743090D01*
X135209007Y-85710458D01*
X134351229Y-85448209D01*
X134241970Y-85506303D01*
X134033655Y-86187670D01*
X133691623Y-86187670D01*
X132749268Y-85899563D01*
X132640008Y-85957657D01*
X132544102Y-86271352D01*
X132543163Y-86274422D01*
X132533291Y-86269402D01*
X132526773Y-86266857D01*
X131976781Y-86010964D01*
X131970575Y-86007587D01*
X131958993Y-86002688D01*
X131947572Y-85997374D01*
X131940894Y-85995032D01*
X131388815Y-85761502D01*
X131382427Y-85758315D01*
X131370718Y-85753847D01*
X131359194Y-85748972D01*
X131352388Y-85746852D01*
X131215656Y-85694673D01*
X132720411Y-85694673D01*
X132778505Y-85803932D01*
X133938024Y-86158433D01*
X134146339Y-85477066D01*
X134088245Y-85367807D01*
X133230466Y-85105558D01*
X133161870Y-85098650D01*
X133093243Y-85105258D01*
X133027224Y-85125127D01*
X132966350Y-85157495D01*
X132912960Y-85201116D01*
X132869106Y-85254315D01*
X132836474Y-85315047D01*
X132816317Y-85380979D01*
X132720411Y-85694673D01*
X131215656Y-85694673D01*
X130798300Y-85535404D01*
X130791765Y-85532431D01*
X130779957Y-85528403D01*
X130768300Y-85523955D01*
X130761374Y-85522065D01*
X130205413Y-85332436D01*
X130198747Y-85329689D01*
X130186830Y-85326098D01*
X130175051Y-85322080D01*
X130168032Y-85320433D01*
X129610315Y-85152357D01*
X129603542Y-85149847D01*
X129591505Y-85146688D01*
X129579606Y-85143102D01*
X129572528Y-85141707D01*
X129013170Y-84994906D01*
X129006306Y-84992641D01*
X128994150Y-84989915D01*
X128982137Y-84986762D01*
X128975020Y-84985624D01*
X128474998Y-84873484D01*
X128527897Y-84700459D01*
X128469803Y-84591200D01*
X127310284Y-84236699D01*
X127304436Y-84255826D01*
X127208806Y-84226588D01*
X127214653Y-84207462D01*
X126997489Y-84141068D01*
X127339521Y-84141068D01*
X128499040Y-84495569D01*
X128608300Y-84437475D01*
X128704206Y-84123780D01*
X128724363Y-84057849D01*
X128731270Y-83989252D01*
X128724662Y-83920625D01*
X128704793Y-83854606D01*
X128672426Y-83793732D01*
X128628804Y-83740343D01*
X128575605Y-83696488D01*
X128514873Y-83663856D01*
X127657095Y-83401607D01*
X127547836Y-83459701D01*
X127339521Y-84141068D01*
X126997489Y-84141068D01*
X126055134Y-83852961D01*
X125945874Y-83911055D01*
X125849968Y-84224750D01*
X125829811Y-84290681D01*
X125822904Y-84359278D01*
X125829512Y-84427905D01*
X125849381Y-84493924D01*
X125869334Y-84531450D01*
X125396322Y-84510716D01*
X125389514Y-84509979D01*
X125376713Y-84509856D01*
X125363915Y-84509295D01*
X125357074Y-84509667D01*
X124789387Y-84504213D01*
X124782676Y-84503714D01*
X124769741Y-84504024D01*
X124756820Y-84503900D01*
X124750125Y-84504495D01*
X124181677Y-84518125D01*
X124175079Y-84517853D01*
X124162074Y-84518595D01*
X124149017Y-84518908D01*
X124142446Y-84519715D01*
X123573366Y-84552179D01*
X123566888Y-84552122D01*
X123553764Y-84553298D01*
X123540609Y-84554048D01*
X123534207Y-84555049D01*
X122964578Y-84606072D01*
X122958238Y-84606217D01*
X122945019Y-84607824D01*
X122931759Y-84609012D01*
X122925530Y-84610194D01*
X122355463Y-84679507D01*
X122349272Y-84679840D01*
X122335954Y-84681879D01*
X122322606Y-84683502D01*
X122316566Y-84684847D01*
X121746140Y-84772182D01*
X121740116Y-84772689D01*
X121726735Y-84775153D01*
X121713281Y-84777213D01*
X121707422Y-84778710D01*
X121136758Y-84883798D01*
X121130902Y-84884465D01*
X121117442Y-84887355D01*
X121103912Y-84889847D01*
X121098252Y-84891476D01*
X120527431Y-85014056D01*
X120521758Y-85014867D01*
X120508249Y-85018175D01*
X120494629Y-85021100D01*
X120489163Y-85022849D01*
X119918292Y-85162650D01*
X119912797Y-85163592D01*
X119899236Y-85167316D01*
X119885553Y-85170667D01*
X119880285Y-85172520D01*
X119309454Y-85329284D01*
X119304142Y-85330344D01*
X119290531Y-85334481D01*
X119276796Y-85338253D01*
X119271732Y-85340195D01*
X118701042Y-85513655D01*
X118695901Y-85514822D01*
X118682225Y-85519375D01*
X118668478Y-85523553D01*
X118663624Y-85525567D01*
X118093133Y-85715478D01*
X118088188Y-85716734D01*
X118074522Y-85721674D01*
X118060706Y-85726273D01*
X118056037Y-85728355D01*
X117485881Y-85934447D01*
X117481117Y-85935783D01*
X117467435Y-85941115D01*
X117453593Y-85946118D01*
X117449118Y-85948252D01*
X116879387Y-86170265D01*
X116874788Y-86171674D01*
X116861061Y-86177406D01*
X116847244Y-86182790D01*
X116842968Y-86184961D01*
X116273738Y-86422647D01*
X116269311Y-86424117D01*
X116255571Y-86430233D01*
X116241764Y-86435998D01*
X116237677Y-86438197D01*
X115669036Y-86691304D01*
X115664784Y-86692823D01*
X115651071Y-86699300D01*
X115637255Y-86705450D01*
X115633341Y-86707675D01*
X115065410Y-86975940D01*
X115061323Y-86977501D01*
X115047617Y-86984344D01*
X115033823Y-86990860D01*
X115030084Y-86993098D01*
X114462943Y-87276270D01*
X114459015Y-87277866D01*
X114445336Y-87285060D01*
X114431568Y-87291935D01*
X114427993Y-87294182D01*
X113861742Y-87592012D01*
X113857974Y-87593634D01*
X113844341Y-87601164D01*
X113830590Y-87608397D01*
X113827172Y-87610648D01*
X113261910Y-87922880D01*
X113258295Y-87924522D01*
X113244713Y-87932379D01*
X113230989Y-87939960D01*
X113227722Y-87942209D01*
X112663557Y-88268583D01*
X112660079Y-88270244D01*
X112646521Y-88278439D01*
X112632870Y-88286336D01*
X112629753Y-88288574D01*
X112066770Y-88628854D01*
X112063434Y-88630524D01*
X112049940Y-88639026D01*
X112036328Y-88647254D01*
X112033348Y-88649481D01*
X111471658Y-89003403D01*
X111468457Y-89005078D01*
X111455027Y-89013882D01*
X111441466Y-89022427D01*
X111438618Y-89024639D01*
X110878320Y-89391950D01*
X110875245Y-89393628D01*
X110861886Y-89402723D01*
X110848385Y-89411574D01*
X110845661Y-89413769D01*
X110286867Y-89794216D01*
X110283908Y-89795896D01*
X110270586Y-89805300D01*
X110257185Y-89814424D01*
X110254588Y-89816593D01*
X109697374Y-90209937D01*
X109694541Y-90211608D01*
X109681343Y-90221253D01*
X109667965Y-90230697D01*
X109665473Y-90232852D01*
X109109975Y-90638819D01*
X109107247Y-90640487D01*
X109094106Y-90650416D01*
X109080829Y-90660119D01*
X109078449Y-90662246D01*
X108524767Y-91080592D01*
X108522138Y-91082256D01*
X108509032Y-91092481D01*
X108495880Y-91102418D01*
X108493612Y-91104511D01*
X107941825Y-91534991D01*
X107939302Y-91536642D01*
X107926319Y-91547088D01*
X107913217Y-91557310D01*
X107911039Y-91559383D01*
X107361289Y-92001723D01*
X107358853Y-92003368D01*
X107345916Y-92014092D01*
X107332945Y-92024529D01*
X107330866Y-92026568D01*
X106783231Y-92480537D01*
X106780892Y-92482165D01*
X106768074Y-92493101D01*
X106755164Y-92503803D01*
X106753168Y-92505818D01*
X106207775Y-92971139D01*
X106205520Y-92972756D01*
X106192786Y-92983927D01*
X106179982Y-92994852D01*
X106178070Y-92996839D01*
X105635013Y-93473275D01*
X105632849Y-93474871D01*
X105620259Y-93486219D01*
X105607500Y-93497413D01*
X105605660Y-93499378D01*
X105065064Y-93986655D01*
X105062976Y-93988237D01*
X105050474Y-93999806D01*
X105037824Y-94011208D01*
X105036060Y-94013144D01*
X104520616Y-94490108D01*
X103968727Y-93938218D01*
X103844983Y-93938218D01*
X101926956Y-95856245D01*
X101941098Y-95870387D01*
X101870387Y-95941098D01*
X101856245Y-95926956D01*
X101842103Y-95941098D01*
X101771392Y-95870387D01*
X101785534Y-95856245D01*
X100857457Y-94928167D01*
X100733713Y-94928167D01*
X99190414Y-96471467D01*
X97635976Y-94917029D01*
X97819292Y-94733713D01*
X100928167Y-94733713D01*
X100928167Y-94857457D01*
X101856245Y-95785534D01*
X103774272Y-93867507D01*
X103774272Y-93743763D01*
X103069306Y-93038798D01*
X103011982Y-93000495D01*
X102948286Y-92974111D01*
X102880667Y-92960660D01*
X102811722Y-92960660D01*
X102744103Y-92974111D01*
X102680407Y-93000495D01*
X102623083Y-93038798D01*
X102574332Y-93087549D01*
X100928167Y-94733713D01*
X97819292Y-94733713D01*
X99853005Y-92700000D01*
X105010955Y-92700000D01*
X105014076Y-92715688D01*
X105063075Y-92833980D01*
X105134209Y-92940441D01*
X105224746Y-93030978D01*
X105331207Y-93102112D01*
X105449499Y-93151111D01*
X105575078Y-93176090D01*
X105703116Y-93176090D01*
X105828695Y-93151111D01*
X105946987Y-93102112D01*
X106053448Y-93030978D01*
X106143985Y-92940441D01*
X106215119Y-92833980D01*
X106264118Y-92715688D01*
X106289097Y-92590109D01*
X106289097Y-92462071D01*
X106264118Y-92336492D01*
X106215119Y-92218200D01*
X106143985Y-92111739D01*
X106053448Y-92021202D01*
X105946987Y-91950068D01*
X105828695Y-91901069D01*
X105703116Y-91876090D01*
X105616734Y-91876090D01*
X105614223Y-91874029D01*
X105536048Y-91832243D01*
X105451222Y-91806511D01*
X105385112Y-91800000D01*
X105385101Y-91800000D01*
X105363007Y-91797824D01*
X105340913Y-91800000D01*
X100753005Y-91800000D01*
X101044269Y-91508736D01*
X101088006Y-91455441D01*
X101120506Y-91394638D01*
X101140519Y-91328663D01*
X101147277Y-91260051D01*
X101140519Y-91191439D01*
X101120506Y-91125464D01*
X101088006Y-91064661D01*
X101044269Y-91011366D01*
X99488634Y-89455731D01*
X99435339Y-89411994D01*
X99374536Y-89379494D01*
X99308561Y-89359481D01*
X99239949Y-89352723D01*
X99171337Y-89359481D01*
X99105362Y-89379494D01*
X99044559Y-89411994D01*
X98991264Y-89455731D01*
X95582971Y-92864024D01*
X94029731Y-91310784D01*
X96746962Y-88593553D01*
X102026987Y-88593553D01*
X102033745Y-88662165D01*
X102053758Y-88728140D01*
X102086258Y-88788943D01*
X102129995Y-88842238D01*
X102415076Y-89127319D01*
X102415077Y-89846878D01*
X102412173Y-89876361D01*
X102423758Y-89993981D01*
X102439392Y-90045518D01*
X102458067Y-90107082D01*
X102513781Y-90211316D01*
X102588760Y-90302678D01*
X102611657Y-90321470D01*
X103824976Y-91534789D01*
X103843768Y-91557687D01*
X103935130Y-91632666D01*
X104035102Y-91686102D01*
X104039364Y-91688380D01*
X104152464Y-91722688D01*
X104270085Y-91734273D01*
X104299559Y-91731370D01*
X105089156Y-91731370D01*
X105118630Y-91734273D01*
X105148104Y-91731370D01*
X105236251Y-91722688D01*
X105320712Y-91697067D01*
X105350538Y-91706115D01*
X105419150Y-91712873D01*
X105487762Y-91706115D01*
X105553737Y-91686102D01*
X105614540Y-91653602D01*
X105667835Y-91609865D01*
X105970593Y-91307107D01*
X106998359Y-91307107D01*
X107027833Y-91310010D01*
X107057307Y-91307107D01*
X107145454Y-91298425D01*
X107258554Y-91264117D01*
X107362788Y-91208403D01*
X107454150Y-91133424D01*
X107472946Y-91110521D01*
X108907132Y-89676336D01*
X108907890Y-89676022D01*
X109014351Y-89604888D01*
X109104888Y-89514351D01*
X109176022Y-89407890D01*
X109225021Y-89289598D01*
X109250000Y-89164019D01*
X109250000Y-89035981D01*
X109225021Y-88910402D01*
X109176022Y-88792110D01*
X109104888Y-88685649D01*
X109014351Y-88595112D01*
X108907890Y-88523978D01*
X108789598Y-88474979D01*
X108664019Y-88450000D01*
X108535981Y-88450000D01*
X108410402Y-88474979D01*
X108292110Y-88523978D01*
X108185649Y-88595112D01*
X108095112Y-88685649D01*
X108023978Y-88792110D01*
X107974979Y-88910402D01*
X107974723Y-88911689D01*
X107906007Y-88980405D01*
X107883043Y-88946038D01*
X107690730Y-88753725D01*
X107566986Y-88753725D01*
X106992462Y-89328249D01*
X107006604Y-89342391D01*
X106935893Y-89413102D01*
X106921751Y-89398960D01*
X106907609Y-89413102D01*
X106836898Y-89342391D01*
X106851040Y-89328249D01*
X106435615Y-88912824D01*
X106311871Y-88912824D01*
X105960459Y-89264236D01*
X105922156Y-89321560D01*
X105895772Y-89385257D01*
X105882322Y-89452876D01*
X105882322Y-89521820D01*
X105895772Y-89589439D01*
X105922156Y-89653136D01*
X105960459Y-89710460D01*
X105972667Y-89722668D01*
X105932738Y-89689900D01*
X105871935Y-89657400D01*
X105805960Y-89637387D01*
X105737348Y-89630629D01*
X105668736Y-89637387D01*
X105602761Y-89657400D01*
X105541958Y-89689900D01*
X105488663Y-89733637D01*
X104690930Y-90531370D01*
X104518613Y-90531370D01*
X104496190Y-90508947D01*
X105243660Y-89761477D01*
X105287397Y-89708182D01*
X105319897Y-89647379D01*
X105339910Y-89581404D01*
X105346668Y-89512792D01*
X105339910Y-89444180D01*
X105319897Y-89378205D01*
X105287397Y-89317402D01*
X105243660Y-89264107D01*
X104819396Y-88839843D01*
X104766101Y-88796106D01*
X104705298Y-88763606D01*
X104639323Y-88743593D01*
X104570711Y-88736835D01*
X104502099Y-88743593D01*
X104436124Y-88763606D01*
X104375321Y-88796106D01*
X104322026Y-88839843D01*
X103615076Y-89546793D01*
X103615076Y-88703055D01*
X103900157Y-88417974D01*
X103943894Y-88364679D01*
X103976394Y-88303876D01*
X103996407Y-88237901D01*
X104003165Y-88169289D01*
X103996407Y-88100677D01*
X103976394Y-88034702D01*
X103943894Y-87973899D01*
X103900157Y-87920604D01*
X103475893Y-87496340D01*
X103422598Y-87452603D01*
X103361795Y-87420103D01*
X103295820Y-87400090D01*
X103227208Y-87393332D01*
X103158596Y-87400090D01*
X103092621Y-87420103D01*
X103031818Y-87452603D01*
X102978523Y-87496340D01*
X102129995Y-88344868D01*
X102086258Y-88398163D01*
X102053758Y-88458966D01*
X102033745Y-88524941D01*
X102026987Y-88593553D01*
X96746962Y-88593553D01*
X97438024Y-87902491D01*
X97481761Y-87849196D01*
X97514261Y-87788393D01*
X97529675Y-87737579D01*
X97768713Y-87836592D01*
X98087489Y-87900000D01*
X98412511Y-87900000D01*
X98731287Y-87836592D01*
X98778619Y-87816986D01*
X101503725Y-87816986D01*
X101503725Y-87940730D01*
X101696038Y-88133043D01*
X101753362Y-88171346D01*
X101817059Y-88197730D01*
X101884678Y-88211180D01*
X101953622Y-88211180D01*
X102021241Y-88197730D01*
X102084938Y-88171346D01*
X102142262Y-88133043D01*
X102493674Y-87781631D01*
X102493674Y-87657887D01*
X102078249Y-87242462D01*
X101503725Y-87816986D01*
X98778619Y-87816986D01*
X99031568Y-87712211D01*
X99301814Y-87531639D01*
X99531639Y-87301814D01*
X99535271Y-87296378D01*
X101038820Y-87296378D01*
X101038820Y-87365322D01*
X101052270Y-87432941D01*
X101078654Y-87496638D01*
X101116957Y-87553962D01*
X101309270Y-87746275D01*
X101433014Y-87746275D01*
X102007538Y-87171751D01*
X101592113Y-86756326D01*
X101468369Y-86756326D01*
X101116957Y-87107738D01*
X101078654Y-87165062D01*
X101052270Y-87228759D01*
X101038820Y-87296378D01*
X99535271Y-87296378D01*
X99712211Y-87031568D01*
X99836592Y-86731287D01*
X99870290Y-86561871D01*
X101662824Y-86561871D01*
X101662824Y-86685615D01*
X102078249Y-87101040D01*
X102092391Y-87086898D01*
X102163102Y-87157609D01*
X102148960Y-87171751D01*
X102564385Y-87587176D01*
X102688129Y-87587176D01*
X103039541Y-87235764D01*
X103077844Y-87178440D01*
X103104228Y-87114743D01*
X103117678Y-87047124D01*
X103117678Y-86978180D01*
X103104228Y-86910561D01*
X103077844Y-86846864D01*
X103039541Y-86789540D01*
X103027333Y-86777332D01*
X103067262Y-86810100D01*
X103128065Y-86842600D01*
X103194040Y-86862613D01*
X103262652Y-86869371D01*
X103331264Y-86862613D01*
X103397239Y-86842600D01*
X103458042Y-86810100D01*
X103511337Y-86766363D01*
X103546693Y-86731007D01*
X103672703Y-86857017D01*
X103660090Y-86898596D01*
X103653332Y-86967208D01*
X103660090Y-87035820D01*
X103680103Y-87101795D01*
X103712603Y-87162598D01*
X103756340Y-87215893D01*
X104180604Y-87640157D01*
X104233899Y-87683894D01*
X104294702Y-87716394D01*
X104337931Y-87729507D01*
X104340227Y-87741050D01*
X104366611Y-87804747D01*
X104404914Y-87862071D01*
X104544194Y-88001351D01*
X104667938Y-88001351D01*
X105242462Y-87426827D01*
X105228320Y-87412685D01*
X105299031Y-87341974D01*
X105313173Y-87356116D01*
X105327315Y-87341974D01*
X105398026Y-87412685D01*
X105383884Y-87426827D01*
X105398026Y-87440969D01*
X105327315Y-87511680D01*
X105313173Y-87497538D01*
X104738649Y-88072062D01*
X104738649Y-88195806D01*
X104877929Y-88335086D01*
X104935253Y-88373389D01*
X104998950Y-88399773D01*
X105010493Y-88402069D01*
X105023606Y-88445298D01*
X105056106Y-88506101D01*
X105099843Y-88559396D01*
X105524107Y-88983660D01*
X105577402Y-89027397D01*
X105638205Y-89059897D01*
X105704180Y-89079910D01*
X105772792Y-89086668D01*
X105841404Y-89079910D01*
X105907379Y-89059897D01*
X105968182Y-89027397D01*
X106021477Y-88983660D01*
X106286768Y-88718369D01*
X106506326Y-88718369D01*
X106506326Y-88842113D01*
X106921751Y-89257538D01*
X107496275Y-88683014D01*
X107496275Y-88559270D01*
X107303962Y-88366957D01*
X107246638Y-88328654D01*
X107182941Y-88302270D01*
X107115322Y-88288820D01*
X107046378Y-88288820D01*
X106978759Y-88302270D01*
X106915062Y-88328654D01*
X106857738Y-88366957D01*
X106506326Y-88718369D01*
X106286768Y-88718369D01*
X106870005Y-88135132D01*
X106913742Y-88081837D01*
X106946242Y-88021034D01*
X106966255Y-87955059D01*
X106973013Y-87886447D01*
X106966255Y-87817835D01*
X106946242Y-87751860D01*
X106921978Y-87706465D01*
X106923387Y-87701820D01*
X106929898Y-87635710D01*
X106929898Y-87635700D01*
X106932074Y-87613605D01*
X106929898Y-87591511D01*
X106929898Y-87352835D01*
X106932074Y-87330743D01*
X106929898Y-87308651D01*
X106929898Y-87308639D01*
X106923387Y-87242529D01*
X106897655Y-87157703D01*
X106886771Y-87137341D01*
X106855869Y-87079527D01*
X106813726Y-87028176D01*
X106813722Y-87028172D01*
X106799635Y-87011007D01*
X106782471Y-86996921D01*
X105753085Y-85967536D01*
X105738993Y-85950365D01*
X105670472Y-85894131D01*
X105592297Y-85852345D01*
X105507471Y-85826613D01*
X105441361Y-85820102D01*
X105441350Y-85820102D01*
X105419256Y-85817926D01*
X105397162Y-85820102D01*
X105158489Y-85820102D01*
X105136395Y-85817926D01*
X105114300Y-85820102D01*
X105114290Y-85820102D01*
X105049247Y-85826508D01*
X105048943Y-85826258D01*
X104988140Y-85793758D01*
X104922165Y-85773745D01*
X104853553Y-85766987D01*
X104784941Y-85773745D01*
X104718966Y-85793758D01*
X104658163Y-85826258D01*
X104604868Y-85869995D01*
X104493803Y-85981060D01*
X104391738Y-85878996D01*
X104403602Y-85864540D01*
X104436102Y-85803737D01*
X104456115Y-85737762D01*
X104462873Y-85669150D01*
X104459870Y-85638658D01*
X105721891Y-84376637D01*
X105761677Y-84337744D01*
X105780336Y-84310493D01*
X105801295Y-84284955D01*
X105813649Y-84261842D01*
X105828451Y-84240225D01*
X105841436Y-84209857D01*
X105857009Y-84180722D01*
X105857418Y-84179376D01*
X105873175Y-84127432D01*
X105980986Y-83786029D01*
X106127290Y-84073167D01*
X106244977Y-84111406D01*
X106701618Y-83878736D01*
X106692538Y-83860916D01*
X106781639Y-83815517D01*
X106790719Y-83833337D01*
X106808539Y-83824257D01*
X106853938Y-83913358D01*
X106836118Y-83922438D01*
X106845198Y-83940258D01*
X106756097Y-83985657D01*
X106747017Y-83967837D01*
X106290376Y-84200507D01*
X106252137Y-84318194D01*
X106559956Y-84922322D01*
X106591256Y-84983751D01*
X106623662Y-85024859D01*
X106620709Y-85054566D01*
X106637647Y-85110588D01*
X107437647Y-86610588D01*
X107472543Y-86654027D01*
X107523598Y-86682642D01*
X107581717Y-86689542D01*
X107638052Y-86673674D01*
X109315364Y-85819770D01*
X109326581Y-85825765D01*
X109343773Y-85837412D01*
X109365562Y-85846601D01*
X109386433Y-85857757D01*
X109406320Y-85863790D01*
X109425449Y-85871857D01*
X109448608Y-85876618D01*
X109471259Y-85883489D01*
X109491941Y-85885526D01*
X109512275Y-85889706D01*
X109535920Y-85889857D01*
X109537369Y-85890000D01*
X109558236Y-85890000D01*
X109600915Y-85890273D01*
X109602335Y-85890000D01*
X112747906Y-85890000D01*
X112770000Y-85892176D01*
X112792094Y-85890000D01*
X112792105Y-85890000D01*
X112858215Y-85883489D01*
X112943041Y-85857757D01*
X113021216Y-85815971D01*
X113089737Y-85759737D01*
X113103829Y-85742566D01*
X114276500Y-84569896D01*
X114293664Y-84555810D01*
X114307751Y-84538645D01*
X114307755Y-84538641D01*
X114349898Y-84487290D01*
X114391684Y-84409114D01*
X114396822Y-84392177D01*
X114417416Y-84324288D01*
X114423927Y-84258178D01*
X114423927Y-84258168D01*
X114426103Y-84236073D01*
X114423927Y-84213979D01*
X114423927Y-83222468D01*
X114468895Y-83177500D01*
X120520000Y-83177500D01*
X120520000Y-83574472D01*
X120533450Y-83642091D01*
X120559834Y-83705787D01*
X120598137Y-83763112D01*
X120646888Y-83811863D01*
X120704213Y-83850166D01*
X120767909Y-83876550D01*
X120835528Y-83890000D01*
X121532500Y-83890000D01*
X121620000Y-83802500D01*
X121620000Y-83090000D01*
X120607500Y-83090000D01*
X120520000Y-83177500D01*
X114468895Y-83177500D01*
X115140867Y-82505528D01*
X120520000Y-82505528D01*
X120520000Y-82902500D01*
X120607500Y-82990000D01*
X121620000Y-82990000D01*
X121620000Y-82277500D01*
X121532500Y-82190000D01*
X120835528Y-82190000D01*
X120767909Y-82203450D01*
X120704213Y-82229834D01*
X120646888Y-82268137D01*
X120598137Y-82316888D01*
X120559834Y-82374213D01*
X120533450Y-82437909D01*
X120520000Y-82505528D01*
X115140867Y-82505528D01*
X116941962Y-80704434D01*
X116944978Y-80719597D01*
X116993977Y-80837889D01*
X117065111Y-80944350D01*
X117155648Y-81034887D01*
X117262109Y-81106021D01*
X117380401Y-81155020D01*
X117505980Y-81179999D01*
X117634018Y-81179999D01*
X117759597Y-81155020D01*
X117877889Y-81106021D01*
X117984350Y-81034887D01*
X118074887Y-80944350D01*
X118146021Y-80837889D01*
X118171042Y-80777483D01*
X118308526Y-80640000D01*
X120534586Y-80640000D01*
X120545078Y-80674587D01*
X120577578Y-80735390D01*
X120621315Y-80788685D01*
X120674610Y-80832422D01*
X120735413Y-80864922D01*
X120801388Y-80884935D01*
X120870000Y-80891693D01*
X121673166Y-80891693D01*
X122124891Y-81343419D01*
X122143683Y-81366317D01*
X122235045Y-81441296D01*
X122339279Y-81497010D01*
X122452379Y-81531318D01*
X122530555Y-81539018D01*
X122532096Y-81540895D01*
X122509834Y-81574213D01*
X122483450Y-81637909D01*
X122470000Y-81705528D01*
X122470000Y-82002500D01*
X122557500Y-82090000D01*
X123020000Y-82090000D01*
X123020000Y-82070000D01*
X123120000Y-82070000D01*
X123120000Y-82090000D01*
X123582500Y-82090000D01*
X123670000Y-82002500D01*
X123670000Y-81705528D01*
X123656550Y-81637909D01*
X123650670Y-81623715D01*
X123681303Y-81633007D01*
X123747413Y-81639518D01*
X123747424Y-81639518D01*
X123769518Y-81641694D01*
X123791612Y-81639518D01*
X124745495Y-81639518D01*
X124767589Y-81641694D01*
X124789683Y-81639518D01*
X124789694Y-81639518D01*
X124855804Y-81633007D01*
X124890042Y-81622621D01*
X124970882Y-81622621D01*
X125028360Y-81565143D01*
X125078952Y-81549796D01*
X125139755Y-81517296D01*
X125179693Y-81484520D01*
X125146918Y-81524458D01*
X125114418Y-81585261D01*
X125099071Y-81635855D01*
X123944926Y-82790000D01*
X123564975Y-82790000D01*
X123591863Y-82763112D01*
X123630166Y-82705787D01*
X123656550Y-82642091D01*
X123670000Y-82574472D01*
X123670000Y-82277500D01*
X123582500Y-82190000D01*
X123120000Y-82190000D01*
X123120000Y-82210000D01*
X123020000Y-82210000D01*
X123020000Y-82190000D01*
X122557500Y-82190000D01*
X122548702Y-82198798D01*
X122504472Y-82190000D01*
X121807500Y-82190000D01*
X121720000Y-82277500D01*
X121720000Y-82990000D01*
X121740000Y-82990000D01*
X121740000Y-83090000D01*
X121720000Y-83090000D01*
X121720000Y-83802500D01*
X121807500Y-83890000D01*
X122504472Y-83890000D01*
X122572091Y-83876550D01*
X122635787Y-83850166D01*
X122693112Y-83811863D01*
X122718255Y-83786720D01*
X122762110Y-83816022D01*
X122880402Y-83865021D01*
X123005981Y-83890000D01*
X123134019Y-83890000D01*
X123259598Y-83865021D01*
X123377890Y-83816022D01*
X123484351Y-83744888D01*
X123539239Y-83690000D01*
X124109227Y-83690000D01*
X124131321Y-83692176D01*
X124153415Y-83690000D01*
X124153426Y-83690000D01*
X124219536Y-83683489D01*
X124304362Y-83657757D01*
X124322482Y-83648071D01*
X126026277Y-83648071D01*
X126084371Y-83757330D01*
X127243890Y-84111831D01*
X127452205Y-83430464D01*
X127394111Y-83321205D01*
X126536332Y-83058956D01*
X126467736Y-83052048D01*
X126399109Y-83058656D01*
X126333090Y-83078525D01*
X126272216Y-83110893D01*
X126218826Y-83154514D01*
X126174972Y-83207713D01*
X126142340Y-83268445D01*
X126122183Y-83334377D01*
X126026277Y-83648071D01*
X124322482Y-83648071D01*
X124382537Y-83615971D01*
X124451058Y-83559737D01*
X124465150Y-83542566D01*
X125735468Y-82272248D01*
X125786059Y-82256902D01*
X125846862Y-82224402D01*
X125900157Y-82180665D01*
X126430481Y-81650341D01*
X126430487Y-81650336D01*
X126500000Y-81580823D01*
X126569513Y-81650336D01*
X126569519Y-81650341D01*
X127099843Y-82180665D01*
X127153138Y-82224402D01*
X127213941Y-82256902D01*
X127264533Y-82272249D01*
X127724820Y-82732536D01*
X127738907Y-82749701D01*
X127756072Y-82763788D01*
X127756076Y-82763792D01*
X127807427Y-82805935D01*
X127866571Y-82837548D01*
X127885603Y-82847721D01*
X127970429Y-82873453D01*
X128036539Y-82879964D01*
X128036550Y-82879964D01*
X128058644Y-82882140D01*
X128080738Y-82879964D01*
X128246154Y-82879964D01*
X128225374Y-82947932D01*
X128211777Y-83015521D01*
X128211626Y-83084465D01*
X128224929Y-83152114D01*
X128251173Y-83215867D01*
X128289351Y-83273275D01*
X128337996Y-83322132D01*
X128395237Y-83360560D01*
X128458875Y-83387083D01*
X129415180Y-83679455D01*
X129482769Y-83693052D01*
X129551713Y-83693203D01*
X129619361Y-83679900D01*
X129683115Y-83653656D01*
X129740523Y-83615478D01*
X129789380Y-83566833D01*
X129827808Y-83509592D01*
X129854331Y-83445954D01*
X130028219Y-82877195D01*
X132434939Y-83624108D01*
X132407933Y-83638467D01*
X132253552Y-84143423D01*
X132233395Y-84209354D01*
X132226488Y-84277951D01*
X132233096Y-84346578D01*
X132252965Y-84412596D01*
X132285332Y-84473471D01*
X132328954Y-84526860D01*
X132382153Y-84570714D01*
X132442885Y-84603347D01*
X132822511Y-84719410D01*
X132876783Y-84690553D01*
X133027400Y-84690553D01*
X133085495Y-84799812D01*
X133465121Y-84915875D01*
X133533718Y-84922783D01*
X133602344Y-84916175D01*
X133668363Y-84896306D01*
X133729237Y-84863938D01*
X133782627Y-84820317D01*
X133826481Y-84767118D01*
X133859113Y-84706386D01*
X133879270Y-84640455D01*
X134033651Y-84135499D01*
X133975557Y-84026240D01*
X133294190Y-83817925D01*
X133027400Y-84690553D01*
X132876783Y-84690553D01*
X132931770Y-84661316D01*
X133198559Y-83788688D01*
X133179432Y-83782840D01*
X133208670Y-83687210D01*
X133227796Y-83693057D01*
X133233644Y-83673930D01*
X133329274Y-83703168D01*
X133323427Y-83722294D01*
X134004794Y-83930609D01*
X134114053Y-83872515D01*
X134206466Y-83570247D01*
X135491302Y-84855083D01*
X135335235Y-85011150D01*
X135291498Y-85064445D01*
X135258998Y-85125248D01*
X135238985Y-85191223D01*
X135232227Y-85259835D01*
X135238985Y-85328447D01*
X135258998Y-85394422D01*
X135291498Y-85455225D01*
X135335235Y-85508520D01*
X136537317Y-86710602D01*
X136590612Y-86754339D01*
X136651415Y-86786839D01*
X136717390Y-86806852D01*
X136786002Y-86813610D01*
X136854614Y-86806852D01*
X136920589Y-86786839D01*
X136981392Y-86754339D01*
X137034687Y-86710602D01*
X137458951Y-86286338D01*
X137502688Y-86233043D01*
X137535188Y-86172240D01*
X137555201Y-86106265D01*
X137561959Y-86037653D01*
X137555201Y-85969041D01*
X137535188Y-85903066D01*
X137535061Y-85902828D01*
X137535299Y-85902955D01*
X137601274Y-85922968D01*
X137669886Y-85929726D01*
X137738498Y-85922968D01*
X137804473Y-85902955D01*
X137865276Y-85870455D01*
X137918571Y-85826718D01*
X138342835Y-85402454D01*
X138386572Y-85349159D01*
X138419072Y-85288356D01*
X138439085Y-85222381D01*
X138445843Y-85153769D01*
X138439085Y-85085157D01*
X138419072Y-85019182D01*
X138418946Y-85018946D01*
X138419182Y-85019072D01*
X138482454Y-85038265D01*
X138501656Y-85054024D01*
X138605890Y-85109738D01*
X138677031Y-85131318D01*
X138718989Y-85144046D01*
X138836610Y-85155631D01*
X138846941Y-85154613D01*
X138857272Y-85155631D01*
X138886746Y-85152728D01*
X138974893Y-85144046D01*
X138988231Y-85140000D01*
X139740526Y-85140000D01*
X139770000Y-85142903D01*
X139799474Y-85140000D01*
X139887621Y-85131318D01*
X140000721Y-85097010D01*
X140104955Y-85041296D01*
X140196317Y-84966317D01*
X140215113Y-84943414D01*
X140717485Y-84441043D01*
X140777890Y-84416022D01*
X140884351Y-84344888D01*
X140974888Y-84254351D01*
X141046022Y-84147890D01*
X141095021Y-84029598D01*
X141120000Y-83904019D01*
X141120000Y-83775981D01*
X141095021Y-83650402D01*
X141046022Y-83532110D01*
X140974888Y-83425649D01*
X140884351Y-83335112D01*
X140777890Y-83263978D01*
X140659598Y-83214979D01*
X140534019Y-83190000D01*
X140405981Y-83190000D01*
X140280402Y-83214979D01*
X140186095Y-83254043D01*
X140172083Y-83220214D01*
X140133780Y-83162890D01*
X140127965Y-83157075D01*
X140908452Y-83157075D01*
X140908452Y-83226019D01*
X140921903Y-83293639D01*
X140948286Y-83357335D01*
X140986590Y-83414659D01*
X141035340Y-83463410D01*
X141868332Y-84296402D01*
X141992076Y-84296402D01*
X142495889Y-83792588D01*
X141391035Y-82687734D01*
X141267291Y-82687734D01*
X140986590Y-82968435D01*
X140948286Y-83025760D01*
X140921903Y-83089456D01*
X140908452Y-83157075D01*
X140127965Y-83157075D01*
X139605591Y-82634701D01*
X139481847Y-82634701D01*
X139119455Y-82997093D01*
X139133597Y-83011235D01*
X139062886Y-83081946D01*
X139048744Y-83067804D01*
X139034602Y-83081946D01*
X138963891Y-83011235D01*
X138978033Y-82997093D01*
X138226732Y-82245792D01*
X138102989Y-82245792D01*
X137963708Y-82385072D01*
X137925405Y-82442397D01*
X137899022Y-82506093D01*
X137885571Y-82573712D01*
X137885571Y-82642656D01*
X137899022Y-82710276D01*
X137913093Y-82744248D01*
X137910538Y-82742882D01*
X137844563Y-82722869D01*
X137775951Y-82716111D01*
X137707339Y-82722869D01*
X137641364Y-82742882D01*
X137580561Y-82775382D01*
X137527266Y-82819119D01*
X137103002Y-83243383D01*
X137059265Y-83296678D01*
X137026765Y-83357481D01*
X137006752Y-83423456D01*
X136999994Y-83492068D01*
X137006752Y-83560680D01*
X137026765Y-83626655D01*
X137026891Y-83626891D01*
X137026655Y-83626765D01*
X136960680Y-83606752D01*
X136892068Y-83599994D01*
X136823456Y-83606752D01*
X136774205Y-83621692D01*
X135203851Y-82051338D01*
X138297443Y-82051338D01*
X138297443Y-82175081D01*
X139048744Y-82926382D01*
X139411136Y-82563990D01*
X139411136Y-82493279D01*
X141461746Y-82493279D01*
X141461746Y-82617023D01*
X142566600Y-83721877D01*
X143070414Y-83218064D01*
X143070414Y-83094320D01*
X142237422Y-82261328D01*
X142188671Y-82212578D01*
X142131347Y-82174274D01*
X142067651Y-82147891D01*
X142000031Y-82134440D01*
X141931087Y-82134440D01*
X141863468Y-82147891D01*
X141799772Y-82174274D01*
X141742447Y-82212578D01*
X141461746Y-82493279D01*
X139411136Y-82493279D01*
X139411136Y-82440246D01*
X138882947Y-81912057D01*
X138825623Y-81873754D01*
X138761927Y-81847371D01*
X138694307Y-81833920D01*
X138625363Y-81833920D01*
X138557744Y-81847371D01*
X138494048Y-81873754D01*
X138436723Y-81912057D01*
X138297443Y-82051338D01*
X135203851Y-82051338D01*
X134102501Y-80949989D01*
X138005303Y-80949989D01*
X138027397Y-80952165D01*
X138049491Y-80949989D01*
X138049502Y-80949989D01*
X138115612Y-80943478D01*
X138200438Y-80917746D01*
X138225653Y-80904268D01*
X138386150Y-81064765D01*
X138439445Y-81108502D01*
X138500248Y-81141002D01*
X138566223Y-81161015D01*
X138634835Y-81167773D01*
X138703447Y-81161015D01*
X138769422Y-81141002D01*
X138830225Y-81108502D01*
X138883520Y-81064765D01*
X139565308Y-80382977D01*
X141436746Y-80382977D01*
X141436746Y-80506721D01*
X141717447Y-80787422D01*
X141774772Y-80825726D01*
X141838468Y-80852109D01*
X141906087Y-80865560D01*
X141975031Y-80865560D01*
X142042651Y-80852109D01*
X142106347Y-80825726D01*
X142163671Y-80787422D01*
X142212422Y-80738672D01*
X143045414Y-79905680D01*
X143045414Y-79781936D01*
X142541600Y-79278123D01*
X141436746Y-80382977D01*
X139565308Y-80382977D01*
X140014523Y-79933762D01*
X140085649Y-80004888D01*
X140192110Y-80076022D01*
X140310402Y-80125021D01*
X140435981Y-80150000D01*
X140564019Y-80150000D01*
X140689598Y-80125021D01*
X140807890Y-80076022D01*
X140914351Y-80004888D01*
X140931983Y-79987256D01*
X140961590Y-80031565D01*
X141242291Y-80312266D01*
X141366035Y-80312266D01*
X142470889Y-79207412D01*
X141967076Y-78703598D01*
X141843332Y-78703598D01*
X141143521Y-79403409D01*
X141125021Y-79310402D01*
X141100000Y-79249997D01*
X141100000Y-78579473D01*
X141102903Y-78549999D01*
X141091318Y-78432378D01*
X141071733Y-78367815D01*
X141057010Y-78319279D01*
X141001296Y-78215045D01*
X140926317Y-78123683D01*
X140903426Y-78104897D01*
X139445113Y-76646586D01*
X139426317Y-76623683D01*
X139403419Y-76604891D01*
X137901044Y-75102517D01*
X137876022Y-75042110D01*
X137804888Y-74935649D01*
X137714351Y-74845112D01*
X137607890Y-74773978D01*
X137489598Y-74724979D01*
X137480000Y-74723070D01*
X137671402Y-74531668D01*
X137671402Y-74407924D01*
X137167588Y-73904111D01*
X136062734Y-75008965D01*
X136062734Y-75132709D01*
X136343435Y-75413410D01*
X136400760Y-75451714D01*
X136464456Y-75478097D01*
X136532075Y-75491548D01*
X136601019Y-75491548D01*
X136662970Y-75479225D01*
X136674979Y-75539598D01*
X136723978Y-75657890D01*
X136795112Y-75764351D01*
X136885649Y-75854888D01*
X136992110Y-75926022D01*
X137052517Y-75951044D01*
X137872031Y-76770558D01*
X137560891Y-77081698D01*
X137510299Y-77097045D01*
X137507744Y-77098411D01*
X137521815Y-77064439D01*
X137535266Y-76996819D01*
X137535266Y-76927875D01*
X137521815Y-76860256D01*
X137495432Y-76796560D01*
X137457129Y-76739235D01*
X137317848Y-76599955D01*
X137194105Y-76599955D01*
X136442804Y-77351256D01*
X136456946Y-77365398D01*
X136386235Y-77436109D01*
X136372093Y-77421967D01*
X135620792Y-78173268D01*
X135620792Y-78297011D01*
X135760072Y-78436292D01*
X135817397Y-78474595D01*
X135881093Y-78500978D01*
X135948712Y-78514429D01*
X136017656Y-78514429D01*
X136085276Y-78500978D01*
X136119248Y-78486907D01*
X136117882Y-78489462D01*
X136097869Y-78555437D01*
X136091111Y-78624049D01*
X136097869Y-78692661D01*
X136117882Y-78758636D01*
X136150382Y-78819439D01*
X136194119Y-78872734D01*
X136618383Y-79296998D01*
X136671678Y-79340735D01*
X136732481Y-79373235D01*
X136798456Y-79393248D01*
X136867068Y-79400006D01*
X136935680Y-79393248D01*
X137001655Y-79373235D01*
X137001891Y-79373109D01*
X137001765Y-79373345D01*
X136981752Y-79439320D01*
X136974994Y-79507932D01*
X136981752Y-79576544D01*
X137001765Y-79642519D01*
X137002881Y-79644607D01*
X136997510Y-79649978D01*
X132906303Y-79649978D01*
X132951216Y-79625971D01*
X133019737Y-79569737D01*
X133033829Y-79552566D01*
X134880702Y-77705693D01*
X135208920Y-77705693D01*
X135208920Y-77774637D01*
X135222371Y-77842256D01*
X135248754Y-77905952D01*
X135287057Y-77963277D01*
X135426338Y-78102557D01*
X135550081Y-78102557D01*
X136301382Y-77351256D01*
X135938990Y-76988864D01*
X135815246Y-76988864D01*
X135287057Y-77517053D01*
X135248754Y-77574377D01*
X135222371Y-77638073D01*
X135208920Y-77705693D01*
X134880702Y-77705693D01*
X134952574Y-77633822D01*
X134969738Y-77619736D01*
X134983825Y-77602571D01*
X134983829Y-77602567D01*
X135025972Y-77551216D01*
X135067758Y-77473040D01*
X135081923Y-77426345D01*
X135093490Y-77388214D01*
X135100001Y-77322104D01*
X135100001Y-77322094D01*
X135102177Y-77299999D01*
X135100001Y-77277905D01*
X135100001Y-76794409D01*
X136009701Y-76794409D01*
X136009701Y-76918153D01*
X136372093Y-77280545D01*
X137123394Y-76529244D01*
X137123394Y-76405501D01*
X136984114Y-76266220D01*
X136926789Y-76227917D01*
X136863093Y-76201534D01*
X136795474Y-76188083D01*
X136726530Y-76188083D01*
X136658910Y-76201534D01*
X136595214Y-76227917D01*
X136537890Y-76266220D01*
X136009701Y-76794409D01*
X135100001Y-76794409D01*
X135100001Y-74964476D01*
X135114351Y-74954888D01*
X135204888Y-74864351D01*
X135276022Y-74757890D01*
X135325021Y-74639598D01*
X135350000Y-74514019D01*
X135350000Y-74399969D01*
X135509440Y-74399969D01*
X135509440Y-74468913D01*
X135522891Y-74536532D01*
X135549274Y-74600228D01*
X135587578Y-74657553D01*
X135868279Y-74938254D01*
X135992023Y-74938254D01*
X137096877Y-73833400D01*
X136593064Y-73329586D01*
X136469320Y-73329586D01*
X135636328Y-74162578D01*
X135587578Y-74211329D01*
X135549274Y-74268653D01*
X135522891Y-74332349D01*
X135509440Y-74399969D01*
X135350000Y-74399969D01*
X135350000Y-74385981D01*
X135325021Y-74260402D01*
X135276022Y-74142110D01*
X135204888Y-74035649D01*
X135114351Y-73945112D01*
X135007890Y-73873978D01*
X134889598Y-73824979D01*
X134764019Y-73800000D01*
X134635981Y-73800000D01*
X134510402Y-73824979D01*
X134392110Y-73873978D01*
X134285649Y-73945112D01*
X134195112Y-74035649D01*
X134123978Y-74142110D01*
X134074979Y-74260402D01*
X134050000Y-74385981D01*
X134050000Y-74514019D01*
X134074979Y-74639598D01*
X134123978Y-74757890D01*
X134195112Y-74864351D01*
X134200002Y-74869241D01*
X134200002Y-75148307D01*
X133750000Y-75148307D01*
X133681388Y-75155065D01*
X133615413Y-75175078D01*
X133554610Y-75207578D01*
X133501315Y-75251315D01*
X133457578Y-75304610D01*
X133425078Y-75365413D01*
X133405065Y-75431388D01*
X133398307Y-75500000D01*
X133398307Y-76700000D01*
X133405065Y-76768612D01*
X133425078Y-76834587D01*
X133443867Y-76869738D01*
X132637154Y-77676450D01*
X132634587Y-77675078D01*
X132568612Y-77655065D01*
X132500000Y-77648307D01*
X131700000Y-77648307D01*
X131631388Y-77655065D01*
X131565413Y-77675078D01*
X131504610Y-77707578D01*
X131500000Y-77711361D01*
X131495390Y-77707578D01*
X131434587Y-77675078D01*
X131368612Y-77655065D01*
X131300000Y-77648307D01*
X130500000Y-77648307D01*
X130431388Y-77655065D01*
X130403238Y-77663604D01*
X130022791Y-77663604D01*
X130586396Y-77100000D01*
X130664019Y-77100000D01*
X130789598Y-77075021D01*
X130907890Y-77026022D01*
X131014351Y-76954888D01*
X131104888Y-76864351D01*
X131176022Y-76757890D01*
X131225021Y-76639598D01*
X131250000Y-76514019D01*
X131250000Y-76385981D01*
X131225021Y-76260402D01*
X131215535Y-76237500D01*
X131500000Y-76237500D01*
X131500000Y-76734472D01*
X131513450Y-76802091D01*
X131539834Y-76865787D01*
X131578137Y-76923112D01*
X131626888Y-76971863D01*
X131684213Y-77010166D01*
X131747909Y-77036550D01*
X131815528Y-77050000D01*
X132012500Y-77050000D01*
X132100000Y-76962500D01*
X132100000Y-76150000D01*
X132200000Y-76150000D01*
X132200000Y-76962500D01*
X132287500Y-77050000D01*
X132484472Y-77050000D01*
X132552091Y-77036550D01*
X132615787Y-77010166D01*
X132673112Y-76971863D01*
X132721863Y-76923112D01*
X132760166Y-76865787D01*
X132786550Y-76802091D01*
X132800000Y-76734472D01*
X132800000Y-76237500D01*
X132712500Y-76150000D01*
X132200000Y-76150000D01*
X132100000Y-76150000D01*
X131587500Y-76150000D01*
X131500000Y-76237500D01*
X131215535Y-76237500D01*
X131176022Y-76142110D01*
X131104888Y-76035649D01*
X131014351Y-75945112D01*
X130907890Y-75873978D01*
X130812129Y-75834312D01*
X130524264Y-75546447D01*
X130510122Y-75560589D01*
X130439411Y-75489878D01*
X130453553Y-75475736D01*
X130594975Y-75475736D01*
X130922012Y-75802773D01*
X131045755Y-75802773D01*
X131255746Y-75592782D01*
X131294049Y-75535458D01*
X131320433Y-75471761D01*
X131321672Y-75465528D01*
X131500000Y-75465528D01*
X131500000Y-75962500D01*
X131587500Y-76050000D01*
X132100000Y-76050000D01*
X132100000Y-75237500D01*
X132200000Y-75237500D01*
X132200000Y-76050000D01*
X132712500Y-76050000D01*
X132800000Y-75962500D01*
X132800000Y-75465528D01*
X132786550Y-75397909D01*
X132760166Y-75334213D01*
X132721863Y-75276888D01*
X132673112Y-75228137D01*
X132615787Y-75189834D01*
X132552091Y-75163450D01*
X132484472Y-75150000D01*
X132287500Y-75150000D01*
X132200000Y-75237500D01*
X132100000Y-75237500D01*
X132012500Y-75150000D01*
X131815528Y-75150000D01*
X131747909Y-75163450D01*
X131684213Y-75189834D01*
X131626888Y-75228137D01*
X131578137Y-75276888D01*
X131539834Y-75334213D01*
X131513450Y-75397909D01*
X131500000Y-75465528D01*
X131321672Y-75465528D01*
X131333884Y-75404142D01*
X131333884Y-75335198D01*
X131320433Y-75267579D01*
X131294049Y-75203882D01*
X131255746Y-75146558D01*
X131151821Y-75042633D01*
X131028078Y-75042633D01*
X130594975Y-75475736D01*
X130453553Y-75475736D01*
X129824264Y-74846447D01*
X129810122Y-74860589D01*
X129739411Y-74789878D01*
X129753553Y-74775736D01*
X129894975Y-74775736D01*
X130524264Y-75405025D01*
X130957367Y-74971922D01*
X130957367Y-74848179D01*
X130853442Y-74744254D01*
X130796118Y-74705951D01*
X130732421Y-74679567D01*
X130664802Y-74666116D01*
X130633884Y-74666116D01*
X130633884Y-74635198D01*
X130620433Y-74567579D01*
X130594049Y-74503882D01*
X130555746Y-74446558D01*
X130451821Y-74342633D01*
X130328078Y-74342633D01*
X129894975Y-74775736D01*
X129753553Y-74775736D01*
X129426516Y-74448699D01*
X129302773Y-74448699D01*
X129092782Y-74658690D01*
X129054479Y-74716014D01*
X129028095Y-74779711D01*
X129020277Y-74819012D01*
X129013190Y-74819710D01*
X128947215Y-74839723D01*
X128886412Y-74872223D01*
X128833117Y-74915960D01*
X128589219Y-75159858D01*
X128523400Y-75153376D01*
X128523389Y-75153376D01*
X128501295Y-75151200D01*
X128479201Y-75153376D01*
X128119314Y-75153376D01*
X128125021Y-75139598D01*
X128150000Y-75014019D01*
X128150000Y-74885981D01*
X128125021Y-74760402D01*
X128076022Y-74642110D01*
X128004888Y-74535649D01*
X127950000Y-74480761D01*
X127950000Y-74472091D01*
X127952176Y-74449999D01*
X127950000Y-74427907D01*
X127950000Y-74427895D01*
X127943489Y-74361785D01*
X127917757Y-74276959D01*
X127905616Y-74254245D01*
X129497227Y-74254245D01*
X129497227Y-74377988D01*
X129824264Y-74705025D01*
X130257367Y-74271922D01*
X130257367Y-74148179D01*
X130153442Y-74044254D01*
X130096118Y-74005951D01*
X130032421Y-73979567D01*
X129964802Y-73966116D01*
X129895858Y-73966116D01*
X129828239Y-73979567D01*
X129764542Y-74005951D01*
X129707218Y-74044254D01*
X129497227Y-74254245D01*
X127905616Y-74254245D01*
X127888936Y-74223040D01*
X127875971Y-74198783D01*
X127851693Y-74169200D01*
X127851693Y-73885981D01*
X131050000Y-73885981D01*
X131050000Y-74014019D01*
X131074979Y-74139598D01*
X131123978Y-74257890D01*
X131195112Y-74364351D01*
X131285649Y-74454888D01*
X131392110Y-74526022D01*
X131510402Y-74575021D01*
X131635981Y-74600000D01*
X131764019Y-74600000D01*
X131889598Y-74575021D01*
X132007890Y-74526022D01*
X132114351Y-74454888D01*
X132204888Y-74364351D01*
X132276022Y-74257890D01*
X132279290Y-74250000D01*
X132448307Y-74250000D01*
X132448307Y-74400000D01*
X132455065Y-74468612D01*
X132475078Y-74534587D01*
X132507578Y-74595390D01*
X132551315Y-74648685D01*
X132604610Y-74692422D01*
X132665413Y-74724922D01*
X132731388Y-74744935D01*
X132800000Y-74751693D01*
X133400000Y-74751693D01*
X133468612Y-74744935D01*
X133534587Y-74724922D01*
X133595390Y-74692422D01*
X133648685Y-74648685D01*
X133692422Y-74595390D01*
X133724922Y-74534587D01*
X133744935Y-74468612D01*
X133751693Y-74400000D01*
X133751693Y-73200000D01*
X133744935Y-73131388D01*
X133724922Y-73065413D01*
X133692422Y-73004610D01*
X133648685Y-72951315D01*
X133617176Y-72925457D01*
X133681388Y-72944935D01*
X133750000Y-72951693D01*
X134350000Y-72951693D01*
X134418612Y-72944935D01*
X134484587Y-72924922D01*
X134545390Y-72892422D01*
X134598685Y-72848685D01*
X134642422Y-72795390D01*
X134674922Y-72734587D01*
X134694935Y-72668612D01*
X134701693Y-72600000D01*
X134701693Y-71984703D01*
X135002572Y-71683824D01*
X135019737Y-71669737D01*
X135033824Y-71652572D01*
X135033828Y-71652568D01*
X135075971Y-71601217D01*
X135117757Y-71523041D01*
X135133245Y-71471984D01*
X135143489Y-71438215D01*
X135150000Y-71372105D01*
X135150000Y-71372094D01*
X135152176Y-71350000D01*
X135150000Y-71327906D01*
X135150000Y-71119239D01*
X135204888Y-71064351D01*
X135276022Y-70957890D01*
X135325021Y-70839598D01*
X135350000Y-70714019D01*
X135350000Y-70585981D01*
X135325021Y-70460402D01*
X135276022Y-70342110D01*
X135204888Y-70235649D01*
X135114351Y-70145112D01*
X135007890Y-70073978D01*
X134889598Y-70024979D01*
X134764019Y-70000000D01*
X134635981Y-70000000D01*
X134510402Y-70024979D01*
X134392110Y-70073978D01*
X134285649Y-70145112D01*
X134195112Y-70235649D01*
X134123978Y-70342110D01*
X134074979Y-70460402D01*
X134050000Y-70585981D01*
X134050000Y-70714019D01*
X134074979Y-70839598D01*
X134123978Y-70957890D01*
X134184392Y-71048307D01*
X133750000Y-71048307D01*
X133681388Y-71055065D01*
X133615413Y-71075078D01*
X133554610Y-71107578D01*
X133501315Y-71151315D01*
X133457578Y-71204610D01*
X133425078Y-71265413D01*
X133405065Y-71331388D01*
X133398307Y-71400000D01*
X133398307Y-72600000D01*
X133405065Y-72668612D01*
X133425078Y-72734587D01*
X133457578Y-72795390D01*
X133501315Y-72848685D01*
X133532824Y-72874543D01*
X133468612Y-72855065D01*
X133400000Y-72848307D01*
X132800000Y-72848307D01*
X132731388Y-72855065D01*
X132670701Y-72873474D01*
X132673112Y-72871863D01*
X132721863Y-72823112D01*
X132760166Y-72765787D01*
X132786550Y-72702091D01*
X132800000Y-72634472D01*
X132800000Y-72137500D01*
X132712500Y-72050000D01*
X132200000Y-72050000D01*
X132200000Y-72862500D01*
X132287500Y-72950000D01*
X132484472Y-72950000D01*
X132552091Y-72936550D01*
X132586852Y-72922152D01*
X132551315Y-72951315D01*
X132507578Y-73004610D01*
X132475078Y-73065413D01*
X132455065Y-73131388D01*
X132448307Y-73200000D01*
X132448307Y-73350000D01*
X131950003Y-73350000D01*
X131889598Y-73324979D01*
X131764019Y-73300000D01*
X131635981Y-73300000D01*
X131510402Y-73324979D01*
X131392110Y-73373978D01*
X131285649Y-73445112D01*
X131195112Y-73535649D01*
X131123978Y-73642110D01*
X131074979Y-73760402D01*
X131050000Y-73885981D01*
X127851693Y-73885981D01*
X127851693Y-73800000D01*
X127844935Y-73731388D01*
X127824922Y-73665413D01*
X127792422Y-73604610D01*
X127748685Y-73551315D01*
X127695390Y-73507578D01*
X127634587Y-73475078D01*
X127568612Y-73455065D01*
X127500000Y-73448307D01*
X126700000Y-73448307D01*
X126631388Y-73455065D01*
X126565413Y-73475078D01*
X126504610Y-73507578D01*
X126500000Y-73511361D01*
X126495390Y-73507578D01*
X126434587Y-73475078D01*
X126368612Y-73455065D01*
X126300000Y-73448307D01*
X125500000Y-73448307D01*
X125431388Y-73455065D01*
X125365413Y-73475078D01*
X125362846Y-73476450D01*
X125300321Y-73413926D01*
X125301693Y-73400000D01*
X125301693Y-72800000D01*
X125294935Y-72731388D01*
X125274922Y-72665413D01*
X125242422Y-72604610D01*
X125198685Y-72551315D01*
X125145390Y-72507578D01*
X125084587Y-72475078D01*
X125018612Y-72455065D01*
X124950000Y-72448307D01*
X123750000Y-72448307D01*
X123681388Y-72455065D01*
X123615413Y-72475078D01*
X123554610Y-72507578D01*
X123501315Y-72551315D01*
X123457578Y-72604610D01*
X123425078Y-72665413D01*
X123405065Y-72731388D01*
X123398307Y-72800000D01*
X123398307Y-73400000D01*
X123405065Y-73468612D01*
X123425078Y-73534587D01*
X123457578Y-73595390D01*
X123501315Y-73648685D01*
X123554610Y-73692422D01*
X123615413Y-73724922D01*
X123681388Y-73744935D01*
X123750000Y-73751693D01*
X124365298Y-73751693D01*
X124963604Y-74350000D01*
X124487500Y-74350000D01*
X124400000Y-74437500D01*
X124400000Y-74950000D01*
X125212500Y-74950000D01*
X125300000Y-74862500D01*
X125300000Y-74665528D01*
X125286550Y-74597909D01*
X125273806Y-74567142D01*
X125304610Y-74592422D01*
X125365413Y-74624922D01*
X125431388Y-74644935D01*
X125500000Y-74651693D01*
X126300000Y-74651693D01*
X126368612Y-74644935D01*
X126434587Y-74624922D01*
X126495390Y-74592422D01*
X126500000Y-74588639D01*
X126504610Y-74592422D01*
X126565413Y-74624922D01*
X126631388Y-74644935D01*
X126700000Y-74651693D01*
X126920009Y-74651693D01*
X126874979Y-74760402D01*
X126850000Y-74885981D01*
X126850000Y-75014019D01*
X126874979Y-75139598D01*
X126923978Y-75257890D01*
X126995112Y-75364351D01*
X127024970Y-75394209D01*
X126569519Y-75849659D01*
X126569513Y-75849664D01*
X126500000Y-75919177D01*
X126430487Y-75849664D01*
X126430481Y-75849659D01*
X125900157Y-75319335D01*
X125846862Y-75275598D01*
X125786059Y-75243098D01*
X125720084Y-75223085D01*
X125651472Y-75216327D01*
X125582860Y-75223085D01*
X125516885Y-75243098D01*
X125456082Y-75275598D01*
X125402787Y-75319335D01*
X125262875Y-75459247D01*
X125286550Y-75402091D01*
X125300000Y-75334472D01*
X125300000Y-75137500D01*
X125212500Y-75050000D01*
X124400000Y-75050000D01*
X124400000Y-75562500D01*
X124487500Y-75650000D01*
X124984472Y-75650000D01*
X125052091Y-75636550D01*
X125115787Y-75610166D01*
X125143091Y-75591922D01*
X125131456Y-75613689D01*
X125102529Y-75629151D01*
X125049234Y-75672888D01*
X124837102Y-75885020D01*
X124793365Y-75938315D01*
X124777903Y-75967241D01*
X124748975Y-75982704D01*
X124695680Y-76026441D01*
X124483548Y-76238573D01*
X124439811Y-76291868D01*
X124424348Y-76320796D01*
X124395422Y-76336258D01*
X124342127Y-76379995D01*
X124129995Y-76592127D01*
X124086258Y-76645422D01*
X124070796Y-76674348D01*
X124041868Y-76689811D01*
X123988573Y-76733548D01*
X123776441Y-76945680D01*
X123732704Y-76998975D01*
X123717241Y-77027903D01*
X123688315Y-77043365D01*
X123635020Y-77087102D01*
X123422888Y-77299234D01*
X123379151Y-77352529D01*
X123363689Y-77381456D01*
X123334762Y-77396918D01*
X123281467Y-77440655D01*
X123072122Y-77650000D01*
X118198528Y-77650000D01*
X120711028Y-75137500D01*
X123400000Y-75137500D01*
X123400000Y-75334472D01*
X123413450Y-75402091D01*
X123439834Y-75465787D01*
X123478137Y-75523112D01*
X123526888Y-75571863D01*
X123584213Y-75610166D01*
X123647909Y-75636550D01*
X123715528Y-75650000D01*
X124212500Y-75650000D01*
X124300000Y-75562500D01*
X124300000Y-75050000D01*
X123487500Y-75050000D01*
X123400000Y-75137500D01*
X120711028Y-75137500D01*
X121227969Y-74620559D01*
X121254610Y-74642422D01*
X121315413Y-74674922D01*
X121381388Y-74694935D01*
X121450000Y-74701693D01*
X122650000Y-74701693D01*
X122718612Y-74694935D01*
X122784587Y-74674922D01*
X122802161Y-74665528D01*
X123400000Y-74665528D01*
X123400000Y-74862500D01*
X123487500Y-74950000D01*
X124300000Y-74950000D01*
X124300000Y-74437500D01*
X124212500Y-74350000D01*
X123715528Y-74350000D01*
X123647909Y-74363450D01*
X123584213Y-74389834D01*
X123526888Y-74428137D01*
X123478137Y-74476888D01*
X123439834Y-74534213D01*
X123413450Y-74597909D01*
X123400000Y-74665528D01*
X122802161Y-74665528D01*
X122845390Y-74642422D01*
X122898685Y-74598685D01*
X122942422Y-74545390D01*
X122974922Y-74484587D01*
X122994935Y-74418612D01*
X123001693Y-74350000D01*
X123001693Y-73750000D01*
X122994935Y-73681388D01*
X122974922Y-73615413D01*
X122942422Y-73554610D01*
X122898685Y-73501315D01*
X122845390Y-73457578D01*
X122784587Y-73425078D01*
X122718612Y-73405065D01*
X122650000Y-73398307D01*
X122500000Y-73398307D01*
X122500000Y-73172094D01*
X122502176Y-73149999D01*
X122500000Y-73127905D01*
X122500000Y-73127895D01*
X122493489Y-73061785D01*
X122467757Y-72976959D01*
X122441032Y-72926960D01*
X122425971Y-72898783D01*
X122383828Y-72847432D01*
X122383824Y-72847428D01*
X122369737Y-72830263D01*
X122352572Y-72816176D01*
X122201693Y-72665297D01*
X122201693Y-72300000D01*
X122196935Y-72251693D01*
X122650000Y-72251693D01*
X122718612Y-72244935D01*
X122784587Y-72224922D01*
X122845390Y-72192422D01*
X122898685Y-72148685D01*
X122942422Y-72095390D01*
X122974922Y-72034587D01*
X122994935Y-71968612D01*
X122996768Y-71950000D01*
X129063605Y-71950000D01*
X129350000Y-72236396D01*
X129350000Y-72314019D01*
X129374979Y-72439598D01*
X129423978Y-72557890D01*
X129495112Y-72664351D01*
X129585649Y-72754888D01*
X129692110Y-72826022D01*
X129810402Y-72875021D01*
X129935981Y-72900000D01*
X130064019Y-72900000D01*
X130189598Y-72875021D01*
X130307890Y-72826022D01*
X130414351Y-72754888D01*
X130504888Y-72664351D01*
X130576022Y-72557890D01*
X130625021Y-72439598D01*
X130650000Y-72314019D01*
X130650000Y-72251693D01*
X130950000Y-72251693D01*
X131018612Y-72244935D01*
X131084587Y-72224922D01*
X131145390Y-72192422D01*
X131198685Y-72148685D01*
X131207864Y-72137500D01*
X131500000Y-72137500D01*
X131500000Y-72634472D01*
X131513450Y-72702091D01*
X131539834Y-72765787D01*
X131578137Y-72823112D01*
X131626888Y-72871863D01*
X131684213Y-72910166D01*
X131747909Y-72936550D01*
X131815528Y-72950000D01*
X132012500Y-72950000D01*
X132100000Y-72862500D01*
X132100000Y-72050000D01*
X131587500Y-72050000D01*
X131500000Y-72137500D01*
X131207864Y-72137500D01*
X131242422Y-72095390D01*
X131274922Y-72034587D01*
X131294935Y-71968612D01*
X131301693Y-71900000D01*
X131301693Y-71534702D01*
X131507234Y-71329162D01*
X131500000Y-71365528D01*
X131500000Y-71862500D01*
X131587500Y-71950000D01*
X132100000Y-71950000D01*
X132100000Y-71137500D01*
X132200000Y-71137500D01*
X132200000Y-71950000D01*
X132712500Y-71950000D01*
X132800000Y-71862500D01*
X132800000Y-71365528D01*
X132786550Y-71297909D01*
X132760166Y-71234213D01*
X132721863Y-71176888D01*
X132673112Y-71128137D01*
X132615787Y-71089834D01*
X132552091Y-71063450D01*
X132484472Y-71050000D01*
X132287500Y-71050000D01*
X132200000Y-71137500D01*
X132100000Y-71137500D01*
X132012500Y-71050000D01*
X131815528Y-71050000D01*
X131779162Y-71057234D01*
X132458025Y-70378371D01*
X132475078Y-70434587D01*
X132507578Y-70495390D01*
X132551315Y-70548685D01*
X132604610Y-70592422D01*
X132665413Y-70624922D01*
X132731388Y-70644935D01*
X132800000Y-70651693D01*
X133400000Y-70651693D01*
X133468612Y-70644935D01*
X133534587Y-70624922D01*
X133595390Y-70592422D01*
X133648685Y-70548685D01*
X133692422Y-70495390D01*
X133724922Y-70434587D01*
X133744935Y-70368612D01*
X133751693Y-70300000D01*
X133751693Y-69100000D01*
X133744935Y-69031388D01*
X133724922Y-68965413D01*
X133692422Y-68904610D01*
X133648685Y-68851315D01*
X133595390Y-68807578D01*
X133534587Y-68775078D01*
X133468612Y-68755065D01*
X133400000Y-68748307D01*
X132800000Y-68748307D01*
X132731388Y-68755065D01*
X132665413Y-68775078D01*
X132604610Y-68807578D01*
X132551315Y-68851315D01*
X132507578Y-68904610D01*
X132475078Y-68965413D01*
X132455065Y-69031388D01*
X132448307Y-69100000D01*
X132448307Y-69252914D01*
X132411785Y-69256511D01*
X132326959Y-69282243D01*
X132276014Y-69309474D01*
X132248783Y-69324029D01*
X132197432Y-69366172D01*
X132197428Y-69366176D01*
X132180263Y-69380263D01*
X132166176Y-69397428D01*
X131301693Y-70261911D01*
X131301693Y-69900000D01*
X131294935Y-69831388D01*
X131274922Y-69765413D01*
X131242422Y-69704610D01*
X131198685Y-69651315D01*
X131145390Y-69607578D01*
X131084587Y-69575078D01*
X131018612Y-69555065D01*
X130950000Y-69548307D01*
X130450000Y-69548307D01*
X130381388Y-69555065D01*
X130315413Y-69575078D01*
X130254610Y-69607578D01*
X130225000Y-69631878D01*
X130195390Y-69607578D01*
X130134587Y-69575078D01*
X130068612Y-69555065D01*
X130000000Y-69548307D01*
X128400000Y-69548307D01*
X128350000Y-69553232D01*
X128350000Y-69446768D01*
X128400000Y-69451693D01*
X130000000Y-69451693D01*
X130068612Y-69444935D01*
X130134587Y-69424922D01*
X130195390Y-69392422D01*
X130248685Y-69348685D01*
X130292422Y-69295390D01*
X130324922Y-69234587D01*
X130344935Y-69168612D01*
X130351693Y-69100000D01*
X131549997Y-69100000D01*
X131610402Y-69125021D01*
X131735981Y-69150000D01*
X131864019Y-69150000D01*
X131989598Y-69125021D01*
X132107890Y-69076022D01*
X132214351Y-69004888D01*
X132304888Y-68914351D01*
X132376022Y-68807890D01*
X132425021Y-68689598D01*
X132450000Y-68564019D01*
X132450000Y-68435981D01*
X132425021Y-68310402D01*
X132376022Y-68192110D01*
X132304888Y-68085649D01*
X132214351Y-67995112D01*
X132107890Y-67923978D01*
X131989598Y-67874979D01*
X131864019Y-67850000D01*
X131735981Y-67850000D01*
X131610402Y-67874979D01*
X131549997Y-67900000D01*
X130351693Y-67900000D01*
X130344935Y-67831388D01*
X130324922Y-67765413D01*
X130292422Y-67704610D01*
X130248685Y-67651315D01*
X130195390Y-67607578D01*
X130134587Y-67575078D01*
X130068612Y-67555065D01*
X130000000Y-67548307D01*
X129496835Y-67548307D01*
X128845113Y-66896586D01*
X128826317Y-66873683D01*
X128734955Y-66798704D01*
X128630721Y-66742990D01*
X128517621Y-66708682D01*
X128429474Y-66700000D01*
X128400000Y-66697097D01*
X128370526Y-66700000D01*
X122819472Y-66700000D01*
X122789998Y-66697097D01*
X122672377Y-66708682D01*
X122559276Y-66742990D01*
X122532349Y-66757383D01*
X122455043Y-66798704D01*
X122363681Y-66873683D01*
X122344885Y-66896586D01*
X122146585Y-67094886D01*
X122123682Y-67113682D01*
X122048703Y-67205045D01*
X121992989Y-67309279D01*
X121974002Y-67371872D01*
X121958681Y-67422379D01*
X121947096Y-67539999D01*
X121949999Y-67569473D01*
X121949999Y-67701472D01*
X120496579Y-69154894D01*
X120473682Y-69173685D01*
X120398703Y-69265047D01*
X120342989Y-69369281D01*
X120317990Y-69451693D01*
X120308681Y-69482381D01*
X120297096Y-69600001D01*
X120299999Y-69629475D01*
X120300001Y-73851471D01*
X115812809Y-78338664D01*
X115820000Y-78302511D01*
X115820000Y-77977489D01*
X115756592Y-77658713D01*
X115632211Y-77358432D01*
X115451639Y-77088186D01*
X115221814Y-76858361D01*
X114951568Y-76677789D01*
X114651287Y-76553408D01*
X114332511Y-76490000D01*
X114007489Y-76490000D01*
X113688713Y-76553408D01*
X113388432Y-76677789D01*
X113118186Y-76858361D01*
X112888361Y-77088186D01*
X112707789Y-77358432D01*
X112583408Y-77658713D01*
X112531557Y-77919388D01*
X112441022Y-77741704D01*
X112323335Y-77703466D01*
X111688493Y-78026934D01*
X112397853Y-79419131D01*
X112515540Y-79457370D01*
X112869245Y-79277149D01*
X112923388Y-79234466D01*
X112926900Y-79230353D01*
X113118186Y-79421639D01*
X113388432Y-79602211D01*
X113688713Y-79726592D01*
X114007489Y-79790000D01*
X114332511Y-79790000D01*
X114368664Y-79782809D01*
X113796586Y-80354887D01*
X113773683Y-80373683D01*
X113709128Y-80452344D01*
X113130839Y-81030634D01*
X111649598Y-81030634D01*
X111418672Y-80577416D01*
X111381501Y-80519350D01*
X111333717Y-80469651D01*
X111277155Y-80430230D01*
X111213990Y-80402601D01*
X111146648Y-80387826D01*
X111077717Y-80386472D01*
X111009847Y-80398592D01*
X110945645Y-80423720D01*
X110892562Y-80450767D01*
X110778380Y-80336586D01*
X110759584Y-80313683D01*
X110668222Y-80238704D01*
X110563988Y-80182990D01*
X110450888Y-80148682D01*
X110362741Y-80140000D01*
X110333267Y-80137097D01*
X110303793Y-80140000D01*
X109875382Y-80140000D01*
X109821694Y-80139035D01*
X109787226Y-80145250D01*
X109752379Y-80148682D01*
X109729208Y-80155711D01*
X109705380Y-80160007D01*
X109672796Y-80172823D01*
X109639279Y-80182990D01*
X109591896Y-80208317D01*
X105344486Y-82381411D01*
X105339279Y-82382990D01*
X105291883Y-82408323D01*
X105270476Y-82419276D01*
X105265940Y-82422190D01*
X105235045Y-82438704D01*
X105216319Y-82454072D01*
X105195958Y-82467154D01*
X105170765Y-82491458D01*
X105143683Y-82513683D01*
X105128319Y-82532404D01*
X105110897Y-82549211D01*
X105090923Y-82577972D01*
X105068704Y-82605046D01*
X105057290Y-82626401D01*
X105043479Y-82646287D01*
X105029499Y-82678394D01*
X105012990Y-82709280D01*
X105005962Y-82732449D01*
X104996295Y-82754650D01*
X104988847Y-82788871D01*
X104978682Y-82822380D01*
X104976309Y-82846476D01*
X104971159Y-82870136D01*
X104970546Y-82904273D01*
X104956777Y-82877250D01*
X104421963Y-81827619D01*
X104304276Y-81789381D01*
X103669434Y-82112849D01*
X104378794Y-83505046D01*
X104496481Y-83543285D01*
X104850186Y-83363064D01*
X104858117Y-83356811D01*
X104772020Y-83629452D01*
X103611342Y-84790130D01*
X103580850Y-84787127D01*
X103512238Y-84793885D01*
X103446263Y-84813898D01*
X103385460Y-84846398D01*
X103332165Y-84890135D01*
X102483637Y-85738663D01*
X102439900Y-85791958D01*
X102407400Y-85852761D01*
X102387387Y-85918736D01*
X102380629Y-85987348D01*
X102387387Y-86055960D01*
X102407400Y-86121935D01*
X102439900Y-86182738D01*
X102472668Y-86222667D01*
X102460460Y-86210459D01*
X102403136Y-86172156D01*
X102339439Y-86145772D01*
X102271820Y-86132322D01*
X102202876Y-86132322D01*
X102135257Y-86145772D01*
X102071560Y-86172156D01*
X102014236Y-86210459D01*
X101662824Y-86561871D01*
X99870290Y-86561871D01*
X99900000Y-86412511D01*
X99900000Y-86087489D01*
X99836592Y-85768713D01*
X99712211Y-85468432D01*
X99531639Y-85198186D01*
X99301814Y-84968361D01*
X99031568Y-84787789D01*
X98731287Y-84663408D01*
X98412511Y-84600000D01*
X98087489Y-84600000D01*
X97870387Y-84643184D01*
X98077455Y-84483184D01*
X98600732Y-84092376D01*
X99121422Y-83716335D01*
X99639641Y-83354242D01*
X100155288Y-83005407D01*
X100668457Y-82669032D01*
X100777981Y-82599403D01*
X102907252Y-82599403D01*
X103442066Y-83649034D01*
X103473366Y-83710464D01*
X103516048Y-83764606D01*
X103568474Y-83809382D01*
X103628627Y-83843070D01*
X103694197Y-83864374D01*
X103762663Y-83872478D01*
X103831395Y-83867069D01*
X103897750Y-83848354D01*
X104251454Y-83668133D01*
X104289693Y-83550446D01*
X103580333Y-82158248D01*
X102945491Y-82481716D01*
X102907252Y-82599403D01*
X100777981Y-82599403D01*
X101179013Y-82344453D01*
X101687086Y-82030849D01*
X102192623Y-81727507D01*
X102400984Y-81605796D01*
X102782405Y-82354377D01*
X102900092Y-82392615D01*
X103534934Y-82069147D01*
X103525854Y-82051327D01*
X103614955Y-82005928D01*
X103624035Y-82023748D01*
X104258877Y-81700280D01*
X104297116Y-81582593D01*
X103882559Y-80768980D01*
X104189876Y-80601662D01*
X104682881Y-80338419D01*
X105173493Y-80080905D01*
X105661488Y-79828496D01*
X106146959Y-79580399D01*
X106630130Y-79335753D01*
X107110427Y-79094099D01*
X107597200Y-78850000D01*
X108046375Y-78624799D01*
X108046604Y-78624711D01*
X108064410Y-78615757D01*
X108081292Y-78607293D01*
X108081489Y-78607169D01*
X108267784Y-78513488D01*
X110926311Y-78513488D01*
X111461125Y-79563119D01*
X111492425Y-79624549D01*
X111535107Y-79678691D01*
X111587533Y-79723467D01*
X111647686Y-79757155D01*
X111713256Y-79778459D01*
X111781722Y-79786563D01*
X111850454Y-79781154D01*
X111916809Y-79762439D01*
X112270513Y-79582218D01*
X112308752Y-79464531D01*
X111599392Y-78072333D01*
X110964550Y-78395801D01*
X110926311Y-78513488D01*
X108267784Y-78513488D01*
X108519266Y-78387028D01*
X108519734Y-78386846D01*
X108536971Y-78378125D01*
X108553931Y-78369596D01*
X108554348Y-78369332D01*
X108989602Y-78149105D01*
X108990310Y-78148827D01*
X109007129Y-78140237D01*
X109023985Y-78131708D01*
X109024627Y-78131300D01*
X109457351Y-77910286D01*
X109458307Y-77909905D01*
X109474926Y-77901309D01*
X109491436Y-77892877D01*
X109492294Y-77892327D01*
X109922506Y-77669816D01*
X109923707Y-77669329D01*
X109940016Y-77660760D01*
X109956265Y-77652356D01*
X109957345Y-77651656D01*
X110375296Y-77432061D01*
X110801464Y-78268462D01*
X110919151Y-78306700D01*
X111553993Y-77983232D01*
X111544913Y-77965412D01*
X111634014Y-77920013D01*
X111643094Y-77937833D01*
X112277936Y-77614365D01*
X112316175Y-77496678D01*
X111866185Y-76613524D01*
X112208349Y-76416383D01*
X112210700Y-76415283D01*
X112225366Y-76406578D01*
X112240145Y-76398063D01*
X112242257Y-76396553D01*
X112657299Y-76150206D01*
X112659855Y-76148966D01*
X112674173Y-76140190D01*
X112688641Y-76131603D01*
X112690934Y-76129917D01*
X113103404Y-75877113D01*
X113106158Y-75875724D01*
X113120159Y-75866844D01*
X113134278Y-75858190D01*
X113136734Y-75856330D01*
X113546634Y-75596343D01*
X113549565Y-75594804D01*
X113563207Y-75585831D01*
X113577016Y-75577073D01*
X113579628Y-75575032D01*
X113986926Y-75307151D01*
X113990020Y-75305456D01*
X114003323Y-75296367D01*
X114016803Y-75287501D01*
X114019550Y-75285280D01*
X114424218Y-75008793D01*
X114427466Y-75006934D01*
X114440462Y-74997695D01*
X114453581Y-74988731D01*
X114456440Y-74986335D01*
X114858473Y-74700509D01*
X114861843Y-74698491D01*
X114874489Y-74689122D01*
X114887300Y-74680014D01*
X114890259Y-74677438D01*
X115289619Y-74381566D01*
X115293091Y-74379390D01*
X115305383Y-74369888D01*
X115317892Y-74360620D01*
X115320935Y-74357864D01*
X115717590Y-74051224D01*
X115721145Y-74048889D01*
X115733106Y-74039229D01*
X115745302Y-74029801D01*
X115748404Y-74026875D01*
X116142326Y-73708744D01*
X116145938Y-73706256D01*
X116157561Y-73696440D01*
X116169463Y-73686828D01*
X116172606Y-73683734D01*
X116563757Y-73353397D01*
X116567411Y-73350756D01*
X116578724Y-73340756D01*
X116590314Y-73330968D01*
X116593472Y-73327720D01*
X116981815Y-72984450D01*
X116985486Y-72981667D01*
X116996494Y-72971475D01*
X117007787Y-72961493D01*
X117010937Y-72958103D01*
X117396445Y-72601181D01*
X117400112Y-72598263D01*
X117410818Y-72587874D01*
X117421821Y-72577687D01*
X117424947Y-72574164D01*
X117807576Y-72202868D01*
X117811220Y-72199824D01*
X117821642Y-72189219D01*
X117832353Y-72178825D01*
X117835432Y-72175186D01*
X118215152Y-71788789D01*
X118218749Y-71785635D01*
X118228882Y-71774818D01*
X118239322Y-71764194D01*
X118242340Y-71760451D01*
X118619104Y-71358239D01*
X118622645Y-71354980D01*
X118632520Y-71343917D01*
X118642671Y-71333080D01*
X118645605Y-71329257D01*
X119019393Y-70910486D01*
X119022852Y-70907146D01*
X119032454Y-70895853D01*
X119042347Y-70884770D01*
X119045188Y-70880877D01*
X119415959Y-70444832D01*
X119419326Y-70441421D01*
X119428666Y-70429888D01*
X119438300Y-70418558D01*
X119441037Y-70414612D01*
X119808754Y-69960560D01*
X119812015Y-69957096D01*
X119821103Y-69945313D01*
X119830483Y-69933730D01*
X119833104Y-69929751D01*
X120197736Y-69456960D01*
X120200878Y-69453461D01*
X120209713Y-69441431D01*
X120218852Y-69429581D01*
X120221351Y-69425583D01*
X120582872Y-68933321D01*
X120585888Y-68929801D01*
X120594470Y-68917529D01*
X120603373Y-68905406D01*
X120605748Y-68901401D01*
X120964116Y-68388934D01*
X120967002Y-68385406D01*
X120975350Y-68372869D01*
X120984011Y-68360484D01*
X120986252Y-68356497D01*
X121341442Y-67823085D01*
X121344196Y-67819561D01*
X121352316Y-67806756D01*
X121360735Y-67794112D01*
X121362841Y-67790157D01*
X121714827Y-67235056D01*
X121717444Y-67231552D01*
X121725333Y-67218488D01*
X121733521Y-67205575D01*
X121735494Y-67201662D01*
X122086734Y-66620011D01*
X122440553Y-66098457D01*
X122856611Y-65625527D01*
X123339566Y-65198121D01*
X123885697Y-64825299D01*
X124491449Y-64515949D01*
X125153589Y-64278845D01*
X125869216Y-64122866D01*
X126637516Y-64056989D01*
X127365679Y-64080982D01*
X127365679Y-64080982D01*
G37*
X127365679Y-64080982D02*
X128024096Y-64177145D01*
X128613400Y-64331429D01*
X129135475Y-64530219D01*
X129591725Y-64760058D01*
X129983103Y-65007452D01*
X130310094Y-65258642D01*
X130578851Y-65504919D01*
X137436199Y-72362707D01*
X136663774Y-73135132D01*
X136663774Y-73258876D01*
X137167588Y-73762689D01*
X137181730Y-73748547D01*
X137252441Y-73819258D01*
X137238299Y-73833400D01*
X137742112Y-74337214D01*
X137865856Y-74337214D01*
X138638242Y-73564828D01*
X142810038Y-77736892D01*
X142037786Y-78509144D01*
X142037786Y-78632888D01*
X142541600Y-79136701D01*
X142555742Y-79122559D01*
X142626453Y-79193270D01*
X142612311Y-79207412D01*
X143116124Y-79711226D01*
X143239868Y-79711226D01*
X143797583Y-79153511D01*
X143797730Y-83821636D01*
X143264868Y-83288774D01*
X143141124Y-83288774D01*
X142637311Y-83792588D01*
X142651453Y-83806730D01*
X142580742Y-83877441D01*
X142566600Y-83863299D01*
X142062786Y-84367112D01*
X142062786Y-84490856D01*
X142795874Y-85223944D01*
X138622614Y-89394544D01*
X137890856Y-88662786D01*
X137767112Y-88662786D01*
X137263299Y-89166600D01*
X137277441Y-89180742D01*
X137206730Y-89251453D01*
X137192588Y-89237311D01*
X137178446Y-89251453D01*
X137107735Y-89180742D01*
X137121877Y-89166600D01*
X136017023Y-88061746D01*
X135893279Y-88061746D01*
X135730722Y-88224303D01*
X135443329Y-88011728D01*
X135438431Y-88007578D01*
X135427530Y-88000043D01*
X135416893Y-87992175D01*
X135411392Y-87988887D01*
X135235483Y-87867291D01*
X136087734Y-87867291D01*
X136087734Y-87991035D01*
X137192588Y-89095889D01*
X137696402Y-88592076D01*
X137696402Y-88468332D01*
X136863410Y-87635340D01*
X136814659Y-87586590D01*
X136757335Y-87548286D01*
X136693639Y-87521903D01*
X136626019Y-87508452D01*
X136557075Y-87508452D01*
X136489456Y-87521903D01*
X136425760Y-87548286D01*
X136368435Y-87586590D01*
X136087734Y-87867291D01*
X135235483Y-87867291D01*
X134873554Y-87617111D01*
X134868417Y-87613039D01*
X134857389Y-87605937D01*
X134846618Y-87598492D01*
X134840896Y-87595316D01*
X134300415Y-87247266D01*
X134295042Y-87243291D01*
X134283892Y-87236626D01*
X134272991Y-87229606D01*
X134267055Y-87226561D01*
X134176618Y-87172501D01*
X134711976Y-87336176D01*
X134780572Y-87343084D01*
X134849199Y-87336476D01*
X134915218Y-87316607D01*
X134976092Y-87284239D01*
X135029482Y-87240618D01*
X135073336Y-87187419D01*
X135105968Y-87126687D01*
X135126125Y-87060755D01*
X135222031Y-86747061D01*
X135163937Y-86637802D01*
X134004418Y-86283301D01*
X133998570Y-86302428D01*
X133902940Y-86273190D01*
X133908787Y-86254064D01*
X133691623Y-86187670D01*
X134033655Y-86187670D01*
X135193174Y-86542171D01*
X135302434Y-86484077D01*
X135398340Y-86170382D01*
X135418497Y-86104451D01*
X135425404Y-86035854D01*
X135418796Y-85967227D01*
X135398927Y-85901208D01*
X135366560Y-85840334D01*
X135322938Y-85786945D01*
X135269739Y-85743090D01*
X135209007Y-85710458D01*
X134351229Y-85448209D01*
X134241970Y-85506303D01*
X134033655Y-86187670D01*
X133691623Y-86187670D01*
X132749268Y-85899563D01*
X132640008Y-85957657D01*
X132544102Y-86271352D01*
X132543163Y-86274422D01*
X132533291Y-86269402D01*
X132526773Y-86266857D01*
X131976781Y-86010964D01*
X131970575Y-86007587D01*
X131958993Y-86002688D01*
X131947572Y-85997374D01*
X131940894Y-85995032D01*
X131388815Y-85761502D01*
X131382427Y-85758315D01*
X131370718Y-85753847D01*
X131359194Y-85748972D01*
X131352388Y-85746852D01*
X131215656Y-85694673D01*
X132720411Y-85694673D01*
X132778505Y-85803932D01*
X133938024Y-86158433D01*
X134146339Y-85477066D01*
X134088245Y-85367807D01*
X133230466Y-85105558D01*
X133161870Y-85098650D01*
X133093243Y-85105258D01*
X133027224Y-85125127D01*
X132966350Y-85157495D01*
X132912960Y-85201116D01*
X132869106Y-85254315D01*
X132836474Y-85315047D01*
X132816317Y-85380979D01*
X132720411Y-85694673D01*
X131215656Y-85694673D01*
X130798300Y-85535404D01*
X130791765Y-85532431D01*
X130779957Y-85528403D01*
X130768300Y-85523955D01*
X130761374Y-85522065D01*
X130205413Y-85332436D01*
X130198747Y-85329689D01*
X130186830Y-85326098D01*
X130175051Y-85322080D01*
X130168032Y-85320433D01*
X129610315Y-85152357D01*
X129603542Y-85149847D01*
X129591505Y-85146688D01*
X129579606Y-85143102D01*
X129572528Y-85141707D01*
X129013170Y-84994906D01*
X129006306Y-84992641D01*
X128994150Y-84989915D01*
X128982137Y-84986762D01*
X128975020Y-84985624D01*
X128474998Y-84873484D01*
X128527897Y-84700459D01*
X128469803Y-84591200D01*
X127310284Y-84236699D01*
X127304436Y-84255826D01*
X127208806Y-84226588D01*
X127214653Y-84207462D01*
X126997489Y-84141068D01*
X127339521Y-84141068D01*
X128499040Y-84495569D01*
X128608300Y-84437475D01*
X128704206Y-84123780D01*
X128724363Y-84057849D01*
X128731270Y-83989252D01*
X128724662Y-83920625D01*
X128704793Y-83854606D01*
X128672426Y-83793732D01*
X128628804Y-83740343D01*
X128575605Y-83696488D01*
X128514873Y-83663856D01*
X127657095Y-83401607D01*
X127547836Y-83459701D01*
X127339521Y-84141068D01*
X126997489Y-84141068D01*
X126055134Y-83852961D01*
X125945874Y-83911055D01*
X125849968Y-84224750D01*
X125829811Y-84290681D01*
X125822904Y-84359278D01*
X125829512Y-84427905D01*
X125849381Y-84493924D01*
X125869334Y-84531450D01*
X125396322Y-84510716D01*
X125389514Y-84509979D01*
X125376713Y-84509856D01*
X125363915Y-84509295D01*
X125357074Y-84509667D01*
X124789387Y-84504213D01*
X124782676Y-84503714D01*
X124769741Y-84504024D01*
X124756820Y-84503900D01*
X124750125Y-84504495D01*
X124181677Y-84518125D01*
X124175079Y-84517853D01*
X124162074Y-84518595D01*
X124149017Y-84518908D01*
X124142446Y-84519715D01*
X123573366Y-84552179D01*
X123566888Y-84552122D01*
X123553764Y-84553298D01*
X123540609Y-84554048D01*
X123534207Y-84555049D01*
X122964578Y-84606072D01*
X122958238Y-84606217D01*
X122945019Y-84607824D01*
X122931759Y-84609012D01*
X122925530Y-84610194D01*
X122355463Y-84679507D01*
X122349272Y-84679840D01*
X122335954Y-84681879D01*
X122322606Y-84683502D01*
X122316566Y-84684847D01*
X121746140Y-84772182D01*
X121740116Y-84772689D01*
X121726735Y-84775153D01*
X121713281Y-84777213D01*
X121707422Y-84778710D01*
X121136758Y-84883798D01*
X121130902Y-84884465D01*
X121117442Y-84887355D01*
X121103912Y-84889847D01*
X121098252Y-84891476D01*
X120527431Y-85014056D01*
X120521758Y-85014867D01*
X120508249Y-85018175D01*
X120494629Y-85021100D01*
X120489163Y-85022849D01*
X119918292Y-85162650D01*
X119912797Y-85163592D01*
X119899236Y-85167316D01*
X119885553Y-85170667D01*
X119880285Y-85172520D01*
X119309454Y-85329284D01*
X119304142Y-85330344D01*
X119290531Y-85334481D01*
X119276796Y-85338253D01*
X119271732Y-85340195D01*
X118701042Y-85513655D01*
X118695901Y-85514822D01*
X118682225Y-85519375D01*
X118668478Y-85523553D01*
X118663624Y-85525567D01*
X118093133Y-85715478D01*
X118088188Y-85716734D01*
X118074522Y-85721674D01*
X118060706Y-85726273D01*
X118056037Y-85728355D01*
X117485881Y-85934447D01*
X117481117Y-85935783D01*
X117467435Y-85941115D01*
X117453593Y-85946118D01*
X117449118Y-85948252D01*
X116879387Y-86170265D01*
X116874788Y-86171674D01*
X116861061Y-86177406D01*
X116847244Y-86182790D01*
X116842968Y-86184961D01*
X116273738Y-86422647D01*
X116269311Y-86424117D01*
X116255571Y-86430233D01*
X116241764Y-86435998D01*
X116237677Y-86438197D01*
X115669036Y-86691304D01*
X115664784Y-86692823D01*
X115651071Y-86699300D01*
X115637255Y-86705450D01*
X115633341Y-86707675D01*
X115065410Y-86975940D01*
X115061323Y-86977501D01*
X115047617Y-86984344D01*
X115033823Y-86990860D01*
X115030084Y-86993098D01*
X114462943Y-87276270D01*
X114459015Y-87277866D01*
X114445336Y-87285060D01*
X114431568Y-87291935D01*
X114427993Y-87294182D01*
X113861742Y-87592012D01*
X113857974Y-87593634D01*
X113844341Y-87601164D01*
X113830590Y-87608397D01*
X113827172Y-87610648D01*
X113261910Y-87922880D01*
X113258295Y-87924522D01*
X113244713Y-87932379D01*
X113230989Y-87939960D01*
X113227722Y-87942209D01*
X112663557Y-88268583D01*
X112660079Y-88270244D01*
X112646521Y-88278439D01*
X112632870Y-88286336D01*
X112629753Y-88288574D01*
X112066770Y-88628854D01*
X112063434Y-88630524D01*
X112049940Y-88639026D01*
X112036328Y-88647254D01*
X112033348Y-88649481D01*
X111471658Y-89003403D01*
X111468457Y-89005078D01*
X111455027Y-89013882D01*
X111441466Y-89022427D01*
X111438618Y-89024639D01*
X110878320Y-89391950D01*
X110875245Y-89393628D01*
X110861886Y-89402723D01*
X110848385Y-89411574D01*
X110845661Y-89413769D01*
X110286867Y-89794216D01*
X110283908Y-89795896D01*
X110270586Y-89805300D01*
X110257185Y-89814424D01*
X110254588Y-89816593D01*
X109697374Y-90209937D01*
X109694541Y-90211608D01*
X109681343Y-90221253D01*
X109667965Y-90230697D01*
X109665473Y-90232852D01*
X109109975Y-90638819D01*
X109107247Y-90640487D01*
X109094106Y-90650416D01*
X109080829Y-90660119D01*
X109078449Y-90662246D01*
X108524767Y-91080592D01*
X108522138Y-91082256D01*
X108509032Y-91092481D01*
X108495880Y-91102418D01*
X108493612Y-91104511D01*
X107941825Y-91534991D01*
X107939302Y-91536642D01*
X107926319Y-91547088D01*
X107913217Y-91557310D01*
X107911039Y-91559383D01*
X107361289Y-92001723D01*
X107358853Y-92003368D01*
X107345916Y-92014092D01*
X107332945Y-92024529D01*
X107330866Y-92026568D01*
X106783231Y-92480537D01*
X106780892Y-92482165D01*
X106768074Y-92493101D01*
X106755164Y-92503803D01*
X106753168Y-92505818D01*
X106207775Y-92971139D01*
X106205520Y-92972756D01*
X106192786Y-92983927D01*
X106179982Y-92994852D01*
X106178070Y-92996839D01*
X105635013Y-93473275D01*
X105632849Y-93474871D01*
X105620259Y-93486219D01*
X105607500Y-93497413D01*
X105605660Y-93499378D01*
X105065064Y-93986655D01*
X105062976Y-93988237D01*
X105050474Y-93999806D01*
X105037824Y-94011208D01*
X105036060Y-94013144D01*
X104520616Y-94490108D01*
X103968727Y-93938218D01*
X103844983Y-93938218D01*
X101926956Y-95856245D01*
X101941098Y-95870387D01*
X101870387Y-95941098D01*
X101856245Y-95926956D01*
X101842103Y-95941098D01*
X101771392Y-95870387D01*
X101785534Y-95856245D01*
X100857457Y-94928167D01*
X100733713Y-94928167D01*
X99190414Y-96471467D01*
X97635976Y-94917029D01*
X97819292Y-94733713D01*
X100928167Y-94733713D01*
X100928167Y-94857457D01*
X101856245Y-95785534D01*
X103774272Y-93867507D01*
X103774272Y-93743763D01*
X103069306Y-93038798D01*
X103011982Y-93000495D01*
X102948286Y-92974111D01*
X102880667Y-92960660D01*
X102811722Y-92960660D01*
X102744103Y-92974111D01*
X102680407Y-93000495D01*
X102623083Y-93038798D01*
X102574332Y-93087549D01*
X100928167Y-94733713D01*
X97819292Y-94733713D01*
X99853005Y-92700000D01*
X105010955Y-92700000D01*
X105014076Y-92715688D01*
X105063075Y-92833980D01*
X105134209Y-92940441D01*
X105224746Y-93030978D01*
X105331207Y-93102112D01*
X105449499Y-93151111D01*
X105575078Y-93176090D01*
X105703116Y-93176090D01*
X105828695Y-93151111D01*
X105946987Y-93102112D01*
X106053448Y-93030978D01*
X106143985Y-92940441D01*
X106215119Y-92833980D01*
X106264118Y-92715688D01*
X106289097Y-92590109D01*
X106289097Y-92462071D01*
X106264118Y-92336492D01*
X106215119Y-92218200D01*
X106143985Y-92111739D01*
X106053448Y-92021202D01*
X105946987Y-91950068D01*
X105828695Y-91901069D01*
X105703116Y-91876090D01*
X105616734Y-91876090D01*
X105614223Y-91874029D01*
X105536048Y-91832243D01*
X105451222Y-91806511D01*
X105385112Y-91800000D01*
X105385101Y-91800000D01*
X105363007Y-91797824D01*
X105340913Y-91800000D01*
X100753005Y-91800000D01*
X101044269Y-91508736D01*
X101088006Y-91455441D01*
X101120506Y-91394638D01*
X101140519Y-91328663D01*
X101147277Y-91260051D01*
X101140519Y-91191439D01*
X101120506Y-91125464D01*
X101088006Y-91064661D01*
X101044269Y-91011366D01*
X99488634Y-89455731D01*
X99435339Y-89411994D01*
X99374536Y-89379494D01*
X99308561Y-89359481D01*
X99239949Y-89352723D01*
X99171337Y-89359481D01*
X99105362Y-89379494D01*
X99044559Y-89411994D01*
X98991264Y-89455731D01*
X95582971Y-92864024D01*
X94029731Y-91310784D01*
X96746962Y-88593553D01*
X102026987Y-88593553D01*
X102033745Y-88662165D01*
X102053758Y-88728140D01*
X102086258Y-88788943D01*
X102129995Y-88842238D01*
X102415076Y-89127319D01*
X102415077Y-89846878D01*
X102412173Y-89876361D01*
X102423758Y-89993981D01*
X102439392Y-90045518D01*
X102458067Y-90107082D01*
X102513781Y-90211316D01*
X102588760Y-90302678D01*
X102611657Y-90321470D01*
X103824976Y-91534789D01*
X103843768Y-91557687D01*
X103935130Y-91632666D01*
X104035102Y-91686102D01*
X104039364Y-91688380D01*
X104152464Y-91722688D01*
X104270085Y-91734273D01*
X104299559Y-91731370D01*
X105089156Y-91731370D01*
X105118630Y-91734273D01*
X105148104Y-91731370D01*
X105236251Y-91722688D01*
X105320712Y-91697067D01*
X105350538Y-91706115D01*
X105419150Y-91712873D01*
X105487762Y-91706115D01*
X105553737Y-91686102D01*
X105614540Y-91653602D01*
X105667835Y-91609865D01*
X105970593Y-91307107D01*
X106998359Y-91307107D01*
X107027833Y-91310010D01*
X107057307Y-91307107D01*
X107145454Y-91298425D01*
X107258554Y-91264117D01*
X107362788Y-91208403D01*
X107454150Y-91133424D01*
X107472946Y-91110521D01*
X108907132Y-89676336D01*
X108907890Y-89676022D01*
X109014351Y-89604888D01*
X109104888Y-89514351D01*
X109176022Y-89407890D01*
X109225021Y-89289598D01*
X109250000Y-89164019D01*
X109250000Y-89035981D01*
X109225021Y-88910402D01*
X109176022Y-88792110D01*
X109104888Y-88685649D01*
X109014351Y-88595112D01*
X108907890Y-88523978D01*
X108789598Y-88474979D01*
X108664019Y-88450000D01*
X108535981Y-88450000D01*
X108410402Y-88474979D01*
X108292110Y-88523978D01*
X108185649Y-88595112D01*
X108095112Y-88685649D01*
X108023978Y-88792110D01*
X107974979Y-88910402D01*
X107974723Y-88911689D01*
X107906007Y-88980405D01*
X107883043Y-88946038D01*
X107690730Y-88753725D01*
X107566986Y-88753725D01*
X106992462Y-89328249D01*
X107006604Y-89342391D01*
X106935893Y-89413102D01*
X106921751Y-89398960D01*
X106907609Y-89413102D01*
X106836898Y-89342391D01*
X106851040Y-89328249D01*
X106435615Y-88912824D01*
X106311871Y-88912824D01*
X105960459Y-89264236D01*
X105922156Y-89321560D01*
X105895772Y-89385257D01*
X105882322Y-89452876D01*
X105882322Y-89521820D01*
X105895772Y-89589439D01*
X105922156Y-89653136D01*
X105960459Y-89710460D01*
X105972667Y-89722668D01*
X105932738Y-89689900D01*
X105871935Y-89657400D01*
X105805960Y-89637387D01*
X105737348Y-89630629D01*
X105668736Y-89637387D01*
X105602761Y-89657400D01*
X105541958Y-89689900D01*
X105488663Y-89733637D01*
X104690930Y-90531370D01*
X104518613Y-90531370D01*
X104496190Y-90508947D01*
X105243660Y-89761477D01*
X105287397Y-89708182D01*
X105319897Y-89647379D01*
X105339910Y-89581404D01*
X105346668Y-89512792D01*
X105339910Y-89444180D01*
X105319897Y-89378205D01*
X105287397Y-89317402D01*
X105243660Y-89264107D01*
X104819396Y-88839843D01*
X104766101Y-88796106D01*
X104705298Y-88763606D01*
X104639323Y-88743593D01*
X104570711Y-88736835D01*
X104502099Y-88743593D01*
X104436124Y-88763606D01*
X104375321Y-88796106D01*
X104322026Y-88839843D01*
X103615076Y-89546793D01*
X103615076Y-88703055D01*
X103900157Y-88417974D01*
X103943894Y-88364679D01*
X103976394Y-88303876D01*
X103996407Y-88237901D01*
X104003165Y-88169289D01*
X103996407Y-88100677D01*
X103976394Y-88034702D01*
X103943894Y-87973899D01*
X103900157Y-87920604D01*
X103475893Y-87496340D01*
X103422598Y-87452603D01*
X103361795Y-87420103D01*
X103295820Y-87400090D01*
X103227208Y-87393332D01*
X103158596Y-87400090D01*
X103092621Y-87420103D01*
X103031818Y-87452603D01*
X102978523Y-87496340D01*
X102129995Y-88344868D01*
X102086258Y-88398163D01*
X102053758Y-88458966D01*
X102033745Y-88524941D01*
X102026987Y-88593553D01*
X96746962Y-88593553D01*
X97438024Y-87902491D01*
X97481761Y-87849196D01*
X97514261Y-87788393D01*
X97529675Y-87737579D01*
X97768713Y-87836592D01*
X98087489Y-87900000D01*
X98412511Y-87900000D01*
X98731287Y-87836592D01*
X98778619Y-87816986D01*
X101503725Y-87816986D01*
X101503725Y-87940730D01*
X101696038Y-88133043D01*
X101753362Y-88171346D01*
X101817059Y-88197730D01*
X101884678Y-88211180D01*
X101953622Y-88211180D01*
X102021241Y-88197730D01*
X102084938Y-88171346D01*
X102142262Y-88133043D01*
X102493674Y-87781631D01*
X102493674Y-87657887D01*
X102078249Y-87242462D01*
X101503725Y-87816986D01*
X98778619Y-87816986D01*
X99031568Y-87712211D01*
X99301814Y-87531639D01*
X99531639Y-87301814D01*
X99535271Y-87296378D01*
X101038820Y-87296378D01*
X101038820Y-87365322D01*
X101052270Y-87432941D01*
X101078654Y-87496638D01*
X101116957Y-87553962D01*
X101309270Y-87746275D01*
X101433014Y-87746275D01*
X102007538Y-87171751D01*
X101592113Y-86756326D01*
X101468369Y-86756326D01*
X101116957Y-87107738D01*
X101078654Y-87165062D01*
X101052270Y-87228759D01*
X101038820Y-87296378D01*
X99535271Y-87296378D01*
X99712211Y-87031568D01*
X99836592Y-86731287D01*
X99870290Y-86561871D01*
X101662824Y-86561871D01*
X101662824Y-86685615D01*
X102078249Y-87101040D01*
X102092391Y-87086898D01*
X102163102Y-87157609D01*
X102148960Y-87171751D01*
X102564385Y-87587176D01*
X102688129Y-87587176D01*
X103039541Y-87235764D01*
X103077844Y-87178440D01*
X103104228Y-87114743D01*
X103117678Y-87047124D01*
X103117678Y-86978180D01*
X103104228Y-86910561D01*
X103077844Y-86846864D01*
X103039541Y-86789540D01*
X103027333Y-86777332D01*
X103067262Y-86810100D01*
X103128065Y-86842600D01*
X103194040Y-86862613D01*
X103262652Y-86869371D01*
X103331264Y-86862613D01*
X103397239Y-86842600D01*
X103458042Y-86810100D01*
X103511337Y-86766363D01*
X103546693Y-86731007D01*
X103672703Y-86857017D01*
X103660090Y-86898596D01*
X103653332Y-86967208D01*
X103660090Y-87035820D01*
X103680103Y-87101795D01*
X103712603Y-87162598D01*
X103756340Y-87215893D01*
X104180604Y-87640157D01*
X104233899Y-87683894D01*
X104294702Y-87716394D01*
X104337931Y-87729507D01*
X104340227Y-87741050D01*
X104366611Y-87804747D01*
X104404914Y-87862071D01*
X104544194Y-88001351D01*
X104667938Y-88001351D01*
X105242462Y-87426827D01*
X105228320Y-87412685D01*
X105299031Y-87341974D01*
X105313173Y-87356116D01*
X105327315Y-87341974D01*
X105398026Y-87412685D01*
X105383884Y-87426827D01*
X105398026Y-87440969D01*
X105327315Y-87511680D01*
X105313173Y-87497538D01*
X104738649Y-88072062D01*
X104738649Y-88195806D01*
X104877929Y-88335086D01*
X104935253Y-88373389D01*
X104998950Y-88399773D01*
X105010493Y-88402069D01*
X105023606Y-88445298D01*
X105056106Y-88506101D01*
X105099843Y-88559396D01*
X105524107Y-88983660D01*
X105577402Y-89027397D01*
X105638205Y-89059897D01*
X105704180Y-89079910D01*
X105772792Y-89086668D01*
X105841404Y-89079910D01*
X105907379Y-89059897D01*
X105968182Y-89027397D01*
X106021477Y-88983660D01*
X106286768Y-88718369D01*
X106506326Y-88718369D01*
X106506326Y-88842113D01*
X106921751Y-89257538D01*
X107496275Y-88683014D01*
X107496275Y-88559270D01*
X107303962Y-88366957D01*
X107246638Y-88328654D01*
X107182941Y-88302270D01*
X107115322Y-88288820D01*
X107046378Y-88288820D01*
X106978759Y-88302270D01*
X106915062Y-88328654D01*
X106857738Y-88366957D01*
X106506326Y-88718369D01*
X106286768Y-88718369D01*
X106870005Y-88135132D01*
X106913742Y-88081837D01*
X106946242Y-88021034D01*
X106966255Y-87955059D01*
X106973013Y-87886447D01*
X106966255Y-87817835D01*
X106946242Y-87751860D01*
X106921978Y-87706465D01*
X106923387Y-87701820D01*
X106929898Y-87635710D01*
X106929898Y-87635700D01*
X106932074Y-87613605D01*
X106929898Y-87591511D01*
X106929898Y-87352835D01*
X106932074Y-87330743D01*
X106929898Y-87308651D01*
X106929898Y-87308639D01*
X106923387Y-87242529D01*
X106897655Y-87157703D01*
X106886771Y-87137341D01*
X106855869Y-87079527D01*
X106813726Y-87028176D01*
X106813722Y-87028172D01*
X106799635Y-87011007D01*
X106782471Y-86996921D01*
X105753085Y-85967536D01*
X105738993Y-85950365D01*
X105670472Y-85894131D01*
X105592297Y-85852345D01*
X105507471Y-85826613D01*
X105441361Y-85820102D01*
X105441350Y-85820102D01*
X105419256Y-85817926D01*
X105397162Y-85820102D01*
X105158489Y-85820102D01*
X105136395Y-85817926D01*
X105114300Y-85820102D01*
X105114290Y-85820102D01*
X105049247Y-85826508D01*
X105048943Y-85826258D01*
X104988140Y-85793758D01*
X104922165Y-85773745D01*
X104853553Y-85766987D01*
X104784941Y-85773745D01*
X104718966Y-85793758D01*
X104658163Y-85826258D01*
X104604868Y-85869995D01*
X104493803Y-85981060D01*
X104391738Y-85878996D01*
X104403602Y-85864540D01*
X104436102Y-85803737D01*
X104456115Y-85737762D01*
X104462873Y-85669150D01*
X104459870Y-85638658D01*
X105721891Y-84376637D01*
X105761677Y-84337744D01*
X105780336Y-84310493D01*
X105801295Y-84284955D01*
X105813649Y-84261842D01*
X105828451Y-84240225D01*
X105841436Y-84209857D01*
X105857009Y-84180722D01*
X105857418Y-84179376D01*
X105873175Y-84127432D01*
X105980986Y-83786029D01*
X106127290Y-84073167D01*
X106244977Y-84111406D01*
X106701618Y-83878736D01*
X106692538Y-83860916D01*
X106781639Y-83815517D01*
X106790719Y-83833337D01*
X106808539Y-83824257D01*
X106853938Y-83913358D01*
X106836118Y-83922438D01*
X106845198Y-83940258D01*
X106756097Y-83985657D01*
X106747017Y-83967837D01*
X106290376Y-84200507D01*
X106252137Y-84318194D01*
X106559956Y-84922322D01*
X106591256Y-84983751D01*
X106623662Y-85024859D01*
X106620709Y-85054566D01*
X106637647Y-85110588D01*
X107437647Y-86610588D01*
X107472543Y-86654027D01*
X107523598Y-86682642D01*
X107581717Y-86689542D01*
X107638052Y-86673674D01*
X109315364Y-85819770D01*
X109326581Y-85825765D01*
X109343773Y-85837412D01*
X109365562Y-85846601D01*
X109386433Y-85857757D01*
X109406320Y-85863790D01*
X109425449Y-85871857D01*
X109448608Y-85876618D01*
X109471259Y-85883489D01*
X109491941Y-85885526D01*
X109512275Y-85889706D01*
X109535920Y-85889857D01*
X109537369Y-85890000D01*
X109558236Y-85890000D01*
X109600915Y-85890273D01*
X109602335Y-85890000D01*
X112747906Y-85890000D01*
X112770000Y-85892176D01*
X112792094Y-85890000D01*
X112792105Y-85890000D01*
X112858215Y-85883489D01*
X112943041Y-85857757D01*
X113021216Y-85815971D01*
X113089737Y-85759737D01*
X113103829Y-85742566D01*
X114276500Y-84569896D01*
X114293664Y-84555810D01*
X114307751Y-84538645D01*
X114307755Y-84538641D01*
X114349898Y-84487290D01*
X114391684Y-84409114D01*
X114396822Y-84392177D01*
X114417416Y-84324288D01*
X114423927Y-84258178D01*
X114423927Y-84258168D01*
X114426103Y-84236073D01*
X114423927Y-84213979D01*
X114423927Y-83222468D01*
X114468895Y-83177500D01*
X120520000Y-83177500D01*
X120520000Y-83574472D01*
X120533450Y-83642091D01*
X120559834Y-83705787D01*
X120598137Y-83763112D01*
X120646888Y-83811863D01*
X120704213Y-83850166D01*
X120767909Y-83876550D01*
X120835528Y-83890000D01*
X121532500Y-83890000D01*
X121620000Y-83802500D01*
X121620000Y-83090000D01*
X120607500Y-83090000D01*
X120520000Y-83177500D01*
X114468895Y-83177500D01*
X115140867Y-82505528D01*
X120520000Y-82505528D01*
X120520000Y-82902500D01*
X120607500Y-82990000D01*
X121620000Y-82990000D01*
X121620000Y-82277500D01*
X121532500Y-82190000D01*
X120835528Y-82190000D01*
X120767909Y-82203450D01*
X120704213Y-82229834D01*
X120646888Y-82268137D01*
X120598137Y-82316888D01*
X120559834Y-82374213D01*
X120533450Y-82437909D01*
X120520000Y-82505528D01*
X115140867Y-82505528D01*
X116941962Y-80704434D01*
X116944978Y-80719597D01*
X116993977Y-80837889D01*
X117065111Y-80944350D01*
X117155648Y-81034887D01*
X117262109Y-81106021D01*
X117380401Y-81155020D01*
X117505980Y-81179999D01*
X117634018Y-81179999D01*
X117759597Y-81155020D01*
X117877889Y-81106021D01*
X117984350Y-81034887D01*
X118074887Y-80944350D01*
X118146021Y-80837889D01*
X118171042Y-80777483D01*
X118308526Y-80640000D01*
X120534586Y-80640000D01*
X120545078Y-80674587D01*
X120577578Y-80735390D01*
X120621315Y-80788685D01*
X120674610Y-80832422D01*
X120735413Y-80864922D01*
X120801388Y-80884935D01*
X120870000Y-80891693D01*
X121673166Y-80891693D01*
X122124891Y-81343419D01*
X122143683Y-81366317D01*
X122235045Y-81441296D01*
X122339279Y-81497010D01*
X122452379Y-81531318D01*
X122530555Y-81539018D01*
X122532096Y-81540895D01*
X122509834Y-81574213D01*
X122483450Y-81637909D01*
X122470000Y-81705528D01*
X122470000Y-82002500D01*
X122557500Y-82090000D01*
X123020000Y-82090000D01*
X123020000Y-82070000D01*
X123120000Y-82070000D01*
X123120000Y-82090000D01*
X123582500Y-82090000D01*
X123670000Y-82002500D01*
X123670000Y-81705528D01*
X123656550Y-81637909D01*
X123650670Y-81623715D01*
X123681303Y-81633007D01*
X123747413Y-81639518D01*
X123747424Y-81639518D01*
X123769518Y-81641694D01*
X123791612Y-81639518D01*
X124745495Y-81639518D01*
X124767589Y-81641694D01*
X124789683Y-81639518D01*
X124789694Y-81639518D01*
X124855804Y-81633007D01*
X124890042Y-81622621D01*
X124970882Y-81622621D01*
X125028360Y-81565143D01*
X125078952Y-81549796D01*
X125139755Y-81517296D01*
X125179693Y-81484520D01*
X125146918Y-81524458D01*
X125114418Y-81585261D01*
X125099071Y-81635855D01*
X123944926Y-82790000D01*
X123564975Y-82790000D01*
X123591863Y-82763112D01*
X123630166Y-82705787D01*
X123656550Y-82642091D01*
X123670000Y-82574472D01*
X123670000Y-82277500D01*
X123582500Y-82190000D01*
X123120000Y-82190000D01*
X123120000Y-82210000D01*
X123020000Y-82210000D01*
X123020000Y-82190000D01*
X122557500Y-82190000D01*
X122548702Y-82198798D01*
X122504472Y-82190000D01*
X121807500Y-82190000D01*
X121720000Y-82277500D01*
X121720000Y-82990000D01*
X121740000Y-82990000D01*
X121740000Y-83090000D01*
X121720000Y-83090000D01*
X121720000Y-83802500D01*
X121807500Y-83890000D01*
X122504472Y-83890000D01*
X122572091Y-83876550D01*
X122635787Y-83850166D01*
X122693112Y-83811863D01*
X122718255Y-83786720D01*
X122762110Y-83816022D01*
X122880402Y-83865021D01*
X123005981Y-83890000D01*
X123134019Y-83890000D01*
X123259598Y-83865021D01*
X123377890Y-83816022D01*
X123484351Y-83744888D01*
X123539239Y-83690000D01*
X124109227Y-83690000D01*
X124131321Y-83692176D01*
X124153415Y-83690000D01*
X124153426Y-83690000D01*
X124219536Y-83683489D01*
X124304362Y-83657757D01*
X124322482Y-83648071D01*
X126026277Y-83648071D01*
X126084371Y-83757330D01*
X127243890Y-84111831D01*
X127452205Y-83430464D01*
X127394111Y-83321205D01*
X126536332Y-83058956D01*
X126467736Y-83052048D01*
X126399109Y-83058656D01*
X126333090Y-83078525D01*
X126272216Y-83110893D01*
X126218826Y-83154514D01*
X126174972Y-83207713D01*
X126142340Y-83268445D01*
X126122183Y-83334377D01*
X126026277Y-83648071D01*
X124322482Y-83648071D01*
X124382537Y-83615971D01*
X124451058Y-83559737D01*
X124465150Y-83542566D01*
X125735468Y-82272248D01*
X125786059Y-82256902D01*
X125846862Y-82224402D01*
X125900157Y-82180665D01*
X126430481Y-81650341D01*
X126430487Y-81650336D01*
X126500000Y-81580823D01*
X126569513Y-81650336D01*
X126569519Y-81650341D01*
X127099843Y-82180665D01*
X127153138Y-82224402D01*
X127213941Y-82256902D01*
X127264533Y-82272249D01*
X127724820Y-82732536D01*
X127738907Y-82749701D01*
X127756072Y-82763788D01*
X127756076Y-82763792D01*
X127807427Y-82805935D01*
X127866571Y-82837548D01*
X127885603Y-82847721D01*
X127970429Y-82873453D01*
X128036539Y-82879964D01*
X128036550Y-82879964D01*
X128058644Y-82882140D01*
X128080738Y-82879964D01*
X128246154Y-82879964D01*
X128225374Y-82947932D01*
X128211777Y-83015521D01*
X128211626Y-83084465D01*
X128224929Y-83152114D01*
X128251173Y-83215867D01*
X128289351Y-83273275D01*
X128337996Y-83322132D01*
X128395237Y-83360560D01*
X128458875Y-83387083D01*
X129415180Y-83679455D01*
X129482769Y-83693052D01*
X129551713Y-83693203D01*
X129619361Y-83679900D01*
X129683115Y-83653656D01*
X129740523Y-83615478D01*
X129789380Y-83566833D01*
X129827808Y-83509592D01*
X129854331Y-83445954D01*
X130028219Y-82877195D01*
X132434939Y-83624108D01*
X132407933Y-83638467D01*
X132253552Y-84143423D01*
X132233395Y-84209354D01*
X132226488Y-84277951D01*
X132233096Y-84346578D01*
X132252965Y-84412596D01*
X132285332Y-84473471D01*
X132328954Y-84526860D01*
X132382153Y-84570714D01*
X132442885Y-84603347D01*
X132822511Y-84719410D01*
X132876783Y-84690553D01*
X133027400Y-84690553D01*
X133085495Y-84799812D01*
X133465121Y-84915875D01*
X133533718Y-84922783D01*
X133602344Y-84916175D01*
X133668363Y-84896306D01*
X133729237Y-84863938D01*
X133782627Y-84820317D01*
X133826481Y-84767118D01*
X133859113Y-84706386D01*
X133879270Y-84640455D01*
X134033651Y-84135499D01*
X133975557Y-84026240D01*
X133294190Y-83817925D01*
X133027400Y-84690553D01*
X132876783Y-84690553D01*
X132931770Y-84661316D01*
X133198559Y-83788688D01*
X133179432Y-83782840D01*
X133208670Y-83687210D01*
X133227796Y-83693057D01*
X133233644Y-83673930D01*
X133329274Y-83703168D01*
X133323427Y-83722294D01*
X134004794Y-83930609D01*
X134114053Y-83872515D01*
X134206466Y-83570247D01*
X135491302Y-84855083D01*
X135335235Y-85011150D01*
X135291498Y-85064445D01*
X135258998Y-85125248D01*
X135238985Y-85191223D01*
X135232227Y-85259835D01*
X135238985Y-85328447D01*
X135258998Y-85394422D01*
X135291498Y-85455225D01*
X135335235Y-85508520D01*
X136537317Y-86710602D01*
X136590612Y-86754339D01*
X136651415Y-86786839D01*
X136717390Y-86806852D01*
X136786002Y-86813610D01*
X136854614Y-86806852D01*
X136920589Y-86786839D01*
X136981392Y-86754339D01*
X137034687Y-86710602D01*
X137458951Y-86286338D01*
X137502688Y-86233043D01*
X137535188Y-86172240D01*
X137555201Y-86106265D01*
X137561959Y-86037653D01*
X137555201Y-85969041D01*
X137535188Y-85903066D01*
X137535061Y-85902828D01*
X137535299Y-85902955D01*
X137601274Y-85922968D01*
X137669886Y-85929726D01*
X137738498Y-85922968D01*
X137804473Y-85902955D01*
X137865276Y-85870455D01*
X137918571Y-85826718D01*
X138342835Y-85402454D01*
X138386572Y-85349159D01*
X138419072Y-85288356D01*
X138439085Y-85222381D01*
X138445843Y-85153769D01*
X138439085Y-85085157D01*
X138419072Y-85019182D01*
X138418946Y-85018946D01*
X138419182Y-85019072D01*
X138482454Y-85038265D01*
X138501656Y-85054024D01*
X138605890Y-85109738D01*
X138677031Y-85131318D01*
X138718989Y-85144046D01*
X138836610Y-85155631D01*
X138846941Y-85154613D01*
X138857272Y-85155631D01*
X138886746Y-85152728D01*
X138974893Y-85144046D01*
X138988231Y-85140000D01*
X139740526Y-85140000D01*
X139770000Y-85142903D01*
X139799474Y-85140000D01*
X139887621Y-85131318D01*
X140000721Y-85097010D01*
X140104955Y-85041296D01*
X140196317Y-84966317D01*
X140215113Y-84943414D01*
X140717485Y-84441043D01*
X140777890Y-84416022D01*
X140884351Y-84344888D01*
X140974888Y-84254351D01*
X141046022Y-84147890D01*
X141095021Y-84029598D01*
X141120000Y-83904019D01*
X141120000Y-83775981D01*
X141095021Y-83650402D01*
X141046022Y-83532110D01*
X140974888Y-83425649D01*
X140884351Y-83335112D01*
X140777890Y-83263978D01*
X140659598Y-83214979D01*
X140534019Y-83190000D01*
X140405981Y-83190000D01*
X140280402Y-83214979D01*
X140186095Y-83254043D01*
X140172083Y-83220214D01*
X140133780Y-83162890D01*
X140127965Y-83157075D01*
X140908452Y-83157075D01*
X140908452Y-83226019D01*
X140921903Y-83293639D01*
X140948286Y-83357335D01*
X140986590Y-83414659D01*
X141035340Y-83463410D01*
X141868332Y-84296402D01*
X141992076Y-84296402D01*
X142495889Y-83792588D01*
X141391035Y-82687734D01*
X141267291Y-82687734D01*
X140986590Y-82968435D01*
X140948286Y-83025760D01*
X140921903Y-83089456D01*
X140908452Y-83157075D01*
X140127965Y-83157075D01*
X139605591Y-82634701D01*
X139481847Y-82634701D01*
X139119455Y-82997093D01*
X139133597Y-83011235D01*
X139062886Y-83081946D01*
X139048744Y-83067804D01*
X139034602Y-83081946D01*
X138963891Y-83011235D01*
X138978033Y-82997093D01*
X138226732Y-82245792D01*
X138102989Y-82245792D01*
X137963708Y-82385072D01*
X137925405Y-82442397D01*
X137899022Y-82506093D01*
X137885571Y-82573712D01*
X137885571Y-82642656D01*
X137899022Y-82710276D01*
X137913093Y-82744248D01*
X137910538Y-82742882D01*
X137844563Y-82722869D01*
X137775951Y-82716111D01*
X137707339Y-82722869D01*
X137641364Y-82742882D01*
X137580561Y-82775382D01*
X137527266Y-82819119D01*
X137103002Y-83243383D01*
X137059265Y-83296678D01*
X137026765Y-83357481D01*
X137006752Y-83423456D01*
X136999994Y-83492068D01*
X137006752Y-83560680D01*
X137026765Y-83626655D01*
X137026891Y-83626891D01*
X137026655Y-83626765D01*
X136960680Y-83606752D01*
X136892068Y-83599994D01*
X136823456Y-83606752D01*
X136774205Y-83621692D01*
X135203851Y-82051338D01*
X138297443Y-82051338D01*
X138297443Y-82175081D01*
X139048744Y-82926382D01*
X139411136Y-82563990D01*
X139411136Y-82493279D01*
X141461746Y-82493279D01*
X141461746Y-82617023D01*
X142566600Y-83721877D01*
X143070414Y-83218064D01*
X143070414Y-83094320D01*
X142237422Y-82261328D01*
X142188671Y-82212578D01*
X142131347Y-82174274D01*
X142067651Y-82147891D01*
X142000031Y-82134440D01*
X141931087Y-82134440D01*
X141863468Y-82147891D01*
X141799772Y-82174274D01*
X141742447Y-82212578D01*
X141461746Y-82493279D01*
X139411136Y-82493279D01*
X139411136Y-82440246D01*
X138882947Y-81912057D01*
X138825623Y-81873754D01*
X138761927Y-81847371D01*
X138694307Y-81833920D01*
X138625363Y-81833920D01*
X138557744Y-81847371D01*
X138494048Y-81873754D01*
X138436723Y-81912057D01*
X138297443Y-82051338D01*
X135203851Y-82051338D01*
X134102501Y-80949989D01*
X138005303Y-80949989D01*
X138027397Y-80952165D01*
X138049491Y-80949989D01*
X138049502Y-80949989D01*
X138115612Y-80943478D01*
X138200438Y-80917746D01*
X138225653Y-80904268D01*
X138386150Y-81064765D01*
X138439445Y-81108502D01*
X138500248Y-81141002D01*
X138566223Y-81161015D01*
X138634835Y-81167773D01*
X138703447Y-81161015D01*
X138769422Y-81141002D01*
X138830225Y-81108502D01*
X138883520Y-81064765D01*
X139565308Y-80382977D01*
X141436746Y-80382977D01*
X141436746Y-80506721D01*
X141717447Y-80787422D01*
X141774772Y-80825726D01*
X141838468Y-80852109D01*
X141906087Y-80865560D01*
X141975031Y-80865560D01*
X142042651Y-80852109D01*
X142106347Y-80825726D01*
X142163671Y-80787422D01*
X142212422Y-80738672D01*
X143045414Y-79905680D01*
X143045414Y-79781936D01*
X142541600Y-79278123D01*
X141436746Y-80382977D01*
X139565308Y-80382977D01*
X140014523Y-79933762D01*
X140085649Y-80004888D01*
X140192110Y-80076022D01*
X140310402Y-80125021D01*
X140435981Y-80150000D01*
X140564019Y-80150000D01*
X140689598Y-80125021D01*
X140807890Y-80076022D01*
X140914351Y-80004888D01*
X140931983Y-79987256D01*
X140961590Y-80031565D01*
X141242291Y-80312266D01*
X141366035Y-80312266D01*
X142470889Y-79207412D01*
X141967076Y-78703598D01*
X141843332Y-78703598D01*
X141143521Y-79403409D01*
X141125021Y-79310402D01*
X141100000Y-79249997D01*
X141100000Y-78579473D01*
X141102903Y-78549999D01*
X141091318Y-78432378D01*
X141071733Y-78367815D01*
X141057010Y-78319279D01*
X141001296Y-78215045D01*
X140926317Y-78123683D01*
X140903426Y-78104897D01*
X139445113Y-76646586D01*
X139426317Y-76623683D01*
X139403419Y-76604891D01*
X137901044Y-75102517D01*
X137876022Y-75042110D01*
X137804888Y-74935649D01*
X137714351Y-74845112D01*
X137607890Y-74773978D01*
X137489598Y-74724979D01*
X137480000Y-74723070D01*
X137671402Y-74531668D01*
X137671402Y-74407924D01*
X137167588Y-73904111D01*
X136062734Y-75008965D01*
X136062734Y-75132709D01*
X136343435Y-75413410D01*
X136400760Y-75451714D01*
X136464456Y-75478097D01*
X136532075Y-75491548D01*
X136601019Y-75491548D01*
X136662970Y-75479225D01*
X136674979Y-75539598D01*
X136723978Y-75657890D01*
X136795112Y-75764351D01*
X136885649Y-75854888D01*
X136992110Y-75926022D01*
X137052517Y-75951044D01*
X137872031Y-76770558D01*
X137560891Y-77081698D01*
X137510299Y-77097045D01*
X137507744Y-77098411D01*
X137521815Y-77064439D01*
X137535266Y-76996819D01*
X137535266Y-76927875D01*
X137521815Y-76860256D01*
X137495432Y-76796560D01*
X137457129Y-76739235D01*
X137317848Y-76599955D01*
X137194105Y-76599955D01*
X136442804Y-77351256D01*
X136456946Y-77365398D01*
X136386235Y-77436109D01*
X136372093Y-77421967D01*
X135620792Y-78173268D01*
X135620792Y-78297011D01*
X135760072Y-78436292D01*
X135817397Y-78474595D01*
X135881093Y-78500978D01*
X135948712Y-78514429D01*
X136017656Y-78514429D01*
X136085276Y-78500978D01*
X136119248Y-78486907D01*
X136117882Y-78489462D01*
X136097869Y-78555437D01*
X136091111Y-78624049D01*
X136097869Y-78692661D01*
X136117882Y-78758636D01*
X136150382Y-78819439D01*
X136194119Y-78872734D01*
X136618383Y-79296998D01*
X136671678Y-79340735D01*
X136732481Y-79373235D01*
X136798456Y-79393248D01*
X136867068Y-79400006D01*
X136935680Y-79393248D01*
X137001655Y-79373235D01*
X137001891Y-79373109D01*
X137001765Y-79373345D01*
X136981752Y-79439320D01*
X136974994Y-79507932D01*
X136981752Y-79576544D01*
X137001765Y-79642519D01*
X137002881Y-79644607D01*
X136997510Y-79649978D01*
X132906303Y-79649978D01*
X132951216Y-79625971D01*
X133019737Y-79569737D01*
X133033829Y-79552566D01*
X134880702Y-77705693D01*
X135208920Y-77705693D01*
X135208920Y-77774637D01*
X135222371Y-77842256D01*
X135248754Y-77905952D01*
X135287057Y-77963277D01*
X135426338Y-78102557D01*
X135550081Y-78102557D01*
X136301382Y-77351256D01*
X135938990Y-76988864D01*
X135815246Y-76988864D01*
X135287057Y-77517053D01*
X135248754Y-77574377D01*
X135222371Y-77638073D01*
X135208920Y-77705693D01*
X134880702Y-77705693D01*
X134952574Y-77633822D01*
X134969738Y-77619736D01*
X134983825Y-77602571D01*
X134983829Y-77602567D01*
X135025972Y-77551216D01*
X135067758Y-77473040D01*
X135081923Y-77426345D01*
X135093490Y-77388214D01*
X135100001Y-77322104D01*
X135100001Y-77322094D01*
X135102177Y-77299999D01*
X135100001Y-77277905D01*
X135100001Y-76794409D01*
X136009701Y-76794409D01*
X136009701Y-76918153D01*
X136372093Y-77280545D01*
X137123394Y-76529244D01*
X137123394Y-76405501D01*
X136984114Y-76266220D01*
X136926789Y-76227917D01*
X136863093Y-76201534D01*
X136795474Y-76188083D01*
X136726530Y-76188083D01*
X136658910Y-76201534D01*
X136595214Y-76227917D01*
X136537890Y-76266220D01*
X136009701Y-76794409D01*
X135100001Y-76794409D01*
X135100001Y-74964476D01*
X135114351Y-74954888D01*
X135204888Y-74864351D01*
X135276022Y-74757890D01*
X135325021Y-74639598D01*
X135350000Y-74514019D01*
X135350000Y-74399969D01*
X135509440Y-74399969D01*
X135509440Y-74468913D01*
X135522891Y-74536532D01*
X135549274Y-74600228D01*
X135587578Y-74657553D01*
X135868279Y-74938254D01*
X135992023Y-74938254D01*
X137096877Y-73833400D01*
X136593064Y-73329586D01*
X136469320Y-73329586D01*
X135636328Y-74162578D01*
X135587578Y-74211329D01*
X135549274Y-74268653D01*
X135522891Y-74332349D01*
X135509440Y-74399969D01*
X135350000Y-74399969D01*
X135350000Y-74385981D01*
X135325021Y-74260402D01*
X135276022Y-74142110D01*
X135204888Y-74035649D01*
X135114351Y-73945112D01*
X135007890Y-73873978D01*
X134889598Y-73824979D01*
X134764019Y-73800000D01*
X134635981Y-73800000D01*
X134510402Y-73824979D01*
X134392110Y-73873978D01*
X134285649Y-73945112D01*
X134195112Y-74035649D01*
X134123978Y-74142110D01*
X134074979Y-74260402D01*
X134050000Y-74385981D01*
X134050000Y-74514019D01*
X134074979Y-74639598D01*
X134123978Y-74757890D01*
X134195112Y-74864351D01*
X134200002Y-74869241D01*
X134200002Y-75148307D01*
X133750000Y-75148307D01*
X133681388Y-75155065D01*
X133615413Y-75175078D01*
X133554610Y-75207578D01*
X133501315Y-75251315D01*
X133457578Y-75304610D01*
X133425078Y-75365413D01*
X133405065Y-75431388D01*
X133398307Y-75500000D01*
X133398307Y-76700000D01*
X133405065Y-76768612D01*
X133425078Y-76834587D01*
X133443867Y-76869738D01*
X132637154Y-77676450D01*
X132634587Y-77675078D01*
X132568612Y-77655065D01*
X132500000Y-77648307D01*
X131700000Y-77648307D01*
X131631388Y-77655065D01*
X131565413Y-77675078D01*
X131504610Y-77707578D01*
X131500000Y-77711361D01*
X131495390Y-77707578D01*
X131434587Y-77675078D01*
X131368612Y-77655065D01*
X131300000Y-77648307D01*
X130500000Y-77648307D01*
X130431388Y-77655065D01*
X130403238Y-77663604D01*
X130022791Y-77663604D01*
X130586396Y-77100000D01*
X130664019Y-77100000D01*
X130789598Y-77075021D01*
X130907890Y-77026022D01*
X131014351Y-76954888D01*
X131104888Y-76864351D01*
X131176022Y-76757890D01*
X131225021Y-76639598D01*
X131250000Y-76514019D01*
X131250000Y-76385981D01*
X131225021Y-76260402D01*
X131215535Y-76237500D01*
X131500000Y-76237500D01*
X131500000Y-76734472D01*
X131513450Y-76802091D01*
X131539834Y-76865787D01*
X131578137Y-76923112D01*
X131626888Y-76971863D01*
X131684213Y-77010166D01*
X131747909Y-77036550D01*
X131815528Y-77050000D01*
X132012500Y-77050000D01*
X132100000Y-76962500D01*
X132100000Y-76150000D01*
X132200000Y-76150000D01*
X132200000Y-76962500D01*
X132287500Y-77050000D01*
X132484472Y-77050000D01*
X132552091Y-77036550D01*
X132615787Y-77010166D01*
X132673112Y-76971863D01*
X132721863Y-76923112D01*
X132760166Y-76865787D01*
X132786550Y-76802091D01*
X132800000Y-76734472D01*
X132800000Y-76237500D01*
X132712500Y-76150000D01*
X132200000Y-76150000D01*
X132100000Y-76150000D01*
X131587500Y-76150000D01*
X131500000Y-76237500D01*
X131215535Y-76237500D01*
X131176022Y-76142110D01*
X131104888Y-76035649D01*
X131014351Y-75945112D01*
X130907890Y-75873978D01*
X130812129Y-75834312D01*
X130524264Y-75546447D01*
X130510122Y-75560589D01*
X130439411Y-75489878D01*
X130453553Y-75475736D01*
X130594975Y-75475736D01*
X130922012Y-75802773D01*
X131045755Y-75802773D01*
X131255746Y-75592782D01*
X131294049Y-75535458D01*
X131320433Y-75471761D01*
X131321672Y-75465528D01*
X131500000Y-75465528D01*
X131500000Y-75962500D01*
X131587500Y-76050000D01*
X132100000Y-76050000D01*
X132100000Y-75237500D01*
X132200000Y-75237500D01*
X132200000Y-76050000D01*
X132712500Y-76050000D01*
X132800000Y-75962500D01*
X132800000Y-75465528D01*
X132786550Y-75397909D01*
X132760166Y-75334213D01*
X132721863Y-75276888D01*
X132673112Y-75228137D01*
X132615787Y-75189834D01*
X132552091Y-75163450D01*
X132484472Y-75150000D01*
X132287500Y-75150000D01*
X132200000Y-75237500D01*
X132100000Y-75237500D01*
X132012500Y-75150000D01*
X131815528Y-75150000D01*
X131747909Y-75163450D01*
X131684213Y-75189834D01*
X131626888Y-75228137D01*
X131578137Y-75276888D01*
X131539834Y-75334213D01*
X131513450Y-75397909D01*
X131500000Y-75465528D01*
X131321672Y-75465528D01*
X131333884Y-75404142D01*
X131333884Y-75335198D01*
X131320433Y-75267579D01*
X131294049Y-75203882D01*
X131255746Y-75146558D01*
X131151821Y-75042633D01*
X131028078Y-75042633D01*
X130594975Y-75475736D01*
X130453553Y-75475736D01*
X129824264Y-74846447D01*
X129810122Y-74860589D01*
X129739411Y-74789878D01*
X129753553Y-74775736D01*
X129894975Y-74775736D01*
X130524264Y-75405025D01*
X130957367Y-74971922D01*
X130957367Y-74848179D01*
X130853442Y-74744254D01*
X130796118Y-74705951D01*
X130732421Y-74679567D01*
X130664802Y-74666116D01*
X130633884Y-74666116D01*
X130633884Y-74635198D01*
X130620433Y-74567579D01*
X130594049Y-74503882D01*
X130555746Y-74446558D01*
X130451821Y-74342633D01*
X130328078Y-74342633D01*
X129894975Y-74775736D01*
X129753553Y-74775736D01*
X129426516Y-74448699D01*
X129302773Y-74448699D01*
X129092782Y-74658690D01*
X129054479Y-74716014D01*
X129028095Y-74779711D01*
X129020277Y-74819012D01*
X129013190Y-74819710D01*
X128947215Y-74839723D01*
X128886412Y-74872223D01*
X128833117Y-74915960D01*
X128589219Y-75159858D01*
X128523400Y-75153376D01*
X128523389Y-75153376D01*
X128501295Y-75151200D01*
X128479201Y-75153376D01*
X128119314Y-75153376D01*
X128125021Y-75139598D01*
X128150000Y-75014019D01*
X128150000Y-74885981D01*
X128125021Y-74760402D01*
X128076022Y-74642110D01*
X128004888Y-74535649D01*
X127950000Y-74480761D01*
X127950000Y-74472091D01*
X127952176Y-74449999D01*
X127950000Y-74427907D01*
X127950000Y-74427895D01*
X127943489Y-74361785D01*
X127917757Y-74276959D01*
X127905616Y-74254245D01*
X129497227Y-74254245D01*
X129497227Y-74377988D01*
X129824264Y-74705025D01*
X130257367Y-74271922D01*
X130257367Y-74148179D01*
X130153442Y-74044254D01*
X130096118Y-74005951D01*
X130032421Y-73979567D01*
X129964802Y-73966116D01*
X129895858Y-73966116D01*
X129828239Y-73979567D01*
X129764542Y-74005951D01*
X129707218Y-74044254D01*
X129497227Y-74254245D01*
X127905616Y-74254245D01*
X127888936Y-74223040D01*
X127875971Y-74198783D01*
X127851693Y-74169200D01*
X127851693Y-73885981D01*
X131050000Y-73885981D01*
X131050000Y-74014019D01*
X131074979Y-74139598D01*
X131123978Y-74257890D01*
X131195112Y-74364351D01*
X131285649Y-74454888D01*
X131392110Y-74526022D01*
X131510402Y-74575021D01*
X131635981Y-74600000D01*
X131764019Y-74600000D01*
X131889598Y-74575021D01*
X132007890Y-74526022D01*
X132114351Y-74454888D01*
X132204888Y-74364351D01*
X132276022Y-74257890D01*
X132279290Y-74250000D01*
X132448307Y-74250000D01*
X132448307Y-74400000D01*
X132455065Y-74468612D01*
X132475078Y-74534587D01*
X132507578Y-74595390D01*
X132551315Y-74648685D01*
X132604610Y-74692422D01*
X132665413Y-74724922D01*
X132731388Y-74744935D01*
X132800000Y-74751693D01*
X133400000Y-74751693D01*
X133468612Y-74744935D01*
X133534587Y-74724922D01*
X133595390Y-74692422D01*
X133648685Y-74648685D01*
X133692422Y-74595390D01*
X133724922Y-74534587D01*
X133744935Y-74468612D01*
X133751693Y-74400000D01*
X133751693Y-73200000D01*
X133744935Y-73131388D01*
X133724922Y-73065413D01*
X133692422Y-73004610D01*
X133648685Y-72951315D01*
X133617176Y-72925457D01*
X133681388Y-72944935D01*
X133750000Y-72951693D01*
X134350000Y-72951693D01*
X134418612Y-72944935D01*
X134484587Y-72924922D01*
X134545390Y-72892422D01*
X134598685Y-72848685D01*
X134642422Y-72795390D01*
X134674922Y-72734587D01*
X134694935Y-72668612D01*
X134701693Y-72600000D01*
X134701693Y-71984703D01*
X135002572Y-71683824D01*
X135019737Y-71669737D01*
X135033824Y-71652572D01*
X135033828Y-71652568D01*
X135075971Y-71601217D01*
X135117757Y-71523041D01*
X135133245Y-71471984D01*
X135143489Y-71438215D01*
X135150000Y-71372105D01*
X135150000Y-71372094D01*
X135152176Y-71350000D01*
X135150000Y-71327906D01*
X135150000Y-71119239D01*
X135204888Y-71064351D01*
X135276022Y-70957890D01*
X135325021Y-70839598D01*
X135350000Y-70714019D01*
X135350000Y-70585981D01*
X135325021Y-70460402D01*
X135276022Y-70342110D01*
X135204888Y-70235649D01*
X135114351Y-70145112D01*
X135007890Y-70073978D01*
X134889598Y-70024979D01*
X134764019Y-70000000D01*
X134635981Y-70000000D01*
X134510402Y-70024979D01*
X134392110Y-70073978D01*
X134285649Y-70145112D01*
X134195112Y-70235649D01*
X134123978Y-70342110D01*
X134074979Y-70460402D01*
X134050000Y-70585981D01*
X134050000Y-70714019D01*
X134074979Y-70839598D01*
X134123978Y-70957890D01*
X134184392Y-71048307D01*
X133750000Y-71048307D01*
X133681388Y-71055065D01*
X133615413Y-71075078D01*
X133554610Y-71107578D01*
X133501315Y-71151315D01*
X133457578Y-71204610D01*
X133425078Y-71265413D01*
X133405065Y-71331388D01*
X133398307Y-71400000D01*
X133398307Y-72600000D01*
X133405065Y-72668612D01*
X133425078Y-72734587D01*
X133457578Y-72795390D01*
X133501315Y-72848685D01*
X133532824Y-72874543D01*
X133468612Y-72855065D01*
X133400000Y-72848307D01*
X132800000Y-72848307D01*
X132731388Y-72855065D01*
X132670701Y-72873474D01*
X132673112Y-72871863D01*
X132721863Y-72823112D01*
X132760166Y-72765787D01*
X132786550Y-72702091D01*
X132800000Y-72634472D01*
X132800000Y-72137500D01*
X132712500Y-72050000D01*
X132200000Y-72050000D01*
X132200000Y-72862500D01*
X132287500Y-72950000D01*
X132484472Y-72950000D01*
X132552091Y-72936550D01*
X132586852Y-72922152D01*
X132551315Y-72951315D01*
X132507578Y-73004610D01*
X132475078Y-73065413D01*
X132455065Y-73131388D01*
X132448307Y-73200000D01*
X132448307Y-73350000D01*
X131950003Y-73350000D01*
X131889598Y-73324979D01*
X131764019Y-73300000D01*
X131635981Y-73300000D01*
X131510402Y-73324979D01*
X131392110Y-73373978D01*
X131285649Y-73445112D01*
X131195112Y-73535649D01*
X131123978Y-73642110D01*
X131074979Y-73760402D01*
X131050000Y-73885981D01*
X127851693Y-73885981D01*
X127851693Y-73800000D01*
X127844935Y-73731388D01*
X127824922Y-73665413D01*
X127792422Y-73604610D01*
X127748685Y-73551315D01*
X127695390Y-73507578D01*
X127634587Y-73475078D01*
X127568612Y-73455065D01*
X127500000Y-73448307D01*
X126700000Y-73448307D01*
X126631388Y-73455065D01*
X126565413Y-73475078D01*
X126504610Y-73507578D01*
X126500000Y-73511361D01*
X126495390Y-73507578D01*
X126434587Y-73475078D01*
X126368612Y-73455065D01*
X126300000Y-73448307D01*
X125500000Y-73448307D01*
X125431388Y-73455065D01*
X125365413Y-73475078D01*
X125362846Y-73476450D01*
X125300321Y-73413926D01*
X125301693Y-73400000D01*
X125301693Y-72800000D01*
X125294935Y-72731388D01*
X125274922Y-72665413D01*
X125242422Y-72604610D01*
X125198685Y-72551315D01*
X125145390Y-72507578D01*
X125084587Y-72475078D01*
X125018612Y-72455065D01*
X124950000Y-72448307D01*
X123750000Y-72448307D01*
X123681388Y-72455065D01*
X123615413Y-72475078D01*
X123554610Y-72507578D01*
X123501315Y-72551315D01*
X123457578Y-72604610D01*
X123425078Y-72665413D01*
X123405065Y-72731388D01*
X123398307Y-72800000D01*
X123398307Y-73400000D01*
X123405065Y-73468612D01*
X123425078Y-73534587D01*
X123457578Y-73595390D01*
X123501315Y-73648685D01*
X123554610Y-73692422D01*
X123615413Y-73724922D01*
X123681388Y-73744935D01*
X123750000Y-73751693D01*
X124365298Y-73751693D01*
X124963604Y-74350000D01*
X124487500Y-74350000D01*
X124400000Y-74437500D01*
X124400000Y-74950000D01*
X125212500Y-74950000D01*
X125300000Y-74862500D01*
X125300000Y-74665528D01*
X125286550Y-74597909D01*
X125273806Y-74567142D01*
X125304610Y-74592422D01*
X125365413Y-74624922D01*
X125431388Y-74644935D01*
X125500000Y-74651693D01*
X126300000Y-74651693D01*
X126368612Y-74644935D01*
X126434587Y-74624922D01*
X126495390Y-74592422D01*
X126500000Y-74588639D01*
X126504610Y-74592422D01*
X126565413Y-74624922D01*
X126631388Y-74644935D01*
X126700000Y-74651693D01*
X126920009Y-74651693D01*
X126874979Y-74760402D01*
X126850000Y-74885981D01*
X126850000Y-75014019D01*
X126874979Y-75139598D01*
X126923978Y-75257890D01*
X126995112Y-75364351D01*
X127024970Y-75394209D01*
X126569519Y-75849659D01*
X126569513Y-75849664D01*
X126500000Y-75919177D01*
X126430487Y-75849664D01*
X126430481Y-75849659D01*
X125900157Y-75319335D01*
X125846862Y-75275598D01*
X125786059Y-75243098D01*
X125720084Y-75223085D01*
X125651472Y-75216327D01*
X125582860Y-75223085D01*
X125516885Y-75243098D01*
X125456082Y-75275598D01*
X125402787Y-75319335D01*
X125262875Y-75459247D01*
X125286550Y-75402091D01*
X125300000Y-75334472D01*
X125300000Y-75137500D01*
X125212500Y-75050000D01*
X124400000Y-75050000D01*
X124400000Y-75562500D01*
X124487500Y-75650000D01*
X124984472Y-75650000D01*
X125052091Y-75636550D01*
X125115787Y-75610166D01*
X125143091Y-75591922D01*
X125131456Y-75613689D01*
X125102529Y-75629151D01*
X125049234Y-75672888D01*
X124837102Y-75885020D01*
X124793365Y-75938315D01*
X124777903Y-75967241D01*
X124748975Y-75982704D01*
X124695680Y-76026441D01*
X124483548Y-76238573D01*
X124439811Y-76291868D01*
X124424348Y-76320796D01*
X124395422Y-76336258D01*
X124342127Y-76379995D01*
X124129995Y-76592127D01*
X124086258Y-76645422D01*
X124070796Y-76674348D01*
X124041868Y-76689811D01*
X123988573Y-76733548D01*
X123776441Y-76945680D01*
X123732704Y-76998975D01*
X123717241Y-77027903D01*
X123688315Y-77043365D01*
X123635020Y-77087102D01*
X123422888Y-77299234D01*
X123379151Y-77352529D01*
X123363689Y-77381456D01*
X123334762Y-77396918D01*
X123281467Y-77440655D01*
X123072122Y-77650000D01*
X118198528Y-77650000D01*
X120711028Y-75137500D01*
X123400000Y-75137500D01*
X123400000Y-75334472D01*
X123413450Y-75402091D01*
X123439834Y-75465787D01*
X123478137Y-75523112D01*
X123526888Y-75571863D01*
X123584213Y-75610166D01*
X123647909Y-75636550D01*
X123715528Y-75650000D01*
X124212500Y-75650000D01*
X124300000Y-75562500D01*
X124300000Y-75050000D01*
X123487500Y-75050000D01*
X123400000Y-75137500D01*
X120711028Y-75137500D01*
X121227969Y-74620559D01*
X121254610Y-74642422D01*
X121315413Y-74674922D01*
X121381388Y-74694935D01*
X121450000Y-74701693D01*
X122650000Y-74701693D01*
X122718612Y-74694935D01*
X122784587Y-74674922D01*
X122802161Y-74665528D01*
X123400000Y-74665528D01*
X123400000Y-74862500D01*
X123487500Y-74950000D01*
X124300000Y-74950000D01*
X124300000Y-74437500D01*
X124212500Y-74350000D01*
X123715528Y-74350000D01*
X123647909Y-74363450D01*
X123584213Y-74389834D01*
X123526888Y-74428137D01*
X123478137Y-74476888D01*
X123439834Y-74534213D01*
X123413450Y-74597909D01*
X123400000Y-74665528D01*
X122802161Y-74665528D01*
X122845390Y-74642422D01*
X122898685Y-74598685D01*
X122942422Y-74545390D01*
X122974922Y-74484587D01*
X122994935Y-74418612D01*
X123001693Y-74350000D01*
X123001693Y-73750000D01*
X122994935Y-73681388D01*
X122974922Y-73615413D01*
X122942422Y-73554610D01*
X122898685Y-73501315D01*
X122845390Y-73457578D01*
X122784587Y-73425078D01*
X122718612Y-73405065D01*
X122650000Y-73398307D01*
X122500000Y-73398307D01*
X122500000Y-73172094D01*
X122502176Y-73149999D01*
X122500000Y-73127905D01*
X122500000Y-73127895D01*
X122493489Y-73061785D01*
X122467757Y-72976959D01*
X122441032Y-72926960D01*
X122425971Y-72898783D01*
X122383828Y-72847432D01*
X122383824Y-72847428D01*
X122369737Y-72830263D01*
X122352572Y-72816176D01*
X122201693Y-72665297D01*
X122201693Y-72300000D01*
X122196935Y-72251693D01*
X122650000Y-72251693D01*
X122718612Y-72244935D01*
X122784587Y-72224922D01*
X122845390Y-72192422D01*
X122898685Y-72148685D01*
X122942422Y-72095390D01*
X122974922Y-72034587D01*
X122994935Y-71968612D01*
X122996768Y-71950000D01*
X129063605Y-71950000D01*
X129350000Y-72236396D01*
X129350000Y-72314019D01*
X129374979Y-72439598D01*
X129423978Y-72557890D01*
X129495112Y-72664351D01*
X129585649Y-72754888D01*
X129692110Y-72826022D01*
X129810402Y-72875021D01*
X129935981Y-72900000D01*
X130064019Y-72900000D01*
X130189598Y-72875021D01*
X130307890Y-72826022D01*
X130414351Y-72754888D01*
X130504888Y-72664351D01*
X130576022Y-72557890D01*
X130625021Y-72439598D01*
X130650000Y-72314019D01*
X130650000Y-72251693D01*
X130950000Y-72251693D01*
X131018612Y-72244935D01*
X131084587Y-72224922D01*
X131145390Y-72192422D01*
X131198685Y-72148685D01*
X131207864Y-72137500D01*
X131500000Y-72137500D01*
X131500000Y-72634472D01*
X131513450Y-72702091D01*
X131539834Y-72765787D01*
X131578137Y-72823112D01*
X131626888Y-72871863D01*
X131684213Y-72910166D01*
X131747909Y-72936550D01*
X131815528Y-72950000D01*
X132012500Y-72950000D01*
X132100000Y-72862500D01*
X132100000Y-72050000D01*
X131587500Y-72050000D01*
X131500000Y-72137500D01*
X131207864Y-72137500D01*
X131242422Y-72095390D01*
X131274922Y-72034587D01*
X131294935Y-71968612D01*
X131301693Y-71900000D01*
X131301693Y-71534702D01*
X131507234Y-71329162D01*
X131500000Y-71365528D01*
X131500000Y-71862500D01*
X131587500Y-71950000D01*
X132100000Y-71950000D01*
X132100000Y-71137500D01*
X132200000Y-71137500D01*
X132200000Y-71950000D01*
X132712500Y-71950000D01*
X132800000Y-71862500D01*
X132800000Y-71365528D01*
X132786550Y-71297909D01*
X132760166Y-71234213D01*
X132721863Y-71176888D01*
X132673112Y-71128137D01*
X132615787Y-71089834D01*
X132552091Y-71063450D01*
X132484472Y-71050000D01*
X132287500Y-71050000D01*
X132200000Y-71137500D01*
X132100000Y-71137500D01*
X132012500Y-71050000D01*
X131815528Y-71050000D01*
X131779162Y-71057234D01*
X132458025Y-70378371D01*
X132475078Y-70434587D01*
X132507578Y-70495390D01*
X132551315Y-70548685D01*
X132604610Y-70592422D01*
X132665413Y-70624922D01*
X132731388Y-70644935D01*
X132800000Y-70651693D01*
X133400000Y-70651693D01*
X133468612Y-70644935D01*
X133534587Y-70624922D01*
X133595390Y-70592422D01*
X133648685Y-70548685D01*
X133692422Y-70495390D01*
X133724922Y-70434587D01*
X133744935Y-70368612D01*
X133751693Y-70300000D01*
X133751693Y-69100000D01*
X133744935Y-69031388D01*
X133724922Y-68965413D01*
X133692422Y-68904610D01*
X133648685Y-68851315D01*
X133595390Y-68807578D01*
X133534587Y-68775078D01*
X133468612Y-68755065D01*
X133400000Y-68748307D01*
X132800000Y-68748307D01*
X132731388Y-68755065D01*
X132665413Y-68775078D01*
X132604610Y-68807578D01*
X132551315Y-68851315D01*
X132507578Y-68904610D01*
X132475078Y-68965413D01*
X132455065Y-69031388D01*
X132448307Y-69100000D01*
X132448307Y-69252914D01*
X132411785Y-69256511D01*
X132326959Y-69282243D01*
X132276014Y-69309474D01*
X132248783Y-69324029D01*
X132197432Y-69366172D01*
X132197428Y-69366176D01*
X132180263Y-69380263D01*
X132166176Y-69397428D01*
X131301693Y-70261911D01*
X131301693Y-69900000D01*
X131294935Y-69831388D01*
X131274922Y-69765413D01*
X131242422Y-69704610D01*
X131198685Y-69651315D01*
X131145390Y-69607578D01*
X131084587Y-69575078D01*
X131018612Y-69555065D01*
X130950000Y-69548307D01*
X130450000Y-69548307D01*
X130381388Y-69555065D01*
X130315413Y-69575078D01*
X130254610Y-69607578D01*
X130225000Y-69631878D01*
X130195390Y-69607578D01*
X130134587Y-69575078D01*
X130068612Y-69555065D01*
X130000000Y-69548307D01*
X128400000Y-69548307D01*
X128350000Y-69553232D01*
X128350000Y-69446768D01*
X128400000Y-69451693D01*
X130000000Y-69451693D01*
X130068612Y-69444935D01*
X130134587Y-69424922D01*
X130195390Y-69392422D01*
X130248685Y-69348685D01*
X130292422Y-69295390D01*
X130324922Y-69234587D01*
X130344935Y-69168612D01*
X130351693Y-69100000D01*
X131549997Y-69100000D01*
X131610402Y-69125021D01*
X131735981Y-69150000D01*
X131864019Y-69150000D01*
X131989598Y-69125021D01*
X132107890Y-69076022D01*
X132214351Y-69004888D01*
X132304888Y-68914351D01*
X132376022Y-68807890D01*
X132425021Y-68689598D01*
X132450000Y-68564019D01*
X132450000Y-68435981D01*
X132425021Y-68310402D01*
X132376022Y-68192110D01*
X132304888Y-68085649D01*
X132214351Y-67995112D01*
X132107890Y-67923978D01*
X131989598Y-67874979D01*
X131864019Y-67850000D01*
X131735981Y-67850000D01*
X131610402Y-67874979D01*
X131549997Y-67900000D01*
X130351693Y-67900000D01*
X130344935Y-67831388D01*
X130324922Y-67765413D01*
X130292422Y-67704610D01*
X130248685Y-67651315D01*
X130195390Y-67607578D01*
X130134587Y-67575078D01*
X130068612Y-67555065D01*
X130000000Y-67548307D01*
X129496835Y-67548307D01*
X128845113Y-66896586D01*
X128826317Y-66873683D01*
X128734955Y-66798704D01*
X128630721Y-66742990D01*
X128517621Y-66708682D01*
X128429474Y-66700000D01*
X128400000Y-66697097D01*
X128370526Y-66700000D01*
X122819472Y-66700000D01*
X122789998Y-66697097D01*
X122672377Y-66708682D01*
X122559276Y-66742990D01*
X122532349Y-66757383D01*
X122455043Y-66798704D01*
X122363681Y-66873683D01*
X122344885Y-66896586D01*
X122146585Y-67094886D01*
X122123682Y-67113682D01*
X122048703Y-67205045D01*
X121992989Y-67309279D01*
X121974002Y-67371872D01*
X121958681Y-67422379D01*
X121947096Y-67539999D01*
X121949999Y-67569473D01*
X121949999Y-67701472D01*
X120496579Y-69154894D01*
X120473682Y-69173685D01*
X120398703Y-69265047D01*
X120342989Y-69369281D01*
X120317990Y-69451693D01*
X120308681Y-69482381D01*
X120297096Y-69600001D01*
X120299999Y-69629475D01*
X120300001Y-73851471D01*
X115812809Y-78338664D01*
X115820000Y-78302511D01*
X115820000Y-77977489D01*
X115756592Y-77658713D01*
X115632211Y-77358432D01*
X115451639Y-77088186D01*
X115221814Y-76858361D01*
X114951568Y-76677789D01*
X114651287Y-76553408D01*
X114332511Y-76490000D01*
X114007489Y-76490000D01*
X113688713Y-76553408D01*
X113388432Y-76677789D01*
X113118186Y-76858361D01*
X112888361Y-77088186D01*
X112707789Y-77358432D01*
X112583408Y-77658713D01*
X112531557Y-77919388D01*
X112441022Y-77741704D01*
X112323335Y-77703466D01*
X111688493Y-78026934D01*
X112397853Y-79419131D01*
X112515540Y-79457370D01*
X112869245Y-79277149D01*
X112923388Y-79234466D01*
X112926900Y-79230353D01*
X113118186Y-79421639D01*
X113388432Y-79602211D01*
X113688713Y-79726592D01*
X114007489Y-79790000D01*
X114332511Y-79790000D01*
X114368664Y-79782809D01*
X113796586Y-80354887D01*
X113773683Y-80373683D01*
X113709128Y-80452344D01*
X113130839Y-81030634D01*
X111649598Y-81030634D01*
X111418672Y-80577416D01*
X111381501Y-80519350D01*
X111333717Y-80469651D01*
X111277155Y-80430230D01*
X111213990Y-80402601D01*
X111146648Y-80387826D01*
X111077717Y-80386472D01*
X111009847Y-80398592D01*
X110945645Y-80423720D01*
X110892562Y-80450767D01*
X110778380Y-80336586D01*
X110759584Y-80313683D01*
X110668222Y-80238704D01*
X110563988Y-80182990D01*
X110450888Y-80148682D01*
X110362741Y-80140000D01*
X110333267Y-80137097D01*
X110303793Y-80140000D01*
X109875382Y-80140000D01*
X109821694Y-80139035D01*
X109787226Y-80145250D01*
X109752379Y-80148682D01*
X109729208Y-80155711D01*
X109705380Y-80160007D01*
X109672796Y-80172823D01*
X109639279Y-80182990D01*
X109591896Y-80208317D01*
X105344486Y-82381411D01*
X105339279Y-82382990D01*
X105291883Y-82408323D01*
X105270476Y-82419276D01*
X105265940Y-82422190D01*
X105235045Y-82438704D01*
X105216319Y-82454072D01*
X105195958Y-82467154D01*
X105170765Y-82491458D01*
X105143683Y-82513683D01*
X105128319Y-82532404D01*
X105110897Y-82549211D01*
X105090923Y-82577972D01*
X105068704Y-82605046D01*
X105057290Y-82626401D01*
X105043479Y-82646287D01*
X105029499Y-82678394D01*
X105012990Y-82709280D01*
X105005962Y-82732449D01*
X104996295Y-82754650D01*
X104988847Y-82788871D01*
X104978682Y-82822380D01*
X104976309Y-82846476D01*
X104971159Y-82870136D01*
X104970546Y-82904273D01*
X104956777Y-82877250D01*
X104421963Y-81827619D01*
X104304276Y-81789381D01*
X103669434Y-82112849D01*
X104378794Y-83505046D01*
X104496481Y-83543285D01*
X104850186Y-83363064D01*
X104858117Y-83356811D01*
X104772020Y-83629452D01*
X103611342Y-84790130D01*
X103580850Y-84787127D01*
X103512238Y-84793885D01*
X103446263Y-84813898D01*
X103385460Y-84846398D01*
X103332165Y-84890135D01*
X102483637Y-85738663D01*
X102439900Y-85791958D01*
X102407400Y-85852761D01*
X102387387Y-85918736D01*
X102380629Y-85987348D01*
X102387387Y-86055960D01*
X102407400Y-86121935D01*
X102439900Y-86182738D01*
X102472668Y-86222667D01*
X102460460Y-86210459D01*
X102403136Y-86172156D01*
X102339439Y-86145772D01*
X102271820Y-86132322D01*
X102202876Y-86132322D01*
X102135257Y-86145772D01*
X102071560Y-86172156D01*
X102014236Y-86210459D01*
X101662824Y-86561871D01*
X99870290Y-86561871D01*
X99900000Y-86412511D01*
X99900000Y-86087489D01*
X99836592Y-85768713D01*
X99712211Y-85468432D01*
X99531639Y-85198186D01*
X99301814Y-84968361D01*
X99031568Y-84787789D01*
X98731287Y-84663408D01*
X98412511Y-84600000D01*
X98087489Y-84600000D01*
X97870387Y-84643184D01*
X98077455Y-84483184D01*
X98600732Y-84092376D01*
X99121422Y-83716335D01*
X99639641Y-83354242D01*
X100155288Y-83005407D01*
X100668457Y-82669032D01*
X100777981Y-82599403D01*
X102907252Y-82599403D01*
X103442066Y-83649034D01*
X103473366Y-83710464D01*
X103516048Y-83764606D01*
X103568474Y-83809382D01*
X103628627Y-83843070D01*
X103694197Y-83864374D01*
X103762663Y-83872478D01*
X103831395Y-83867069D01*
X103897750Y-83848354D01*
X104251454Y-83668133D01*
X104289693Y-83550446D01*
X103580333Y-82158248D01*
X102945491Y-82481716D01*
X102907252Y-82599403D01*
X100777981Y-82599403D01*
X101179013Y-82344453D01*
X101687086Y-82030849D01*
X102192623Y-81727507D01*
X102400984Y-81605796D01*
X102782405Y-82354377D01*
X102900092Y-82392615D01*
X103534934Y-82069147D01*
X103525854Y-82051327D01*
X103614955Y-82005928D01*
X103624035Y-82023748D01*
X104258877Y-81700280D01*
X104297116Y-81582593D01*
X103882559Y-80768980D01*
X104189876Y-80601662D01*
X104682881Y-80338419D01*
X105173493Y-80080905D01*
X105661488Y-79828496D01*
X106146959Y-79580399D01*
X106630130Y-79335753D01*
X107110427Y-79094099D01*
X107597200Y-78850000D01*
X108046375Y-78624799D01*
X108046604Y-78624711D01*
X108064410Y-78615757D01*
X108081292Y-78607293D01*
X108081489Y-78607169D01*
X108267784Y-78513488D01*
X110926311Y-78513488D01*
X111461125Y-79563119D01*
X111492425Y-79624549D01*
X111535107Y-79678691D01*
X111587533Y-79723467D01*
X111647686Y-79757155D01*
X111713256Y-79778459D01*
X111781722Y-79786563D01*
X111850454Y-79781154D01*
X111916809Y-79762439D01*
X112270513Y-79582218D01*
X112308752Y-79464531D01*
X111599392Y-78072333D01*
X110964550Y-78395801D01*
X110926311Y-78513488D01*
X108267784Y-78513488D01*
X108519266Y-78387028D01*
X108519734Y-78386846D01*
X108536971Y-78378125D01*
X108553931Y-78369596D01*
X108554348Y-78369332D01*
X108989602Y-78149105D01*
X108990310Y-78148827D01*
X109007129Y-78140237D01*
X109023985Y-78131708D01*
X109024627Y-78131300D01*
X109457351Y-77910286D01*
X109458307Y-77909905D01*
X109474926Y-77901309D01*
X109491436Y-77892877D01*
X109492294Y-77892327D01*
X109922506Y-77669816D01*
X109923707Y-77669329D01*
X109940016Y-77660760D01*
X109956265Y-77652356D01*
X109957345Y-77651656D01*
X110375296Y-77432061D01*
X110801464Y-78268462D01*
X110919151Y-78306700D01*
X111553993Y-77983232D01*
X111544913Y-77965412D01*
X111634014Y-77920013D01*
X111643094Y-77937833D01*
X112277936Y-77614365D01*
X112316175Y-77496678D01*
X111866185Y-76613524D01*
X112208349Y-76416383D01*
X112210700Y-76415283D01*
X112225366Y-76406578D01*
X112240145Y-76398063D01*
X112242257Y-76396553D01*
X112657299Y-76150206D01*
X112659855Y-76148966D01*
X112674173Y-76140190D01*
X112688641Y-76131603D01*
X112690934Y-76129917D01*
X113103404Y-75877113D01*
X113106158Y-75875724D01*
X113120159Y-75866844D01*
X113134278Y-75858190D01*
X113136734Y-75856330D01*
X113546634Y-75596343D01*
X113549565Y-75594804D01*
X113563207Y-75585831D01*
X113577016Y-75577073D01*
X113579628Y-75575032D01*
X113986926Y-75307151D01*
X113990020Y-75305456D01*
X114003323Y-75296367D01*
X114016803Y-75287501D01*
X114019550Y-75285280D01*
X114424218Y-75008793D01*
X114427466Y-75006934D01*
X114440462Y-74997695D01*
X114453581Y-74988731D01*
X114456440Y-74986335D01*
X114858473Y-74700509D01*
X114861843Y-74698491D01*
X114874489Y-74689122D01*
X114887300Y-74680014D01*
X114890259Y-74677438D01*
X115289619Y-74381566D01*
X115293091Y-74379390D01*
X115305383Y-74369888D01*
X115317892Y-74360620D01*
X115320935Y-74357864D01*
X115717590Y-74051224D01*
X115721145Y-74048889D01*
X115733106Y-74039229D01*
X115745302Y-74029801D01*
X115748404Y-74026875D01*
X116142326Y-73708744D01*
X116145938Y-73706256D01*
X116157561Y-73696440D01*
X116169463Y-73686828D01*
X116172606Y-73683734D01*
X116563757Y-73353397D01*
X116567411Y-73350756D01*
X116578724Y-73340756D01*
X116590314Y-73330968D01*
X116593472Y-73327720D01*
X116981815Y-72984450D01*
X116985486Y-72981667D01*
X116996494Y-72971475D01*
X117007787Y-72961493D01*
X117010937Y-72958103D01*
X117396445Y-72601181D01*
X117400112Y-72598263D01*
X117410818Y-72587874D01*
X117421821Y-72577687D01*
X117424947Y-72574164D01*
X117807576Y-72202868D01*
X117811220Y-72199824D01*
X117821642Y-72189219D01*
X117832353Y-72178825D01*
X117835432Y-72175186D01*
X118215152Y-71788789D01*
X118218749Y-71785635D01*
X118228882Y-71774818D01*
X118239322Y-71764194D01*
X118242340Y-71760451D01*
X118619104Y-71358239D01*
X118622645Y-71354980D01*
X118632520Y-71343917D01*
X118642671Y-71333080D01*
X118645605Y-71329257D01*
X119019393Y-70910486D01*
X119022852Y-70907146D01*
X119032454Y-70895853D01*
X119042347Y-70884770D01*
X119045188Y-70880877D01*
X119415959Y-70444832D01*
X119419326Y-70441421D01*
X119428666Y-70429888D01*
X119438300Y-70418558D01*
X119441037Y-70414612D01*
X119808754Y-69960560D01*
X119812015Y-69957096D01*
X119821103Y-69945313D01*
X119830483Y-69933730D01*
X119833104Y-69929751D01*
X120197736Y-69456960D01*
X120200878Y-69453461D01*
X120209713Y-69441431D01*
X120218852Y-69429581D01*
X120221351Y-69425583D01*
X120582872Y-68933321D01*
X120585888Y-68929801D01*
X120594470Y-68917529D01*
X120603373Y-68905406D01*
X120605748Y-68901401D01*
X120964116Y-68388934D01*
X120967002Y-68385406D01*
X120975350Y-68372869D01*
X120984011Y-68360484D01*
X120986252Y-68356497D01*
X121341442Y-67823085D01*
X121344196Y-67819561D01*
X121352316Y-67806756D01*
X121360735Y-67794112D01*
X121362841Y-67790157D01*
X121714827Y-67235056D01*
X121717444Y-67231552D01*
X121725333Y-67218488D01*
X121733521Y-67205575D01*
X121735494Y-67201662D01*
X122086734Y-66620011D01*
X122440553Y-66098457D01*
X122856611Y-65625527D01*
X123339566Y-65198121D01*
X123885697Y-64825299D01*
X124491449Y-64515949D01*
X125153589Y-64278845D01*
X125869216Y-64122866D01*
X126637516Y-64056989D01*
X127365679Y-64080982D01*
G04 #@! TD*
M02*
