G04 #@! TF.FileFunction,Copper,L2,Bot,Signal*
%FSLAX46Y46*%
G04 Gerber Fmt 4.6, Leading zero omitted, Abs format (unit mm)*
G04 Created by KiCad (PCBNEW 4.0.7-e2-6376~58~ubuntu14.04.1) date Mon Aug  6 16:33:39 2018*
%MOMM*%
%LPD*%
G01*
G04 APERTURE LIST*
%ADD10C,0.100000*%
%ADD11C,3.000000*%
%ADD12R,1.600000X0.800000*%
%ADD13R,1.000000X1.200000*%
%ADD14C,1.000000*%
%ADD15R,0.800000X0.500000*%
%ADD16R,0.500000X0.800000*%
%ADD17R,0.600000X1.200000*%
%ADD18R,1.200000X0.600000*%
%ADD19R,1.600000X1.000000*%
%ADD20C,0.600000*%
%ADD21C,0.500000*%
%ADD22C,0.200000*%
%ADD23C,1.000000*%
%ADD24C,0.300000*%
G04 APERTURE END LIST*
D10*
G36*
X109114975Y-83659163D02*
X108343191Y-82144452D01*
X108877795Y-81872057D01*
X109649579Y-83386768D01*
X109114975Y-83659163D01*
X109114975Y-83659163D01*
G37*
G36*
X110228733Y-83091675D02*
X109456949Y-81576964D01*
X109991553Y-81304569D01*
X110763337Y-82819280D01*
X110228733Y-83091675D01*
X110228733Y-83091675D01*
G37*
G36*
X108001217Y-84226652D02*
X107229433Y-82711941D01*
X107764037Y-82439546D01*
X108535821Y-83954257D01*
X108001217Y-84226652D01*
X108001217Y-84226652D01*
G37*
G36*
X106887458Y-84794140D02*
X106115674Y-83279429D01*
X106650278Y-83007034D01*
X107422062Y-84521745D01*
X106887458Y-84794140D01*
X106887458Y-84794140D01*
G37*
G36*
X111788627Y-79434937D02*
X110562853Y-77029219D01*
X111453859Y-76575229D01*
X112679633Y-78980947D01*
X111788627Y-79434937D01*
X111788627Y-79434937D01*
G37*
G36*
X103769568Y-83520852D02*
X102543794Y-81115134D01*
X103434800Y-80661144D01*
X104660574Y-83066862D01*
X103769568Y-83520852D01*
X103769568Y-83520852D01*
G37*
G36*
X111877095Y-82251792D02*
X111342491Y-82524187D01*
X110570707Y-81009476D01*
X111105311Y-80737081D01*
X111877095Y-82251792D01*
X111877095Y-82251792D01*
G37*
D11*
X126500000Y-69500000D03*
D12*
X129200000Y-70300000D03*
X129200000Y-68700000D03*
X123800000Y-70300000D03*
X123800000Y-68700000D03*
D13*
X123500000Y-70500000D03*
X123500000Y-68500000D03*
X129500000Y-70500000D03*
X129500000Y-68500000D03*
D10*
G36*
X123950000Y-71100000D02*
X123400000Y-70700000D01*
X124600000Y-70700000D01*
X124050000Y-71100000D01*
X123950000Y-71100000D01*
X123950000Y-71100000D01*
G37*
G36*
X124050000Y-67900000D02*
X124600000Y-68300000D01*
X123400000Y-68300000D01*
X123950000Y-67900000D01*
X124050000Y-67900000D01*
X124050000Y-67900000D01*
G37*
G36*
X128950000Y-71100000D02*
X128400000Y-70700000D01*
X129600000Y-70700000D01*
X129050000Y-71100000D01*
X128950000Y-71100000D01*
X128950000Y-71100000D01*
G37*
G36*
X129050000Y-67900000D02*
X129600000Y-68300000D01*
X128400000Y-68300000D01*
X128950000Y-67900000D01*
X129050000Y-67900000D01*
X129050000Y-67900000D01*
G37*
D14*
X98250000Y-86250000D03*
X114170000Y-78140000D03*
D10*
G36*
X127560660Y-75780152D02*
X126924264Y-76416548D01*
X126712132Y-76204416D01*
X127348528Y-75568020D01*
X127560660Y-75780152D01*
X127560660Y-75780152D01*
G37*
G36*
X127914213Y-76133705D02*
X127065685Y-76982233D01*
X126853553Y-76770101D01*
X127702081Y-75921573D01*
X127914213Y-76133705D01*
X127914213Y-76133705D01*
G37*
G36*
X128267767Y-76487258D02*
X127419239Y-77335786D01*
X127207107Y-77123654D01*
X128055635Y-76275126D01*
X128267767Y-76487258D01*
X128267767Y-76487258D01*
G37*
G36*
X128621320Y-76840812D02*
X127772792Y-77689340D01*
X127560660Y-77477208D01*
X128409188Y-76628680D01*
X128621320Y-76840812D01*
X128621320Y-76840812D01*
G37*
G36*
X128974874Y-77194365D02*
X128126346Y-78042893D01*
X127914214Y-77830761D01*
X128762742Y-76982233D01*
X128974874Y-77194365D01*
X128974874Y-77194365D01*
G37*
G36*
X129328427Y-77547919D02*
X128479899Y-78396447D01*
X128267767Y-78184315D01*
X129116295Y-77335787D01*
X129328427Y-77547919D01*
X129328427Y-77547919D01*
G37*
G36*
X129681980Y-77901472D02*
X129045584Y-78537868D01*
X128833452Y-78325736D01*
X129469848Y-77689340D01*
X129681980Y-77901472D01*
X129681980Y-77901472D01*
G37*
G36*
X129469848Y-79810660D02*
X128833452Y-79174264D01*
X129045584Y-78962132D01*
X129681980Y-79598528D01*
X129469848Y-79810660D01*
X129469848Y-79810660D01*
G37*
G36*
X129116295Y-80164213D02*
X128267767Y-79315685D01*
X128479899Y-79103553D01*
X129328427Y-79952081D01*
X129116295Y-80164213D01*
X129116295Y-80164213D01*
G37*
G36*
X128762742Y-80517767D02*
X127914214Y-79669239D01*
X128126346Y-79457107D01*
X128974874Y-80305635D01*
X128762742Y-80517767D01*
X128762742Y-80517767D01*
G37*
G36*
X128409188Y-80871320D02*
X127560660Y-80022792D01*
X127772792Y-79810660D01*
X128621320Y-80659188D01*
X128409188Y-80871320D01*
X128409188Y-80871320D01*
G37*
G36*
X128055635Y-81224874D02*
X127207107Y-80376346D01*
X127419239Y-80164214D01*
X128267767Y-81012742D01*
X128055635Y-81224874D01*
X128055635Y-81224874D01*
G37*
G36*
X127702081Y-81578427D02*
X126853553Y-80729899D01*
X127065685Y-80517767D01*
X127914213Y-81366295D01*
X127702081Y-81578427D01*
X127702081Y-81578427D01*
G37*
G36*
X127348528Y-81931980D02*
X126712132Y-81295584D01*
X126924264Y-81083452D01*
X127560660Y-81719848D01*
X127348528Y-81931980D01*
X127348528Y-81931980D01*
G37*
G36*
X126287868Y-81295584D02*
X125651472Y-81931980D01*
X125439340Y-81719848D01*
X126075736Y-81083452D01*
X126287868Y-81295584D01*
X126287868Y-81295584D01*
G37*
G36*
X126146447Y-80729899D02*
X125297919Y-81578427D01*
X125085787Y-81366295D01*
X125934315Y-80517767D01*
X126146447Y-80729899D01*
X126146447Y-80729899D01*
G37*
G36*
X125792893Y-80376346D02*
X124944365Y-81224874D01*
X124732233Y-81012742D01*
X125580761Y-80164214D01*
X125792893Y-80376346D01*
X125792893Y-80376346D01*
G37*
G36*
X125439340Y-80022792D02*
X124590812Y-80871320D01*
X124378680Y-80659188D01*
X125227208Y-79810660D01*
X125439340Y-80022792D01*
X125439340Y-80022792D01*
G37*
G36*
X125085786Y-79669239D02*
X124237258Y-80517767D01*
X124025126Y-80305635D01*
X124873654Y-79457107D01*
X125085786Y-79669239D01*
X125085786Y-79669239D01*
G37*
G36*
X124732233Y-79315685D02*
X123883705Y-80164213D01*
X123671573Y-79952081D01*
X124520101Y-79103553D01*
X124732233Y-79315685D01*
X124732233Y-79315685D01*
G37*
G36*
X124166548Y-79174264D02*
X123530152Y-79810660D01*
X123318020Y-79598528D01*
X123954416Y-78962132D01*
X124166548Y-79174264D01*
X124166548Y-79174264D01*
G37*
G36*
X123954416Y-78537868D02*
X123318020Y-77901472D01*
X123530152Y-77689340D01*
X124166548Y-78325736D01*
X123954416Y-78537868D01*
X123954416Y-78537868D01*
G37*
G36*
X124520101Y-78396447D02*
X123671573Y-77547919D01*
X123883705Y-77335787D01*
X124732233Y-78184315D01*
X124520101Y-78396447D01*
X124520101Y-78396447D01*
G37*
G36*
X124873654Y-78042893D02*
X124025126Y-77194365D01*
X124237258Y-76982233D01*
X125085786Y-77830761D01*
X124873654Y-78042893D01*
X124873654Y-78042893D01*
G37*
G36*
X125227208Y-77689340D02*
X124378680Y-76840812D01*
X124590812Y-76628680D01*
X125439340Y-77477208D01*
X125227208Y-77689340D01*
X125227208Y-77689340D01*
G37*
G36*
X125580761Y-77335786D02*
X124732233Y-76487258D01*
X124944365Y-76275126D01*
X125792893Y-77123654D01*
X125580761Y-77335786D01*
X125580761Y-77335786D01*
G37*
G36*
X125934315Y-76982233D02*
X125085787Y-76133705D01*
X125297919Y-75921573D01*
X126146447Y-76770101D01*
X125934315Y-76982233D01*
X125934315Y-76982233D01*
G37*
G36*
X126075736Y-76416548D02*
X125439340Y-75780152D01*
X125651472Y-75568020D01*
X126287868Y-76204416D01*
X126075736Y-76416548D01*
X126075736Y-76416548D01*
G37*
G36*
X127242462Y-76098349D02*
X126676776Y-76664035D01*
X126676776Y-76239771D01*
X126818198Y-76098349D01*
X127242462Y-76098349D01*
X127242462Y-76098349D01*
G37*
G36*
X126323224Y-76664035D02*
X125757538Y-76098349D01*
X126181802Y-76098349D01*
X126323224Y-76239771D01*
X126323224Y-76664035D01*
X126323224Y-76664035D01*
G37*
G36*
X126676776Y-80835965D02*
X127242462Y-81401651D01*
X126818198Y-81401651D01*
X126676776Y-81260229D01*
X126676776Y-80835965D01*
X126676776Y-80835965D01*
G37*
G36*
X125757538Y-81401651D02*
X126323224Y-80835965D01*
X126323224Y-81260229D01*
X126181802Y-81401651D01*
X125757538Y-81401651D01*
X125757538Y-81401651D01*
G37*
G36*
X128585965Y-78573224D02*
X129151651Y-78007538D01*
X129151651Y-78431802D01*
X129010229Y-78573224D01*
X128585965Y-78573224D01*
X128585965Y-78573224D01*
G37*
G36*
X129151651Y-79492462D02*
X128585965Y-78926776D01*
X129010229Y-78926776D01*
X129151651Y-79068198D01*
X129151651Y-79492462D01*
X129151651Y-79492462D01*
G37*
G36*
X124414035Y-78926776D02*
X123848349Y-79492462D01*
X123848349Y-79068198D01*
X123989771Y-78926776D01*
X124414035Y-78926776D01*
X124414035Y-78926776D01*
G37*
G36*
X123848349Y-78007538D02*
X124414035Y-78573224D01*
X123989771Y-78573224D01*
X123848349Y-78431802D01*
X123848349Y-78007538D01*
X123848349Y-78007538D01*
G37*
G36*
X104401829Y-94866296D02*
X100866296Y-98401829D01*
X99310661Y-96846194D01*
X102846194Y-93310661D01*
X104401829Y-94866296D01*
X104401829Y-94866296D01*
G37*
G36*
X100795584Y-91260051D02*
X97260051Y-94795584D01*
X95704416Y-93239949D01*
X99239949Y-89704416D01*
X100795584Y-91260051D01*
X100795584Y-91260051D01*
G37*
G36*
X97189339Y-87653806D02*
X93653806Y-91189339D01*
X92098171Y-89633704D01*
X95633704Y-86098171D01*
X97189339Y-87653806D01*
X97189339Y-87653806D01*
G37*
G36*
X136892068Y-83951687D02*
X138094150Y-85153769D01*
X137669886Y-85578033D01*
X136467804Y-84375951D01*
X136892068Y-83951687D01*
X136892068Y-83951687D01*
G37*
G36*
X136008184Y-84835571D02*
X137210266Y-86037653D01*
X136786002Y-86461917D01*
X135583920Y-85259835D01*
X136008184Y-84835571D01*
X136008184Y-84835571D01*
G37*
G36*
X137775951Y-83067804D02*
X138978033Y-84269886D01*
X138553769Y-84694150D01*
X137351687Y-83492068D01*
X137775951Y-83067804D01*
X137775951Y-83067804D01*
G37*
G36*
X138659835Y-82183920D02*
X139861917Y-83386002D01*
X139437653Y-83810266D01*
X138235571Y-82608184D01*
X138659835Y-82183920D01*
X138659835Y-82183920D01*
G37*
G36*
X136591547Y-87858452D02*
X138500736Y-89767641D01*
X137793629Y-90474748D01*
X135884440Y-88565559D01*
X136591547Y-87858452D01*
X136591547Y-87858452D01*
G37*
G36*
X141965559Y-82484440D02*
X143874748Y-84393629D01*
X143167641Y-85100736D01*
X141258452Y-83191547D01*
X141965559Y-82484440D01*
X141965559Y-82484440D01*
G37*
G36*
X137326687Y-79507932D02*
X138528769Y-78305850D01*
X138953033Y-78730114D01*
X137750951Y-79932196D01*
X137326687Y-79507932D01*
X137326687Y-79507932D01*
G37*
G36*
X138210571Y-80391816D02*
X139412653Y-79189734D01*
X139836917Y-79613998D01*
X138634835Y-80816080D01*
X138210571Y-80391816D01*
X138210571Y-80391816D01*
G37*
G36*
X136442804Y-78624049D02*
X137644886Y-77421967D01*
X138069150Y-77846231D01*
X136867068Y-79048313D01*
X136442804Y-78624049D01*
X136442804Y-78624049D01*
G37*
G36*
X135558920Y-77740165D02*
X136761002Y-76538083D01*
X137185266Y-76962347D01*
X135983184Y-78164429D01*
X135558920Y-77740165D01*
X135558920Y-77740165D01*
G37*
G36*
X141233452Y-79808453D02*
X143142641Y-77899264D01*
X143849748Y-78606371D01*
X141940559Y-80515560D01*
X141233452Y-79808453D01*
X141233452Y-79808453D01*
G37*
G36*
X135859440Y-74434441D02*
X137768629Y-72525252D01*
X138475736Y-73232359D01*
X136566547Y-75141548D01*
X135859440Y-74434441D01*
X135859440Y-74434441D01*
G37*
G36*
X103580850Y-85138820D02*
X104111180Y-85669150D01*
X103262652Y-86517678D01*
X102732322Y-85987348D01*
X103580850Y-85138820D01*
X103580850Y-85138820D01*
G37*
G36*
X102237348Y-86482322D02*
X102767678Y-87012652D01*
X101919150Y-87861180D01*
X101388820Y-87330850D01*
X102237348Y-86482322D01*
X102237348Y-86482322D01*
G37*
G36*
X105419150Y-91361180D02*
X104888820Y-90830850D01*
X105737348Y-89982322D01*
X106267678Y-90512652D01*
X105419150Y-91361180D01*
X105419150Y-91361180D01*
G37*
G36*
X106762652Y-90017678D02*
X106232322Y-89487348D01*
X107080850Y-88638820D01*
X107611180Y-89169150D01*
X106762652Y-90017678D01*
X106762652Y-90017678D01*
G37*
D15*
X132100000Y-79250000D03*
X130900000Y-79250000D03*
X132100000Y-78250000D03*
X130900000Y-78250000D03*
X125900000Y-74050000D03*
X127100000Y-74050000D03*
D16*
X130700000Y-70300000D03*
X130700000Y-71500000D03*
X122400000Y-70300000D03*
X122400000Y-71500000D03*
X121600000Y-71500000D03*
X121600000Y-72700000D03*
D10*
G36*
X129569670Y-76783883D02*
X129216117Y-76430330D01*
X129781802Y-75864645D01*
X130135355Y-76218198D01*
X129569670Y-76783883D01*
X129569670Y-76783883D01*
G37*
G36*
X130418198Y-75935355D02*
X130064645Y-75581802D01*
X130630330Y-75016117D01*
X130983883Y-75369670D01*
X130418198Y-75935355D01*
X130418198Y-75935355D01*
G37*
D16*
X123070000Y-80940000D03*
X123070000Y-82140000D03*
D10*
G36*
X129930330Y-74316117D02*
X130283883Y-74669670D01*
X129718198Y-75235355D01*
X129364645Y-74881802D01*
X129930330Y-74316117D01*
X129930330Y-74316117D01*
G37*
G36*
X129081802Y-75164645D02*
X129435355Y-75518198D01*
X128869670Y-76083883D01*
X128516117Y-75730330D01*
X129081802Y-75164645D01*
X129081802Y-75164645D01*
G37*
D17*
X133100000Y-69700000D03*
X134050000Y-72000000D03*
X132150000Y-72000000D03*
X133100000Y-73800000D03*
X134050000Y-76100000D03*
X132150000Y-76100000D03*
D18*
X122050000Y-74050000D03*
X124350000Y-73100000D03*
X124350000Y-75000000D03*
D10*
G36*
X105525305Y-89699569D02*
X104676777Y-88851041D01*
X105101041Y-88426777D01*
X105949569Y-89275305D01*
X105525305Y-89699569D01*
X105525305Y-89699569D01*
G37*
G36*
X106197056Y-89027817D02*
X105348528Y-88179289D01*
X105772792Y-87755025D01*
X106621320Y-88603553D01*
X106197056Y-89027817D01*
X106197056Y-89027817D01*
G37*
G36*
X104853553Y-90371320D02*
X104005025Y-89522792D01*
X104429289Y-89098528D01*
X105277817Y-89947056D01*
X104853553Y-90371320D01*
X104853553Y-90371320D01*
G37*
G36*
X103227208Y-88744975D02*
X102378680Y-87896447D01*
X102802944Y-87472183D01*
X103651472Y-88320711D01*
X103227208Y-88744975D01*
X103227208Y-88744975D01*
G37*
G36*
X104570711Y-87401472D02*
X103722183Y-86552944D01*
X104146447Y-86128680D01*
X104994975Y-86977208D01*
X104570711Y-87401472D01*
X104570711Y-87401472D01*
G37*
D19*
X121670000Y-80040000D03*
X121670000Y-83040000D03*
D10*
G36*
X133943806Y-83232264D02*
X133534485Y-84571090D01*
X132578180Y-84278718D01*
X132987501Y-82939892D01*
X133943806Y-83232264D01*
X133943806Y-83232264D01*
G37*
G36*
X129927326Y-82004303D02*
X129518005Y-83343129D01*
X128561700Y-83050757D01*
X128971021Y-81711931D01*
X129927326Y-82004303D01*
X129927326Y-82004303D01*
G37*
G36*
X135073712Y-86035086D02*
X134781340Y-86991391D01*
X132868730Y-86406648D01*
X133161102Y-85450343D01*
X135073712Y-86035086D01*
X135073712Y-86035086D01*
G37*
G36*
X128379578Y-83988484D02*
X128087206Y-84944789D01*
X126174596Y-84360046D01*
X126466968Y-83403741D01*
X128379578Y-83988484D01*
X128379578Y-83988484D01*
G37*
D20*
X140470000Y-83840000D03*
X137300000Y-75350000D03*
X131800000Y-68500000D03*
X140500000Y-79500000D03*
X135791393Y-76858058D03*
X139500000Y-82400000D03*
X117569999Y-80529999D03*
X108600000Y-89100000D03*
X122870000Y-79140000D03*
X125300000Y-78500000D03*
X130000000Y-72250000D03*
X131700000Y-73950000D03*
X127500000Y-74950000D03*
X130600000Y-76450000D03*
X123070000Y-83240000D03*
X105639097Y-92526090D03*
X134700000Y-70650000D03*
X134700000Y-74450000D03*
D21*
X113379366Y-81630634D02*
X111223901Y-81630634D01*
X140470000Y-83840000D02*
X139770000Y-84540000D01*
X139770000Y-84540000D02*
X138870000Y-84540000D01*
X138870000Y-84540000D02*
X138857272Y-84552728D01*
X138857272Y-84552728D02*
X138836611Y-84552728D01*
X138836611Y-84552728D02*
X138164860Y-83880977D01*
X109870000Y-80740000D02*
X105570000Y-82940000D01*
X111223901Y-81630634D02*
X110333267Y-80740000D01*
X110333267Y-80740000D02*
X109870000Y-80740000D01*
X105570000Y-82940000D02*
X105570000Y-83095000D01*
X114200000Y-80810000D02*
X113379366Y-81630634D01*
X114200000Y-80800000D02*
X114200000Y-80810000D01*
X139000000Y-77050000D02*
X140500000Y-78550000D01*
X137300000Y-75350000D02*
X139000000Y-77050000D01*
X139000000Y-77050000D02*
X138441117Y-77050000D01*
X138441117Y-77050000D02*
X137255977Y-78235140D01*
X140500000Y-78550000D02*
X140500000Y-79500000D01*
X131800000Y-68500000D02*
X129500000Y-68500000D01*
X129500000Y-68500000D02*
X129500000Y-68400000D01*
X129500000Y-68400000D02*
X128400000Y-67300000D01*
X128400000Y-67300000D02*
X122789998Y-67300000D01*
X122549999Y-67950001D02*
X120899999Y-69600001D01*
X122789998Y-67300000D02*
X122549999Y-67539999D01*
X122549999Y-67539999D02*
X122549999Y-67950001D01*
X120899999Y-69600001D02*
X120900000Y-74100000D01*
X120900000Y-74100000D02*
X114200000Y-80800000D01*
X105300000Y-83950000D02*
X105570000Y-83095000D01*
X105570000Y-83095000D02*
X105600000Y-83000000D01*
X129600000Y-68700000D02*
X129200000Y-68700000D01*
X103457107Y-85792893D02*
X105300000Y-83950000D01*
X105300000Y-83950000D02*
X105156845Y-84093155D01*
X104429290Y-86765076D02*
X103457107Y-85792893D01*
D22*
X106479898Y-87613605D02*
X105984924Y-88108579D01*
X106479898Y-87330744D02*
X106479898Y-87613605D01*
X105419256Y-86270102D02*
X106479898Y-87330744D01*
X105136395Y-86270102D02*
X105419256Y-86270102D01*
D21*
X121670000Y-82840000D02*
X122370000Y-82840000D01*
X122370000Y-82840000D02*
X123070000Y-82140000D01*
D22*
X125616117Y-81048097D02*
X124524214Y-82140000D01*
X124524214Y-82140000D02*
X123070000Y-82140000D01*
D23*
X133971221Y-86220867D02*
X133971221Y-84465719D01*
X133971221Y-84465719D02*
X133260993Y-83755491D01*
X133971221Y-86220867D02*
X127525000Y-84250000D01*
X127525000Y-84250000D02*
X127277087Y-84174265D01*
D22*
X135863946Y-76858058D02*
X135791393Y-76858058D01*
X136377119Y-77371231D02*
X135863946Y-76858058D01*
X139028769Y-82977119D02*
X139028769Y-82871231D01*
X139028769Y-82871231D02*
X139500000Y-82400000D01*
X129824264Y-74775736D02*
X130524264Y-75475736D01*
D21*
X123070000Y-80940000D02*
X122570000Y-80940000D01*
X122570000Y-80940000D02*
X121670000Y-80040000D01*
X121670000Y-80040000D02*
X118059998Y-80040000D01*
X118059998Y-80040000D02*
X117569999Y-80529999D01*
D22*
X104641421Y-86765076D02*
X105136395Y-86270102D01*
D21*
X104641421Y-86765076D02*
X104429290Y-86765076D01*
D22*
X125262563Y-80694544D02*
X124767589Y-81189518D01*
X124767589Y-81189518D02*
X123769518Y-81189518D01*
X123769518Y-81189518D02*
X123520000Y-80940000D01*
X123520000Y-80940000D02*
X123070000Y-80940000D01*
D21*
X105542893Y-90707107D02*
X107027833Y-90707107D01*
X108600000Y-89134940D02*
X108600000Y-89100000D01*
X107027833Y-90707107D02*
X108600000Y-89134940D01*
X105118630Y-91131370D02*
X105542893Y-90707107D01*
D22*
X125757537Y-80199570D02*
X128444544Y-77512563D01*
X125262563Y-80694544D02*
X125757537Y-80199570D01*
D21*
X104270085Y-91131370D02*
X105118630Y-91131370D01*
X103015076Y-89876361D02*
X104270085Y-91131370D01*
D22*
X107882627Y-83333099D02*
X108270000Y-83840000D01*
X108270000Y-83840000D02*
X108770000Y-83940000D01*
X113973927Y-83036073D02*
X118070000Y-78940000D01*
X108770000Y-83940000D02*
X109559474Y-85440000D01*
X118070000Y-78940000D02*
X122670000Y-78940000D01*
X109559474Y-85440000D02*
X112770000Y-85440000D01*
X112770000Y-85440000D02*
X113973927Y-84236073D01*
X113973927Y-84236073D02*
X113973927Y-83036073D01*
X122670000Y-78940000D02*
X122870000Y-79140000D01*
X126750000Y-78500000D02*
X125300000Y-78500000D01*
X128090990Y-77159010D02*
X126750000Y-78500000D01*
X129675736Y-76324264D02*
X129222183Y-76324264D01*
X129222183Y-76324264D02*
X128882411Y-76664036D01*
X128882411Y-76664036D02*
X128585964Y-76664036D01*
X128585964Y-76664036D02*
X128090990Y-77159010D01*
X130700000Y-70300000D02*
X129700000Y-70300000D01*
X129700000Y-70300000D02*
X129500000Y-70500000D01*
X122400000Y-70300000D02*
X123300000Y-70300000D01*
X123300000Y-70300000D02*
X123500000Y-70500000D01*
X123500000Y-70400000D02*
X123500000Y-70500000D01*
X121600000Y-71500000D02*
X121600000Y-69700000D01*
X121600000Y-69700000D02*
X122800000Y-68500000D01*
X122800000Y-68500000D02*
X123500000Y-68500000D01*
X122050000Y-74050000D02*
X122050000Y-73150000D01*
X122050000Y-73150000D02*
X121600000Y-72700000D01*
X133100000Y-73800000D02*
X131850000Y-73800000D01*
X131850000Y-73800000D02*
X131700000Y-73950000D01*
X130000000Y-72250000D02*
X129250000Y-71500000D01*
X129250000Y-71500000D02*
X125740002Y-71500000D01*
X122400000Y-71500000D02*
X125740002Y-71500000D01*
X127500000Y-74950000D02*
X127500000Y-74450000D01*
X127500000Y-74450000D02*
X127100000Y-74050000D01*
X128798097Y-77866117D02*
X129293071Y-77371143D01*
X129293071Y-77371143D02*
X129678857Y-77371143D01*
X129678857Y-77371143D02*
X130600000Y-76450000D01*
X130900000Y-79250000D02*
X129394112Y-79250000D01*
X129394112Y-79250000D02*
X129257716Y-79386396D01*
X129257716Y-78113604D02*
X130763604Y-78113604D01*
X130763604Y-78113604D02*
X130900000Y-78250000D01*
X128058644Y-82429964D02*
X127136396Y-81507716D01*
X129120359Y-82429964D02*
X128058644Y-82429964D01*
X124331321Y-83040000D02*
X126146447Y-81224874D01*
X123070000Y-83240000D02*
X124131321Y-83240000D01*
X124131321Y-83240000D02*
X124331321Y-83040000D01*
X98250000Y-92250000D02*
X105363007Y-92250000D01*
X105363007Y-92250000D02*
X105639097Y-92526090D01*
X125800000Y-81600000D02*
X125863604Y-81507716D01*
D21*
X103015076Y-88391421D02*
X103015076Y-89876361D01*
D22*
X127525304Y-75603376D02*
X127136396Y-75992284D01*
X128501295Y-75603376D02*
X127525304Y-75603376D01*
X128522183Y-75624264D02*
X128501295Y-75603376D01*
X128975736Y-75624264D02*
X128522183Y-75624264D01*
X129594118Y-80110670D02*
X129604810Y-80099978D01*
X129604810Y-80099978D02*
X137183905Y-80099978D01*
X129274884Y-80110670D02*
X129594118Y-80110670D01*
X137473134Y-79810749D02*
X138144885Y-79138998D01*
X137183905Y-80099978D02*
X137473134Y-79810749D01*
X128798097Y-79633883D02*
X129274884Y-80110670D01*
X128939518Y-80482411D02*
X128444544Y-79987437D01*
X128957096Y-80499989D02*
X128939518Y-80482411D01*
X129179889Y-80510681D02*
X129169197Y-80499989D01*
X129770499Y-80499989D02*
X129759807Y-80510681D01*
X138027397Y-80499989D02*
X129770499Y-80499989D01*
X139028769Y-80022881D02*
X138504505Y-80022881D01*
X129169197Y-80499989D02*
X128957096Y-80499989D01*
X138504505Y-80022881D02*
X138027397Y-80499989D01*
X129759807Y-80510681D02*
X129179889Y-80510681D01*
X133426809Y-80910692D02*
X136589251Y-84073134D01*
X128090990Y-80340990D02*
X128660692Y-80910692D01*
X136589251Y-84073134D02*
X137261002Y-84744885D01*
X128660692Y-80910692D02*
X133426809Y-80910692D01*
X136377119Y-85104505D02*
X136377119Y-85628769D01*
X132672614Y-81400000D02*
X136377119Y-85104505D01*
X128442893Y-81400000D02*
X132672614Y-81400000D01*
X127737437Y-80694544D02*
X128442893Y-81400000D01*
X133100000Y-69700000D02*
X132500000Y-69700000D01*
X132500000Y-69700000D02*
X130700000Y-71500000D01*
X125900000Y-74050000D02*
X125300000Y-74050000D01*
X125300000Y-74050000D02*
X124350000Y-73100000D01*
X134050000Y-76900000D02*
X134050000Y-76100000D01*
X132100000Y-78250000D02*
X132700000Y-78250000D01*
X132700000Y-78250000D02*
X134050000Y-76900000D01*
X134700000Y-70650000D02*
X134700000Y-71350000D01*
X134700000Y-71350000D02*
X134050000Y-72000000D01*
X134650001Y-77299999D02*
X134650001Y-74499999D01*
X134650001Y-74499999D02*
X134700000Y-74450000D01*
X132700000Y-79250000D02*
X134650001Y-77299999D01*
X132100000Y-79250000D02*
X132700000Y-79250000D01*
X108996385Y-82765610D02*
X109370000Y-83240000D01*
X109370000Y-83240000D02*
X110170000Y-83440000D01*
X112870000Y-84740000D02*
X113570000Y-84040000D01*
X110170000Y-83440000D02*
X110854211Y-84740000D01*
X110854211Y-84740000D02*
X112870000Y-84740000D01*
X113570000Y-84040000D02*
X113570000Y-82840000D01*
X113570000Y-82840000D02*
X117870000Y-78540000D01*
X117870000Y-78540000D02*
X123270000Y-78540000D01*
X123565508Y-78835508D02*
X123565508Y-79209620D01*
X123270000Y-78540000D02*
X123565508Y-78835508D01*
X123565508Y-79209620D02*
X123742284Y-79386396D01*
X110110143Y-82198122D02*
X110370000Y-82540000D01*
X112770000Y-84240000D02*
X113170000Y-83840000D01*
X110370000Y-82540000D02*
X111270000Y-82840000D01*
X111270000Y-82840000D02*
X111970000Y-84240000D01*
X113170000Y-83840000D02*
X113170000Y-82640000D01*
X123416548Y-78100000D02*
X123430152Y-78113604D01*
X111970000Y-84240000D02*
X112770000Y-84240000D01*
X123430152Y-78113604D02*
X123742284Y-78113604D01*
X113170000Y-82640000D02*
X117710000Y-78100000D01*
X117710000Y-78100000D02*
X123416548Y-78100000D01*
D24*
G36*
X127365674Y-64080982D02*
X128024099Y-64177146D01*
X128613394Y-64331427D01*
X129135462Y-64530214D01*
X129591729Y-64760060D01*
X129983102Y-65007452D01*
X130310087Y-65258637D01*
X130578831Y-65504902D01*
X137436198Y-72362708D01*
X136663774Y-73135132D01*
X136663774Y-73258876D01*
X137167588Y-73762689D01*
X137181730Y-73748547D01*
X137252441Y-73819258D01*
X137238299Y-73833400D01*
X137742112Y-74337214D01*
X137865856Y-74337214D01*
X138638242Y-73564828D01*
X142810038Y-77736892D01*
X142037786Y-78509144D01*
X142037786Y-78632888D01*
X142541600Y-79136701D01*
X142555742Y-79122559D01*
X142626453Y-79193270D01*
X142612311Y-79207412D01*
X143116124Y-79711226D01*
X143239868Y-79711226D01*
X143797583Y-79153511D01*
X143797729Y-83821635D01*
X143264868Y-83288774D01*
X143141124Y-83288774D01*
X142637311Y-83792588D01*
X142651453Y-83806730D01*
X142580742Y-83877441D01*
X142566600Y-83863299D01*
X142062786Y-84367112D01*
X142062786Y-84490856D01*
X142795874Y-85223944D01*
X138622614Y-89394544D01*
X137890856Y-88662786D01*
X137767112Y-88662786D01*
X137263299Y-89166600D01*
X137277441Y-89180742D01*
X137206730Y-89251453D01*
X137192588Y-89237311D01*
X137178446Y-89251453D01*
X137107735Y-89180742D01*
X137121877Y-89166600D01*
X136017023Y-88061746D01*
X135893279Y-88061746D01*
X135730722Y-88224303D01*
X135432689Y-88003858D01*
X135429578Y-88001997D01*
X135426842Y-87999614D01*
X135422269Y-87996407D01*
X135235482Y-87867291D01*
X136087734Y-87867291D01*
X136087734Y-87991035D01*
X137192588Y-89095889D01*
X137696402Y-88592076D01*
X137696402Y-88468332D01*
X136863410Y-87635340D01*
X136814659Y-87586590D01*
X136757335Y-87548286D01*
X136693639Y-87521903D01*
X136626019Y-87508452D01*
X136557075Y-87508452D01*
X136489456Y-87521903D01*
X136425760Y-87548286D01*
X136368435Y-87586590D01*
X136087734Y-87867291D01*
X135235482Y-87867291D01*
X134862780Y-87609663D01*
X134859489Y-87607835D01*
X134856574Y-87605459D01*
X134851900Y-87602402D01*
X134289509Y-87240243D01*
X134286050Y-87238467D01*
X134282953Y-87236110D01*
X134278179Y-87233211D01*
X134176619Y-87172501D01*
X134711976Y-87336176D01*
X134780572Y-87343084D01*
X134849199Y-87336476D01*
X134915218Y-87316607D01*
X134976092Y-87284239D01*
X135029482Y-87240618D01*
X135073336Y-87187419D01*
X135105968Y-87126687D01*
X135126125Y-87060755D01*
X135222031Y-86747061D01*
X135163937Y-86637802D01*
X134004418Y-86283301D01*
X133998570Y-86302428D01*
X133902940Y-86273190D01*
X133908787Y-86254064D01*
X133691623Y-86187670D01*
X134033655Y-86187670D01*
X135193174Y-86542171D01*
X135302434Y-86484077D01*
X135398340Y-86170382D01*
X135418497Y-86104451D01*
X135425404Y-86035854D01*
X135418796Y-85967227D01*
X135398927Y-85901208D01*
X135366560Y-85840334D01*
X135322938Y-85786945D01*
X135269739Y-85743090D01*
X135209007Y-85710458D01*
X134351229Y-85448209D01*
X134241970Y-85506303D01*
X134033655Y-86187670D01*
X133691623Y-86187670D01*
X132749268Y-85899563D01*
X132640008Y-85957657D01*
X132544102Y-86271352D01*
X132543136Y-86274512D01*
X132538246Y-86272194D01*
X131965386Y-86005661D01*
X131961342Y-86004241D01*
X131957610Y-86002144D01*
X131952481Y-85999932D01*
X131377289Y-85756625D01*
X131373138Y-85755330D01*
X131369275Y-85753337D01*
X131364071Y-85751309D01*
X131215660Y-85694673D01*
X132720411Y-85694673D01*
X132778505Y-85803932D01*
X133938024Y-86158433D01*
X134146339Y-85477066D01*
X134088245Y-85367807D01*
X133230466Y-85105558D01*
X133161870Y-85098650D01*
X133093243Y-85105258D01*
X133027224Y-85125127D01*
X132966350Y-85157495D01*
X132912960Y-85201116D01*
X132869106Y-85254315D01*
X132836474Y-85315047D01*
X132816317Y-85380979D01*
X132720411Y-85694673D01*
X131215660Y-85694673D01*
X130786656Y-85530959D01*
X130782417Y-85529800D01*
X130778444Y-85527928D01*
X130773171Y-85526088D01*
X130193647Y-85328422D01*
X130189340Y-85327409D01*
X130185272Y-85325668D01*
X130179936Y-85324020D01*
X129598417Y-85148771D01*
X129594070Y-85147912D01*
X129589931Y-85146315D01*
X129584539Y-85144860D01*
X129001141Y-84991749D01*
X128996765Y-84991048D01*
X128992576Y-84989602D01*
X128987135Y-84988341D01*
X128474998Y-84873484D01*
X128527897Y-84700459D01*
X128469803Y-84591200D01*
X127310284Y-84236699D01*
X127304436Y-84255826D01*
X127208806Y-84226588D01*
X127214653Y-84207462D01*
X126997489Y-84141068D01*
X127339521Y-84141068D01*
X128499040Y-84495569D01*
X128608300Y-84437475D01*
X128704206Y-84123780D01*
X128724363Y-84057849D01*
X128731270Y-83989252D01*
X128724662Y-83920625D01*
X128704793Y-83854606D01*
X128672426Y-83793732D01*
X128628804Y-83740343D01*
X128575605Y-83696488D01*
X128514873Y-83663856D01*
X127657095Y-83401607D01*
X127547836Y-83459701D01*
X127339521Y-84141068D01*
X126997489Y-84141068D01*
X126055134Y-83852961D01*
X125945874Y-83911055D01*
X125849968Y-84224750D01*
X125829811Y-84290681D01*
X125822904Y-84359278D01*
X125829512Y-84427905D01*
X125849381Y-84493924D01*
X125869334Y-84531450D01*
X125383543Y-84510155D01*
X125379488Y-84510374D01*
X125375453Y-84509882D01*
X125369868Y-84509789D01*
X124776466Y-84504088D01*
X124772540Y-84504435D01*
X124768619Y-84504090D01*
X124763035Y-84504185D01*
X124168658Y-84518437D01*
X124164863Y-84518901D01*
X124161042Y-84518692D01*
X124155464Y-84518971D01*
X123560224Y-84552928D01*
X123556573Y-84553497D01*
X123552886Y-84553415D01*
X123547319Y-84553874D01*
X122951328Y-84607259D01*
X122947836Y-84607920D01*
X122944284Y-84607953D01*
X122938735Y-84608588D01*
X122342109Y-84681130D01*
X122338780Y-84681870D01*
X122335378Y-84682007D01*
X122329852Y-84682813D01*
X121732701Y-84774239D01*
X121729545Y-84775044D01*
X121726294Y-84775273D01*
X121720795Y-84776247D01*
X121123233Y-84886289D01*
X121120253Y-84887145D01*
X121117162Y-84887455D01*
X121111693Y-84888590D01*
X120513838Y-85016975D01*
X120511033Y-85017871D01*
X120508109Y-85018249D01*
X120502675Y-85019539D01*
X119904635Y-85165993D01*
X119901998Y-85166920D01*
X119899248Y-85167353D01*
X119893852Y-85168794D01*
X119295741Y-85333050D01*
X119293286Y-85333990D01*
X119290699Y-85334470D01*
X119285344Y-85336057D01*
X118687275Y-85517839D01*
X118684992Y-85518785D01*
X118682571Y-85519300D01*
X118677260Y-85521027D01*
X118079347Y-85720067D01*
X118077229Y-85721010D01*
X118074977Y-85721550D01*
X118069711Y-85723412D01*
X117472069Y-85939439D01*
X117470118Y-85940369D01*
X117468029Y-85940924D01*
X117462811Y-85942916D01*
X116865550Y-86175656D01*
X116863758Y-86176565D01*
X116861827Y-86177128D01*
X116856658Y-86179244D01*
X116259893Y-86428427D01*
X116258253Y-86429309D01*
X116256480Y-86429871D01*
X116251362Y-86432106D01*
X115655204Y-86697460D01*
X115653709Y-86698309D01*
X115652087Y-86698864D01*
X115647020Y-86701214D01*
X115051588Y-86982468D01*
X115050239Y-86983275D01*
X115048760Y-86983817D01*
X115043746Y-86986277D01*
X114449145Y-87283158D01*
X114447926Y-87283923D01*
X114446589Y-87284446D01*
X114441627Y-87287012D01*
X113847978Y-87599251D01*
X113846889Y-87599967D01*
X113845684Y-87600467D01*
X113840777Y-87603133D01*
X113248187Y-87930460D01*
X113247218Y-87931126D01*
X113246143Y-87931597D01*
X113241289Y-87934360D01*
X112649875Y-88276498D01*
X112649022Y-88277110D01*
X112648065Y-88277551D01*
X112643266Y-88280407D01*
X112053142Y-88637090D01*
X112052394Y-88637649D01*
X112051558Y-88638053D01*
X112046812Y-88640997D01*
X111458088Y-89011953D01*
X111457443Y-89012453D01*
X111456719Y-89012820D01*
X111452027Y-89015849D01*
X110864815Y-89400802D01*
X110864265Y-89401245D01*
X110863644Y-89401573D01*
X110859005Y-89404684D01*
X110273425Y-89803366D01*
X110272965Y-89803750D01*
X110272443Y-89804037D01*
X110267857Y-89807226D01*
X109684016Y-90219366D01*
X109683640Y-90219691D01*
X109683211Y-90219936D01*
X109678679Y-90223200D01*
X109096691Y-90648526D01*
X109096394Y-90648791D01*
X109096052Y-90648994D01*
X109091572Y-90652330D01*
X108511555Y-91090573D01*
X108511333Y-91090777D01*
X108511075Y-91090936D01*
X108506648Y-91094341D01*
X107928707Y-91545225D01*
X107928553Y-91545371D01*
X107928371Y-91545487D01*
X107923995Y-91548958D01*
X107348251Y-92012212D01*
X107348160Y-92012301D01*
X107348052Y-92012372D01*
X107343728Y-92015906D01*
X106770289Y-92491264D01*
X106770258Y-92491295D01*
X106770220Y-92491321D01*
X106765946Y-92494917D01*
X106194928Y-92982100D01*
X106194925Y-92982103D01*
X106190752Y-92985713D01*
X105622435Y-93484311D01*
X105622430Y-93484314D01*
X105622366Y-93484371D01*
X105622269Y-93484456D01*
X105622263Y-93484463D01*
X105618256Y-93488025D01*
X105052417Y-93998054D01*
X105052402Y-93998071D01*
X105048556Y-94001580D01*
X104520616Y-94490107D01*
X103968727Y-93938218D01*
X103844983Y-93938218D01*
X101926956Y-95856245D01*
X101941098Y-95870387D01*
X101870387Y-95941098D01*
X101856245Y-95926956D01*
X101842103Y-95941098D01*
X101771392Y-95870387D01*
X101785534Y-95856245D01*
X100857457Y-94928167D01*
X100733713Y-94928167D01*
X99190414Y-96471466D01*
X97635977Y-94917029D01*
X97819292Y-94733713D01*
X100928167Y-94733713D01*
X100928167Y-94857457D01*
X101856245Y-95785534D01*
X103774272Y-93867507D01*
X103774272Y-93743763D01*
X103069306Y-93038798D01*
X103011982Y-93000495D01*
X102948286Y-92974111D01*
X102880667Y-92960660D01*
X102811722Y-92960660D01*
X102744103Y-92974111D01*
X102680407Y-93000495D01*
X102623083Y-93038798D01*
X102574332Y-93087549D01*
X100928167Y-94733713D01*
X97819292Y-94733713D01*
X99853005Y-92700000D01*
X105010131Y-92700000D01*
X105011254Y-92706121D01*
X105058179Y-92824641D01*
X105127232Y-92931790D01*
X105215781Y-93023485D01*
X105320454Y-93096235D01*
X105437264Y-93147268D01*
X105561762Y-93174640D01*
X105689206Y-93177310D01*
X105814741Y-93155175D01*
X105933585Y-93109078D01*
X106041213Y-93040775D01*
X106133525Y-92952868D01*
X106207003Y-92848706D01*
X106258851Y-92732255D01*
X106287092Y-92607951D01*
X106289125Y-92462354D01*
X106264365Y-92337310D01*
X106215790Y-92219457D01*
X106145248Y-92113283D01*
X106055427Y-92022833D01*
X105949749Y-91951552D01*
X105832237Y-91902155D01*
X105707369Y-91876523D01*
X105612980Y-91875864D01*
X105576693Y-91856407D01*
X105540281Y-91836389D01*
X105538027Y-91835674D01*
X105535940Y-91834555D01*
X105496150Y-91822390D01*
X105456567Y-91809834D01*
X105454218Y-91809571D01*
X105451953Y-91808878D01*
X105410583Y-91804676D01*
X105369290Y-91800044D01*
X105364663Y-91800012D01*
X105364578Y-91800003D01*
X105364499Y-91800010D01*
X105363007Y-91800000D01*
X100753005Y-91800000D01*
X101044269Y-91508736D01*
X101080537Y-91466181D01*
X101126682Y-91378634D01*
X101146610Y-91281698D01*
X101138743Y-91183047D01*
X101103705Y-91090494D01*
X101044269Y-91011366D01*
X99488634Y-89455731D01*
X99446079Y-89419463D01*
X99358532Y-89373318D01*
X99261596Y-89353390D01*
X99162945Y-89361257D01*
X99070392Y-89396295D01*
X98991264Y-89455731D01*
X95582972Y-92864024D01*
X94029732Y-91310784D01*
X97438024Y-87902491D01*
X97474292Y-87859936D01*
X97520437Y-87772389D01*
X97528068Y-87735270D01*
X97737655Y-87826836D01*
X98053688Y-87896321D01*
X98377199Y-87903098D01*
X98695865Y-87846908D01*
X98773008Y-87816986D01*
X101503725Y-87816986D01*
X101503725Y-87940730D01*
X101696038Y-88133043D01*
X101753362Y-88171346D01*
X101817059Y-88197730D01*
X101884678Y-88211180D01*
X101953622Y-88211180D01*
X102021241Y-88197730D01*
X102084938Y-88171346D01*
X102128048Y-88142540D01*
X102129995Y-88145132D01*
X102415076Y-88430213D01*
X102415076Y-89876361D01*
X102420485Y-89931531D01*
X102425315Y-89986732D01*
X102426195Y-89989761D01*
X102426503Y-89992902D01*
X102442534Y-90045999D01*
X102457985Y-90099182D01*
X102459435Y-90101980D01*
X102460348Y-90105003D01*
X102486365Y-90153934D01*
X102511873Y-90203145D01*
X102513843Y-90205613D01*
X102515323Y-90208396D01*
X102550324Y-90251311D01*
X102584930Y-90294661D01*
X102589260Y-90299052D01*
X102589334Y-90299142D01*
X102589418Y-90299211D01*
X102590812Y-90300625D01*
X103845821Y-91555634D01*
X103888644Y-91590809D01*
X103931105Y-91626438D01*
X103933869Y-91627957D01*
X103936308Y-91629961D01*
X103985167Y-91656159D01*
X104033720Y-91682851D01*
X104036727Y-91683805D01*
X104039508Y-91685296D01*
X104092498Y-91701497D01*
X104145338Y-91718259D01*
X104148475Y-91718611D01*
X104151491Y-91719533D01*
X104206628Y-91725134D01*
X104261708Y-91731312D01*
X104267870Y-91731355D01*
X104267991Y-91731367D01*
X104268104Y-91731356D01*
X104270085Y-91731370D01*
X105118630Y-91731370D01*
X105173800Y-91725961D01*
X105229001Y-91721131D01*
X105232030Y-91720251D01*
X105235171Y-91719943D01*
X105288268Y-91703912D01*
X105316815Y-91695618D01*
X105397503Y-91712206D01*
X105496154Y-91704339D01*
X105588707Y-91669301D01*
X105667835Y-91609865D01*
X105970593Y-91307107D01*
X107027833Y-91307107D01*
X107083003Y-91301698D01*
X107138204Y-91296868D01*
X107141233Y-91295988D01*
X107144374Y-91295680D01*
X107197471Y-91279649D01*
X107250654Y-91264198D01*
X107253452Y-91262748D01*
X107256475Y-91261835D01*
X107305406Y-91235818D01*
X107354617Y-91210310D01*
X107357085Y-91208340D01*
X107359868Y-91206860D01*
X107402783Y-91171859D01*
X107446133Y-91137253D01*
X107450524Y-91132923D01*
X107450614Y-91132849D01*
X107450683Y-91132765D01*
X107452097Y-91131371D01*
X108910887Y-89672581D01*
X109002116Y-89614685D01*
X109094428Y-89526778D01*
X109167906Y-89422616D01*
X109219754Y-89306165D01*
X109247995Y-89181861D01*
X109250028Y-89036264D01*
X109225268Y-88911220D01*
X109176693Y-88793367D01*
X109106151Y-88687193D01*
X109016330Y-88596743D01*
X108910652Y-88525462D01*
X108793140Y-88476065D01*
X108668272Y-88450433D01*
X108540804Y-88449543D01*
X108415590Y-88473429D01*
X108297401Y-88521181D01*
X108190737Y-88590979D01*
X108099662Y-88680166D01*
X108027645Y-88785345D01*
X107977428Y-88902509D01*
X107975680Y-88910732D01*
X107906007Y-88980405D01*
X107883043Y-88946038D01*
X107690730Y-88753725D01*
X107566986Y-88753725D01*
X106992462Y-89328249D01*
X107006604Y-89342391D01*
X106935893Y-89413102D01*
X106921751Y-89398960D01*
X106907609Y-89413102D01*
X106836898Y-89342391D01*
X106851040Y-89328249D01*
X106836898Y-89314107D01*
X106907609Y-89243396D01*
X106921751Y-89257538D01*
X107496275Y-88683014D01*
X107496275Y-88559270D01*
X107303962Y-88366957D01*
X107246638Y-88328654D01*
X107182941Y-88302270D01*
X107115322Y-88288820D01*
X107046378Y-88288820D01*
X106978759Y-88302270D01*
X106915062Y-88328654D01*
X106871952Y-88357460D01*
X106870005Y-88354868D01*
X106622518Y-88107381D01*
X106798096Y-87931803D01*
X106824466Y-87899700D01*
X106851199Y-87867840D01*
X106852339Y-87865767D01*
X106853841Y-87863938D01*
X106873491Y-87827291D01*
X106893509Y-87790879D01*
X106894224Y-87788625D01*
X106895343Y-87786538D01*
X106907508Y-87746748D01*
X106920064Y-87707165D01*
X106920327Y-87704816D01*
X106921020Y-87702551D01*
X106925222Y-87661181D01*
X106929854Y-87619888D01*
X106929886Y-87615261D01*
X106929895Y-87615176D01*
X106929888Y-87615097D01*
X106929898Y-87613605D01*
X106929898Y-87330744D01*
X106925845Y-87289405D01*
X106922219Y-87247966D01*
X106921559Y-87245694D01*
X106921328Y-87243339D01*
X106909316Y-87203554D01*
X106897717Y-87163628D01*
X106896628Y-87161527D01*
X106895944Y-87159262D01*
X106876414Y-87122532D01*
X106857299Y-87085656D01*
X106855825Y-87083810D01*
X106854713Y-87081718D01*
X106828403Y-87049459D01*
X106802507Y-87017020D01*
X106799261Y-87013728D01*
X106799205Y-87013659D01*
X106799142Y-87013607D01*
X106798096Y-87012546D01*
X105737454Y-85951904D01*
X105705351Y-85925534D01*
X105673491Y-85898801D01*
X105671418Y-85897661D01*
X105669589Y-85896159D01*
X105632942Y-85876509D01*
X105596530Y-85856491D01*
X105594276Y-85855776D01*
X105592189Y-85854657D01*
X105552399Y-85842492D01*
X105512816Y-85829936D01*
X105510467Y-85829673D01*
X105508202Y-85828980D01*
X105466832Y-85824778D01*
X105425539Y-85820146D01*
X105420912Y-85820114D01*
X105420827Y-85820105D01*
X105420748Y-85820112D01*
X105419256Y-85820102D01*
X105136395Y-85820102D01*
X105095056Y-85824155D01*
X105053617Y-85827781D01*
X105051345Y-85828441D01*
X105048990Y-85828672D01*
X105009191Y-85840688D01*
X104969280Y-85852283D01*
X104967180Y-85853372D01*
X104964913Y-85854056D01*
X104928144Y-85873607D01*
X104891308Y-85892701D01*
X104889464Y-85894173D01*
X104887369Y-85895287D01*
X104855119Y-85921590D01*
X104822671Y-85947492D01*
X104819377Y-85950740D01*
X104819310Y-85950795D01*
X104819259Y-85950857D01*
X104818197Y-85951904D01*
X104642619Y-86127482D01*
X104395132Y-85879995D01*
X104393384Y-85878505D01*
X104396133Y-85875280D01*
X104442278Y-85787733D01*
X104462206Y-85690797D01*
X104458183Y-85640345D01*
X105724264Y-84374264D01*
X105738492Y-84356943D01*
X105754706Y-84341462D01*
X105775573Y-84311799D01*
X105798591Y-84283777D01*
X105809183Y-84264022D01*
X105822082Y-84245687D01*
X105836791Y-84212534D01*
X105853926Y-84180578D01*
X105860479Y-84159145D01*
X105869572Y-84138650D01*
X105872150Y-84130679D01*
X105980986Y-83786030D01*
X106127290Y-84073167D01*
X106244977Y-84111406D01*
X106701618Y-83878736D01*
X106692538Y-83860916D01*
X106781639Y-83815517D01*
X106790719Y-83833337D01*
X106808539Y-83824257D01*
X106853938Y-83913358D01*
X106836118Y-83922438D01*
X106845198Y-83940258D01*
X106756097Y-83985657D01*
X106747017Y-83967837D01*
X106290376Y-84200507D01*
X106252137Y-84318194D01*
X106559956Y-84922322D01*
X106591256Y-84983751D01*
X106623751Y-85024971D01*
X106620612Y-85053534D01*
X106637647Y-85110588D01*
X107437647Y-86610588D01*
X107470202Y-86651983D01*
X107521632Y-86681988D01*
X107580684Y-86689619D01*
X107638052Y-86673674D01*
X109318105Y-85818374D01*
X109325065Y-85822201D01*
X109343776Y-85834936D01*
X109363456Y-85843306D01*
X109382200Y-85853611D01*
X109403775Y-85860455D01*
X109424595Y-85869310D01*
X109445526Y-85873699D01*
X109465914Y-85880166D01*
X109488398Y-85882688D01*
X109510551Y-85887333D01*
X109531939Y-85887572D01*
X109553191Y-85889956D01*
X109559474Y-85890000D01*
X112770000Y-85890000D01*
X112811339Y-85885947D01*
X112852778Y-85882321D01*
X112855050Y-85881661D01*
X112857405Y-85881430D01*
X112897204Y-85869414D01*
X112937115Y-85857819D01*
X112939215Y-85856730D01*
X112941482Y-85856046D01*
X112978251Y-85836495D01*
X113015087Y-85817401D01*
X113016931Y-85815929D01*
X113019026Y-85814815D01*
X113051276Y-85788512D01*
X113083724Y-85762610D01*
X113087018Y-85759362D01*
X113087085Y-85759307D01*
X113087136Y-85759245D01*
X113088198Y-85758198D01*
X114292125Y-84554271D01*
X114318495Y-84522168D01*
X114345228Y-84490308D01*
X114346368Y-84488235D01*
X114347870Y-84486406D01*
X114367520Y-84449759D01*
X114387538Y-84413347D01*
X114388253Y-84411093D01*
X114389372Y-84409006D01*
X114401537Y-84369216D01*
X114414093Y-84329633D01*
X114414356Y-84327284D01*
X114415049Y-84325019D01*
X114419251Y-84283649D01*
X114423883Y-84242356D01*
X114423915Y-84237729D01*
X114423924Y-84237644D01*
X114423917Y-84237565D01*
X114423927Y-84236073D01*
X114423927Y-83222469D01*
X114468896Y-83177500D01*
X120520000Y-83177500D01*
X120520000Y-83574472D01*
X120533450Y-83642091D01*
X120559834Y-83705787D01*
X120598137Y-83763112D01*
X120646888Y-83811863D01*
X120704213Y-83850166D01*
X120767909Y-83876550D01*
X120835528Y-83890000D01*
X121532500Y-83890000D01*
X121620000Y-83802500D01*
X121620000Y-83090000D01*
X120607500Y-83090000D01*
X120520000Y-83177500D01*
X114468896Y-83177500D01*
X115140868Y-82505528D01*
X120520000Y-82505528D01*
X120520000Y-82902500D01*
X120607500Y-82990000D01*
X121620000Y-82990000D01*
X121620000Y-82277500D01*
X121532500Y-82190000D01*
X120835528Y-82190000D01*
X120767909Y-82203450D01*
X120704213Y-82229834D01*
X120646888Y-82268137D01*
X120598137Y-82316888D01*
X120559834Y-82374213D01*
X120533450Y-82437909D01*
X120520000Y-82505528D01*
X115140868Y-82505528D01*
X116941258Y-80705138D01*
X116942156Y-80710030D01*
X116989081Y-80828550D01*
X117058134Y-80935699D01*
X117146683Y-81027394D01*
X117251356Y-81100144D01*
X117368166Y-81151177D01*
X117492664Y-81178549D01*
X117620108Y-81181219D01*
X117745643Y-81159084D01*
X117864487Y-81112987D01*
X117972115Y-81044684D01*
X118064427Y-80956777D01*
X118137905Y-80852615D01*
X118171608Y-80776918D01*
X118308526Y-80640000D01*
X120536459Y-80640000D01*
X120552027Y-80690271D01*
X120606480Y-80772906D01*
X120681800Y-80837100D01*
X120772021Y-80877769D01*
X120870000Y-80891693D01*
X121673165Y-80891693D01*
X122145736Y-81364264D01*
X122188559Y-81399439D01*
X122231020Y-81435068D01*
X122233784Y-81436587D01*
X122236223Y-81438591D01*
X122285101Y-81464799D01*
X122333635Y-81491481D01*
X122336640Y-81492434D01*
X122339422Y-81493926D01*
X122392440Y-81510135D01*
X122445253Y-81526889D01*
X122448388Y-81527241D01*
X122451405Y-81528163D01*
X122506504Y-81533759D01*
X122532614Y-81536688D01*
X122533753Y-81538416D01*
X122509834Y-81574213D01*
X122483450Y-81637909D01*
X122470000Y-81705528D01*
X122470000Y-82002500D01*
X122557500Y-82090000D01*
X123020000Y-82090000D01*
X123020000Y-82070000D01*
X123120000Y-82070000D01*
X123120000Y-82090000D01*
X123582500Y-82090000D01*
X123670000Y-82002500D01*
X123670000Y-81705528D01*
X123656550Y-81637909D01*
X123649692Y-81621352D01*
X123675958Y-81629684D01*
X123678307Y-81629947D01*
X123680572Y-81630640D01*
X123721942Y-81634842D01*
X123763235Y-81639474D01*
X123767862Y-81639506D01*
X123767947Y-81639515D01*
X123768026Y-81639508D01*
X123769518Y-81639518D01*
X124767589Y-81639518D01*
X124808928Y-81635465D01*
X124850367Y-81631839D01*
X124852639Y-81631179D01*
X124854994Y-81630948D01*
X124882575Y-81622621D01*
X124970882Y-81622621D01*
X125027968Y-81565535D01*
X125113922Y-81532995D01*
X125180719Y-81482821D01*
X125154387Y-81513718D01*
X125108242Y-81601265D01*
X125101664Y-81633261D01*
X123944925Y-82790000D01*
X123564975Y-82790000D01*
X123591863Y-82763112D01*
X123630166Y-82705787D01*
X123656550Y-82642091D01*
X123670000Y-82574472D01*
X123670000Y-82277500D01*
X123582500Y-82190000D01*
X123120000Y-82190000D01*
X123120000Y-82210000D01*
X123020000Y-82210000D01*
X123020000Y-82190000D01*
X122557500Y-82190000D01*
X122548702Y-82198798D01*
X122504472Y-82190000D01*
X121807500Y-82190000D01*
X121720000Y-82277500D01*
X121720000Y-82990000D01*
X121740000Y-82990000D01*
X121740000Y-83090000D01*
X121720000Y-83090000D01*
X121720000Y-83802500D01*
X121807500Y-83890000D01*
X122504472Y-83890000D01*
X122572091Y-83876550D01*
X122635787Y-83850166D01*
X122693112Y-83811863D01*
X122718008Y-83786967D01*
X122751357Y-83810145D01*
X122868167Y-83861178D01*
X122992665Y-83888550D01*
X123120109Y-83891220D01*
X123245644Y-83869085D01*
X123364488Y-83822988D01*
X123472116Y-83754685D01*
X123540042Y-83690000D01*
X124131321Y-83690000D01*
X124172660Y-83685947D01*
X124214099Y-83682321D01*
X124216371Y-83681661D01*
X124218726Y-83681430D01*
X124258532Y-83669412D01*
X124298436Y-83657819D01*
X124300536Y-83656730D01*
X124302803Y-83656046D01*
X124317801Y-83648071D01*
X126026277Y-83648071D01*
X126084371Y-83757330D01*
X127243890Y-84111831D01*
X127452205Y-83430464D01*
X127394111Y-83321205D01*
X126536332Y-83058956D01*
X126467736Y-83052048D01*
X126399109Y-83058656D01*
X126333090Y-83078525D01*
X126272216Y-83110893D01*
X126218826Y-83154514D01*
X126174972Y-83207713D01*
X126142340Y-83268445D01*
X126122183Y-83334377D01*
X126026277Y-83648071D01*
X124317801Y-83648071D01*
X124339572Y-83636495D01*
X124376408Y-83617401D01*
X124378252Y-83615929D01*
X124380347Y-83614815D01*
X124412597Y-83588512D01*
X124445045Y-83562610D01*
X124448339Y-83559362D01*
X124448406Y-83559307D01*
X124448457Y-83559245D01*
X124449519Y-83558198D01*
X125735077Y-82272640D01*
X125821029Y-82240101D01*
X125900157Y-82180665D01*
X126430483Y-81650339D01*
X126430487Y-81650336D01*
X126500000Y-81580823D01*
X126569513Y-81650336D01*
X126569518Y-81650340D01*
X127099843Y-82180665D01*
X127142398Y-82216933D01*
X127229945Y-82263078D01*
X127261939Y-82269655D01*
X127740446Y-82748162D01*
X127772549Y-82774532D01*
X127804409Y-82801265D01*
X127806482Y-82802405D01*
X127808311Y-82803907D01*
X127844958Y-82823557D01*
X127881370Y-82843575D01*
X127883624Y-82844290D01*
X127885711Y-82845409D01*
X127925501Y-82857574D01*
X127965084Y-82870130D01*
X127967433Y-82870393D01*
X127969698Y-82871086D01*
X128011068Y-82875288D01*
X128052361Y-82879920D01*
X128056988Y-82879952D01*
X128057073Y-82879961D01*
X128057152Y-82879954D01*
X128058644Y-82879964D01*
X128246154Y-82879964D01*
X128225374Y-82947932D01*
X128213329Y-83002532D01*
X128213686Y-83101495D01*
X128241600Y-83196441D01*
X128294859Y-83279851D01*
X128369248Y-83345121D01*
X128458875Y-83387083D01*
X129415180Y-83679455D01*
X129469780Y-83691500D01*
X129568743Y-83691143D01*
X129663689Y-83663229D01*
X129747099Y-83609970D01*
X129812369Y-83535581D01*
X129854331Y-83445954D01*
X130028219Y-82877195D01*
X132434939Y-83624108D01*
X132407933Y-83638467D01*
X132253552Y-84143423D01*
X132233395Y-84209354D01*
X132226488Y-84277951D01*
X132233096Y-84346578D01*
X132252965Y-84412596D01*
X132285332Y-84473471D01*
X132328954Y-84526860D01*
X132382153Y-84570714D01*
X132442885Y-84603347D01*
X132822511Y-84719410D01*
X132876783Y-84690553D01*
X133027400Y-84690553D01*
X133085495Y-84799812D01*
X133465121Y-84915875D01*
X133533718Y-84922783D01*
X133602344Y-84916175D01*
X133668363Y-84896306D01*
X133729237Y-84863938D01*
X133782627Y-84820317D01*
X133826481Y-84767118D01*
X133859113Y-84706386D01*
X133879270Y-84640455D01*
X134033651Y-84135499D01*
X133975557Y-84026240D01*
X133294190Y-83817925D01*
X133027400Y-84690553D01*
X132876783Y-84690553D01*
X132931770Y-84661316D01*
X133198559Y-83788688D01*
X133179432Y-83782840D01*
X133208670Y-83687210D01*
X133227796Y-83693057D01*
X133233644Y-83673930D01*
X133329274Y-83703168D01*
X133323427Y-83722294D01*
X134004794Y-83930609D01*
X134114053Y-83872515D01*
X134206466Y-83570248D01*
X135491302Y-84855084D01*
X135335235Y-85011150D01*
X135298967Y-85053705D01*
X135252822Y-85141252D01*
X135232894Y-85238188D01*
X135240761Y-85336839D01*
X135275799Y-85429392D01*
X135335235Y-85508520D01*
X136537317Y-86710602D01*
X136579872Y-86746870D01*
X136667419Y-86793015D01*
X136764355Y-86812943D01*
X136863006Y-86805076D01*
X136955559Y-86770038D01*
X137034687Y-86710602D01*
X137458951Y-86286338D01*
X137495219Y-86243783D01*
X137541364Y-86156236D01*
X137561292Y-86059300D01*
X137553425Y-85960649D01*
X137529589Y-85897686D01*
X137551303Y-85909131D01*
X137648239Y-85929059D01*
X137746890Y-85921192D01*
X137839443Y-85886154D01*
X137918571Y-85826718D01*
X138342835Y-85402454D01*
X138379103Y-85359899D01*
X138425248Y-85272352D01*
X138445176Y-85175416D01*
X138437309Y-85076765D01*
X138413474Y-85013804D01*
X138435186Y-85025248D01*
X138482303Y-85034934D01*
X138497631Y-85047796D01*
X138500395Y-85049315D01*
X138502834Y-85051319D01*
X138551712Y-85077527D01*
X138600246Y-85104209D01*
X138603251Y-85105162D01*
X138606033Y-85106654D01*
X138659051Y-85122863D01*
X138711864Y-85139617D01*
X138714999Y-85139969D01*
X138718016Y-85140891D01*
X138773115Y-85146487D01*
X138828234Y-85152670D01*
X138834406Y-85152713D01*
X138834517Y-85152724D01*
X138834620Y-85152714D01*
X138836611Y-85152728D01*
X138857272Y-85152728D01*
X138912442Y-85147319D01*
X138967643Y-85142489D01*
X138970672Y-85141609D01*
X138973813Y-85141301D01*
X138978122Y-85140000D01*
X139770000Y-85140000D01*
X139825170Y-85134591D01*
X139880371Y-85129761D01*
X139883400Y-85128881D01*
X139886541Y-85128573D01*
X139939638Y-85112542D01*
X139992821Y-85097091D01*
X139995619Y-85095641D01*
X139998642Y-85094728D01*
X140047573Y-85068711D01*
X140096784Y-85043203D01*
X140099252Y-85041233D01*
X140102035Y-85039753D01*
X140144950Y-85004752D01*
X140188300Y-84970146D01*
X140192691Y-84965816D01*
X140192781Y-84965742D01*
X140192850Y-84965658D01*
X140194264Y-84964264D01*
X140717197Y-84441331D01*
X140764488Y-84422988D01*
X140872116Y-84354685D01*
X140964428Y-84266778D01*
X141037906Y-84162616D01*
X141089754Y-84046165D01*
X141117995Y-83921861D01*
X141120028Y-83776264D01*
X141095268Y-83651220D01*
X141046693Y-83533367D01*
X140976151Y-83427193D01*
X140886330Y-83336743D01*
X140780652Y-83265462D01*
X140663140Y-83216065D01*
X140538272Y-83190433D01*
X140410804Y-83189543D01*
X140285590Y-83213429D01*
X140185948Y-83253688D01*
X140172083Y-83220214D01*
X140133780Y-83162890D01*
X140127965Y-83157075D01*
X140908452Y-83157075D01*
X140908452Y-83226019D01*
X140921903Y-83293639D01*
X140948286Y-83357335D01*
X140986590Y-83414659D01*
X141035340Y-83463410D01*
X141868332Y-84296402D01*
X141992076Y-84296402D01*
X142495889Y-83792588D01*
X141391035Y-82687734D01*
X141267291Y-82687734D01*
X140986590Y-82968435D01*
X140948286Y-83025760D01*
X140921903Y-83089456D01*
X140908452Y-83157075D01*
X140127965Y-83157075D01*
X139605591Y-82634701D01*
X139481847Y-82634701D01*
X139119455Y-82997093D01*
X139133597Y-83011235D01*
X139062886Y-83081946D01*
X139048744Y-83067804D01*
X139034602Y-83081946D01*
X138963891Y-83011235D01*
X138978033Y-82997093D01*
X138226732Y-82245792D01*
X138102989Y-82245792D01*
X137963708Y-82385072D01*
X137925405Y-82442397D01*
X137899022Y-82506093D01*
X137885571Y-82573712D01*
X137885571Y-82642656D01*
X137899022Y-82710276D01*
X137914280Y-82747114D01*
X137894534Y-82736706D01*
X137797598Y-82716778D01*
X137698947Y-82724645D01*
X137606394Y-82759683D01*
X137527266Y-82819119D01*
X137103002Y-83243383D01*
X137066734Y-83285938D01*
X137020589Y-83373485D01*
X137000661Y-83470421D01*
X137008528Y-83569072D01*
X137032363Y-83632033D01*
X137010651Y-83620589D01*
X136913715Y-83600661D01*
X136815064Y-83608528D01*
X136775876Y-83623363D01*
X135203851Y-82051338D01*
X138297443Y-82051338D01*
X138297443Y-82175081D01*
X139048744Y-82926382D01*
X139411136Y-82563990D01*
X139411136Y-82493279D01*
X141461746Y-82493279D01*
X141461746Y-82617023D01*
X142566600Y-83721877D01*
X143070414Y-83218064D01*
X143070414Y-83094320D01*
X142237422Y-82261328D01*
X142188671Y-82212578D01*
X142131347Y-82174274D01*
X142067651Y-82147891D01*
X142000031Y-82134440D01*
X141931087Y-82134440D01*
X141863468Y-82147891D01*
X141799772Y-82174274D01*
X141742447Y-82212578D01*
X141461746Y-82493279D01*
X139411136Y-82493279D01*
X139411136Y-82440246D01*
X138882947Y-81912057D01*
X138825623Y-81873754D01*
X138761927Y-81847371D01*
X138694307Y-81833920D01*
X138625363Y-81833920D01*
X138557744Y-81847371D01*
X138494048Y-81873754D01*
X138436723Y-81912057D01*
X138297443Y-82051338D01*
X135203851Y-82051338D01*
X134102502Y-80949989D01*
X138027397Y-80949989D01*
X138068736Y-80945936D01*
X138110175Y-80942310D01*
X138112447Y-80941650D01*
X138114802Y-80941419D01*
X138154601Y-80929403D01*
X138194512Y-80917808D01*
X138196612Y-80916719D01*
X138198879Y-80916035D01*
X138224041Y-80902656D01*
X138386150Y-81064765D01*
X138428705Y-81101033D01*
X138516252Y-81147178D01*
X138613188Y-81167106D01*
X138711839Y-81159239D01*
X138804392Y-81124201D01*
X138883520Y-81064765D01*
X139565308Y-80382977D01*
X141436746Y-80382977D01*
X141436746Y-80506721D01*
X141717447Y-80787422D01*
X141774772Y-80825726D01*
X141838468Y-80852109D01*
X141906087Y-80865560D01*
X141975031Y-80865560D01*
X142042651Y-80852109D01*
X142106347Y-80825726D01*
X142163671Y-80787422D01*
X142212422Y-80738672D01*
X143045414Y-79905680D01*
X143045414Y-79781936D01*
X142541600Y-79278123D01*
X141436746Y-80382977D01*
X139565308Y-80382977D01*
X140014885Y-79933400D01*
X140076684Y-79997395D01*
X140181357Y-80070145D01*
X140298167Y-80121178D01*
X140422665Y-80148550D01*
X140550109Y-80151220D01*
X140675644Y-80129085D01*
X140794488Y-80082988D01*
X140902116Y-80014685D01*
X140931570Y-79986637D01*
X140961590Y-80031565D01*
X141242291Y-80312266D01*
X141366035Y-80312266D01*
X142470889Y-79207412D01*
X141967076Y-78703598D01*
X141843332Y-78703598D01*
X141143522Y-79403408D01*
X141125268Y-79311220D01*
X141100000Y-79249915D01*
X141100000Y-78550000D01*
X141094591Y-78494830D01*
X141089761Y-78439629D01*
X141088881Y-78436600D01*
X141088573Y-78433459D01*
X141072542Y-78380362D01*
X141057091Y-78327179D01*
X141055641Y-78324381D01*
X141054728Y-78321358D01*
X141028690Y-78272388D01*
X141003202Y-78223216D01*
X141001235Y-78220751D01*
X140999753Y-78217965D01*
X140964730Y-78175022D01*
X140930146Y-78131700D01*
X140925816Y-78127309D01*
X140925742Y-78127219D01*
X140925658Y-78127150D01*
X140924264Y-78125736D01*
X137901092Y-75102564D01*
X137876693Y-75043367D01*
X137806151Y-74937193D01*
X137716330Y-74846743D01*
X137610652Y-74775462D01*
X137493140Y-74726065D01*
X137479753Y-74723317D01*
X137671402Y-74531668D01*
X137671402Y-74407924D01*
X137167588Y-73904111D01*
X136062734Y-75008965D01*
X136062734Y-75132709D01*
X136343435Y-75413410D01*
X136400760Y-75451714D01*
X136464456Y-75478097D01*
X136532075Y-75491548D01*
X136601019Y-75491548D01*
X136662837Y-75479251D01*
X136672157Y-75530031D01*
X136719082Y-75648551D01*
X136788135Y-75755700D01*
X136876684Y-75847395D01*
X136981357Y-75920145D01*
X137052853Y-75951381D01*
X137872031Y-76770559D01*
X137561283Y-77081306D01*
X137506190Y-77102163D01*
X137521815Y-77064439D01*
X137535266Y-76996819D01*
X137535266Y-76927875D01*
X137521815Y-76860256D01*
X137495432Y-76796560D01*
X137457129Y-76739235D01*
X137317848Y-76599955D01*
X137194105Y-76599955D01*
X136442804Y-77351256D01*
X136456946Y-77365398D01*
X136386235Y-77436109D01*
X136372093Y-77421967D01*
X135620792Y-78173268D01*
X135620792Y-78297011D01*
X135760072Y-78436292D01*
X135817397Y-78474595D01*
X135881093Y-78500978D01*
X135948712Y-78514429D01*
X136017656Y-78514429D01*
X136085276Y-78500978D01*
X136122114Y-78485720D01*
X136111706Y-78505466D01*
X136091778Y-78602402D01*
X136099645Y-78701053D01*
X136134683Y-78793606D01*
X136194119Y-78872734D01*
X136618383Y-79296998D01*
X136660938Y-79333266D01*
X136748485Y-79379411D01*
X136845421Y-79399339D01*
X136944072Y-79391472D01*
X137007033Y-79367637D01*
X136995589Y-79389349D01*
X136975661Y-79486285D01*
X136983528Y-79584936D01*
X137005229Y-79642258D01*
X136997509Y-79649978D01*
X132901701Y-79649978D01*
X132908251Y-79646495D01*
X132945087Y-79627401D01*
X132946931Y-79625929D01*
X132949026Y-79624815D01*
X132981276Y-79598512D01*
X133013724Y-79572610D01*
X133017018Y-79569362D01*
X133017085Y-79569307D01*
X133017136Y-79569245D01*
X133018198Y-79568198D01*
X134880703Y-77705693D01*
X135208920Y-77705693D01*
X135208920Y-77774637D01*
X135222371Y-77842256D01*
X135248754Y-77905952D01*
X135287057Y-77963277D01*
X135426338Y-78102557D01*
X135550081Y-78102557D01*
X136301382Y-77351256D01*
X135938990Y-76988864D01*
X135815246Y-76988864D01*
X135287057Y-77517053D01*
X135248754Y-77574377D01*
X135222371Y-77638073D01*
X135208920Y-77705693D01*
X134880703Y-77705693D01*
X134968199Y-77618197D01*
X134994569Y-77586094D01*
X135021302Y-77554234D01*
X135022442Y-77552161D01*
X135023944Y-77550332D01*
X135043594Y-77513685D01*
X135063612Y-77477273D01*
X135064327Y-77475019D01*
X135065446Y-77472932D01*
X135077611Y-77433142D01*
X135090167Y-77393559D01*
X135090430Y-77391210D01*
X135091123Y-77388945D01*
X135095325Y-77347575D01*
X135099957Y-77306282D01*
X135099989Y-77301655D01*
X135099998Y-77301570D01*
X135099991Y-77301491D01*
X135100001Y-77299999D01*
X135100001Y-76794409D01*
X136009701Y-76794409D01*
X136009701Y-76918153D01*
X136372093Y-77280545D01*
X137123394Y-76529244D01*
X137123394Y-76405501D01*
X136984114Y-76266220D01*
X136926789Y-76227917D01*
X136863093Y-76201534D01*
X136795474Y-76188083D01*
X136726530Y-76188083D01*
X136658910Y-76201534D01*
X136595214Y-76227917D01*
X136537890Y-76266220D01*
X136009701Y-76794409D01*
X135100001Y-76794409D01*
X135100001Y-74966027D01*
X135102116Y-74964685D01*
X135194428Y-74876778D01*
X135267906Y-74772616D01*
X135319754Y-74656165D01*
X135347995Y-74531861D01*
X135349836Y-74399969D01*
X135509440Y-74399969D01*
X135509440Y-74468913D01*
X135522891Y-74536532D01*
X135549274Y-74600228D01*
X135587578Y-74657553D01*
X135868279Y-74938254D01*
X135992023Y-74938254D01*
X137096877Y-73833400D01*
X136593064Y-73329586D01*
X136469320Y-73329586D01*
X135636328Y-74162578D01*
X135587578Y-74211329D01*
X135549274Y-74268653D01*
X135522891Y-74332349D01*
X135509440Y-74399969D01*
X135349836Y-74399969D01*
X135350028Y-74386264D01*
X135325268Y-74261220D01*
X135276693Y-74143367D01*
X135206151Y-74037193D01*
X135116330Y-73946743D01*
X135010652Y-73875462D01*
X134893140Y-73826065D01*
X134768272Y-73800433D01*
X134640804Y-73799543D01*
X134515590Y-73823429D01*
X134397401Y-73871181D01*
X134290737Y-73940979D01*
X134199662Y-74030166D01*
X134127645Y-74135345D01*
X134077428Y-74252509D01*
X134050925Y-74377195D01*
X134049146Y-74504654D01*
X134072157Y-74630031D01*
X134119082Y-74748551D01*
X134188135Y-74855700D01*
X134200001Y-74867988D01*
X134200001Y-75148307D01*
X133750000Y-75148307D01*
X133694264Y-75152752D01*
X133599729Y-75182027D01*
X133517094Y-75236480D01*
X133452900Y-75311800D01*
X133412231Y-75402021D01*
X133398307Y-75500000D01*
X133398307Y-76700000D01*
X133402752Y-76755736D01*
X133432027Y-76850271D01*
X133444462Y-76869142D01*
X132634783Y-77678821D01*
X132597979Y-77662231D01*
X132500000Y-77648307D01*
X131700000Y-77648307D01*
X131644264Y-77652752D01*
X131549729Y-77682027D01*
X131501217Y-77713994D01*
X131488200Y-77702900D01*
X131397979Y-77662231D01*
X131300000Y-77648307D01*
X130500000Y-77648307D01*
X130444264Y-77652752D01*
X130409221Y-77663604D01*
X130022792Y-77663604D01*
X130586508Y-77099888D01*
X130650109Y-77101220D01*
X130775644Y-77079085D01*
X130894488Y-77032988D01*
X131002116Y-76964685D01*
X131094428Y-76876778D01*
X131167906Y-76772616D01*
X131219754Y-76656165D01*
X131247995Y-76531861D01*
X131250028Y-76386264D01*
X131225268Y-76261220D01*
X131215492Y-76237500D01*
X131500000Y-76237500D01*
X131500000Y-76734472D01*
X131513450Y-76802091D01*
X131539834Y-76865787D01*
X131578137Y-76923112D01*
X131626888Y-76971863D01*
X131684213Y-77010166D01*
X131747909Y-77036550D01*
X131815528Y-77050000D01*
X132012500Y-77050000D01*
X132100000Y-76962500D01*
X132100000Y-76150000D01*
X132200000Y-76150000D01*
X132200000Y-76962500D01*
X132287500Y-77050000D01*
X132484472Y-77050000D01*
X132552091Y-77036550D01*
X132615787Y-77010166D01*
X132673112Y-76971863D01*
X132721863Y-76923112D01*
X132760166Y-76865787D01*
X132786550Y-76802091D01*
X132800000Y-76734472D01*
X132800000Y-76237500D01*
X132712500Y-76150000D01*
X132200000Y-76150000D01*
X132100000Y-76150000D01*
X131587500Y-76150000D01*
X131500000Y-76237500D01*
X131215492Y-76237500D01*
X131176693Y-76143367D01*
X131106151Y-76037193D01*
X131016330Y-75946743D01*
X130910652Y-75875462D01*
X130811672Y-75833855D01*
X130524264Y-75546447D01*
X130510122Y-75560589D01*
X130439411Y-75489878D01*
X130453553Y-75475736D01*
X130594975Y-75475736D01*
X130922012Y-75802773D01*
X131045755Y-75802773D01*
X131255746Y-75592782D01*
X131294049Y-75535458D01*
X131320433Y-75471761D01*
X131321672Y-75465528D01*
X131500000Y-75465528D01*
X131500000Y-75962500D01*
X131587500Y-76050000D01*
X132100000Y-76050000D01*
X132100000Y-75237500D01*
X132200000Y-75237500D01*
X132200000Y-76050000D01*
X132712500Y-76050000D01*
X132800000Y-75962500D01*
X132800000Y-75465528D01*
X132786550Y-75397909D01*
X132760166Y-75334213D01*
X132721863Y-75276888D01*
X132673112Y-75228137D01*
X132615787Y-75189834D01*
X132552091Y-75163450D01*
X132484472Y-75150000D01*
X132287500Y-75150000D01*
X132200000Y-75237500D01*
X132100000Y-75237500D01*
X132012500Y-75150000D01*
X131815528Y-75150000D01*
X131747909Y-75163450D01*
X131684213Y-75189834D01*
X131626888Y-75228137D01*
X131578137Y-75276888D01*
X131539834Y-75334213D01*
X131513450Y-75397909D01*
X131500000Y-75465528D01*
X131321672Y-75465528D01*
X131333884Y-75404142D01*
X131333884Y-75335198D01*
X131320433Y-75267579D01*
X131294049Y-75203882D01*
X131255746Y-75146558D01*
X131151821Y-75042633D01*
X131028078Y-75042633D01*
X130594975Y-75475736D01*
X130453553Y-75475736D01*
X129824264Y-74846447D01*
X129810122Y-74860589D01*
X129739411Y-74789878D01*
X129753553Y-74775736D01*
X129894975Y-74775736D01*
X130524264Y-75405025D01*
X130957367Y-74971922D01*
X130957367Y-74848179D01*
X130853442Y-74744254D01*
X130796118Y-74705951D01*
X130732421Y-74679567D01*
X130664802Y-74666116D01*
X130633884Y-74666116D01*
X130633884Y-74635198D01*
X130620433Y-74567579D01*
X130594049Y-74503882D01*
X130555746Y-74446558D01*
X130451821Y-74342633D01*
X130328078Y-74342633D01*
X129894975Y-74775736D01*
X129753553Y-74775736D01*
X129426516Y-74448699D01*
X129302773Y-74448699D01*
X129092782Y-74658690D01*
X129054479Y-74716014D01*
X129028095Y-74779711D01*
X129020027Y-74820272D01*
X129004798Y-74821486D01*
X128912245Y-74856524D01*
X128833117Y-74915960D01*
X128587138Y-75161939D01*
X128548871Y-75158052D01*
X128507578Y-75153420D01*
X128502951Y-75153388D01*
X128502866Y-75153379D01*
X128502787Y-75153386D01*
X128501295Y-75153376D01*
X128120388Y-75153376D01*
X128147995Y-75031861D01*
X128150028Y-74886264D01*
X128125268Y-74761220D01*
X128076693Y-74643367D01*
X128006151Y-74537193D01*
X127950000Y-74480649D01*
X127950000Y-74450000D01*
X127945942Y-74408611D01*
X127942320Y-74367222D01*
X127941661Y-74364955D01*
X127941430Y-74362595D01*
X127929392Y-74322722D01*
X127917818Y-74282884D01*
X127916731Y-74280787D01*
X127916046Y-74278518D01*
X127903140Y-74254245D01*
X129497227Y-74254245D01*
X129497227Y-74377988D01*
X129824264Y-74705025D01*
X130257367Y-74271922D01*
X130257367Y-74148179D01*
X130153442Y-74044254D01*
X130096118Y-74005951D01*
X130092987Y-74004654D01*
X131049146Y-74004654D01*
X131072157Y-74130031D01*
X131119082Y-74248551D01*
X131188135Y-74355700D01*
X131276684Y-74447395D01*
X131381357Y-74520145D01*
X131498167Y-74571178D01*
X131622665Y-74598550D01*
X131750109Y-74601220D01*
X131875644Y-74579085D01*
X131994488Y-74532988D01*
X132102116Y-74464685D01*
X132194428Y-74376778D01*
X132267906Y-74272616D01*
X132277975Y-74250000D01*
X132448307Y-74250000D01*
X132448307Y-74400000D01*
X132452752Y-74455736D01*
X132482027Y-74550271D01*
X132536480Y-74632906D01*
X132611800Y-74697100D01*
X132702021Y-74737769D01*
X132800000Y-74751693D01*
X133400000Y-74751693D01*
X133455736Y-74747248D01*
X133550271Y-74717973D01*
X133632906Y-74663520D01*
X133697100Y-74588200D01*
X133737769Y-74497979D01*
X133751693Y-74400000D01*
X133751693Y-73200000D01*
X133747248Y-73144264D01*
X133717973Y-73049729D01*
X133663520Y-72967094D01*
X133603393Y-72915849D01*
X133652021Y-72937769D01*
X133750000Y-72951693D01*
X134350000Y-72951693D01*
X134405736Y-72947248D01*
X134500271Y-72917973D01*
X134582906Y-72863520D01*
X134647100Y-72788200D01*
X134687769Y-72697979D01*
X134701693Y-72600000D01*
X134701693Y-71984703D01*
X135018198Y-71668198D01*
X135044568Y-71636095D01*
X135071301Y-71604235D01*
X135072441Y-71602162D01*
X135073943Y-71600333D01*
X135093593Y-71563686D01*
X135113611Y-71527274D01*
X135114326Y-71525020D01*
X135115445Y-71522933D01*
X135127610Y-71483143D01*
X135140166Y-71443560D01*
X135140429Y-71441211D01*
X135141122Y-71438946D01*
X135145324Y-71397576D01*
X135149956Y-71356283D01*
X135149988Y-71351656D01*
X135149997Y-71351571D01*
X135149990Y-71351492D01*
X135150000Y-71350000D01*
X135150000Y-71119086D01*
X135194428Y-71076778D01*
X135267906Y-70972616D01*
X135319754Y-70856165D01*
X135347995Y-70731861D01*
X135350028Y-70586264D01*
X135325268Y-70461220D01*
X135276693Y-70343367D01*
X135206151Y-70237193D01*
X135116330Y-70146743D01*
X135010652Y-70075462D01*
X134893140Y-70026065D01*
X134768272Y-70000433D01*
X134640804Y-69999543D01*
X134515590Y-70023429D01*
X134397401Y-70071181D01*
X134290737Y-70140979D01*
X134199662Y-70230166D01*
X134127645Y-70335345D01*
X134077428Y-70452509D01*
X134050925Y-70577195D01*
X134049146Y-70704654D01*
X134072157Y-70830031D01*
X134119082Y-70948551D01*
X134183371Y-71048307D01*
X133750000Y-71048307D01*
X133694264Y-71052752D01*
X133599729Y-71082027D01*
X133517094Y-71136480D01*
X133452900Y-71211800D01*
X133412231Y-71302021D01*
X133398307Y-71400000D01*
X133398307Y-72600000D01*
X133402752Y-72655736D01*
X133432027Y-72750271D01*
X133486480Y-72832906D01*
X133546607Y-72884151D01*
X133497979Y-72862231D01*
X133400000Y-72848307D01*
X132800000Y-72848307D01*
X132744264Y-72852752D01*
X132664959Y-72877311D01*
X132673112Y-72871863D01*
X132721863Y-72823112D01*
X132760166Y-72765787D01*
X132786550Y-72702091D01*
X132800000Y-72634472D01*
X132800000Y-72137500D01*
X132712500Y-72050000D01*
X132200000Y-72050000D01*
X132200000Y-72862500D01*
X132287500Y-72950000D01*
X132484472Y-72950000D01*
X132552091Y-72936550D01*
X132592200Y-72919936D01*
X132567094Y-72936480D01*
X132502900Y-73011800D01*
X132462231Y-73102021D01*
X132448307Y-73200000D01*
X132448307Y-73350000D01*
X131950080Y-73350000D01*
X131893140Y-73326065D01*
X131768272Y-73300433D01*
X131640804Y-73299543D01*
X131515590Y-73323429D01*
X131397401Y-73371181D01*
X131290737Y-73440979D01*
X131199662Y-73530166D01*
X131127645Y-73635345D01*
X131077428Y-73752509D01*
X131050925Y-73877195D01*
X131049146Y-74004654D01*
X130092987Y-74004654D01*
X130032421Y-73979567D01*
X129964802Y-73966116D01*
X129895858Y-73966116D01*
X129828239Y-73979567D01*
X129764542Y-74005951D01*
X129707218Y-74044254D01*
X129497227Y-74254245D01*
X127903140Y-74254245D01*
X127896497Y-74241752D01*
X127877401Y-74204912D01*
X127875927Y-74203066D01*
X127874815Y-74200974D01*
X127851693Y-74172624D01*
X127851693Y-73800000D01*
X127847248Y-73744264D01*
X127817973Y-73649729D01*
X127763520Y-73567094D01*
X127688200Y-73502900D01*
X127597979Y-73462231D01*
X127500000Y-73448307D01*
X126700000Y-73448307D01*
X126644264Y-73452752D01*
X126549729Y-73482027D01*
X126501217Y-73513994D01*
X126488200Y-73502900D01*
X126397979Y-73462231D01*
X126300000Y-73448307D01*
X125500000Y-73448307D01*
X125444264Y-73452752D01*
X125364003Y-73477607D01*
X125299790Y-73413394D01*
X125301693Y-73400000D01*
X125301693Y-72800000D01*
X125297248Y-72744264D01*
X125267973Y-72649729D01*
X125213520Y-72567094D01*
X125138200Y-72502900D01*
X125047979Y-72462231D01*
X124950000Y-72448307D01*
X123750000Y-72448307D01*
X123694264Y-72452752D01*
X123599729Y-72482027D01*
X123517094Y-72536480D01*
X123452900Y-72611800D01*
X123412231Y-72702021D01*
X123398307Y-72800000D01*
X123398307Y-73400000D01*
X123402752Y-73455736D01*
X123432027Y-73550271D01*
X123486480Y-73632906D01*
X123561800Y-73697100D01*
X123652021Y-73737769D01*
X123750000Y-73751693D01*
X124365297Y-73751693D01*
X124963604Y-74350000D01*
X124487500Y-74350000D01*
X124400000Y-74437500D01*
X124400000Y-74950000D01*
X125212500Y-74950000D01*
X125300000Y-74862500D01*
X125300000Y-74665528D01*
X125286550Y-74597909D01*
X125272254Y-74563396D01*
X125311800Y-74597100D01*
X125402021Y-74637769D01*
X125500000Y-74651693D01*
X126300000Y-74651693D01*
X126355736Y-74647248D01*
X126450271Y-74617973D01*
X126498783Y-74586006D01*
X126511800Y-74597100D01*
X126602021Y-74637769D01*
X126700000Y-74651693D01*
X126920638Y-74651693D01*
X126877428Y-74752509D01*
X126850925Y-74877195D01*
X126849146Y-75004654D01*
X126872157Y-75130031D01*
X126919082Y-75248551D01*
X126988135Y-75355700D01*
X127025149Y-75394029D01*
X126569517Y-75849661D01*
X126569513Y-75849664D01*
X126500000Y-75919177D01*
X126430487Y-75849664D01*
X126430482Y-75849660D01*
X125900157Y-75319335D01*
X125857602Y-75283067D01*
X125770055Y-75236922D01*
X125673119Y-75216994D01*
X125574468Y-75224861D01*
X125481915Y-75259899D01*
X125402787Y-75319335D01*
X125262875Y-75459247D01*
X125286550Y-75402091D01*
X125300000Y-75334472D01*
X125300000Y-75137500D01*
X125212500Y-75050000D01*
X124400000Y-75050000D01*
X124400000Y-75562500D01*
X124487500Y-75650000D01*
X124984472Y-75650000D01*
X125052091Y-75636550D01*
X125115787Y-75610166D01*
X125145964Y-75590003D01*
X125134911Y-75610973D01*
X125128362Y-75613452D01*
X125049234Y-75672888D01*
X124837102Y-75885020D01*
X124800834Y-75927575D01*
X124781358Y-75964525D01*
X124774808Y-75967005D01*
X124695680Y-76026441D01*
X124483548Y-76238573D01*
X124447280Y-76281128D01*
X124427803Y-76318080D01*
X124421255Y-76320559D01*
X124342127Y-76379995D01*
X124129995Y-76592127D01*
X124093727Y-76634682D01*
X124074251Y-76671632D01*
X124067701Y-76674112D01*
X123988573Y-76733548D01*
X123776441Y-76945680D01*
X123740173Y-76988235D01*
X123720696Y-77025187D01*
X123714148Y-77027666D01*
X123635020Y-77087102D01*
X123422888Y-77299234D01*
X123386620Y-77341789D01*
X123367144Y-77378740D01*
X123360595Y-77381219D01*
X123281467Y-77440655D01*
X123072122Y-77650000D01*
X118198528Y-77650000D01*
X120711028Y-75137500D01*
X123400000Y-75137500D01*
X123400000Y-75334472D01*
X123413450Y-75402091D01*
X123439834Y-75465787D01*
X123478137Y-75523112D01*
X123526888Y-75571863D01*
X123584213Y-75610166D01*
X123647909Y-75636550D01*
X123715528Y-75650000D01*
X124212500Y-75650000D01*
X124300000Y-75562500D01*
X124300000Y-75050000D01*
X123487500Y-75050000D01*
X123400000Y-75137500D01*
X120711028Y-75137500D01*
X121229207Y-74619321D01*
X121261800Y-74647100D01*
X121352021Y-74687769D01*
X121450000Y-74701693D01*
X122650000Y-74701693D01*
X122705736Y-74697248D01*
X122800271Y-74667973D01*
X122803981Y-74665528D01*
X123400000Y-74665528D01*
X123400000Y-74862500D01*
X123487500Y-74950000D01*
X124300000Y-74950000D01*
X124300000Y-74437500D01*
X124212500Y-74350000D01*
X123715528Y-74350000D01*
X123647909Y-74363450D01*
X123584213Y-74389834D01*
X123526888Y-74428137D01*
X123478137Y-74476888D01*
X123439834Y-74534213D01*
X123413450Y-74597909D01*
X123400000Y-74665528D01*
X122803981Y-74665528D01*
X122882906Y-74613520D01*
X122947100Y-74538200D01*
X122987769Y-74447979D01*
X123001693Y-74350000D01*
X123001693Y-73750000D01*
X122997248Y-73694264D01*
X122967973Y-73599729D01*
X122913520Y-73517094D01*
X122838200Y-73452900D01*
X122747979Y-73412231D01*
X122650000Y-73398307D01*
X122500000Y-73398307D01*
X122500000Y-73150000D01*
X122495947Y-73108661D01*
X122492321Y-73067222D01*
X122491661Y-73064950D01*
X122491430Y-73062595D01*
X122479418Y-73022810D01*
X122467819Y-72982884D01*
X122466730Y-72980783D01*
X122466046Y-72978518D01*
X122446516Y-72941788D01*
X122427401Y-72904912D01*
X122425927Y-72903066D01*
X122424815Y-72900974D01*
X122398530Y-72868746D01*
X122372610Y-72836276D01*
X122369362Y-72832982D01*
X122369307Y-72832915D01*
X122369245Y-72832864D01*
X122368198Y-72831802D01*
X122201693Y-72665297D01*
X122201693Y-72300000D01*
X122197840Y-72251693D01*
X122650000Y-72251693D01*
X122705736Y-72247248D01*
X122800271Y-72217973D01*
X122882906Y-72163520D01*
X122947100Y-72088200D01*
X122987769Y-71997979D01*
X122994587Y-71950000D01*
X129063604Y-71950000D01*
X129350097Y-72236493D01*
X129349146Y-72304654D01*
X129372157Y-72430031D01*
X129419082Y-72548551D01*
X129488135Y-72655700D01*
X129576684Y-72747395D01*
X129681357Y-72820145D01*
X129798167Y-72871178D01*
X129922665Y-72898550D01*
X130050109Y-72901220D01*
X130175644Y-72879085D01*
X130294488Y-72832988D01*
X130402116Y-72764685D01*
X130494428Y-72676778D01*
X130567906Y-72572616D01*
X130619754Y-72456165D01*
X130647995Y-72331861D01*
X130649114Y-72251693D01*
X130950000Y-72251693D01*
X131005736Y-72247248D01*
X131100271Y-72217973D01*
X131182906Y-72163520D01*
X131205082Y-72137500D01*
X131500000Y-72137500D01*
X131500000Y-72634472D01*
X131513450Y-72702091D01*
X131539834Y-72765787D01*
X131578137Y-72823112D01*
X131626888Y-72871863D01*
X131684213Y-72910166D01*
X131747909Y-72936550D01*
X131815528Y-72950000D01*
X132012500Y-72950000D01*
X132100000Y-72862500D01*
X132100000Y-72050000D01*
X131587500Y-72050000D01*
X131500000Y-72137500D01*
X131205082Y-72137500D01*
X131247100Y-72088200D01*
X131287769Y-71997979D01*
X131301693Y-71900000D01*
X131301693Y-71534703D01*
X131507233Y-71329163D01*
X131500000Y-71365528D01*
X131500000Y-71862500D01*
X131587500Y-71950000D01*
X132100000Y-71950000D01*
X132100000Y-71137500D01*
X132200000Y-71137500D01*
X132200000Y-71950000D01*
X132712500Y-71950000D01*
X132800000Y-71862500D01*
X132800000Y-71365528D01*
X132786550Y-71297909D01*
X132760166Y-71234213D01*
X132721863Y-71176888D01*
X132673112Y-71128137D01*
X132615787Y-71089834D01*
X132552091Y-71063450D01*
X132484472Y-71050000D01*
X132287500Y-71050000D01*
X132200000Y-71137500D01*
X132100000Y-71137500D01*
X132012500Y-71050000D01*
X131815528Y-71050000D01*
X131779163Y-71057233D01*
X132459351Y-70377045D01*
X132482027Y-70450271D01*
X132536480Y-70532906D01*
X132611800Y-70597100D01*
X132702021Y-70637769D01*
X132800000Y-70651693D01*
X133400000Y-70651693D01*
X133455736Y-70647248D01*
X133550271Y-70617973D01*
X133632906Y-70563520D01*
X133697100Y-70488200D01*
X133737769Y-70397979D01*
X133751693Y-70300000D01*
X133751693Y-69100000D01*
X133747248Y-69044264D01*
X133717973Y-68949729D01*
X133663520Y-68867094D01*
X133588200Y-68802900D01*
X133497979Y-68762231D01*
X133400000Y-68748307D01*
X132800000Y-68748307D01*
X132744264Y-68752752D01*
X132649729Y-68782027D01*
X132567094Y-68836480D01*
X132502900Y-68911800D01*
X132462231Y-69002021D01*
X132448307Y-69100000D01*
X132448307Y-69254960D01*
X132417222Y-69257680D01*
X132414955Y-69258339D01*
X132412595Y-69258570D01*
X132372722Y-69270608D01*
X132332884Y-69282182D01*
X132330787Y-69283269D01*
X132328518Y-69283954D01*
X132291752Y-69303503D01*
X132254912Y-69322599D01*
X132253066Y-69324073D01*
X132250974Y-69325185D01*
X132218715Y-69351495D01*
X132186276Y-69377391D01*
X132182984Y-69380637D01*
X132182915Y-69380693D01*
X132182863Y-69380756D01*
X132181802Y-69381802D01*
X131301693Y-70261911D01*
X131301693Y-69900000D01*
X131297248Y-69844264D01*
X131267973Y-69749729D01*
X131213520Y-69667094D01*
X131138200Y-69602900D01*
X131047979Y-69562231D01*
X130950000Y-69548307D01*
X130450000Y-69548307D01*
X130394264Y-69552752D01*
X130299729Y-69582027D01*
X130223019Y-69632576D01*
X130188200Y-69602900D01*
X130097979Y-69562231D01*
X130000000Y-69548307D01*
X128400000Y-69548307D01*
X128346812Y-69552549D01*
X128348323Y-69444349D01*
X128400000Y-69451693D01*
X130000000Y-69451693D01*
X130055736Y-69447248D01*
X130150271Y-69417973D01*
X130232906Y-69363520D01*
X130297100Y-69288200D01*
X130337769Y-69197979D01*
X130351693Y-69100000D01*
X131549692Y-69100000D01*
X131598167Y-69121178D01*
X131722665Y-69148550D01*
X131850109Y-69151220D01*
X131975644Y-69129085D01*
X132094488Y-69082988D01*
X132202116Y-69014685D01*
X132294428Y-68926778D01*
X132367906Y-68822616D01*
X132419754Y-68706165D01*
X132447995Y-68581861D01*
X132450028Y-68436264D01*
X132425268Y-68311220D01*
X132376693Y-68193367D01*
X132306151Y-68087193D01*
X132216330Y-67996743D01*
X132110652Y-67925462D01*
X131993140Y-67876065D01*
X131868272Y-67850433D01*
X131740804Y-67849543D01*
X131615590Y-67873429D01*
X131549825Y-67900000D01*
X130351693Y-67900000D01*
X130347248Y-67844264D01*
X130317973Y-67749729D01*
X130263520Y-67667094D01*
X130188200Y-67602900D01*
X130097979Y-67562231D01*
X130000000Y-67548307D01*
X129496835Y-67548307D01*
X128824264Y-66875736D01*
X128781441Y-66840561D01*
X128738980Y-66804932D01*
X128736216Y-66803413D01*
X128733777Y-66801409D01*
X128684899Y-66775201D01*
X128636365Y-66748519D01*
X128633360Y-66747566D01*
X128630578Y-66746074D01*
X128577560Y-66729865D01*
X128524747Y-66713111D01*
X128521612Y-66712759D01*
X128518595Y-66711837D01*
X128463496Y-66706241D01*
X128408377Y-66700058D01*
X128402205Y-66700015D01*
X128402094Y-66700004D01*
X128401991Y-66700014D01*
X128400000Y-66700000D01*
X122789998Y-66700000D01*
X122734828Y-66705409D01*
X122679627Y-66710239D01*
X122676598Y-66711119D01*
X122673457Y-66711427D01*
X122620360Y-66727458D01*
X122567177Y-66742909D01*
X122564379Y-66744359D01*
X122561356Y-66745272D01*
X122512425Y-66771289D01*
X122463214Y-66796797D01*
X122460746Y-66798767D01*
X122457963Y-66800247D01*
X122415078Y-66835223D01*
X122371698Y-66869853D01*
X122367306Y-66874186D01*
X122367217Y-66874258D01*
X122367149Y-66874340D01*
X122365734Y-66875736D01*
X122125735Y-67115735D01*
X122090560Y-67158558D01*
X122054931Y-67201019D01*
X122053412Y-67203783D01*
X122051408Y-67206222D01*
X122025200Y-67255100D01*
X121998518Y-67303634D01*
X121997565Y-67306639D01*
X121996073Y-67309421D01*
X121979864Y-67362438D01*
X121963110Y-67415252D01*
X121962758Y-67418387D01*
X121961836Y-67421404D01*
X121956240Y-67476503D01*
X121950057Y-67531622D01*
X121950014Y-67537794D01*
X121950003Y-67537905D01*
X121950013Y-67538008D01*
X121949999Y-67539999D01*
X121949999Y-67701473D01*
X120475735Y-69175737D01*
X120440560Y-69218560D01*
X120404931Y-69261021D01*
X120403412Y-69263785D01*
X120401408Y-69266224D01*
X120375200Y-69315102D01*
X120348518Y-69363636D01*
X120347565Y-69366641D01*
X120346073Y-69369423D01*
X120329864Y-69422441D01*
X120313110Y-69475254D01*
X120312758Y-69478389D01*
X120311836Y-69481406D01*
X120306240Y-69536505D01*
X120300057Y-69591624D01*
X120300014Y-69597796D01*
X120300003Y-69597907D01*
X120300013Y-69598010D01*
X120299999Y-69600001D01*
X120300000Y-73851472D01*
X115815069Y-78336403D01*
X115820071Y-77978209D01*
X115757220Y-77660790D01*
X115633913Y-77361624D01*
X115454846Y-77092106D01*
X115226839Y-76862501D01*
X114958577Y-76681557D01*
X114660279Y-76556164D01*
X114343307Y-76491099D01*
X114019733Y-76488840D01*
X113701882Y-76549473D01*
X113401863Y-76670689D01*
X113131101Y-76847870D01*
X112899911Y-77074268D01*
X112717098Y-77341260D01*
X112589625Y-77638676D01*
X112530429Y-77917174D01*
X112441022Y-77741704D01*
X112323335Y-77703466D01*
X111688493Y-78026934D01*
X112397853Y-79419131D01*
X112515540Y-79457370D01*
X112869245Y-79277149D01*
X112923388Y-79234466D01*
X112927920Y-79229159D01*
X113095428Y-79402618D01*
X113361136Y-79587291D01*
X113657655Y-79716836D01*
X113973688Y-79786321D01*
X114297199Y-79793098D01*
X114371470Y-79780002D01*
X113775736Y-80375736D01*
X113740561Y-80418559D01*
X113728294Y-80433178D01*
X113130838Y-81030634D01*
X111649598Y-81030634D01*
X111418672Y-80577416D01*
X111389408Y-80529772D01*
X111320405Y-80458832D01*
X111234371Y-80409924D01*
X111138118Y-80386921D01*
X111039267Y-80391645D01*
X110945645Y-80423720D01*
X110892562Y-80450767D01*
X110757531Y-80315736D01*
X110714708Y-80280561D01*
X110672247Y-80244932D01*
X110669483Y-80243413D01*
X110667044Y-80241409D01*
X110618166Y-80215201D01*
X110569632Y-80188519D01*
X110566627Y-80187566D01*
X110563845Y-80186074D01*
X110510827Y-80169865D01*
X110458014Y-80153111D01*
X110454879Y-80152759D01*
X110451862Y-80151837D01*
X110396763Y-80146241D01*
X110341644Y-80140058D01*
X110335472Y-80140015D01*
X110335361Y-80140004D01*
X110335258Y-80140014D01*
X110333267Y-80140000D01*
X109870000Y-80140000D01*
X109849665Y-80141994D01*
X109829237Y-80141386D01*
X109791514Y-80147696D01*
X109753459Y-80151427D01*
X109733899Y-80157333D01*
X109713742Y-80160704D01*
X109677965Y-80174220D01*
X109641358Y-80185272D01*
X109623317Y-80194865D01*
X109604199Y-80202087D01*
X109596715Y-80205851D01*
X105296715Y-82405851D01*
X105269807Y-82423123D01*
X105241462Y-82437941D01*
X105220641Y-82454682D01*
X105198169Y-82469106D01*
X105175129Y-82491274D01*
X105150202Y-82511316D01*
X105133033Y-82531777D01*
X105113787Y-82550295D01*
X105095486Y-82576524D01*
X105074932Y-82601020D01*
X105062066Y-82624423D01*
X105046781Y-82646330D01*
X105033923Y-82675615D01*
X105018519Y-82703635D01*
X105010443Y-82729093D01*
X104999705Y-82753550D01*
X104992781Y-82784768D01*
X104983111Y-82815253D01*
X104980133Y-82841799D01*
X104974351Y-82867872D01*
X104973623Y-82899840D01*
X104972660Y-82908423D01*
X104956777Y-82877250D01*
X104421963Y-81827619D01*
X104304276Y-81789381D01*
X103669434Y-82112849D01*
X104378794Y-83505046D01*
X104496481Y-83543285D01*
X104850186Y-83363064D01*
X104858116Y-83356812D01*
X104772019Y-83629453D01*
X103611771Y-84789701D01*
X103602497Y-84787794D01*
X103503846Y-84795661D01*
X103411293Y-84830699D01*
X103332165Y-84890135D01*
X102483637Y-85738663D01*
X102447369Y-85781218D01*
X102401224Y-85868765D01*
X102381296Y-85965701D01*
X102389163Y-86064352D01*
X102424201Y-86156905D01*
X102476402Y-86226401D01*
X102460460Y-86210459D01*
X102403136Y-86172156D01*
X102339439Y-86145772D01*
X102271820Y-86132322D01*
X102202876Y-86132322D01*
X102135257Y-86145772D01*
X102071560Y-86172156D01*
X102014236Y-86210459D01*
X101662824Y-86561871D01*
X101662824Y-86685615D01*
X102078249Y-87101040D01*
X102092391Y-87086898D01*
X102163102Y-87157609D01*
X102148960Y-87171751D01*
X102163102Y-87185893D01*
X102092391Y-87256604D01*
X102078249Y-87242462D01*
X101503725Y-87816986D01*
X98773008Y-87816986D01*
X98997548Y-87729893D01*
X99270757Y-87556509D01*
X99505086Y-87333361D01*
X99531174Y-87296378D01*
X101038820Y-87296378D01*
X101038820Y-87365322D01*
X101052270Y-87432941D01*
X101078654Y-87496638D01*
X101116957Y-87553962D01*
X101309270Y-87746275D01*
X101433014Y-87746275D01*
X102007538Y-87171751D01*
X101592113Y-86756326D01*
X101468369Y-86756326D01*
X101116957Y-87107738D01*
X101078654Y-87165062D01*
X101052270Y-87228759D01*
X101038820Y-87296378D01*
X99531174Y-87296378D01*
X99691609Y-87068948D01*
X99823221Y-86773341D01*
X99894910Y-86457800D01*
X99900071Y-86088209D01*
X99837220Y-85770790D01*
X99713913Y-85471624D01*
X99534846Y-85202106D01*
X99306839Y-84972501D01*
X99038577Y-84791557D01*
X98740279Y-84666164D01*
X98423307Y-84601099D01*
X98099733Y-84598840D01*
X97871407Y-84642395D01*
X98077381Y-84483240D01*
X98600720Y-84092384D01*
X99121404Y-83716348D01*
X99639567Y-83354292D01*
X100155212Y-83005458D01*
X100668384Y-82669079D01*
X100777982Y-82599403D01*
X102907252Y-82599403D01*
X103442066Y-83649034D01*
X103473366Y-83710464D01*
X103516048Y-83764606D01*
X103568474Y-83809382D01*
X103628627Y-83843070D01*
X103694197Y-83864374D01*
X103762663Y-83872478D01*
X103831395Y-83867069D01*
X103897750Y-83848354D01*
X104251454Y-83668133D01*
X104289693Y-83550446D01*
X103580333Y-82158248D01*
X102945491Y-82481716D01*
X102907252Y-82599403D01*
X100777982Y-82599403D01*
X101178917Y-82344513D01*
X101687056Y-82030868D01*
X102192580Y-81727533D01*
X102400984Y-81605797D01*
X102782405Y-82354377D01*
X102900092Y-82392615D01*
X103534934Y-82069147D01*
X103525854Y-82051327D01*
X103614955Y-82005928D01*
X103624035Y-82023748D01*
X104258877Y-81700280D01*
X104297116Y-81582593D01*
X103882560Y-80768981D01*
X104189783Y-80601713D01*
X104682837Y-80338442D01*
X105173473Y-80080916D01*
X105661408Y-79828537D01*
X106147125Y-79580315D01*
X106629811Y-79335915D01*
X107110772Y-79093927D01*
X107110774Y-79093926D01*
X107588524Y-78854351D01*
X108063730Y-78616099D01*
X108063752Y-78616085D01*
X108064157Y-78615885D01*
X108267785Y-78513488D01*
X110926311Y-78513488D01*
X111461125Y-79563119D01*
X111492425Y-79624549D01*
X111535107Y-79678691D01*
X111587533Y-79723467D01*
X111647686Y-79757155D01*
X111713256Y-79778459D01*
X111781722Y-79786563D01*
X111850454Y-79781154D01*
X111916809Y-79762439D01*
X112270513Y-79582218D01*
X112308752Y-79464531D01*
X111599392Y-78072333D01*
X110964550Y-78395801D01*
X110926311Y-78513488D01*
X108267785Y-78513488D01*
X108536379Y-78378423D01*
X108536426Y-78378393D01*
X108537265Y-78377976D01*
X109006454Y-78140579D01*
X109006519Y-78140538D01*
X109007807Y-78139891D01*
X109473940Y-77901814D01*
X109474013Y-77901767D01*
X109475758Y-77900880D01*
X109938814Y-77661383D01*
X109938899Y-77661328D01*
X109941100Y-77660191D01*
X110375297Y-77432062D01*
X110801464Y-78268462D01*
X110919151Y-78306700D01*
X111553993Y-77983232D01*
X111544913Y-77965412D01*
X111634014Y-77920013D01*
X111643094Y-77937833D01*
X112277936Y-77614365D01*
X112316175Y-77496678D01*
X111866185Y-76613524D01*
X112223122Y-76407872D01*
X112223144Y-76407856D01*
X112227596Y-76405256D01*
X112671746Y-76141631D01*
X112671780Y-76141606D01*
X112671825Y-76141585D01*
X112676607Y-76138699D01*
X113117528Y-75868457D01*
X113117753Y-75868287D01*
X113118013Y-75868160D01*
X113122750Y-75865201D01*
X113560425Y-75587597D01*
X113560832Y-75587279D01*
X113561293Y-75587045D01*
X113565981Y-75584008D01*
X114000388Y-75298298D01*
X114000961Y-75297836D01*
X114001610Y-75297491D01*
X114006243Y-75294373D01*
X114437360Y-74999815D01*
X114438084Y-74999209D01*
X114438904Y-74998754D01*
X114443479Y-74995550D01*
X114871288Y-74691399D01*
X114872143Y-74690656D01*
X114873119Y-74690089D01*
X114877630Y-74686796D01*
X115302106Y-74372316D01*
X115303077Y-74371438D01*
X115304193Y-74370759D01*
X115308635Y-74367374D01*
X115729759Y-74041817D01*
X115730825Y-74040812D01*
X115732061Y-74040024D01*
X115736431Y-74036545D01*
X116154179Y-73699171D01*
X116155323Y-73698046D01*
X116156656Y-73697154D01*
X116160949Y-73693580D01*
X116575304Y-73343644D01*
X116576508Y-73342407D01*
X116577922Y-73341414D01*
X116582132Y-73337745D01*
X116993067Y-72974505D01*
X116994309Y-72973169D01*
X116995779Y-72972086D01*
X116999904Y-72968320D01*
X117407404Y-72591034D01*
X117408670Y-72589609D01*
X117410177Y-72588442D01*
X117414213Y-72584581D01*
X117818254Y-72192507D01*
X117819524Y-72191007D01*
X117821049Y-72189768D01*
X117824991Y-72185811D01*
X118225552Y-71778206D01*
X118226812Y-71776645D01*
X118228334Y-71775346D01*
X118232181Y-71771297D01*
X118629240Y-71347419D01*
X118630473Y-71345813D01*
X118631981Y-71344463D01*
X118635729Y-71340323D01*
X119029265Y-70899427D01*
X119030457Y-70897795D01*
X119031932Y-70896409D01*
X119035579Y-70892179D01*
X119425574Y-70433525D01*
X119426719Y-70431876D01*
X119428146Y-70430469D01*
X119431692Y-70426153D01*
X119818118Y-69948998D01*
X119819203Y-69947353D01*
X119820572Y-69945937D01*
X119824014Y-69941539D01*
X120206854Y-69445138D01*
X120207869Y-69443516D01*
X120209171Y-69442105D01*
X120212508Y-69437626D01*
X120591744Y-68921241D01*
X120592690Y-68919647D01*
X120593915Y-68918256D01*
X120597148Y-68913701D01*
X120972752Y-68376584D01*
X120973620Y-68375042D01*
X120974764Y-68373681D01*
X120977891Y-68369053D01*
X121349847Y-67810464D01*
X121350639Y-67808978D01*
X121351694Y-67807665D01*
X121354717Y-67802969D01*
X121723000Y-67222167D01*
X121723713Y-67220754D01*
X121724680Y-67219495D01*
X121727601Y-67214734D01*
X122086722Y-66620030D01*
X122440555Y-66098455D01*
X122856605Y-65625533D01*
X123339565Y-65198123D01*
X123885692Y-64825302D01*
X124491449Y-64515949D01*
X125153591Y-64278844D01*
X125869212Y-64122867D01*
X126637521Y-64056989D01*
X127365674Y-64080982D01*
X127365674Y-64080982D01*
G37*
X127365674Y-64080982D02*
X128024099Y-64177146D01*
X128613394Y-64331427D01*
X129135462Y-64530214D01*
X129591729Y-64760060D01*
X129983102Y-65007452D01*
X130310087Y-65258637D01*
X130578831Y-65504902D01*
X137436198Y-72362708D01*
X136663774Y-73135132D01*
X136663774Y-73258876D01*
X137167588Y-73762689D01*
X137181730Y-73748547D01*
X137252441Y-73819258D01*
X137238299Y-73833400D01*
X137742112Y-74337214D01*
X137865856Y-74337214D01*
X138638242Y-73564828D01*
X142810038Y-77736892D01*
X142037786Y-78509144D01*
X142037786Y-78632888D01*
X142541600Y-79136701D01*
X142555742Y-79122559D01*
X142626453Y-79193270D01*
X142612311Y-79207412D01*
X143116124Y-79711226D01*
X143239868Y-79711226D01*
X143797583Y-79153511D01*
X143797729Y-83821635D01*
X143264868Y-83288774D01*
X143141124Y-83288774D01*
X142637311Y-83792588D01*
X142651453Y-83806730D01*
X142580742Y-83877441D01*
X142566600Y-83863299D01*
X142062786Y-84367112D01*
X142062786Y-84490856D01*
X142795874Y-85223944D01*
X138622614Y-89394544D01*
X137890856Y-88662786D01*
X137767112Y-88662786D01*
X137263299Y-89166600D01*
X137277441Y-89180742D01*
X137206730Y-89251453D01*
X137192588Y-89237311D01*
X137178446Y-89251453D01*
X137107735Y-89180742D01*
X137121877Y-89166600D01*
X136017023Y-88061746D01*
X135893279Y-88061746D01*
X135730722Y-88224303D01*
X135432689Y-88003858D01*
X135429578Y-88001997D01*
X135426842Y-87999614D01*
X135422269Y-87996407D01*
X135235482Y-87867291D01*
X136087734Y-87867291D01*
X136087734Y-87991035D01*
X137192588Y-89095889D01*
X137696402Y-88592076D01*
X137696402Y-88468332D01*
X136863410Y-87635340D01*
X136814659Y-87586590D01*
X136757335Y-87548286D01*
X136693639Y-87521903D01*
X136626019Y-87508452D01*
X136557075Y-87508452D01*
X136489456Y-87521903D01*
X136425760Y-87548286D01*
X136368435Y-87586590D01*
X136087734Y-87867291D01*
X135235482Y-87867291D01*
X134862780Y-87609663D01*
X134859489Y-87607835D01*
X134856574Y-87605459D01*
X134851900Y-87602402D01*
X134289509Y-87240243D01*
X134286050Y-87238467D01*
X134282953Y-87236110D01*
X134278179Y-87233211D01*
X134176619Y-87172501D01*
X134711976Y-87336176D01*
X134780572Y-87343084D01*
X134849199Y-87336476D01*
X134915218Y-87316607D01*
X134976092Y-87284239D01*
X135029482Y-87240618D01*
X135073336Y-87187419D01*
X135105968Y-87126687D01*
X135126125Y-87060755D01*
X135222031Y-86747061D01*
X135163937Y-86637802D01*
X134004418Y-86283301D01*
X133998570Y-86302428D01*
X133902940Y-86273190D01*
X133908787Y-86254064D01*
X133691623Y-86187670D01*
X134033655Y-86187670D01*
X135193174Y-86542171D01*
X135302434Y-86484077D01*
X135398340Y-86170382D01*
X135418497Y-86104451D01*
X135425404Y-86035854D01*
X135418796Y-85967227D01*
X135398927Y-85901208D01*
X135366560Y-85840334D01*
X135322938Y-85786945D01*
X135269739Y-85743090D01*
X135209007Y-85710458D01*
X134351229Y-85448209D01*
X134241970Y-85506303D01*
X134033655Y-86187670D01*
X133691623Y-86187670D01*
X132749268Y-85899563D01*
X132640008Y-85957657D01*
X132544102Y-86271352D01*
X132543136Y-86274512D01*
X132538246Y-86272194D01*
X131965386Y-86005661D01*
X131961342Y-86004241D01*
X131957610Y-86002144D01*
X131952481Y-85999932D01*
X131377289Y-85756625D01*
X131373138Y-85755330D01*
X131369275Y-85753337D01*
X131364071Y-85751309D01*
X131215660Y-85694673D01*
X132720411Y-85694673D01*
X132778505Y-85803932D01*
X133938024Y-86158433D01*
X134146339Y-85477066D01*
X134088245Y-85367807D01*
X133230466Y-85105558D01*
X133161870Y-85098650D01*
X133093243Y-85105258D01*
X133027224Y-85125127D01*
X132966350Y-85157495D01*
X132912960Y-85201116D01*
X132869106Y-85254315D01*
X132836474Y-85315047D01*
X132816317Y-85380979D01*
X132720411Y-85694673D01*
X131215660Y-85694673D01*
X130786656Y-85530959D01*
X130782417Y-85529800D01*
X130778444Y-85527928D01*
X130773171Y-85526088D01*
X130193647Y-85328422D01*
X130189340Y-85327409D01*
X130185272Y-85325668D01*
X130179936Y-85324020D01*
X129598417Y-85148771D01*
X129594070Y-85147912D01*
X129589931Y-85146315D01*
X129584539Y-85144860D01*
X129001141Y-84991749D01*
X128996765Y-84991048D01*
X128992576Y-84989602D01*
X128987135Y-84988341D01*
X128474998Y-84873484D01*
X128527897Y-84700459D01*
X128469803Y-84591200D01*
X127310284Y-84236699D01*
X127304436Y-84255826D01*
X127208806Y-84226588D01*
X127214653Y-84207462D01*
X126997489Y-84141068D01*
X127339521Y-84141068D01*
X128499040Y-84495569D01*
X128608300Y-84437475D01*
X128704206Y-84123780D01*
X128724363Y-84057849D01*
X128731270Y-83989252D01*
X128724662Y-83920625D01*
X128704793Y-83854606D01*
X128672426Y-83793732D01*
X128628804Y-83740343D01*
X128575605Y-83696488D01*
X128514873Y-83663856D01*
X127657095Y-83401607D01*
X127547836Y-83459701D01*
X127339521Y-84141068D01*
X126997489Y-84141068D01*
X126055134Y-83852961D01*
X125945874Y-83911055D01*
X125849968Y-84224750D01*
X125829811Y-84290681D01*
X125822904Y-84359278D01*
X125829512Y-84427905D01*
X125849381Y-84493924D01*
X125869334Y-84531450D01*
X125383543Y-84510155D01*
X125379488Y-84510374D01*
X125375453Y-84509882D01*
X125369868Y-84509789D01*
X124776466Y-84504088D01*
X124772540Y-84504435D01*
X124768619Y-84504090D01*
X124763035Y-84504185D01*
X124168658Y-84518437D01*
X124164863Y-84518901D01*
X124161042Y-84518692D01*
X124155464Y-84518971D01*
X123560224Y-84552928D01*
X123556573Y-84553497D01*
X123552886Y-84553415D01*
X123547319Y-84553874D01*
X122951328Y-84607259D01*
X122947836Y-84607920D01*
X122944284Y-84607953D01*
X122938735Y-84608588D01*
X122342109Y-84681130D01*
X122338780Y-84681870D01*
X122335378Y-84682007D01*
X122329852Y-84682813D01*
X121732701Y-84774239D01*
X121729545Y-84775044D01*
X121726294Y-84775273D01*
X121720795Y-84776247D01*
X121123233Y-84886289D01*
X121120253Y-84887145D01*
X121117162Y-84887455D01*
X121111693Y-84888590D01*
X120513838Y-85016975D01*
X120511033Y-85017871D01*
X120508109Y-85018249D01*
X120502675Y-85019539D01*
X119904635Y-85165993D01*
X119901998Y-85166920D01*
X119899248Y-85167353D01*
X119893852Y-85168794D01*
X119295741Y-85333050D01*
X119293286Y-85333990D01*
X119290699Y-85334470D01*
X119285344Y-85336057D01*
X118687275Y-85517839D01*
X118684992Y-85518785D01*
X118682571Y-85519300D01*
X118677260Y-85521027D01*
X118079347Y-85720067D01*
X118077229Y-85721010D01*
X118074977Y-85721550D01*
X118069711Y-85723412D01*
X117472069Y-85939439D01*
X117470118Y-85940369D01*
X117468029Y-85940924D01*
X117462811Y-85942916D01*
X116865550Y-86175656D01*
X116863758Y-86176565D01*
X116861827Y-86177128D01*
X116856658Y-86179244D01*
X116259893Y-86428427D01*
X116258253Y-86429309D01*
X116256480Y-86429871D01*
X116251362Y-86432106D01*
X115655204Y-86697460D01*
X115653709Y-86698309D01*
X115652087Y-86698864D01*
X115647020Y-86701214D01*
X115051588Y-86982468D01*
X115050239Y-86983275D01*
X115048760Y-86983817D01*
X115043746Y-86986277D01*
X114449145Y-87283158D01*
X114447926Y-87283923D01*
X114446589Y-87284446D01*
X114441627Y-87287012D01*
X113847978Y-87599251D01*
X113846889Y-87599967D01*
X113845684Y-87600467D01*
X113840777Y-87603133D01*
X113248187Y-87930460D01*
X113247218Y-87931126D01*
X113246143Y-87931597D01*
X113241289Y-87934360D01*
X112649875Y-88276498D01*
X112649022Y-88277110D01*
X112648065Y-88277551D01*
X112643266Y-88280407D01*
X112053142Y-88637090D01*
X112052394Y-88637649D01*
X112051558Y-88638053D01*
X112046812Y-88640997D01*
X111458088Y-89011953D01*
X111457443Y-89012453D01*
X111456719Y-89012820D01*
X111452027Y-89015849D01*
X110864815Y-89400802D01*
X110864265Y-89401245D01*
X110863644Y-89401573D01*
X110859005Y-89404684D01*
X110273425Y-89803366D01*
X110272965Y-89803750D01*
X110272443Y-89804037D01*
X110267857Y-89807226D01*
X109684016Y-90219366D01*
X109683640Y-90219691D01*
X109683211Y-90219936D01*
X109678679Y-90223200D01*
X109096691Y-90648526D01*
X109096394Y-90648791D01*
X109096052Y-90648994D01*
X109091572Y-90652330D01*
X108511555Y-91090573D01*
X108511333Y-91090777D01*
X108511075Y-91090936D01*
X108506648Y-91094341D01*
X107928707Y-91545225D01*
X107928553Y-91545371D01*
X107928371Y-91545487D01*
X107923995Y-91548958D01*
X107348251Y-92012212D01*
X107348160Y-92012301D01*
X107348052Y-92012372D01*
X107343728Y-92015906D01*
X106770289Y-92491264D01*
X106770258Y-92491295D01*
X106770220Y-92491321D01*
X106765946Y-92494917D01*
X106194928Y-92982100D01*
X106194925Y-92982103D01*
X106190752Y-92985713D01*
X105622435Y-93484311D01*
X105622430Y-93484314D01*
X105622366Y-93484371D01*
X105622269Y-93484456D01*
X105622263Y-93484463D01*
X105618256Y-93488025D01*
X105052417Y-93998054D01*
X105052402Y-93998071D01*
X105048556Y-94001580D01*
X104520616Y-94490107D01*
X103968727Y-93938218D01*
X103844983Y-93938218D01*
X101926956Y-95856245D01*
X101941098Y-95870387D01*
X101870387Y-95941098D01*
X101856245Y-95926956D01*
X101842103Y-95941098D01*
X101771392Y-95870387D01*
X101785534Y-95856245D01*
X100857457Y-94928167D01*
X100733713Y-94928167D01*
X99190414Y-96471466D01*
X97635977Y-94917029D01*
X97819292Y-94733713D01*
X100928167Y-94733713D01*
X100928167Y-94857457D01*
X101856245Y-95785534D01*
X103774272Y-93867507D01*
X103774272Y-93743763D01*
X103069306Y-93038798D01*
X103011982Y-93000495D01*
X102948286Y-92974111D01*
X102880667Y-92960660D01*
X102811722Y-92960660D01*
X102744103Y-92974111D01*
X102680407Y-93000495D01*
X102623083Y-93038798D01*
X102574332Y-93087549D01*
X100928167Y-94733713D01*
X97819292Y-94733713D01*
X99853005Y-92700000D01*
X105010131Y-92700000D01*
X105011254Y-92706121D01*
X105058179Y-92824641D01*
X105127232Y-92931790D01*
X105215781Y-93023485D01*
X105320454Y-93096235D01*
X105437264Y-93147268D01*
X105561762Y-93174640D01*
X105689206Y-93177310D01*
X105814741Y-93155175D01*
X105933585Y-93109078D01*
X106041213Y-93040775D01*
X106133525Y-92952868D01*
X106207003Y-92848706D01*
X106258851Y-92732255D01*
X106287092Y-92607951D01*
X106289125Y-92462354D01*
X106264365Y-92337310D01*
X106215790Y-92219457D01*
X106145248Y-92113283D01*
X106055427Y-92022833D01*
X105949749Y-91951552D01*
X105832237Y-91902155D01*
X105707369Y-91876523D01*
X105612980Y-91875864D01*
X105576693Y-91856407D01*
X105540281Y-91836389D01*
X105538027Y-91835674D01*
X105535940Y-91834555D01*
X105496150Y-91822390D01*
X105456567Y-91809834D01*
X105454218Y-91809571D01*
X105451953Y-91808878D01*
X105410583Y-91804676D01*
X105369290Y-91800044D01*
X105364663Y-91800012D01*
X105364578Y-91800003D01*
X105364499Y-91800010D01*
X105363007Y-91800000D01*
X100753005Y-91800000D01*
X101044269Y-91508736D01*
X101080537Y-91466181D01*
X101126682Y-91378634D01*
X101146610Y-91281698D01*
X101138743Y-91183047D01*
X101103705Y-91090494D01*
X101044269Y-91011366D01*
X99488634Y-89455731D01*
X99446079Y-89419463D01*
X99358532Y-89373318D01*
X99261596Y-89353390D01*
X99162945Y-89361257D01*
X99070392Y-89396295D01*
X98991264Y-89455731D01*
X95582972Y-92864024D01*
X94029732Y-91310784D01*
X97438024Y-87902491D01*
X97474292Y-87859936D01*
X97520437Y-87772389D01*
X97528068Y-87735270D01*
X97737655Y-87826836D01*
X98053688Y-87896321D01*
X98377199Y-87903098D01*
X98695865Y-87846908D01*
X98773008Y-87816986D01*
X101503725Y-87816986D01*
X101503725Y-87940730D01*
X101696038Y-88133043D01*
X101753362Y-88171346D01*
X101817059Y-88197730D01*
X101884678Y-88211180D01*
X101953622Y-88211180D01*
X102021241Y-88197730D01*
X102084938Y-88171346D01*
X102128048Y-88142540D01*
X102129995Y-88145132D01*
X102415076Y-88430213D01*
X102415076Y-89876361D01*
X102420485Y-89931531D01*
X102425315Y-89986732D01*
X102426195Y-89989761D01*
X102426503Y-89992902D01*
X102442534Y-90045999D01*
X102457985Y-90099182D01*
X102459435Y-90101980D01*
X102460348Y-90105003D01*
X102486365Y-90153934D01*
X102511873Y-90203145D01*
X102513843Y-90205613D01*
X102515323Y-90208396D01*
X102550324Y-90251311D01*
X102584930Y-90294661D01*
X102589260Y-90299052D01*
X102589334Y-90299142D01*
X102589418Y-90299211D01*
X102590812Y-90300625D01*
X103845821Y-91555634D01*
X103888644Y-91590809D01*
X103931105Y-91626438D01*
X103933869Y-91627957D01*
X103936308Y-91629961D01*
X103985167Y-91656159D01*
X104033720Y-91682851D01*
X104036727Y-91683805D01*
X104039508Y-91685296D01*
X104092498Y-91701497D01*
X104145338Y-91718259D01*
X104148475Y-91718611D01*
X104151491Y-91719533D01*
X104206628Y-91725134D01*
X104261708Y-91731312D01*
X104267870Y-91731355D01*
X104267991Y-91731367D01*
X104268104Y-91731356D01*
X104270085Y-91731370D01*
X105118630Y-91731370D01*
X105173800Y-91725961D01*
X105229001Y-91721131D01*
X105232030Y-91720251D01*
X105235171Y-91719943D01*
X105288268Y-91703912D01*
X105316815Y-91695618D01*
X105397503Y-91712206D01*
X105496154Y-91704339D01*
X105588707Y-91669301D01*
X105667835Y-91609865D01*
X105970593Y-91307107D01*
X107027833Y-91307107D01*
X107083003Y-91301698D01*
X107138204Y-91296868D01*
X107141233Y-91295988D01*
X107144374Y-91295680D01*
X107197471Y-91279649D01*
X107250654Y-91264198D01*
X107253452Y-91262748D01*
X107256475Y-91261835D01*
X107305406Y-91235818D01*
X107354617Y-91210310D01*
X107357085Y-91208340D01*
X107359868Y-91206860D01*
X107402783Y-91171859D01*
X107446133Y-91137253D01*
X107450524Y-91132923D01*
X107450614Y-91132849D01*
X107450683Y-91132765D01*
X107452097Y-91131371D01*
X108910887Y-89672581D01*
X109002116Y-89614685D01*
X109094428Y-89526778D01*
X109167906Y-89422616D01*
X109219754Y-89306165D01*
X109247995Y-89181861D01*
X109250028Y-89036264D01*
X109225268Y-88911220D01*
X109176693Y-88793367D01*
X109106151Y-88687193D01*
X109016330Y-88596743D01*
X108910652Y-88525462D01*
X108793140Y-88476065D01*
X108668272Y-88450433D01*
X108540804Y-88449543D01*
X108415590Y-88473429D01*
X108297401Y-88521181D01*
X108190737Y-88590979D01*
X108099662Y-88680166D01*
X108027645Y-88785345D01*
X107977428Y-88902509D01*
X107975680Y-88910732D01*
X107906007Y-88980405D01*
X107883043Y-88946038D01*
X107690730Y-88753725D01*
X107566986Y-88753725D01*
X106992462Y-89328249D01*
X107006604Y-89342391D01*
X106935893Y-89413102D01*
X106921751Y-89398960D01*
X106907609Y-89413102D01*
X106836898Y-89342391D01*
X106851040Y-89328249D01*
X106836898Y-89314107D01*
X106907609Y-89243396D01*
X106921751Y-89257538D01*
X107496275Y-88683014D01*
X107496275Y-88559270D01*
X107303962Y-88366957D01*
X107246638Y-88328654D01*
X107182941Y-88302270D01*
X107115322Y-88288820D01*
X107046378Y-88288820D01*
X106978759Y-88302270D01*
X106915062Y-88328654D01*
X106871952Y-88357460D01*
X106870005Y-88354868D01*
X106622518Y-88107381D01*
X106798096Y-87931803D01*
X106824466Y-87899700D01*
X106851199Y-87867840D01*
X106852339Y-87865767D01*
X106853841Y-87863938D01*
X106873491Y-87827291D01*
X106893509Y-87790879D01*
X106894224Y-87788625D01*
X106895343Y-87786538D01*
X106907508Y-87746748D01*
X106920064Y-87707165D01*
X106920327Y-87704816D01*
X106921020Y-87702551D01*
X106925222Y-87661181D01*
X106929854Y-87619888D01*
X106929886Y-87615261D01*
X106929895Y-87615176D01*
X106929888Y-87615097D01*
X106929898Y-87613605D01*
X106929898Y-87330744D01*
X106925845Y-87289405D01*
X106922219Y-87247966D01*
X106921559Y-87245694D01*
X106921328Y-87243339D01*
X106909316Y-87203554D01*
X106897717Y-87163628D01*
X106896628Y-87161527D01*
X106895944Y-87159262D01*
X106876414Y-87122532D01*
X106857299Y-87085656D01*
X106855825Y-87083810D01*
X106854713Y-87081718D01*
X106828403Y-87049459D01*
X106802507Y-87017020D01*
X106799261Y-87013728D01*
X106799205Y-87013659D01*
X106799142Y-87013607D01*
X106798096Y-87012546D01*
X105737454Y-85951904D01*
X105705351Y-85925534D01*
X105673491Y-85898801D01*
X105671418Y-85897661D01*
X105669589Y-85896159D01*
X105632942Y-85876509D01*
X105596530Y-85856491D01*
X105594276Y-85855776D01*
X105592189Y-85854657D01*
X105552399Y-85842492D01*
X105512816Y-85829936D01*
X105510467Y-85829673D01*
X105508202Y-85828980D01*
X105466832Y-85824778D01*
X105425539Y-85820146D01*
X105420912Y-85820114D01*
X105420827Y-85820105D01*
X105420748Y-85820112D01*
X105419256Y-85820102D01*
X105136395Y-85820102D01*
X105095056Y-85824155D01*
X105053617Y-85827781D01*
X105051345Y-85828441D01*
X105048990Y-85828672D01*
X105009191Y-85840688D01*
X104969280Y-85852283D01*
X104967180Y-85853372D01*
X104964913Y-85854056D01*
X104928144Y-85873607D01*
X104891308Y-85892701D01*
X104889464Y-85894173D01*
X104887369Y-85895287D01*
X104855119Y-85921590D01*
X104822671Y-85947492D01*
X104819377Y-85950740D01*
X104819310Y-85950795D01*
X104819259Y-85950857D01*
X104818197Y-85951904D01*
X104642619Y-86127482D01*
X104395132Y-85879995D01*
X104393384Y-85878505D01*
X104396133Y-85875280D01*
X104442278Y-85787733D01*
X104462206Y-85690797D01*
X104458183Y-85640345D01*
X105724264Y-84374264D01*
X105738492Y-84356943D01*
X105754706Y-84341462D01*
X105775573Y-84311799D01*
X105798591Y-84283777D01*
X105809183Y-84264022D01*
X105822082Y-84245687D01*
X105836791Y-84212534D01*
X105853926Y-84180578D01*
X105860479Y-84159145D01*
X105869572Y-84138650D01*
X105872150Y-84130679D01*
X105980986Y-83786030D01*
X106127290Y-84073167D01*
X106244977Y-84111406D01*
X106701618Y-83878736D01*
X106692538Y-83860916D01*
X106781639Y-83815517D01*
X106790719Y-83833337D01*
X106808539Y-83824257D01*
X106853938Y-83913358D01*
X106836118Y-83922438D01*
X106845198Y-83940258D01*
X106756097Y-83985657D01*
X106747017Y-83967837D01*
X106290376Y-84200507D01*
X106252137Y-84318194D01*
X106559956Y-84922322D01*
X106591256Y-84983751D01*
X106623751Y-85024971D01*
X106620612Y-85053534D01*
X106637647Y-85110588D01*
X107437647Y-86610588D01*
X107470202Y-86651983D01*
X107521632Y-86681988D01*
X107580684Y-86689619D01*
X107638052Y-86673674D01*
X109318105Y-85818374D01*
X109325065Y-85822201D01*
X109343776Y-85834936D01*
X109363456Y-85843306D01*
X109382200Y-85853611D01*
X109403775Y-85860455D01*
X109424595Y-85869310D01*
X109445526Y-85873699D01*
X109465914Y-85880166D01*
X109488398Y-85882688D01*
X109510551Y-85887333D01*
X109531939Y-85887572D01*
X109553191Y-85889956D01*
X109559474Y-85890000D01*
X112770000Y-85890000D01*
X112811339Y-85885947D01*
X112852778Y-85882321D01*
X112855050Y-85881661D01*
X112857405Y-85881430D01*
X112897204Y-85869414D01*
X112937115Y-85857819D01*
X112939215Y-85856730D01*
X112941482Y-85856046D01*
X112978251Y-85836495D01*
X113015087Y-85817401D01*
X113016931Y-85815929D01*
X113019026Y-85814815D01*
X113051276Y-85788512D01*
X113083724Y-85762610D01*
X113087018Y-85759362D01*
X113087085Y-85759307D01*
X113087136Y-85759245D01*
X113088198Y-85758198D01*
X114292125Y-84554271D01*
X114318495Y-84522168D01*
X114345228Y-84490308D01*
X114346368Y-84488235D01*
X114347870Y-84486406D01*
X114367520Y-84449759D01*
X114387538Y-84413347D01*
X114388253Y-84411093D01*
X114389372Y-84409006D01*
X114401537Y-84369216D01*
X114414093Y-84329633D01*
X114414356Y-84327284D01*
X114415049Y-84325019D01*
X114419251Y-84283649D01*
X114423883Y-84242356D01*
X114423915Y-84237729D01*
X114423924Y-84237644D01*
X114423917Y-84237565D01*
X114423927Y-84236073D01*
X114423927Y-83222469D01*
X114468896Y-83177500D01*
X120520000Y-83177500D01*
X120520000Y-83574472D01*
X120533450Y-83642091D01*
X120559834Y-83705787D01*
X120598137Y-83763112D01*
X120646888Y-83811863D01*
X120704213Y-83850166D01*
X120767909Y-83876550D01*
X120835528Y-83890000D01*
X121532500Y-83890000D01*
X121620000Y-83802500D01*
X121620000Y-83090000D01*
X120607500Y-83090000D01*
X120520000Y-83177500D01*
X114468896Y-83177500D01*
X115140868Y-82505528D01*
X120520000Y-82505528D01*
X120520000Y-82902500D01*
X120607500Y-82990000D01*
X121620000Y-82990000D01*
X121620000Y-82277500D01*
X121532500Y-82190000D01*
X120835528Y-82190000D01*
X120767909Y-82203450D01*
X120704213Y-82229834D01*
X120646888Y-82268137D01*
X120598137Y-82316888D01*
X120559834Y-82374213D01*
X120533450Y-82437909D01*
X120520000Y-82505528D01*
X115140868Y-82505528D01*
X116941258Y-80705138D01*
X116942156Y-80710030D01*
X116989081Y-80828550D01*
X117058134Y-80935699D01*
X117146683Y-81027394D01*
X117251356Y-81100144D01*
X117368166Y-81151177D01*
X117492664Y-81178549D01*
X117620108Y-81181219D01*
X117745643Y-81159084D01*
X117864487Y-81112987D01*
X117972115Y-81044684D01*
X118064427Y-80956777D01*
X118137905Y-80852615D01*
X118171608Y-80776918D01*
X118308526Y-80640000D01*
X120536459Y-80640000D01*
X120552027Y-80690271D01*
X120606480Y-80772906D01*
X120681800Y-80837100D01*
X120772021Y-80877769D01*
X120870000Y-80891693D01*
X121673165Y-80891693D01*
X122145736Y-81364264D01*
X122188559Y-81399439D01*
X122231020Y-81435068D01*
X122233784Y-81436587D01*
X122236223Y-81438591D01*
X122285101Y-81464799D01*
X122333635Y-81491481D01*
X122336640Y-81492434D01*
X122339422Y-81493926D01*
X122392440Y-81510135D01*
X122445253Y-81526889D01*
X122448388Y-81527241D01*
X122451405Y-81528163D01*
X122506504Y-81533759D01*
X122532614Y-81536688D01*
X122533753Y-81538416D01*
X122509834Y-81574213D01*
X122483450Y-81637909D01*
X122470000Y-81705528D01*
X122470000Y-82002500D01*
X122557500Y-82090000D01*
X123020000Y-82090000D01*
X123020000Y-82070000D01*
X123120000Y-82070000D01*
X123120000Y-82090000D01*
X123582500Y-82090000D01*
X123670000Y-82002500D01*
X123670000Y-81705528D01*
X123656550Y-81637909D01*
X123649692Y-81621352D01*
X123675958Y-81629684D01*
X123678307Y-81629947D01*
X123680572Y-81630640D01*
X123721942Y-81634842D01*
X123763235Y-81639474D01*
X123767862Y-81639506D01*
X123767947Y-81639515D01*
X123768026Y-81639508D01*
X123769518Y-81639518D01*
X124767589Y-81639518D01*
X124808928Y-81635465D01*
X124850367Y-81631839D01*
X124852639Y-81631179D01*
X124854994Y-81630948D01*
X124882575Y-81622621D01*
X124970882Y-81622621D01*
X125027968Y-81565535D01*
X125113922Y-81532995D01*
X125180719Y-81482821D01*
X125154387Y-81513718D01*
X125108242Y-81601265D01*
X125101664Y-81633261D01*
X123944925Y-82790000D01*
X123564975Y-82790000D01*
X123591863Y-82763112D01*
X123630166Y-82705787D01*
X123656550Y-82642091D01*
X123670000Y-82574472D01*
X123670000Y-82277500D01*
X123582500Y-82190000D01*
X123120000Y-82190000D01*
X123120000Y-82210000D01*
X123020000Y-82210000D01*
X123020000Y-82190000D01*
X122557500Y-82190000D01*
X122548702Y-82198798D01*
X122504472Y-82190000D01*
X121807500Y-82190000D01*
X121720000Y-82277500D01*
X121720000Y-82990000D01*
X121740000Y-82990000D01*
X121740000Y-83090000D01*
X121720000Y-83090000D01*
X121720000Y-83802500D01*
X121807500Y-83890000D01*
X122504472Y-83890000D01*
X122572091Y-83876550D01*
X122635787Y-83850166D01*
X122693112Y-83811863D01*
X122718008Y-83786967D01*
X122751357Y-83810145D01*
X122868167Y-83861178D01*
X122992665Y-83888550D01*
X123120109Y-83891220D01*
X123245644Y-83869085D01*
X123364488Y-83822988D01*
X123472116Y-83754685D01*
X123540042Y-83690000D01*
X124131321Y-83690000D01*
X124172660Y-83685947D01*
X124214099Y-83682321D01*
X124216371Y-83681661D01*
X124218726Y-83681430D01*
X124258532Y-83669412D01*
X124298436Y-83657819D01*
X124300536Y-83656730D01*
X124302803Y-83656046D01*
X124317801Y-83648071D01*
X126026277Y-83648071D01*
X126084371Y-83757330D01*
X127243890Y-84111831D01*
X127452205Y-83430464D01*
X127394111Y-83321205D01*
X126536332Y-83058956D01*
X126467736Y-83052048D01*
X126399109Y-83058656D01*
X126333090Y-83078525D01*
X126272216Y-83110893D01*
X126218826Y-83154514D01*
X126174972Y-83207713D01*
X126142340Y-83268445D01*
X126122183Y-83334377D01*
X126026277Y-83648071D01*
X124317801Y-83648071D01*
X124339572Y-83636495D01*
X124376408Y-83617401D01*
X124378252Y-83615929D01*
X124380347Y-83614815D01*
X124412597Y-83588512D01*
X124445045Y-83562610D01*
X124448339Y-83559362D01*
X124448406Y-83559307D01*
X124448457Y-83559245D01*
X124449519Y-83558198D01*
X125735077Y-82272640D01*
X125821029Y-82240101D01*
X125900157Y-82180665D01*
X126430483Y-81650339D01*
X126430487Y-81650336D01*
X126500000Y-81580823D01*
X126569513Y-81650336D01*
X126569518Y-81650340D01*
X127099843Y-82180665D01*
X127142398Y-82216933D01*
X127229945Y-82263078D01*
X127261939Y-82269655D01*
X127740446Y-82748162D01*
X127772549Y-82774532D01*
X127804409Y-82801265D01*
X127806482Y-82802405D01*
X127808311Y-82803907D01*
X127844958Y-82823557D01*
X127881370Y-82843575D01*
X127883624Y-82844290D01*
X127885711Y-82845409D01*
X127925501Y-82857574D01*
X127965084Y-82870130D01*
X127967433Y-82870393D01*
X127969698Y-82871086D01*
X128011068Y-82875288D01*
X128052361Y-82879920D01*
X128056988Y-82879952D01*
X128057073Y-82879961D01*
X128057152Y-82879954D01*
X128058644Y-82879964D01*
X128246154Y-82879964D01*
X128225374Y-82947932D01*
X128213329Y-83002532D01*
X128213686Y-83101495D01*
X128241600Y-83196441D01*
X128294859Y-83279851D01*
X128369248Y-83345121D01*
X128458875Y-83387083D01*
X129415180Y-83679455D01*
X129469780Y-83691500D01*
X129568743Y-83691143D01*
X129663689Y-83663229D01*
X129747099Y-83609970D01*
X129812369Y-83535581D01*
X129854331Y-83445954D01*
X130028219Y-82877195D01*
X132434939Y-83624108D01*
X132407933Y-83638467D01*
X132253552Y-84143423D01*
X132233395Y-84209354D01*
X132226488Y-84277951D01*
X132233096Y-84346578D01*
X132252965Y-84412596D01*
X132285332Y-84473471D01*
X132328954Y-84526860D01*
X132382153Y-84570714D01*
X132442885Y-84603347D01*
X132822511Y-84719410D01*
X132876783Y-84690553D01*
X133027400Y-84690553D01*
X133085495Y-84799812D01*
X133465121Y-84915875D01*
X133533718Y-84922783D01*
X133602344Y-84916175D01*
X133668363Y-84896306D01*
X133729237Y-84863938D01*
X133782627Y-84820317D01*
X133826481Y-84767118D01*
X133859113Y-84706386D01*
X133879270Y-84640455D01*
X134033651Y-84135499D01*
X133975557Y-84026240D01*
X133294190Y-83817925D01*
X133027400Y-84690553D01*
X132876783Y-84690553D01*
X132931770Y-84661316D01*
X133198559Y-83788688D01*
X133179432Y-83782840D01*
X133208670Y-83687210D01*
X133227796Y-83693057D01*
X133233644Y-83673930D01*
X133329274Y-83703168D01*
X133323427Y-83722294D01*
X134004794Y-83930609D01*
X134114053Y-83872515D01*
X134206466Y-83570248D01*
X135491302Y-84855084D01*
X135335235Y-85011150D01*
X135298967Y-85053705D01*
X135252822Y-85141252D01*
X135232894Y-85238188D01*
X135240761Y-85336839D01*
X135275799Y-85429392D01*
X135335235Y-85508520D01*
X136537317Y-86710602D01*
X136579872Y-86746870D01*
X136667419Y-86793015D01*
X136764355Y-86812943D01*
X136863006Y-86805076D01*
X136955559Y-86770038D01*
X137034687Y-86710602D01*
X137458951Y-86286338D01*
X137495219Y-86243783D01*
X137541364Y-86156236D01*
X137561292Y-86059300D01*
X137553425Y-85960649D01*
X137529589Y-85897686D01*
X137551303Y-85909131D01*
X137648239Y-85929059D01*
X137746890Y-85921192D01*
X137839443Y-85886154D01*
X137918571Y-85826718D01*
X138342835Y-85402454D01*
X138379103Y-85359899D01*
X138425248Y-85272352D01*
X138445176Y-85175416D01*
X138437309Y-85076765D01*
X138413474Y-85013804D01*
X138435186Y-85025248D01*
X138482303Y-85034934D01*
X138497631Y-85047796D01*
X138500395Y-85049315D01*
X138502834Y-85051319D01*
X138551712Y-85077527D01*
X138600246Y-85104209D01*
X138603251Y-85105162D01*
X138606033Y-85106654D01*
X138659051Y-85122863D01*
X138711864Y-85139617D01*
X138714999Y-85139969D01*
X138718016Y-85140891D01*
X138773115Y-85146487D01*
X138828234Y-85152670D01*
X138834406Y-85152713D01*
X138834517Y-85152724D01*
X138834620Y-85152714D01*
X138836611Y-85152728D01*
X138857272Y-85152728D01*
X138912442Y-85147319D01*
X138967643Y-85142489D01*
X138970672Y-85141609D01*
X138973813Y-85141301D01*
X138978122Y-85140000D01*
X139770000Y-85140000D01*
X139825170Y-85134591D01*
X139880371Y-85129761D01*
X139883400Y-85128881D01*
X139886541Y-85128573D01*
X139939638Y-85112542D01*
X139992821Y-85097091D01*
X139995619Y-85095641D01*
X139998642Y-85094728D01*
X140047573Y-85068711D01*
X140096784Y-85043203D01*
X140099252Y-85041233D01*
X140102035Y-85039753D01*
X140144950Y-85004752D01*
X140188300Y-84970146D01*
X140192691Y-84965816D01*
X140192781Y-84965742D01*
X140192850Y-84965658D01*
X140194264Y-84964264D01*
X140717197Y-84441331D01*
X140764488Y-84422988D01*
X140872116Y-84354685D01*
X140964428Y-84266778D01*
X141037906Y-84162616D01*
X141089754Y-84046165D01*
X141117995Y-83921861D01*
X141120028Y-83776264D01*
X141095268Y-83651220D01*
X141046693Y-83533367D01*
X140976151Y-83427193D01*
X140886330Y-83336743D01*
X140780652Y-83265462D01*
X140663140Y-83216065D01*
X140538272Y-83190433D01*
X140410804Y-83189543D01*
X140285590Y-83213429D01*
X140185948Y-83253688D01*
X140172083Y-83220214D01*
X140133780Y-83162890D01*
X140127965Y-83157075D01*
X140908452Y-83157075D01*
X140908452Y-83226019D01*
X140921903Y-83293639D01*
X140948286Y-83357335D01*
X140986590Y-83414659D01*
X141035340Y-83463410D01*
X141868332Y-84296402D01*
X141992076Y-84296402D01*
X142495889Y-83792588D01*
X141391035Y-82687734D01*
X141267291Y-82687734D01*
X140986590Y-82968435D01*
X140948286Y-83025760D01*
X140921903Y-83089456D01*
X140908452Y-83157075D01*
X140127965Y-83157075D01*
X139605591Y-82634701D01*
X139481847Y-82634701D01*
X139119455Y-82997093D01*
X139133597Y-83011235D01*
X139062886Y-83081946D01*
X139048744Y-83067804D01*
X139034602Y-83081946D01*
X138963891Y-83011235D01*
X138978033Y-82997093D01*
X138226732Y-82245792D01*
X138102989Y-82245792D01*
X137963708Y-82385072D01*
X137925405Y-82442397D01*
X137899022Y-82506093D01*
X137885571Y-82573712D01*
X137885571Y-82642656D01*
X137899022Y-82710276D01*
X137914280Y-82747114D01*
X137894534Y-82736706D01*
X137797598Y-82716778D01*
X137698947Y-82724645D01*
X137606394Y-82759683D01*
X137527266Y-82819119D01*
X137103002Y-83243383D01*
X137066734Y-83285938D01*
X137020589Y-83373485D01*
X137000661Y-83470421D01*
X137008528Y-83569072D01*
X137032363Y-83632033D01*
X137010651Y-83620589D01*
X136913715Y-83600661D01*
X136815064Y-83608528D01*
X136775876Y-83623363D01*
X135203851Y-82051338D01*
X138297443Y-82051338D01*
X138297443Y-82175081D01*
X139048744Y-82926382D01*
X139411136Y-82563990D01*
X139411136Y-82493279D01*
X141461746Y-82493279D01*
X141461746Y-82617023D01*
X142566600Y-83721877D01*
X143070414Y-83218064D01*
X143070414Y-83094320D01*
X142237422Y-82261328D01*
X142188671Y-82212578D01*
X142131347Y-82174274D01*
X142067651Y-82147891D01*
X142000031Y-82134440D01*
X141931087Y-82134440D01*
X141863468Y-82147891D01*
X141799772Y-82174274D01*
X141742447Y-82212578D01*
X141461746Y-82493279D01*
X139411136Y-82493279D01*
X139411136Y-82440246D01*
X138882947Y-81912057D01*
X138825623Y-81873754D01*
X138761927Y-81847371D01*
X138694307Y-81833920D01*
X138625363Y-81833920D01*
X138557744Y-81847371D01*
X138494048Y-81873754D01*
X138436723Y-81912057D01*
X138297443Y-82051338D01*
X135203851Y-82051338D01*
X134102502Y-80949989D01*
X138027397Y-80949989D01*
X138068736Y-80945936D01*
X138110175Y-80942310D01*
X138112447Y-80941650D01*
X138114802Y-80941419D01*
X138154601Y-80929403D01*
X138194512Y-80917808D01*
X138196612Y-80916719D01*
X138198879Y-80916035D01*
X138224041Y-80902656D01*
X138386150Y-81064765D01*
X138428705Y-81101033D01*
X138516252Y-81147178D01*
X138613188Y-81167106D01*
X138711839Y-81159239D01*
X138804392Y-81124201D01*
X138883520Y-81064765D01*
X139565308Y-80382977D01*
X141436746Y-80382977D01*
X141436746Y-80506721D01*
X141717447Y-80787422D01*
X141774772Y-80825726D01*
X141838468Y-80852109D01*
X141906087Y-80865560D01*
X141975031Y-80865560D01*
X142042651Y-80852109D01*
X142106347Y-80825726D01*
X142163671Y-80787422D01*
X142212422Y-80738672D01*
X143045414Y-79905680D01*
X143045414Y-79781936D01*
X142541600Y-79278123D01*
X141436746Y-80382977D01*
X139565308Y-80382977D01*
X140014885Y-79933400D01*
X140076684Y-79997395D01*
X140181357Y-80070145D01*
X140298167Y-80121178D01*
X140422665Y-80148550D01*
X140550109Y-80151220D01*
X140675644Y-80129085D01*
X140794488Y-80082988D01*
X140902116Y-80014685D01*
X140931570Y-79986637D01*
X140961590Y-80031565D01*
X141242291Y-80312266D01*
X141366035Y-80312266D01*
X142470889Y-79207412D01*
X141967076Y-78703598D01*
X141843332Y-78703598D01*
X141143522Y-79403408D01*
X141125268Y-79311220D01*
X141100000Y-79249915D01*
X141100000Y-78550000D01*
X141094591Y-78494830D01*
X141089761Y-78439629D01*
X141088881Y-78436600D01*
X141088573Y-78433459D01*
X141072542Y-78380362D01*
X141057091Y-78327179D01*
X141055641Y-78324381D01*
X141054728Y-78321358D01*
X141028690Y-78272388D01*
X141003202Y-78223216D01*
X141001235Y-78220751D01*
X140999753Y-78217965D01*
X140964730Y-78175022D01*
X140930146Y-78131700D01*
X140925816Y-78127309D01*
X140925742Y-78127219D01*
X140925658Y-78127150D01*
X140924264Y-78125736D01*
X137901092Y-75102564D01*
X137876693Y-75043367D01*
X137806151Y-74937193D01*
X137716330Y-74846743D01*
X137610652Y-74775462D01*
X137493140Y-74726065D01*
X137479753Y-74723317D01*
X137671402Y-74531668D01*
X137671402Y-74407924D01*
X137167588Y-73904111D01*
X136062734Y-75008965D01*
X136062734Y-75132709D01*
X136343435Y-75413410D01*
X136400760Y-75451714D01*
X136464456Y-75478097D01*
X136532075Y-75491548D01*
X136601019Y-75491548D01*
X136662837Y-75479251D01*
X136672157Y-75530031D01*
X136719082Y-75648551D01*
X136788135Y-75755700D01*
X136876684Y-75847395D01*
X136981357Y-75920145D01*
X137052853Y-75951381D01*
X137872031Y-76770559D01*
X137561283Y-77081306D01*
X137506190Y-77102163D01*
X137521815Y-77064439D01*
X137535266Y-76996819D01*
X137535266Y-76927875D01*
X137521815Y-76860256D01*
X137495432Y-76796560D01*
X137457129Y-76739235D01*
X137317848Y-76599955D01*
X137194105Y-76599955D01*
X136442804Y-77351256D01*
X136456946Y-77365398D01*
X136386235Y-77436109D01*
X136372093Y-77421967D01*
X135620792Y-78173268D01*
X135620792Y-78297011D01*
X135760072Y-78436292D01*
X135817397Y-78474595D01*
X135881093Y-78500978D01*
X135948712Y-78514429D01*
X136017656Y-78514429D01*
X136085276Y-78500978D01*
X136122114Y-78485720D01*
X136111706Y-78505466D01*
X136091778Y-78602402D01*
X136099645Y-78701053D01*
X136134683Y-78793606D01*
X136194119Y-78872734D01*
X136618383Y-79296998D01*
X136660938Y-79333266D01*
X136748485Y-79379411D01*
X136845421Y-79399339D01*
X136944072Y-79391472D01*
X137007033Y-79367637D01*
X136995589Y-79389349D01*
X136975661Y-79486285D01*
X136983528Y-79584936D01*
X137005229Y-79642258D01*
X136997509Y-79649978D01*
X132901701Y-79649978D01*
X132908251Y-79646495D01*
X132945087Y-79627401D01*
X132946931Y-79625929D01*
X132949026Y-79624815D01*
X132981276Y-79598512D01*
X133013724Y-79572610D01*
X133017018Y-79569362D01*
X133017085Y-79569307D01*
X133017136Y-79569245D01*
X133018198Y-79568198D01*
X134880703Y-77705693D01*
X135208920Y-77705693D01*
X135208920Y-77774637D01*
X135222371Y-77842256D01*
X135248754Y-77905952D01*
X135287057Y-77963277D01*
X135426338Y-78102557D01*
X135550081Y-78102557D01*
X136301382Y-77351256D01*
X135938990Y-76988864D01*
X135815246Y-76988864D01*
X135287057Y-77517053D01*
X135248754Y-77574377D01*
X135222371Y-77638073D01*
X135208920Y-77705693D01*
X134880703Y-77705693D01*
X134968199Y-77618197D01*
X134994569Y-77586094D01*
X135021302Y-77554234D01*
X135022442Y-77552161D01*
X135023944Y-77550332D01*
X135043594Y-77513685D01*
X135063612Y-77477273D01*
X135064327Y-77475019D01*
X135065446Y-77472932D01*
X135077611Y-77433142D01*
X135090167Y-77393559D01*
X135090430Y-77391210D01*
X135091123Y-77388945D01*
X135095325Y-77347575D01*
X135099957Y-77306282D01*
X135099989Y-77301655D01*
X135099998Y-77301570D01*
X135099991Y-77301491D01*
X135100001Y-77299999D01*
X135100001Y-76794409D01*
X136009701Y-76794409D01*
X136009701Y-76918153D01*
X136372093Y-77280545D01*
X137123394Y-76529244D01*
X137123394Y-76405501D01*
X136984114Y-76266220D01*
X136926789Y-76227917D01*
X136863093Y-76201534D01*
X136795474Y-76188083D01*
X136726530Y-76188083D01*
X136658910Y-76201534D01*
X136595214Y-76227917D01*
X136537890Y-76266220D01*
X136009701Y-76794409D01*
X135100001Y-76794409D01*
X135100001Y-74966027D01*
X135102116Y-74964685D01*
X135194428Y-74876778D01*
X135267906Y-74772616D01*
X135319754Y-74656165D01*
X135347995Y-74531861D01*
X135349836Y-74399969D01*
X135509440Y-74399969D01*
X135509440Y-74468913D01*
X135522891Y-74536532D01*
X135549274Y-74600228D01*
X135587578Y-74657553D01*
X135868279Y-74938254D01*
X135992023Y-74938254D01*
X137096877Y-73833400D01*
X136593064Y-73329586D01*
X136469320Y-73329586D01*
X135636328Y-74162578D01*
X135587578Y-74211329D01*
X135549274Y-74268653D01*
X135522891Y-74332349D01*
X135509440Y-74399969D01*
X135349836Y-74399969D01*
X135350028Y-74386264D01*
X135325268Y-74261220D01*
X135276693Y-74143367D01*
X135206151Y-74037193D01*
X135116330Y-73946743D01*
X135010652Y-73875462D01*
X134893140Y-73826065D01*
X134768272Y-73800433D01*
X134640804Y-73799543D01*
X134515590Y-73823429D01*
X134397401Y-73871181D01*
X134290737Y-73940979D01*
X134199662Y-74030166D01*
X134127645Y-74135345D01*
X134077428Y-74252509D01*
X134050925Y-74377195D01*
X134049146Y-74504654D01*
X134072157Y-74630031D01*
X134119082Y-74748551D01*
X134188135Y-74855700D01*
X134200001Y-74867988D01*
X134200001Y-75148307D01*
X133750000Y-75148307D01*
X133694264Y-75152752D01*
X133599729Y-75182027D01*
X133517094Y-75236480D01*
X133452900Y-75311800D01*
X133412231Y-75402021D01*
X133398307Y-75500000D01*
X133398307Y-76700000D01*
X133402752Y-76755736D01*
X133432027Y-76850271D01*
X133444462Y-76869142D01*
X132634783Y-77678821D01*
X132597979Y-77662231D01*
X132500000Y-77648307D01*
X131700000Y-77648307D01*
X131644264Y-77652752D01*
X131549729Y-77682027D01*
X131501217Y-77713994D01*
X131488200Y-77702900D01*
X131397979Y-77662231D01*
X131300000Y-77648307D01*
X130500000Y-77648307D01*
X130444264Y-77652752D01*
X130409221Y-77663604D01*
X130022792Y-77663604D01*
X130586508Y-77099888D01*
X130650109Y-77101220D01*
X130775644Y-77079085D01*
X130894488Y-77032988D01*
X131002116Y-76964685D01*
X131094428Y-76876778D01*
X131167906Y-76772616D01*
X131219754Y-76656165D01*
X131247995Y-76531861D01*
X131250028Y-76386264D01*
X131225268Y-76261220D01*
X131215492Y-76237500D01*
X131500000Y-76237500D01*
X131500000Y-76734472D01*
X131513450Y-76802091D01*
X131539834Y-76865787D01*
X131578137Y-76923112D01*
X131626888Y-76971863D01*
X131684213Y-77010166D01*
X131747909Y-77036550D01*
X131815528Y-77050000D01*
X132012500Y-77050000D01*
X132100000Y-76962500D01*
X132100000Y-76150000D01*
X132200000Y-76150000D01*
X132200000Y-76962500D01*
X132287500Y-77050000D01*
X132484472Y-77050000D01*
X132552091Y-77036550D01*
X132615787Y-77010166D01*
X132673112Y-76971863D01*
X132721863Y-76923112D01*
X132760166Y-76865787D01*
X132786550Y-76802091D01*
X132800000Y-76734472D01*
X132800000Y-76237500D01*
X132712500Y-76150000D01*
X132200000Y-76150000D01*
X132100000Y-76150000D01*
X131587500Y-76150000D01*
X131500000Y-76237500D01*
X131215492Y-76237500D01*
X131176693Y-76143367D01*
X131106151Y-76037193D01*
X131016330Y-75946743D01*
X130910652Y-75875462D01*
X130811672Y-75833855D01*
X130524264Y-75546447D01*
X130510122Y-75560589D01*
X130439411Y-75489878D01*
X130453553Y-75475736D01*
X130594975Y-75475736D01*
X130922012Y-75802773D01*
X131045755Y-75802773D01*
X131255746Y-75592782D01*
X131294049Y-75535458D01*
X131320433Y-75471761D01*
X131321672Y-75465528D01*
X131500000Y-75465528D01*
X131500000Y-75962500D01*
X131587500Y-76050000D01*
X132100000Y-76050000D01*
X132100000Y-75237500D01*
X132200000Y-75237500D01*
X132200000Y-76050000D01*
X132712500Y-76050000D01*
X132800000Y-75962500D01*
X132800000Y-75465528D01*
X132786550Y-75397909D01*
X132760166Y-75334213D01*
X132721863Y-75276888D01*
X132673112Y-75228137D01*
X132615787Y-75189834D01*
X132552091Y-75163450D01*
X132484472Y-75150000D01*
X132287500Y-75150000D01*
X132200000Y-75237500D01*
X132100000Y-75237500D01*
X132012500Y-75150000D01*
X131815528Y-75150000D01*
X131747909Y-75163450D01*
X131684213Y-75189834D01*
X131626888Y-75228137D01*
X131578137Y-75276888D01*
X131539834Y-75334213D01*
X131513450Y-75397909D01*
X131500000Y-75465528D01*
X131321672Y-75465528D01*
X131333884Y-75404142D01*
X131333884Y-75335198D01*
X131320433Y-75267579D01*
X131294049Y-75203882D01*
X131255746Y-75146558D01*
X131151821Y-75042633D01*
X131028078Y-75042633D01*
X130594975Y-75475736D01*
X130453553Y-75475736D01*
X129824264Y-74846447D01*
X129810122Y-74860589D01*
X129739411Y-74789878D01*
X129753553Y-74775736D01*
X129894975Y-74775736D01*
X130524264Y-75405025D01*
X130957367Y-74971922D01*
X130957367Y-74848179D01*
X130853442Y-74744254D01*
X130796118Y-74705951D01*
X130732421Y-74679567D01*
X130664802Y-74666116D01*
X130633884Y-74666116D01*
X130633884Y-74635198D01*
X130620433Y-74567579D01*
X130594049Y-74503882D01*
X130555746Y-74446558D01*
X130451821Y-74342633D01*
X130328078Y-74342633D01*
X129894975Y-74775736D01*
X129753553Y-74775736D01*
X129426516Y-74448699D01*
X129302773Y-74448699D01*
X129092782Y-74658690D01*
X129054479Y-74716014D01*
X129028095Y-74779711D01*
X129020027Y-74820272D01*
X129004798Y-74821486D01*
X128912245Y-74856524D01*
X128833117Y-74915960D01*
X128587138Y-75161939D01*
X128548871Y-75158052D01*
X128507578Y-75153420D01*
X128502951Y-75153388D01*
X128502866Y-75153379D01*
X128502787Y-75153386D01*
X128501295Y-75153376D01*
X128120388Y-75153376D01*
X128147995Y-75031861D01*
X128150028Y-74886264D01*
X128125268Y-74761220D01*
X128076693Y-74643367D01*
X128006151Y-74537193D01*
X127950000Y-74480649D01*
X127950000Y-74450000D01*
X127945942Y-74408611D01*
X127942320Y-74367222D01*
X127941661Y-74364955D01*
X127941430Y-74362595D01*
X127929392Y-74322722D01*
X127917818Y-74282884D01*
X127916731Y-74280787D01*
X127916046Y-74278518D01*
X127903140Y-74254245D01*
X129497227Y-74254245D01*
X129497227Y-74377988D01*
X129824264Y-74705025D01*
X130257367Y-74271922D01*
X130257367Y-74148179D01*
X130153442Y-74044254D01*
X130096118Y-74005951D01*
X130092987Y-74004654D01*
X131049146Y-74004654D01*
X131072157Y-74130031D01*
X131119082Y-74248551D01*
X131188135Y-74355700D01*
X131276684Y-74447395D01*
X131381357Y-74520145D01*
X131498167Y-74571178D01*
X131622665Y-74598550D01*
X131750109Y-74601220D01*
X131875644Y-74579085D01*
X131994488Y-74532988D01*
X132102116Y-74464685D01*
X132194428Y-74376778D01*
X132267906Y-74272616D01*
X132277975Y-74250000D01*
X132448307Y-74250000D01*
X132448307Y-74400000D01*
X132452752Y-74455736D01*
X132482027Y-74550271D01*
X132536480Y-74632906D01*
X132611800Y-74697100D01*
X132702021Y-74737769D01*
X132800000Y-74751693D01*
X133400000Y-74751693D01*
X133455736Y-74747248D01*
X133550271Y-74717973D01*
X133632906Y-74663520D01*
X133697100Y-74588200D01*
X133737769Y-74497979D01*
X133751693Y-74400000D01*
X133751693Y-73200000D01*
X133747248Y-73144264D01*
X133717973Y-73049729D01*
X133663520Y-72967094D01*
X133603393Y-72915849D01*
X133652021Y-72937769D01*
X133750000Y-72951693D01*
X134350000Y-72951693D01*
X134405736Y-72947248D01*
X134500271Y-72917973D01*
X134582906Y-72863520D01*
X134647100Y-72788200D01*
X134687769Y-72697979D01*
X134701693Y-72600000D01*
X134701693Y-71984703D01*
X135018198Y-71668198D01*
X135044568Y-71636095D01*
X135071301Y-71604235D01*
X135072441Y-71602162D01*
X135073943Y-71600333D01*
X135093593Y-71563686D01*
X135113611Y-71527274D01*
X135114326Y-71525020D01*
X135115445Y-71522933D01*
X135127610Y-71483143D01*
X135140166Y-71443560D01*
X135140429Y-71441211D01*
X135141122Y-71438946D01*
X135145324Y-71397576D01*
X135149956Y-71356283D01*
X135149988Y-71351656D01*
X135149997Y-71351571D01*
X135149990Y-71351492D01*
X135150000Y-71350000D01*
X135150000Y-71119086D01*
X135194428Y-71076778D01*
X135267906Y-70972616D01*
X135319754Y-70856165D01*
X135347995Y-70731861D01*
X135350028Y-70586264D01*
X135325268Y-70461220D01*
X135276693Y-70343367D01*
X135206151Y-70237193D01*
X135116330Y-70146743D01*
X135010652Y-70075462D01*
X134893140Y-70026065D01*
X134768272Y-70000433D01*
X134640804Y-69999543D01*
X134515590Y-70023429D01*
X134397401Y-70071181D01*
X134290737Y-70140979D01*
X134199662Y-70230166D01*
X134127645Y-70335345D01*
X134077428Y-70452509D01*
X134050925Y-70577195D01*
X134049146Y-70704654D01*
X134072157Y-70830031D01*
X134119082Y-70948551D01*
X134183371Y-71048307D01*
X133750000Y-71048307D01*
X133694264Y-71052752D01*
X133599729Y-71082027D01*
X133517094Y-71136480D01*
X133452900Y-71211800D01*
X133412231Y-71302021D01*
X133398307Y-71400000D01*
X133398307Y-72600000D01*
X133402752Y-72655736D01*
X133432027Y-72750271D01*
X133486480Y-72832906D01*
X133546607Y-72884151D01*
X133497979Y-72862231D01*
X133400000Y-72848307D01*
X132800000Y-72848307D01*
X132744264Y-72852752D01*
X132664959Y-72877311D01*
X132673112Y-72871863D01*
X132721863Y-72823112D01*
X132760166Y-72765787D01*
X132786550Y-72702091D01*
X132800000Y-72634472D01*
X132800000Y-72137500D01*
X132712500Y-72050000D01*
X132200000Y-72050000D01*
X132200000Y-72862500D01*
X132287500Y-72950000D01*
X132484472Y-72950000D01*
X132552091Y-72936550D01*
X132592200Y-72919936D01*
X132567094Y-72936480D01*
X132502900Y-73011800D01*
X132462231Y-73102021D01*
X132448307Y-73200000D01*
X132448307Y-73350000D01*
X131950080Y-73350000D01*
X131893140Y-73326065D01*
X131768272Y-73300433D01*
X131640804Y-73299543D01*
X131515590Y-73323429D01*
X131397401Y-73371181D01*
X131290737Y-73440979D01*
X131199662Y-73530166D01*
X131127645Y-73635345D01*
X131077428Y-73752509D01*
X131050925Y-73877195D01*
X131049146Y-74004654D01*
X130092987Y-74004654D01*
X130032421Y-73979567D01*
X129964802Y-73966116D01*
X129895858Y-73966116D01*
X129828239Y-73979567D01*
X129764542Y-74005951D01*
X129707218Y-74044254D01*
X129497227Y-74254245D01*
X127903140Y-74254245D01*
X127896497Y-74241752D01*
X127877401Y-74204912D01*
X127875927Y-74203066D01*
X127874815Y-74200974D01*
X127851693Y-74172624D01*
X127851693Y-73800000D01*
X127847248Y-73744264D01*
X127817973Y-73649729D01*
X127763520Y-73567094D01*
X127688200Y-73502900D01*
X127597979Y-73462231D01*
X127500000Y-73448307D01*
X126700000Y-73448307D01*
X126644264Y-73452752D01*
X126549729Y-73482027D01*
X126501217Y-73513994D01*
X126488200Y-73502900D01*
X126397979Y-73462231D01*
X126300000Y-73448307D01*
X125500000Y-73448307D01*
X125444264Y-73452752D01*
X125364003Y-73477607D01*
X125299790Y-73413394D01*
X125301693Y-73400000D01*
X125301693Y-72800000D01*
X125297248Y-72744264D01*
X125267973Y-72649729D01*
X125213520Y-72567094D01*
X125138200Y-72502900D01*
X125047979Y-72462231D01*
X124950000Y-72448307D01*
X123750000Y-72448307D01*
X123694264Y-72452752D01*
X123599729Y-72482027D01*
X123517094Y-72536480D01*
X123452900Y-72611800D01*
X123412231Y-72702021D01*
X123398307Y-72800000D01*
X123398307Y-73400000D01*
X123402752Y-73455736D01*
X123432027Y-73550271D01*
X123486480Y-73632906D01*
X123561800Y-73697100D01*
X123652021Y-73737769D01*
X123750000Y-73751693D01*
X124365297Y-73751693D01*
X124963604Y-74350000D01*
X124487500Y-74350000D01*
X124400000Y-74437500D01*
X124400000Y-74950000D01*
X125212500Y-74950000D01*
X125300000Y-74862500D01*
X125300000Y-74665528D01*
X125286550Y-74597909D01*
X125272254Y-74563396D01*
X125311800Y-74597100D01*
X125402021Y-74637769D01*
X125500000Y-74651693D01*
X126300000Y-74651693D01*
X126355736Y-74647248D01*
X126450271Y-74617973D01*
X126498783Y-74586006D01*
X126511800Y-74597100D01*
X126602021Y-74637769D01*
X126700000Y-74651693D01*
X126920638Y-74651693D01*
X126877428Y-74752509D01*
X126850925Y-74877195D01*
X126849146Y-75004654D01*
X126872157Y-75130031D01*
X126919082Y-75248551D01*
X126988135Y-75355700D01*
X127025149Y-75394029D01*
X126569517Y-75849661D01*
X126569513Y-75849664D01*
X126500000Y-75919177D01*
X126430487Y-75849664D01*
X126430482Y-75849660D01*
X125900157Y-75319335D01*
X125857602Y-75283067D01*
X125770055Y-75236922D01*
X125673119Y-75216994D01*
X125574468Y-75224861D01*
X125481915Y-75259899D01*
X125402787Y-75319335D01*
X125262875Y-75459247D01*
X125286550Y-75402091D01*
X125300000Y-75334472D01*
X125300000Y-75137500D01*
X125212500Y-75050000D01*
X124400000Y-75050000D01*
X124400000Y-75562500D01*
X124487500Y-75650000D01*
X124984472Y-75650000D01*
X125052091Y-75636550D01*
X125115787Y-75610166D01*
X125145964Y-75590003D01*
X125134911Y-75610973D01*
X125128362Y-75613452D01*
X125049234Y-75672888D01*
X124837102Y-75885020D01*
X124800834Y-75927575D01*
X124781358Y-75964525D01*
X124774808Y-75967005D01*
X124695680Y-76026441D01*
X124483548Y-76238573D01*
X124447280Y-76281128D01*
X124427803Y-76318080D01*
X124421255Y-76320559D01*
X124342127Y-76379995D01*
X124129995Y-76592127D01*
X124093727Y-76634682D01*
X124074251Y-76671632D01*
X124067701Y-76674112D01*
X123988573Y-76733548D01*
X123776441Y-76945680D01*
X123740173Y-76988235D01*
X123720696Y-77025187D01*
X123714148Y-77027666D01*
X123635020Y-77087102D01*
X123422888Y-77299234D01*
X123386620Y-77341789D01*
X123367144Y-77378740D01*
X123360595Y-77381219D01*
X123281467Y-77440655D01*
X123072122Y-77650000D01*
X118198528Y-77650000D01*
X120711028Y-75137500D01*
X123400000Y-75137500D01*
X123400000Y-75334472D01*
X123413450Y-75402091D01*
X123439834Y-75465787D01*
X123478137Y-75523112D01*
X123526888Y-75571863D01*
X123584213Y-75610166D01*
X123647909Y-75636550D01*
X123715528Y-75650000D01*
X124212500Y-75650000D01*
X124300000Y-75562500D01*
X124300000Y-75050000D01*
X123487500Y-75050000D01*
X123400000Y-75137500D01*
X120711028Y-75137500D01*
X121229207Y-74619321D01*
X121261800Y-74647100D01*
X121352021Y-74687769D01*
X121450000Y-74701693D01*
X122650000Y-74701693D01*
X122705736Y-74697248D01*
X122800271Y-74667973D01*
X122803981Y-74665528D01*
X123400000Y-74665528D01*
X123400000Y-74862500D01*
X123487500Y-74950000D01*
X124300000Y-74950000D01*
X124300000Y-74437500D01*
X124212500Y-74350000D01*
X123715528Y-74350000D01*
X123647909Y-74363450D01*
X123584213Y-74389834D01*
X123526888Y-74428137D01*
X123478137Y-74476888D01*
X123439834Y-74534213D01*
X123413450Y-74597909D01*
X123400000Y-74665528D01*
X122803981Y-74665528D01*
X122882906Y-74613520D01*
X122947100Y-74538200D01*
X122987769Y-74447979D01*
X123001693Y-74350000D01*
X123001693Y-73750000D01*
X122997248Y-73694264D01*
X122967973Y-73599729D01*
X122913520Y-73517094D01*
X122838200Y-73452900D01*
X122747979Y-73412231D01*
X122650000Y-73398307D01*
X122500000Y-73398307D01*
X122500000Y-73150000D01*
X122495947Y-73108661D01*
X122492321Y-73067222D01*
X122491661Y-73064950D01*
X122491430Y-73062595D01*
X122479418Y-73022810D01*
X122467819Y-72982884D01*
X122466730Y-72980783D01*
X122466046Y-72978518D01*
X122446516Y-72941788D01*
X122427401Y-72904912D01*
X122425927Y-72903066D01*
X122424815Y-72900974D01*
X122398530Y-72868746D01*
X122372610Y-72836276D01*
X122369362Y-72832982D01*
X122369307Y-72832915D01*
X122369245Y-72832864D01*
X122368198Y-72831802D01*
X122201693Y-72665297D01*
X122201693Y-72300000D01*
X122197840Y-72251693D01*
X122650000Y-72251693D01*
X122705736Y-72247248D01*
X122800271Y-72217973D01*
X122882906Y-72163520D01*
X122947100Y-72088200D01*
X122987769Y-71997979D01*
X122994587Y-71950000D01*
X129063604Y-71950000D01*
X129350097Y-72236493D01*
X129349146Y-72304654D01*
X129372157Y-72430031D01*
X129419082Y-72548551D01*
X129488135Y-72655700D01*
X129576684Y-72747395D01*
X129681357Y-72820145D01*
X129798167Y-72871178D01*
X129922665Y-72898550D01*
X130050109Y-72901220D01*
X130175644Y-72879085D01*
X130294488Y-72832988D01*
X130402116Y-72764685D01*
X130494428Y-72676778D01*
X130567906Y-72572616D01*
X130619754Y-72456165D01*
X130647995Y-72331861D01*
X130649114Y-72251693D01*
X130950000Y-72251693D01*
X131005736Y-72247248D01*
X131100271Y-72217973D01*
X131182906Y-72163520D01*
X131205082Y-72137500D01*
X131500000Y-72137500D01*
X131500000Y-72634472D01*
X131513450Y-72702091D01*
X131539834Y-72765787D01*
X131578137Y-72823112D01*
X131626888Y-72871863D01*
X131684213Y-72910166D01*
X131747909Y-72936550D01*
X131815528Y-72950000D01*
X132012500Y-72950000D01*
X132100000Y-72862500D01*
X132100000Y-72050000D01*
X131587500Y-72050000D01*
X131500000Y-72137500D01*
X131205082Y-72137500D01*
X131247100Y-72088200D01*
X131287769Y-71997979D01*
X131301693Y-71900000D01*
X131301693Y-71534703D01*
X131507233Y-71329163D01*
X131500000Y-71365528D01*
X131500000Y-71862500D01*
X131587500Y-71950000D01*
X132100000Y-71950000D01*
X132100000Y-71137500D01*
X132200000Y-71137500D01*
X132200000Y-71950000D01*
X132712500Y-71950000D01*
X132800000Y-71862500D01*
X132800000Y-71365528D01*
X132786550Y-71297909D01*
X132760166Y-71234213D01*
X132721863Y-71176888D01*
X132673112Y-71128137D01*
X132615787Y-71089834D01*
X132552091Y-71063450D01*
X132484472Y-71050000D01*
X132287500Y-71050000D01*
X132200000Y-71137500D01*
X132100000Y-71137500D01*
X132012500Y-71050000D01*
X131815528Y-71050000D01*
X131779163Y-71057233D01*
X132459351Y-70377045D01*
X132482027Y-70450271D01*
X132536480Y-70532906D01*
X132611800Y-70597100D01*
X132702021Y-70637769D01*
X132800000Y-70651693D01*
X133400000Y-70651693D01*
X133455736Y-70647248D01*
X133550271Y-70617973D01*
X133632906Y-70563520D01*
X133697100Y-70488200D01*
X133737769Y-70397979D01*
X133751693Y-70300000D01*
X133751693Y-69100000D01*
X133747248Y-69044264D01*
X133717973Y-68949729D01*
X133663520Y-68867094D01*
X133588200Y-68802900D01*
X133497979Y-68762231D01*
X133400000Y-68748307D01*
X132800000Y-68748307D01*
X132744264Y-68752752D01*
X132649729Y-68782027D01*
X132567094Y-68836480D01*
X132502900Y-68911800D01*
X132462231Y-69002021D01*
X132448307Y-69100000D01*
X132448307Y-69254960D01*
X132417222Y-69257680D01*
X132414955Y-69258339D01*
X132412595Y-69258570D01*
X132372722Y-69270608D01*
X132332884Y-69282182D01*
X132330787Y-69283269D01*
X132328518Y-69283954D01*
X132291752Y-69303503D01*
X132254912Y-69322599D01*
X132253066Y-69324073D01*
X132250974Y-69325185D01*
X132218715Y-69351495D01*
X132186276Y-69377391D01*
X132182984Y-69380637D01*
X132182915Y-69380693D01*
X132182863Y-69380756D01*
X132181802Y-69381802D01*
X131301693Y-70261911D01*
X131301693Y-69900000D01*
X131297248Y-69844264D01*
X131267973Y-69749729D01*
X131213520Y-69667094D01*
X131138200Y-69602900D01*
X131047979Y-69562231D01*
X130950000Y-69548307D01*
X130450000Y-69548307D01*
X130394264Y-69552752D01*
X130299729Y-69582027D01*
X130223019Y-69632576D01*
X130188200Y-69602900D01*
X130097979Y-69562231D01*
X130000000Y-69548307D01*
X128400000Y-69548307D01*
X128346812Y-69552549D01*
X128348323Y-69444349D01*
X128400000Y-69451693D01*
X130000000Y-69451693D01*
X130055736Y-69447248D01*
X130150271Y-69417973D01*
X130232906Y-69363520D01*
X130297100Y-69288200D01*
X130337769Y-69197979D01*
X130351693Y-69100000D01*
X131549692Y-69100000D01*
X131598167Y-69121178D01*
X131722665Y-69148550D01*
X131850109Y-69151220D01*
X131975644Y-69129085D01*
X132094488Y-69082988D01*
X132202116Y-69014685D01*
X132294428Y-68926778D01*
X132367906Y-68822616D01*
X132419754Y-68706165D01*
X132447995Y-68581861D01*
X132450028Y-68436264D01*
X132425268Y-68311220D01*
X132376693Y-68193367D01*
X132306151Y-68087193D01*
X132216330Y-67996743D01*
X132110652Y-67925462D01*
X131993140Y-67876065D01*
X131868272Y-67850433D01*
X131740804Y-67849543D01*
X131615590Y-67873429D01*
X131549825Y-67900000D01*
X130351693Y-67900000D01*
X130347248Y-67844264D01*
X130317973Y-67749729D01*
X130263520Y-67667094D01*
X130188200Y-67602900D01*
X130097979Y-67562231D01*
X130000000Y-67548307D01*
X129496835Y-67548307D01*
X128824264Y-66875736D01*
X128781441Y-66840561D01*
X128738980Y-66804932D01*
X128736216Y-66803413D01*
X128733777Y-66801409D01*
X128684899Y-66775201D01*
X128636365Y-66748519D01*
X128633360Y-66747566D01*
X128630578Y-66746074D01*
X128577560Y-66729865D01*
X128524747Y-66713111D01*
X128521612Y-66712759D01*
X128518595Y-66711837D01*
X128463496Y-66706241D01*
X128408377Y-66700058D01*
X128402205Y-66700015D01*
X128402094Y-66700004D01*
X128401991Y-66700014D01*
X128400000Y-66700000D01*
X122789998Y-66700000D01*
X122734828Y-66705409D01*
X122679627Y-66710239D01*
X122676598Y-66711119D01*
X122673457Y-66711427D01*
X122620360Y-66727458D01*
X122567177Y-66742909D01*
X122564379Y-66744359D01*
X122561356Y-66745272D01*
X122512425Y-66771289D01*
X122463214Y-66796797D01*
X122460746Y-66798767D01*
X122457963Y-66800247D01*
X122415078Y-66835223D01*
X122371698Y-66869853D01*
X122367306Y-66874186D01*
X122367217Y-66874258D01*
X122367149Y-66874340D01*
X122365734Y-66875736D01*
X122125735Y-67115735D01*
X122090560Y-67158558D01*
X122054931Y-67201019D01*
X122053412Y-67203783D01*
X122051408Y-67206222D01*
X122025200Y-67255100D01*
X121998518Y-67303634D01*
X121997565Y-67306639D01*
X121996073Y-67309421D01*
X121979864Y-67362438D01*
X121963110Y-67415252D01*
X121962758Y-67418387D01*
X121961836Y-67421404D01*
X121956240Y-67476503D01*
X121950057Y-67531622D01*
X121950014Y-67537794D01*
X121950003Y-67537905D01*
X121950013Y-67538008D01*
X121949999Y-67539999D01*
X121949999Y-67701473D01*
X120475735Y-69175737D01*
X120440560Y-69218560D01*
X120404931Y-69261021D01*
X120403412Y-69263785D01*
X120401408Y-69266224D01*
X120375200Y-69315102D01*
X120348518Y-69363636D01*
X120347565Y-69366641D01*
X120346073Y-69369423D01*
X120329864Y-69422441D01*
X120313110Y-69475254D01*
X120312758Y-69478389D01*
X120311836Y-69481406D01*
X120306240Y-69536505D01*
X120300057Y-69591624D01*
X120300014Y-69597796D01*
X120300003Y-69597907D01*
X120300013Y-69598010D01*
X120299999Y-69600001D01*
X120300000Y-73851472D01*
X115815069Y-78336403D01*
X115820071Y-77978209D01*
X115757220Y-77660790D01*
X115633913Y-77361624D01*
X115454846Y-77092106D01*
X115226839Y-76862501D01*
X114958577Y-76681557D01*
X114660279Y-76556164D01*
X114343307Y-76491099D01*
X114019733Y-76488840D01*
X113701882Y-76549473D01*
X113401863Y-76670689D01*
X113131101Y-76847870D01*
X112899911Y-77074268D01*
X112717098Y-77341260D01*
X112589625Y-77638676D01*
X112530429Y-77917174D01*
X112441022Y-77741704D01*
X112323335Y-77703466D01*
X111688493Y-78026934D01*
X112397853Y-79419131D01*
X112515540Y-79457370D01*
X112869245Y-79277149D01*
X112923388Y-79234466D01*
X112927920Y-79229159D01*
X113095428Y-79402618D01*
X113361136Y-79587291D01*
X113657655Y-79716836D01*
X113973688Y-79786321D01*
X114297199Y-79793098D01*
X114371470Y-79780002D01*
X113775736Y-80375736D01*
X113740561Y-80418559D01*
X113728294Y-80433178D01*
X113130838Y-81030634D01*
X111649598Y-81030634D01*
X111418672Y-80577416D01*
X111389408Y-80529772D01*
X111320405Y-80458832D01*
X111234371Y-80409924D01*
X111138118Y-80386921D01*
X111039267Y-80391645D01*
X110945645Y-80423720D01*
X110892562Y-80450767D01*
X110757531Y-80315736D01*
X110714708Y-80280561D01*
X110672247Y-80244932D01*
X110669483Y-80243413D01*
X110667044Y-80241409D01*
X110618166Y-80215201D01*
X110569632Y-80188519D01*
X110566627Y-80187566D01*
X110563845Y-80186074D01*
X110510827Y-80169865D01*
X110458014Y-80153111D01*
X110454879Y-80152759D01*
X110451862Y-80151837D01*
X110396763Y-80146241D01*
X110341644Y-80140058D01*
X110335472Y-80140015D01*
X110335361Y-80140004D01*
X110335258Y-80140014D01*
X110333267Y-80140000D01*
X109870000Y-80140000D01*
X109849665Y-80141994D01*
X109829237Y-80141386D01*
X109791514Y-80147696D01*
X109753459Y-80151427D01*
X109733899Y-80157333D01*
X109713742Y-80160704D01*
X109677965Y-80174220D01*
X109641358Y-80185272D01*
X109623317Y-80194865D01*
X109604199Y-80202087D01*
X109596715Y-80205851D01*
X105296715Y-82405851D01*
X105269807Y-82423123D01*
X105241462Y-82437941D01*
X105220641Y-82454682D01*
X105198169Y-82469106D01*
X105175129Y-82491274D01*
X105150202Y-82511316D01*
X105133033Y-82531777D01*
X105113787Y-82550295D01*
X105095486Y-82576524D01*
X105074932Y-82601020D01*
X105062066Y-82624423D01*
X105046781Y-82646330D01*
X105033923Y-82675615D01*
X105018519Y-82703635D01*
X105010443Y-82729093D01*
X104999705Y-82753550D01*
X104992781Y-82784768D01*
X104983111Y-82815253D01*
X104980133Y-82841799D01*
X104974351Y-82867872D01*
X104973623Y-82899840D01*
X104972660Y-82908423D01*
X104956777Y-82877250D01*
X104421963Y-81827619D01*
X104304276Y-81789381D01*
X103669434Y-82112849D01*
X104378794Y-83505046D01*
X104496481Y-83543285D01*
X104850186Y-83363064D01*
X104858116Y-83356812D01*
X104772019Y-83629453D01*
X103611771Y-84789701D01*
X103602497Y-84787794D01*
X103503846Y-84795661D01*
X103411293Y-84830699D01*
X103332165Y-84890135D01*
X102483637Y-85738663D01*
X102447369Y-85781218D01*
X102401224Y-85868765D01*
X102381296Y-85965701D01*
X102389163Y-86064352D01*
X102424201Y-86156905D01*
X102476402Y-86226401D01*
X102460460Y-86210459D01*
X102403136Y-86172156D01*
X102339439Y-86145772D01*
X102271820Y-86132322D01*
X102202876Y-86132322D01*
X102135257Y-86145772D01*
X102071560Y-86172156D01*
X102014236Y-86210459D01*
X101662824Y-86561871D01*
X101662824Y-86685615D01*
X102078249Y-87101040D01*
X102092391Y-87086898D01*
X102163102Y-87157609D01*
X102148960Y-87171751D01*
X102163102Y-87185893D01*
X102092391Y-87256604D01*
X102078249Y-87242462D01*
X101503725Y-87816986D01*
X98773008Y-87816986D01*
X98997548Y-87729893D01*
X99270757Y-87556509D01*
X99505086Y-87333361D01*
X99531174Y-87296378D01*
X101038820Y-87296378D01*
X101038820Y-87365322D01*
X101052270Y-87432941D01*
X101078654Y-87496638D01*
X101116957Y-87553962D01*
X101309270Y-87746275D01*
X101433014Y-87746275D01*
X102007538Y-87171751D01*
X101592113Y-86756326D01*
X101468369Y-86756326D01*
X101116957Y-87107738D01*
X101078654Y-87165062D01*
X101052270Y-87228759D01*
X101038820Y-87296378D01*
X99531174Y-87296378D01*
X99691609Y-87068948D01*
X99823221Y-86773341D01*
X99894910Y-86457800D01*
X99900071Y-86088209D01*
X99837220Y-85770790D01*
X99713913Y-85471624D01*
X99534846Y-85202106D01*
X99306839Y-84972501D01*
X99038577Y-84791557D01*
X98740279Y-84666164D01*
X98423307Y-84601099D01*
X98099733Y-84598840D01*
X97871407Y-84642395D01*
X98077381Y-84483240D01*
X98600720Y-84092384D01*
X99121404Y-83716348D01*
X99639567Y-83354292D01*
X100155212Y-83005458D01*
X100668384Y-82669079D01*
X100777982Y-82599403D01*
X102907252Y-82599403D01*
X103442066Y-83649034D01*
X103473366Y-83710464D01*
X103516048Y-83764606D01*
X103568474Y-83809382D01*
X103628627Y-83843070D01*
X103694197Y-83864374D01*
X103762663Y-83872478D01*
X103831395Y-83867069D01*
X103897750Y-83848354D01*
X104251454Y-83668133D01*
X104289693Y-83550446D01*
X103580333Y-82158248D01*
X102945491Y-82481716D01*
X102907252Y-82599403D01*
X100777982Y-82599403D01*
X101178917Y-82344513D01*
X101687056Y-82030868D01*
X102192580Y-81727533D01*
X102400984Y-81605797D01*
X102782405Y-82354377D01*
X102900092Y-82392615D01*
X103534934Y-82069147D01*
X103525854Y-82051327D01*
X103614955Y-82005928D01*
X103624035Y-82023748D01*
X104258877Y-81700280D01*
X104297116Y-81582593D01*
X103882560Y-80768981D01*
X104189783Y-80601713D01*
X104682837Y-80338442D01*
X105173473Y-80080916D01*
X105661408Y-79828537D01*
X106147125Y-79580315D01*
X106629811Y-79335915D01*
X107110772Y-79093927D01*
X107110774Y-79093926D01*
X107588524Y-78854351D01*
X108063730Y-78616099D01*
X108063752Y-78616085D01*
X108064157Y-78615885D01*
X108267785Y-78513488D01*
X110926311Y-78513488D01*
X111461125Y-79563119D01*
X111492425Y-79624549D01*
X111535107Y-79678691D01*
X111587533Y-79723467D01*
X111647686Y-79757155D01*
X111713256Y-79778459D01*
X111781722Y-79786563D01*
X111850454Y-79781154D01*
X111916809Y-79762439D01*
X112270513Y-79582218D01*
X112308752Y-79464531D01*
X111599392Y-78072333D01*
X110964550Y-78395801D01*
X110926311Y-78513488D01*
X108267785Y-78513488D01*
X108536379Y-78378423D01*
X108536426Y-78378393D01*
X108537265Y-78377976D01*
X109006454Y-78140579D01*
X109006519Y-78140538D01*
X109007807Y-78139891D01*
X109473940Y-77901814D01*
X109474013Y-77901767D01*
X109475758Y-77900880D01*
X109938814Y-77661383D01*
X109938899Y-77661328D01*
X109941100Y-77660191D01*
X110375297Y-77432062D01*
X110801464Y-78268462D01*
X110919151Y-78306700D01*
X111553993Y-77983232D01*
X111544913Y-77965412D01*
X111634014Y-77920013D01*
X111643094Y-77937833D01*
X112277936Y-77614365D01*
X112316175Y-77496678D01*
X111866185Y-76613524D01*
X112223122Y-76407872D01*
X112223144Y-76407856D01*
X112227596Y-76405256D01*
X112671746Y-76141631D01*
X112671780Y-76141606D01*
X112671825Y-76141585D01*
X112676607Y-76138699D01*
X113117528Y-75868457D01*
X113117753Y-75868287D01*
X113118013Y-75868160D01*
X113122750Y-75865201D01*
X113560425Y-75587597D01*
X113560832Y-75587279D01*
X113561293Y-75587045D01*
X113565981Y-75584008D01*
X114000388Y-75298298D01*
X114000961Y-75297836D01*
X114001610Y-75297491D01*
X114006243Y-75294373D01*
X114437360Y-74999815D01*
X114438084Y-74999209D01*
X114438904Y-74998754D01*
X114443479Y-74995550D01*
X114871288Y-74691399D01*
X114872143Y-74690656D01*
X114873119Y-74690089D01*
X114877630Y-74686796D01*
X115302106Y-74372316D01*
X115303077Y-74371438D01*
X115304193Y-74370759D01*
X115308635Y-74367374D01*
X115729759Y-74041817D01*
X115730825Y-74040812D01*
X115732061Y-74040024D01*
X115736431Y-74036545D01*
X116154179Y-73699171D01*
X116155323Y-73698046D01*
X116156656Y-73697154D01*
X116160949Y-73693580D01*
X116575304Y-73343644D01*
X116576508Y-73342407D01*
X116577922Y-73341414D01*
X116582132Y-73337745D01*
X116993067Y-72974505D01*
X116994309Y-72973169D01*
X116995779Y-72972086D01*
X116999904Y-72968320D01*
X117407404Y-72591034D01*
X117408670Y-72589609D01*
X117410177Y-72588442D01*
X117414213Y-72584581D01*
X117818254Y-72192507D01*
X117819524Y-72191007D01*
X117821049Y-72189768D01*
X117824991Y-72185811D01*
X118225552Y-71778206D01*
X118226812Y-71776645D01*
X118228334Y-71775346D01*
X118232181Y-71771297D01*
X118629240Y-71347419D01*
X118630473Y-71345813D01*
X118631981Y-71344463D01*
X118635729Y-71340323D01*
X119029265Y-70899427D01*
X119030457Y-70897795D01*
X119031932Y-70896409D01*
X119035579Y-70892179D01*
X119425574Y-70433525D01*
X119426719Y-70431876D01*
X119428146Y-70430469D01*
X119431692Y-70426153D01*
X119818118Y-69948998D01*
X119819203Y-69947353D01*
X119820572Y-69945937D01*
X119824014Y-69941539D01*
X120206854Y-69445138D01*
X120207869Y-69443516D01*
X120209171Y-69442105D01*
X120212508Y-69437626D01*
X120591744Y-68921241D01*
X120592690Y-68919647D01*
X120593915Y-68918256D01*
X120597148Y-68913701D01*
X120972752Y-68376584D01*
X120973620Y-68375042D01*
X120974764Y-68373681D01*
X120977891Y-68369053D01*
X121349847Y-67810464D01*
X121350639Y-67808978D01*
X121351694Y-67807665D01*
X121354717Y-67802969D01*
X121723000Y-67222167D01*
X121723713Y-67220754D01*
X121724680Y-67219495D01*
X121727601Y-67214734D01*
X122086722Y-66620030D01*
X122440555Y-66098455D01*
X122856605Y-65625533D01*
X123339565Y-65198123D01*
X123885692Y-64825302D01*
X124491449Y-64515949D01*
X125153591Y-64278844D01*
X125869212Y-64122867D01*
X126637521Y-64056989D01*
X127365674Y-64080982D01*
G36*
X105984933Y-87472175D02*
X105983302Y-87473805D01*
X105978922Y-87470072D01*
X105891375Y-87423927D01*
X105794439Y-87403999D01*
X105695788Y-87411866D01*
X105603235Y-87446904D01*
X105524107Y-87506340D01*
X105099843Y-87930604D01*
X105063575Y-87973159D01*
X105017430Y-88060706D01*
X105011890Y-88087653D01*
X104998950Y-88090227D01*
X104935253Y-88116611D01*
X104877929Y-88154914D01*
X104738649Y-88294194D01*
X104738649Y-88417938D01*
X105313173Y-88992462D01*
X105327315Y-88978320D01*
X105398026Y-89049031D01*
X105383884Y-89063173D01*
X105398026Y-89077315D01*
X105327315Y-89148026D01*
X105313173Y-89133884D01*
X105299031Y-89148026D01*
X105228320Y-89077315D01*
X105242462Y-89063173D01*
X104667938Y-88488649D01*
X104544194Y-88488649D01*
X104404914Y-88627929D01*
X104366611Y-88685253D01*
X104340227Y-88748950D01*
X104337864Y-88760828D01*
X104259732Y-88790407D01*
X104180604Y-88849843D01*
X103756340Y-89274107D01*
X103720072Y-89316662D01*
X103673927Y-89404209D01*
X103653999Y-89501145D01*
X103661866Y-89599796D01*
X103696904Y-89692349D01*
X103749156Y-89761913D01*
X103615076Y-89627833D01*
X103615076Y-88854477D01*
X103900157Y-88569396D01*
X103936425Y-88526841D01*
X103982570Y-88439294D01*
X104002498Y-88342358D01*
X103994631Y-88243707D01*
X103959593Y-88151154D01*
X103900157Y-88072026D01*
X103051629Y-87223498D01*
X103049149Y-87221385D01*
X103077844Y-87178440D01*
X103104228Y-87114743D01*
X103117678Y-87047124D01*
X103117678Y-86978180D01*
X103104228Y-86910561D01*
X103077844Y-86846864D01*
X103039541Y-86789540D01*
X103030192Y-86780191D01*
X103056522Y-86802631D01*
X103144069Y-86848776D01*
X103241005Y-86868704D01*
X103339656Y-86860837D01*
X103432209Y-86825799D01*
X103470212Y-86797254D01*
X103473498Y-86801629D01*
X104322026Y-87650157D01*
X104364581Y-87686425D01*
X104452128Y-87732570D01*
X104549064Y-87752498D01*
X104647715Y-87744631D01*
X104740268Y-87709593D01*
X104819396Y-87650157D01*
X105243660Y-87225893D01*
X105279928Y-87183338D01*
X105326073Y-87095791D01*
X105346001Y-86998855D01*
X105338134Y-86900204D01*
X105303096Y-86807651D01*
X105273991Y-86768902D01*
X105277826Y-86765068D01*
X105984933Y-87472175D01*
X105984933Y-87472175D01*
G37*
X105984933Y-87472175D02*
X105983302Y-87473805D01*
X105978922Y-87470072D01*
X105891375Y-87423927D01*
X105794439Y-87403999D01*
X105695788Y-87411866D01*
X105603235Y-87446904D01*
X105524107Y-87506340D01*
X105099843Y-87930604D01*
X105063575Y-87973159D01*
X105017430Y-88060706D01*
X105011890Y-88087653D01*
X104998950Y-88090227D01*
X104935253Y-88116611D01*
X104877929Y-88154914D01*
X104738649Y-88294194D01*
X104738649Y-88417938D01*
X105313173Y-88992462D01*
X105327315Y-88978320D01*
X105398026Y-89049031D01*
X105383884Y-89063173D01*
X105398026Y-89077315D01*
X105327315Y-89148026D01*
X105313173Y-89133884D01*
X105299031Y-89148026D01*
X105228320Y-89077315D01*
X105242462Y-89063173D01*
X104667938Y-88488649D01*
X104544194Y-88488649D01*
X104404914Y-88627929D01*
X104366611Y-88685253D01*
X104340227Y-88748950D01*
X104337864Y-88760828D01*
X104259732Y-88790407D01*
X104180604Y-88849843D01*
X103756340Y-89274107D01*
X103720072Y-89316662D01*
X103673927Y-89404209D01*
X103653999Y-89501145D01*
X103661866Y-89599796D01*
X103696904Y-89692349D01*
X103749156Y-89761913D01*
X103615076Y-89627833D01*
X103615076Y-88854477D01*
X103900157Y-88569396D01*
X103936425Y-88526841D01*
X103982570Y-88439294D01*
X104002498Y-88342358D01*
X103994631Y-88243707D01*
X103959593Y-88151154D01*
X103900157Y-88072026D01*
X103051629Y-87223498D01*
X103049149Y-87221385D01*
X103077844Y-87178440D01*
X103104228Y-87114743D01*
X103117678Y-87047124D01*
X103117678Y-86978180D01*
X103104228Y-86910561D01*
X103077844Y-86846864D01*
X103039541Y-86789540D01*
X103030192Y-86780191D01*
X103056522Y-86802631D01*
X103144069Y-86848776D01*
X103241005Y-86868704D01*
X103339656Y-86860837D01*
X103432209Y-86825799D01*
X103470212Y-86797254D01*
X103473498Y-86801629D01*
X104322026Y-87650157D01*
X104364581Y-87686425D01*
X104452128Y-87732570D01*
X104549064Y-87752498D01*
X104647715Y-87744631D01*
X104740268Y-87709593D01*
X104819396Y-87650157D01*
X105243660Y-87225893D01*
X105279928Y-87183338D01*
X105326073Y-87095791D01*
X105346001Y-86998855D01*
X105338134Y-86900204D01*
X105303096Y-86807651D01*
X105273991Y-86768902D01*
X105277826Y-86765068D01*
X105984933Y-87472175D01*
M02*
