G04 #@! TF.FileFunction,Profile,NP*
%FSLAX46Y46*%
G04 Gerber Fmt 4.6, Leading zero omitted, Abs format (unit mm)*
G04 Created by KiCad (PCBNEW 4.0.7-e2-6376~58~ubuntu14.04.1) date Mon Aug  6 16:33:39 2018*
%MOMM*%
%LPD*%
G01*
G04 APERTURE LIST*
%ADD10C,0.100000*%
G04 APERTURE END LIST*
D10*
X119890111Y-69200856D02*
X119507271Y-69697256D01*
X131796649Y-86368329D02*
X132369509Y-86634862D01*
X111084117Y-89735327D02*
X111671328Y-89350374D01*
X94064946Y-87407454D02*
X93516374Y-87948189D01*
X94611077Y-86887573D02*
X94064946Y-87407454D01*
X106454549Y-93286397D02*
X107025567Y-92799214D01*
X102495799Y-81087169D02*
X101988815Y-81383316D01*
X119120844Y-70174412D02*
X118730849Y-70633066D01*
X112023432Y-76061283D02*
X111576081Y-76319028D01*
X117940254Y-71497840D02*
X117539694Y-71905445D01*
X113780587Y-74964101D02*
X113346179Y-75249812D01*
X106930991Y-78736605D02*
X106449791Y-78978713D01*
X103085609Y-96442717D02*
X103639727Y-95890258D01*
X135194822Y-88325447D02*
X135751293Y-88737048D01*
X97835438Y-84164690D02*
X97304391Y-84575027D01*
X130567531Y-64952003D02*
X130212284Y-64679108D01*
X121195676Y-85279674D02*
X121793237Y-85169632D01*
X144197564Y-78558803D02*
X130855508Y-65215892D01*
X110671847Y-76819859D02*
X110215011Y-77064427D01*
X130855508Y-65215892D02*
X130567531Y-64952003D01*
X121793237Y-85169632D02*
X122390388Y-85078206D01*
X122572794Y-65342556D02*
X122123637Y-65853110D01*
X128103898Y-63784557D02*
X127401277Y-63681938D01*
X122390388Y-85078206D02*
X122987014Y-85005664D01*
X117608045Y-86315618D02*
X118205687Y-86099591D01*
X110498537Y-90134009D02*
X111084117Y-89735327D01*
X123681143Y-64480621D02*
X123093285Y-64881930D01*
X127139243Y-85049459D02*
X127727608Y-85137769D01*
X113441590Y-88280596D02*
X114034180Y-87953269D01*
X117010784Y-86548358D02*
X117608045Y-86315618D01*
X120644951Y-68147354D02*
X120269347Y-68684471D01*
X134072943Y-87576545D02*
X134635333Y-87938704D01*
X96770780Y-85001764D02*
X96234620Y-85445646D01*
X116728152Y-72674805D02*
X116317217Y-73038045D01*
X107884454Y-78258524D02*
X107409220Y-78496790D01*
X104757149Y-94816211D02*
X105320228Y-94295169D01*
X124772623Y-84904070D02*
X125366026Y-84909771D01*
X104988583Y-79726209D02*
X104495713Y-79984908D01*
X125366026Y-84909771D02*
X125958340Y-84935735D01*
X118337313Y-71073962D02*
X117940254Y-71497840D01*
X114639513Y-74365392D02*
X114211704Y-74669543D01*
X125043110Y-63893534D02*
X124332407Y-64148028D01*
X103639727Y-95890258D02*
X104196947Y-95347999D01*
X92411993Y-89095202D02*
X91856227Y-89702965D01*
X108825865Y-77783665D02*
X108356676Y-78021062D01*
X93516374Y-87948189D02*
X92965383Y-88510525D01*
X119401669Y-85718769D02*
X119999780Y-85554513D01*
X101479076Y-81689180D02*
X100966597Y-82005504D01*
X109291998Y-77545588D02*
X108825865Y-77783665D01*
X121385189Y-67007963D02*
X121016906Y-67588765D01*
X118803600Y-85900551D02*
X119401669Y-85718769D01*
X123093285Y-64881930D02*
X122572794Y-65342556D01*
X119999780Y-85554513D02*
X120597820Y-85408059D01*
X100902392Y-98749130D02*
X101442980Y-98158583D01*
X117135653Y-72297519D02*
X116728152Y-72674805D01*
X109914695Y-90546149D02*
X110498537Y-90134009D01*
X108752691Y-91409718D02*
X109332708Y-90971475D01*
X130212284Y-64679108D02*
X129789030Y-64411564D01*
X95154750Y-86387808D02*
X94611077Y-86887573D01*
X122987014Y-85005664D02*
X123583006Y-84952279D01*
X130644042Y-85904672D02*
X131221457Y-86125022D01*
X114627829Y-87641030D02*
X115222429Y-87344149D01*
X132369509Y-86634862D02*
X132939920Y-86924896D01*
X122123637Y-65853110D02*
X121749780Y-66404203D01*
X119507271Y-69697256D02*
X119120844Y-70174412D01*
X128735573Y-63949933D02*
X128103898Y-63784557D01*
X107025567Y-92799214D02*
X107599006Y-92323856D01*
X129482999Y-85531757D02*
X130064518Y-85707006D01*
X120269347Y-68684471D02*
X119890111Y-69200856D01*
X115222429Y-87344149D02*
X115817861Y-87062895D01*
X114034180Y-87953269D02*
X114627829Y-87641030D01*
X100451406Y-82333031D02*
X99933517Y-82672502D01*
X108356676Y-78021062D02*
X107884454Y-78258524D01*
X123583006Y-84952279D02*
X124178246Y-84918322D01*
X118730849Y-70633066D02*
X118337313Y-71073962D01*
X125958340Y-84935735D02*
X126549449Y-84982203D01*
X115485113Y-73725355D02*
X115063989Y-74050912D01*
X105965642Y-79223854D02*
X105478566Y-79472771D01*
X113346179Y-75249812D02*
X112908503Y-75527417D01*
X117539694Y-71905445D02*
X117135653Y-72297519D01*
X98363893Y-83770013D02*
X97835438Y-84164690D01*
X135751293Y-88737048D02*
X136304641Y-89173776D01*
X114211704Y-74669543D02*
X113780587Y-74964101D01*
X105886066Y-93785140D02*
X106454549Y-93286397D01*
X95695936Y-85907412D02*
X95154750Y-86387808D01*
X124178246Y-84918322D02*
X124772623Y-84904070D01*
X103501399Y-80521060D02*
X103000000Y-80800000D01*
X126549449Y-84982203D02*
X127139243Y-85049459D01*
X104495713Y-79984908D02*
X103999978Y-80249610D01*
X116414019Y-86797541D02*
X117010784Y-86548358D01*
X99933517Y-82672502D02*
X99412955Y-83024662D01*
X112908503Y-75527417D02*
X112467582Y-75797659D01*
X110215011Y-77064427D02*
X109755054Y-77306091D01*
X107409220Y-78496790D02*
X106930991Y-78736605D01*
X101988815Y-81383316D02*
X101479076Y-81689180D01*
X101442980Y-98158583D02*
X101987121Y-97577151D01*
X127727608Y-85137769D02*
X128314433Y-85247410D01*
X124332407Y-64148028D02*
X123681143Y-64480621D01*
X105478566Y-79472771D02*
X104988583Y-79726209D01*
X130064518Y-85707006D02*
X130644042Y-85904672D01*
X107599006Y-92323856D02*
X108174750Y-91860602D01*
X97304391Y-84575027D02*
X96770780Y-85001764D01*
X100966597Y-82005504D02*
X100451406Y-82333031D01*
X108174750Y-91860602D02*
X108752691Y-91409718D01*
X102534703Y-97005104D02*
X103085609Y-96442717D01*
X136854748Y-89635901D02*
X137401500Y-90123699D01*
X125809290Y-63726537D02*
X125043110Y-63893534D01*
X131221457Y-86125022D02*
X131796649Y-86368329D01*
X127401277Y-63681938D02*
X126626981Y-63656425D01*
X111125545Y-76571639D02*
X110671847Y-76819859D01*
X103999978Y-80249610D02*
X103501399Y-80521060D01*
X98889738Y-83390249D02*
X98363893Y-83770013D01*
X118205687Y-86099591D02*
X118803600Y-85900551D01*
X104196947Y-95347999D02*
X104757149Y-94816211D01*
X121749780Y-66404203D02*
X121385189Y-67007963D01*
X132939920Y-86924896D02*
X133507768Y-87238699D01*
X129789030Y-64411564D02*
X129297040Y-64163722D01*
X128899601Y-85378646D02*
X129482999Y-85531757D01*
X101987121Y-97577151D02*
X102534703Y-97005104D01*
X111671328Y-89350374D02*
X112260052Y-88979418D01*
X91856227Y-89702965D02*
X100902392Y-98749130D01*
X99412955Y-83024662D02*
X98889738Y-83390249D01*
X111576081Y-76319028D02*
X111125545Y-76571639D01*
X129297040Y-64163722D02*
X128735573Y-63949933D01*
X96234620Y-85445646D02*
X95695936Y-85907412D01*
X136304641Y-89173776D02*
X136854748Y-89635901D01*
X92965383Y-88510525D02*
X92411993Y-89095202D01*
X109332708Y-90971475D02*
X109914695Y-90546149D01*
X112850176Y-88622734D02*
X113441590Y-88280596D01*
X126626981Y-63656425D02*
X125809290Y-63726537D01*
X115902861Y-73387981D02*
X115485113Y-73725355D01*
X112467582Y-75797659D02*
X112023432Y-76061283D01*
X106449791Y-78978713D02*
X105965642Y-79223854D01*
X128314433Y-85247410D02*
X128899601Y-85378646D01*
X105320228Y-94295169D02*
X105886066Y-93785140D01*
X112260052Y-88979418D02*
X112850176Y-88622734D01*
X120597820Y-85408059D02*
X121195676Y-85279674D01*
X116317217Y-73038045D02*
X115902861Y-73387981D01*
X133507768Y-87238699D02*
X134072943Y-87576545D01*
X144197747Y-84388469D02*
X144197564Y-78558803D01*
X115063989Y-74050912D02*
X114639513Y-74365392D01*
X137944786Y-90637445D02*
X144197747Y-84388469D01*
X115817861Y-87062895D02*
X116414019Y-86797541D01*
X137401500Y-90123699D02*
X137944786Y-90637445D01*
X109755054Y-77306091D02*
X109291998Y-77545588D01*
X121016906Y-67588765D02*
X120644951Y-68147354D01*
X134635333Y-87938704D02*
X135194822Y-88325447D01*
X103000000Y-80800000D02*
X102495799Y-81087169D01*
M02*
