G04 #@! TF.FileFunction,Paste,Bot*
%FSLAX46Y46*%
G04 Gerber Fmt 4.6, Leading zero omitted, Abs format (unit mm)*
G04 Created by KiCad (PCBNEW 4.0.7-e2-6376~58~ubuntu14.04.1) date Mon Aug  6 16:33:39 2018*
%MOMM*%
%LPD*%
G01*
G04 APERTURE LIST*
%ADD10C,0.100000*%
%ADD11R,1.600000X0.800000*%
%ADD12R,1.000000X1.200000*%
%ADD13R,0.800000X0.500000*%
%ADD14R,0.500000X0.800000*%
%ADD15R,0.600000X1.200000*%
%ADD16R,1.200000X0.600000*%
%ADD17R,1.600000X1.000000*%
G04 APERTURE END LIST*
D10*
G36*
X109114975Y-83659163D02*
X108343191Y-82144452D01*
X108877795Y-81872057D01*
X109649579Y-83386768D01*
X109114975Y-83659163D01*
X109114975Y-83659163D01*
G37*
G36*
X110228733Y-83091675D02*
X109456949Y-81576964D01*
X109991553Y-81304569D01*
X110763337Y-82819280D01*
X110228733Y-83091675D01*
X110228733Y-83091675D01*
G37*
G36*
X108001217Y-84226652D02*
X107229433Y-82711941D01*
X107764037Y-82439546D01*
X108535821Y-83954257D01*
X108001217Y-84226652D01*
X108001217Y-84226652D01*
G37*
G36*
X106887458Y-84794140D02*
X106115674Y-83279429D01*
X106650278Y-83007034D01*
X107422062Y-84521745D01*
X106887458Y-84794140D01*
X106887458Y-84794140D01*
G37*
G36*
X111788627Y-79434937D02*
X110562853Y-77029219D01*
X111453859Y-76575229D01*
X112679633Y-78980947D01*
X111788627Y-79434937D01*
X111788627Y-79434937D01*
G37*
G36*
X103769568Y-83520852D02*
X102543794Y-81115134D01*
X103434800Y-80661144D01*
X104660574Y-83066862D01*
X103769568Y-83520852D01*
X103769568Y-83520852D01*
G37*
G36*
X111877095Y-82251792D02*
X111342491Y-82524187D01*
X110570707Y-81009476D01*
X111105311Y-80737081D01*
X111877095Y-82251792D01*
X111877095Y-82251792D01*
G37*
D11*
X129200000Y-70300000D03*
X129200000Y-68700000D03*
X123800000Y-70300000D03*
X123800000Y-68700000D03*
D12*
X123500000Y-70500000D03*
X123500000Y-68500000D03*
X129500000Y-70500000D03*
X129500000Y-68500000D03*
D10*
G36*
X123950000Y-71100000D02*
X123400000Y-70700000D01*
X124600000Y-70700000D01*
X124050000Y-71100000D01*
X123950000Y-71100000D01*
X123950000Y-71100000D01*
G37*
G36*
X124050000Y-67900000D02*
X124600000Y-68300000D01*
X123400000Y-68300000D01*
X123950000Y-67900000D01*
X124050000Y-67900000D01*
X124050000Y-67900000D01*
G37*
G36*
X128950000Y-71100000D02*
X128400000Y-70700000D01*
X129600000Y-70700000D01*
X129050000Y-71100000D01*
X128950000Y-71100000D01*
X128950000Y-71100000D01*
G37*
G36*
X129050000Y-67900000D02*
X129600000Y-68300000D01*
X128400000Y-68300000D01*
X128950000Y-67900000D01*
X129050000Y-67900000D01*
X129050000Y-67900000D01*
G37*
G36*
X127560660Y-75780152D02*
X126924264Y-76416548D01*
X126712132Y-76204416D01*
X127348528Y-75568020D01*
X127560660Y-75780152D01*
X127560660Y-75780152D01*
G37*
G36*
X127914213Y-76133705D02*
X127065685Y-76982233D01*
X126853553Y-76770101D01*
X127702081Y-75921573D01*
X127914213Y-76133705D01*
X127914213Y-76133705D01*
G37*
G36*
X128267767Y-76487258D02*
X127419239Y-77335786D01*
X127207107Y-77123654D01*
X128055635Y-76275126D01*
X128267767Y-76487258D01*
X128267767Y-76487258D01*
G37*
G36*
X128621320Y-76840812D02*
X127772792Y-77689340D01*
X127560660Y-77477208D01*
X128409188Y-76628680D01*
X128621320Y-76840812D01*
X128621320Y-76840812D01*
G37*
G36*
X128974874Y-77194365D02*
X128126346Y-78042893D01*
X127914214Y-77830761D01*
X128762742Y-76982233D01*
X128974874Y-77194365D01*
X128974874Y-77194365D01*
G37*
G36*
X129328427Y-77547919D02*
X128479899Y-78396447D01*
X128267767Y-78184315D01*
X129116295Y-77335787D01*
X129328427Y-77547919D01*
X129328427Y-77547919D01*
G37*
G36*
X129681980Y-77901472D02*
X129045584Y-78537868D01*
X128833452Y-78325736D01*
X129469848Y-77689340D01*
X129681980Y-77901472D01*
X129681980Y-77901472D01*
G37*
G36*
X129469848Y-79810660D02*
X128833452Y-79174264D01*
X129045584Y-78962132D01*
X129681980Y-79598528D01*
X129469848Y-79810660D01*
X129469848Y-79810660D01*
G37*
G36*
X129116295Y-80164213D02*
X128267767Y-79315685D01*
X128479899Y-79103553D01*
X129328427Y-79952081D01*
X129116295Y-80164213D01*
X129116295Y-80164213D01*
G37*
G36*
X128762742Y-80517767D02*
X127914214Y-79669239D01*
X128126346Y-79457107D01*
X128974874Y-80305635D01*
X128762742Y-80517767D01*
X128762742Y-80517767D01*
G37*
G36*
X128409188Y-80871320D02*
X127560660Y-80022792D01*
X127772792Y-79810660D01*
X128621320Y-80659188D01*
X128409188Y-80871320D01*
X128409188Y-80871320D01*
G37*
G36*
X128055635Y-81224874D02*
X127207107Y-80376346D01*
X127419239Y-80164214D01*
X128267767Y-81012742D01*
X128055635Y-81224874D01*
X128055635Y-81224874D01*
G37*
G36*
X127702081Y-81578427D02*
X126853553Y-80729899D01*
X127065685Y-80517767D01*
X127914213Y-81366295D01*
X127702081Y-81578427D01*
X127702081Y-81578427D01*
G37*
G36*
X127348528Y-81931980D02*
X126712132Y-81295584D01*
X126924264Y-81083452D01*
X127560660Y-81719848D01*
X127348528Y-81931980D01*
X127348528Y-81931980D01*
G37*
G36*
X126287868Y-81295584D02*
X125651472Y-81931980D01*
X125439340Y-81719848D01*
X126075736Y-81083452D01*
X126287868Y-81295584D01*
X126287868Y-81295584D01*
G37*
G36*
X126146447Y-80729899D02*
X125297919Y-81578427D01*
X125085787Y-81366295D01*
X125934315Y-80517767D01*
X126146447Y-80729899D01*
X126146447Y-80729899D01*
G37*
G36*
X125792893Y-80376346D02*
X124944365Y-81224874D01*
X124732233Y-81012742D01*
X125580761Y-80164214D01*
X125792893Y-80376346D01*
X125792893Y-80376346D01*
G37*
G36*
X125439340Y-80022792D02*
X124590812Y-80871320D01*
X124378680Y-80659188D01*
X125227208Y-79810660D01*
X125439340Y-80022792D01*
X125439340Y-80022792D01*
G37*
G36*
X125085786Y-79669239D02*
X124237258Y-80517767D01*
X124025126Y-80305635D01*
X124873654Y-79457107D01*
X125085786Y-79669239D01*
X125085786Y-79669239D01*
G37*
G36*
X124732233Y-79315685D02*
X123883705Y-80164213D01*
X123671573Y-79952081D01*
X124520101Y-79103553D01*
X124732233Y-79315685D01*
X124732233Y-79315685D01*
G37*
G36*
X124166548Y-79174264D02*
X123530152Y-79810660D01*
X123318020Y-79598528D01*
X123954416Y-78962132D01*
X124166548Y-79174264D01*
X124166548Y-79174264D01*
G37*
G36*
X123954416Y-78537868D02*
X123318020Y-77901472D01*
X123530152Y-77689340D01*
X124166548Y-78325736D01*
X123954416Y-78537868D01*
X123954416Y-78537868D01*
G37*
G36*
X124520101Y-78396447D02*
X123671573Y-77547919D01*
X123883705Y-77335787D01*
X124732233Y-78184315D01*
X124520101Y-78396447D01*
X124520101Y-78396447D01*
G37*
G36*
X124873654Y-78042893D02*
X124025126Y-77194365D01*
X124237258Y-76982233D01*
X125085786Y-77830761D01*
X124873654Y-78042893D01*
X124873654Y-78042893D01*
G37*
G36*
X125227208Y-77689340D02*
X124378680Y-76840812D01*
X124590812Y-76628680D01*
X125439340Y-77477208D01*
X125227208Y-77689340D01*
X125227208Y-77689340D01*
G37*
G36*
X125580761Y-77335786D02*
X124732233Y-76487258D01*
X124944365Y-76275126D01*
X125792893Y-77123654D01*
X125580761Y-77335786D01*
X125580761Y-77335786D01*
G37*
G36*
X125934315Y-76982233D02*
X125085787Y-76133705D01*
X125297919Y-75921573D01*
X126146447Y-76770101D01*
X125934315Y-76982233D01*
X125934315Y-76982233D01*
G37*
G36*
X126075736Y-76416548D02*
X125439340Y-75780152D01*
X125651472Y-75568020D01*
X126287868Y-76204416D01*
X126075736Y-76416548D01*
X126075736Y-76416548D01*
G37*
G36*
X127242462Y-76098349D02*
X126676776Y-76664035D01*
X126676776Y-76239771D01*
X126818198Y-76098349D01*
X127242462Y-76098349D01*
X127242462Y-76098349D01*
G37*
G36*
X126323224Y-76664035D02*
X125757538Y-76098349D01*
X126181802Y-76098349D01*
X126323224Y-76239771D01*
X126323224Y-76664035D01*
X126323224Y-76664035D01*
G37*
G36*
X126676776Y-80835965D02*
X127242462Y-81401651D01*
X126818198Y-81401651D01*
X126676776Y-81260229D01*
X126676776Y-80835965D01*
X126676776Y-80835965D01*
G37*
G36*
X125757538Y-81401651D02*
X126323224Y-80835965D01*
X126323224Y-81260229D01*
X126181802Y-81401651D01*
X125757538Y-81401651D01*
X125757538Y-81401651D01*
G37*
G36*
X128585965Y-78573224D02*
X129151651Y-78007538D01*
X129151651Y-78431802D01*
X129010229Y-78573224D01*
X128585965Y-78573224D01*
X128585965Y-78573224D01*
G37*
G36*
X129151651Y-79492462D02*
X128585965Y-78926776D01*
X129010229Y-78926776D01*
X129151651Y-79068198D01*
X129151651Y-79492462D01*
X129151651Y-79492462D01*
G37*
G36*
X124414035Y-78926776D02*
X123848349Y-79492462D01*
X123848349Y-79068198D01*
X123989771Y-78926776D01*
X124414035Y-78926776D01*
X124414035Y-78926776D01*
G37*
G36*
X123848349Y-78007538D02*
X124414035Y-78573224D01*
X123989771Y-78573224D01*
X123848349Y-78431802D01*
X123848349Y-78007538D01*
X123848349Y-78007538D01*
G37*
G36*
X136892068Y-83951687D02*
X138094150Y-85153769D01*
X137669886Y-85578033D01*
X136467804Y-84375951D01*
X136892068Y-83951687D01*
X136892068Y-83951687D01*
G37*
G36*
X136008184Y-84835571D02*
X137210266Y-86037653D01*
X136786002Y-86461917D01*
X135583920Y-85259835D01*
X136008184Y-84835571D01*
X136008184Y-84835571D01*
G37*
G36*
X137775951Y-83067804D02*
X138978033Y-84269886D01*
X138553769Y-84694150D01*
X137351687Y-83492068D01*
X137775951Y-83067804D01*
X137775951Y-83067804D01*
G37*
G36*
X138659835Y-82183920D02*
X139861917Y-83386002D01*
X139437653Y-83810266D01*
X138235571Y-82608184D01*
X138659835Y-82183920D01*
X138659835Y-82183920D01*
G37*
G36*
X136591547Y-87858452D02*
X138500736Y-89767641D01*
X137793629Y-90474748D01*
X135884440Y-88565559D01*
X136591547Y-87858452D01*
X136591547Y-87858452D01*
G37*
G36*
X141965559Y-82484440D02*
X143874748Y-84393629D01*
X143167641Y-85100736D01*
X141258452Y-83191547D01*
X141965559Y-82484440D01*
X141965559Y-82484440D01*
G37*
G36*
X137326687Y-79507932D02*
X138528769Y-78305850D01*
X138953033Y-78730114D01*
X137750951Y-79932196D01*
X137326687Y-79507932D01*
X137326687Y-79507932D01*
G37*
G36*
X138210571Y-80391816D02*
X139412653Y-79189734D01*
X139836917Y-79613998D01*
X138634835Y-80816080D01*
X138210571Y-80391816D01*
X138210571Y-80391816D01*
G37*
G36*
X136442804Y-78624049D02*
X137644886Y-77421967D01*
X138069150Y-77846231D01*
X136867068Y-79048313D01*
X136442804Y-78624049D01*
X136442804Y-78624049D01*
G37*
G36*
X135558920Y-77740165D02*
X136761002Y-76538083D01*
X137185266Y-76962347D01*
X135983184Y-78164429D01*
X135558920Y-77740165D01*
X135558920Y-77740165D01*
G37*
G36*
X141233452Y-79808453D02*
X143142641Y-77899264D01*
X143849748Y-78606371D01*
X141940559Y-80515560D01*
X141233452Y-79808453D01*
X141233452Y-79808453D01*
G37*
G36*
X135859440Y-74434441D02*
X137768629Y-72525252D01*
X138475736Y-73232359D01*
X136566547Y-75141548D01*
X135859440Y-74434441D01*
X135859440Y-74434441D01*
G37*
G36*
X103580850Y-85138820D02*
X104111180Y-85669150D01*
X103262652Y-86517678D01*
X102732322Y-85987348D01*
X103580850Y-85138820D01*
X103580850Y-85138820D01*
G37*
G36*
X102237348Y-86482322D02*
X102767678Y-87012652D01*
X101919150Y-87861180D01*
X101388820Y-87330850D01*
X102237348Y-86482322D01*
X102237348Y-86482322D01*
G37*
G36*
X105419150Y-91361180D02*
X104888820Y-90830850D01*
X105737348Y-89982322D01*
X106267678Y-90512652D01*
X105419150Y-91361180D01*
X105419150Y-91361180D01*
G37*
G36*
X106762652Y-90017678D02*
X106232322Y-89487348D01*
X107080850Y-88638820D01*
X107611180Y-89169150D01*
X106762652Y-90017678D01*
X106762652Y-90017678D01*
G37*
D13*
X132100000Y-79250000D03*
X130900000Y-79250000D03*
X132100000Y-78250000D03*
X130900000Y-78250000D03*
X125900000Y-74050000D03*
X127100000Y-74050000D03*
D14*
X130700000Y-70300000D03*
X130700000Y-71500000D03*
X122400000Y-70300000D03*
X122400000Y-71500000D03*
X121600000Y-71500000D03*
X121600000Y-72700000D03*
D10*
G36*
X129569670Y-76783883D02*
X129216117Y-76430330D01*
X129781802Y-75864645D01*
X130135355Y-76218198D01*
X129569670Y-76783883D01*
X129569670Y-76783883D01*
G37*
G36*
X130418198Y-75935355D02*
X130064645Y-75581802D01*
X130630330Y-75016117D01*
X130983883Y-75369670D01*
X130418198Y-75935355D01*
X130418198Y-75935355D01*
G37*
D14*
X123070000Y-80940000D03*
X123070000Y-82140000D03*
D10*
G36*
X129930330Y-74316117D02*
X130283883Y-74669670D01*
X129718198Y-75235355D01*
X129364645Y-74881802D01*
X129930330Y-74316117D01*
X129930330Y-74316117D01*
G37*
G36*
X129081802Y-75164645D02*
X129435355Y-75518198D01*
X128869670Y-76083883D01*
X128516117Y-75730330D01*
X129081802Y-75164645D01*
X129081802Y-75164645D01*
G37*
D15*
X133100000Y-69700000D03*
X134050000Y-72000000D03*
X132150000Y-72000000D03*
X133100000Y-73800000D03*
X134050000Y-76100000D03*
X132150000Y-76100000D03*
D16*
X122050000Y-74050000D03*
X124350000Y-73100000D03*
X124350000Y-75000000D03*
D10*
G36*
X105525305Y-89699569D02*
X104676777Y-88851041D01*
X105101041Y-88426777D01*
X105949569Y-89275305D01*
X105525305Y-89699569D01*
X105525305Y-89699569D01*
G37*
G36*
X106197056Y-89027817D02*
X105348528Y-88179289D01*
X105772792Y-87755025D01*
X106621320Y-88603553D01*
X106197056Y-89027817D01*
X106197056Y-89027817D01*
G37*
G36*
X104853553Y-90371320D02*
X104005025Y-89522792D01*
X104429289Y-89098528D01*
X105277817Y-89947056D01*
X104853553Y-90371320D01*
X104853553Y-90371320D01*
G37*
G36*
X103227208Y-88744975D02*
X102378680Y-87896447D01*
X102802944Y-87472183D01*
X103651472Y-88320711D01*
X103227208Y-88744975D01*
X103227208Y-88744975D01*
G37*
G36*
X104570711Y-87401472D02*
X103722183Y-86552944D01*
X104146447Y-86128680D01*
X104994975Y-86977208D01*
X104570711Y-87401472D01*
X104570711Y-87401472D01*
G37*
D17*
X121670000Y-80040000D03*
X121670000Y-83040000D03*
D10*
G36*
X133943806Y-83232264D02*
X133534485Y-84571090D01*
X132578180Y-84278718D01*
X132987501Y-82939892D01*
X133943806Y-83232264D01*
X133943806Y-83232264D01*
G37*
G36*
X129927326Y-82004303D02*
X129518005Y-83343129D01*
X128561700Y-83050757D01*
X128971021Y-81711931D01*
X129927326Y-82004303D01*
X129927326Y-82004303D01*
G37*
G36*
X135073712Y-86035086D02*
X134781340Y-86991391D01*
X132868730Y-86406648D01*
X133161102Y-85450343D01*
X135073712Y-86035086D01*
X135073712Y-86035086D01*
G37*
G36*
X128379578Y-83988484D02*
X128087206Y-84944789D01*
X126174596Y-84360046D01*
X126466968Y-83403741D01*
X128379578Y-83988484D01*
X128379578Y-83988484D01*
G37*
M02*
