G04 #@! TF.FileFunction,Legend,Top*
%FSLAX46Y46*%
G04 Gerber Fmt 4.6, Leading zero omitted, Abs format (unit mm)*
G04 Created by KiCad (PCBNEW 4.0.5-e0-6337~49~ubuntu14.04.1) date Wed May 17 08:50:27 2017*
%MOMM*%
%LPD*%
G01*
G04 APERTURE LIST*
%ADD10C,0.100000*%
%ADD11C,0.140000*%
%ADD12C,0.010000*%
G04 APERTURE END LIST*
D10*
D11*
X119577976Y-81852381D02*
X120149405Y-81852381D01*
X119738690Y-82852381D02*
X119863690Y-81852381D01*
X120673214Y-81852381D02*
X120863691Y-81852381D01*
X120952977Y-81900000D01*
X121036310Y-81995238D01*
X121060120Y-82185714D01*
X121018453Y-82519048D01*
X120947025Y-82709524D01*
X120839882Y-82804762D01*
X120738691Y-82852381D01*
X120548214Y-82852381D01*
X120458929Y-82804762D01*
X120375596Y-82709524D01*
X120351786Y-82519048D01*
X120393453Y-82185714D01*
X120464881Y-81995238D01*
X120572024Y-81900000D01*
X120673214Y-81852381D01*
X121530357Y-81852381D02*
X121429167Y-82661905D01*
X121464881Y-82757143D01*
X121506548Y-82804762D01*
X121595833Y-82852381D01*
X121786310Y-82852381D01*
X121887501Y-82804762D01*
X121941072Y-82757143D01*
X122000596Y-82661905D01*
X122101786Y-81852381D01*
X123036310Y-82757143D02*
X122982739Y-82804762D01*
X122833929Y-82852381D01*
X122738691Y-82852381D01*
X122601786Y-82804762D01*
X122518453Y-82709524D01*
X122482738Y-82614286D01*
X122458929Y-82423810D01*
X122476786Y-82280952D01*
X122548215Y-82090476D01*
X122607738Y-81995238D01*
X122714881Y-81900000D01*
X122863691Y-81852381D01*
X122958929Y-81852381D01*
X123095834Y-81900000D01*
X123137501Y-81947619D01*
X123452976Y-82852381D02*
X123577976Y-81852381D01*
X123518453Y-82328571D02*
X124089882Y-82328571D01*
X124024405Y-82852381D02*
X124149405Y-81852381D01*
X125220834Y-82804762D02*
X125357738Y-82852381D01*
X125595834Y-82852381D01*
X125697025Y-82804762D01*
X125750596Y-82757143D01*
X125810120Y-82661905D01*
X125822025Y-82566667D01*
X125786310Y-82471429D01*
X125744644Y-82423810D01*
X125655358Y-82376190D01*
X125470834Y-82328571D01*
X125381548Y-82280952D01*
X125339881Y-82233333D01*
X125304167Y-82138095D01*
X125316072Y-82042857D01*
X125375596Y-81947619D01*
X125429167Y-81900000D01*
X125530357Y-81852381D01*
X125768453Y-81852381D01*
X125905358Y-81900000D01*
X126280358Y-82328571D02*
X126613692Y-82328571D01*
X126691072Y-82852381D02*
X126214881Y-82852381D01*
X126339881Y-81852381D01*
X126816072Y-81852381D01*
X127119643Y-82852381D02*
X127244643Y-81852381D01*
X127691072Y-82852381D01*
X127816072Y-81852381D01*
X128125596Y-82804762D02*
X128262500Y-82852381D01*
X128500596Y-82852381D01*
X128601787Y-82804762D01*
X128655358Y-82757143D01*
X128714882Y-82661905D01*
X128726787Y-82566667D01*
X128691072Y-82471429D01*
X128649406Y-82423810D01*
X128560120Y-82376190D01*
X128375596Y-82328571D01*
X128286310Y-82280952D01*
X128244643Y-82233333D01*
X128208929Y-82138095D01*
X128220834Y-82042857D01*
X128280358Y-81947619D01*
X128333929Y-81900000D01*
X128435119Y-81852381D01*
X128673215Y-81852381D01*
X128810120Y-81900000D01*
X129435119Y-81852381D02*
X129625596Y-81852381D01*
X129714882Y-81900000D01*
X129798215Y-81995238D01*
X129822025Y-82185714D01*
X129780358Y-82519048D01*
X129708930Y-82709524D01*
X129601787Y-82804762D01*
X129500596Y-82852381D01*
X129310119Y-82852381D01*
X129220834Y-82804762D01*
X129137501Y-82709524D01*
X129113691Y-82519048D01*
X129155358Y-82185714D01*
X129226786Y-81995238D01*
X129333929Y-81900000D01*
X129435119Y-81852381D01*
X130738691Y-82852381D02*
X130464881Y-82376190D01*
X130167262Y-82852381D02*
X130292262Y-81852381D01*
X130673215Y-81852381D01*
X130762501Y-81900000D01*
X130804168Y-81947619D01*
X130839882Y-82042857D01*
X130822025Y-82185714D01*
X130762501Y-82280952D01*
X130708930Y-82328571D01*
X130607739Y-82376190D01*
X130226786Y-82376190D01*
X119438095Y-83685714D02*
X119438095Y-84352381D01*
X119438095Y-83780952D02*
X119485714Y-83733333D01*
X119580952Y-83685714D01*
X119723810Y-83685714D01*
X119819048Y-83733333D01*
X119866667Y-83828571D01*
X119866667Y-84352381D01*
X120723810Y-84304762D02*
X120628572Y-84352381D01*
X120438095Y-84352381D01*
X120342857Y-84304762D01*
X120295238Y-84209524D01*
X120295238Y-83828571D01*
X120342857Y-83733333D01*
X120438095Y-83685714D01*
X120628572Y-83685714D01*
X120723810Y-83733333D01*
X120771429Y-83828571D01*
X120771429Y-83923810D01*
X120295238Y-84019048D01*
X121628572Y-83685714D02*
X121628572Y-84352381D01*
X121200000Y-83685714D02*
X121200000Y-84209524D01*
X121247619Y-84304762D01*
X121342857Y-84352381D01*
X121485715Y-84352381D01*
X121580953Y-84304762D01*
X121628572Y-84257143D01*
X122104762Y-84352381D02*
X122104762Y-83685714D01*
X122104762Y-83876190D02*
X122152381Y-83780952D01*
X122200000Y-83733333D01*
X122295238Y-83685714D01*
X122390477Y-83685714D01*
X122866667Y-84352381D02*
X122771429Y-84304762D01*
X122723810Y-84257143D01*
X122676191Y-84161905D01*
X122676191Y-83876190D01*
X122723810Y-83780952D01*
X122771429Y-83733333D01*
X122866667Y-83685714D01*
X123009525Y-83685714D01*
X123104763Y-83733333D01*
X123152382Y-83780952D01*
X123200001Y-83876190D01*
X123200001Y-84161905D01*
X123152382Y-84257143D01*
X123104763Y-84304762D01*
X123009525Y-84352381D01*
X122866667Y-84352381D01*
X123485715Y-83685714D02*
X123866667Y-83685714D01*
X123628572Y-83352381D02*
X123628572Y-84209524D01*
X123676191Y-84304762D01*
X123771429Y-84352381D01*
X123866667Y-84352381D01*
X124200001Y-84352381D02*
X124200001Y-83685714D01*
X124200001Y-83352381D02*
X124152382Y-83400000D01*
X124200001Y-83447619D01*
X124247620Y-83400000D01*
X124200001Y-83352381D01*
X124200001Y-83447619D01*
X124676191Y-83685714D02*
X124676191Y-84352381D01*
X124676191Y-83780952D02*
X124723810Y-83733333D01*
X124819048Y-83685714D01*
X124961906Y-83685714D01*
X125057144Y-83733333D01*
X125104763Y-83828571D01*
X125104763Y-84352381D01*
X125580953Y-84352381D02*
X125580953Y-83352381D01*
X125676191Y-83971429D02*
X125961906Y-84352381D01*
X125961906Y-83685714D02*
X125580953Y-84066667D01*
X126771430Y-84304762D02*
X126676192Y-84352381D01*
X126485715Y-84352381D01*
X126390477Y-84304762D01*
X126342858Y-84209524D01*
X126342858Y-83828571D01*
X126390477Y-83733333D01*
X126485715Y-83685714D01*
X126676192Y-83685714D01*
X126771430Y-83733333D01*
X126819049Y-83828571D01*
X126819049Y-83923810D01*
X126342858Y-84019048D01*
X127247620Y-84352381D02*
X127247620Y-83685714D01*
X127247620Y-83876190D02*
X127295239Y-83780952D01*
X127342858Y-83733333D01*
X127438096Y-83685714D01*
X127533335Y-83685714D01*
X127866668Y-84257143D02*
X127914287Y-84304762D01*
X127866668Y-84352381D01*
X127819049Y-84304762D01*
X127866668Y-84257143D01*
X127866668Y-84352381D01*
X128771430Y-84304762D02*
X128676192Y-84352381D01*
X128485715Y-84352381D01*
X128390477Y-84304762D01*
X128342858Y-84257143D01*
X128295239Y-84161905D01*
X128295239Y-83876190D01*
X128342858Y-83780952D01*
X128390477Y-83733333D01*
X128485715Y-83685714D01*
X128676192Y-83685714D01*
X128771430Y-83733333D01*
X129342858Y-84352381D02*
X129247620Y-84304762D01*
X129200001Y-84257143D01*
X129152382Y-84161905D01*
X129152382Y-83876190D01*
X129200001Y-83780952D01*
X129247620Y-83733333D01*
X129342858Y-83685714D01*
X129485716Y-83685714D01*
X129580954Y-83733333D01*
X129628573Y-83780952D01*
X129676192Y-83876190D01*
X129676192Y-84161905D01*
X129628573Y-84257143D01*
X129580954Y-84304762D01*
X129485716Y-84352381D01*
X129342858Y-84352381D01*
X130104763Y-84352381D02*
X130104763Y-83685714D01*
X130104763Y-83780952D02*
X130152382Y-83733333D01*
X130247620Y-83685714D01*
X130390478Y-83685714D01*
X130485716Y-83733333D01*
X130533335Y-83828571D01*
X130533335Y-84352381D01*
X130533335Y-83828571D02*
X130580954Y-83733333D01*
X130676192Y-83685714D01*
X130819049Y-83685714D01*
X130914287Y-83733333D01*
X130961906Y-83828571D01*
X130961906Y-84352381D01*
D12*
G36*
X104172645Y-83901418D02*
X104766329Y-84032567D01*
X105313059Y-84236560D01*
X105806142Y-84509394D01*
X106238886Y-84847065D01*
X106604602Y-85245571D01*
X106896598Y-85700910D01*
X107108181Y-86209077D01*
X107173922Y-86447702D01*
X107223802Y-86773272D01*
X107241485Y-87163944D01*
X107228424Y-87588956D01*
X107186074Y-88017545D01*
X107115887Y-88418949D01*
X107072528Y-88593683D01*
X106814530Y-89370338D01*
X106462957Y-90182061D01*
X106018961Y-91027194D01*
X105483697Y-91904076D01*
X104858319Y-92811051D01*
X104143980Y-93746458D01*
X103341834Y-94708640D01*
X102453035Y-95695937D01*
X101478737Y-96706691D01*
X101316176Y-96869300D01*
X101035682Y-97146568D01*
X100776358Y-97399183D01*
X100547358Y-97618519D01*
X100357834Y-97795951D01*
X100216938Y-97922854D01*
X100133824Y-97990602D01*
X100116720Y-97999600D01*
X100025490Y-97966628D01*
X99996571Y-97943451D01*
X100001956Y-97905287D01*
X100057046Y-97823904D01*
X100166013Y-97694742D01*
X100333030Y-97513236D01*
X100562271Y-97274827D01*
X100857908Y-96974950D01*
X101146609Y-96686151D01*
X102021480Y-95793409D01*
X102813747Y-94938747D01*
X103530805Y-94113101D01*
X104180047Y-93307404D01*
X104768868Y-92512592D01*
X105304663Y-91719597D01*
X105648363Y-91167000D01*
X106087764Y-90386209D01*
X106439842Y-89651114D01*
X106705962Y-88957838D01*
X106887487Y-88302503D01*
X106985778Y-87681231D01*
X107005573Y-87306200D01*
X106994644Y-86901105D01*
X106947581Y-86556078D01*
X106856483Y-86233585D01*
X106713448Y-85896097D01*
X106705015Y-85878616D01*
X106431948Y-85428986D01*
X106080857Y-85037213D01*
X105659953Y-84707432D01*
X105177447Y-84443781D01*
X104641550Y-84250393D01*
X104060473Y-84131406D01*
X103442427Y-84090955D01*
X103170852Y-84098542D01*
X102404824Y-84184857D01*
X101600834Y-84359340D01*
X100765419Y-84618823D01*
X99905116Y-84960137D01*
X99026459Y-85380113D01*
X98135986Y-85875583D01*
X97240233Y-86443377D01*
X96345737Y-87080328D01*
X95459032Y-87783266D01*
X95308000Y-87910406D01*
X95061634Y-88127302D01*
X94774570Y-88392605D01*
X94462225Y-88690911D01*
X94140018Y-89006817D01*
X93823368Y-89324919D01*
X93527693Y-89629812D01*
X93268414Y-89906095D01*
X93060947Y-90138361D01*
X92975101Y-90241034D01*
X92840911Y-90404419D01*
X92752459Y-90499209D01*
X92693202Y-90537081D01*
X92646597Y-90529712D01*
X92608265Y-90499962D01*
X92550565Y-90437605D01*
X92552983Y-90380501D01*
X92617832Y-90287440D01*
X92620386Y-90284151D01*
X92784011Y-90085861D01*
X93005369Y-89835245D01*
X93268076Y-89549474D01*
X93555747Y-89245713D01*
X93851999Y-88941132D01*
X94140448Y-88652900D01*
X94404710Y-88398183D01*
X94537800Y-88274967D01*
X95488598Y-87452823D01*
X96443007Y-86708578D01*
X97396629Y-86044556D01*
X98345062Y-85463081D01*
X99283906Y-84966477D01*
X100208759Y-84557069D01*
X101115222Y-84237181D01*
X101998893Y-84009138D01*
X102855373Y-83875262D01*
X102871174Y-83873663D01*
X103538696Y-83847116D01*
X104172645Y-83901418D01*
X104172645Y-83901418D01*
G37*
X104172645Y-83901418D02*
X104766329Y-84032567D01*
X105313059Y-84236560D01*
X105806142Y-84509394D01*
X106238886Y-84847065D01*
X106604602Y-85245571D01*
X106896598Y-85700910D01*
X107108181Y-86209077D01*
X107173922Y-86447702D01*
X107223802Y-86773272D01*
X107241485Y-87163944D01*
X107228424Y-87588956D01*
X107186074Y-88017545D01*
X107115887Y-88418949D01*
X107072528Y-88593683D01*
X106814530Y-89370338D01*
X106462957Y-90182061D01*
X106018961Y-91027194D01*
X105483697Y-91904076D01*
X104858319Y-92811051D01*
X104143980Y-93746458D01*
X103341834Y-94708640D01*
X102453035Y-95695937D01*
X101478737Y-96706691D01*
X101316176Y-96869300D01*
X101035682Y-97146568D01*
X100776358Y-97399183D01*
X100547358Y-97618519D01*
X100357834Y-97795951D01*
X100216938Y-97922854D01*
X100133824Y-97990602D01*
X100116720Y-97999600D01*
X100025490Y-97966628D01*
X99996571Y-97943451D01*
X100001956Y-97905287D01*
X100057046Y-97823904D01*
X100166013Y-97694742D01*
X100333030Y-97513236D01*
X100562271Y-97274827D01*
X100857908Y-96974950D01*
X101146609Y-96686151D01*
X102021480Y-95793409D01*
X102813747Y-94938747D01*
X103530805Y-94113101D01*
X104180047Y-93307404D01*
X104768868Y-92512592D01*
X105304663Y-91719597D01*
X105648363Y-91167000D01*
X106087764Y-90386209D01*
X106439842Y-89651114D01*
X106705962Y-88957838D01*
X106887487Y-88302503D01*
X106985778Y-87681231D01*
X107005573Y-87306200D01*
X106994644Y-86901105D01*
X106947581Y-86556078D01*
X106856483Y-86233585D01*
X106713448Y-85896097D01*
X106705015Y-85878616D01*
X106431948Y-85428986D01*
X106080857Y-85037213D01*
X105659953Y-84707432D01*
X105177447Y-84443781D01*
X104641550Y-84250393D01*
X104060473Y-84131406D01*
X103442427Y-84090955D01*
X103170852Y-84098542D01*
X102404824Y-84184857D01*
X101600834Y-84359340D01*
X100765419Y-84618823D01*
X99905116Y-84960137D01*
X99026459Y-85380113D01*
X98135986Y-85875583D01*
X97240233Y-86443377D01*
X96345737Y-87080328D01*
X95459032Y-87783266D01*
X95308000Y-87910406D01*
X95061634Y-88127302D01*
X94774570Y-88392605D01*
X94462225Y-88690911D01*
X94140018Y-89006817D01*
X93823368Y-89324919D01*
X93527693Y-89629812D01*
X93268414Y-89906095D01*
X93060947Y-90138361D01*
X92975101Y-90241034D01*
X92840911Y-90404419D01*
X92752459Y-90499209D01*
X92693202Y-90537081D01*
X92646597Y-90529712D01*
X92608265Y-90499962D01*
X92550565Y-90437605D01*
X92552983Y-90380501D01*
X92617832Y-90287440D01*
X92620386Y-90284151D01*
X92784011Y-90085861D01*
X93005369Y-89835245D01*
X93268076Y-89549474D01*
X93555747Y-89245713D01*
X93851999Y-88941132D01*
X94140448Y-88652900D01*
X94404710Y-88398183D01*
X94537800Y-88274967D01*
X95488598Y-87452823D01*
X96443007Y-86708578D01*
X97396629Y-86044556D01*
X98345062Y-85463081D01*
X99283906Y-84966477D01*
X100208759Y-84557069D01*
X101115222Y-84237181D01*
X101998893Y-84009138D01*
X102855373Y-83875262D01*
X102871174Y-83873663D01*
X103538696Y-83847116D01*
X104172645Y-83901418D01*
G36*
X101281667Y-95643700D02*
X101388930Y-95722487D01*
X101439512Y-95823889D01*
X101422141Y-95907073D01*
X101323003Y-95981460D01*
X101177125Y-96007301D01*
X101029222Y-95980311D01*
X100974210Y-95950002D01*
X100907969Y-95882758D01*
X100911585Y-95801596D01*
X100935021Y-95744564D01*
X101017150Y-95639802D01*
X101141037Y-95612000D01*
X101281667Y-95643700D01*
X101281667Y-95643700D01*
G37*
X101281667Y-95643700D02*
X101388930Y-95722487D01*
X101439512Y-95823889D01*
X101422141Y-95907073D01*
X101323003Y-95981460D01*
X101177125Y-96007301D01*
X101029222Y-95980311D01*
X100974210Y-95950002D01*
X100907969Y-95882758D01*
X100911585Y-95801596D01*
X100935021Y-95744564D01*
X101017150Y-95639802D01*
X101141037Y-95612000D01*
X101281667Y-95643700D01*
G36*
X97954828Y-94947162D02*
X98033473Y-95086143D01*
X98024222Y-95187598D01*
X97935876Y-95236915D01*
X97788825Y-95222745D01*
X97691509Y-95157017D01*
X97674721Y-95051941D01*
X97742309Y-94934822D01*
X97747516Y-94929589D01*
X97854189Y-94824600D01*
X97954828Y-94947162D01*
X97954828Y-94947162D01*
G37*
X97954828Y-94947162D02*
X98033473Y-95086143D01*
X98024222Y-95187598D01*
X97935876Y-95236915D01*
X97788825Y-95222745D01*
X97691509Y-95157017D01*
X97674721Y-95051941D01*
X97742309Y-94934822D01*
X97747516Y-94929589D01*
X97854189Y-94824600D01*
X97954828Y-94947162D01*
G36*
X101008756Y-93805162D02*
X101191886Y-93847899D01*
X101374788Y-93906946D01*
X101533982Y-93976555D01*
X101645987Y-94050981D01*
X101664154Y-94070015D01*
X101700981Y-94141426D01*
X101656019Y-94203450D01*
X101633673Y-94220497D01*
X101563278Y-94265728D01*
X101496151Y-94281858D01*
X101410219Y-94263685D01*
X101283407Y-94206010D01*
X101093642Y-94103631D01*
X101061100Y-94085604D01*
X100891825Y-93986201D01*
X100763585Y-93900373D01*
X100697424Y-93842594D01*
X100692800Y-93832275D01*
X100735733Y-93791603D01*
X100848878Y-93784481D01*
X101008756Y-93805162D01*
X101008756Y-93805162D01*
G37*
X101008756Y-93805162D02*
X101191886Y-93847899D01*
X101374788Y-93906946D01*
X101533982Y-93976555D01*
X101645987Y-94050981D01*
X101664154Y-94070015D01*
X101700981Y-94141426D01*
X101656019Y-94203450D01*
X101633673Y-94220497D01*
X101563278Y-94265728D01*
X101496151Y-94281858D01*
X101410219Y-94263685D01*
X101283407Y-94206010D01*
X101093642Y-94103631D01*
X101061100Y-94085604D01*
X100891825Y-93986201D01*
X100763585Y-93900373D01*
X100697424Y-93842594D01*
X100692800Y-93832275D01*
X100735733Y-93791603D01*
X100848878Y-93784481D01*
X101008756Y-93805162D01*
G36*
X98181870Y-92062284D02*
X98298175Y-92148932D01*
X98349622Y-92251403D01*
X98325832Y-92342372D01*
X98297498Y-92366634D01*
X98228763Y-92402819D01*
X98165510Y-92398641D01*
X98061184Y-92350396D01*
X98055211Y-92347351D01*
X97939548Y-92265444D01*
X97918519Y-92175722D01*
X97965907Y-92085244D01*
X98024308Y-92025192D01*
X98094321Y-92025066D01*
X98181870Y-92062284D01*
X98181870Y-92062284D01*
G37*
X98181870Y-92062284D02*
X98298175Y-92148932D01*
X98349622Y-92251403D01*
X98325832Y-92342372D01*
X98297498Y-92366634D01*
X98228763Y-92402819D01*
X98165510Y-92398641D01*
X98061184Y-92350396D01*
X98055211Y-92347351D01*
X97939548Y-92265444D01*
X97918519Y-92175722D01*
X97965907Y-92085244D01*
X98024308Y-92025192D01*
X98094321Y-92025066D01*
X98181870Y-92062284D01*
G36*
X100142358Y-91170648D02*
X100330117Y-91248682D01*
X100462631Y-91362030D01*
X100528071Y-91497024D01*
X100514605Y-91639995D01*
X100438800Y-91751200D01*
X100309762Y-91821230D01*
X100128989Y-91851736D01*
X99939518Y-91839805D01*
X99803800Y-91794139D01*
X99653432Y-91672665D01*
X99583919Y-91505917D01*
X99575200Y-91391325D01*
X99590821Y-91255795D01*
X99651371Y-91179309D01*
X99777378Y-91146610D01*
X99911186Y-91141600D01*
X100142358Y-91170648D01*
X100142358Y-91170648D01*
G37*
X100142358Y-91170648D02*
X100330117Y-91248682D01*
X100462631Y-91362030D01*
X100528071Y-91497024D01*
X100514605Y-91639995D01*
X100438800Y-91751200D01*
X100309762Y-91821230D01*
X100128989Y-91851736D01*
X99939518Y-91839805D01*
X99803800Y-91794139D01*
X99653432Y-91672665D01*
X99583919Y-91505917D01*
X99575200Y-91391325D01*
X99590821Y-91255795D01*
X99651371Y-91179309D01*
X99777378Y-91146610D01*
X99911186Y-91141600D01*
X100142358Y-91170648D01*
G36*
X97106401Y-90882960D02*
X97234502Y-90968315D01*
X97360340Y-91125804D01*
X97386312Y-91298487D01*
X97311816Y-91479887D01*
X97285512Y-91515749D01*
X97181230Y-91620674D01*
X97080880Y-91640146D01*
X96959000Y-91588242D01*
X96800827Y-91444456D01*
X96713455Y-91251711D01*
X96708411Y-91041500D01*
X96730408Y-90963778D01*
X96814060Y-90863096D01*
X96946377Y-90836220D01*
X97106401Y-90882960D01*
X97106401Y-90882960D01*
G37*
X97106401Y-90882960D02*
X97234502Y-90968315D01*
X97360340Y-91125804D01*
X97386312Y-91298487D01*
X97311816Y-91479887D01*
X97285512Y-91515749D01*
X97181230Y-91620674D01*
X97080880Y-91640146D01*
X96959000Y-91588242D01*
X96800827Y-91444456D01*
X96713455Y-91251711D01*
X96708411Y-91041500D01*
X96730408Y-90963778D01*
X96814060Y-90863096D01*
X96946377Y-90836220D01*
X97106401Y-90882960D01*
G36*
X93796922Y-90793137D02*
X93880030Y-90907954D01*
X93918051Y-91061657D01*
X93899972Y-91238571D01*
X93814782Y-91423019D01*
X93806271Y-91435450D01*
X93722872Y-91523990D01*
X93636358Y-91535029D01*
X93526858Y-91465598D01*
X93438365Y-91380481D01*
X93311418Y-91202012D01*
X93281296Y-91032720D01*
X93348669Y-90879697D01*
X93387178Y-90838778D01*
X93539484Y-90742873D01*
X93679736Y-90732884D01*
X93796922Y-90793137D01*
X93796922Y-90793137D01*
G37*
X93796922Y-90793137D02*
X93880030Y-90907954D01*
X93918051Y-91061657D01*
X93899972Y-91238571D01*
X93814782Y-91423019D01*
X93806271Y-91435450D01*
X93722872Y-91523990D01*
X93636358Y-91535029D01*
X93526858Y-91465598D01*
X93438365Y-91380481D01*
X93311418Y-91202012D01*
X93281296Y-91032720D01*
X93348669Y-90879697D01*
X93387178Y-90838778D01*
X93539484Y-90742873D01*
X93679736Y-90732884D01*
X93796922Y-90793137D01*
G36*
X99043977Y-90354539D02*
X99160253Y-90417155D01*
X99254881Y-90494745D01*
X99297567Y-90565407D01*
X99293285Y-90586867D01*
X99214733Y-90629342D01*
X99087711Y-90628451D01*
X98952904Y-90589547D01*
X98862147Y-90530147D01*
X98791284Y-90425775D01*
X98814215Y-90355873D01*
X98927832Y-90328872D01*
X98936347Y-90328800D01*
X99043977Y-90354539D01*
X99043977Y-90354539D01*
G37*
X99043977Y-90354539D02*
X99160253Y-90417155D01*
X99254881Y-90494745D01*
X99297567Y-90565407D01*
X99293285Y-90586867D01*
X99214733Y-90629342D01*
X99087711Y-90628451D01*
X98952904Y-90589547D01*
X98862147Y-90530147D01*
X98791284Y-90425775D01*
X98814215Y-90355873D01*
X98927832Y-90328872D01*
X98936347Y-90328800D01*
X99043977Y-90354539D01*
G36*
X105294021Y-89745577D02*
X105437087Y-89809770D01*
X105461326Y-89823907D01*
X105569537Y-89898978D01*
X105611286Y-89973187D01*
X105606173Y-90090679D01*
X105599408Y-90134880D01*
X105545268Y-90361290D01*
X105471650Y-90493287D01*
X105380823Y-90528849D01*
X105275055Y-90465953D01*
X105253801Y-90443100D01*
X105116136Y-90229613D01*
X105063275Y-89987214D01*
X105061600Y-89925739D01*
X105068908Y-89792788D01*
X105101076Y-89733252D01*
X105173471Y-89719391D01*
X105175900Y-89719389D01*
X105294021Y-89745577D01*
X105294021Y-89745577D01*
G37*
X105294021Y-89745577D02*
X105437087Y-89809770D01*
X105461326Y-89823907D01*
X105569537Y-89898978D01*
X105611286Y-89973187D01*
X105606173Y-90090679D01*
X105599408Y-90134880D01*
X105545268Y-90361290D01*
X105471650Y-90493287D01*
X105380823Y-90528849D01*
X105275055Y-90465953D01*
X105253801Y-90443100D01*
X105116136Y-90229613D01*
X105063275Y-89987214D01*
X105061600Y-89925739D01*
X105068908Y-89792788D01*
X105101076Y-89733252D01*
X105173471Y-89719391D01*
X105175900Y-89719389D01*
X105294021Y-89745577D01*
G36*
X95023355Y-89230744D02*
X95147134Y-89297100D01*
X95240133Y-89394589D01*
X95291905Y-89486894D01*
X95294781Y-89563608D01*
X95247345Y-89671254D01*
X95230773Y-89702303D01*
X95139118Y-89820465D01*
X95000953Y-89944693D01*
X94848290Y-90051184D01*
X94713142Y-90116136D01*
X94661464Y-90125600D01*
X94585579Y-90096020D01*
X94499282Y-90036700D01*
X94399673Y-89897318D01*
X94355414Y-89713355D01*
X94373023Y-89529326D01*
X94412307Y-89442884D01*
X94533022Y-89334129D01*
X94711006Y-89254903D01*
X94902969Y-89220233D01*
X95023355Y-89230744D01*
X95023355Y-89230744D01*
G37*
X95023355Y-89230744D02*
X95147134Y-89297100D01*
X95240133Y-89394589D01*
X95291905Y-89486894D01*
X95294781Y-89563608D01*
X95247345Y-89671254D01*
X95230773Y-89702303D01*
X95139118Y-89820465D01*
X95000953Y-89944693D01*
X94848290Y-90051184D01*
X94713142Y-90116136D01*
X94661464Y-90125600D01*
X94585579Y-90096020D01*
X94499282Y-90036700D01*
X94399673Y-89897318D01*
X94355414Y-89713355D01*
X94373023Y-89529326D01*
X94412307Y-89442884D01*
X94533022Y-89334129D01*
X94711006Y-89254903D01*
X94902969Y-89220233D01*
X95023355Y-89230744D01*
G36*
X102518215Y-89233374D02*
X102659816Y-89310039D01*
X102778245Y-89430215D01*
X102814451Y-89490600D01*
X102837330Y-89626115D01*
X102790095Y-89758848D01*
X102694528Y-89869696D01*
X102572408Y-89939555D01*
X102445516Y-89949324D01*
X102351067Y-89897010D01*
X102269190Y-89766013D01*
X102210746Y-89585268D01*
X102189543Y-89406169D01*
X102198349Y-89328595D01*
X102263084Y-89236236D01*
X102377838Y-89206634D01*
X102518215Y-89233374D01*
X102518215Y-89233374D01*
G37*
X102518215Y-89233374D02*
X102659816Y-89310039D01*
X102778245Y-89430215D01*
X102814451Y-89490600D01*
X102837330Y-89626115D01*
X102790095Y-89758848D01*
X102694528Y-89869696D01*
X102572408Y-89939555D01*
X102445516Y-89949324D01*
X102351067Y-89897010D01*
X102269190Y-89766013D01*
X102210746Y-89585268D01*
X102189543Y-89406169D01*
X102198349Y-89328595D01*
X102263084Y-89236236D01*
X102377838Y-89206634D01*
X102518215Y-89233374D01*
G36*
X98557606Y-88845630D02*
X98574306Y-88851686D01*
X98678394Y-88925416D01*
X98798058Y-89057552D01*
X98909827Y-89215426D01*
X98990230Y-89366369D01*
X99016400Y-89466991D01*
X98971666Y-89558578D01*
X98856979Y-89624079D01*
X98701608Y-89659251D01*
X98534823Y-89659855D01*
X98385894Y-89621649D01*
X98308033Y-89569633D01*
X98218399Y-89423708D01*
X98166813Y-89227959D01*
X98164336Y-89030513D01*
X98173382Y-88983707D01*
X98247614Y-88868462D01*
X98382739Y-88820115D01*
X98557606Y-88845630D01*
X98557606Y-88845630D01*
G37*
X98557606Y-88845630D02*
X98574306Y-88851686D01*
X98678394Y-88925416D01*
X98798058Y-89057552D01*
X98909827Y-89215426D01*
X98990230Y-89366369D01*
X99016400Y-89466991D01*
X98971666Y-89558578D01*
X98856979Y-89624079D01*
X98701608Y-89659251D01*
X98534823Y-89659855D01*
X98385894Y-89621649D01*
X98308033Y-89569633D01*
X98218399Y-89423708D01*
X98166813Y-89227959D01*
X98164336Y-89030513D01*
X98173382Y-88983707D01*
X98247614Y-88868462D01*
X98382739Y-88820115D01*
X98557606Y-88845630D01*
G36*
X100028328Y-88528435D02*
X100139858Y-88597103D01*
X100213083Y-88689757D01*
X100220265Y-88771487D01*
X100149154Y-88834140D01*
X100029193Y-88854638D01*
X99904503Y-88831808D01*
X99831225Y-88781840D01*
X99785360Y-88668834D01*
X99814951Y-88565637D01*
X99908910Y-88510456D01*
X99910019Y-88510293D01*
X100028328Y-88528435D01*
X100028328Y-88528435D01*
G37*
X100028328Y-88528435D02*
X100139858Y-88597103D01*
X100213083Y-88689757D01*
X100220265Y-88771487D01*
X100149154Y-88834140D01*
X100029193Y-88854638D01*
X99904503Y-88831808D01*
X99831225Y-88781840D01*
X99785360Y-88668834D01*
X99814951Y-88565637D01*
X99908910Y-88510456D01*
X99910019Y-88510293D01*
X100028328Y-88528435D01*
G36*
X105297322Y-88226575D02*
X105413768Y-88307153D01*
X105514111Y-88388560D01*
X105641596Y-88506483D01*
X105702487Y-88592155D01*
X105712481Y-88672914D01*
X105703643Y-88718623D01*
X105639319Y-88828523D01*
X105533936Y-88856202D01*
X105404962Y-88802485D01*
X105294715Y-88699302D01*
X105218512Y-88574487D01*
X105172091Y-88432902D01*
X105159392Y-88303744D01*
X105184355Y-88216210D01*
X105226700Y-88195337D01*
X105297322Y-88226575D01*
X105297322Y-88226575D01*
G37*
X105297322Y-88226575D02*
X105413768Y-88307153D01*
X105514111Y-88388560D01*
X105641596Y-88506483D01*
X105702487Y-88592155D01*
X105712481Y-88672914D01*
X105703643Y-88718623D01*
X105639319Y-88828523D01*
X105533936Y-88856202D01*
X105404962Y-88802485D01*
X105294715Y-88699302D01*
X105218512Y-88574487D01*
X105172091Y-88432902D01*
X105159392Y-88303744D01*
X105184355Y-88216210D01*
X105226700Y-88195337D01*
X105297322Y-88226575D01*
G36*
X104351772Y-88362642D02*
X104462096Y-88446892D01*
X104481814Y-88474207D01*
X104537379Y-88611920D01*
X104515234Y-88708318D01*
X104435140Y-88750760D01*
X104316859Y-88726602D01*
X104207092Y-88649968D01*
X104132467Y-88558294D01*
X104135274Y-88474615D01*
X104148501Y-88446768D01*
X104238216Y-88361858D01*
X104351772Y-88362642D01*
X104351772Y-88362642D01*
G37*
X104351772Y-88362642D02*
X104462096Y-88446892D01*
X104481814Y-88474207D01*
X104537379Y-88611920D01*
X104515234Y-88708318D01*
X104435140Y-88750760D01*
X104316859Y-88726602D01*
X104207092Y-88649968D01*
X104132467Y-88558294D01*
X104135274Y-88474615D01*
X104148501Y-88446768D01*
X104238216Y-88361858D01*
X104351772Y-88362642D01*
G36*
X101606809Y-87662482D02*
X101655379Y-87781366D01*
X101658000Y-87820420D01*
X101633642Y-87914703D01*
X101545064Y-87940428D01*
X101543700Y-87940422D01*
X101420580Y-87921150D01*
X101360901Y-87896234D01*
X101311000Y-87814840D01*
X101331285Y-87708656D01*
X101412441Y-87619390D01*
X101517025Y-87601282D01*
X101606809Y-87662482D01*
X101606809Y-87662482D01*
G37*
X101606809Y-87662482D02*
X101655379Y-87781366D01*
X101658000Y-87820420D01*
X101633642Y-87914703D01*
X101545064Y-87940428D01*
X101543700Y-87940422D01*
X101420580Y-87921150D01*
X101360901Y-87896234D01*
X101311000Y-87814840D01*
X101331285Y-87708656D01*
X101412441Y-87619390D01*
X101517025Y-87601282D01*
X101606809Y-87662482D01*
G36*
X99514343Y-86646972D02*
X99626000Y-86722484D01*
X99709396Y-86795948D01*
X99718307Y-86842423D01*
X99658390Y-86897367D01*
X99654390Y-86900435D01*
X99522545Y-86954595D01*
X99349669Y-86971412D01*
X99191007Y-86945989D01*
X99181500Y-86942356D01*
X99132116Y-86875694D01*
X99119392Y-86762528D01*
X99141606Y-86650427D01*
X99194313Y-86587927D01*
X99340075Y-86581032D01*
X99514343Y-86646972D01*
X99514343Y-86646972D01*
G37*
X99514343Y-86646972D02*
X99626000Y-86722484D01*
X99709396Y-86795948D01*
X99718307Y-86842423D01*
X99658390Y-86897367D01*
X99654390Y-86900435D01*
X99522545Y-86954595D01*
X99349669Y-86971412D01*
X99191007Y-86945989D01*
X99181500Y-86942356D01*
X99132116Y-86875694D01*
X99119392Y-86762528D01*
X99141606Y-86650427D01*
X99194313Y-86587927D01*
X99340075Y-86581032D01*
X99514343Y-86646972D01*
G36*
X105039266Y-86041241D02*
X105188234Y-86124825D01*
X105258459Y-86249940D01*
X105241394Y-86404973D01*
X105185719Y-86507496D01*
X105124510Y-86585648D01*
X105066924Y-86610886D01*
X104982032Y-86583472D01*
X104850368Y-86510315D01*
X104675519Y-86382020D01*
X104578688Y-86254148D01*
X104560722Y-86140711D01*
X104622472Y-86055722D01*
X104764787Y-86013191D01*
X104820102Y-86010800D01*
X105039266Y-86041241D01*
X105039266Y-86041241D01*
G37*
X105039266Y-86041241D02*
X105188234Y-86124825D01*
X105258459Y-86249940D01*
X105241394Y-86404973D01*
X105185719Y-86507496D01*
X105124510Y-86585648D01*
X105066924Y-86610886D01*
X104982032Y-86583472D01*
X104850368Y-86510315D01*
X104675519Y-86382020D01*
X104578688Y-86254148D01*
X104560722Y-86140711D01*
X104622472Y-86055722D01*
X104764787Y-86013191D01*
X104820102Y-86010800D01*
X105039266Y-86041241D01*
G36*
X101901017Y-85940833D02*
X102064250Y-86022351D01*
X102187450Y-86133682D01*
X102241683Y-86254753D01*
X102242200Y-86266823D01*
X102227822Y-86350919D01*
X102165525Y-86391432D01*
X102050906Y-86407613D01*
X101904296Y-86402511D01*
X101787849Y-86344031D01*
X101708006Y-86271821D01*
X101612096Y-86151960D01*
X101559704Y-86039903D01*
X101556400Y-86014707D01*
X101575884Y-85941106D01*
X101652817Y-85912237D01*
X101726687Y-85909200D01*
X101901017Y-85940833D01*
X101901017Y-85940833D01*
G37*
X101901017Y-85940833D02*
X102064250Y-86022351D01*
X102187450Y-86133682D01*
X102241683Y-86254753D01*
X102242200Y-86266823D01*
X102227822Y-86350919D01*
X102165525Y-86391432D01*
X102050906Y-86407613D01*
X101904296Y-86402511D01*
X101787849Y-86344031D01*
X101708006Y-86271821D01*
X101612096Y-86151960D01*
X101559704Y-86039903D01*
X101556400Y-86014707D01*
X101575884Y-85941106D01*
X101652817Y-85912237D01*
X101726687Y-85909200D01*
X101901017Y-85940833D01*
G36*
X108534498Y-81879031D02*
X108637836Y-81916728D01*
X108858462Y-82049912D01*
X109006469Y-82243190D01*
X109074339Y-82478656D01*
X109054555Y-82738402D01*
X109023839Y-82836221D01*
X108978191Y-82915677D01*
X108879857Y-83060879D01*
X108738980Y-83257731D01*
X108565702Y-83492134D01*
X108370167Y-83749992D01*
X108312733Y-83824575D01*
X108081382Y-84121255D01*
X107899884Y-84346578D01*
X107758289Y-84511318D01*
X107646645Y-84626251D01*
X107555001Y-84702152D01*
X107473406Y-84749796D01*
X107448266Y-84760646D01*
X107261929Y-84821874D01*
X107109914Y-84831800D01*
X106957198Y-84799236D01*
X106757946Y-84690614D01*
X106609999Y-84511952D01*
X106524733Y-84286635D01*
X106516518Y-84104427D01*
X106738000Y-84104427D01*
X106749094Y-84307522D01*
X106791225Y-84438032D01*
X106877666Y-84523408D01*
X106961502Y-84566660D01*
X107084613Y-84617791D01*
X107165749Y-84632161D01*
X107256756Y-84611998D01*
X107341316Y-84582978D01*
X107416831Y-84540258D01*
X107516449Y-84452484D01*
X107647763Y-84311217D01*
X107818365Y-84108017D01*
X108035846Y-83834445D01*
X108168511Y-83663484D01*
X108397016Y-83364769D01*
X108569261Y-83132644D01*
X108693097Y-82954882D01*
X108776373Y-82819252D01*
X108826942Y-82713529D01*
X108852653Y-82625482D01*
X108858090Y-82589406D01*
X108840288Y-82374642D01*
X108740872Y-82213874D01*
X108570860Y-82119366D01*
X108417627Y-82099200D01*
X108326134Y-82104327D01*
X108241724Y-82125817D01*
X108154699Y-82172833D01*
X108055361Y-82254537D01*
X107934012Y-82380094D01*
X107780954Y-82558665D01*
X107586490Y-82799415D01*
X107340920Y-83111504D01*
X107325925Y-83130682D01*
X107118824Y-83397155D01*
X106966834Y-83598344D01*
X106861512Y-83748234D01*
X106794414Y-83860809D01*
X106757096Y-83950053D01*
X106741117Y-84029950D01*
X106738000Y-84104427D01*
X106516518Y-84104427D01*
X106513525Y-84038050D01*
X106534288Y-83929897D01*
X106593821Y-83800301D01*
X106721537Y-83598490D01*
X106916123Y-83326365D01*
X107176266Y-82985826D01*
X107262077Y-82876700D01*
X107493347Y-82586357D01*
X107674071Y-82365816D01*
X107815004Y-82203853D01*
X107926896Y-82089243D01*
X108020501Y-82010761D01*
X108106569Y-81957183D01*
X108171891Y-81926902D01*
X108319147Y-81870746D01*
X108423444Y-81855151D01*
X108534498Y-81879031D01*
X108534498Y-81879031D01*
G37*
X108534498Y-81879031D02*
X108637836Y-81916728D01*
X108858462Y-82049912D01*
X109006469Y-82243190D01*
X109074339Y-82478656D01*
X109054555Y-82738402D01*
X109023839Y-82836221D01*
X108978191Y-82915677D01*
X108879857Y-83060879D01*
X108738980Y-83257731D01*
X108565702Y-83492134D01*
X108370167Y-83749992D01*
X108312733Y-83824575D01*
X108081382Y-84121255D01*
X107899884Y-84346578D01*
X107758289Y-84511318D01*
X107646645Y-84626251D01*
X107555001Y-84702152D01*
X107473406Y-84749796D01*
X107448266Y-84760646D01*
X107261929Y-84821874D01*
X107109914Y-84831800D01*
X106957198Y-84799236D01*
X106757946Y-84690614D01*
X106609999Y-84511952D01*
X106524733Y-84286635D01*
X106516518Y-84104427D01*
X106738000Y-84104427D01*
X106749094Y-84307522D01*
X106791225Y-84438032D01*
X106877666Y-84523408D01*
X106961502Y-84566660D01*
X107084613Y-84617791D01*
X107165749Y-84632161D01*
X107256756Y-84611998D01*
X107341316Y-84582978D01*
X107416831Y-84540258D01*
X107516449Y-84452484D01*
X107647763Y-84311217D01*
X107818365Y-84108017D01*
X108035846Y-83834445D01*
X108168511Y-83663484D01*
X108397016Y-83364769D01*
X108569261Y-83132644D01*
X108693097Y-82954882D01*
X108776373Y-82819252D01*
X108826942Y-82713529D01*
X108852653Y-82625482D01*
X108858090Y-82589406D01*
X108840288Y-82374642D01*
X108740872Y-82213874D01*
X108570860Y-82119366D01*
X108417627Y-82099200D01*
X108326134Y-82104327D01*
X108241724Y-82125817D01*
X108154699Y-82172833D01*
X108055361Y-82254537D01*
X107934012Y-82380094D01*
X107780954Y-82558665D01*
X107586490Y-82799415D01*
X107340920Y-83111504D01*
X107325925Y-83130682D01*
X107118824Y-83397155D01*
X106966834Y-83598344D01*
X106861512Y-83748234D01*
X106794414Y-83860809D01*
X106757096Y-83950053D01*
X106741117Y-84029950D01*
X106738000Y-84104427D01*
X106516518Y-84104427D01*
X106513525Y-84038050D01*
X106534288Y-83929897D01*
X106593821Y-83800301D01*
X106721537Y-83598490D01*
X106916123Y-83326365D01*
X107176266Y-82985826D01*
X107262077Y-82876700D01*
X107493347Y-82586357D01*
X107674071Y-82365816D01*
X107815004Y-82203853D01*
X107926896Y-82089243D01*
X108020501Y-82010761D01*
X108106569Y-81957183D01*
X108171891Y-81926902D01*
X108319147Y-81870746D01*
X108423444Y-81855151D01*
X108534498Y-81879031D01*
G36*
X111478400Y-79376196D02*
X111658572Y-79501731D01*
X111790514Y-79678334D01*
X111861968Y-79889379D01*
X111860677Y-80118238D01*
X111774382Y-80348283D01*
X111768888Y-80357439D01*
X111699984Y-80438391D01*
X111566355Y-80569322D01*
X111383014Y-80737516D01*
X111164972Y-80930254D01*
X110927244Y-81134819D01*
X110684841Y-81338495D01*
X110452777Y-81528562D01*
X110246063Y-81692305D01*
X110079713Y-81817005D01*
X109968740Y-81889945D01*
X109947792Y-81900113D01*
X109776648Y-81937327D01*
X109570965Y-81941051D01*
X109380419Y-81912944D01*
X109287639Y-81878074D01*
X109113807Y-81727601D01*
X109009524Y-81520397D01*
X108981696Y-81291313D01*
X109176400Y-81291313D01*
X109202196Y-81419095D01*
X109264993Y-81560372D01*
X109342904Y-81672525D01*
X109391231Y-81709599D01*
X109539824Y-81737083D01*
X109722190Y-81731465D01*
X109878858Y-81695688D01*
X109903639Y-81684239D01*
X109988700Y-81626368D01*
X110132910Y-81515291D01*
X110321008Y-81363931D01*
X110537729Y-81185211D01*
X110767810Y-80992054D01*
X110995989Y-80797384D01*
X111207003Y-80614123D01*
X111385587Y-80455194D01*
X111516479Y-80333520D01*
X111584416Y-80262024D01*
X111586026Y-80259800D01*
X111661633Y-80078068D01*
X111654318Y-79894552D01*
X111579050Y-79728984D01*
X111450796Y-79601099D01*
X111284526Y-79530629D01*
X111095207Y-79537309D01*
X111049221Y-79552120D01*
X110955926Y-79605417D01*
X110804284Y-79712152D01*
X110609004Y-79860135D01*
X110384792Y-80037178D01*
X110146359Y-80231090D01*
X109908413Y-80429681D01*
X109685661Y-80620763D01*
X109492813Y-80792146D01*
X109344576Y-80931641D01*
X109255659Y-81027057D01*
X109238893Y-81052422D01*
X109192314Y-81188743D01*
X109176400Y-81291313D01*
X108981696Y-81291313D01*
X108980136Y-81278475D01*
X109030990Y-81023849D01*
X109062100Y-80949527D01*
X109134615Y-80850748D01*
X109274583Y-80705289D01*
X109466820Y-80525580D01*
X109696142Y-80324049D01*
X109947365Y-80113126D01*
X110205306Y-79905241D01*
X110454781Y-79712821D01*
X110680607Y-79548297D01*
X110867599Y-79424098D01*
X111000575Y-79352652D01*
X111022399Y-79344845D01*
X111262256Y-79318358D01*
X111478400Y-79376196D01*
X111478400Y-79376196D01*
G37*
X111478400Y-79376196D02*
X111658572Y-79501731D01*
X111790514Y-79678334D01*
X111861968Y-79889379D01*
X111860677Y-80118238D01*
X111774382Y-80348283D01*
X111768888Y-80357439D01*
X111699984Y-80438391D01*
X111566355Y-80569322D01*
X111383014Y-80737516D01*
X111164972Y-80930254D01*
X110927244Y-81134819D01*
X110684841Y-81338495D01*
X110452777Y-81528562D01*
X110246063Y-81692305D01*
X110079713Y-81817005D01*
X109968740Y-81889945D01*
X109947792Y-81900113D01*
X109776648Y-81937327D01*
X109570965Y-81941051D01*
X109380419Y-81912944D01*
X109287639Y-81878074D01*
X109113807Y-81727601D01*
X109009524Y-81520397D01*
X108981696Y-81291313D01*
X109176400Y-81291313D01*
X109202196Y-81419095D01*
X109264993Y-81560372D01*
X109342904Y-81672525D01*
X109391231Y-81709599D01*
X109539824Y-81737083D01*
X109722190Y-81731465D01*
X109878858Y-81695688D01*
X109903639Y-81684239D01*
X109988700Y-81626368D01*
X110132910Y-81515291D01*
X110321008Y-81363931D01*
X110537729Y-81185211D01*
X110767810Y-80992054D01*
X110995989Y-80797384D01*
X111207003Y-80614123D01*
X111385587Y-80455194D01*
X111516479Y-80333520D01*
X111584416Y-80262024D01*
X111586026Y-80259800D01*
X111661633Y-80078068D01*
X111654318Y-79894552D01*
X111579050Y-79728984D01*
X111450796Y-79601099D01*
X111284526Y-79530629D01*
X111095207Y-79537309D01*
X111049221Y-79552120D01*
X110955926Y-79605417D01*
X110804284Y-79712152D01*
X110609004Y-79860135D01*
X110384792Y-80037178D01*
X110146359Y-80231090D01*
X109908413Y-80429681D01*
X109685661Y-80620763D01*
X109492813Y-80792146D01*
X109344576Y-80931641D01*
X109255659Y-81027057D01*
X109238893Y-81052422D01*
X109192314Y-81188743D01*
X109176400Y-81291313D01*
X108981696Y-81291313D01*
X108980136Y-81278475D01*
X109030990Y-81023849D01*
X109062100Y-80949527D01*
X109134615Y-80850748D01*
X109274583Y-80705289D01*
X109466820Y-80525580D01*
X109696142Y-80324049D01*
X109947365Y-80113126D01*
X110205306Y-79905241D01*
X110454781Y-79712821D01*
X110680607Y-79548297D01*
X110867599Y-79424098D01*
X111000575Y-79352652D01*
X111022399Y-79344845D01*
X111262256Y-79318358D01*
X111478400Y-79376196D01*
G36*
X134785305Y-78104120D02*
X134938161Y-78150887D01*
X135042566Y-78210855D01*
X135207449Y-78324661D01*
X135416693Y-78479389D01*
X135654183Y-78662125D01*
X135903801Y-78859953D01*
X136149432Y-79059959D01*
X136374960Y-79249228D01*
X136564267Y-79414844D01*
X136701238Y-79543892D01*
X136763264Y-79613461D01*
X136872869Y-79842304D01*
X136894062Y-80075400D01*
X136836332Y-80293950D01*
X136709169Y-80479155D01*
X136522061Y-80612215D01*
X136284500Y-80674332D01*
X136226607Y-80676610D01*
X136046029Y-80653289D01*
X135875820Y-80596076D01*
X135860000Y-80587900D01*
X135736536Y-80509460D01*
X135560750Y-80383206D01*
X135347409Y-80221220D01*
X135111280Y-80035584D01*
X134867131Y-79838384D01*
X134629729Y-79641702D01*
X134413840Y-79457621D01*
X134234232Y-79298225D01*
X134105673Y-79175597D01*
X134042929Y-79101821D01*
X134042218Y-79100488D01*
X133994668Y-78956304D01*
X133976638Y-78831583D01*
X134176099Y-78831583D01*
X134214613Y-78988277D01*
X134219563Y-78998089D01*
X134273224Y-79056785D01*
X134392527Y-79165408D01*
X134562637Y-79311866D01*
X134768720Y-79484069D01*
X134995943Y-79669924D01*
X135229470Y-79857341D01*
X135454469Y-80034228D01*
X135656104Y-80188493D01*
X135819543Y-80308046D01*
X135866188Y-80340269D01*
X136091488Y-80449643D01*
X136300469Y-80467935D01*
X136481202Y-80394952D01*
X136532443Y-80350974D01*
X136661670Y-80171151D01*
X136690286Y-79987539D01*
X136624241Y-79802747D01*
X136544881Y-79704926D01*
X136400934Y-79563291D01*
X136207695Y-79390011D01*
X135980461Y-79197253D01*
X135734527Y-78997185D01*
X135485189Y-78801974D01*
X135247742Y-78623788D01*
X135037482Y-78474795D01*
X134869705Y-78367162D01*
X134759707Y-78313057D01*
X134747790Y-78310045D01*
X134559299Y-78308210D01*
X134379573Y-78361276D01*
X134246985Y-78455752D01*
X134218858Y-78496027D01*
X134177486Y-78647349D01*
X134176099Y-78831583D01*
X133976638Y-78831583D01*
X133968534Y-78775532D01*
X133966800Y-78722776D01*
X134011692Y-78488789D01*
X134134217Y-78299198D01*
X134316146Y-78164735D01*
X134539251Y-78096132D01*
X134785305Y-78104120D01*
X134785305Y-78104120D01*
G37*
X134785305Y-78104120D02*
X134938161Y-78150887D01*
X135042566Y-78210855D01*
X135207449Y-78324661D01*
X135416693Y-78479389D01*
X135654183Y-78662125D01*
X135903801Y-78859953D01*
X136149432Y-79059959D01*
X136374960Y-79249228D01*
X136564267Y-79414844D01*
X136701238Y-79543892D01*
X136763264Y-79613461D01*
X136872869Y-79842304D01*
X136894062Y-80075400D01*
X136836332Y-80293950D01*
X136709169Y-80479155D01*
X136522061Y-80612215D01*
X136284500Y-80674332D01*
X136226607Y-80676610D01*
X136046029Y-80653289D01*
X135875820Y-80596076D01*
X135860000Y-80587900D01*
X135736536Y-80509460D01*
X135560750Y-80383206D01*
X135347409Y-80221220D01*
X135111280Y-80035584D01*
X134867131Y-79838384D01*
X134629729Y-79641702D01*
X134413840Y-79457621D01*
X134234232Y-79298225D01*
X134105673Y-79175597D01*
X134042929Y-79101821D01*
X134042218Y-79100488D01*
X133994668Y-78956304D01*
X133976638Y-78831583D01*
X134176099Y-78831583D01*
X134214613Y-78988277D01*
X134219563Y-78998089D01*
X134273224Y-79056785D01*
X134392527Y-79165408D01*
X134562637Y-79311866D01*
X134768720Y-79484069D01*
X134995943Y-79669924D01*
X135229470Y-79857341D01*
X135454469Y-80034228D01*
X135656104Y-80188493D01*
X135819543Y-80308046D01*
X135866188Y-80340269D01*
X136091488Y-80449643D01*
X136300469Y-80467935D01*
X136481202Y-80394952D01*
X136532443Y-80350974D01*
X136661670Y-80171151D01*
X136690286Y-79987539D01*
X136624241Y-79802747D01*
X136544881Y-79704926D01*
X136400934Y-79563291D01*
X136207695Y-79390011D01*
X135980461Y-79197253D01*
X135734527Y-78997185D01*
X135485189Y-78801974D01*
X135247742Y-78623788D01*
X135037482Y-78474795D01*
X134869705Y-78367162D01*
X134759707Y-78313057D01*
X134747790Y-78310045D01*
X134559299Y-78308210D01*
X134379573Y-78361276D01*
X134246985Y-78455752D01*
X134218858Y-78496027D01*
X134177486Y-78647349D01*
X134176099Y-78831583D01*
X133976638Y-78831583D01*
X133968534Y-78775532D01*
X133966800Y-78722776D01*
X134011692Y-78488789D01*
X134134217Y-78299198D01*
X134316146Y-78164735D01*
X134539251Y-78096132D01*
X134785305Y-78104120D01*
G36*
X114884219Y-77590492D02*
X114998139Y-77654808D01*
X115005900Y-77660409D01*
X115172923Y-77834266D01*
X115277731Y-78050794D01*
X115305422Y-78275916D01*
X115298555Y-78329509D01*
X115255124Y-78468039D01*
X115172493Y-78597393D01*
X115040750Y-78724653D01*
X114849983Y-78856905D01*
X114590277Y-79001231D01*
X114251720Y-79164718D01*
X113926200Y-79310240D01*
X113558924Y-79467386D01*
X113268221Y-79582499D01*
X113039640Y-79658684D01*
X112858731Y-79699047D01*
X112711045Y-79706693D01*
X112582133Y-79684729D01*
X112457543Y-79636261D01*
X112442768Y-79629093D01*
X112251131Y-79486501D01*
X112142692Y-79287025D01*
X112120916Y-79121965D01*
X112326403Y-79121965D01*
X112394448Y-79303189D01*
X112540531Y-79441733D01*
X112554600Y-79449739D01*
X112642213Y-79485949D01*
X112742472Y-79498265D01*
X112869092Y-79483106D01*
X113035787Y-79436889D01*
X113256274Y-79356033D01*
X113544267Y-79236956D01*
X113808619Y-79122253D01*
X114163556Y-78965776D01*
X114437172Y-78842562D01*
X114641448Y-78745660D01*
X114788368Y-78668118D01*
X114889911Y-78602986D01*
X114958062Y-78543313D01*
X115004800Y-78482147D01*
X115042109Y-78412538D01*
X115045985Y-78404418D01*
X115094865Y-78202596D01*
X115054867Y-78021055D01*
X114938707Y-77878922D01*
X114759100Y-77795326D01*
X114631692Y-77781200D01*
X114500150Y-77802846D01*
X114299644Y-77862421D01*
X114048698Y-77951879D01*
X113765840Y-78063173D01*
X113469595Y-78188258D01*
X113178489Y-78319087D01*
X112911048Y-78447615D01*
X112685798Y-78565795D01*
X112521265Y-78665582D01*
X112440552Y-78732838D01*
X112340427Y-78923402D01*
X112326403Y-79121965D01*
X112120916Y-79121965D01*
X112114333Y-79072072D01*
X112155382Y-78829699D01*
X112265772Y-78606159D01*
X112426362Y-78439101D01*
X112441194Y-78429050D01*
X112522055Y-78386304D01*
X112679768Y-78311202D01*
X112897769Y-78211326D01*
X113159488Y-78094261D01*
X113448359Y-77967587D01*
X113469000Y-77958629D01*
X113855911Y-77795102D01*
X114165357Y-77675751D01*
X114410124Y-77598096D01*
X114602999Y-77559655D01*
X114756768Y-77557947D01*
X114884219Y-77590492D01*
X114884219Y-77590492D01*
G37*
X114884219Y-77590492D02*
X114998139Y-77654808D01*
X115005900Y-77660409D01*
X115172923Y-77834266D01*
X115277731Y-78050794D01*
X115305422Y-78275916D01*
X115298555Y-78329509D01*
X115255124Y-78468039D01*
X115172493Y-78597393D01*
X115040750Y-78724653D01*
X114849983Y-78856905D01*
X114590277Y-79001231D01*
X114251720Y-79164718D01*
X113926200Y-79310240D01*
X113558924Y-79467386D01*
X113268221Y-79582499D01*
X113039640Y-79658684D01*
X112858731Y-79699047D01*
X112711045Y-79706693D01*
X112582133Y-79684729D01*
X112457543Y-79636261D01*
X112442768Y-79629093D01*
X112251131Y-79486501D01*
X112142692Y-79287025D01*
X112120916Y-79121965D01*
X112326403Y-79121965D01*
X112394448Y-79303189D01*
X112540531Y-79441733D01*
X112554600Y-79449739D01*
X112642213Y-79485949D01*
X112742472Y-79498265D01*
X112869092Y-79483106D01*
X113035787Y-79436889D01*
X113256274Y-79356033D01*
X113544267Y-79236956D01*
X113808619Y-79122253D01*
X114163556Y-78965776D01*
X114437172Y-78842562D01*
X114641448Y-78745660D01*
X114788368Y-78668118D01*
X114889911Y-78602986D01*
X114958062Y-78543313D01*
X115004800Y-78482147D01*
X115042109Y-78412538D01*
X115045985Y-78404418D01*
X115094865Y-78202596D01*
X115054867Y-78021055D01*
X114938707Y-77878922D01*
X114759100Y-77795326D01*
X114631692Y-77781200D01*
X114500150Y-77802846D01*
X114299644Y-77862421D01*
X114048698Y-77951879D01*
X113765840Y-78063173D01*
X113469595Y-78188258D01*
X113178489Y-78319087D01*
X112911048Y-78447615D01*
X112685798Y-78565795D01*
X112521265Y-78665582D01*
X112440552Y-78732838D01*
X112340427Y-78923402D01*
X112326403Y-79121965D01*
X112120916Y-79121965D01*
X112114333Y-79072072D01*
X112155382Y-78829699D01*
X112265772Y-78606159D01*
X112426362Y-78439101D01*
X112441194Y-78429050D01*
X112522055Y-78386304D01*
X112679768Y-78311202D01*
X112897769Y-78211326D01*
X113159488Y-78094261D01*
X113448359Y-77967587D01*
X113469000Y-77958629D01*
X113855911Y-77795102D01*
X114165357Y-77675751D01*
X114410124Y-77598096D01*
X114602999Y-77559655D01*
X114756768Y-77557947D01*
X114884219Y-77590492D01*
G36*
X131390381Y-76879550D02*
X131599527Y-76914511D01*
X131864022Y-76966745D01*
X132162586Y-77031317D01*
X132473940Y-77103290D01*
X132776806Y-77177727D01*
X133049904Y-77249692D01*
X133271955Y-77314248D01*
X133421680Y-77366460D01*
X133433400Y-77371494D01*
X133643395Y-77487235D01*
X133769347Y-77623215D01*
X133828632Y-77805728D01*
X133839800Y-77986397D01*
X133832782Y-78167160D01*
X133802746Y-78287534D01*
X133736212Y-78388283D01*
X133690287Y-78438585D01*
X133537843Y-78556589D01*
X133349666Y-78647783D01*
X133171654Y-78691439D01*
X133128600Y-78692254D01*
X133065505Y-78680589D01*
X132919233Y-78649682D01*
X132705634Y-78603005D01*
X132440558Y-78544027D01*
X132139857Y-78476217D01*
X132087200Y-78464258D01*
X131774347Y-78391861D01*
X131487456Y-78323101D01*
X131244349Y-78262436D01*
X131062846Y-78214324D01*
X130960769Y-78183225D01*
X130955178Y-78181044D01*
X130766699Y-78051042D01*
X130620224Y-77840465D01*
X130556624Y-77677683D01*
X130548319Y-77569754D01*
X130762314Y-77569754D01*
X130813745Y-77751413D01*
X130933226Y-77903033D01*
X131056476Y-77977472D01*
X131197129Y-78024589D01*
X131411865Y-78084053D01*
X131678763Y-78151006D01*
X131975897Y-78220594D01*
X132281346Y-78287961D01*
X132573184Y-78348251D01*
X132829488Y-78396610D01*
X133028335Y-78428181D01*
X133136784Y-78438205D01*
X133302055Y-78432720D01*
X133408150Y-78400030D01*
X133496901Y-78323887D01*
X133530484Y-78285302D01*
X133641363Y-78093877D01*
X133651823Y-77906342D01*
X133561957Y-77728367D01*
X133520609Y-77682794D01*
X133457849Y-77629988D01*
X133373198Y-77581569D01*
X133252230Y-77532660D01*
X133080516Y-77478385D01*
X132843631Y-77413868D01*
X132527148Y-77334232D01*
X132390309Y-77300767D01*
X131993027Y-77206944D01*
X131679918Y-77141030D01*
X131437653Y-77102370D01*
X131252903Y-77090311D01*
X131112339Y-77104198D01*
X131002631Y-77143379D01*
X130910449Y-77207198D01*
X130888406Y-77227090D01*
X130785133Y-77385749D01*
X130762314Y-77569754D01*
X130548319Y-77569754D01*
X130539913Y-77460531D01*
X130608694Y-77253183D01*
X130747206Y-77073864D01*
X130939690Y-76940795D01*
X131170386Y-76872202D01*
X131257861Y-76866800D01*
X131390381Y-76879550D01*
X131390381Y-76879550D01*
G37*
X131390381Y-76879550D02*
X131599527Y-76914511D01*
X131864022Y-76966745D01*
X132162586Y-77031317D01*
X132473940Y-77103290D01*
X132776806Y-77177727D01*
X133049904Y-77249692D01*
X133271955Y-77314248D01*
X133421680Y-77366460D01*
X133433400Y-77371494D01*
X133643395Y-77487235D01*
X133769347Y-77623215D01*
X133828632Y-77805728D01*
X133839800Y-77986397D01*
X133832782Y-78167160D01*
X133802746Y-78287534D01*
X133736212Y-78388283D01*
X133690287Y-78438585D01*
X133537843Y-78556589D01*
X133349666Y-78647783D01*
X133171654Y-78691439D01*
X133128600Y-78692254D01*
X133065505Y-78680589D01*
X132919233Y-78649682D01*
X132705634Y-78603005D01*
X132440558Y-78544027D01*
X132139857Y-78476217D01*
X132087200Y-78464258D01*
X131774347Y-78391861D01*
X131487456Y-78323101D01*
X131244349Y-78262436D01*
X131062846Y-78214324D01*
X130960769Y-78183225D01*
X130955178Y-78181044D01*
X130766699Y-78051042D01*
X130620224Y-77840465D01*
X130556624Y-77677683D01*
X130548319Y-77569754D01*
X130762314Y-77569754D01*
X130813745Y-77751413D01*
X130933226Y-77903033D01*
X131056476Y-77977472D01*
X131197129Y-78024589D01*
X131411865Y-78084053D01*
X131678763Y-78151006D01*
X131975897Y-78220594D01*
X132281346Y-78287961D01*
X132573184Y-78348251D01*
X132829488Y-78396610D01*
X133028335Y-78428181D01*
X133136784Y-78438205D01*
X133302055Y-78432720D01*
X133408150Y-78400030D01*
X133496901Y-78323887D01*
X133530484Y-78285302D01*
X133641363Y-78093877D01*
X133651823Y-77906342D01*
X133561957Y-77728367D01*
X133520609Y-77682794D01*
X133457849Y-77629988D01*
X133373198Y-77581569D01*
X133252230Y-77532660D01*
X133080516Y-77478385D01*
X132843631Y-77413868D01*
X132527148Y-77334232D01*
X132390309Y-77300767D01*
X131993027Y-77206944D01*
X131679918Y-77141030D01*
X131437653Y-77102370D01*
X131252903Y-77090311D01*
X131112339Y-77104198D01*
X131002631Y-77143379D01*
X130910449Y-77207198D01*
X130888406Y-77227090D01*
X130785133Y-77385749D01*
X130762314Y-77569754D01*
X130548319Y-77569754D01*
X130539913Y-77460531D01*
X130608694Y-77253183D01*
X130747206Y-77073864D01*
X130939690Y-76940795D01*
X131170386Y-76872202D01*
X131257861Y-76866800D01*
X131390381Y-76879550D01*
G36*
X118518935Y-76756914D02*
X118723503Y-76871805D01*
X118873837Y-77040884D01*
X118959254Y-77245883D01*
X118969072Y-77468533D01*
X118892608Y-77690568D01*
X118866327Y-77732840D01*
X118749510Y-77870165D01*
X118615208Y-77981375D01*
X118599627Y-77990907D01*
X118509910Y-78023212D01*
X118338832Y-78068153D01*
X118105313Y-78122042D01*
X117828274Y-78181193D01*
X117526633Y-78241918D01*
X117219311Y-78300532D01*
X116925227Y-78353346D01*
X116663302Y-78396675D01*
X116452454Y-78426830D01*
X116311604Y-78440126D01*
X116292854Y-78440433D01*
X116164416Y-78414200D01*
X116010626Y-78350610D01*
X115974688Y-78331012D01*
X115772711Y-78164122D01*
X115658770Y-77953418D01*
X115644296Y-77781752D01*
X115838739Y-77781752D01*
X115880420Y-77960271D01*
X116000172Y-78110417D01*
X116073777Y-78159212D01*
X116132435Y-78190615D01*
X116186319Y-78212756D01*
X116249465Y-78224537D01*
X116335910Y-78224861D01*
X116459691Y-78212629D01*
X116634844Y-78186745D01*
X116875406Y-78146110D01*
X117195415Y-78089627D01*
X117377486Y-78057252D01*
X117693916Y-77998450D01*
X117981791Y-77940151D01*
X118223940Y-77886215D01*
X118403192Y-77840504D01*
X118502375Y-77806880D01*
X118510192Y-77802544D01*
X118670094Y-77652168D01*
X118751735Y-77474730D01*
X118758099Y-77292169D01*
X118692166Y-77126424D01*
X118556916Y-76999438D01*
X118392841Y-76938943D01*
X118286727Y-76937492D01*
X118101091Y-76953354D01*
X117855900Y-76983251D01*
X117571125Y-77023907D01*
X117266735Y-77072046D01*
X116962699Y-77124390D01*
X116678985Y-77177663D01*
X116435564Y-77228589D01*
X116252404Y-77273890D01*
X116159167Y-77305456D01*
X115980408Y-77431394D01*
X115872834Y-77597809D01*
X115838739Y-77781752D01*
X115644296Y-77781752D01*
X115638165Y-77709047D01*
X115640374Y-77690800D01*
X115715858Y-77438689D01*
X115870790Y-77245823D01*
X116059800Y-77126080D01*
X116172417Y-77087774D01*
X116365014Y-77038718D01*
X116617020Y-76982740D01*
X116907867Y-76923671D01*
X117216986Y-76865339D01*
X117523807Y-76811574D01*
X117807761Y-76766204D01*
X118048278Y-76733058D01*
X118224790Y-76715967D01*
X118270815Y-76714478D01*
X118518935Y-76756914D01*
X118518935Y-76756914D01*
G37*
X118518935Y-76756914D02*
X118723503Y-76871805D01*
X118873837Y-77040884D01*
X118959254Y-77245883D01*
X118969072Y-77468533D01*
X118892608Y-77690568D01*
X118866327Y-77732840D01*
X118749510Y-77870165D01*
X118615208Y-77981375D01*
X118599627Y-77990907D01*
X118509910Y-78023212D01*
X118338832Y-78068153D01*
X118105313Y-78122042D01*
X117828274Y-78181193D01*
X117526633Y-78241918D01*
X117219311Y-78300532D01*
X116925227Y-78353346D01*
X116663302Y-78396675D01*
X116452454Y-78426830D01*
X116311604Y-78440126D01*
X116292854Y-78440433D01*
X116164416Y-78414200D01*
X116010626Y-78350610D01*
X115974688Y-78331012D01*
X115772711Y-78164122D01*
X115658770Y-77953418D01*
X115644296Y-77781752D01*
X115838739Y-77781752D01*
X115880420Y-77960271D01*
X116000172Y-78110417D01*
X116073777Y-78159212D01*
X116132435Y-78190615D01*
X116186319Y-78212756D01*
X116249465Y-78224537D01*
X116335910Y-78224861D01*
X116459691Y-78212629D01*
X116634844Y-78186745D01*
X116875406Y-78146110D01*
X117195415Y-78089627D01*
X117377486Y-78057252D01*
X117693916Y-77998450D01*
X117981791Y-77940151D01*
X118223940Y-77886215D01*
X118403192Y-77840504D01*
X118502375Y-77806880D01*
X118510192Y-77802544D01*
X118670094Y-77652168D01*
X118751735Y-77474730D01*
X118758099Y-77292169D01*
X118692166Y-77126424D01*
X118556916Y-76999438D01*
X118392841Y-76938943D01*
X118286727Y-76937492D01*
X118101091Y-76953354D01*
X117855900Y-76983251D01*
X117571125Y-77023907D01*
X117266735Y-77072046D01*
X116962699Y-77124390D01*
X116678985Y-77177663D01*
X116435564Y-77228589D01*
X116252404Y-77273890D01*
X116159167Y-77305456D01*
X115980408Y-77431394D01*
X115872834Y-77597809D01*
X115838739Y-77781752D01*
X115644296Y-77781752D01*
X115638165Y-77709047D01*
X115640374Y-77690800D01*
X115715858Y-77438689D01*
X115870790Y-77245823D01*
X116059800Y-77126080D01*
X116172417Y-77087774D01*
X116365014Y-77038718D01*
X116617020Y-76982740D01*
X116907867Y-76923671D01*
X117216986Y-76865339D01*
X117523807Y-76811574D01*
X117807761Y-76766204D01*
X118048278Y-76733058D01*
X118224790Y-76715967D01*
X118270815Y-76714478D01*
X118518935Y-76756914D01*
G36*
X128178462Y-76479318D02*
X128576005Y-76504097D01*
X128862502Y-76526575D01*
X129256500Y-76563445D01*
X129555135Y-76601177D01*
X129764644Y-76640727D01*
X129891264Y-76683048D01*
X129893448Y-76684164D01*
X130087183Y-76836141D01*
X130209294Y-77040654D01*
X130252733Y-77273040D01*
X130210451Y-77508637D01*
X130159035Y-77613339D01*
X130077728Y-77729859D01*
X129984565Y-77820241D01*
X129867432Y-77886467D01*
X129714213Y-77930517D01*
X129512791Y-77954374D01*
X129251052Y-77960018D01*
X128916879Y-77949433D01*
X128498156Y-77924598D01*
X128328000Y-77912808D01*
X127956490Y-77883586D01*
X127671062Y-77852677D01*
X127456229Y-77815791D01*
X127296507Y-77768636D01*
X127176410Y-77706922D01*
X127080453Y-77626359D01*
X127013020Y-77548461D01*
X126900188Y-77330746D01*
X126880055Y-77115656D01*
X127077317Y-77115656D01*
X127080458Y-77214731D01*
X127115401Y-77299790D01*
X127175372Y-77407538D01*
X127245710Y-77490533D01*
X127340850Y-77553387D01*
X127475227Y-77600711D01*
X127663277Y-77637115D01*
X127919435Y-77667209D01*
X128258136Y-77695606D01*
X128383675Y-77704896D01*
X128784639Y-77732394D01*
X129098155Y-77749192D01*
X129337869Y-77754684D01*
X129517430Y-77748265D01*
X129650487Y-77729332D01*
X129750687Y-77697279D01*
X129831679Y-77651502D01*
X129847601Y-77640031D01*
X129992651Y-77479082D01*
X130047000Y-77293979D01*
X130010805Y-77106037D01*
X129884226Y-76936567D01*
X129842120Y-76902275D01*
X129783184Y-76866737D01*
X129702809Y-76837545D01*
X129586855Y-76812620D01*
X129421184Y-76789883D01*
X129191657Y-76767256D01*
X128884134Y-76742661D01*
X128631879Y-76724361D01*
X128271434Y-76699468D01*
X127997347Y-76682717D01*
X127794693Y-76674196D01*
X127648550Y-76673991D01*
X127543996Y-76682189D01*
X127466106Y-76698876D01*
X127399959Y-76724140D01*
X127383903Y-76731618D01*
X127225556Y-76849567D01*
X127127544Y-76986302D01*
X127077317Y-77115656D01*
X126880055Y-77115656D01*
X126878355Y-77097496D01*
X126943830Y-76870006D01*
X127092921Y-76669568D01*
X127177425Y-76600106D01*
X127285446Y-76541606D01*
X127427749Y-76500792D01*
X127616146Y-76477150D01*
X127862446Y-76470164D01*
X128178462Y-76479318D01*
X128178462Y-76479318D01*
G37*
X128178462Y-76479318D02*
X128576005Y-76504097D01*
X128862502Y-76526575D01*
X129256500Y-76563445D01*
X129555135Y-76601177D01*
X129764644Y-76640727D01*
X129891264Y-76683048D01*
X129893448Y-76684164D01*
X130087183Y-76836141D01*
X130209294Y-77040654D01*
X130252733Y-77273040D01*
X130210451Y-77508637D01*
X130159035Y-77613339D01*
X130077728Y-77729859D01*
X129984565Y-77820241D01*
X129867432Y-77886467D01*
X129714213Y-77930517D01*
X129512791Y-77954374D01*
X129251052Y-77960018D01*
X128916879Y-77949433D01*
X128498156Y-77924598D01*
X128328000Y-77912808D01*
X127956490Y-77883586D01*
X127671062Y-77852677D01*
X127456229Y-77815791D01*
X127296507Y-77768636D01*
X127176410Y-77706922D01*
X127080453Y-77626359D01*
X127013020Y-77548461D01*
X126900188Y-77330746D01*
X126880055Y-77115656D01*
X127077317Y-77115656D01*
X127080458Y-77214731D01*
X127115401Y-77299790D01*
X127175372Y-77407538D01*
X127245710Y-77490533D01*
X127340850Y-77553387D01*
X127475227Y-77600711D01*
X127663277Y-77637115D01*
X127919435Y-77667209D01*
X128258136Y-77695606D01*
X128383675Y-77704896D01*
X128784639Y-77732394D01*
X129098155Y-77749192D01*
X129337869Y-77754684D01*
X129517430Y-77748265D01*
X129650487Y-77729332D01*
X129750687Y-77697279D01*
X129831679Y-77651502D01*
X129847601Y-77640031D01*
X129992651Y-77479082D01*
X130047000Y-77293979D01*
X130010805Y-77106037D01*
X129884226Y-76936567D01*
X129842120Y-76902275D01*
X129783184Y-76866737D01*
X129702809Y-76837545D01*
X129586855Y-76812620D01*
X129421184Y-76789883D01*
X129191657Y-76767256D01*
X128884134Y-76742661D01*
X128631879Y-76724361D01*
X128271434Y-76699468D01*
X127997347Y-76682717D01*
X127794693Y-76674196D01*
X127648550Y-76673991D01*
X127543996Y-76682189D01*
X127466106Y-76698876D01*
X127399959Y-76724140D01*
X127383903Y-76731618D01*
X127225556Y-76849567D01*
X127127544Y-76986302D01*
X127077317Y-77115656D01*
X126880055Y-77115656D01*
X126878355Y-77097496D01*
X126943830Y-76870006D01*
X127092921Y-76669568D01*
X127177425Y-76600106D01*
X127285446Y-76541606D01*
X127427749Y-76500792D01*
X127616146Y-76477150D01*
X127862446Y-76470164D01*
X128178462Y-76479318D01*
G36*
X121968636Y-76518262D02*
X122124469Y-76525204D01*
X122235109Y-76537790D01*
X122314652Y-76556970D01*
X122377197Y-76583692D01*
X122425556Y-76611817D01*
X122596915Y-76773999D01*
X122697828Y-76987391D01*
X122722937Y-77225186D01*
X122666883Y-77460578D01*
X122614578Y-77557319D01*
X122518448Y-77657607D01*
X122377553Y-77757183D01*
X122336698Y-77779619D01*
X122260312Y-77813477D01*
X122170555Y-77839911D01*
X122052744Y-77860377D01*
X121892193Y-77876331D01*
X121674219Y-77889229D01*
X121384136Y-77900528D01*
X121007262Y-77911682D01*
X121003941Y-77911772D01*
X120632967Y-77921299D01*
X120349094Y-77926592D01*
X120137882Y-77926919D01*
X119984892Y-77921545D01*
X119875684Y-77909736D01*
X119795820Y-77890758D01*
X119730859Y-77863877D01*
X119695925Y-77845274D01*
X119503395Y-77686723D01*
X119384580Y-77481187D01*
X119360324Y-77338433D01*
X119564340Y-77338433D01*
X119594485Y-77435462D01*
X119639772Y-77529919D01*
X119696045Y-77601964D01*
X119776254Y-77654098D01*
X119893351Y-77688823D01*
X120060289Y-77708640D01*
X120290018Y-77716050D01*
X120595492Y-77713557D01*
X120983948Y-77703824D01*
X121406366Y-77688438D01*
X121747561Y-77669117D01*
X122001632Y-77646324D01*
X122162679Y-77620521D01*
X122203148Y-77608086D01*
X122386424Y-77497276D01*
X122483847Y-77344699D01*
X122509090Y-77159791D01*
X122488431Y-76996401D01*
X122411194Y-76876443D01*
X122367712Y-76836008D01*
X122314182Y-76793039D01*
X122257726Y-76761605D01*
X122182475Y-76739905D01*
X122072559Y-76726136D01*
X121912109Y-76718498D01*
X121685257Y-76715190D01*
X121376132Y-76714411D01*
X121296300Y-76714400D01*
X120977161Y-76717239D01*
X120673202Y-76725110D01*
X120407114Y-76737041D01*
X120201591Y-76752062D01*
X120095277Y-76765792D01*
X119842439Y-76847474D01*
X119664749Y-76976721D01*
X119569589Y-77143665D01*
X119564340Y-77338433D01*
X119360324Y-77338433D01*
X119345655Y-77252104D01*
X119392795Y-77022917D01*
X119450872Y-76915159D01*
X119531783Y-76802863D01*
X119614108Y-76715160D01*
X119711293Y-76648820D01*
X119836789Y-76600615D01*
X120004042Y-76567313D01*
X120226501Y-76545687D01*
X120517615Y-76532508D01*
X120890831Y-76524545D01*
X121089000Y-76521805D01*
X121464998Y-76517512D01*
X121753511Y-76516014D01*
X121968636Y-76518262D01*
X121968636Y-76518262D01*
G37*
X121968636Y-76518262D02*
X122124469Y-76525204D01*
X122235109Y-76537790D01*
X122314652Y-76556970D01*
X122377197Y-76583692D01*
X122425556Y-76611817D01*
X122596915Y-76773999D01*
X122697828Y-76987391D01*
X122722937Y-77225186D01*
X122666883Y-77460578D01*
X122614578Y-77557319D01*
X122518448Y-77657607D01*
X122377553Y-77757183D01*
X122336698Y-77779619D01*
X122260312Y-77813477D01*
X122170555Y-77839911D01*
X122052744Y-77860377D01*
X121892193Y-77876331D01*
X121674219Y-77889229D01*
X121384136Y-77900528D01*
X121007262Y-77911682D01*
X121003941Y-77911772D01*
X120632967Y-77921299D01*
X120349094Y-77926592D01*
X120137882Y-77926919D01*
X119984892Y-77921545D01*
X119875684Y-77909736D01*
X119795820Y-77890758D01*
X119730859Y-77863877D01*
X119695925Y-77845274D01*
X119503395Y-77686723D01*
X119384580Y-77481187D01*
X119360324Y-77338433D01*
X119564340Y-77338433D01*
X119594485Y-77435462D01*
X119639772Y-77529919D01*
X119696045Y-77601964D01*
X119776254Y-77654098D01*
X119893351Y-77688823D01*
X120060289Y-77708640D01*
X120290018Y-77716050D01*
X120595492Y-77713557D01*
X120983948Y-77703824D01*
X121406366Y-77688438D01*
X121747561Y-77669117D01*
X122001632Y-77646324D01*
X122162679Y-77620521D01*
X122203148Y-77608086D01*
X122386424Y-77497276D01*
X122483847Y-77344699D01*
X122509090Y-77159791D01*
X122488431Y-76996401D01*
X122411194Y-76876443D01*
X122367712Y-76836008D01*
X122314182Y-76793039D01*
X122257726Y-76761605D01*
X122182475Y-76739905D01*
X122072559Y-76726136D01*
X121912109Y-76718498D01*
X121685257Y-76715190D01*
X121376132Y-76714411D01*
X121296300Y-76714400D01*
X120977161Y-76717239D01*
X120673202Y-76725110D01*
X120407114Y-76737041D01*
X120201591Y-76752062D01*
X120095277Y-76765792D01*
X119842439Y-76847474D01*
X119664749Y-76976721D01*
X119569589Y-77143665D01*
X119564340Y-77338433D01*
X119360324Y-77338433D01*
X119345655Y-77252104D01*
X119392795Y-77022917D01*
X119450872Y-76915159D01*
X119531783Y-76802863D01*
X119614108Y-76715160D01*
X119711293Y-76648820D01*
X119836789Y-76600615D01*
X120004042Y-76567313D01*
X120226501Y-76545687D01*
X120517615Y-76532508D01*
X120890831Y-76524545D01*
X121089000Y-76521805D01*
X121464998Y-76517512D01*
X121753511Y-76516014D01*
X121968636Y-76518262D01*
G36*
X125112547Y-76462947D02*
X125440822Y-76470569D01*
X125693688Y-76485492D01*
X125884209Y-76509580D01*
X126025449Y-76544697D01*
X126130473Y-76592709D01*
X126212344Y-76655479D01*
X126237485Y-76680788D01*
X126373995Y-76890496D01*
X126422381Y-77117768D01*
X126389277Y-77343515D01*
X126281320Y-77548649D01*
X126105143Y-77714081D01*
X125867381Y-77820724D01*
X125838800Y-77827806D01*
X125708298Y-77845060D01*
X125498383Y-77858445D01*
X125231170Y-77867881D01*
X124928774Y-77873292D01*
X124613309Y-77874598D01*
X124306893Y-77871720D01*
X124031640Y-77864581D01*
X123809665Y-77853101D01*
X123663085Y-77837203D01*
X123654400Y-77835563D01*
X123411264Y-77759713D01*
X123237842Y-77635508D01*
X123143871Y-77511257D01*
X123059294Y-77283421D01*
X123060455Y-77229707D01*
X123252990Y-77229707D01*
X123333467Y-77408103D01*
X123396492Y-77480307D01*
X123544984Y-77628800D01*
X125881804Y-77628800D01*
X126040614Y-77495169D01*
X126140668Y-77397352D01*
X126182804Y-77300001D01*
X126185697Y-77155889D01*
X126184212Y-77131981D01*
X126158250Y-76965610D01*
X126094311Y-76855568D01*
X126025574Y-76795711D01*
X125974532Y-76761467D01*
X125916305Y-76735442D01*
X125837082Y-76716513D01*
X125723054Y-76703557D01*
X125560413Y-76695451D01*
X125335347Y-76691073D01*
X125034048Y-76689299D01*
X124713307Y-76689000D01*
X123544465Y-76689000D01*
X123396232Y-76854901D01*
X123273912Y-77045385D01*
X123252990Y-77229707D01*
X123060455Y-77229707D01*
X123064407Y-77047065D01*
X123152073Y-76824450D01*
X123315156Y-76637838D01*
X123452212Y-76549378D01*
X123525374Y-76518957D01*
X123616947Y-76496229D01*
X123741786Y-76480134D01*
X123914748Y-76469615D01*
X124150687Y-76463613D01*
X124464459Y-76461069D01*
X124695800Y-76460762D01*
X125112547Y-76462947D01*
X125112547Y-76462947D01*
G37*
X125112547Y-76462947D02*
X125440822Y-76470569D01*
X125693688Y-76485492D01*
X125884209Y-76509580D01*
X126025449Y-76544697D01*
X126130473Y-76592709D01*
X126212344Y-76655479D01*
X126237485Y-76680788D01*
X126373995Y-76890496D01*
X126422381Y-77117768D01*
X126389277Y-77343515D01*
X126281320Y-77548649D01*
X126105143Y-77714081D01*
X125867381Y-77820724D01*
X125838800Y-77827806D01*
X125708298Y-77845060D01*
X125498383Y-77858445D01*
X125231170Y-77867881D01*
X124928774Y-77873292D01*
X124613309Y-77874598D01*
X124306893Y-77871720D01*
X124031640Y-77864581D01*
X123809665Y-77853101D01*
X123663085Y-77837203D01*
X123654400Y-77835563D01*
X123411264Y-77759713D01*
X123237842Y-77635508D01*
X123143871Y-77511257D01*
X123059294Y-77283421D01*
X123060455Y-77229707D01*
X123252990Y-77229707D01*
X123333467Y-77408103D01*
X123396492Y-77480307D01*
X123544984Y-77628800D01*
X125881804Y-77628800D01*
X126040614Y-77495169D01*
X126140668Y-77397352D01*
X126182804Y-77300001D01*
X126185697Y-77155889D01*
X126184212Y-77131981D01*
X126158250Y-76965610D01*
X126094311Y-76855568D01*
X126025574Y-76795711D01*
X125974532Y-76761467D01*
X125916305Y-76735442D01*
X125837082Y-76716513D01*
X125723054Y-76703557D01*
X125560413Y-76695451D01*
X125335347Y-76691073D01*
X125034048Y-76689299D01*
X124713307Y-76689000D01*
X123544465Y-76689000D01*
X123396232Y-76854901D01*
X123273912Y-77045385D01*
X123252990Y-77229707D01*
X123060455Y-77229707D01*
X123064407Y-77047065D01*
X123152073Y-76824450D01*
X123315156Y-76637838D01*
X123452212Y-76549378D01*
X123525374Y-76518957D01*
X123616947Y-76496229D01*
X123741786Y-76480134D01*
X123914748Y-76469615D01*
X124150687Y-76463613D01*
X124464459Y-76461069D01*
X124695800Y-76460762D01*
X125112547Y-76462947D01*
M02*
