G04 #@! TF.FileFunction,Copper,L1,Top,Signal*
%FSLAX46Y46*%
G04 Gerber Fmt 4.6, Leading zero omitted, Abs format (unit mm)*
G04 Created by KiCad (PCBNEW 4.0.5-e0-6337~49~ubuntu14.04.1) date Tue May 16 18:33:42 2017*
%MOMM*%
%LPD*%
G01*
G04 APERTURE LIST*
%ADD10C,0.100000*%
%ADD11C,0.210000*%
%ADD12C,0.140000*%
%ADD13C,0.010000*%
%ADD14C,3.000000*%
%ADD15C,0.600000*%
%ADD16C,0.500000*%
%ADD17C,0.200000*%
G04 APERTURE END LIST*
D10*
D11*
X119307143Y-80978571D02*
X119307143Y-79478571D01*
X120164286Y-80978571D01*
X120164286Y-79478571D01*
X121450000Y-80907143D02*
X121307143Y-80978571D01*
X121021429Y-80978571D01*
X120878572Y-80907143D01*
X120807143Y-80764286D01*
X120807143Y-80192857D01*
X120878572Y-80050000D01*
X121021429Y-79978571D01*
X121307143Y-79978571D01*
X121450000Y-80050000D01*
X121521429Y-80192857D01*
X121521429Y-80335714D01*
X120807143Y-80478571D01*
X122807143Y-79978571D02*
X122807143Y-80978571D01*
X122164286Y-79978571D02*
X122164286Y-80764286D01*
X122235714Y-80907143D01*
X122378572Y-80978571D01*
X122592857Y-80978571D01*
X122735714Y-80907143D01*
X122807143Y-80835714D01*
X123521429Y-80978571D02*
X123521429Y-79978571D01*
X123521429Y-80264286D02*
X123592857Y-80121429D01*
X123664286Y-80050000D01*
X123807143Y-79978571D01*
X123950000Y-79978571D01*
X124664286Y-80978571D02*
X124521428Y-80907143D01*
X124450000Y-80835714D01*
X124378571Y-80692857D01*
X124378571Y-80264286D01*
X124450000Y-80121429D01*
X124521428Y-80050000D01*
X124664286Y-79978571D01*
X124878571Y-79978571D01*
X125021428Y-80050000D01*
X125092857Y-80121429D01*
X125164286Y-80264286D01*
X125164286Y-80692857D01*
X125092857Y-80835714D01*
X125021428Y-80907143D01*
X124878571Y-80978571D01*
X124664286Y-80978571D01*
X126307143Y-80192857D02*
X126521429Y-80264286D01*
X126592857Y-80335714D01*
X126664286Y-80478571D01*
X126664286Y-80692857D01*
X126592857Y-80835714D01*
X126521429Y-80907143D01*
X126378571Y-80978571D01*
X125807143Y-80978571D01*
X125807143Y-79478571D01*
X126307143Y-79478571D01*
X126450000Y-79550000D01*
X126521429Y-79621429D01*
X126592857Y-79764286D01*
X126592857Y-79907143D01*
X126521429Y-80050000D01*
X126450000Y-80121429D01*
X126307143Y-80192857D01*
X125807143Y-80192857D01*
X127164286Y-79978571D02*
X127521429Y-80978571D01*
X127878571Y-79978571D02*
X127521429Y-80978571D01*
X127378571Y-81335714D01*
X127307143Y-81407143D01*
X127164286Y-81478571D01*
X128235714Y-79978571D02*
X128807143Y-79978571D01*
X128450000Y-79478571D02*
X128450000Y-80764286D01*
X128521428Y-80907143D01*
X128664286Y-80978571D01*
X128807143Y-80978571D01*
X129878571Y-80907143D02*
X129735714Y-80978571D01*
X129450000Y-80978571D01*
X129307143Y-80907143D01*
X129235714Y-80764286D01*
X129235714Y-80192857D01*
X129307143Y-80050000D01*
X129450000Y-79978571D01*
X129735714Y-79978571D01*
X129878571Y-80050000D01*
X129950000Y-80192857D01*
X129950000Y-80335714D01*
X129235714Y-80478571D01*
X130521428Y-80907143D02*
X130664285Y-80978571D01*
X130950000Y-80978571D01*
X131092857Y-80907143D01*
X131164285Y-80764286D01*
X131164285Y-80692857D01*
X131092857Y-80550000D01*
X130950000Y-80478571D01*
X130735714Y-80478571D01*
X130592857Y-80407143D01*
X130521428Y-80264286D01*
X130521428Y-80192857D01*
X130592857Y-80050000D01*
X130735714Y-79978571D01*
X130950000Y-79978571D01*
X131092857Y-80050000D01*
D12*
X132238095Y-79809524D02*
X132000000Y-79523810D01*
X131809524Y-79809524D02*
X131809524Y-79142857D01*
X132095238Y-79142857D01*
X132190476Y-79190476D01*
X132238095Y-79285714D01*
X132238095Y-79380952D01*
X132190476Y-79476190D01*
X132095238Y-79523810D01*
X131809524Y-79523810D01*
X132000000Y-78809524D02*
X131761905Y-78857143D01*
X131523809Y-79000000D01*
X131380952Y-79238095D01*
X131333333Y-79476190D01*
X131380952Y-79714286D01*
X131523809Y-79952381D01*
X131761905Y-80095238D01*
X132000000Y-80142857D01*
X132238095Y-80095238D01*
X132476190Y-79952381D01*
X132619047Y-79714286D01*
X132666667Y-79476190D01*
X132619047Y-79238095D01*
X132476190Y-79000000D01*
X132238095Y-78857143D01*
X132000000Y-78809524D01*
D13*
G36*
X126974216Y-65588257D02*
X127588266Y-65714321D01*
X128165000Y-65932580D01*
X128696044Y-66237964D01*
X129173020Y-66625400D01*
X129587551Y-67089817D01*
X129691543Y-67233325D01*
X130002570Y-67760627D01*
X130226135Y-68309998D01*
X130361289Y-68870797D01*
X130407085Y-69432384D01*
X130362577Y-69984117D01*
X130226816Y-70515355D01*
X130024220Y-70970090D01*
X129792174Y-71347349D01*
X129518624Y-71701303D01*
X129192629Y-72042242D01*
X128803250Y-72380454D01*
X128339548Y-72726227D01*
X127790584Y-73089849D01*
X127729405Y-73128323D01*
X127520322Y-73267391D01*
X127331532Y-73407582D01*
X127188134Y-73529487D01*
X127128765Y-73592809D01*
X126946519Y-73911436D01*
X126825707Y-74305662D01*
X126767163Y-74769538D01*
X126771718Y-75297115D01*
X126823345Y-75774600D01*
X126881364Y-76138393D01*
X126935135Y-76412588D01*
X126987413Y-76608943D01*
X127040956Y-76739218D01*
X127055080Y-76763180D01*
X127101804Y-76809218D01*
X127162674Y-76781701D01*
X127194691Y-76754015D01*
X127276068Y-76688400D01*
X127364538Y-76640376D01*
X127474591Y-76608759D01*
X127620717Y-76592363D01*
X127817406Y-76590004D01*
X128079145Y-76600494D01*
X128420427Y-76622651D01*
X128620651Y-76637375D01*
X129030791Y-76670442D01*
X129351836Y-76703148D01*
X129596212Y-76739168D01*
X129776343Y-76782176D01*
X129904656Y-76835848D01*
X129993576Y-76903859D01*
X130055526Y-76989884D01*
X130093584Y-77073033D01*
X130146559Y-77186193D01*
X130213027Y-77246823D01*
X130327618Y-77277874D01*
X130421600Y-77290409D01*
X130581069Y-77302784D01*
X130684386Y-77283468D01*
X130775238Y-77219611D01*
X130824810Y-77171804D01*
X130917130Y-77089378D01*
X131013624Y-77032061D01*
X131128331Y-77000061D01*
X131275291Y-76993583D01*
X131468543Y-77012832D01*
X131722127Y-77058015D01*
X132050081Y-77129337D01*
X132326726Y-77193815D01*
X132642547Y-77271454D01*
X132933726Y-77348525D01*
X133182212Y-77419820D01*
X133369948Y-77480126D01*
X133478883Y-77524235D01*
X133486229Y-77528454D01*
X133647949Y-77675493D01*
X133745238Y-77862052D01*
X133763600Y-77981963D01*
X133808640Y-78070091D01*
X133931730Y-78172890D01*
X133983513Y-78205223D01*
X134120619Y-78280178D01*
X134218289Y-78306836D01*
X134323140Y-78290914D01*
X134421524Y-78258961D01*
X134592218Y-78214087D01*
X134733985Y-78218900D01*
X134823911Y-78242884D01*
X134921926Y-78294003D01*
X135081063Y-78399210D01*
X135285622Y-78546105D01*
X135519900Y-78722287D01*
X135768198Y-78915356D01*
X136014813Y-79112911D01*
X136244045Y-79302552D01*
X136440192Y-79471878D01*
X136587554Y-79608489D01*
X136670430Y-79699983D01*
X136672321Y-79702735D01*
X136744661Y-79899002D01*
X136751258Y-80067200D01*
X136747591Y-80207594D01*
X136768009Y-80274168D01*
X136829148Y-80294430D01*
X136889498Y-80295800D01*
X136997617Y-80278234D01*
X137075138Y-80208398D01*
X137134875Y-80101968D01*
X137209980Y-79889521D01*
X137273085Y-79592371D01*
X137322098Y-79226931D01*
X137354932Y-78809612D01*
X137369496Y-78356828D01*
X137370040Y-78254775D01*
X137379374Y-77733715D01*
X137410544Y-77285981D01*
X137469149Y-76884608D01*
X137560787Y-76502627D01*
X137691057Y-76113071D01*
X137865559Y-75688974D01*
X137934781Y-75534705D01*
X138047165Y-75271813D01*
X138130065Y-75044137D01*
X138176172Y-74872975D01*
X138183200Y-74810805D01*
X138191599Y-74690688D01*
X138233908Y-74641174D01*
X138333209Y-74631600D01*
X138527984Y-74657681D01*
X138672317Y-74725254D01*
X138756986Y-74818310D01*
X138772767Y-74920840D01*
X138710438Y-75016835D01*
X138591794Y-75080422D01*
X138431271Y-75180149D01*
X138277568Y-75356107D01*
X138133948Y-75593773D01*
X138003674Y-75878620D01*
X137890008Y-76196124D01*
X137796212Y-76531759D01*
X137725550Y-76870999D01*
X137681284Y-77199321D01*
X137666676Y-77502198D01*
X137684988Y-77765104D01*
X137739485Y-77973516D01*
X137833427Y-78112907D01*
X137901374Y-78154239D01*
X137975443Y-78167072D01*
X138132944Y-78184259D01*
X138355885Y-78204173D01*
X138626272Y-78225190D01*
X138881153Y-78242783D01*
X139365488Y-78267464D01*
X139812131Y-78276779D01*
X140208801Y-78271195D01*
X140543219Y-78251181D01*
X140803103Y-78217205D01*
X140976176Y-78169737D01*
X140992400Y-78162230D01*
X141147003Y-78098937D01*
X141250904Y-78100550D01*
X141333980Y-78170089D01*
X141355319Y-78198903D01*
X141425040Y-78358523D01*
X141416834Y-78506928D01*
X141354868Y-78596764D01*
X141285123Y-78632274D01*
X141199333Y-78612225D01*
X141113568Y-78564884D01*
X141054001Y-78533089D01*
X140985172Y-78509313D01*
X140892861Y-78492642D01*
X140762850Y-78482160D01*
X140580921Y-78476954D01*
X140332853Y-78476110D01*
X140004429Y-78478714D01*
X139808800Y-78480983D01*
X139452809Y-78483068D01*
X139108043Y-78480940D01*
X138795424Y-78475042D01*
X138535876Y-78465815D01*
X138350323Y-78453701D01*
X138310200Y-78449315D01*
X138096565Y-78430473D01*
X137935881Y-78433323D01*
X137865616Y-78449863D01*
X137803546Y-78496506D01*
X137748399Y-78574577D01*
X137697269Y-78694875D01*
X137647247Y-78868198D01*
X137595425Y-79105345D01*
X137538894Y-79417112D01*
X137474748Y-79814300D01*
X137443741Y-80016400D01*
X137403688Y-80205032D01*
X137342437Y-80418131D01*
X137312316Y-80505194D01*
X137267213Y-80637937D01*
X137248182Y-80748151D01*
X137261737Y-80855376D01*
X137314390Y-80979153D01*
X137412656Y-81139020D01*
X137563047Y-81354518D01*
X137623519Y-81438800D01*
X137946101Y-81938957D01*
X138216835Y-82463683D01*
X138418154Y-82978425D01*
X138437153Y-83039000D01*
X138587055Y-83486263D01*
X138733937Y-83833223D01*
X138878369Y-84081112D01*
X138965698Y-84184384D01*
X139129413Y-84344457D01*
X140392818Y-84352128D01*
X140787307Y-84353969D01*
X141093039Y-84353586D01*
X141322844Y-84350194D01*
X141489555Y-84343006D01*
X141606003Y-84331238D01*
X141685021Y-84314103D01*
X141739440Y-84290817D01*
X141773421Y-84267598D01*
X141888633Y-84205413D01*
X141961050Y-84234915D01*
X141991858Y-84356840D01*
X141993199Y-84403438D01*
X141968931Y-84565103D01*
X141901758Y-84648438D01*
X141800130Y-84643958D01*
X141785397Y-84636736D01*
X141668769Y-84601011D01*
X141470304Y-84568476D01*
X141209742Y-84540096D01*
X140906821Y-84516839D01*
X140581280Y-84499672D01*
X140252859Y-84489561D01*
X139941297Y-84487473D01*
X139666331Y-84494374D01*
X139447703Y-84511232D01*
X139389700Y-84519405D01*
X139267012Y-84552360D01*
X139209903Y-84610839D01*
X139216139Y-84711723D01*
X139283491Y-84871898D01*
X139330981Y-84963759D01*
X139424072Y-85153995D01*
X139523072Y-85379480D01*
X139580017Y-85522155D01*
X139676432Y-85771818D01*
X139751944Y-85944379D01*
X139819197Y-86058635D01*
X139890833Y-86133387D01*
X139979498Y-86187432D01*
X140048555Y-86218781D01*
X140189517Y-86291792D01*
X140254042Y-86365909D01*
X140265999Y-86436278D01*
X140221025Y-86565515D01*
X140104198Y-86694126D01*
X139942666Y-86798638D01*
X139785200Y-86852013D01*
X139646626Y-86868930D01*
X139562515Y-86845585D01*
X139522937Y-86766013D01*
X139517957Y-86614252D01*
X139530960Y-86443382D01*
X139540144Y-86172811D01*
X139510385Y-85912856D01*
X139435501Y-85639765D01*
X139309310Y-85329782D01*
X139163706Y-85032368D01*
X139024190Y-84785383D01*
X138870525Y-84552332D01*
X138715825Y-84349513D01*
X138573203Y-84193223D01*
X138455770Y-84099758D01*
X138397753Y-84080400D01*
X138322849Y-84115035D01*
X138206695Y-84205481D01*
X138084873Y-84321700D01*
X137854798Y-84611355D01*
X137637323Y-84981075D01*
X137442090Y-85409366D01*
X137278739Y-85874738D01*
X137156908Y-86355697D01*
X137144716Y-86417752D01*
X137092611Y-86727804D01*
X137071213Y-86964064D01*
X137081049Y-87149753D01*
X137122647Y-87308092D01*
X137167200Y-87407800D01*
X137233197Y-87536978D01*
X137259446Y-87606320D01*
X137248307Y-87648453D01*
X137202137Y-87696003D01*
X137188971Y-87708971D01*
X137063081Y-87773116D01*
X136893383Y-87788153D01*
X136724074Y-87755737D01*
X136608399Y-87687200D01*
X136536089Y-87604587D01*
X136516871Y-87533038D01*
X136555575Y-87445244D01*
X136657031Y-87313893D01*
X136679107Y-87287374D01*
X136788733Y-87130053D01*
X136868709Y-86944264D01*
X136934442Y-86693954D01*
X136936227Y-86685667D01*
X137051203Y-86176843D01*
X137162465Y-85749178D01*
X137277251Y-85382823D01*
X137402802Y-85057931D01*
X137546356Y-84754652D01*
X137715152Y-84453139D01*
X137802199Y-84311271D01*
X137926460Y-84104404D01*
X138035071Y-83907425D01*
X138112044Y-83750065D01*
X138134260Y-83693763D01*
X138175959Y-83423903D01*
X138146436Y-83099506D01*
X138049246Y-82734816D01*
X137887947Y-82344077D01*
X137718323Y-82027684D01*
X137616117Y-81864128D01*
X137479574Y-81658695D01*
X137321435Y-81429127D01*
X137154436Y-81193168D01*
X136991316Y-80968562D01*
X136844813Y-80773053D01*
X136727666Y-80624383D01*
X136652612Y-80540295D01*
X136646910Y-80535280D01*
X136554781Y-80506700D01*
X136396911Y-80530232D01*
X136379205Y-80534798D01*
X136204842Y-80562435D01*
X136051506Y-80533495D01*
X135998800Y-80512800D01*
X135907871Y-80459282D01*
X135754649Y-80353285D01*
X135555037Y-80207205D01*
X135324933Y-80033433D01*
X135080241Y-79844365D01*
X134836860Y-79652393D01*
X134610692Y-79469911D01*
X134417638Y-79309314D01*
X134273599Y-79182993D01*
X134202092Y-79112411D01*
X134136041Y-78993272D01*
X134089219Y-78830464D01*
X134082394Y-78784584D01*
X134053213Y-78634679D01*
X133988872Y-78538433D01*
X133861714Y-78451907D01*
X133665824Y-78339167D01*
X133498812Y-78440993D01*
X133343023Y-78510181D01*
X133186605Y-78542665D01*
X133173305Y-78543010D01*
X133046903Y-78530813D01*
X132848188Y-78497075D01*
X132596105Y-78446380D01*
X132309600Y-78383309D01*
X132007619Y-78312445D01*
X131709109Y-78238370D01*
X131433014Y-78165667D01*
X131198281Y-78098918D01*
X131023855Y-78042705D01*
X130928683Y-78001611D01*
X130925305Y-77999292D01*
X130806557Y-77881284D01*
X130715600Y-77742863D01*
X130655713Y-77644643D01*
X130574007Y-77589727D01*
X130435657Y-77558157D01*
X130379955Y-77550517D01*
X130218411Y-77536125D01*
X130115715Y-77552055D01*
X130031146Y-77608418D01*
X129990630Y-77647187D01*
X129859319Y-77747981D01*
X129721092Y-77812453D01*
X129716674Y-77813618D01*
X129623465Y-77821810D01*
X129446551Y-77823554D01*
X129203600Y-77819206D01*
X128912282Y-77809121D01*
X128590263Y-77793655D01*
X128514281Y-77789407D01*
X128111595Y-77764125D01*
X127797887Y-77738234D01*
X127560561Y-77708926D01*
X127387019Y-77673390D01*
X127264663Y-77628818D01*
X127180896Y-77572398D01*
X127123120Y-77501322D01*
X127108518Y-77475874D01*
X127068342Y-77424440D01*
X127000287Y-77393912D01*
X126880934Y-77379109D01*
X126686861Y-77374849D01*
X126651600Y-77374800D01*
X126444914Y-77377974D01*
X126316302Y-77390950D01*
X126242342Y-77418909D01*
X126199611Y-77467033D01*
X126194681Y-77475874D01*
X126144222Y-77554456D01*
X126078901Y-77615401D01*
X125986422Y-77660671D01*
X125854489Y-77692230D01*
X125670806Y-77712042D01*
X125423077Y-77722070D01*
X125099007Y-77724277D01*
X124686300Y-77720628D01*
X124663829Y-77720336D01*
X123494009Y-77705000D01*
X123319521Y-77514500D01*
X123201681Y-77398312D01*
X123097043Y-77342151D01*
X122957775Y-77324817D01*
X122889681Y-77324000D01*
X122729633Y-77332108D01*
X122617856Y-77369852D01*
X122509233Y-77457362D01*
X122445865Y-77522009D01*
X122375406Y-77592833D01*
X122305996Y-77648465D01*
X122224403Y-77691281D01*
X122117394Y-77723659D01*
X121971737Y-77747977D01*
X121774200Y-77766610D01*
X121511550Y-77781937D01*
X121170555Y-77796334D01*
X120853813Y-77808011D01*
X120474024Y-77817698D01*
X120181464Y-77814260D01*
X119962322Y-77795239D01*
X119802788Y-77758183D01*
X119689051Y-77700635D01*
X119607303Y-77620142D01*
X119580953Y-77581750D01*
X119476363Y-77501158D01*
X119315519Y-77468307D01*
X119129785Y-77479510D01*
X118950528Y-77531076D01*
X118809114Y-77619318D01*
X118761126Y-77678167D01*
X118703193Y-77758252D01*
X118624534Y-77825994D01*
X118512530Y-77885586D01*
X118354561Y-77941218D01*
X118138008Y-77997081D01*
X117850250Y-78057366D01*
X117478669Y-78126265D01*
X117335632Y-78151583D01*
X116953539Y-78216811D01*
X116656671Y-78261606D01*
X116430713Y-78285879D01*
X116261347Y-78289544D01*
X116134257Y-78272513D01*
X116035127Y-78234700D01*
X115949641Y-78176018D01*
X115911965Y-78142922D01*
X115850730Y-78091740D01*
X115791441Y-78070995D01*
X115704762Y-78080731D01*
X115561353Y-78120991D01*
X115488300Y-78143552D01*
X115307627Y-78206784D01*
X115208398Y-78262896D01*
X115172173Y-78323359D01*
X115170800Y-78341041D01*
X115150299Y-78441022D01*
X115082833Y-78541131D01*
X114959452Y-78647382D01*
X114771207Y-78765788D01*
X114509148Y-78902363D01*
X114164327Y-79063120D01*
X113964584Y-79151604D01*
X113672016Y-79278428D01*
X113403986Y-79392397D01*
X113177123Y-79486617D01*
X113008056Y-79554192D01*
X112913414Y-79588225D01*
X112908281Y-79589620D01*
X112769851Y-79591367D01*
X112592460Y-79550056D01*
X112554981Y-79536645D01*
X112331169Y-79451171D01*
X112049184Y-79631554D01*
X111888112Y-79743535D01*
X111800655Y-79831997D01*
X111768683Y-79917070D01*
X111767200Y-79944591D01*
X111755525Y-80063951D01*
X111714513Y-80181713D01*
X111635180Y-80308456D01*
X111508543Y-80454760D01*
X111325619Y-80631203D01*
X111077423Y-80848366D01*
X110810768Y-81070943D01*
X110561260Y-81274808D01*
X110331374Y-81459453D01*
X110135151Y-81613851D01*
X109986634Y-81726975D01*
X109899862Y-81787798D01*
X109892687Y-81791919D01*
X109737164Y-81832340D01*
X109558269Y-81827795D01*
X109433905Y-81817109D01*
X109342215Y-81836972D01*
X109248771Y-81902695D01*
X109130452Y-82018055D01*
X109010124Y-82147950D01*
X108950595Y-82241793D01*
X108937169Y-82331528D01*
X108948283Y-82414109D01*
X108944580Y-82643869D01*
X108905295Y-82772982D01*
X108847444Y-82875416D01*
X108737507Y-83039647D01*
X108588137Y-83249166D01*
X108411984Y-83487464D01*
X108221701Y-83738034D01*
X108029939Y-83984367D01*
X107849350Y-84209954D01*
X107692586Y-84398289D01*
X107572299Y-84532861D01*
X107514151Y-84588171D01*
X107347702Y-84667899D01*
X107191808Y-84690000D01*
X107048001Y-84706418D01*
X106948634Y-84773554D01*
X106885686Y-84855100D01*
X106771325Y-85008549D01*
X106649438Y-85154068D01*
X106643942Y-85160087D01*
X106515431Y-85299975D01*
X106724301Y-85693487D01*
X106893595Y-86050582D01*
X107005796Y-86389650D01*
X107069412Y-86746604D01*
X107092951Y-87157357D01*
X107093600Y-87252174D01*
X107066942Y-87778300D01*
X106984107Y-88306665D01*
X106840802Y-88852647D01*
X106632733Y-89431627D01*
X106355606Y-90058982D01*
X106248889Y-90278000D01*
X105735551Y-91224054D01*
X105125676Y-92192756D01*
X104421159Y-93181584D01*
X103623896Y-94188016D01*
X102735783Y-95209530D01*
X101786501Y-96215280D01*
X101472034Y-96533105D01*
X101166201Y-96836523D01*
X100877700Y-97117368D01*
X100615228Y-97367473D01*
X100387483Y-97578671D01*
X100203160Y-97742795D01*
X100070958Y-97851677D01*
X99999574Y-97897152D01*
X99994567Y-97898000D01*
X99953504Y-97862914D01*
X99846126Y-97761223D01*
X99677846Y-97598270D01*
X99454081Y-97379400D01*
X99180246Y-97109960D01*
X98861756Y-96795295D01*
X98504028Y-96440749D01*
X98112476Y-96051669D01*
X97692516Y-95633399D01*
X97249564Y-95191284D01*
X97035200Y-94977000D01*
X96582810Y-94525324D01*
X96150322Y-94095006D01*
X95743206Y-93691399D01*
X95366929Y-93319855D01*
X95026961Y-92985726D01*
X94728771Y-92694367D01*
X94477828Y-92451131D01*
X94279601Y-92261369D01*
X94139558Y-92130434D01*
X94063169Y-92063681D01*
X94050865Y-92056000D01*
X93991972Y-92016120D01*
X93987199Y-91991794D01*
X93952732Y-91937340D01*
X93856792Y-91824103D01*
X93710579Y-91664302D01*
X93525287Y-91470160D01*
X93312114Y-91253900D01*
X93301399Y-91243200D01*
X93087489Y-91027479D01*
X92900820Y-90834932D01*
X92752539Y-90677409D01*
X92653788Y-90566760D01*
X92615712Y-90514838D01*
X92615600Y-90513910D01*
X92649884Y-90449270D01*
X92746012Y-90323959D01*
X92893894Y-90149055D01*
X93083438Y-89935638D01*
X93304556Y-89694786D01*
X93547157Y-89437579D01*
X93801151Y-89175097D01*
X94056449Y-88918417D01*
X94172216Y-88804690D01*
X94982432Y-88052204D01*
X95809583Y-87355097D01*
X96647982Y-86715939D01*
X97491947Y-86137302D01*
X98335793Y-85621757D01*
X99173834Y-85171874D01*
X100000387Y-84790224D01*
X100809768Y-84479379D01*
X101596291Y-84241908D01*
X102354272Y-84080383D01*
X103078027Y-83997375D01*
X103761871Y-83995454D01*
X104400120Y-84077191D01*
X104551005Y-84110783D01*
X104934209Y-84233767D01*
X105339539Y-84414771D01*
X105725078Y-84632940D01*
X106014355Y-84838836D01*
X106164223Y-84958542D01*
X106281188Y-85048642D01*
X106345281Y-85093861D01*
X106351069Y-85096400D01*
X106387110Y-85057868D01*
X106462483Y-84957305D01*
X106551761Y-84829700D01*
X106650123Y-84678985D01*
X106698058Y-84575243D01*
X106704924Y-84483295D01*
X106680078Y-84367963D01*
X106677296Y-84357751D01*
X106647179Y-84220999D01*
X106641503Y-84095042D01*
X106666750Y-83966159D01*
X106729406Y-83820631D01*
X106835956Y-83644735D01*
X106992883Y-83424751D01*
X107206671Y-83146959D01*
X107313454Y-83011671D01*
X107564941Y-82696681D01*
X107764992Y-82453600D01*
X107923707Y-82273490D01*
X108051181Y-82147412D01*
X108157514Y-82066428D01*
X108252801Y-82021598D01*
X108347141Y-82003985D01*
X108450631Y-82004650D01*
X108451019Y-82004673D01*
X108581951Y-82004660D01*
X108682747Y-81974123D01*
X108789128Y-81896452D01*
X108891399Y-81799896D01*
X109016578Y-81669258D01*
X109082758Y-81567543D01*
X109107741Y-81457159D01*
X109110043Y-81338211D01*
X109132380Y-81117512D01*
X109194855Y-80959669D01*
X109263612Y-80882652D01*
X109396662Y-80756180D01*
X109578316Y-80593447D01*
X109792881Y-80407649D01*
X110024667Y-80211980D01*
X110257982Y-80019635D01*
X110477136Y-79843808D01*
X110666438Y-79697695D01*
X110810196Y-79594490D01*
X110844865Y-79572160D01*
X111010575Y-79499995D01*
X111196281Y-79462374D01*
X111366663Y-79462472D01*
X111486406Y-79503464D01*
X111497926Y-79513446D01*
X111557900Y-79527607D01*
X111670050Y-79490444D01*
X111847492Y-79397260D01*
X111888113Y-79373746D01*
X112070902Y-79258968D01*
X112176228Y-79170131D01*
X112219784Y-79092615D01*
X112223426Y-79061377D01*
X112265771Y-78876388D01*
X112374148Y-78687058D01*
X112503959Y-78552150D01*
X112609384Y-78487574D01*
X112787599Y-78397839D01*
X113020236Y-78290489D01*
X113288924Y-78173070D01*
X113575293Y-78053126D01*
X113860973Y-77938202D01*
X114127593Y-77835844D01*
X114356784Y-77753595D01*
X114530175Y-77699000D01*
X114628439Y-77679600D01*
X114794196Y-77711484D01*
X114965941Y-77791845D01*
X114980639Y-77801491D01*
X115085534Y-77868459D01*
X115167756Y-77896420D01*
X115265492Y-77888507D01*
X115416932Y-77847853D01*
X115445054Y-77839591D01*
X115612821Y-77783081D01*
X115709783Y-77724605D01*
X115764885Y-77642901D01*
X115784650Y-77590139D01*
X115832458Y-77473878D01*
X115899053Y-77378692D01*
X115996709Y-77299486D01*
X116137698Y-77231168D01*
X116334295Y-77168646D01*
X116598773Y-77106827D01*
X116943403Y-77040619D01*
X117229786Y-76990493D01*
X117583151Y-76930550D01*
X117851681Y-76887026D01*
X118050602Y-76858719D01*
X118195138Y-76844424D01*
X118300515Y-76842937D01*
X118381959Y-76853054D01*
X118454693Y-76873572D01*
X118499702Y-76890073D01*
X118654787Y-76973486D01*
X118765835Y-77077378D01*
X118779948Y-77099788D01*
X118857623Y-77193635D01*
X118953011Y-77200921D01*
X119074663Y-77181681D01*
X119230926Y-77172414D01*
X119244627Y-77172293D01*
X119387135Y-77154417D01*
X119478545Y-77085188D01*
X119519452Y-77023988D01*
X119622297Y-76901784D01*
X119764784Y-76788655D01*
X119794504Y-76770795D01*
X119862566Y-76736438D01*
X119938310Y-76710115D01*
X120036185Y-76690545D01*
X120170640Y-76676448D01*
X120356124Y-76666541D01*
X120607085Y-76659545D01*
X120937971Y-76654179D01*
X121137933Y-76651707D01*
X122293505Y-76638200D01*
X122484907Y-76859753D01*
X122596669Y-76983950D01*
X122679681Y-77046467D01*
X122770956Y-77063063D01*
X122907511Y-77049500D01*
X122924928Y-77047112D01*
X123092562Y-77012031D01*
X123194511Y-76952597D01*
X123253761Y-76873154D01*
X123320359Y-76774310D01*
X123401363Y-76698065D01*
X123509692Y-76641871D01*
X123658266Y-76603180D01*
X123860004Y-76579444D01*
X124127825Y-76568114D01*
X124474649Y-76566643D01*
X124788766Y-76570386D01*
X125148916Y-76576690D01*
X125422693Y-76583731D01*
X125625322Y-76593083D01*
X125772026Y-76606322D01*
X125878030Y-76625024D01*
X125958556Y-76650765D01*
X126028831Y-76685120D01*
X126057603Y-76701700D01*
X126178405Y-76770854D01*
X126256711Y-76811490D01*
X126269467Y-76816000D01*
X126298425Y-76768261D01*
X126316388Y-76635915D01*
X126324187Y-76435260D01*
X126322648Y-76182599D01*
X126312600Y-75894232D01*
X126294873Y-75586460D01*
X126270294Y-75275585D01*
X126239692Y-74977907D01*
X126203895Y-74709728D01*
X126163732Y-74487348D01*
X126147627Y-74418749D01*
X126077697Y-74167500D01*
X126001564Y-73957290D01*
X125907760Y-73774678D01*
X125784818Y-73606222D01*
X125621269Y-73438482D01*
X125405645Y-73258016D01*
X125126477Y-73051383D01*
X124772298Y-72805142D01*
X124768873Y-72802800D01*
X124357100Y-72501001D01*
X123967695Y-72177052D01*
X123616489Y-71846222D01*
X123319315Y-71523778D01*
X123092006Y-71224988D01*
X123030470Y-71126400D01*
X122852078Y-70785568D01*
X122729294Y-70459889D01*
X122680886Y-70239063D01*
X123869803Y-70239063D01*
X123880297Y-70285855D01*
X123921166Y-70398563D01*
X123965476Y-70508830D01*
X124030039Y-70651330D01*
X124094396Y-70733466D01*
X124183719Y-70764565D01*
X124323179Y-70753958D01*
X124520824Y-70714648D01*
X124782648Y-70658497D01*
X125009832Y-70879748D01*
X125164612Y-71035927D01*
X125255108Y-71154081D01*
X125291805Y-71264979D01*
X125285190Y-71399383D01*
X125247974Y-71578443D01*
X125212147Y-71744216D01*
X125190907Y-71864123D01*
X125188685Y-71910997D01*
X125240167Y-71934485D01*
X125356465Y-71983712D01*
X125457800Y-72025596D01*
X125711800Y-72129702D01*
X125798753Y-72021751D01*
X125884306Y-71900419D01*
X125971956Y-71755012D01*
X125975406Y-71748700D01*
X126033969Y-71654412D01*
X126099572Y-71605156D01*
X126205349Y-71586404D01*
X126352002Y-71583600D01*
X126608980Y-71589836D01*
X126789281Y-71615236D01*
X126917415Y-71669837D01*
X127017894Y-71763675D01*
X127106533Y-71892560D01*
X127257693Y-72138226D01*
X127526146Y-72029552D01*
X127674265Y-71968927D01*
X127778086Y-71925185D01*
X127809794Y-71910610D01*
X127806789Y-71860048D01*
X127784508Y-71736857D01*
X127747704Y-71567128D01*
X127745507Y-71557625D01*
X127706204Y-71379648D01*
X127695137Y-71256400D01*
X127723341Y-71160446D01*
X127801850Y-71064352D01*
X127941700Y-70940684D01*
X128020061Y-70875027D01*
X128255886Y-70677583D01*
X128557904Y-70747790D01*
X128722179Y-70779323D01*
X128844559Y-70790476D01*
X128892807Y-70781698D01*
X128930585Y-70717254D01*
X128990848Y-70592644D01*
X129029916Y-70505170D01*
X129134140Y-70264940D01*
X128859510Y-70098770D01*
X128725383Y-70012176D01*
X128638777Y-69931193D01*
X128592663Y-69833168D01*
X128580014Y-69695446D01*
X128593803Y-69495374D01*
X128614917Y-69310303D01*
X128639786Y-69153138D01*
X128683433Y-69052660D01*
X128770778Y-68971309D01*
X128891793Y-68892954D01*
X129136635Y-68742301D01*
X129031163Y-68499250D01*
X128965281Y-68354354D01*
X128912307Y-68249993D01*
X128893492Y-68220586D01*
X128831478Y-68213936D01*
X128700543Y-68231169D01*
X128536402Y-68266813D01*
X128211512Y-68348653D01*
X127949839Y-68067505D01*
X127688166Y-67786356D01*
X127751931Y-67513278D01*
X127787968Y-67349283D01*
X127812062Y-67221291D01*
X127817847Y-67174894D01*
X127775941Y-67119657D01*
X127669523Y-67052106D01*
X127531901Y-66987393D01*
X127396379Y-66940670D01*
X127296266Y-66927087D01*
X127280812Y-66930591D01*
X127218186Y-66986873D01*
X127135310Y-67099985D01*
X127100425Y-67157156D01*
X127019232Y-67275392D01*
X126923583Y-67352028D01*
X126790400Y-67395603D01*
X126596604Y-67414659D01*
X126395607Y-67418000D01*
X126101514Y-67418000D01*
X125938682Y-67151300D01*
X125851553Y-67009403D01*
X125788169Y-66907690D01*
X125764494Y-66871403D01*
X125715654Y-66881932D01*
X125601411Y-66922902D01*
X125491169Y-66967076D01*
X125347395Y-67032471D01*
X125265225Y-67097843D01*
X125235411Y-67188464D01*
X125248702Y-67329605D01*
X125289366Y-67518505D01*
X125349533Y-67779162D01*
X125073466Y-68054775D01*
X124797400Y-68330389D01*
X124518000Y-68255797D01*
X124314388Y-68204979D01*
X124183365Y-68191226D01*
X124099813Y-68223740D01*
X124038616Y-68311726D01*
X123979009Y-68453286D01*
X123871819Y-68726371D01*
X124114079Y-68872285D01*
X124246968Y-68963512D01*
X124334274Y-69061616D01*
X124385311Y-69190146D01*
X124409393Y-69372651D01*
X124415835Y-69632677D01*
X124415840Y-69635204D01*
X124412586Y-69753956D01*
X124392647Y-69844710D01*
X124341646Y-69923366D01*
X124245208Y-70005822D01*
X124088954Y-70107979D01*
X123869803Y-70239063D01*
X122680886Y-70239063D01*
X122654386Y-70118180D01*
X122619624Y-69729258D01*
X122614844Y-69450000D01*
X122627127Y-69036948D01*
X122666510Y-68689007D01*
X122740773Y-68371539D01*
X122857698Y-68049910D01*
X122998094Y-67744002D01*
X123311130Y-67217093D01*
X123697720Y-66752544D01*
X124147508Y-66355969D01*
X124650138Y-66032982D01*
X125195252Y-65789200D01*
X125772496Y-65630236D01*
X126371511Y-65561706D01*
X126974216Y-65588257D01*
X126974216Y-65588257D01*
G37*
X126974216Y-65588257D02*
X127588266Y-65714321D01*
X128165000Y-65932580D01*
X128696044Y-66237964D01*
X129173020Y-66625400D01*
X129587551Y-67089817D01*
X129691543Y-67233325D01*
X130002570Y-67760627D01*
X130226135Y-68309998D01*
X130361289Y-68870797D01*
X130407085Y-69432384D01*
X130362577Y-69984117D01*
X130226816Y-70515355D01*
X130024220Y-70970090D01*
X129792174Y-71347349D01*
X129518624Y-71701303D01*
X129192629Y-72042242D01*
X128803250Y-72380454D01*
X128339548Y-72726227D01*
X127790584Y-73089849D01*
X127729405Y-73128323D01*
X127520322Y-73267391D01*
X127331532Y-73407582D01*
X127188134Y-73529487D01*
X127128765Y-73592809D01*
X126946519Y-73911436D01*
X126825707Y-74305662D01*
X126767163Y-74769538D01*
X126771718Y-75297115D01*
X126823345Y-75774600D01*
X126881364Y-76138393D01*
X126935135Y-76412588D01*
X126987413Y-76608943D01*
X127040956Y-76739218D01*
X127055080Y-76763180D01*
X127101804Y-76809218D01*
X127162674Y-76781701D01*
X127194691Y-76754015D01*
X127276068Y-76688400D01*
X127364538Y-76640376D01*
X127474591Y-76608759D01*
X127620717Y-76592363D01*
X127817406Y-76590004D01*
X128079145Y-76600494D01*
X128420427Y-76622651D01*
X128620651Y-76637375D01*
X129030791Y-76670442D01*
X129351836Y-76703148D01*
X129596212Y-76739168D01*
X129776343Y-76782176D01*
X129904656Y-76835848D01*
X129993576Y-76903859D01*
X130055526Y-76989884D01*
X130093584Y-77073033D01*
X130146559Y-77186193D01*
X130213027Y-77246823D01*
X130327618Y-77277874D01*
X130421600Y-77290409D01*
X130581069Y-77302784D01*
X130684386Y-77283468D01*
X130775238Y-77219611D01*
X130824810Y-77171804D01*
X130917130Y-77089378D01*
X131013624Y-77032061D01*
X131128331Y-77000061D01*
X131275291Y-76993583D01*
X131468543Y-77012832D01*
X131722127Y-77058015D01*
X132050081Y-77129337D01*
X132326726Y-77193815D01*
X132642547Y-77271454D01*
X132933726Y-77348525D01*
X133182212Y-77419820D01*
X133369948Y-77480126D01*
X133478883Y-77524235D01*
X133486229Y-77528454D01*
X133647949Y-77675493D01*
X133745238Y-77862052D01*
X133763600Y-77981963D01*
X133808640Y-78070091D01*
X133931730Y-78172890D01*
X133983513Y-78205223D01*
X134120619Y-78280178D01*
X134218289Y-78306836D01*
X134323140Y-78290914D01*
X134421524Y-78258961D01*
X134592218Y-78214087D01*
X134733985Y-78218900D01*
X134823911Y-78242884D01*
X134921926Y-78294003D01*
X135081063Y-78399210D01*
X135285622Y-78546105D01*
X135519900Y-78722287D01*
X135768198Y-78915356D01*
X136014813Y-79112911D01*
X136244045Y-79302552D01*
X136440192Y-79471878D01*
X136587554Y-79608489D01*
X136670430Y-79699983D01*
X136672321Y-79702735D01*
X136744661Y-79899002D01*
X136751258Y-80067200D01*
X136747591Y-80207594D01*
X136768009Y-80274168D01*
X136829148Y-80294430D01*
X136889498Y-80295800D01*
X136997617Y-80278234D01*
X137075138Y-80208398D01*
X137134875Y-80101968D01*
X137209980Y-79889521D01*
X137273085Y-79592371D01*
X137322098Y-79226931D01*
X137354932Y-78809612D01*
X137369496Y-78356828D01*
X137370040Y-78254775D01*
X137379374Y-77733715D01*
X137410544Y-77285981D01*
X137469149Y-76884608D01*
X137560787Y-76502627D01*
X137691057Y-76113071D01*
X137865559Y-75688974D01*
X137934781Y-75534705D01*
X138047165Y-75271813D01*
X138130065Y-75044137D01*
X138176172Y-74872975D01*
X138183200Y-74810805D01*
X138191599Y-74690688D01*
X138233908Y-74641174D01*
X138333209Y-74631600D01*
X138527984Y-74657681D01*
X138672317Y-74725254D01*
X138756986Y-74818310D01*
X138772767Y-74920840D01*
X138710438Y-75016835D01*
X138591794Y-75080422D01*
X138431271Y-75180149D01*
X138277568Y-75356107D01*
X138133948Y-75593773D01*
X138003674Y-75878620D01*
X137890008Y-76196124D01*
X137796212Y-76531759D01*
X137725550Y-76870999D01*
X137681284Y-77199321D01*
X137666676Y-77502198D01*
X137684988Y-77765104D01*
X137739485Y-77973516D01*
X137833427Y-78112907D01*
X137901374Y-78154239D01*
X137975443Y-78167072D01*
X138132944Y-78184259D01*
X138355885Y-78204173D01*
X138626272Y-78225190D01*
X138881153Y-78242783D01*
X139365488Y-78267464D01*
X139812131Y-78276779D01*
X140208801Y-78271195D01*
X140543219Y-78251181D01*
X140803103Y-78217205D01*
X140976176Y-78169737D01*
X140992400Y-78162230D01*
X141147003Y-78098937D01*
X141250904Y-78100550D01*
X141333980Y-78170089D01*
X141355319Y-78198903D01*
X141425040Y-78358523D01*
X141416834Y-78506928D01*
X141354868Y-78596764D01*
X141285123Y-78632274D01*
X141199333Y-78612225D01*
X141113568Y-78564884D01*
X141054001Y-78533089D01*
X140985172Y-78509313D01*
X140892861Y-78492642D01*
X140762850Y-78482160D01*
X140580921Y-78476954D01*
X140332853Y-78476110D01*
X140004429Y-78478714D01*
X139808800Y-78480983D01*
X139452809Y-78483068D01*
X139108043Y-78480940D01*
X138795424Y-78475042D01*
X138535876Y-78465815D01*
X138350323Y-78453701D01*
X138310200Y-78449315D01*
X138096565Y-78430473D01*
X137935881Y-78433323D01*
X137865616Y-78449863D01*
X137803546Y-78496506D01*
X137748399Y-78574577D01*
X137697269Y-78694875D01*
X137647247Y-78868198D01*
X137595425Y-79105345D01*
X137538894Y-79417112D01*
X137474748Y-79814300D01*
X137443741Y-80016400D01*
X137403688Y-80205032D01*
X137342437Y-80418131D01*
X137312316Y-80505194D01*
X137267213Y-80637937D01*
X137248182Y-80748151D01*
X137261737Y-80855376D01*
X137314390Y-80979153D01*
X137412656Y-81139020D01*
X137563047Y-81354518D01*
X137623519Y-81438800D01*
X137946101Y-81938957D01*
X138216835Y-82463683D01*
X138418154Y-82978425D01*
X138437153Y-83039000D01*
X138587055Y-83486263D01*
X138733937Y-83833223D01*
X138878369Y-84081112D01*
X138965698Y-84184384D01*
X139129413Y-84344457D01*
X140392818Y-84352128D01*
X140787307Y-84353969D01*
X141093039Y-84353586D01*
X141322844Y-84350194D01*
X141489555Y-84343006D01*
X141606003Y-84331238D01*
X141685021Y-84314103D01*
X141739440Y-84290817D01*
X141773421Y-84267598D01*
X141888633Y-84205413D01*
X141961050Y-84234915D01*
X141991858Y-84356840D01*
X141993199Y-84403438D01*
X141968931Y-84565103D01*
X141901758Y-84648438D01*
X141800130Y-84643958D01*
X141785397Y-84636736D01*
X141668769Y-84601011D01*
X141470304Y-84568476D01*
X141209742Y-84540096D01*
X140906821Y-84516839D01*
X140581280Y-84499672D01*
X140252859Y-84489561D01*
X139941297Y-84487473D01*
X139666331Y-84494374D01*
X139447703Y-84511232D01*
X139389700Y-84519405D01*
X139267012Y-84552360D01*
X139209903Y-84610839D01*
X139216139Y-84711723D01*
X139283491Y-84871898D01*
X139330981Y-84963759D01*
X139424072Y-85153995D01*
X139523072Y-85379480D01*
X139580017Y-85522155D01*
X139676432Y-85771818D01*
X139751944Y-85944379D01*
X139819197Y-86058635D01*
X139890833Y-86133387D01*
X139979498Y-86187432D01*
X140048555Y-86218781D01*
X140189517Y-86291792D01*
X140254042Y-86365909D01*
X140265999Y-86436278D01*
X140221025Y-86565515D01*
X140104198Y-86694126D01*
X139942666Y-86798638D01*
X139785200Y-86852013D01*
X139646626Y-86868930D01*
X139562515Y-86845585D01*
X139522937Y-86766013D01*
X139517957Y-86614252D01*
X139530960Y-86443382D01*
X139540144Y-86172811D01*
X139510385Y-85912856D01*
X139435501Y-85639765D01*
X139309310Y-85329782D01*
X139163706Y-85032368D01*
X139024190Y-84785383D01*
X138870525Y-84552332D01*
X138715825Y-84349513D01*
X138573203Y-84193223D01*
X138455770Y-84099758D01*
X138397753Y-84080400D01*
X138322849Y-84115035D01*
X138206695Y-84205481D01*
X138084873Y-84321700D01*
X137854798Y-84611355D01*
X137637323Y-84981075D01*
X137442090Y-85409366D01*
X137278739Y-85874738D01*
X137156908Y-86355697D01*
X137144716Y-86417752D01*
X137092611Y-86727804D01*
X137071213Y-86964064D01*
X137081049Y-87149753D01*
X137122647Y-87308092D01*
X137167200Y-87407800D01*
X137233197Y-87536978D01*
X137259446Y-87606320D01*
X137248307Y-87648453D01*
X137202137Y-87696003D01*
X137188971Y-87708971D01*
X137063081Y-87773116D01*
X136893383Y-87788153D01*
X136724074Y-87755737D01*
X136608399Y-87687200D01*
X136536089Y-87604587D01*
X136516871Y-87533038D01*
X136555575Y-87445244D01*
X136657031Y-87313893D01*
X136679107Y-87287374D01*
X136788733Y-87130053D01*
X136868709Y-86944264D01*
X136934442Y-86693954D01*
X136936227Y-86685667D01*
X137051203Y-86176843D01*
X137162465Y-85749178D01*
X137277251Y-85382823D01*
X137402802Y-85057931D01*
X137546356Y-84754652D01*
X137715152Y-84453139D01*
X137802199Y-84311271D01*
X137926460Y-84104404D01*
X138035071Y-83907425D01*
X138112044Y-83750065D01*
X138134260Y-83693763D01*
X138175959Y-83423903D01*
X138146436Y-83099506D01*
X138049246Y-82734816D01*
X137887947Y-82344077D01*
X137718323Y-82027684D01*
X137616117Y-81864128D01*
X137479574Y-81658695D01*
X137321435Y-81429127D01*
X137154436Y-81193168D01*
X136991316Y-80968562D01*
X136844813Y-80773053D01*
X136727666Y-80624383D01*
X136652612Y-80540295D01*
X136646910Y-80535280D01*
X136554781Y-80506700D01*
X136396911Y-80530232D01*
X136379205Y-80534798D01*
X136204842Y-80562435D01*
X136051506Y-80533495D01*
X135998800Y-80512800D01*
X135907871Y-80459282D01*
X135754649Y-80353285D01*
X135555037Y-80207205D01*
X135324933Y-80033433D01*
X135080241Y-79844365D01*
X134836860Y-79652393D01*
X134610692Y-79469911D01*
X134417638Y-79309314D01*
X134273599Y-79182993D01*
X134202092Y-79112411D01*
X134136041Y-78993272D01*
X134089219Y-78830464D01*
X134082394Y-78784584D01*
X134053213Y-78634679D01*
X133988872Y-78538433D01*
X133861714Y-78451907D01*
X133665824Y-78339167D01*
X133498812Y-78440993D01*
X133343023Y-78510181D01*
X133186605Y-78542665D01*
X133173305Y-78543010D01*
X133046903Y-78530813D01*
X132848188Y-78497075D01*
X132596105Y-78446380D01*
X132309600Y-78383309D01*
X132007619Y-78312445D01*
X131709109Y-78238370D01*
X131433014Y-78165667D01*
X131198281Y-78098918D01*
X131023855Y-78042705D01*
X130928683Y-78001611D01*
X130925305Y-77999292D01*
X130806557Y-77881284D01*
X130715600Y-77742863D01*
X130655713Y-77644643D01*
X130574007Y-77589727D01*
X130435657Y-77558157D01*
X130379955Y-77550517D01*
X130218411Y-77536125D01*
X130115715Y-77552055D01*
X130031146Y-77608418D01*
X129990630Y-77647187D01*
X129859319Y-77747981D01*
X129721092Y-77812453D01*
X129716674Y-77813618D01*
X129623465Y-77821810D01*
X129446551Y-77823554D01*
X129203600Y-77819206D01*
X128912282Y-77809121D01*
X128590263Y-77793655D01*
X128514281Y-77789407D01*
X128111595Y-77764125D01*
X127797887Y-77738234D01*
X127560561Y-77708926D01*
X127387019Y-77673390D01*
X127264663Y-77628818D01*
X127180896Y-77572398D01*
X127123120Y-77501322D01*
X127108518Y-77475874D01*
X127068342Y-77424440D01*
X127000287Y-77393912D01*
X126880934Y-77379109D01*
X126686861Y-77374849D01*
X126651600Y-77374800D01*
X126444914Y-77377974D01*
X126316302Y-77390950D01*
X126242342Y-77418909D01*
X126199611Y-77467033D01*
X126194681Y-77475874D01*
X126144222Y-77554456D01*
X126078901Y-77615401D01*
X125986422Y-77660671D01*
X125854489Y-77692230D01*
X125670806Y-77712042D01*
X125423077Y-77722070D01*
X125099007Y-77724277D01*
X124686300Y-77720628D01*
X124663829Y-77720336D01*
X123494009Y-77705000D01*
X123319521Y-77514500D01*
X123201681Y-77398312D01*
X123097043Y-77342151D01*
X122957775Y-77324817D01*
X122889681Y-77324000D01*
X122729633Y-77332108D01*
X122617856Y-77369852D01*
X122509233Y-77457362D01*
X122445865Y-77522009D01*
X122375406Y-77592833D01*
X122305996Y-77648465D01*
X122224403Y-77691281D01*
X122117394Y-77723659D01*
X121971737Y-77747977D01*
X121774200Y-77766610D01*
X121511550Y-77781937D01*
X121170555Y-77796334D01*
X120853813Y-77808011D01*
X120474024Y-77817698D01*
X120181464Y-77814260D01*
X119962322Y-77795239D01*
X119802788Y-77758183D01*
X119689051Y-77700635D01*
X119607303Y-77620142D01*
X119580953Y-77581750D01*
X119476363Y-77501158D01*
X119315519Y-77468307D01*
X119129785Y-77479510D01*
X118950528Y-77531076D01*
X118809114Y-77619318D01*
X118761126Y-77678167D01*
X118703193Y-77758252D01*
X118624534Y-77825994D01*
X118512530Y-77885586D01*
X118354561Y-77941218D01*
X118138008Y-77997081D01*
X117850250Y-78057366D01*
X117478669Y-78126265D01*
X117335632Y-78151583D01*
X116953539Y-78216811D01*
X116656671Y-78261606D01*
X116430713Y-78285879D01*
X116261347Y-78289544D01*
X116134257Y-78272513D01*
X116035127Y-78234700D01*
X115949641Y-78176018D01*
X115911965Y-78142922D01*
X115850730Y-78091740D01*
X115791441Y-78070995D01*
X115704762Y-78080731D01*
X115561353Y-78120991D01*
X115488300Y-78143552D01*
X115307627Y-78206784D01*
X115208398Y-78262896D01*
X115172173Y-78323359D01*
X115170800Y-78341041D01*
X115150299Y-78441022D01*
X115082833Y-78541131D01*
X114959452Y-78647382D01*
X114771207Y-78765788D01*
X114509148Y-78902363D01*
X114164327Y-79063120D01*
X113964584Y-79151604D01*
X113672016Y-79278428D01*
X113403986Y-79392397D01*
X113177123Y-79486617D01*
X113008056Y-79554192D01*
X112913414Y-79588225D01*
X112908281Y-79589620D01*
X112769851Y-79591367D01*
X112592460Y-79550056D01*
X112554981Y-79536645D01*
X112331169Y-79451171D01*
X112049184Y-79631554D01*
X111888112Y-79743535D01*
X111800655Y-79831997D01*
X111768683Y-79917070D01*
X111767200Y-79944591D01*
X111755525Y-80063951D01*
X111714513Y-80181713D01*
X111635180Y-80308456D01*
X111508543Y-80454760D01*
X111325619Y-80631203D01*
X111077423Y-80848366D01*
X110810768Y-81070943D01*
X110561260Y-81274808D01*
X110331374Y-81459453D01*
X110135151Y-81613851D01*
X109986634Y-81726975D01*
X109899862Y-81787798D01*
X109892687Y-81791919D01*
X109737164Y-81832340D01*
X109558269Y-81827795D01*
X109433905Y-81817109D01*
X109342215Y-81836972D01*
X109248771Y-81902695D01*
X109130452Y-82018055D01*
X109010124Y-82147950D01*
X108950595Y-82241793D01*
X108937169Y-82331528D01*
X108948283Y-82414109D01*
X108944580Y-82643869D01*
X108905295Y-82772982D01*
X108847444Y-82875416D01*
X108737507Y-83039647D01*
X108588137Y-83249166D01*
X108411984Y-83487464D01*
X108221701Y-83738034D01*
X108029939Y-83984367D01*
X107849350Y-84209954D01*
X107692586Y-84398289D01*
X107572299Y-84532861D01*
X107514151Y-84588171D01*
X107347702Y-84667899D01*
X107191808Y-84690000D01*
X107048001Y-84706418D01*
X106948634Y-84773554D01*
X106885686Y-84855100D01*
X106771325Y-85008549D01*
X106649438Y-85154068D01*
X106643942Y-85160087D01*
X106515431Y-85299975D01*
X106724301Y-85693487D01*
X106893595Y-86050582D01*
X107005796Y-86389650D01*
X107069412Y-86746604D01*
X107092951Y-87157357D01*
X107093600Y-87252174D01*
X107066942Y-87778300D01*
X106984107Y-88306665D01*
X106840802Y-88852647D01*
X106632733Y-89431627D01*
X106355606Y-90058982D01*
X106248889Y-90278000D01*
X105735551Y-91224054D01*
X105125676Y-92192756D01*
X104421159Y-93181584D01*
X103623896Y-94188016D01*
X102735783Y-95209530D01*
X101786501Y-96215280D01*
X101472034Y-96533105D01*
X101166201Y-96836523D01*
X100877700Y-97117368D01*
X100615228Y-97367473D01*
X100387483Y-97578671D01*
X100203160Y-97742795D01*
X100070958Y-97851677D01*
X99999574Y-97897152D01*
X99994567Y-97898000D01*
X99953504Y-97862914D01*
X99846126Y-97761223D01*
X99677846Y-97598270D01*
X99454081Y-97379400D01*
X99180246Y-97109960D01*
X98861756Y-96795295D01*
X98504028Y-96440749D01*
X98112476Y-96051669D01*
X97692516Y-95633399D01*
X97249564Y-95191284D01*
X97035200Y-94977000D01*
X96582810Y-94525324D01*
X96150322Y-94095006D01*
X95743206Y-93691399D01*
X95366929Y-93319855D01*
X95026961Y-92985726D01*
X94728771Y-92694367D01*
X94477828Y-92451131D01*
X94279601Y-92261369D01*
X94139558Y-92130434D01*
X94063169Y-92063681D01*
X94050865Y-92056000D01*
X93991972Y-92016120D01*
X93987199Y-91991794D01*
X93952732Y-91937340D01*
X93856792Y-91824103D01*
X93710579Y-91664302D01*
X93525287Y-91470160D01*
X93312114Y-91253900D01*
X93301399Y-91243200D01*
X93087489Y-91027479D01*
X92900820Y-90834932D01*
X92752539Y-90677409D01*
X92653788Y-90566760D01*
X92615712Y-90514838D01*
X92615600Y-90513910D01*
X92649884Y-90449270D01*
X92746012Y-90323959D01*
X92893894Y-90149055D01*
X93083438Y-89935638D01*
X93304556Y-89694786D01*
X93547157Y-89437579D01*
X93801151Y-89175097D01*
X94056449Y-88918417D01*
X94172216Y-88804690D01*
X94982432Y-88052204D01*
X95809583Y-87355097D01*
X96647982Y-86715939D01*
X97491947Y-86137302D01*
X98335793Y-85621757D01*
X99173834Y-85171874D01*
X100000387Y-84790224D01*
X100809768Y-84479379D01*
X101596291Y-84241908D01*
X102354272Y-84080383D01*
X103078027Y-83997375D01*
X103761871Y-83995454D01*
X104400120Y-84077191D01*
X104551005Y-84110783D01*
X104934209Y-84233767D01*
X105339539Y-84414771D01*
X105725078Y-84632940D01*
X106014355Y-84838836D01*
X106164223Y-84958542D01*
X106281188Y-85048642D01*
X106345281Y-85093861D01*
X106351069Y-85096400D01*
X106387110Y-85057868D01*
X106462483Y-84957305D01*
X106551761Y-84829700D01*
X106650123Y-84678985D01*
X106698058Y-84575243D01*
X106704924Y-84483295D01*
X106680078Y-84367963D01*
X106677296Y-84357751D01*
X106647179Y-84220999D01*
X106641503Y-84095042D01*
X106666750Y-83966159D01*
X106729406Y-83820631D01*
X106835956Y-83644735D01*
X106992883Y-83424751D01*
X107206671Y-83146959D01*
X107313454Y-83011671D01*
X107564941Y-82696681D01*
X107764992Y-82453600D01*
X107923707Y-82273490D01*
X108051181Y-82147412D01*
X108157514Y-82066428D01*
X108252801Y-82021598D01*
X108347141Y-82003985D01*
X108450631Y-82004650D01*
X108451019Y-82004673D01*
X108581951Y-82004660D01*
X108682747Y-81974123D01*
X108789128Y-81896452D01*
X108891399Y-81799896D01*
X109016578Y-81669258D01*
X109082758Y-81567543D01*
X109107741Y-81457159D01*
X109110043Y-81338211D01*
X109132380Y-81117512D01*
X109194855Y-80959669D01*
X109263612Y-80882652D01*
X109396662Y-80756180D01*
X109578316Y-80593447D01*
X109792881Y-80407649D01*
X110024667Y-80211980D01*
X110257982Y-80019635D01*
X110477136Y-79843808D01*
X110666438Y-79697695D01*
X110810196Y-79594490D01*
X110844865Y-79572160D01*
X111010575Y-79499995D01*
X111196281Y-79462374D01*
X111366663Y-79462472D01*
X111486406Y-79503464D01*
X111497926Y-79513446D01*
X111557900Y-79527607D01*
X111670050Y-79490444D01*
X111847492Y-79397260D01*
X111888113Y-79373746D01*
X112070902Y-79258968D01*
X112176228Y-79170131D01*
X112219784Y-79092615D01*
X112223426Y-79061377D01*
X112265771Y-78876388D01*
X112374148Y-78687058D01*
X112503959Y-78552150D01*
X112609384Y-78487574D01*
X112787599Y-78397839D01*
X113020236Y-78290489D01*
X113288924Y-78173070D01*
X113575293Y-78053126D01*
X113860973Y-77938202D01*
X114127593Y-77835844D01*
X114356784Y-77753595D01*
X114530175Y-77699000D01*
X114628439Y-77679600D01*
X114794196Y-77711484D01*
X114965941Y-77791845D01*
X114980639Y-77801491D01*
X115085534Y-77868459D01*
X115167756Y-77896420D01*
X115265492Y-77888507D01*
X115416932Y-77847853D01*
X115445054Y-77839591D01*
X115612821Y-77783081D01*
X115709783Y-77724605D01*
X115764885Y-77642901D01*
X115784650Y-77590139D01*
X115832458Y-77473878D01*
X115899053Y-77378692D01*
X115996709Y-77299486D01*
X116137698Y-77231168D01*
X116334295Y-77168646D01*
X116598773Y-77106827D01*
X116943403Y-77040619D01*
X117229786Y-76990493D01*
X117583151Y-76930550D01*
X117851681Y-76887026D01*
X118050602Y-76858719D01*
X118195138Y-76844424D01*
X118300515Y-76842937D01*
X118381959Y-76853054D01*
X118454693Y-76873572D01*
X118499702Y-76890073D01*
X118654787Y-76973486D01*
X118765835Y-77077378D01*
X118779948Y-77099788D01*
X118857623Y-77193635D01*
X118953011Y-77200921D01*
X119074663Y-77181681D01*
X119230926Y-77172414D01*
X119244627Y-77172293D01*
X119387135Y-77154417D01*
X119478545Y-77085188D01*
X119519452Y-77023988D01*
X119622297Y-76901784D01*
X119764784Y-76788655D01*
X119794504Y-76770795D01*
X119862566Y-76736438D01*
X119938310Y-76710115D01*
X120036185Y-76690545D01*
X120170640Y-76676448D01*
X120356124Y-76666541D01*
X120607085Y-76659545D01*
X120937971Y-76654179D01*
X121137933Y-76651707D01*
X122293505Y-76638200D01*
X122484907Y-76859753D01*
X122596669Y-76983950D01*
X122679681Y-77046467D01*
X122770956Y-77063063D01*
X122907511Y-77049500D01*
X122924928Y-77047112D01*
X123092562Y-77012031D01*
X123194511Y-76952597D01*
X123253761Y-76873154D01*
X123320359Y-76774310D01*
X123401363Y-76698065D01*
X123509692Y-76641871D01*
X123658266Y-76603180D01*
X123860004Y-76579444D01*
X124127825Y-76568114D01*
X124474649Y-76566643D01*
X124788766Y-76570386D01*
X125148916Y-76576690D01*
X125422693Y-76583731D01*
X125625322Y-76593083D01*
X125772026Y-76606322D01*
X125878030Y-76625024D01*
X125958556Y-76650765D01*
X126028831Y-76685120D01*
X126057603Y-76701700D01*
X126178405Y-76770854D01*
X126256711Y-76811490D01*
X126269467Y-76816000D01*
X126298425Y-76768261D01*
X126316388Y-76635915D01*
X126324187Y-76435260D01*
X126322648Y-76182599D01*
X126312600Y-75894232D01*
X126294873Y-75586460D01*
X126270294Y-75275585D01*
X126239692Y-74977907D01*
X126203895Y-74709728D01*
X126163732Y-74487348D01*
X126147627Y-74418749D01*
X126077697Y-74167500D01*
X126001564Y-73957290D01*
X125907760Y-73774678D01*
X125784818Y-73606222D01*
X125621269Y-73438482D01*
X125405645Y-73258016D01*
X125126477Y-73051383D01*
X124772298Y-72805142D01*
X124768873Y-72802800D01*
X124357100Y-72501001D01*
X123967695Y-72177052D01*
X123616489Y-71846222D01*
X123319315Y-71523778D01*
X123092006Y-71224988D01*
X123030470Y-71126400D01*
X122852078Y-70785568D01*
X122729294Y-70459889D01*
X122680886Y-70239063D01*
X123869803Y-70239063D01*
X123880297Y-70285855D01*
X123921166Y-70398563D01*
X123965476Y-70508830D01*
X124030039Y-70651330D01*
X124094396Y-70733466D01*
X124183719Y-70764565D01*
X124323179Y-70753958D01*
X124520824Y-70714648D01*
X124782648Y-70658497D01*
X125009832Y-70879748D01*
X125164612Y-71035927D01*
X125255108Y-71154081D01*
X125291805Y-71264979D01*
X125285190Y-71399383D01*
X125247974Y-71578443D01*
X125212147Y-71744216D01*
X125190907Y-71864123D01*
X125188685Y-71910997D01*
X125240167Y-71934485D01*
X125356465Y-71983712D01*
X125457800Y-72025596D01*
X125711800Y-72129702D01*
X125798753Y-72021751D01*
X125884306Y-71900419D01*
X125971956Y-71755012D01*
X125975406Y-71748700D01*
X126033969Y-71654412D01*
X126099572Y-71605156D01*
X126205349Y-71586404D01*
X126352002Y-71583600D01*
X126608980Y-71589836D01*
X126789281Y-71615236D01*
X126917415Y-71669837D01*
X127017894Y-71763675D01*
X127106533Y-71892560D01*
X127257693Y-72138226D01*
X127526146Y-72029552D01*
X127674265Y-71968927D01*
X127778086Y-71925185D01*
X127809794Y-71910610D01*
X127806789Y-71860048D01*
X127784508Y-71736857D01*
X127747704Y-71567128D01*
X127745507Y-71557625D01*
X127706204Y-71379648D01*
X127695137Y-71256400D01*
X127723341Y-71160446D01*
X127801850Y-71064352D01*
X127941700Y-70940684D01*
X128020061Y-70875027D01*
X128255886Y-70677583D01*
X128557904Y-70747790D01*
X128722179Y-70779323D01*
X128844559Y-70790476D01*
X128892807Y-70781698D01*
X128930585Y-70717254D01*
X128990848Y-70592644D01*
X129029916Y-70505170D01*
X129134140Y-70264940D01*
X128859510Y-70098770D01*
X128725383Y-70012176D01*
X128638777Y-69931193D01*
X128592663Y-69833168D01*
X128580014Y-69695446D01*
X128593803Y-69495374D01*
X128614917Y-69310303D01*
X128639786Y-69153138D01*
X128683433Y-69052660D01*
X128770778Y-68971309D01*
X128891793Y-68892954D01*
X129136635Y-68742301D01*
X129031163Y-68499250D01*
X128965281Y-68354354D01*
X128912307Y-68249993D01*
X128893492Y-68220586D01*
X128831478Y-68213936D01*
X128700543Y-68231169D01*
X128536402Y-68266813D01*
X128211512Y-68348653D01*
X127949839Y-68067505D01*
X127688166Y-67786356D01*
X127751931Y-67513278D01*
X127787968Y-67349283D01*
X127812062Y-67221291D01*
X127817847Y-67174894D01*
X127775941Y-67119657D01*
X127669523Y-67052106D01*
X127531901Y-66987393D01*
X127396379Y-66940670D01*
X127296266Y-66927087D01*
X127280812Y-66930591D01*
X127218186Y-66986873D01*
X127135310Y-67099985D01*
X127100425Y-67157156D01*
X127019232Y-67275392D01*
X126923583Y-67352028D01*
X126790400Y-67395603D01*
X126596604Y-67414659D01*
X126395607Y-67418000D01*
X126101514Y-67418000D01*
X125938682Y-67151300D01*
X125851553Y-67009403D01*
X125788169Y-66907690D01*
X125764494Y-66871403D01*
X125715654Y-66881932D01*
X125601411Y-66922902D01*
X125491169Y-66967076D01*
X125347395Y-67032471D01*
X125265225Y-67097843D01*
X125235411Y-67188464D01*
X125248702Y-67329605D01*
X125289366Y-67518505D01*
X125349533Y-67779162D01*
X125073466Y-68054775D01*
X124797400Y-68330389D01*
X124518000Y-68255797D01*
X124314388Y-68204979D01*
X124183365Y-68191226D01*
X124099813Y-68223740D01*
X124038616Y-68311726D01*
X123979009Y-68453286D01*
X123871819Y-68726371D01*
X124114079Y-68872285D01*
X124246968Y-68963512D01*
X124334274Y-69061616D01*
X124385311Y-69190146D01*
X124409393Y-69372651D01*
X124415835Y-69632677D01*
X124415840Y-69635204D01*
X124412586Y-69753956D01*
X124392647Y-69844710D01*
X124341646Y-69923366D01*
X124245208Y-70005822D01*
X124088954Y-70107979D01*
X123869803Y-70239063D01*
X122680886Y-70239063D01*
X122654386Y-70118180D01*
X122619624Y-69729258D01*
X122614844Y-69450000D01*
X122627127Y-69036948D01*
X122666510Y-68689007D01*
X122740773Y-68371539D01*
X122857698Y-68049910D01*
X122998094Y-67744002D01*
X123311130Y-67217093D01*
X123697720Y-66752544D01*
X124147508Y-66355969D01*
X124650138Y-66032982D01*
X125195252Y-65789200D01*
X125772496Y-65630236D01*
X126371511Y-65561706D01*
X126974216Y-65588257D01*
G36*
X126844579Y-68217527D02*
X127138984Y-68330207D01*
X127402141Y-68528163D01*
X127430548Y-68555935D01*
X127613834Y-68769191D01*
X127728801Y-68987624D01*
X127791007Y-69247125D01*
X127808926Y-69428804D01*
X127815070Y-69659578D01*
X127794323Y-69833583D01*
X127741121Y-69993385D01*
X127732570Y-70013004D01*
X127538702Y-70339590D01*
X127285689Y-70584381D01*
X126977848Y-70744548D01*
X126619499Y-70817259D01*
X126499200Y-70821600D01*
X126254145Y-70807462D01*
X126052005Y-70756917D01*
X125900766Y-70690650D01*
X125595492Y-70487662D01*
X125372316Y-70225545D01*
X125233430Y-69907925D01*
X125181031Y-69538427D01*
X125180631Y-69500800D01*
X125225919Y-69130377D01*
X125355446Y-68807456D01*
X125559705Y-68541571D01*
X125829187Y-68342257D01*
X126154386Y-68219048D01*
X126496474Y-68181115D01*
X126844579Y-68217527D01*
X126844579Y-68217527D01*
G37*
X126844579Y-68217527D02*
X127138984Y-68330207D01*
X127402141Y-68528163D01*
X127430548Y-68555935D01*
X127613834Y-68769191D01*
X127728801Y-68987624D01*
X127791007Y-69247125D01*
X127808926Y-69428804D01*
X127815070Y-69659578D01*
X127794323Y-69833583D01*
X127741121Y-69993385D01*
X127732570Y-70013004D01*
X127538702Y-70339590D01*
X127285689Y-70584381D01*
X126977848Y-70744548D01*
X126619499Y-70817259D01*
X126499200Y-70821600D01*
X126254145Y-70807462D01*
X126052005Y-70756917D01*
X125900766Y-70690650D01*
X125595492Y-70487662D01*
X125372316Y-70225545D01*
X125233430Y-69907925D01*
X125181031Y-69538427D01*
X125180631Y-69500800D01*
X125225919Y-69130377D01*
X125355446Y-68807456D01*
X125559705Y-68541571D01*
X125829187Y-68342257D01*
X126154386Y-68219048D01*
X126496474Y-68181115D01*
X126844579Y-68217527D01*
D14*
X126500000Y-69500000D03*
D15*
X131800000Y-68500000D03*
X135000000Y-76100000D03*
X140500000Y-79500000D03*
X140500000Y-83200000D03*
X135791393Y-76858058D03*
X139500000Y-82400000D03*
X119400000Y-73800000D03*
X128200000Y-75000000D03*
X124800000Y-75000000D03*
X122400000Y-73800000D03*
X117000000Y-82400000D03*
X108600000Y-89100000D03*
X118500000Y-80600000D03*
X125300000Y-78500000D03*
X127700000Y-74300000D03*
X131275728Y-74724272D03*
X128400000Y-73700000D03*
X132500000Y-75100000D03*
X124600000Y-82800000D03*
X106507933Y-91567810D03*
D16*
X135000000Y-76100000D02*
X131800000Y-72900000D01*
X131800000Y-72900000D02*
X131800000Y-68500000D01*
X140500000Y-83200000D02*
X140500000Y-79500000D01*
D17*
X136091392Y-76558059D02*
X135791393Y-76858058D01*
X137700000Y-76300000D02*
X136349451Y-76300000D01*
X136349451Y-76300000D02*
X136091392Y-76558059D01*
X139200000Y-82100000D02*
X138000000Y-82100000D01*
X139500000Y-82400000D02*
X139200000Y-82100000D01*
X122400000Y-73800000D02*
X119400000Y-73800000D01*
X128200000Y-75000000D02*
X127775736Y-75000000D01*
X127775736Y-75000000D02*
X127375736Y-75400000D01*
X127375736Y-75400000D02*
X126500000Y-75400000D01*
X126100000Y-75000000D02*
X126500000Y-75400000D01*
X124800000Y-75000000D02*
X126100000Y-75000000D01*
X122400000Y-73800000D02*
X123600000Y-75000000D01*
X123600000Y-75000000D02*
X124800000Y-75000000D01*
D16*
X114600000Y-83100000D02*
X116300000Y-83100000D01*
X116300000Y-83100000D02*
X117000000Y-82400000D01*
X108600000Y-89100000D02*
X114600000Y-83100000D01*
D17*
X118500000Y-80600000D02*
X118500000Y-79500000D01*
X118500000Y-79500000D02*
X119500000Y-78500000D01*
X119500000Y-78500000D02*
X125300000Y-78500000D01*
X129024264Y-74300011D02*
X127700011Y-74300011D01*
X127700011Y-74300011D02*
X127700000Y-74300000D01*
X130851467Y-74300011D02*
X129024264Y-74300011D01*
X131275728Y-74724272D02*
X130851467Y-74300011D01*
X129300000Y-73700000D02*
X128400000Y-73700000D01*
X131100000Y-73700000D02*
X131200000Y-73800000D01*
X129300000Y-73700000D02*
X131100000Y-73700000D01*
X131200000Y-73800000D02*
X132500000Y-75100000D01*
X116700000Y-83800000D02*
X117100000Y-83400000D01*
X117100000Y-83400000D02*
X124000000Y-83400000D01*
X124000000Y-83400000D02*
X124600000Y-82800000D01*
X106507933Y-91567810D02*
X106807932Y-91267811D01*
X106807932Y-91267811D02*
X107332189Y-91267811D01*
X107332189Y-91267811D02*
X114800000Y-83800000D01*
X114800000Y-83800000D02*
X116700000Y-83800000D01*
M02*
