G04 #@! TF.FileFunction,Copper,L2,Bot,Signal*
%FSLAX46Y46*%
G04 Gerber Fmt 4.6, Leading zero omitted, Abs format (unit mm)*
G04 Created by KiCad (PCBNEW 4.0.5-e0-6337~49~ubuntu14.04.1) date Tue May 16 18:33:42 2017*
%MOMM*%
%LPD*%
G01*
G04 APERTURE LIST*
%ADD10C,0.100000*%
%ADD11C,3.000000*%
%ADD12R,1.600000X0.800000*%
%ADD13R,1.000000X1.200000*%
%ADD14R,1.800000X1.250000*%
%ADD15R,0.500000X0.800000*%
%ADD16R,0.300000X0.800000*%
%ADD17C,1.000000*%
%ADD18C,0.600000*%
%ADD19C,0.500000*%
%ADD20C,0.200000*%
%ADD21C,0.300000*%
G04 APERTURE END LIST*
D10*
G36*
X109094409Y-83849457D02*
X108322625Y-82334746D01*
X108857229Y-82062351D01*
X109629013Y-83577062D01*
X109094409Y-83849457D01*
X109094409Y-83849457D01*
G37*
G36*
X110208167Y-83281969D02*
X109436383Y-81767258D01*
X109970987Y-81494863D01*
X110742771Y-83009574D01*
X110208167Y-83281969D01*
X110208167Y-83281969D01*
G37*
G36*
X107980651Y-84416945D02*
X107208867Y-82902234D01*
X107743471Y-82629839D01*
X108515255Y-84144550D01*
X107980651Y-84416945D01*
X107980651Y-84416945D01*
G37*
G36*
X106866893Y-84984433D02*
X106095109Y-83469722D01*
X106629713Y-83197327D01*
X107401497Y-84712038D01*
X106866893Y-84984433D01*
X106866893Y-84984433D01*
G37*
G36*
X113928752Y-78524304D02*
X112702978Y-76118586D01*
X113593984Y-75664596D01*
X114819758Y-78070314D01*
X113928752Y-78524304D01*
X113928752Y-78524304D01*
G37*
G36*
X103815829Y-83677097D02*
X102590055Y-81271379D01*
X103481061Y-80817389D01*
X104706835Y-83223107D01*
X103815829Y-83677097D01*
X103815829Y-83677097D01*
G37*
G36*
X111856529Y-82442086D02*
X111321925Y-82714481D01*
X110550141Y-81199770D01*
X111084745Y-80927375D01*
X111856529Y-82442086D01*
X111856529Y-82442086D01*
G37*
G36*
X112970288Y-81874597D02*
X112435684Y-82146992D01*
X111663900Y-80632281D01*
X112198504Y-80359886D01*
X112970288Y-81874597D01*
X112970288Y-81874597D01*
G37*
G36*
X114084046Y-81307109D02*
X113549442Y-81579504D01*
X112777658Y-80064793D01*
X113312262Y-79792398D01*
X114084046Y-81307109D01*
X114084046Y-81307109D01*
G37*
G36*
X136872093Y-83931712D02*
X138074175Y-85133794D01*
X137649911Y-85558058D01*
X136447829Y-84355976D01*
X136872093Y-83931712D01*
X136872093Y-83931712D01*
G37*
G36*
X135988210Y-84815596D02*
X137190292Y-86017678D01*
X136766028Y-86441942D01*
X135563946Y-85239860D01*
X135988210Y-84815596D01*
X135988210Y-84815596D01*
G37*
G36*
X137755976Y-83047829D02*
X138958058Y-84249911D01*
X138533794Y-84674175D01*
X137331712Y-83472093D01*
X137755976Y-83047829D01*
X137755976Y-83047829D01*
G37*
G36*
X138639860Y-82163946D02*
X139841942Y-83366028D01*
X139417678Y-83790292D01*
X138215596Y-82588210D01*
X138639860Y-82163946D01*
X138639860Y-82163946D01*
G37*
G36*
X136571573Y-87838477D02*
X138480762Y-89747666D01*
X137773655Y-90454773D01*
X135864466Y-88545584D01*
X136571573Y-87838477D01*
X136571573Y-87838477D01*
G37*
G36*
X141945584Y-82464466D02*
X143854773Y-84373655D01*
X143147666Y-85080762D01*
X141238477Y-83171573D01*
X141945584Y-82464466D01*
X141945584Y-82464466D01*
G37*
D11*
X126500000Y-69500000D03*
D12*
X129200000Y-70300000D03*
X129200000Y-68700000D03*
X123800000Y-70300000D03*
X123800000Y-68700000D03*
D13*
X123500000Y-70500000D03*
X123500000Y-68500000D03*
X129500000Y-70500000D03*
X129500000Y-68500000D03*
D10*
G36*
X123950000Y-71100000D02*
X123400000Y-70700000D01*
X124600000Y-70700000D01*
X124050000Y-71100000D01*
X123950000Y-71100000D01*
X123950000Y-71100000D01*
G37*
G36*
X124050000Y-67900000D02*
X124600000Y-68300000D01*
X123400000Y-68300000D01*
X123950000Y-67900000D01*
X124050000Y-67900000D01*
X124050000Y-67900000D01*
G37*
G36*
X128950000Y-71100000D02*
X128400000Y-70700000D01*
X129600000Y-70700000D01*
X129050000Y-71100000D01*
X128950000Y-71100000D01*
X128950000Y-71100000D01*
G37*
G36*
X129050000Y-67900000D02*
X129600000Y-68300000D01*
X128400000Y-68300000D01*
X128950000Y-67900000D01*
X129050000Y-67900000D01*
X129050000Y-67900000D01*
G37*
G36*
X103386396Y-85015076D02*
X104234924Y-85863604D01*
X103527818Y-86570710D01*
X102679290Y-85722182D01*
X103386396Y-85015076D01*
X103386396Y-85015076D01*
G37*
G36*
X101972182Y-86429290D02*
X102820710Y-87277818D01*
X102113604Y-87984924D01*
X101265076Y-87136396D01*
X101972182Y-86429290D01*
X101972182Y-86429290D01*
G37*
D14*
X118700000Y-82300000D03*
X121300000Y-82300000D03*
D10*
G36*
X122866117Y-80969670D02*
X123219670Y-80616117D01*
X123785355Y-81181802D01*
X123431802Y-81535355D01*
X122866117Y-80969670D01*
X122866117Y-80969670D01*
G37*
G36*
X123714645Y-81818198D02*
X124068198Y-81464645D01*
X124633883Y-82030330D01*
X124280330Y-82383883D01*
X123714645Y-81818198D01*
X123714645Y-81818198D01*
G37*
G36*
X105613604Y-91484924D02*
X104765076Y-90636396D01*
X105472182Y-89929290D01*
X106320710Y-90777818D01*
X105613604Y-91484924D01*
X105613604Y-91484924D01*
G37*
G36*
X107027818Y-90070710D02*
X106179290Y-89222182D01*
X106886396Y-88515076D01*
X107734924Y-89363604D01*
X107027818Y-90070710D01*
X107027818Y-90070710D01*
G37*
G36*
X129569670Y-76783883D02*
X129216117Y-76430330D01*
X129781802Y-75864645D01*
X130135355Y-76218198D01*
X129569670Y-76783883D01*
X129569670Y-76783883D01*
G37*
G36*
X130418198Y-75935355D02*
X130064645Y-75581802D01*
X130630330Y-75016117D01*
X130983883Y-75369670D01*
X130418198Y-75935355D01*
X130418198Y-75935355D01*
G37*
G36*
X137331712Y-79527907D02*
X138533794Y-78325825D01*
X138958058Y-78750089D01*
X137755976Y-79952171D01*
X137331712Y-79527907D01*
X137331712Y-79527907D01*
G37*
G36*
X138215596Y-80411790D02*
X139417678Y-79209708D01*
X139841942Y-79633972D01*
X138639860Y-80836054D01*
X138215596Y-80411790D01*
X138215596Y-80411790D01*
G37*
G36*
X136447829Y-78644024D02*
X137649911Y-77441942D01*
X138074175Y-77866206D01*
X136872093Y-79068288D01*
X136447829Y-78644024D01*
X136447829Y-78644024D01*
G37*
G36*
X135563946Y-77760140D02*
X136766028Y-76558058D01*
X137190292Y-76982322D01*
X135988210Y-78184404D01*
X135563946Y-77760140D01*
X135563946Y-77760140D01*
G37*
G36*
X141238477Y-79828427D02*
X143147666Y-77919238D01*
X143854773Y-78626345D01*
X141945584Y-80535534D01*
X141238477Y-79828427D01*
X141238477Y-79828427D01*
G37*
G36*
X135864466Y-74454416D02*
X137773655Y-72545227D01*
X138480762Y-73252334D01*
X136571573Y-75161523D01*
X135864466Y-74454416D01*
X135864466Y-74454416D01*
G37*
D15*
X121600000Y-71500000D03*
X121600000Y-72700000D03*
X122400000Y-70300000D03*
X122400000Y-71500000D03*
X130700000Y-70300000D03*
X130700000Y-71500000D03*
D10*
G36*
X105949569Y-87224695D02*
X105101041Y-88073223D01*
X104676777Y-87648959D01*
X105525305Y-86800431D01*
X105949569Y-87224695D01*
X105949569Y-87224695D01*
G37*
G36*
X105277817Y-86552944D02*
X104429289Y-87401472D01*
X104005025Y-86977208D01*
X104853553Y-86128680D01*
X105277817Y-86552944D01*
X105277817Y-86552944D01*
G37*
G36*
X106621320Y-87896447D02*
X105772792Y-88744975D01*
X105348528Y-88320711D01*
X106197056Y-87472183D01*
X106621320Y-87896447D01*
X106621320Y-87896447D01*
G37*
G36*
X104994975Y-89522792D02*
X104146447Y-90371320D01*
X103722183Y-89947056D01*
X104570711Y-89098528D01*
X104994975Y-89522792D01*
X104994975Y-89522792D01*
G37*
G36*
X103651472Y-88179289D02*
X102802944Y-89027817D01*
X102378680Y-88603553D01*
X103227208Y-87755025D01*
X103651472Y-88179289D01*
X103651472Y-88179289D01*
G37*
G36*
X129930330Y-74316117D02*
X130283883Y-74669670D01*
X129718198Y-75235355D01*
X129364645Y-74881802D01*
X129930330Y-74316117D01*
X129930330Y-74316117D01*
G37*
G36*
X129081802Y-75164645D02*
X129435355Y-75518198D01*
X128869670Y-76083883D01*
X128516117Y-75730330D01*
X129081802Y-75164645D01*
X129081802Y-75164645D01*
G37*
D16*
X131350000Y-78050000D03*
X131850000Y-78050000D03*
X132350000Y-78050000D03*
X132850000Y-78050000D03*
X132850000Y-76750000D03*
X132350000Y-76750000D03*
X131850000Y-76750000D03*
X131350000Y-76750000D03*
D17*
X98250000Y-86250000D03*
X109750000Y-86250000D03*
D10*
G36*
X104401829Y-94866296D02*
X100866296Y-98401829D01*
X99310661Y-96846194D01*
X102846194Y-93310661D01*
X104401829Y-94866296D01*
X104401829Y-94866296D01*
G37*
G36*
X100795584Y-91260051D02*
X97260051Y-94795584D01*
X95704416Y-93239949D01*
X99239949Y-89704416D01*
X100795584Y-91260051D01*
X100795584Y-91260051D01*
G37*
G36*
X97189339Y-87653806D02*
X93653806Y-91189339D01*
X92098171Y-89633704D01*
X95633704Y-86098171D01*
X97189339Y-87653806D01*
X97189339Y-87653806D01*
G37*
G36*
X135049557Y-86037520D02*
X134757186Y-86993825D01*
X126150443Y-84362480D01*
X126442814Y-83406175D01*
X135049557Y-86037520D01*
X135049557Y-86037520D01*
G37*
G36*
X133919652Y-83234698D02*
X133510331Y-84573524D01*
X132554026Y-84281152D01*
X132963347Y-82942326D01*
X133919652Y-83234698D01*
X133919652Y-83234698D01*
G37*
G36*
X129903172Y-82006737D02*
X129493851Y-83345563D01*
X128537546Y-83053191D01*
X128946867Y-81714365D01*
X129903172Y-82006737D01*
X129903172Y-82006737D01*
G37*
G36*
X127560660Y-75780152D02*
X126924264Y-76416548D01*
X126712132Y-76204416D01*
X127348528Y-75568020D01*
X127560660Y-75780152D01*
X127560660Y-75780152D01*
G37*
G36*
X127914213Y-76133705D02*
X127065685Y-76982233D01*
X126853553Y-76770101D01*
X127702081Y-75921573D01*
X127914213Y-76133705D01*
X127914213Y-76133705D01*
G37*
G36*
X128267767Y-76487258D02*
X127419239Y-77335786D01*
X127207107Y-77123654D01*
X128055635Y-76275126D01*
X128267767Y-76487258D01*
X128267767Y-76487258D01*
G37*
G36*
X128621320Y-76840812D02*
X127772792Y-77689340D01*
X127560660Y-77477208D01*
X128409188Y-76628680D01*
X128621320Y-76840812D01*
X128621320Y-76840812D01*
G37*
G36*
X128974874Y-77194365D02*
X128126346Y-78042893D01*
X127914214Y-77830761D01*
X128762742Y-76982233D01*
X128974874Y-77194365D01*
X128974874Y-77194365D01*
G37*
G36*
X129328427Y-77547919D02*
X128479899Y-78396447D01*
X128267767Y-78184315D01*
X129116295Y-77335787D01*
X129328427Y-77547919D01*
X129328427Y-77547919D01*
G37*
G36*
X129681980Y-77901472D02*
X129045584Y-78537868D01*
X128833452Y-78325736D01*
X129469848Y-77689340D01*
X129681980Y-77901472D01*
X129681980Y-77901472D01*
G37*
G36*
X129469848Y-79810660D02*
X128833452Y-79174264D01*
X129045584Y-78962132D01*
X129681980Y-79598528D01*
X129469848Y-79810660D01*
X129469848Y-79810660D01*
G37*
G36*
X129116295Y-80164213D02*
X128267767Y-79315685D01*
X128479899Y-79103553D01*
X129328427Y-79952081D01*
X129116295Y-80164213D01*
X129116295Y-80164213D01*
G37*
G36*
X128762742Y-80517767D02*
X127914214Y-79669239D01*
X128126346Y-79457107D01*
X128974874Y-80305635D01*
X128762742Y-80517767D01*
X128762742Y-80517767D01*
G37*
G36*
X128409188Y-80871320D02*
X127560660Y-80022792D01*
X127772792Y-79810660D01*
X128621320Y-80659188D01*
X128409188Y-80871320D01*
X128409188Y-80871320D01*
G37*
G36*
X128055635Y-81224874D02*
X127207107Y-80376346D01*
X127419239Y-80164214D01*
X128267767Y-81012742D01*
X128055635Y-81224874D01*
X128055635Y-81224874D01*
G37*
G36*
X127702081Y-81578427D02*
X126853553Y-80729899D01*
X127065685Y-80517767D01*
X127914213Y-81366295D01*
X127702081Y-81578427D01*
X127702081Y-81578427D01*
G37*
G36*
X127348528Y-81931980D02*
X126712132Y-81295584D01*
X126924264Y-81083452D01*
X127560660Y-81719848D01*
X127348528Y-81931980D01*
X127348528Y-81931980D01*
G37*
G36*
X126287868Y-81295584D02*
X125651472Y-81931980D01*
X125439340Y-81719848D01*
X126075736Y-81083452D01*
X126287868Y-81295584D01*
X126287868Y-81295584D01*
G37*
G36*
X126146447Y-80729899D02*
X125297919Y-81578427D01*
X125085787Y-81366295D01*
X125934315Y-80517767D01*
X126146447Y-80729899D01*
X126146447Y-80729899D01*
G37*
G36*
X125792893Y-80376346D02*
X124944365Y-81224874D01*
X124732233Y-81012742D01*
X125580761Y-80164214D01*
X125792893Y-80376346D01*
X125792893Y-80376346D01*
G37*
G36*
X125439340Y-80022792D02*
X124590812Y-80871320D01*
X124378680Y-80659188D01*
X125227208Y-79810660D01*
X125439340Y-80022792D01*
X125439340Y-80022792D01*
G37*
G36*
X125085786Y-79669239D02*
X124237258Y-80517767D01*
X124025126Y-80305635D01*
X124873654Y-79457107D01*
X125085786Y-79669239D01*
X125085786Y-79669239D01*
G37*
G36*
X124732233Y-79315685D02*
X123883705Y-80164213D01*
X123671573Y-79952081D01*
X124520101Y-79103553D01*
X124732233Y-79315685D01*
X124732233Y-79315685D01*
G37*
G36*
X124166548Y-79174264D02*
X123530152Y-79810660D01*
X123318020Y-79598528D01*
X123954416Y-78962132D01*
X124166548Y-79174264D01*
X124166548Y-79174264D01*
G37*
G36*
X123954416Y-78537868D02*
X123318020Y-77901472D01*
X123530152Y-77689340D01*
X124166548Y-78325736D01*
X123954416Y-78537868D01*
X123954416Y-78537868D01*
G37*
G36*
X124520101Y-78396447D02*
X123671573Y-77547919D01*
X123883705Y-77335787D01*
X124732233Y-78184315D01*
X124520101Y-78396447D01*
X124520101Y-78396447D01*
G37*
G36*
X124873654Y-78042893D02*
X124025126Y-77194365D01*
X124237258Y-76982233D01*
X125085786Y-77830761D01*
X124873654Y-78042893D01*
X124873654Y-78042893D01*
G37*
G36*
X125227208Y-77689340D02*
X124378680Y-76840812D01*
X124590812Y-76628680D01*
X125439340Y-77477208D01*
X125227208Y-77689340D01*
X125227208Y-77689340D01*
G37*
G36*
X125580761Y-77335786D02*
X124732233Y-76487258D01*
X124944365Y-76275126D01*
X125792893Y-77123654D01*
X125580761Y-77335786D01*
X125580761Y-77335786D01*
G37*
G36*
X125934315Y-76982233D02*
X125085787Y-76133705D01*
X125297919Y-75921573D01*
X126146447Y-76770101D01*
X125934315Y-76982233D01*
X125934315Y-76982233D01*
G37*
G36*
X126075736Y-76416548D02*
X125439340Y-75780152D01*
X125651472Y-75568020D01*
X126287868Y-76204416D01*
X126075736Y-76416548D01*
X126075736Y-76416548D01*
G37*
G36*
X127242462Y-76098349D02*
X126676776Y-76664035D01*
X126676776Y-76239771D01*
X126818198Y-76098349D01*
X127242462Y-76098349D01*
X127242462Y-76098349D01*
G37*
G36*
X126323224Y-76664035D02*
X125757538Y-76098349D01*
X126181802Y-76098349D01*
X126323224Y-76239771D01*
X126323224Y-76664035D01*
X126323224Y-76664035D01*
G37*
G36*
X126676776Y-80835965D02*
X127242462Y-81401651D01*
X126818198Y-81401651D01*
X126676776Y-81260229D01*
X126676776Y-80835965D01*
X126676776Y-80835965D01*
G37*
G36*
X125757538Y-81401651D02*
X126323224Y-80835965D01*
X126323224Y-81260229D01*
X126181802Y-81401651D01*
X125757538Y-81401651D01*
X125757538Y-81401651D01*
G37*
G36*
X128585965Y-78573224D02*
X129151651Y-78007538D01*
X129151651Y-78431802D01*
X129010229Y-78573224D01*
X128585965Y-78573224D01*
X128585965Y-78573224D01*
G37*
G36*
X129151651Y-79492462D02*
X128585965Y-78926776D01*
X129010229Y-78926776D01*
X129151651Y-79068198D01*
X129151651Y-79492462D01*
X129151651Y-79492462D01*
G37*
G36*
X124414035Y-78926776D02*
X123848349Y-79492462D01*
X123848349Y-79068198D01*
X123989771Y-78926776D01*
X124414035Y-78926776D01*
X124414035Y-78926776D01*
G37*
G36*
X123848349Y-78007538D02*
X124414035Y-78573224D01*
X123989771Y-78573224D01*
X123848349Y-78431802D01*
X123848349Y-78007538D01*
X123848349Y-78007538D01*
G37*
D16*
X123650000Y-75000000D03*
X123000000Y-75000000D03*
X122350000Y-75000000D03*
X122350000Y-73000000D03*
X123000000Y-73000000D03*
X123650000Y-73000000D03*
X133250000Y-73500000D03*
X132600000Y-73500000D03*
X131950000Y-73500000D03*
X131950000Y-71500000D03*
X132600000Y-71500000D03*
X133250000Y-71500000D03*
D18*
X131800000Y-68500000D03*
X135000000Y-76100000D03*
X140500000Y-79500000D03*
X140500000Y-83200000D03*
X135791393Y-76858058D03*
X139500000Y-82400000D03*
X119400000Y-73800000D03*
X128200000Y-75000000D03*
X124800000Y-75000000D03*
X122400000Y-73800000D03*
X117000000Y-82400000D03*
X108600000Y-89100000D03*
X118500000Y-80600000D03*
X125300000Y-78500000D03*
X127700000Y-74300000D03*
X131275728Y-74724272D03*
X128400000Y-73700000D03*
X132500000Y-75100000D03*
X124600000Y-82800000D03*
X106507933Y-91567810D03*
D19*
X135008048Y-76108048D02*
X135000000Y-76100000D01*
X137108048Y-76108048D02*
X135008048Y-76108048D01*
X131800000Y-68500000D02*
X129500000Y-68500000D01*
X138800000Y-77800000D02*
X137108048Y-76108048D01*
D20*
X104641421Y-86765076D02*
X105136395Y-86270102D01*
X106479898Y-87330744D02*
X106479898Y-87613605D01*
X105136395Y-86270102D02*
X105419256Y-86270102D01*
X105419256Y-86270102D02*
X106479898Y-87330744D01*
X106479898Y-87613605D02*
X105984924Y-88108579D01*
D19*
X140500000Y-79500000D02*
X138800000Y-77800000D01*
X138800000Y-77800000D02*
X138583364Y-77583364D01*
X138583364Y-77583364D02*
X137932753Y-77583364D01*
X138144885Y-83861002D02*
X138816636Y-84532753D01*
X138816636Y-84532753D02*
X139311629Y-84532753D01*
X139311629Y-84532753D02*
X140500000Y-83344382D01*
X140500000Y-83344382D02*
X140500000Y-83200000D01*
X129500000Y-68500000D02*
X129500000Y-68400000D01*
X129500000Y-68400000D02*
X128400000Y-67300000D01*
X128400000Y-67300000D02*
X122789998Y-67300000D01*
X122549999Y-67950001D02*
X120899999Y-69600001D01*
X122789998Y-67300000D02*
X122549999Y-67539999D01*
X122549999Y-67539999D02*
X122549999Y-67950001D01*
X114200000Y-80800000D02*
X113600000Y-80900000D01*
X113600000Y-80900000D02*
X113430852Y-80685951D01*
X120899999Y-69600001D02*
X120900000Y-74100000D01*
X120900000Y-74100000D02*
X114200000Y-80800000D01*
X112200000Y-79700000D02*
X113100000Y-80100000D01*
X105300000Y-83950000D02*
X105600000Y-83000000D01*
X105600000Y-83000000D02*
X112200000Y-79700000D01*
X113100000Y-80100000D02*
X113430852Y-80685951D01*
X129600000Y-68700000D02*
X129200000Y-68700000D01*
X138427745Y-77583364D02*
X137932753Y-77583364D01*
X137932753Y-77583364D02*
X137261002Y-78255115D01*
X103457107Y-85792893D02*
X105300000Y-83950000D01*
X105300000Y-83950000D02*
X105156845Y-84093155D01*
X104641421Y-86765076D02*
X104429290Y-86765076D01*
X104429290Y-86765076D02*
X103457107Y-85792893D01*
D20*
X135863946Y-76858058D02*
X135791393Y-76858058D01*
X136377119Y-77371231D02*
X135863946Y-76858058D01*
X139028769Y-82977119D02*
X139028769Y-82871231D01*
X139028769Y-82871231D02*
X139500000Y-82400000D01*
X129824264Y-74775736D02*
X128424264Y-74775736D01*
X128424264Y-74775736D02*
X128200000Y-75000000D01*
X129824264Y-74775736D02*
X130524264Y-75475736D01*
X124800000Y-75000000D02*
X123650000Y-75000000D01*
X122350000Y-73000000D02*
X122350000Y-73750000D01*
X122350000Y-73750000D02*
X122400000Y-73800000D01*
X124174264Y-81924264D02*
X124739950Y-81924264D01*
X124739950Y-81924264D02*
X125616117Y-81048097D01*
X123325736Y-81075736D02*
X123078250Y-81323222D01*
X123078250Y-81323222D02*
X119951778Y-81323222D01*
X119951778Y-81323222D02*
X118975000Y-82300000D01*
X118975000Y-82300000D02*
X118700000Y-82300000D01*
X118975000Y-82300000D02*
X119800000Y-81475000D01*
X119951778Y-81323222D02*
X119800000Y-81475000D01*
D19*
X117000000Y-82400000D02*
X118600000Y-82400000D01*
X118600000Y-82400000D02*
X118700000Y-82300000D01*
X105542893Y-90707107D02*
X107027833Y-90707107D01*
X108600000Y-89134940D02*
X108600000Y-89100000D01*
X107027833Y-90707107D02*
X108600000Y-89134940D01*
X103015076Y-88391421D02*
X103015076Y-89876361D01*
X103015076Y-89876361D02*
X104270085Y-91131370D01*
X104270085Y-91131370D02*
X105118630Y-91131370D01*
X105118630Y-91131370D02*
X105542893Y-90707107D01*
D20*
X123325736Y-81075736D02*
X123573222Y-80828250D01*
X123573222Y-80828250D02*
X124123462Y-80828250D01*
X124123462Y-80828250D02*
X124484730Y-81189518D01*
X124484730Y-81189518D02*
X124767589Y-81189518D01*
X125757537Y-80199570D02*
X128444544Y-77512563D01*
X125262563Y-80694544D02*
X125757537Y-80199570D01*
X124767589Y-81189518D02*
X125262563Y-80694544D01*
X117600000Y-80600000D02*
X118500000Y-80600000D01*
X129675736Y-76324264D02*
X129222183Y-76324264D01*
X129222183Y-76324264D02*
X128882411Y-76664036D01*
X128882411Y-76664036D02*
X128585964Y-76664036D01*
X117600000Y-80600000D02*
X113973927Y-84226073D01*
X113973927Y-84226073D02*
X108564742Y-84226073D01*
X108564742Y-84226073D02*
X107862061Y-83523392D01*
X128585964Y-76664036D02*
X128090990Y-77159010D01*
X128090990Y-77159010D02*
X126750000Y-78500000D01*
X126750000Y-78500000D02*
X125300000Y-78500000D01*
X130700000Y-70300000D02*
X129700000Y-70300000D01*
X129700000Y-70300000D02*
X129500000Y-70500000D01*
X122400000Y-70300000D02*
X123300000Y-70300000D01*
X123300000Y-70300000D02*
X123500000Y-70500000D01*
X123500000Y-70400000D02*
X123500000Y-70500000D01*
X121600000Y-71500000D02*
X121600000Y-69700000D01*
X121600000Y-69700000D02*
X122800000Y-68500000D01*
X122800000Y-68500000D02*
X123500000Y-68500000D01*
X109678500Y-83658585D02*
X108975819Y-82955904D01*
X118213604Y-79386396D02*
X113941415Y-83658585D01*
X113941415Y-83658585D02*
X109678500Y-83658585D01*
X123742284Y-79386396D02*
X118213604Y-79386396D01*
X118900000Y-78100000D02*
X113908903Y-83091097D01*
X113908903Y-83091097D02*
X110792258Y-83091097D01*
X110792258Y-83091097D02*
X110089577Y-82388416D01*
X123416548Y-78100000D02*
X118900000Y-78100000D01*
X123742284Y-78113604D02*
X123430152Y-78113604D01*
X123430152Y-78113604D02*
X123416548Y-78100000D01*
X124201903Y-77866117D02*
X123706929Y-77371143D01*
X123706929Y-77371143D02*
X119028857Y-77371143D01*
X119028857Y-77371143D02*
X113876391Y-82523609D01*
X113876391Y-82523609D02*
X111906016Y-82523609D01*
X111906016Y-82523609D02*
X111203335Y-81820928D01*
X113019775Y-81956120D02*
X112317094Y-81253439D01*
X125262563Y-76805456D02*
X124767589Y-76310482D01*
X124767589Y-76310482D02*
X119504954Y-76310482D01*
X119504954Y-76310482D02*
X113859316Y-81956120D01*
X113859316Y-81956120D02*
X113019775Y-81956120D01*
X127700000Y-74300000D02*
X123100000Y-74300000D01*
X123100000Y-74300000D02*
X123000000Y-74400000D01*
X123000000Y-75000000D02*
X123000000Y-74400000D01*
X131350000Y-76750000D02*
X131350000Y-74798544D01*
X131350000Y-74798544D02*
X131275728Y-74724272D01*
X121600000Y-74600000D02*
X121600000Y-72700000D01*
X122000000Y-75000000D02*
X121600000Y-74600000D01*
X122000000Y-75000000D02*
X122350000Y-75000000D01*
X128400000Y-73700000D02*
X123100000Y-73700000D01*
X123100000Y-73700000D02*
X123000000Y-73600000D01*
X123000000Y-73600000D02*
X123000000Y-73000000D01*
X131850000Y-76750000D02*
X131850000Y-75750000D01*
X131850000Y-75750000D02*
X132500000Y-75100000D01*
X123650000Y-73000000D02*
X123650000Y-72500000D01*
X122850000Y-71500000D02*
X123650000Y-72300000D01*
X123650000Y-72500000D02*
X123650000Y-72400000D01*
X122400000Y-71500000D02*
X122850000Y-71500000D01*
X123650000Y-72300000D02*
X123650000Y-72500000D01*
X133100000Y-75400000D02*
X133100000Y-74600000D01*
X133100000Y-74600000D02*
X132600000Y-74100000D01*
X132600000Y-74100000D02*
X132600000Y-73500000D01*
X132350000Y-76750000D02*
X132350000Y-76150000D01*
X132350000Y-76150000D02*
X133100000Y-75400000D01*
X133250000Y-71500000D02*
X133250000Y-70900000D01*
X133250000Y-70900000D02*
X133149999Y-70799999D01*
X133149999Y-70799999D02*
X131400002Y-70799999D01*
X131400001Y-70799999D02*
X130700000Y-71500000D01*
X131350000Y-78050000D02*
X131000000Y-78050000D01*
X131000000Y-78050000D02*
X130321143Y-77371143D01*
X130321143Y-77371143D02*
X129293071Y-77371143D01*
X129293071Y-77371143D02*
X128798097Y-77866117D01*
X132350000Y-78050000D02*
X132350000Y-78705702D01*
X131669306Y-79386396D02*
X129569848Y-79386396D01*
X132350000Y-78705702D02*
X131669306Y-79386396D01*
X129569848Y-79386396D02*
X129257716Y-79386396D01*
X131850000Y-78640002D02*
X131850000Y-78050000D01*
X131740001Y-78750001D02*
X131850000Y-78640002D01*
X129894113Y-78750001D02*
X131740001Y-78750001D01*
X129257716Y-78113604D02*
X129894113Y-78750001D01*
X128058644Y-82429964D02*
X127136396Y-81507716D01*
X129120359Y-82429964D02*
X128058644Y-82429964D01*
X124600000Y-82800000D02*
X124600000Y-82771320D01*
X124600000Y-82771320D02*
X125863604Y-81507716D01*
X125800000Y-81600000D02*
X125863604Y-81507716D01*
X98250000Y-92250000D02*
X105825743Y-92250000D01*
X105825743Y-92250000D02*
X106507933Y-91567810D01*
X127525304Y-75603376D02*
X127136396Y-75992284D01*
X128501295Y-75603376D02*
X127525304Y-75603376D01*
X128522183Y-75624264D02*
X128501295Y-75603376D01*
X128975736Y-75624264D02*
X128522183Y-75624264D01*
X129594118Y-80110670D02*
X129604810Y-80099978D01*
X129604810Y-80099978D02*
X137183905Y-80099978D01*
X129274884Y-80110670D02*
X129594118Y-80110670D01*
X137473134Y-79810749D02*
X138144885Y-79138998D01*
X137183905Y-80099978D02*
X137473134Y-79810749D01*
X128798097Y-79633883D02*
X129274884Y-80110670D01*
X128939518Y-80482411D02*
X128444544Y-79987437D01*
X128957096Y-80499989D02*
X128939518Y-80482411D01*
X129179889Y-80510681D02*
X129169197Y-80499989D01*
X129770499Y-80499989D02*
X129759807Y-80510681D01*
X138027397Y-80499989D02*
X129770499Y-80499989D01*
X139028769Y-80022881D02*
X138504505Y-80022881D01*
X129169197Y-80499989D02*
X128957096Y-80499989D01*
X138504505Y-80022881D02*
X138027397Y-80499989D01*
X129759807Y-80510681D02*
X129179889Y-80510681D01*
X133426809Y-80910692D02*
X136589251Y-84073134D01*
X128090990Y-80340990D02*
X128660692Y-80910692D01*
X136589251Y-84073134D02*
X137261002Y-84744885D01*
X128660692Y-80910692D02*
X133426809Y-80910692D01*
X136377119Y-85104505D02*
X136377119Y-85628769D01*
X132672614Y-81400000D02*
X136377119Y-85104505D01*
X128442893Y-81400000D02*
X132672614Y-81400000D01*
X127737437Y-80694544D02*
X128442893Y-81400000D01*
D21*
G36*
X127365674Y-64080982D02*
X128024099Y-64177146D01*
X128613394Y-64331427D01*
X129135462Y-64530214D01*
X129591729Y-64760060D01*
X129983102Y-65007452D01*
X130310087Y-65258637D01*
X130578831Y-65504902D01*
X137448698Y-72375209D01*
X136668800Y-73155107D01*
X136668800Y-73278851D01*
X137172614Y-73782664D01*
X137186756Y-73768522D01*
X137257467Y-73839233D01*
X137243325Y-73853375D01*
X137747138Y-74357189D01*
X137870882Y-74357189D01*
X138650742Y-73577329D01*
X142822537Y-77749392D01*
X142042811Y-78529118D01*
X142042811Y-78652862D01*
X142546625Y-79156675D01*
X142560767Y-79142533D01*
X142631478Y-79213244D01*
X142617336Y-79227386D01*
X143121149Y-79731200D01*
X143244893Y-79731200D01*
X143797583Y-79178510D01*
X143797729Y-83821636D01*
X143244893Y-83268800D01*
X143121149Y-83268800D01*
X142617336Y-83772614D01*
X142631478Y-83786756D01*
X142560767Y-83857467D01*
X142546625Y-83843325D01*
X142042811Y-84347138D01*
X142042811Y-84470882D01*
X142795873Y-85223944D01*
X138622614Y-89394543D01*
X137870882Y-88642811D01*
X137747138Y-88642811D01*
X137243325Y-89146625D01*
X137257467Y-89160767D01*
X137186756Y-89231478D01*
X137172614Y-89217336D01*
X137158472Y-89231478D01*
X137087761Y-89160767D01*
X137101903Y-89146625D01*
X135997049Y-88041771D01*
X135873305Y-88041771D01*
X135707759Y-88207317D01*
X135432689Y-88003858D01*
X135426798Y-88001081D01*
X135422269Y-87996407D01*
X135206585Y-87847316D01*
X136067760Y-87847316D01*
X136067760Y-87971060D01*
X137172614Y-89075914D01*
X137676428Y-88572101D01*
X137676428Y-88448357D01*
X136769832Y-87541761D01*
X136641192Y-87488478D01*
X136501954Y-87488477D01*
X136373314Y-87541762D01*
X136067760Y-87847316D01*
X135206585Y-87847316D01*
X134862780Y-87609663D01*
X134856680Y-87607023D01*
X134851900Y-87602402D01*
X134289509Y-87240243D01*
X134283206Y-87237756D01*
X134278179Y-87233211D01*
X134210240Y-87192599D01*
X134721432Y-87348886D01*
X134860030Y-87335541D01*
X134982970Y-87270172D01*
X135071537Y-87162733D01*
X135112247Y-87029578D01*
X135197877Y-86749495D01*
X135139783Y-86640235D01*
X130633197Y-85262434D01*
X130627349Y-85281561D01*
X130531719Y-85252323D01*
X130537566Y-85233197D01*
X130320402Y-85166803D01*
X130662434Y-85166803D01*
X135169020Y-86544605D01*
X135278279Y-86486511D01*
X135363909Y-86206427D01*
X135404619Y-86073272D01*
X135391273Y-85934675D01*
X135325905Y-85811735D01*
X135218464Y-85723168D01*
X130980008Y-84427342D01*
X130870749Y-84485436D01*
X130662434Y-85166803D01*
X130320402Y-85166803D01*
X126030980Y-83855395D01*
X125921721Y-83913489D01*
X125836091Y-84193573D01*
X125795381Y-84326728D01*
X125808727Y-84465325D01*
X125843279Y-84530307D01*
X125383543Y-84510155D01*
X125376674Y-84511211D01*
X125369868Y-84509789D01*
X124776466Y-84504088D01*
X124769758Y-84505355D01*
X124763035Y-84504185D01*
X124168658Y-84518437D01*
X124162111Y-84519903D01*
X124155464Y-84518971D01*
X123560224Y-84552928D01*
X123553857Y-84554576D01*
X123547319Y-84553874D01*
X122951328Y-84607259D01*
X122945153Y-84609073D01*
X122938735Y-84608588D01*
X122342109Y-84681130D01*
X122336134Y-84683092D01*
X122329852Y-84682813D01*
X121732701Y-84774239D01*
X121726930Y-84776334D01*
X121720795Y-84776247D01*
X121123233Y-84886289D01*
X121117675Y-84888499D01*
X121111693Y-84888590D01*
X120513838Y-85016975D01*
X120508495Y-85019284D01*
X120502675Y-85019539D01*
X119904635Y-85165993D01*
X119899500Y-85168388D01*
X119893852Y-85168794D01*
X119295741Y-85333050D01*
X119290821Y-85335515D01*
X119285344Y-85336057D01*
X118687275Y-85517839D01*
X118682564Y-85520361D01*
X118677260Y-85521027D01*
X118079347Y-85720067D01*
X118074839Y-85722634D01*
X118069711Y-85723412D01*
X117472069Y-85939439D01*
X117467762Y-85942039D01*
X117462811Y-85942916D01*
X116865550Y-86175656D01*
X116861439Y-86178279D01*
X116856658Y-86179244D01*
X116259893Y-86428427D01*
X116255971Y-86431063D01*
X116251362Y-86432106D01*
X115655204Y-86697460D01*
X115651463Y-86700104D01*
X115647020Y-86701214D01*
X115051588Y-86982468D01*
X115048025Y-86985108D01*
X115043746Y-86986277D01*
X114449145Y-87283158D01*
X114445747Y-87285792D01*
X114441627Y-87287012D01*
X113847978Y-87599251D01*
X113844743Y-87601870D01*
X113840777Y-87603133D01*
X113248187Y-87930460D01*
X113245106Y-87933061D01*
X113241289Y-87934360D01*
X112649875Y-88276498D01*
X112646939Y-88279077D01*
X112643266Y-88280407D01*
X112053142Y-88637090D01*
X112050346Y-88639643D01*
X112046812Y-88640997D01*
X111458088Y-89011953D01*
X111455426Y-89014476D01*
X111452027Y-89015849D01*
X110864815Y-89400802D01*
X110862278Y-89403295D01*
X110859005Y-89404684D01*
X110273425Y-89803366D01*
X110271008Y-89805825D01*
X110267857Y-89807226D01*
X109684016Y-90219366D01*
X109681712Y-90221792D01*
X109678679Y-90223200D01*
X109096691Y-90648526D01*
X109094494Y-90650916D01*
X109091572Y-90652330D01*
X108511555Y-91090573D01*
X108509460Y-91092926D01*
X108506648Y-91094341D01*
X107928707Y-91545225D01*
X107926708Y-91547541D01*
X107923995Y-91548958D01*
X107348251Y-92012212D01*
X107346343Y-92014492D01*
X107343728Y-92015906D01*
X106770289Y-92491264D01*
X106768467Y-92493507D01*
X106765946Y-92494917D01*
X106194928Y-92982100D01*
X106193186Y-92984307D01*
X106190752Y-92985713D01*
X105622269Y-93484456D01*
X105620604Y-93486626D01*
X105618256Y-93488025D01*
X105052417Y-93998054D01*
X105050826Y-94000188D01*
X105048556Y-94001580D01*
X104520616Y-94490107D01*
X103968727Y-93938218D01*
X103844983Y-93938218D01*
X101926956Y-95856245D01*
X101941098Y-95870387D01*
X101870387Y-95941098D01*
X101856245Y-95926956D01*
X101842103Y-95941098D01*
X101771392Y-95870387D01*
X101785534Y-95856245D01*
X100857457Y-94928167D01*
X100733713Y-94928167D01*
X99190414Y-96471466D01*
X97639627Y-94920679D01*
X97826592Y-94733713D01*
X100928167Y-94733713D01*
X100928167Y-94857457D01*
X101856245Y-95785534D01*
X103774272Y-93867507D01*
X103774272Y-93743763D01*
X103044454Y-93013945D01*
X102915814Y-92960660D01*
X102776576Y-92960661D01*
X102647936Y-93013944D01*
X100928167Y-94733713D01*
X97826592Y-94733713D01*
X99860305Y-92700000D01*
X105825743Y-92700000D01*
X105997951Y-92665746D01*
X106143941Y-92568198D01*
X106494341Y-92217798D01*
X106636659Y-92217922D01*
X106875647Y-92119174D01*
X107058655Y-91936486D01*
X107157820Y-91697670D01*
X107158045Y-91439084D01*
X107097765Y-91293197D01*
X107257443Y-91261435D01*
X107452097Y-91131371D01*
X108907030Y-89676438D01*
X108967714Y-89651364D01*
X109150722Y-89468676D01*
X109249887Y-89229860D01*
X109250112Y-88971274D01*
X109151364Y-88732286D01*
X108968676Y-88549278D01*
X108729860Y-88450113D01*
X108471274Y-88449888D01*
X108232286Y-88548636D01*
X108049278Y-88731324D01*
X107974143Y-88912269D01*
X107876354Y-89010058D01*
X107655375Y-88789079D01*
X107531631Y-88789079D01*
X107027818Y-89292893D01*
X107041960Y-89307035D01*
X106971249Y-89377746D01*
X106957107Y-89363604D01*
X106453293Y-89867417D01*
X106453293Y-89991161D01*
X106569239Y-90107107D01*
X106154669Y-90107107D01*
X105724517Y-89676955D01*
X105615547Y-89602499D01*
X105477112Y-89572468D01*
X105337900Y-89598663D01*
X105336157Y-89599819D01*
X105351797Y-89527722D01*
X105325602Y-89388510D01*
X105247310Y-89270457D01*
X104823046Y-88846193D01*
X104714076Y-88771737D01*
X104575641Y-88741706D01*
X104436429Y-88767901D01*
X104318376Y-88846193D01*
X103615076Y-89549493D01*
X103615076Y-88720355D01*
X103903807Y-88431624D01*
X103978263Y-88322654D01*
X104008294Y-88184219D01*
X103982099Y-88045007D01*
X103903807Y-87926954D01*
X103479543Y-87502690D01*
X103370573Y-87428234D01*
X103232138Y-87398203D01*
X103142713Y-87415030D01*
X103170711Y-87347437D01*
X103170710Y-87208199D01*
X103117427Y-87079559D01*
X102741161Y-86703293D01*
X102617417Y-86703293D01*
X102113604Y-87207107D01*
X102127746Y-87221249D01*
X102057035Y-87291960D01*
X102042893Y-87277818D01*
X101539079Y-87781631D01*
X101539079Y-87905375D01*
X101915345Y-88281641D01*
X102043985Y-88334924D01*
X102142638Y-88334925D01*
X102126345Y-88351218D01*
X102051889Y-88460188D01*
X102021858Y-88598623D01*
X102048053Y-88737835D01*
X102126345Y-88855888D01*
X102415076Y-89144619D01*
X102415076Y-89876361D01*
X102460748Y-90105971D01*
X102590812Y-90300625D01*
X103845821Y-91555634D01*
X104040475Y-91685698D01*
X104270085Y-91731370D01*
X105118630Y-91731370D01*
X105316101Y-91692091D01*
X105361269Y-91737259D01*
X105453094Y-91800000D01*
X100760305Y-91800000D01*
X101047919Y-91512386D01*
X101122375Y-91403416D01*
X101152406Y-91264981D01*
X101126211Y-91125769D01*
X101047919Y-91007716D01*
X99492284Y-89452081D01*
X99383314Y-89377625D01*
X99244879Y-89347594D01*
X99105667Y-89373789D01*
X98987614Y-89452081D01*
X95579322Y-92860374D01*
X94033382Y-91314434D01*
X97441674Y-87906141D01*
X97516130Y-87797171D01*
X97529127Y-87737260D01*
X97920355Y-87899713D01*
X98576765Y-87900285D01*
X99183429Y-87649617D01*
X99647986Y-87185870D01*
X99697437Y-87066777D01*
X100915075Y-87066777D01*
X100915076Y-87206015D01*
X100968359Y-87334655D01*
X101344625Y-87710921D01*
X101468369Y-87710921D01*
X101972182Y-87207107D01*
X101397658Y-86632583D01*
X101273914Y-86632583D01*
X100968360Y-86938137D01*
X100915075Y-87066777D01*
X99697437Y-87066777D01*
X99899713Y-86579645D01*
X99899836Y-86438128D01*
X101468369Y-86438128D01*
X101468369Y-86561872D01*
X102042893Y-87136396D01*
X102546707Y-86632583D01*
X102546707Y-86508839D01*
X102170441Y-86132573D01*
X102041801Y-86079290D01*
X101902563Y-86079289D01*
X101773923Y-86132574D01*
X101468369Y-86438128D01*
X99899836Y-86438128D01*
X99900285Y-85923235D01*
X99815175Y-85717252D01*
X102322468Y-85717252D01*
X102348663Y-85856464D01*
X102426955Y-85974517D01*
X103275483Y-86823045D01*
X103384453Y-86897501D01*
X103522888Y-86927532D01*
X103662100Y-86901337D01*
X103663843Y-86900181D01*
X103648203Y-86972278D01*
X103674398Y-87111490D01*
X103752690Y-87229543D01*
X104176954Y-87653807D01*
X104285924Y-87728263D01*
X104335218Y-87738956D01*
X104380061Y-87847218D01*
X104544194Y-88011351D01*
X104667938Y-88011351D01*
X105242462Y-87436827D01*
X105228320Y-87422685D01*
X105299031Y-87351974D01*
X105313173Y-87366116D01*
X105327315Y-87351974D01*
X105398026Y-87422685D01*
X105383884Y-87436827D01*
X105398026Y-87450969D01*
X105327315Y-87521680D01*
X105313173Y-87507538D01*
X104738649Y-88082062D01*
X104738649Y-88205806D01*
X104902782Y-88369939D01*
X105010275Y-88414464D01*
X105017901Y-88454993D01*
X105096193Y-88573046D01*
X105520457Y-88997310D01*
X105629427Y-89071766D01*
X105767862Y-89101797D01*
X105857287Y-89084970D01*
X105829289Y-89152563D01*
X105829290Y-89291801D01*
X105882573Y-89420441D01*
X106258839Y-89796707D01*
X106382583Y-89796707D01*
X106886396Y-89292893D01*
X106872254Y-89278751D01*
X106942965Y-89208040D01*
X106957107Y-89222182D01*
X107460921Y-88718369D01*
X107460921Y-88594625D01*
X107084655Y-88218359D01*
X106956015Y-88165076D01*
X106857362Y-88165075D01*
X106873655Y-88148782D01*
X106948111Y-88039812D01*
X106978142Y-87901377D01*
X106951947Y-87762165D01*
X106912253Y-87702312D01*
X106929898Y-87613605D01*
X106929898Y-87330744D01*
X106895644Y-87158536D01*
X106798096Y-87012546D01*
X105737454Y-85951904D01*
X105724178Y-85943033D01*
X105591464Y-85854356D01*
X105419256Y-85820102D01*
X105136395Y-85820102D01*
X105049012Y-85837483D01*
X104996918Y-85801889D01*
X104858483Y-85771858D01*
X104719271Y-85798053D01*
X104601218Y-85876345D01*
X104586958Y-85890605D01*
X104591746Y-85868534D01*
X104565551Y-85729322D01*
X104487259Y-85611269D01*
X105590041Y-84508487D01*
X106231572Y-84508487D01*
X106523434Y-85081298D01*
X106586648Y-85205361D01*
X106692526Y-85295789D01*
X106824949Y-85338816D01*
X106963759Y-85327891D01*
X107170578Y-85222512D01*
X107208817Y-85104824D01*
X106726452Y-84158130D01*
X106269811Y-84390800D01*
X106231572Y-84508487D01*
X105590041Y-84508487D01*
X105724264Y-84374264D01*
X105738900Y-84352360D01*
X105759455Y-84335878D01*
X105803500Y-84255679D01*
X105854328Y-84179610D01*
X105859468Y-84153772D01*
X105872150Y-84130679D01*
X105936018Y-83928429D01*
X106106725Y-84263460D01*
X106224412Y-84301699D01*
X106681053Y-84069029D01*
X106671973Y-84051209D01*
X106761074Y-84005810D01*
X106770154Y-84023630D01*
X106787974Y-84014550D01*
X106833373Y-84103651D01*
X106815553Y-84112731D01*
X107297918Y-85059425D01*
X107415605Y-85097664D01*
X107622425Y-84992284D01*
X107712853Y-84886407D01*
X107755880Y-84753983D01*
X107750665Y-84687723D01*
X107865699Y-84754780D01*
X108006192Y-84772886D01*
X108142661Y-84734906D01*
X108363469Y-84622398D01*
X108392534Y-84641819D01*
X108564742Y-84676073D01*
X109238434Y-84676073D01*
X108816571Y-84850383D01*
X108352014Y-85314130D01*
X108100287Y-85920355D01*
X108099715Y-86576765D01*
X108350383Y-87183429D01*
X108814130Y-87647986D01*
X109420355Y-87899713D01*
X110076765Y-87900285D01*
X110683429Y-87649617D01*
X111147986Y-87185870D01*
X111399713Y-86579645D01*
X111400285Y-85923235D01*
X111149617Y-85316571D01*
X110685870Y-84852014D01*
X110262158Y-84676073D01*
X113973927Y-84676073D01*
X114146135Y-84641819D01*
X114292125Y-84544271D01*
X115185891Y-83650505D01*
X126002123Y-83650505D01*
X126060217Y-83759765D01*
X130566803Y-85137566D01*
X130775118Y-84456199D01*
X130717024Y-84346940D01*
X130384902Y-84245400D01*
X132198965Y-84245400D01*
X132212311Y-84383997D01*
X132277679Y-84506938D01*
X132385119Y-84595505D01*
X132798357Y-84721844D01*
X132852629Y-84692987D01*
X133003246Y-84692987D01*
X133061341Y-84802246D01*
X133474578Y-84928585D01*
X133613176Y-84915240D01*
X133736116Y-84849871D01*
X133824683Y-84742432D01*
X133865392Y-84609277D01*
X134009497Y-84137933D01*
X133951403Y-84028674D01*
X133270036Y-83820359D01*
X133003246Y-84692987D01*
X132852629Y-84692987D01*
X132907616Y-84663750D01*
X133174405Y-83791122D01*
X132493038Y-83582807D01*
X132383779Y-83640901D01*
X132239674Y-84112245D01*
X132198965Y-84245400D01*
X130384902Y-84245400D01*
X126478568Y-83051114D01*
X126339970Y-83064459D01*
X126217030Y-83129828D01*
X126128463Y-83237267D01*
X126087753Y-83370422D01*
X126002123Y-83650505D01*
X115185891Y-83650505D01*
X116349925Y-82486471D01*
X116349888Y-82528726D01*
X116448636Y-82767714D01*
X116631324Y-82950722D01*
X116870140Y-83049887D01*
X117128726Y-83050112D01*
X117250006Y-83000000D01*
X117457256Y-83000000D01*
X117467549Y-83054702D01*
X117544203Y-83173825D01*
X117661163Y-83253741D01*
X117800000Y-83281856D01*
X119600000Y-83281856D01*
X119729702Y-83257451D01*
X119848825Y-83180797D01*
X119928741Y-83063837D01*
X119956856Y-82925000D01*
X119956856Y-82437500D01*
X120050000Y-82437500D01*
X120050000Y-82994620D01*
X120103285Y-83123259D01*
X120201741Y-83221716D01*
X120330381Y-83275000D01*
X121162500Y-83275000D01*
X121250000Y-83187500D01*
X121250000Y-82350000D01*
X121350000Y-82350000D01*
X121350000Y-83187500D01*
X121437500Y-83275000D01*
X122269619Y-83275000D01*
X122398259Y-83221716D01*
X122496715Y-83123259D01*
X122550000Y-82994620D01*
X122550000Y-82437500D01*
X122462500Y-82350000D01*
X121350000Y-82350000D01*
X121250000Y-82350000D01*
X120137500Y-82350000D01*
X120050000Y-82437500D01*
X119956856Y-82437500D01*
X119956856Y-81954540D01*
X120050000Y-81861396D01*
X120050000Y-82162500D01*
X120137500Y-82250000D01*
X121250000Y-82250000D01*
X121250000Y-82230000D01*
X121350000Y-82230000D01*
X121350000Y-82250000D01*
X122462500Y-82250000D01*
X122550000Y-82162500D01*
X122550000Y-81773222D01*
X123078250Y-81773222D01*
X123150607Y-81758830D01*
X123179467Y-81787690D01*
X123288437Y-81862146D01*
X123364644Y-81878678D01*
X123364644Y-81887818D01*
X123417929Y-82016457D01*
X123652773Y-82251301D01*
X123776516Y-82251301D01*
X124103553Y-81924264D01*
X124089411Y-81910122D01*
X124160122Y-81839411D01*
X124174264Y-81853553D01*
X124188406Y-81839411D01*
X124259117Y-81910122D01*
X124244975Y-81924264D01*
X124259117Y-81938406D01*
X124188406Y-82009117D01*
X124174264Y-81994975D01*
X123847227Y-82322012D01*
X123847227Y-82445755D01*
X123985761Y-82584289D01*
X123950113Y-82670140D01*
X123949888Y-82928726D01*
X124048636Y-83167714D01*
X124231324Y-83350722D01*
X124470140Y-83449887D01*
X124728726Y-83450112D01*
X124967714Y-83351364D01*
X125150722Y-83168676D01*
X125249887Y-82929860D01*
X125250037Y-82757679D01*
X125735688Y-82272028D01*
X125785754Y-82262607D01*
X125903807Y-82184315D01*
X126434134Y-81653988D01*
X126434137Y-81653986D01*
X126500000Y-81588123D01*
X126565863Y-81653986D01*
X126565866Y-81653988D01*
X127096193Y-82184315D01*
X127205163Y-82258771D01*
X127263768Y-82271484D01*
X127740446Y-82748162D01*
X127886437Y-82845711D01*
X128058644Y-82879964D01*
X128217345Y-82879964D01*
X128196283Y-82948856D01*
X128181700Y-83080026D01*
X128220176Y-83216356D01*
X128308661Y-83326975D01*
X128433211Y-83394454D01*
X129389516Y-83686826D01*
X129520686Y-83701409D01*
X129657016Y-83662933D01*
X129767635Y-83574448D01*
X129835114Y-83449898D01*
X130244435Y-82111072D01*
X130259018Y-81979902D01*
X130222356Y-81850000D01*
X132486218Y-81850000D01*
X133322293Y-82686075D01*
X132999100Y-82587265D01*
X132860502Y-82600610D01*
X132737562Y-82665979D01*
X132648995Y-82773418D01*
X132608286Y-82906573D01*
X132464181Y-83377917D01*
X132522275Y-83487176D01*
X133203642Y-83695491D01*
X133209490Y-83676364D01*
X133305120Y-83705602D01*
X133299273Y-83724728D01*
X133980640Y-83933043D01*
X134089899Y-83874949D01*
X134188537Y-83552319D01*
X135467677Y-84831459D01*
X135311611Y-84987525D01*
X135237155Y-85096495D01*
X135207124Y-85234930D01*
X135233319Y-85374142D01*
X135311611Y-85492195D01*
X136513693Y-86694277D01*
X136622663Y-86768733D01*
X136761098Y-86798764D01*
X136900310Y-86772569D01*
X137018363Y-86694277D01*
X137442627Y-86270013D01*
X137517083Y-86161043D01*
X137547114Y-86022608D01*
X137521816Y-85888161D01*
X137644981Y-85914880D01*
X137784193Y-85888685D01*
X137902246Y-85810393D01*
X138326510Y-85386129D01*
X138400966Y-85277159D01*
X138430997Y-85138724D01*
X138405699Y-85004279D01*
X138490700Y-85022718D01*
X138587025Y-85087081D01*
X138816636Y-85132753D01*
X139311629Y-85132753D01*
X139541239Y-85087081D01*
X139735893Y-84957017D01*
X140924264Y-83768646D01*
X141054328Y-83573993D01*
X141059674Y-83547118D01*
X141077094Y-83505165D01*
X141848357Y-84276428D01*
X141972101Y-84276428D01*
X142475914Y-83772614D01*
X141371060Y-82667760D01*
X141247316Y-82667760D01*
X141060552Y-82854524D01*
X141051364Y-82832286D01*
X140868676Y-82649278D01*
X140629860Y-82550113D01*
X140371274Y-82549888D01*
X140132286Y-82648636D01*
X139949278Y-82831324D01*
X139906129Y-82935240D01*
X139585616Y-82614727D01*
X139461872Y-82614727D01*
X139099480Y-82977119D01*
X139113622Y-82991261D01*
X139042911Y-83061972D01*
X139028769Y-83047830D01*
X139014627Y-83061972D01*
X138943916Y-82991261D01*
X138958058Y-82977119D01*
X138206757Y-82225818D01*
X138083014Y-82225818D01*
X137918881Y-82389951D01*
X137865596Y-82518591D01*
X137865597Y-82657829D01*
X137891032Y-82719235D01*
X137760906Y-82691007D01*
X137621694Y-82717202D01*
X137503641Y-82795494D01*
X137079377Y-83219758D01*
X137004921Y-83328728D01*
X136974890Y-83467163D01*
X137000188Y-83601608D01*
X136877023Y-83574890D01*
X136751098Y-83598585D01*
X135183877Y-82031364D01*
X138277468Y-82031364D01*
X138277468Y-82155107D01*
X139028769Y-82906408D01*
X139391161Y-82544016D01*
X139391161Y-82473305D01*
X141441771Y-82473305D01*
X141441771Y-82597049D01*
X142546625Y-83701903D01*
X143050439Y-83198090D01*
X143050439Y-83074346D01*
X142143843Y-82167750D01*
X142015203Y-82114467D01*
X141875965Y-82114466D01*
X141747325Y-82167751D01*
X141441771Y-82473305D01*
X139391161Y-82473305D01*
X139391161Y-82420272D01*
X138838119Y-81867230D01*
X138709479Y-81813947D01*
X138570241Y-81813946D01*
X138441601Y-81867231D01*
X138277468Y-82031364D01*
X135183877Y-82031364D01*
X134102502Y-80949989D01*
X138027397Y-80949989D01*
X138199605Y-80915735D01*
X138208756Y-80909620D01*
X138387525Y-81088389D01*
X138496495Y-81162845D01*
X138634930Y-81192876D01*
X138774142Y-81166681D01*
X138892195Y-81088389D01*
X139577633Y-80402951D01*
X141441771Y-80402951D01*
X141441771Y-80526695D01*
X141747325Y-80832249D01*
X141875965Y-80885534D01*
X142015203Y-80885533D01*
X142143843Y-80832250D01*
X143050439Y-79925654D01*
X143050439Y-79801910D01*
X142546625Y-79298097D01*
X141441771Y-80402951D01*
X139577633Y-80402951D01*
X140030681Y-79949903D01*
X140131324Y-80050722D01*
X140370140Y-80149887D01*
X140628726Y-80150112D01*
X140867714Y-80051364D01*
X140927332Y-79991850D01*
X140941762Y-80026686D01*
X141247316Y-80332240D01*
X141371060Y-80332240D01*
X142475914Y-79227386D01*
X141972101Y-78723572D01*
X141848357Y-78723572D01*
X141150068Y-79421861D01*
X141150112Y-79371274D01*
X141051364Y-79132286D01*
X140868676Y-78949278D01*
X140747482Y-78898954D01*
X137532312Y-75683784D01*
X137337658Y-75553720D01*
X137108048Y-75508048D01*
X136649579Y-75508048D01*
X136769832Y-75458239D01*
X137676428Y-74551643D01*
X137676428Y-74427899D01*
X137172614Y-73924086D01*
X136067760Y-75028940D01*
X136067760Y-75152684D01*
X136373314Y-75458238D01*
X136493565Y-75508048D01*
X135269383Y-75508048D01*
X135129860Y-75450113D01*
X134871274Y-75449888D01*
X134632286Y-75548636D01*
X134449278Y-75731324D01*
X134350113Y-75970140D01*
X134349888Y-76228726D01*
X134448636Y-76467714D01*
X134631324Y-76650722D01*
X134870140Y-76749887D01*
X135128726Y-76750112D01*
X135230528Y-76708048D01*
X136121063Y-76708048D01*
X136014727Y-76814384D01*
X136014727Y-76938128D01*
X136377119Y-77300520D01*
X136391261Y-77286378D01*
X136461972Y-77357089D01*
X136447830Y-77371231D01*
X136461972Y-77385373D01*
X136391261Y-77456084D01*
X136377119Y-77441942D01*
X135625818Y-78193243D01*
X135625818Y-78316986D01*
X135789951Y-78481119D01*
X135918591Y-78534404D01*
X136057829Y-78534403D01*
X136119235Y-78508968D01*
X136091007Y-78639094D01*
X136117202Y-78778306D01*
X136195494Y-78896359D01*
X136619758Y-79320623D01*
X136728728Y-79395079D01*
X136867163Y-79425110D01*
X137001608Y-79399812D01*
X136974890Y-79522977D01*
X136998585Y-79648902D01*
X136997509Y-79649978D01*
X132042120Y-79649978D01*
X132668198Y-79023900D01*
X132685551Y-78997929D01*
X132765746Y-78877910D01*
X132779879Y-78806856D01*
X133000000Y-78806856D01*
X133129702Y-78782451D01*
X133248825Y-78705797D01*
X133328741Y-78588837D01*
X133356856Y-78450000D01*
X133356856Y-77829759D01*
X135213946Y-77829759D01*
X135267231Y-77958399D01*
X135431364Y-78122532D01*
X135555107Y-78122532D01*
X136306408Y-77371231D01*
X135944016Y-77008839D01*
X135820272Y-77008839D01*
X135267230Y-77561881D01*
X135213947Y-77690521D01*
X135213946Y-77829759D01*
X133356856Y-77829759D01*
X133356856Y-77650000D01*
X133332451Y-77520298D01*
X133255797Y-77401175D01*
X133253197Y-77399398D01*
X133328741Y-77288837D01*
X133356856Y-77150000D01*
X133356856Y-76350000D01*
X133332451Y-76220298D01*
X133255797Y-76101175D01*
X133138837Y-76021259D01*
X133119128Y-76017268D01*
X133418198Y-75718198D01*
X133441193Y-75683784D01*
X133515746Y-75572208D01*
X133550000Y-75400000D01*
X133550000Y-74600000D01*
X133534890Y-74524035D01*
X135514466Y-74524035D01*
X135567751Y-74652675D01*
X135873305Y-74958229D01*
X135997049Y-74958229D01*
X137101903Y-73853375D01*
X136598090Y-73349561D01*
X136474346Y-73349561D01*
X135567750Y-74256157D01*
X135514467Y-74384797D01*
X135514466Y-74524035D01*
X133534890Y-74524035D01*
X133515746Y-74427792D01*
X133418198Y-74281802D01*
X133300002Y-74163606D01*
X133300002Y-74162502D01*
X133387500Y-74250000D01*
X133469619Y-74250000D01*
X133598259Y-74196716D01*
X133696715Y-74098259D01*
X133750000Y-73969620D01*
X133750000Y-73637500D01*
X133662500Y-73550000D01*
X133300000Y-73550000D01*
X133300000Y-73570000D01*
X133200000Y-73570000D01*
X133200000Y-73550000D01*
X133180000Y-73550000D01*
X133180000Y-73450000D01*
X133200000Y-73450000D01*
X133200000Y-72837500D01*
X133300000Y-72837500D01*
X133300000Y-73450000D01*
X133662500Y-73450000D01*
X133750000Y-73362500D01*
X133750000Y-73030380D01*
X133696715Y-72901741D01*
X133598259Y-72803284D01*
X133469619Y-72750000D01*
X133387500Y-72750000D01*
X133300000Y-72837500D01*
X133200000Y-72837500D01*
X133112500Y-72750000D01*
X133030381Y-72750000D01*
X132922888Y-72794525D01*
X132888837Y-72771259D01*
X132750000Y-72743144D01*
X132450000Y-72743144D01*
X132320298Y-72767549D01*
X132275550Y-72796344D01*
X132238837Y-72771259D01*
X132100000Y-72743144D01*
X131800000Y-72743144D01*
X131670298Y-72767549D01*
X131551175Y-72844203D01*
X131471259Y-72961163D01*
X131443144Y-73100000D01*
X131443144Y-73900000D01*
X131467549Y-74029702D01*
X131529379Y-74125787D01*
X131405588Y-74074385D01*
X131147002Y-74074160D01*
X130908014Y-74172908D01*
X130725006Y-74355596D01*
X130628698Y-74587532D01*
X130580600Y-74471411D01*
X130482143Y-74372955D01*
X130451821Y-74342633D01*
X130328078Y-74342633D01*
X129894975Y-74775736D01*
X130524264Y-75405025D01*
X130538406Y-75390883D01*
X130609117Y-75461594D01*
X130594975Y-75475736D01*
X130609117Y-75489878D01*
X130538406Y-75560589D01*
X130524264Y-75546447D01*
X130510122Y-75560589D01*
X130439411Y-75489878D01*
X130453553Y-75475736D01*
X129824264Y-74846447D01*
X129810122Y-74860589D01*
X129739411Y-74789878D01*
X129753553Y-74775736D01*
X129426516Y-74448699D01*
X129302773Y-74448699D01*
X129067929Y-74683543D01*
X129014644Y-74812182D01*
X129014644Y-74821388D01*
X128947520Y-74834018D01*
X128829467Y-74912310D01*
X128573949Y-75167828D01*
X128501295Y-75153376D01*
X127525304Y-75153376D01*
X127353096Y-75187630D01*
X127303856Y-75220531D01*
X127214246Y-75237393D01*
X127096193Y-75315685D01*
X126565866Y-75846012D01*
X126565863Y-75846014D01*
X126500000Y-75911877D01*
X126434137Y-75846014D01*
X126434134Y-75846012D01*
X125903807Y-75315685D01*
X125794837Y-75241229D01*
X125656402Y-75211198D01*
X125517190Y-75237393D01*
X125399137Y-75315685D01*
X125187005Y-75527817D01*
X125127492Y-75614917D01*
X125045584Y-75669238D01*
X124839947Y-75874875D01*
X124767589Y-75860482D01*
X119988046Y-75860482D01*
X121166347Y-74682181D01*
X121184254Y-74772208D01*
X121267290Y-74896479D01*
X121281802Y-74918198D01*
X121681802Y-75318198D01*
X121827792Y-75415746D01*
X121846819Y-75419531D01*
X121867549Y-75529702D01*
X121944203Y-75648825D01*
X122061163Y-75728741D01*
X122200000Y-75756856D01*
X122500000Y-75756856D01*
X122629702Y-75732451D01*
X122674450Y-75703656D01*
X122711163Y-75728741D01*
X122850000Y-75756856D01*
X123150000Y-75756856D01*
X123279702Y-75732451D01*
X123322119Y-75705157D01*
X123430381Y-75750000D01*
X123512500Y-75750000D01*
X123600000Y-75662500D01*
X123600000Y-75050000D01*
X123700000Y-75050000D01*
X123700000Y-75662500D01*
X123787500Y-75750000D01*
X123869619Y-75750000D01*
X123998259Y-75696716D01*
X124096715Y-75598259D01*
X124150000Y-75469620D01*
X124150000Y-75137500D01*
X124062500Y-75050000D01*
X123700000Y-75050000D01*
X123600000Y-75050000D01*
X123580000Y-75050000D01*
X123580000Y-74950000D01*
X123600000Y-74950000D01*
X123600000Y-74930000D01*
X123700000Y-74930000D01*
X123700000Y-74950000D01*
X124062500Y-74950000D01*
X124150000Y-74862500D01*
X124150000Y-74750000D01*
X127230778Y-74750000D01*
X127331324Y-74850722D01*
X127570140Y-74949887D01*
X127828726Y-74950112D01*
X128067714Y-74851364D01*
X128250722Y-74668676D01*
X128349887Y-74429860D01*
X128349957Y-74349956D01*
X128528726Y-74350112D01*
X128760741Y-74254245D01*
X129497227Y-74254245D01*
X129497227Y-74377988D01*
X129824264Y-74705025D01*
X130257367Y-74271922D01*
X130257367Y-74148179D01*
X130227045Y-74117857D01*
X130128589Y-74019400D01*
X129999949Y-73966117D01*
X129860710Y-73966116D01*
X129732071Y-74019401D01*
X129497227Y-74254245D01*
X128760741Y-74254245D01*
X128767714Y-74251364D01*
X128950722Y-74068676D01*
X129049887Y-73829860D01*
X129050112Y-73571274D01*
X128951364Y-73332286D01*
X128768676Y-73149278D01*
X128529860Y-73050113D01*
X128271274Y-73049888D01*
X128032286Y-73148636D01*
X127930744Y-73250000D01*
X124156856Y-73250000D01*
X124156856Y-72600000D01*
X124132451Y-72470298D01*
X124100000Y-72419868D01*
X124100000Y-72300000D01*
X124065746Y-72127792D01*
X123968198Y-71981802D01*
X123443252Y-71456856D01*
X124050000Y-71456856D01*
X124131074Y-71447525D01*
X124259893Y-71388602D01*
X124809893Y-70988602D01*
X124823225Y-70972270D01*
X124848825Y-70955797D01*
X124911231Y-70864463D01*
X124924780Y-70847866D01*
X124925911Y-70842979D01*
X124928741Y-70838837D01*
X124941838Y-70774160D01*
X124956720Y-70709859D01*
X124955860Y-70704916D01*
X124956856Y-70700000D01*
X124956856Y-70572742D01*
X125450691Y-71067439D01*
X126130398Y-71349679D01*
X126866373Y-71350321D01*
X127546572Y-71069268D01*
X128043144Y-70573562D01*
X128043144Y-70700000D01*
X128048155Y-70726629D01*
X128046776Y-70750781D01*
X128059314Y-70785935D01*
X128067549Y-70829702D01*
X128084093Y-70855412D01*
X128094362Y-70884205D01*
X128122043Y-70914387D01*
X128144203Y-70948825D01*
X128169443Y-70966071D01*
X128190107Y-70988602D01*
X128740107Y-71388602D01*
X128811163Y-71428741D01*
X128950000Y-71456856D01*
X130000000Y-71456856D01*
X130093144Y-71439330D01*
X130093144Y-71900000D01*
X130117549Y-72029702D01*
X130194203Y-72148825D01*
X130311163Y-72228741D01*
X130450000Y-72256856D01*
X130950000Y-72256856D01*
X131079702Y-72232451D01*
X131198825Y-72155797D01*
X131278741Y-72038837D01*
X131306856Y-71900000D01*
X131306856Y-71529540D01*
X131443144Y-71393252D01*
X131443144Y-71900000D01*
X131467549Y-72029702D01*
X131544203Y-72148825D01*
X131661163Y-72228741D01*
X131800000Y-72256856D01*
X132100000Y-72256856D01*
X132229702Y-72232451D01*
X132274450Y-72203656D01*
X132311163Y-72228741D01*
X132450000Y-72256856D01*
X132750000Y-72256856D01*
X132879702Y-72232451D01*
X132924450Y-72203656D01*
X132961163Y-72228741D01*
X133100000Y-72256856D01*
X133400000Y-72256856D01*
X133529702Y-72232451D01*
X133648825Y-72155797D01*
X133728741Y-72038837D01*
X133756856Y-71900000D01*
X133756856Y-71100000D01*
X133732451Y-70970298D01*
X133700000Y-70919868D01*
X133700000Y-70900000D01*
X133665746Y-70727792D01*
X133568198Y-70581802D01*
X133468197Y-70481801D01*
X133453839Y-70472207D01*
X133322207Y-70384253D01*
X133149999Y-70349999D01*
X131400001Y-70349999D01*
X131306856Y-70368527D01*
X131306856Y-69900000D01*
X131282451Y-69770298D01*
X131205797Y-69651175D01*
X131088837Y-69571259D01*
X130950000Y-69543144D01*
X130450000Y-69543144D01*
X130320298Y-69567549D01*
X130224050Y-69629483D01*
X130138837Y-69571259D01*
X130000000Y-69543144D01*
X128400000Y-69543144D01*
X128349956Y-69552560D01*
X128350048Y-69446741D01*
X128400000Y-69456856D01*
X130000000Y-69456856D01*
X130129702Y-69432451D01*
X130248825Y-69355797D01*
X130328741Y-69238837D01*
X130356856Y-69100000D01*
X131549999Y-69100000D01*
X131670140Y-69149887D01*
X131928726Y-69150112D01*
X132167714Y-69051364D01*
X132350722Y-68868676D01*
X132449887Y-68629860D01*
X132450112Y-68371274D01*
X132351364Y-68132286D01*
X132168676Y-67949278D01*
X131929860Y-67850113D01*
X131671274Y-67849888D01*
X131549994Y-67900000D01*
X130356856Y-67900000D01*
X130332451Y-67770298D01*
X130255797Y-67651175D01*
X130138837Y-67571259D01*
X130000000Y-67543144D01*
X129491672Y-67543144D01*
X128824264Y-66875736D01*
X128629610Y-66745672D01*
X128400000Y-66700000D01*
X122789998Y-66700000D01*
X122560388Y-66745672D01*
X122365734Y-66875736D01*
X122125735Y-67115735D01*
X121995671Y-67310389D01*
X121949999Y-67539999D01*
X121949999Y-67701473D01*
X120475735Y-69175737D01*
X120345671Y-69370391D01*
X120299999Y-69600001D01*
X120300000Y-73851472D01*
X113930924Y-80220548D01*
X113630223Y-79630389D01*
X113549594Y-79525903D01*
X113427214Y-79454563D01*
X113286721Y-79436457D01*
X113162280Y-79471090D01*
X112443683Y-79151713D01*
X112415148Y-79145276D01*
X112389736Y-79130790D01*
X112301789Y-79119703D01*
X112215314Y-79100195D01*
X112186488Y-79105168D01*
X112157466Y-79101509D01*
X112071965Y-79124924D01*
X111984613Y-79139993D01*
X111959885Y-79155618D01*
X111931672Y-79163344D01*
X105331672Y-82463344D01*
X105327843Y-82466315D01*
X105323188Y-82467670D01*
X105235477Y-82538001D01*
X105146728Y-82606879D01*
X105144329Y-82611088D01*
X105140545Y-82614122D01*
X105086428Y-82712661D01*
X105030790Y-82810263D01*
X105030184Y-82815071D01*
X105027850Y-82819321D01*
X104976601Y-82981610D01*
X104468224Y-81983864D01*
X104350537Y-81945626D01*
X103715695Y-82269094D01*
X104425055Y-83661291D01*
X104542742Y-83699530D01*
X104789611Y-83573744D01*
X104772019Y-83629453D01*
X103638731Y-84762741D01*
X103529761Y-84688285D01*
X103391326Y-84658254D01*
X103252114Y-84684449D01*
X103134061Y-84762741D01*
X102426955Y-85469847D01*
X102352499Y-85578817D01*
X102322468Y-85717252D01*
X99815175Y-85717252D01*
X99649617Y-85316571D01*
X99185870Y-84852014D01*
X98579645Y-84600287D01*
X97926639Y-84599718D01*
X98077381Y-84483240D01*
X98600720Y-84092384D01*
X99121404Y-83716348D01*
X99639567Y-83354292D01*
X100155212Y-83005458D01*
X100536316Y-82755648D01*
X102953513Y-82755648D01*
X103472370Y-83773963D01*
X103535583Y-83898026D01*
X103641462Y-83988453D01*
X103773885Y-84031481D01*
X103912695Y-84020556D01*
X104297715Y-83824378D01*
X104335954Y-83706691D01*
X103626594Y-82314493D01*
X102991752Y-82637961D01*
X102953513Y-82755648D01*
X100536316Y-82755648D01*
X100668384Y-82669079D01*
X101178917Y-82344513D01*
X101687056Y-82030868D01*
X102192580Y-81727533D01*
X102375284Y-81620809D01*
X102828666Y-82510622D01*
X102946353Y-82548860D01*
X103581195Y-82225392D01*
X103572115Y-82207572D01*
X103661216Y-82162173D01*
X103670296Y-82179993D01*
X104305138Y-81856525D01*
X104343377Y-81738838D01*
X103856453Y-80783194D01*
X104189783Y-80601713D01*
X104682837Y-80338442D01*
X105173473Y-80080916D01*
X105661408Y-79828537D01*
X106147125Y-79580315D01*
X106629811Y-79335915D01*
X107110772Y-79093927D01*
X107110773Y-79093926D01*
X107588524Y-78854351D01*
X108063730Y-78616099D01*
X108063921Y-78615950D01*
X108064157Y-78615885D01*
X108536379Y-78378423D01*
X108536778Y-78378112D01*
X108537265Y-78377976D01*
X109006454Y-78140579D01*
X109007063Y-78140102D01*
X109007807Y-78139891D01*
X109473940Y-77901814D01*
X109474756Y-77901169D01*
X109475758Y-77900880D01*
X109938814Y-77661383D01*
X109939841Y-77660563D01*
X109941100Y-77660191D01*
X110050227Y-77602855D01*
X113066436Y-77602855D01*
X113585293Y-78621170D01*
X113648506Y-78745233D01*
X113754385Y-78835660D01*
X113886808Y-78878688D01*
X114025618Y-78867763D01*
X114410638Y-78671585D01*
X114448877Y-78553898D01*
X113739517Y-77161700D01*
X113104675Y-77485168D01*
X113066436Y-77602855D01*
X110050227Y-77602855D01*
X110401057Y-77418527D01*
X110402287Y-77417532D01*
X110403800Y-77417072D01*
X110860636Y-77172504D01*
X110862065Y-77171329D01*
X110863834Y-77170774D01*
X111317532Y-76922553D01*
X111319154Y-76921195D01*
X111321170Y-76920539D01*
X111771706Y-76667928D01*
X111773517Y-76666380D01*
X111775771Y-76665617D01*
X112223122Y-76407872D01*
X112225107Y-76406135D01*
X112227596Y-76405256D01*
X112403140Y-76301062D01*
X112422732Y-76339514D01*
X112941589Y-77357829D01*
X113059276Y-77396067D01*
X113608347Y-77116301D01*
X113828618Y-77116301D01*
X114537978Y-78508498D01*
X114655665Y-78546737D01*
X115040686Y-78350559D01*
X115131115Y-78244682D01*
X115174141Y-78112258D01*
X115163218Y-77973449D01*
X115100004Y-77849386D01*
X114581147Y-76831071D01*
X114463460Y-76792833D01*
X113828618Y-77116301D01*
X113608347Y-77116301D01*
X113694118Y-77072599D01*
X113685038Y-77054779D01*
X113774139Y-77009380D01*
X113783219Y-77027200D01*
X114418061Y-76703732D01*
X114456300Y-76586045D01*
X113937443Y-75567730D01*
X113874230Y-75443667D01*
X113832957Y-75408417D01*
X114000388Y-75298298D01*
X114002943Y-75295780D01*
X114006243Y-75294373D01*
X114437360Y-74999815D01*
X114440016Y-74997103D01*
X114443479Y-74995550D01*
X114871288Y-74691399D01*
X114874025Y-74688499D01*
X114877630Y-74686796D01*
X115302106Y-74372316D01*
X115304906Y-74369230D01*
X115308635Y-74367374D01*
X115729759Y-74041817D01*
X115732600Y-74038554D01*
X115736431Y-74036545D01*
X116154179Y-73699171D01*
X116157039Y-73695741D01*
X116160949Y-73693580D01*
X116575304Y-73343644D01*
X116578165Y-73340056D01*
X116582132Y-73337745D01*
X116993067Y-72974505D01*
X116995907Y-72970774D01*
X116999904Y-72968320D01*
X117407404Y-72591034D01*
X117410204Y-72587173D01*
X117414213Y-72584581D01*
X117818254Y-72192507D01*
X117821000Y-72188529D01*
X117824991Y-72185811D01*
X118225552Y-71778206D01*
X118228222Y-71774134D01*
X118232181Y-71771297D01*
X118629240Y-71347419D01*
X118631823Y-71343267D01*
X118635729Y-71340323D01*
X119029265Y-70899427D01*
X119031747Y-70895213D01*
X119035579Y-70892179D01*
X119425574Y-70433525D01*
X119427945Y-70429269D01*
X119431692Y-70426153D01*
X119818118Y-69948998D01*
X119820369Y-69944720D01*
X119824014Y-69941539D01*
X120206854Y-69445138D01*
X120208980Y-69440854D01*
X120212508Y-69437626D01*
X120591744Y-68921241D01*
X120593741Y-68916966D01*
X120597148Y-68913701D01*
X120972752Y-68376584D01*
X120974618Y-68372337D01*
X120977891Y-68369053D01*
X121349847Y-67810464D01*
X121351581Y-67806259D01*
X121354717Y-67802969D01*
X121723000Y-67222167D01*
X121724602Y-67218021D01*
X121727601Y-67214734D01*
X122086722Y-66620030D01*
X122440555Y-66098455D01*
X122856605Y-65625533D01*
X123339565Y-65198123D01*
X123885692Y-64825302D01*
X124491449Y-64515949D01*
X125153591Y-64278844D01*
X125869212Y-64122867D01*
X126637521Y-64056989D01*
X127365674Y-64080982D01*
X127365674Y-64080982D01*
G37*
X127365674Y-64080982D02*
X128024099Y-64177146D01*
X128613394Y-64331427D01*
X129135462Y-64530214D01*
X129591729Y-64760060D01*
X129983102Y-65007452D01*
X130310087Y-65258637D01*
X130578831Y-65504902D01*
X137448698Y-72375209D01*
X136668800Y-73155107D01*
X136668800Y-73278851D01*
X137172614Y-73782664D01*
X137186756Y-73768522D01*
X137257467Y-73839233D01*
X137243325Y-73853375D01*
X137747138Y-74357189D01*
X137870882Y-74357189D01*
X138650742Y-73577329D01*
X142822537Y-77749392D01*
X142042811Y-78529118D01*
X142042811Y-78652862D01*
X142546625Y-79156675D01*
X142560767Y-79142533D01*
X142631478Y-79213244D01*
X142617336Y-79227386D01*
X143121149Y-79731200D01*
X143244893Y-79731200D01*
X143797583Y-79178510D01*
X143797729Y-83821636D01*
X143244893Y-83268800D01*
X143121149Y-83268800D01*
X142617336Y-83772614D01*
X142631478Y-83786756D01*
X142560767Y-83857467D01*
X142546625Y-83843325D01*
X142042811Y-84347138D01*
X142042811Y-84470882D01*
X142795873Y-85223944D01*
X138622614Y-89394543D01*
X137870882Y-88642811D01*
X137747138Y-88642811D01*
X137243325Y-89146625D01*
X137257467Y-89160767D01*
X137186756Y-89231478D01*
X137172614Y-89217336D01*
X137158472Y-89231478D01*
X137087761Y-89160767D01*
X137101903Y-89146625D01*
X135997049Y-88041771D01*
X135873305Y-88041771D01*
X135707759Y-88207317D01*
X135432689Y-88003858D01*
X135426798Y-88001081D01*
X135422269Y-87996407D01*
X135206585Y-87847316D01*
X136067760Y-87847316D01*
X136067760Y-87971060D01*
X137172614Y-89075914D01*
X137676428Y-88572101D01*
X137676428Y-88448357D01*
X136769832Y-87541761D01*
X136641192Y-87488478D01*
X136501954Y-87488477D01*
X136373314Y-87541762D01*
X136067760Y-87847316D01*
X135206585Y-87847316D01*
X134862780Y-87609663D01*
X134856680Y-87607023D01*
X134851900Y-87602402D01*
X134289509Y-87240243D01*
X134283206Y-87237756D01*
X134278179Y-87233211D01*
X134210240Y-87192599D01*
X134721432Y-87348886D01*
X134860030Y-87335541D01*
X134982970Y-87270172D01*
X135071537Y-87162733D01*
X135112247Y-87029578D01*
X135197877Y-86749495D01*
X135139783Y-86640235D01*
X130633197Y-85262434D01*
X130627349Y-85281561D01*
X130531719Y-85252323D01*
X130537566Y-85233197D01*
X130320402Y-85166803D01*
X130662434Y-85166803D01*
X135169020Y-86544605D01*
X135278279Y-86486511D01*
X135363909Y-86206427D01*
X135404619Y-86073272D01*
X135391273Y-85934675D01*
X135325905Y-85811735D01*
X135218464Y-85723168D01*
X130980008Y-84427342D01*
X130870749Y-84485436D01*
X130662434Y-85166803D01*
X130320402Y-85166803D01*
X126030980Y-83855395D01*
X125921721Y-83913489D01*
X125836091Y-84193573D01*
X125795381Y-84326728D01*
X125808727Y-84465325D01*
X125843279Y-84530307D01*
X125383543Y-84510155D01*
X125376674Y-84511211D01*
X125369868Y-84509789D01*
X124776466Y-84504088D01*
X124769758Y-84505355D01*
X124763035Y-84504185D01*
X124168658Y-84518437D01*
X124162111Y-84519903D01*
X124155464Y-84518971D01*
X123560224Y-84552928D01*
X123553857Y-84554576D01*
X123547319Y-84553874D01*
X122951328Y-84607259D01*
X122945153Y-84609073D01*
X122938735Y-84608588D01*
X122342109Y-84681130D01*
X122336134Y-84683092D01*
X122329852Y-84682813D01*
X121732701Y-84774239D01*
X121726930Y-84776334D01*
X121720795Y-84776247D01*
X121123233Y-84886289D01*
X121117675Y-84888499D01*
X121111693Y-84888590D01*
X120513838Y-85016975D01*
X120508495Y-85019284D01*
X120502675Y-85019539D01*
X119904635Y-85165993D01*
X119899500Y-85168388D01*
X119893852Y-85168794D01*
X119295741Y-85333050D01*
X119290821Y-85335515D01*
X119285344Y-85336057D01*
X118687275Y-85517839D01*
X118682564Y-85520361D01*
X118677260Y-85521027D01*
X118079347Y-85720067D01*
X118074839Y-85722634D01*
X118069711Y-85723412D01*
X117472069Y-85939439D01*
X117467762Y-85942039D01*
X117462811Y-85942916D01*
X116865550Y-86175656D01*
X116861439Y-86178279D01*
X116856658Y-86179244D01*
X116259893Y-86428427D01*
X116255971Y-86431063D01*
X116251362Y-86432106D01*
X115655204Y-86697460D01*
X115651463Y-86700104D01*
X115647020Y-86701214D01*
X115051588Y-86982468D01*
X115048025Y-86985108D01*
X115043746Y-86986277D01*
X114449145Y-87283158D01*
X114445747Y-87285792D01*
X114441627Y-87287012D01*
X113847978Y-87599251D01*
X113844743Y-87601870D01*
X113840777Y-87603133D01*
X113248187Y-87930460D01*
X113245106Y-87933061D01*
X113241289Y-87934360D01*
X112649875Y-88276498D01*
X112646939Y-88279077D01*
X112643266Y-88280407D01*
X112053142Y-88637090D01*
X112050346Y-88639643D01*
X112046812Y-88640997D01*
X111458088Y-89011953D01*
X111455426Y-89014476D01*
X111452027Y-89015849D01*
X110864815Y-89400802D01*
X110862278Y-89403295D01*
X110859005Y-89404684D01*
X110273425Y-89803366D01*
X110271008Y-89805825D01*
X110267857Y-89807226D01*
X109684016Y-90219366D01*
X109681712Y-90221792D01*
X109678679Y-90223200D01*
X109096691Y-90648526D01*
X109094494Y-90650916D01*
X109091572Y-90652330D01*
X108511555Y-91090573D01*
X108509460Y-91092926D01*
X108506648Y-91094341D01*
X107928707Y-91545225D01*
X107926708Y-91547541D01*
X107923995Y-91548958D01*
X107348251Y-92012212D01*
X107346343Y-92014492D01*
X107343728Y-92015906D01*
X106770289Y-92491264D01*
X106768467Y-92493507D01*
X106765946Y-92494917D01*
X106194928Y-92982100D01*
X106193186Y-92984307D01*
X106190752Y-92985713D01*
X105622269Y-93484456D01*
X105620604Y-93486626D01*
X105618256Y-93488025D01*
X105052417Y-93998054D01*
X105050826Y-94000188D01*
X105048556Y-94001580D01*
X104520616Y-94490107D01*
X103968727Y-93938218D01*
X103844983Y-93938218D01*
X101926956Y-95856245D01*
X101941098Y-95870387D01*
X101870387Y-95941098D01*
X101856245Y-95926956D01*
X101842103Y-95941098D01*
X101771392Y-95870387D01*
X101785534Y-95856245D01*
X100857457Y-94928167D01*
X100733713Y-94928167D01*
X99190414Y-96471466D01*
X97639627Y-94920679D01*
X97826592Y-94733713D01*
X100928167Y-94733713D01*
X100928167Y-94857457D01*
X101856245Y-95785534D01*
X103774272Y-93867507D01*
X103774272Y-93743763D01*
X103044454Y-93013945D01*
X102915814Y-92960660D01*
X102776576Y-92960661D01*
X102647936Y-93013944D01*
X100928167Y-94733713D01*
X97826592Y-94733713D01*
X99860305Y-92700000D01*
X105825743Y-92700000D01*
X105997951Y-92665746D01*
X106143941Y-92568198D01*
X106494341Y-92217798D01*
X106636659Y-92217922D01*
X106875647Y-92119174D01*
X107058655Y-91936486D01*
X107157820Y-91697670D01*
X107158045Y-91439084D01*
X107097765Y-91293197D01*
X107257443Y-91261435D01*
X107452097Y-91131371D01*
X108907030Y-89676438D01*
X108967714Y-89651364D01*
X109150722Y-89468676D01*
X109249887Y-89229860D01*
X109250112Y-88971274D01*
X109151364Y-88732286D01*
X108968676Y-88549278D01*
X108729860Y-88450113D01*
X108471274Y-88449888D01*
X108232286Y-88548636D01*
X108049278Y-88731324D01*
X107974143Y-88912269D01*
X107876354Y-89010058D01*
X107655375Y-88789079D01*
X107531631Y-88789079D01*
X107027818Y-89292893D01*
X107041960Y-89307035D01*
X106971249Y-89377746D01*
X106957107Y-89363604D01*
X106453293Y-89867417D01*
X106453293Y-89991161D01*
X106569239Y-90107107D01*
X106154669Y-90107107D01*
X105724517Y-89676955D01*
X105615547Y-89602499D01*
X105477112Y-89572468D01*
X105337900Y-89598663D01*
X105336157Y-89599819D01*
X105351797Y-89527722D01*
X105325602Y-89388510D01*
X105247310Y-89270457D01*
X104823046Y-88846193D01*
X104714076Y-88771737D01*
X104575641Y-88741706D01*
X104436429Y-88767901D01*
X104318376Y-88846193D01*
X103615076Y-89549493D01*
X103615076Y-88720355D01*
X103903807Y-88431624D01*
X103978263Y-88322654D01*
X104008294Y-88184219D01*
X103982099Y-88045007D01*
X103903807Y-87926954D01*
X103479543Y-87502690D01*
X103370573Y-87428234D01*
X103232138Y-87398203D01*
X103142713Y-87415030D01*
X103170711Y-87347437D01*
X103170710Y-87208199D01*
X103117427Y-87079559D01*
X102741161Y-86703293D01*
X102617417Y-86703293D01*
X102113604Y-87207107D01*
X102127746Y-87221249D01*
X102057035Y-87291960D01*
X102042893Y-87277818D01*
X101539079Y-87781631D01*
X101539079Y-87905375D01*
X101915345Y-88281641D01*
X102043985Y-88334924D01*
X102142638Y-88334925D01*
X102126345Y-88351218D01*
X102051889Y-88460188D01*
X102021858Y-88598623D01*
X102048053Y-88737835D01*
X102126345Y-88855888D01*
X102415076Y-89144619D01*
X102415076Y-89876361D01*
X102460748Y-90105971D01*
X102590812Y-90300625D01*
X103845821Y-91555634D01*
X104040475Y-91685698D01*
X104270085Y-91731370D01*
X105118630Y-91731370D01*
X105316101Y-91692091D01*
X105361269Y-91737259D01*
X105453094Y-91800000D01*
X100760305Y-91800000D01*
X101047919Y-91512386D01*
X101122375Y-91403416D01*
X101152406Y-91264981D01*
X101126211Y-91125769D01*
X101047919Y-91007716D01*
X99492284Y-89452081D01*
X99383314Y-89377625D01*
X99244879Y-89347594D01*
X99105667Y-89373789D01*
X98987614Y-89452081D01*
X95579322Y-92860374D01*
X94033382Y-91314434D01*
X97441674Y-87906141D01*
X97516130Y-87797171D01*
X97529127Y-87737260D01*
X97920355Y-87899713D01*
X98576765Y-87900285D01*
X99183429Y-87649617D01*
X99647986Y-87185870D01*
X99697437Y-87066777D01*
X100915075Y-87066777D01*
X100915076Y-87206015D01*
X100968359Y-87334655D01*
X101344625Y-87710921D01*
X101468369Y-87710921D01*
X101972182Y-87207107D01*
X101397658Y-86632583D01*
X101273914Y-86632583D01*
X100968360Y-86938137D01*
X100915075Y-87066777D01*
X99697437Y-87066777D01*
X99899713Y-86579645D01*
X99899836Y-86438128D01*
X101468369Y-86438128D01*
X101468369Y-86561872D01*
X102042893Y-87136396D01*
X102546707Y-86632583D01*
X102546707Y-86508839D01*
X102170441Y-86132573D01*
X102041801Y-86079290D01*
X101902563Y-86079289D01*
X101773923Y-86132574D01*
X101468369Y-86438128D01*
X99899836Y-86438128D01*
X99900285Y-85923235D01*
X99815175Y-85717252D01*
X102322468Y-85717252D01*
X102348663Y-85856464D01*
X102426955Y-85974517D01*
X103275483Y-86823045D01*
X103384453Y-86897501D01*
X103522888Y-86927532D01*
X103662100Y-86901337D01*
X103663843Y-86900181D01*
X103648203Y-86972278D01*
X103674398Y-87111490D01*
X103752690Y-87229543D01*
X104176954Y-87653807D01*
X104285924Y-87728263D01*
X104335218Y-87738956D01*
X104380061Y-87847218D01*
X104544194Y-88011351D01*
X104667938Y-88011351D01*
X105242462Y-87436827D01*
X105228320Y-87422685D01*
X105299031Y-87351974D01*
X105313173Y-87366116D01*
X105327315Y-87351974D01*
X105398026Y-87422685D01*
X105383884Y-87436827D01*
X105398026Y-87450969D01*
X105327315Y-87521680D01*
X105313173Y-87507538D01*
X104738649Y-88082062D01*
X104738649Y-88205806D01*
X104902782Y-88369939D01*
X105010275Y-88414464D01*
X105017901Y-88454993D01*
X105096193Y-88573046D01*
X105520457Y-88997310D01*
X105629427Y-89071766D01*
X105767862Y-89101797D01*
X105857287Y-89084970D01*
X105829289Y-89152563D01*
X105829290Y-89291801D01*
X105882573Y-89420441D01*
X106258839Y-89796707D01*
X106382583Y-89796707D01*
X106886396Y-89292893D01*
X106872254Y-89278751D01*
X106942965Y-89208040D01*
X106957107Y-89222182D01*
X107460921Y-88718369D01*
X107460921Y-88594625D01*
X107084655Y-88218359D01*
X106956015Y-88165076D01*
X106857362Y-88165075D01*
X106873655Y-88148782D01*
X106948111Y-88039812D01*
X106978142Y-87901377D01*
X106951947Y-87762165D01*
X106912253Y-87702312D01*
X106929898Y-87613605D01*
X106929898Y-87330744D01*
X106895644Y-87158536D01*
X106798096Y-87012546D01*
X105737454Y-85951904D01*
X105724178Y-85943033D01*
X105591464Y-85854356D01*
X105419256Y-85820102D01*
X105136395Y-85820102D01*
X105049012Y-85837483D01*
X104996918Y-85801889D01*
X104858483Y-85771858D01*
X104719271Y-85798053D01*
X104601218Y-85876345D01*
X104586958Y-85890605D01*
X104591746Y-85868534D01*
X104565551Y-85729322D01*
X104487259Y-85611269D01*
X105590041Y-84508487D01*
X106231572Y-84508487D01*
X106523434Y-85081298D01*
X106586648Y-85205361D01*
X106692526Y-85295789D01*
X106824949Y-85338816D01*
X106963759Y-85327891D01*
X107170578Y-85222512D01*
X107208817Y-85104824D01*
X106726452Y-84158130D01*
X106269811Y-84390800D01*
X106231572Y-84508487D01*
X105590041Y-84508487D01*
X105724264Y-84374264D01*
X105738900Y-84352360D01*
X105759455Y-84335878D01*
X105803500Y-84255679D01*
X105854328Y-84179610D01*
X105859468Y-84153772D01*
X105872150Y-84130679D01*
X105936018Y-83928429D01*
X106106725Y-84263460D01*
X106224412Y-84301699D01*
X106681053Y-84069029D01*
X106671973Y-84051209D01*
X106761074Y-84005810D01*
X106770154Y-84023630D01*
X106787974Y-84014550D01*
X106833373Y-84103651D01*
X106815553Y-84112731D01*
X107297918Y-85059425D01*
X107415605Y-85097664D01*
X107622425Y-84992284D01*
X107712853Y-84886407D01*
X107755880Y-84753983D01*
X107750665Y-84687723D01*
X107865699Y-84754780D01*
X108006192Y-84772886D01*
X108142661Y-84734906D01*
X108363469Y-84622398D01*
X108392534Y-84641819D01*
X108564742Y-84676073D01*
X109238434Y-84676073D01*
X108816571Y-84850383D01*
X108352014Y-85314130D01*
X108100287Y-85920355D01*
X108099715Y-86576765D01*
X108350383Y-87183429D01*
X108814130Y-87647986D01*
X109420355Y-87899713D01*
X110076765Y-87900285D01*
X110683429Y-87649617D01*
X111147986Y-87185870D01*
X111399713Y-86579645D01*
X111400285Y-85923235D01*
X111149617Y-85316571D01*
X110685870Y-84852014D01*
X110262158Y-84676073D01*
X113973927Y-84676073D01*
X114146135Y-84641819D01*
X114292125Y-84544271D01*
X115185891Y-83650505D01*
X126002123Y-83650505D01*
X126060217Y-83759765D01*
X130566803Y-85137566D01*
X130775118Y-84456199D01*
X130717024Y-84346940D01*
X130384902Y-84245400D01*
X132198965Y-84245400D01*
X132212311Y-84383997D01*
X132277679Y-84506938D01*
X132385119Y-84595505D01*
X132798357Y-84721844D01*
X132852629Y-84692987D01*
X133003246Y-84692987D01*
X133061341Y-84802246D01*
X133474578Y-84928585D01*
X133613176Y-84915240D01*
X133736116Y-84849871D01*
X133824683Y-84742432D01*
X133865392Y-84609277D01*
X134009497Y-84137933D01*
X133951403Y-84028674D01*
X133270036Y-83820359D01*
X133003246Y-84692987D01*
X132852629Y-84692987D01*
X132907616Y-84663750D01*
X133174405Y-83791122D01*
X132493038Y-83582807D01*
X132383779Y-83640901D01*
X132239674Y-84112245D01*
X132198965Y-84245400D01*
X130384902Y-84245400D01*
X126478568Y-83051114D01*
X126339970Y-83064459D01*
X126217030Y-83129828D01*
X126128463Y-83237267D01*
X126087753Y-83370422D01*
X126002123Y-83650505D01*
X115185891Y-83650505D01*
X116349925Y-82486471D01*
X116349888Y-82528726D01*
X116448636Y-82767714D01*
X116631324Y-82950722D01*
X116870140Y-83049887D01*
X117128726Y-83050112D01*
X117250006Y-83000000D01*
X117457256Y-83000000D01*
X117467549Y-83054702D01*
X117544203Y-83173825D01*
X117661163Y-83253741D01*
X117800000Y-83281856D01*
X119600000Y-83281856D01*
X119729702Y-83257451D01*
X119848825Y-83180797D01*
X119928741Y-83063837D01*
X119956856Y-82925000D01*
X119956856Y-82437500D01*
X120050000Y-82437500D01*
X120050000Y-82994620D01*
X120103285Y-83123259D01*
X120201741Y-83221716D01*
X120330381Y-83275000D01*
X121162500Y-83275000D01*
X121250000Y-83187500D01*
X121250000Y-82350000D01*
X121350000Y-82350000D01*
X121350000Y-83187500D01*
X121437500Y-83275000D01*
X122269619Y-83275000D01*
X122398259Y-83221716D01*
X122496715Y-83123259D01*
X122550000Y-82994620D01*
X122550000Y-82437500D01*
X122462500Y-82350000D01*
X121350000Y-82350000D01*
X121250000Y-82350000D01*
X120137500Y-82350000D01*
X120050000Y-82437500D01*
X119956856Y-82437500D01*
X119956856Y-81954540D01*
X120050000Y-81861396D01*
X120050000Y-82162500D01*
X120137500Y-82250000D01*
X121250000Y-82250000D01*
X121250000Y-82230000D01*
X121350000Y-82230000D01*
X121350000Y-82250000D01*
X122462500Y-82250000D01*
X122550000Y-82162500D01*
X122550000Y-81773222D01*
X123078250Y-81773222D01*
X123150607Y-81758830D01*
X123179467Y-81787690D01*
X123288437Y-81862146D01*
X123364644Y-81878678D01*
X123364644Y-81887818D01*
X123417929Y-82016457D01*
X123652773Y-82251301D01*
X123776516Y-82251301D01*
X124103553Y-81924264D01*
X124089411Y-81910122D01*
X124160122Y-81839411D01*
X124174264Y-81853553D01*
X124188406Y-81839411D01*
X124259117Y-81910122D01*
X124244975Y-81924264D01*
X124259117Y-81938406D01*
X124188406Y-82009117D01*
X124174264Y-81994975D01*
X123847227Y-82322012D01*
X123847227Y-82445755D01*
X123985761Y-82584289D01*
X123950113Y-82670140D01*
X123949888Y-82928726D01*
X124048636Y-83167714D01*
X124231324Y-83350722D01*
X124470140Y-83449887D01*
X124728726Y-83450112D01*
X124967714Y-83351364D01*
X125150722Y-83168676D01*
X125249887Y-82929860D01*
X125250037Y-82757679D01*
X125735688Y-82272028D01*
X125785754Y-82262607D01*
X125903807Y-82184315D01*
X126434134Y-81653988D01*
X126434137Y-81653986D01*
X126500000Y-81588123D01*
X126565863Y-81653986D01*
X126565866Y-81653988D01*
X127096193Y-82184315D01*
X127205163Y-82258771D01*
X127263768Y-82271484D01*
X127740446Y-82748162D01*
X127886437Y-82845711D01*
X128058644Y-82879964D01*
X128217345Y-82879964D01*
X128196283Y-82948856D01*
X128181700Y-83080026D01*
X128220176Y-83216356D01*
X128308661Y-83326975D01*
X128433211Y-83394454D01*
X129389516Y-83686826D01*
X129520686Y-83701409D01*
X129657016Y-83662933D01*
X129767635Y-83574448D01*
X129835114Y-83449898D01*
X130244435Y-82111072D01*
X130259018Y-81979902D01*
X130222356Y-81850000D01*
X132486218Y-81850000D01*
X133322293Y-82686075D01*
X132999100Y-82587265D01*
X132860502Y-82600610D01*
X132737562Y-82665979D01*
X132648995Y-82773418D01*
X132608286Y-82906573D01*
X132464181Y-83377917D01*
X132522275Y-83487176D01*
X133203642Y-83695491D01*
X133209490Y-83676364D01*
X133305120Y-83705602D01*
X133299273Y-83724728D01*
X133980640Y-83933043D01*
X134089899Y-83874949D01*
X134188537Y-83552319D01*
X135467677Y-84831459D01*
X135311611Y-84987525D01*
X135237155Y-85096495D01*
X135207124Y-85234930D01*
X135233319Y-85374142D01*
X135311611Y-85492195D01*
X136513693Y-86694277D01*
X136622663Y-86768733D01*
X136761098Y-86798764D01*
X136900310Y-86772569D01*
X137018363Y-86694277D01*
X137442627Y-86270013D01*
X137517083Y-86161043D01*
X137547114Y-86022608D01*
X137521816Y-85888161D01*
X137644981Y-85914880D01*
X137784193Y-85888685D01*
X137902246Y-85810393D01*
X138326510Y-85386129D01*
X138400966Y-85277159D01*
X138430997Y-85138724D01*
X138405699Y-85004279D01*
X138490700Y-85022718D01*
X138587025Y-85087081D01*
X138816636Y-85132753D01*
X139311629Y-85132753D01*
X139541239Y-85087081D01*
X139735893Y-84957017D01*
X140924264Y-83768646D01*
X141054328Y-83573993D01*
X141059674Y-83547118D01*
X141077094Y-83505165D01*
X141848357Y-84276428D01*
X141972101Y-84276428D01*
X142475914Y-83772614D01*
X141371060Y-82667760D01*
X141247316Y-82667760D01*
X141060552Y-82854524D01*
X141051364Y-82832286D01*
X140868676Y-82649278D01*
X140629860Y-82550113D01*
X140371274Y-82549888D01*
X140132286Y-82648636D01*
X139949278Y-82831324D01*
X139906129Y-82935240D01*
X139585616Y-82614727D01*
X139461872Y-82614727D01*
X139099480Y-82977119D01*
X139113622Y-82991261D01*
X139042911Y-83061972D01*
X139028769Y-83047830D01*
X139014627Y-83061972D01*
X138943916Y-82991261D01*
X138958058Y-82977119D01*
X138206757Y-82225818D01*
X138083014Y-82225818D01*
X137918881Y-82389951D01*
X137865596Y-82518591D01*
X137865597Y-82657829D01*
X137891032Y-82719235D01*
X137760906Y-82691007D01*
X137621694Y-82717202D01*
X137503641Y-82795494D01*
X137079377Y-83219758D01*
X137004921Y-83328728D01*
X136974890Y-83467163D01*
X137000188Y-83601608D01*
X136877023Y-83574890D01*
X136751098Y-83598585D01*
X135183877Y-82031364D01*
X138277468Y-82031364D01*
X138277468Y-82155107D01*
X139028769Y-82906408D01*
X139391161Y-82544016D01*
X139391161Y-82473305D01*
X141441771Y-82473305D01*
X141441771Y-82597049D01*
X142546625Y-83701903D01*
X143050439Y-83198090D01*
X143050439Y-83074346D01*
X142143843Y-82167750D01*
X142015203Y-82114467D01*
X141875965Y-82114466D01*
X141747325Y-82167751D01*
X141441771Y-82473305D01*
X139391161Y-82473305D01*
X139391161Y-82420272D01*
X138838119Y-81867230D01*
X138709479Y-81813947D01*
X138570241Y-81813946D01*
X138441601Y-81867231D01*
X138277468Y-82031364D01*
X135183877Y-82031364D01*
X134102502Y-80949989D01*
X138027397Y-80949989D01*
X138199605Y-80915735D01*
X138208756Y-80909620D01*
X138387525Y-81088389D01*
X138496495Y-81162845D01*
X138634930Y-81192876D01*
X138774142Y-81166681D01*
X138892195Y-81088389D01*
X139577633Y-80402951D01*
X141441771Y-80402951D01*
X141441771Y-80526695D01*
X141747325Y-80832249D01*
X141875965Y-80885534D01*
X142015203Y-80885533D01*
X142143843Y-80832250D01*
X143050439Y-79925654D01*
X143050439Y-79801910D01*
X142546625Y-79298097D01*
X141441771Y-80402951D01*
X139577633Y-80402951D01*
X140030681Y-79949903D01*
X140131324Y-80050722D01*
X140370140Y-80149887D01*
X140628726Y-80150112D01*
X140867714Y-80051364D01*
X140927332Y-79991850D01*
X140941762Y-80026686D01*
X141247316Y-80332240D01*
X141371060Y-80332240D01*
X142475914Y-79227386D01*
X141972101Y-78723572D01*
X141848357Y-78723572D01*
X141150068Y-79421861D01*
X141150112Y-79371274D01*
X141051364Y-79132286D01*
X140868676Y-78949278D01*
X140747482Y-78898954D01*
X137532312Y-75683784D01*
X137337658Y-75553720D01*
X137108048Y-75508048D01*
X136649579Y-75508048D01*
X136769832Y-75458239D01*
X137676428Y-74551643D01*
X137676428Y-74427899D01*
X137172614Y-73924086D01*
X136067760Y-75028940D01*
X136067760Y-75152684D01*
X136373314Y-75458238D01*
X136493565Y-75508048D01*
X135269383Y-75508048D01*
X135129860Y-75450113D01*
X134871274Y-75449888D01*
X134632286Y-75548636D01*
X134449278Y-75731324D01*
X134350113Y-75970140D01*
X134349888Y-76228726D01*
X134448636Y-76467714D01*
X134631324Y-76650722D01*
X134870140Y-76749887D01*
X135128726Y-76750112D01*
X135230528Y-76708048D01*
X136121063Y-76708048D01*
X136014727Y-76814384D01*
X136014727Y-76938128D01*
X136377119Y-77300520D01*
X136391261Y-77286378D01*
X136461972Y-77357089D01*
X136447830Y-77371231D01*
X136461972Y-77385373D01*
X136391261Y-77456084D01*
X136377119Y-77441942D01*
X135625818Y-78193243D01*
X135625818Y-78316986D01*
X135789951Y-78481119D01*
X135918591Y-78534404D01*
X136057829Y-78534403D01*
X136119235Y-78508968D01*
X136091007Y-78639094D01*
X136117202Y-78778306D01*
X136195494Y-78896359D01*
X136619758Y-79320623D01*
X136728728Y-79395079D01*
X136867163Y-79425110D01*
X137001608Y-79399812D01*
X136974890Y-79522977D01*
X136998585Y-79648902D01*
X136997509Y-79649978D01*
X132042120Y-79649978D01*
X132668198Y-79023900D01*
X132685551Y-78997929D01*
X132765746Y-78877910D01*
X132779879Y-78806856D01*
X133000000Y-78806856D01*
X133129702Y-78782451D01*
X133248825Y-78705797D01*
X133328741Y-78588837D01*
X133356856Y-78450000D01*
X133356856Y-77829759D01*
X135213946Y-77829759D01*
X135267231Y-77958399D01*
X135431364Y-78122532D01*
X135555107Y-78122532D01*
X136306408Y-77371231D01*
X135944016Y-77008839D01*
X135820272Y-77008839D01*
X135267230Y-77561881D01*
X135213947Y-77690521D01*
X135213946Y-77829759D01*
X133356856Y-77829759D01*
X133356856Y-77650000D01*
X133332451Y-77520298D01*
X133255797Y-77401175D01*
X133253197Y-77399398D01*
X133328741Y-77288837D01*
X133356856Y-77150000D01*
X133356856Y-76350000D01*
X133332451Y-76220298D01*
X133255797Y-76101175D01*
X133138837Y-76021259D01*
X133119128Y-76017268D01*
X133418198Y-75718198D01*
X133441193Y-75683784D01*
X133515746Y-75572208D01*
X133550000Y-75400000D01*
X133550000Y-74600000D01*
X133534890Y-74524035D01*
X135514466Y-74524035D01*
X135567751Y-74652675D01*
X135873305Y-74958229D01*
X135997049Y-74958229D01*
X137101903Y-73853375D01*
X136598090Y-73349561D01*
X136474346Y-73349561D01*
X135567750Y-74256157D01*
X135514467Y-74384797D01*
X135514466Y-74524035D01*
X133534890Y-74524035D01*
X133515746Y-74427792D01*
X133418198Y-74281802D01*
X133300002Y-74163606D01*
X133300002Y-74162502D01*
X133387500Y-74250000D01*
X133469619Y-74250000D01*
X133598259Y-74196716D01*
X133696715Y-74098259D01*
X133750000Y-73969620D01*
X133750000Y-73637500D01*
X133662500Y-73550000D01*
X133300000Y-73550000D01*
X133300000Y-73570000D01*
X133200000Y-73570000D01*
X133200000Y-73550000D01*
X133180000Y-73550000D01*
X133180000Y-73450000D01*
X133200000Y-73450000D01*
X133200000Y-72837500D01*
X133300000Y-72837500D01*
X133300000Y-73450000D01*
X133662500Y-73450000D01*
X133750000Y-73362500D01*
X133750000Y-73030380D01*
X133696715Y-72901741D01*
X133598259Y-72803284D01*
X133469619Y-72750000D01*
X133387500Y-72750000D01*
X133300000Y-72837500D01*
X133200000Y-72837500D01*
X133112500Y-72750000D01*
X133030381Y-72750000D01*
X132922888Y-72794525D01*
X132888837Y-72771259D01*
X132750000Y-72743144D01*
X132450000Y-72743144D01*
X132320298Y-72767549D01*
X132275550Y-72796344D01*
X132238837Y-72771259D01*
X132100000Y-72743144D01*
X131800000Y-72743144D01*
X131670298Y-72767549D01*
X131551175Y-72844203D01*
X131471259Y-72961163D01*
X131443144Y-73100000D01*
X131443144Y-73900000D01*
X131467549Y-74029702D01*
X131529379Y-74125787D01*
X131405588Y-74074385D01*
X131147002Y-74074160D01*
X130908014Y-74172908D01*
X130725006Y-74355596D01*
X130628698Y-74587532D01*
X130580600Y-74471411D01*
X130482143Y-74372955D01*
X130451821Y-74342633D01*
X130328078Y-74342633D01*
X129894975Y-74775736D01*
X130524264Y-75405025D01*
X130538406Y-75390883D01*
X130609117Y-75461594D01*
X130594975Y-75475736D01*
X130609117Y-75489878D01*
X130538406Y-75560589D01*
X130524264Y-75546447D01*
X130510122Y-75560589D01*
X130439411Y-75489878D01*
X130453553Y-75475736D01*
X129824264Y-74846447D01*
X129810122Y-74860589D01*
X129739411Y-74789878D01*
X129753553Y-74775736D01*
X129426516Y-74448699D01*
X129302773Y-74448699D01*
X129067929Y-74683543D01*
X129014644Y-74812182D01*
X129014644Y-74821388D01*
X128947520Y-74834018D01*
X128829467Y-74912310D01*
X128573949Y-75167828D01*
X128501295Y-75153376D01*
X127525304Y-75153376D01*
X127353096Y-75187630D01*
X127303856Y-75220531D01*
X127214246Y-75237393D01*
X127096193Y-75315685D01*
X126565866Y-75846012D01*
X126565863Y-75846014D01*
X126500000Y-75911877D01*
X126434137Y-75846014D01*
X126434134Y-75846012D01*
X125903807Y-75315685D01*
X125794837Y-75241229D01*
X125656402Y-75211198D01*
X125517190Y-75237393D01*
X125399137Y-75315685D01*
X125187005Y-75527817D01*
X125127492Y-75614917D01*
X125045584Y-75669238D01*
X124839947Y-75874875D01*
X124767589Y-75860482D01*
X119988046Y-75860482D01*
X121166347Y-74682181D01*
X121184254Y-74772208D01*
X121267290Y-74896479D01*
X121281802Y-74918198D01*
X121681802Y-75318198D01*
X121827792Y-75415746D01*
X121846819Y-75419531D01*
X121867549Y-75529702D01*
X121944203Y-75648825D01*
X122061163Y-75728741D01*
X122200000Y-75756856D01*
X122500000Y-75756856D01*
X122629702Y-75732451D01*
X122674450Y-75703656D01*
X122711163Y-75728741D01*
X122850000Y-75756856D01*
X123150000Y-75756856D01*
X123279702Y-75732451D01*
X123322119Y-75705157D01*
X123430381Y-75750000D01*
X123512500Y-75750000D01*
X123600000Y-75662500D01*
X123600000Y-75050000D01*
X123700000Y-75050000D01*
X123700000Y-75662500D01*
X123787500Y-75750000D01*
X123869619Y-75750000D01*
X123998259Y-75696716D01*
X124096715Y-75598259D01*
X124150000Y-75469620D01*
X124150000Y-75137500D01*
X124062500Y-75050000D01*
X123700000Y-75050000D01*
X123600000Y-75050000D01*
X123580000Y-75050000D01*
X123580000Y-74950000D01*
X123600000Y-74950000D01*
X123600000Y-74930000D01*
X123700000Y-74930000D01*
X123700000Y-74950000D01*
X124062500Y-74950000D01*
X124150000Y-74862500D01*
X124150000Y-74750000D01*
X127230778Y-74750000D01*
X127331324Y-74850722D01*
X127570140Y-74949887D01*
X127828726Y-74950112D01*
X128067714Y-74851364D01*
X128250722Y-74668676D01*
X128349887Y-74429860D01*
X128349957Y-74349956D01*
X128528726Y-74350112D01*
X128760741Y-74254245D01*
X129497227Y-74254245D01*
X129497227Y-74377988D01*
X129824264Y-74705025D01*
X130257367Y-74271922D01*
X130257367Y-74148179D01*
X130227045Y-74117857D01*
X130128589Y-74019400D01*
X129999949Y-73966117D01*
X129860710Y-73966116D01*
X129732071Y-74019401D01*
X129497227Y-74254245D01*
X128760741Y-74254245D01*
X128767714Y-74251364D01*
X128950722Y-74068676D01*
X129049887Y-73829860D01*
X129050112Y-73571274D01*
X128951364Y-73332286D01*
X128768676Y-73149278D01*
X128529860Y-73050113D01*
X128271274Y-73049888D01*
X128032286Y-73148636D01*
X127930744Y-73250000D01*
X124156856Y-73250000D01*
X124156856Y-72600000D01*
X124132451Y-72470298D01*
X124100000Y-72419868D01*
X124100000Y-72300000D01*
X124065746Y-72127792D01*
X123968198Y-71981802D01*
X123443252Y-71456856D01*
X124050000Y-71456856D01*
X124131074Y-71447525D01*
X124259893Y-71388602D01*
X124809893Y-70988602D01*
X124823225Y-70972270D01*
X124848825Y-70955797D01*
X124911231Y-70864463D01*
X124924780Y-70847866D01*
X124925911Y-70842979D01*
X124928741Y-70838837D01*
X124941838Y-70774160D01*
X124956720Y-70709859D01*
X124955860Y-70704916D01*
X124956856Y-70700000D01*
X124956856Y-70572742D01*
X125450691Y-71067439D01*
X126130398Y-71349679D01*
X126866373Y-71350321D01*
X127546572Y-71069268D01*
X128043144Y-70573562D01*
X128043144Y-70700000D01*
X128048155Y-70726629D01*
X128046776Y-70750781D01*
X128059314Y-70785935D01*
X128067549Y-70829702D01*
X128084093Y-70855412D01*
X128094362Y-70884205D01*
X128122043Y-70914387D01*
X128144203Y-70948825D01*
X128169443Y-70966071D01*
X128190107Y-70988602D01*
X128740107Y-71388602D01*
X128811163Y-71428741D01*
X128950000Y-71456856D01*
X130000000Y-71456856D01*
X130093144Y-71439330D01*
X130093144Y-71900000D01*
X130117549Y-72029702D01*
X130194203Y-72148825D01*
X130311163Y-72228741D01*
X130450000Y-72256856D01*
X130950000Y-72256856D01*
X131079702Y-72232451D01*
X131198825Y-72155797D01*
X131278741Y-72038837D01*
X131306856Y-71900000D01*
X131306856Y-71529540D01*
X131443144Y-71393252D01*
X131443144Y-71900000D01*
X131467549Y-72029702D01*
X131544203Y-72148825D01*
X131661163Y-72228741D01*
X131800000Y-72256856D01*
X132100000Y-72256856D01*
X132229702Y-72232451D01*
X132274450Y-72203656D01*
X132311163Y-72228741D01*
X132450000Y-72256856D01*
X132750000Y-72256856D01*
X132879702Y-72232451D01*
X132924450Y-72203656D01*
X132961163Y-72228741D01*
X133100000Y-72256856D01*
X133400000Y-72256856D01*
X133529702Y-72232451D01*
X133648825Y-72155797D01*
X133728741Y-72038837D01*
X133756856Y-71900000D01*
X133756856Y-71100000D01*
X133732451Y-70970298D01*
X133700000Y-70919868D01*
X133700000Y-70900000D01*
X133665746Y-70727792D01*
X133568198Y-70581802D01*
X133468197Y-70481801D01*
X133453839Y-70472207D01*
X133322207Y-70384253D01*
X133149999Y-70349999D01*
X131400001Y-70349999D01*
X131306856Y-70368527D01*
X131306856Y-69900000D01*
X131282451Y-69770298D01*
X131205797Y-69651175D01*
X131088837Y-69571259D01*
X130950000Y-69543144D01*
X130450000Y-69543144D01*
X130320298Y-69567549D01*
X130224050Y-69629483D01*
X130138837Y-69571259D01*
X130000000Y-69543144D01*
X128400000Y-69543144D01*
X128349956Y-69552560D01*
X128350048Y-69446741D01*
X128400000Y-69456856D01*
X130000000Y-69456856D01*
X130129702Y-69432451D01*
X130248825Y-69355797D01*
X130328741Y-69238837D01*
X130356856Y-69100000D01*
X131549999Y-69100000D01*
X131670140Y-69149887D01*
X131928726Y-69150112D01*
X132167714Y-69051364D01*
X132350722Y-68868676D01*
X132449887Y-68629860D01*
X132450112Y-68371274D01*
X132351364Y-68132286D01*
X132168676Y-67949278D01*
X131929860Y-67850113D01*
X131671274Y-67849888D01*
X131549994Y-67900000D01*
X130356856Y-67900000D01*
X130332451Y-67770298D01*
X130255797Y-67651175D01*
X130138837Y-67571259D01*
X130000000Y-67543144D01*
X129491672Y-67543144D01*
X128824264Y-66875736D01*
X128629610Y-66745672D01*
X128400000Y-66700000D01*
X122789998Y-66700000D01*
X122560388Y-66745672D01*
X122365734Y-66875736D01*
X122125735Y-67115735D01*
X121995671Y-67310389D01*
X121949999Y-67539999D01*
X121949999Y-67701473D01*
X120475735Y-69175737D01*
X120345671Y-69370391D01*
X120299999Y-69600001D01*
X120300000Y-73851472D01*
X113930924Y-80220548D01*
X113630223Y-79630389D01*
X113549594Y-79525903D01*
X113427214Y-79454563D01*
X113286721Y-79436457D01*
X113162280Y-79471090D01*
X112443683Y-79151713D01*
X112415148Y-79145276D01*
X112389736Y-79130790D01*
X112301789Y-79119703D01*
X112215314Y-79100195D01*
X112186488Y-79105168D01*
X112157466Y-79101509D01*
X112071965Y-79124924D01*
X111984613Y-79139993D01*
X111959885Y-79155618D01*
X111931672Y-79163344D01*
X105331672Y-82463344D01*
X105327843Y-82466315D01*
X105323188Y-82467670D01*
X105235477Y-82538001D01*
X105146728Y-82606879D01*
X105144329Y-82611088D01*
X105140545Y-82614122D01*
X105086428Y-82712661D01*
X105030790Y-82810263D01*
X105030184Y-82815071D01*
X105027850Y-82819321D01*
X104976601Y-82981610D01*
X104468224Y-81983864D01*
X104350537Y-81945626D01*
X103715695Y-82269094D01*
X104425055Y-83661291D01*
X104542742Y-83699530D01*
X104789611Y-83573744D01*
X104772019Y-83629453D01*
X103638731Y-84762741D01*
X103529761Y-84688285D01*
X103391326Y-84658254D01*
X103252114Y-84684449D01*
X103134061Y-84762741D01*
X102426955Y-85469847D01*
X102352499Y-85578817D01*
X102322468Y-85717252D01*
X99815175Y-85717252D01*
X99649617Y-85316571D01*
X99185870Y-84852014D01*
X98579645Y-84600287D01*
X97926639Y-84599718D01*
X98077381Y-84483240D01*
X98600720Y-84092384D01*
X99121404Y-83716348D01*
X99639567Y-83354292D01*
X100155212Y-83005458D01*
X100536316Y-82755648D01*
X102953513Y-82755648D01*
X103472370Y-83773963D01*
X103535583Y-83898026D01*
X103641462Y-83988453D01*
X103773885Y-84031481D01*
X103912695Y-84020556D01*
X104297715Y-83824378D01*
X104335954Y-83706691D01*
X103626594Y-82314493D01*
X102991752Y-82637961D01*
X102953513Y-82755648D01*
X100536316Y-82755648D01*
X100668384Y-82669079D01*
X101178917Y-82344513D01*
X101687056Y-82030868D01*
X102192580Y-81727533D01*
X102375284Y-81620809D01*
X102828666Y-82510622D01*
X102946353Y-82548860D01*
X103581195Y-82225392D01*
X103572115Y-82207572D01*
X103661216Y-82162173D01*
X103670296Y-82179993D01*
X104305138Y-81856525D01*
X104343377Y-81738838D01*
X103856453Y-80783194D01*
X104189783Y-80601713D01*
X104682837Y-80338442D01*
X105173473Y-80080916D01*
X105661408Y-79828537D01*
X106147125Y-79580315D01*
X106629811Y-79335915D01*
X107110772Y-79093927D01*
X107110773Y-79093926D01*
X107588524Y-78854351D01*
X108063730Y-78616099D01*
X108063921Y-78615950D01*
X108064157Y-78615885D01*
X108536379Y-78378423D01*
X108536778Y-78378112D01*
X108537265Y-78377976D01*
X109006454Y-78140579D01*
X109007063Y-78140102D01*
X109007807Y-78139891D01*
X109473940Y-77901814D01*
X109474756Y-77901169D01*
X109475758Y-77900880D01*
X109938814Y-77661383D01*
X109939841Y-77660563D01*
X109941100Y-77660191D01*
X110050227Y-77602855D01*
X113066436Y-77602855D01*
X113585293Y-78621170D01*
X113648506Y-78745233D01*
X113754385Y-78835660D01*
X113886808Y-78878688D01*
X114025618Y-78867763D01*
X114410638Y-78671585D01*
X114448877Y-78553898D01*
X113739517Y-77161700D01*
X113104675Y-77485168D01*
X113066436Y-77602855D01*
X110050227Y-77602855D01*
X110401057Y-77418527D01*
X110402287Y-77417532D01*
X110403800Y-77417072D01*
X110860636Y-77172504D01*
X110862065Y-77171329D01*
X110863834Y-77170774D01*
X111317532Y-76922553D01*
X111319154Y-76921195D01*
X111321170Y-76920539D01*
X111771706Y-76667928D01*
X111773517Y-76666380D01*
X111775771Y-76665617D01*
X112223122Y-76407872D01*
X112225107Y-76406135D01*
X112227596Y-76405256D01*
X112403140Y-76301062D01*
X112422732Y-76339514D01*
X112941589Y-77357829D01*
X113059276Y-77396067D01*
X113608347Y-77116301D01*
X113828618Y-77116301D01*
X114537978Y-78508498D01*
X114655665Y-78546737D01*
X115040686Y-78350559D01*
X115131115Y-78244682D01*
X115174141Y-78112258D01*
X115163218Y-77973449D01*
X115100004Y-77849386D01*
X114581147Y-76831071D01*
X114463460Y-76792833D01*
X113828618Y-77116301D01*
X113608347Y-77116301D01*
X113694118Y-77072599D01*
X113685038Y-77054779D01*
X113774139Y-77009380D01*
X113783219Y-77027200D01*
X114418061Y-76703732D01*
X114456300Y-76586045D01*
X113937443Y-75567730D01*
X113874230Y-75443667D01*
X113832957Y-75408417D01*
X114000388Y-75298298D01*
X114002943Y-75295780D01*
X114006243Y-75294373D01*
X114437360Y-74999815D01*
X114440016Y-74997103D01*
X114443479Y-74995550D01*
X114871288Y-74691399D01*
X114874025Y-74688499D01*
X114877630Y-74686796D01*
X115302106Y-74372316D01*
X115304906Y-74369230D01*
X115308635Y-74367374D01*
X115729759Y-74041817D01*
X115732600Y-74038554D01*
X115736431Y-74036545D01*
X116154179Y-73699171D01*
X116157039Y-73695741D01*
X116160949Y-73693580D01*
X116575304Y-73343644D01*
X116578165Y-73340056D01*
X116582132Y-73337745D01*
X116993067Y-72974505D01*
X116995907Y-72970774D01*
X116999904Y-72968320D01*
X117407404Y-72591034D01*
X117410204Y-72587173D01*
X117414213Y-72584581D01*
X117818254Y-72192507D01*
X117821000Y-72188529D01*
X117824991Y-72185811D01*
X118225552Y-71778206D01*
X118228222Y-71774134D01*
X118232181Y-71771297D01*
X118629240Y-71347419D01*
X118631823Y-71343267D01*
X118635729Y-71340323D01*
X119029265Y-70899427D01*
X119031747Y-70895213D01*
X119035579Y-70892179D01*
X119425574Y-70433525D01*
X119427945Y-70429269D01*
X119431692Y-70426153D01*
X119818118Y-69948998D01*
X119820369Y-69944720D01*
X119824014Y-69941539D01*
X120206854Y-69445138D01*
X120208980Y-69440854D01*
X120212508Y-69437626D01*
X120591744Y-68921241D01*
X120593741Y-68916966D01*
X120597148Y-68913701D01*
X120972752Y-68376584D01*
X120974618Y-68372337D01*
X120977891Y-68369053D01*
X121349847Y-67810464D01*
X121351581Y-67806259D01*
X121354717Y-67802969D01*
X121723000Y-67222167D01*
X121724602Y-67218021D01*
X121727601Y-67214734D01*
X122086722Y-66620030D01*
X122440555Y-66098455D01*
X122856605Y-65625533D01*
X123339565Y-65198123D01*
X123885692Y-64825302D01*
X124491449Y-64515949D01*
X125153591Y-64278844D01*
X125869212Y-64122867D01*
X126637521Y-64056989D01*
X127365674Y-64080982D01*
G36*
X122400000Y-72950000D02*
X122420000Y-72950000D01*
X122420000Y-73050000D01*
X122400000Y-73050000D01*
X122400000Y-73662500D01*
X122487500Y-73750000D01*
X122569619Y-73750000D01*
X122579059Y-73746090D01*
X122584254Y-73772208D01*
X122649858Y-73870390D01*
X122681802Y-73918198D01*
X122763604Y-74000000D01*
X122681802Y-74081802D01*
X122584254Y-74227792D01*
X122578056Y-74258951D01*
X122500000Y-74243144D01*
X122200000Y-74243144D01*
X122070298Y-74267549D01*
X122050000Y-74280610D01*
X122050000Y-73716705D01*
X122130381Y-73750000D01*
X122212500Y-73750000D01*
X122300000Y-73662500D01*
X122300000Y-73050000D01*
X122280000Y-73050000D01*
X122280000Y-72950000D01*
X122300000Y-72950000D01*
X122300000Y-72930000D01*
X122400000Y-72930000D01*
X122400000Y-72950000D01*
X122400000Y-72950000D01*
G37*
X122400000Y-72950000D02*
X122420000Y-72950000D01*
X122420000Y-73050000D01*
X122400000Y-73050000D01*
X122400000Y-73662500D01*
X122487500Y-73750000D01*
X122569619Y-73750000D01*
X122579059Y-73746090D01*
X122584254Y-73772208D01*
X122649858Y-73870390D01*
X122681802Y-73918198D01*
X122763604Y-74000000D01*
X122681802Y-74081802D01*
X122584254Y-74227792D01*
X122578056Y-74258951D01*
X122500000Y-74243144D01*
X122200000Y-74243144D01*
X122070298Y-74267549D01*
X122050000Y-74280610D01*
X122050000Y-73716705D01*
X122130381Y-73750000D01*
X122212500Y-73750000D01*
X122300000Y-73662500D01*
X122300000Y-73050000D01*
X122280000Y-73050000D01*
X122280000Y-72950000D01*
X122300000Y-72950000D01*
X122300000Y-72930000D01*
X122400000Y-72930000D01*
X122400000Y-72950000D01*
M02*
