G04 #@! TF.FileFunction,Soldermask,Top*
%FSLAX46Y46*%
G04 Gerber Fmt 4.6, Leading zero omitted, Abs format (unit mm)*
G04 Created by KiCad (PCBNEW 4.0.5-e0-6337~49~ubuntu14.04.1) date Tue May 16 18:33:42 2017*
%MOMM*%
%LPD*%
G01*
G04 APERTURE LIST*
%ADD10C,0.100000*%
%ADD11C,0.140000*%
%ADD12C,0.210000*%
%ADD13C,0.010000*%
G04 APERTURE END LIST*
D10*
D11*
X132238095Y-79809524D02*
X132000000Y-79523810D01*
X131809524Y-79809524D02*
X131809524Y-79142857D01*
X132095238Y-79142857D01*
X132190476Y-79190476D01*
X132238095Y-79285714D01*
X132238095Y-79380952D01*
X132190476Y-79476190D01*
X132095238Y-79523810D01*
X131809524Y-79523810D01*
X132000000Y-78809524D02*
X131761905Y-78857143D01*
X131523809Y-79000000D01*
X131380952Y-79238095D01*
X131333333Y-79476190D01*
X131380952Y-79714286D01*
X131523809Y-79952381D01*
X131761905Y-80095238D01*
X132000000Y-80142857D01*
X132238095Y-80095238D01*
X132476190Y-79952381D01*
X132619047Y-79714286D01*
X132666667Y-79476190D01*
X132619047Y-79238095D01*
X132476190Y-79000000D01*
X132238095Y-78857143D01*
X132000000Y-78809524D01*
D12*
X119307143Y-80978571D02*
X119307143Y-79478571D01*
X120164286Y-80978571D01*
X120164286Y-79478571D01*
X121450000Y-80907143D02*
X121307143Y-80978571D01*
X121021429Y-80978571D01*
X120878572Y-80907143D01*
X120807143Y-80764286D01*
X120807143Y-80192857D01*
X120878572Y-80050000D01*
X121021429Y-79978571D01*
X121307143Y-79978571D01*
X121450000Y-80050000D01*
X121521429Y-80192857D01*
X121521429Y-80335714D01*
X120807143Y-80478571D01*
X122807143Y-79978571D02*
X122807143Y-80978571D01*
X122164286Y-79978571D02*
X122164286Y-80764286D01*
X122235714Y-80907143D01*
X122378572Y-80978571D01*
X122592857Y-80978571D01*
X122735714Y-80907143D01*
X122807143Y-80835714D01*
X123521429Y-80978571D02*
X123521429Y-79978571D01*
X123521429Y-80264286D02*
X123592857Y-80121429D01*
X123664286Y-80050000D01*
X123807143Y-79978571D01*
X123950000Y-79978571D01*
X124664286Y-80978571D02*
X124521428Y-80907143D01*
X124450000Y-80835714D01*
X124378571Y-80692857D01*
X124378571Y-80264286D01*
X124450000Y-80121429D01*
X124521428Y-80050000D01*
X124664286Y-79978571D01*
X124878571Y-79978571D01*
X125021428Y-80050000D01*
X125092857Y-80121429D01*
X125164286Y-80264286D01*
X125164286Y-80692857D01*
X125092857Y-80835714D01*
X125021428Y-80907143D01*
X124878571Y-80978571D01*
X124664286Y-80978571D01*
X126307143Y-80192857D02*
X126521429Y-80264286D01*
X126592857Y-80335714D01*
X126664286Y-80478571D01*
X126664286Y-80692857D01*
X126592857Y-80835714D01*
X126521429Y-80907143D01*
X126378571Y-80978571D01*
X125807143Y-80978571D01*
X125807143Y-79478571D01*
X126307143Y-79478571D01*
X126450000Y-79550000D01*
X126521429Y-79621429D01*
X126592857Y-79764286D01*
X126592857Y-79907143D01*
X126521429Y-80050000D01*
X126450000Y-80121429D01*
X126307143Y-80192857D01*
X125807143Y-80192857D01*
X127164286Y-79978571D02*
X127521429Y-80978571D01*
X127878571Y-79978571D02*
X127521429Y-80978571D01*
X127378571Y-81335714D01*
X127307143Y-81407143D01*
X127164286Y-81478571D01*
X128235714Y-79978571D02*
X128807143Y-79978571D01*
X128450000Y-79478571D02*
X128450000Y-80764286D01*
X128521428Y-80907143D01*
X128664286Y-80978571D01*
X128807143Y-80978571D01*
X129878571Y-80907143D02*
X129735714Y-80978571D01*
X129450000Y-80978571D01*
X129307143Y-80907143D01*
X129235714Y-80764286D01*
X129235714Y-80192857D01*
X129307143Y-80050000D01*
X129450000Y-79978571D01*
X129735714Y-79978571D01*
X129878571Y-80050000D01*
X129950000Y-80192857D01*
X129950000Y-80335714D01*
X129235714Y-80478571D01*
X130521428Y-80907143D02*
X130664285Y-80978571D01*
X130950000Y-80978571D01*
X131092857Y-80907143D01*
X131164285Y-80764286D01*
X131164285Y-80692857D01*
X131092857Y-80550000D01*
X130950000Y-80478571D01*
X130735714Y-80478571D01*
X130592857Y-80407143D01*
X130521428Y-80264286D01*
X130521428Y-80192857D01*
X130592857Y-80050000D01*
X130735714Y-79978571D01*
X130950000Y-79978571D01*
X131092857Y-80050000D01*
D13*
G36*
X127063925Y-65596925D02*
X127642565Y-65726395D01*
X128193048Y-65942983D01*
X128705581Y-66243354D01*
X129170368Y-66624171D01*
X129577614Y-67082100D01*
X129721317Y-67284773D01*
X130040647Y-67846283D01*
X130261419Y-68415152D01*
X130383780Y-68986136D01*
X130407874Y-69553990D01*
X130333851Y-70113471D01*
X130161856Y-70659333D01*
X129892037Y-71186334D01*
X129600544Y-71597430D01*
X129390725Y-71841787D01*
X129163397Y-72071090D01*
X128902862Y-72298452D01*
X128593422Y-72536989D01*
X128219377Y-72799812D01*
X127931639Y-72991541D01*
X127585596Y-73226104D01*
X127318583Y-73430414D01*
X127119570Y-73621249D01*
X126977529Y-73815387D01*
X126881431Y-74029609D01*
X126820247Y-74280691D01*
X126782948Y-74585413D01*
X126770099Y-74758600D01*
X126773463Y-75320145D01*
X126823345Y-75774600D01*
X126882952Y-76154803D01*
X126944251Y-76449702D01*
X127020529Y-76671355D01*
X127125071Y-76831823D01*
X127271160Y-76943166D01*
X127472082Y-77017442D01*
X127741123Y-77066712D01*
X128091566Y-77103036D01*
X128305934Y-77120463D01*
X128633799Y-77146137D01*
X129011288Y-77175590D01*
X129386725Y-77204796D01*
X129648800Y-77225115D01*
X130483565Y-77300252D01*
X131238148Y-77390012D01*
X131908111Y-77493646D01*
X132489016Y-77610402D01*
X132976426Y-77739529D01*
X133255600Y-77835330D01*
X133508892Y-77945980D01*
X133783826Y-78092763D01*
X134089944Y-78282051D01*
X134436788Y-78520217D01*
X134833900Y-78813632D01*
X135290821Y-79168670D01*
X135490800Y-79328025D01*
X135844623Y-79610780D01*
X136128996Y-79835427D01*
X136353056Y-80008251D01*
X136525939Y-80135540D01*
X136656783Y-80223579D01*
X136754724Y-80278655D01*
X136828900Y-80307052D01*
X136888447Y-80315058D01*
X136921841Y-80312564D01*
X137036441Y-80246137D01*
X137136640Y-80085787D01*
X137220945Y-79838372D01*
X137287862Y-79510746D01*
X137335899Y-79109765D01*
X137363562Y-78642283D01*
X137370040Y-78254775D01*
X137379374Y-77733715D01*
X137410544Y-77285981D01*
X137469149Y-76884608D01*
X137560787Y-76502627D01*
X137691057Y-76113071D01*
X137865559Y-75688974D01*
X137934781Y-75534705D01*
X138047165Y-75271813D01*
X138130065Y-75044137D01*
X138176172Y-74872975D01*
X138183200Y-74810805D01*
X138191599Y-74690688D01*
X138233908Y-74641174D01*
X138333209Y-74631600D01*
X138527984Y-74657681D01*
X138672317Y-74725254D01*
X138756986Y-74818310D01*
X138772767Y-74920840D01*
X138710438Y-75016835D01*
X138591794Y-75080422D01*
X138431271Y-75180149D01*
X138277568Y-75356107D01*
X138133948Y-75593773D01*
X138003674Y-75878620D01*
X137890008Y-76196124D01*
X137796212Y-76531759D01*
X137725550Y-76870999D01*
X137681284Y-77199321D01*
X137666676Y-77502198D01*
X137684988Y-77765104D01*
X137739485Y-77973516D01*
X137833427Y-78112907D01*
X137901374Y-78154239D01*
X137975443Y-78167072D01*
X138132944Y-78184259D01*
X138355885Y-78204173D01*
X138626272Y-78225190D01*
X138881153Y-78242783D01*
X139365488Y-78267464D01*
X139812131Y-78276779D01*
X140208801Y-78271195D01*
X140543219Y-78251181D01*
X140803103Y-78217205D01*
X140976176Y-78169737D01*
X140992400Y-78162230D01*
X141147003Y-78098937D01*
X141250904Y-78100550D01*
X141333980Y-78170089D01*
X141355319Y-78198903D01*
X141425040Y-78358523D01*
X141416834Y-78506928D01*
X141354868Y-78596764D01*
X141285123Y-78632274D01*
X141199333Y-78612225D01*
X141113568Y-78564884D01*
X141054001Y-78533089D01*
X140985172Y-78509313D01*
X140892861Y-78492642D01*
X140762850Y-78482160D01*
X140580921Y-78476954D01*
X140332853Y-78476110D01*
X140004429Y-78478714D01*
X139808800Y-78480983D01*
X139452809Y-78483068D01*
X139108043Y-78480940D01*
X138795424Y-78475042D01*
X138535876Y-78465815D01*
X138350323Y-78453701D01*
X138310200Y-78449315D01*
X138096565Y-78430473D01*
X137935881Y-78433323D01*
X137865616Y-78449863D01*
X137779496Y-78530722D01*
X137703436Y-78683528D01*
X137634348Y-78917198D01*
X137569144Y-79240651D01*
X137548285Y-79366527D01*
X137487482Y-79740572D01*
X137437184Y-80028267D01*
X137394316Y-80243951D01*
X137355801Y-80401962D01*
X137318565Y-80516639D01*
X137285784Y-80590438D01*
X137248144Y-80683574D01*
X137241374Y-80776082D01*
X137272126Y-80884831D01*
X137347048Y-81026690D01*
X137472790Y-81218527D01*
X137610208Y-81413400D01*
X137955101Y-81950826D01*
X138236499Y-82505070D01*
X138437153Y-83039000D01*
X138587055Y-83486263D01*
X138733937Y-83833223D01*
X138878369Y-84081112D01*
X138965698Y-84184384D01*
X139129413Y-84344457D01*
X140392818Y-84352128D01*
X140787307Y-84353969D01*
X141093039Y-84353586D01*
X141322844Y-84350194D01*
X141489555Y-84343006D01*
X141606003Y-84331238D01*
X141685021Y-84314103D01*
X141739440Y-84290817D01*
X141773421Y-84267598D01*
X141888633Y-84205413D01*
X141961050Y-84234915D01*
X141991858Y-84356840D01*
X141993200Y-84403438D01*
X141968931Y-84565103D01*
X141901758Y-84648438D01*
X141800130Y-84643958D01*
X141785397Y-84636736D01*
X141668769Y-84601011D01*
X141470304Y-84568476D01*
X141209742Y-84540096D01*
X140906821Y-84516839D01*
X140581280Y-84499672D01*
X140252859Y-84489561D01*
X139941297Y-84487473D01*
X139666331Y-84494374D01*
X139447703Y-84511232D01*
X139389700Y-84519405D01*
X139267012Y-84552360D01*
X139209903Y-84610839D01*
X139216139Y-84711723D01*
X139283491Y-84871898D01*
X139330981Y-84963759D01*
X139424072Y-85153995D01*
X139523072Y-85379480D01*
X139580017Y-85522155D01*
X139676432Y-85771818D01*
X139751944Y-85944379D01*
X139819197Y-86058635D01*
X139890833Y-86133387D01*
X139979498Y-86187432D01*
X140048555Y-86218781D01*
X140189517Y-86291792D01*
X140254042Y-86365909D01*
X140265999Y-86436278D01*
X140221025Y-86565515D01*
X140104198Y-86694126D01*
X139942666Y-86798638D01*
X139785200Y-86852013D01*
X139646626Y-86868930D01*
X139562515Y-86845585D01*
X139522937Y-86766013D01*
X139517957Y-86614252D01*
X139530960Y-86443382D01*
X139540144Y-86172811D01*
X139510385Y-85912856D01*
X139435501Y-85639765D01*
X139309310Y-85329782D01*
X139163706Y-85032368D01*
X139024190Y-84785383D01*
X138870525Y-84552332D01*
X138715825Y-84349513D01*
X138573203Y-84193223D01*
X138455770Y-84099758D01*
X138397753Y-84080400D01*
X138322849Y-84115035D01*
X138206695Y-84205481D01*
X138084873Y-84321700D01*
X137854798Y-84611355D01*
X137637323Y-84981075D01*
X137442090Y-85409366D01*
X137278739Y-85874738D01*
X137156908Y-86355697D01*
X137144716Y-86417752D01*
X137092611Y-86727804D01*
X137071213Y-86964064D01*
X137081049Y-87149753D01*
X137122647Y-87308092D01*
X137167200Y-87407799D01*
X137233197Y-87536978D01*
X137259446Y-87606320D01*
X137248307Y-87648453D01*
X137202137Y-87696003D01*
X137188971Y-87708971D01*
X137063081Y-87773116D01*
X136893383Y-87788153D01*
X136724074Y-87755737D01*
X136608399Y-87687200D01*
X136536089Y-87604587D01*
X136516871Y-87533038D01*
X136555575Y-87445244D01*
X136657031Y-87313893D01*
X136679107Y-87287374D01*
X136788733Y-87130053D01*
X136868709Y-86944264D01*
X136934442Y-86693954D01*
X136936227Y-86685667D01*
X137051203Y-86176843D01*
X137162465Y-85749178D01*
X137277251Y-85382823D01*
X137402802Y-85057931D01*
X137546356Y-84754652D01*
X137715152Y-84453139D01*
X137802199Y-84311271D01*
X137926460Y-84104404D01*
X138035071Y-83907425D01*
X138112044Y-83750065D01*
X138134260Y-83693763D01*
X138175959Y-83423903D01*
X138146436Y-83099506D01*
X138049246Y-82734816D01*
X137887947Y-82344077D01*
X137718323Y-82027684D01*
X137517998Y-81708776D01*
X137287539Y-81374715D01*
X137043074Y-81046403D01*
X136800728Y-80744740D01*
X136576630Y-80490628D01*
X136393571Y-80310764D01*
X135948873Y-79937158D01*
X135468462Y-79560994D01*
X134971783Y-79195904D01*
X134478278Y-78855519D01*
X134007391Y-78553471D01*
X133578565Y-78303391D01*
X133385578Y-78201886D01*
X133143612Y-78090494D01*
X132878090Y-77989161D01*
X132583555Y-77897361D01*
X132254550Y-77814569D01*
X131885616Y-77740260D01*
X131471295Y-77673908D01*
X131006129Y-77614987D01*
X130484660Y-77562973D01*
X129901431Y-77517339D01*
X129250983Y-77477560D01*
X128527859Y-77443111D01*
X127726600Y-77413466D01*
X126841748Y-77388100D01*
X125867846Y-77366487D01*
X124799436Y-77348102D01*
X124467200Y-77343244D01*
X123332457Y-77333894D01*
X122289013Y-77339530D01*
X121327609Y-77360612D01*
X120438986Y-77397600D01*
X119613886Y-77450953D01*
X118843051Y-77521132D01*
X118117224Y-77608596D01*
X117609382Y-77683797D01*
X116439014Y-77906756D01*
X115333274Y-78192213D01*
X114286485Y-78543907D01*
X113292967Y-78965574D01*
X112347044Y-79460951D01*
X111443036Y-80033778D01*
X110575266Y-80687790D01*
X109738056Y-81426725D01*
X108925729Y-82254321D01*
X108132604Y-83174315D01*
X107353006Y-84190445D01*
X107025924Y-84650112D01*
X106784685Y-84966578D01*
X106504047Y-85288201D01*
X106244993Y-85548850D01*
X105807873Y-85954075D01*
X105967402Y-86135769D01*
X106071691Y-86273898D01*
X106145219Y-86406300D01*
X106159343Y-86446600D01*
X106173336Y-86602425D01*
X106159905Y-86798582D01*
X106124032Y-86979109D01*
X106107683Y-87026800D01*
X106125181Y-87101312D01*
X106233049Y-87198720D01*
X106305878Y-87247364D01*
X106434695Y-87341084D01*
X106517731Y-87425468D01*
X106534800Y-87463264D01*
X106512491Y-87523760D01*
X106439821Y-87519399D01*
X106308172Y-87447847D01*
X106197673Y-87371970D01*
X106092925Y-87299898D01*
X106002289Y-87252906D01*
X105900089Y-87225519D01*
X105760646Y-87212260D01*
X105558283Y-87207651D01*
X105423653Y-87206870D01*
X105176820Y-87204136D01*
X105004598Y-87194833D01*
X104880009Y-87173666D01*
X104776071Y-87135339D01*
X104665806Y-87074555D01*
X104626084Y-87050301D01*
X104528457Y-86983940D01*
X104438809Y-86905113D01*
X104345859Y-86799318D01*
X104238327Y-86652048D01*
X104104933Y-86448799D01*
X103934398Y-86175067D01*
X103893200Y-86107905D01*
X103729382Y-85842072D01*
X103575127Y-85594839D01*
X103441697Y-85384026D01*
X103340354Y-85227454D01*
X103288654Y-85151425D01*
X103188422Y-85054680D01*
X103448854Y-85054680D01*
X103471987Y-85114186D01*
X103510407Y-85175044D01*
X103571862Y-85271291D01*
X103673635Y-85434684D01*
X103803488Y-85645418D01*
X103949187Y-85883687D01*
X104011064Y-85985400D01*
X104195259Y-86285547D01*
X104339914Y-86511154D01*
X104456177Y-86675732D01*
X104555196Y-86792793D01*
X104648120Y-86875850D01*
X104746097Y-86938413D01*
X104833000Y-86981585D01*
X105041228Y-87043728D01*
X105305052Y-87074545D01*
X105582505Y-87071077D01*
X105760661Y-87047007D01*
X105907310Y-86972595D01*
X105996768Y-86834065D01*
X106024379Y-86654267D01*
X105985486Y-86456047D01*
X105910797Y-86310412D01*
X105800987Y-86187305D01*
X105642262Y-86054734D01*
X105527723Y-85977707D01*
X105408178Y-85913872D01*
X105213682Y-85818925D01*
X104962875Y-85701287D01*
X104674397Y-85569383D01*
X104366890Y-85431633D01*
X104058994Y-85296461D01*
X103769349Y-85172290D01*
X103516597Y-85067541D01*
X103486937Y-85055596D01*
X103448854Y-85054680D01*
X103188422Y-85054680D01*
X103129385Y-84997697D01*
X102906763Y-84865917D01*
X102658970Y-84774366D01*
X102432146Y-84741296D01*
X102188235Y-84778238D01*
X101933945Y-84876682D01*
X101716320Y-85016516D01*
X101656090Y-85073032D01*
X101580746Y-85161582D01*
X101572332Y-85220563D01*
X101626140Y-85292451D01*
X101631154Y-85298003D01*
X101729308Y-85371961D01*
X101883849Y-85454050D01*
X101999247Y-85502570D01*
X102406975Y-85682431D01*
X102719115Y-85883380D01*
X102940414Y-86110541D01*
X103075621Y-86369039D01*
X103129487Y-86663998D01*
X103130916Y-86723735D01*
X103143822Y-86833672D01*
X103192834Y-86936992D01*
X103293973Y-87060248D01*
X103397900Y-87166243D01*
X103520338Y-87280731D01*
X103639059Y-87372588D01*
X103771663Y-87449435D01*
X103935750Y-87518894D01*
X104148917Y-87588585D01*
X104428765Y-87666131D01*
X104731400Y-87743708D01*
X105095462Y-87844072D01*
X105378484Y-87944909D01*
X105600567Y-88056363D01*
X105781808Y-88188578D01*
X105942307Y-88351699D01*
X105947070Y-88357245D01*
X106098778Y-88570831D01*
X106186727Y-88792009D01*
X106210172Y-89033972D01*
X106168367Y-89309915D01*
X106060568Y-89633033D01*
X105886029Y-90016519D01*
X105849194Y-90089590D01*
X105712892Y-90369154D01*
X105625212Y-90581366D01*
X105579555Y-90744157D01*
X105568851Y-90851590D01*
X105540755Y-91092263D01*
X105454520Y-91255456D01*
X105304258Y-91350821D01*
X105255454Y-91365331D01*
X105152354Y-91382698D01*
X105050256Y-91374135D01*
X104921701Y-91332801D01*
X104739231Y-91251855D01*
X104672515Y-91220092D01*
X104467313Y-91124841D01*
X104202070Y-91006347D01*
X103910868Y-90879629D01*
X103627786Y-90759701D01*
X103624626Y-90758385D01*
X103209013Y-90579546D01*
X102874894Y-90421303D01*
X102606658Y-90274367D01*
X102388694Y-90129448D01*
X102205391Y-89977259D01*
X102055774Y-89824869D01*
X101830408Y-89545910D01*
X101576534Y-89178925D01*
X101299106Y-88731818D01*
X101003079Y-88212493D01*
X100761070Y-87759710D01*
X100616886Y-87485101D01*
X100506211Y-87284091D01*
X100416551Y-87139690D01*
X100343931Y-87045910D01*
X100605955Y-87045910D01*
X100618867Y-87098496D01*
X100674276Y-87224347D01*
X100764295Y-87408499D01*
X100881034Y-87635993D01*
X101016606Y-87891866D01*
X101163121Y-88161156D01*
X101312692Y-88428903D01*
X101457430Y-88680144D01*
X101546119Y-88829063D01*
X101817387Y-89254708D01*
X102062753Y-89591240D01*
X102288125Y-89846038D01*
X102499410Y-90026484D01*
X102511218Y-90034728D01*
X102629301Y-90105574D01*
X102806280Y-90199072D01*
X103020872Y-90305368D01*
X103251794Y-90414610D01*
X103477761Y-90516944D01*
X103677491Y-90602516D01*
X103829699Y-90661475D01*
X103913102Y-90683966D01*
X103913632Y-90683974D01*
X103902963Y-90650867D01*
X103834399Y-90562392D01*
X103721458Y-90435454D01*
X103678235Y-90389559D01*
X103455807Y-90128132D01*
X103281479Y-89851923D01*
X103138376Y-89530132D01*
X103032661Y-89211200D01*
X102890636Y-88834456D01*
X102695263Y-88498427D01*
X102434451Y-88188457D01*
X102096109Y-87889889D01*
X101723198Y-87623997D01*
X101525975Y-87500126D01*
X101310134Y-87374352D01*
X101094357Y-87256340D01*
X100897326Y-87155757D01*
X100737724Y-87082270D01*
X100634232Y-87045544D01*
X100605955Y-87045910D01*
X100343931Y-87045910D01*
X100335411Y-87034908D01*
X100250298Y-86952755D01*
X100148718Y-86876241D01*
X100074202Y-86825660D01*
X99918920Y-86725325D01*
X99796159Y-86652199D01*
X99730267Y-86620704D01*
X99727672Y-86620400D01*
X99729997Y-86661125D01*
X99772587Y-86768465D01*
X99846465Y-86920164D01*
X99855745Y-86937900D01*
X100061424Y-87389542D01*
X100243422Y-87910714D01*
X100391450Y-88470229D01*
X100442171Y-88715247D01*
X100492822Y-88962194D01*
X100546084Y-89187651D01*
X100594924Y-89363538D01*
X100626137Y-89449798D01*
X100737065Y-89610964D01*
X100930137Y-89791709D01*
X101208301Y-89993976D01*
X101574507Y-90219707D01*
X102031705Y-90470842D01*
X102582845Y-90749323D01*
X102650493Y-90782272D01*
X103115874Y-91022474D01*
X103491859Y-91249840D01*
X103788521Y-91472231D01*
X104015933Y-91697505D01*
X104184168Y-91933523D01*
X104227011Y-92012326D01*
X104306858Y-92217982D01*
X104345323Y-92422055D01*
X104339766Y-92595204D01*
X104289439Y-92706240D01*
X104177387Y-92756041D01*
X104005271Y-92763942D01*
X103804423Y-92732421D01*
X103606177Y-92663952D01*
X103577246Y-92649963D01*
X103227847Y-92437495D01*
X102898228Y-92160455D01*
X102578970Y-91808934D01*
X102260648Y-91373020D01*
X102055623Y-91049405D01*
X101976005Y-90925450D01*
X101893278Y-90820522D01*
X101790873Y-90720193D01*
X101776251Y-90708575D01*
X102074090Y-90708575D01*
X102092272Y-90755699D01*
X102154263Y-90870735D01*
X102249892Y-91035523D01*
X102349371Y-91200076D01*
X102596048Y-91559978D01*
X102867595Y-91883913D01*
X103151483Y-92161336D01*
X103435182Y-92381702D01*
X103706165Y-92534470D01*
X103951902Y-92609093D01*
X104030442Y-92614800D01*
X104145101Y-92605296D01*
X104190208Y-92555911D01*
X104197523Y-92449700D01*
X104159049Y-92264194D01*
X104055187Y-92044225D01*
X103901892Y-91816203D01*
X103715121Y-91606536D01*
X103654302Y-91550601D01*
X103551669Y-91475477D01*
X103390217Y-91373903D01*
X103187465Y-91255214D01*
X102960934Y-91128746D01*
X102728142Y-91003833D01*
X102506610Y-90889813D01*
X102313857Y-90796019D01*
X102167402Y-90731788D01*
X102084766Y-90706454D01*
X102074090Y-90708575D01*
X101776251Y-90708575D01*
X101652224Y-90610035D01*
X101460763Y-90475622D01*
X101199922Y-90302525D01*
X101192023Y-90297350D01*
X100677262Y-89936707D01*
X100244286Y-89576968D01*
X99875453Y-89198137D01*
X99553120Y-88780220D01*
X99259646Y-88303219D01*
X99018503Y-87833872D01*
X98774650Y-87324969D01*
X98717725Y-87488265D01*
X98677834Y-87636752D01*
X98666775Y-87789872D01*
X98687368Y-87968364D01*
X98742436Y-88192966D01*
X98834801Y-88484416D01*
X98865534Y-88574459D01*
X99019808Y-88988074D01*
X99191127Y-89389185D01*
X99370422Y-89759970D01*
X99548624Y-90082607D01*
X99716665Y-90339273D01*
X99837945Y-90485396D01*
X99956545Y-90597637D01*
X100134573Y-90754799D01*
X100351434Y-90939203D01*
X100586531Y-91133167D01*
X100686405Y-91213749D01*
X101037395Y-91507380D01*
X101313200Y-91769571D01*
X101527947Y-92017317D01*
X101695761Y-92267615D01*
X101830770Y-92537460D01*
X101874011Y-92642528D01*
X102017793Y-92954457D01*
X102184220Y-93192236D01*
X102397461Y-93383306D01*
X102674465Y-93551322D01*
X102901875Y-93684658D01*
X103043753Y-93807823D01*
X103112430Y-93937954D01*
X103120236Y-94092186D01*
X103110455Y-94157250D01*
X103038814Y-94343987D01*
X102899120Y-94483954D01*
X102685572Y-94579205D01*
X102392370Y-94631796D01*
X102013713Y-94643782D01*
X101765744Y-94633740D01*
X101381585Y-94586115D01*
X101026672Y-94486220D01*
X100683966Y-94325367D01*
X100336430Y-94094869D01*
X99967028Y-93786038D01*
X99803800Y-93633321D01*
X99599697Y-93445948D01*
X99373362Y-93251583D01*
X99165885Y-93085217D01*
X99118000Y-93049322D01*
X98965324Y-92945072D01*
X98776938Y-92827873D01*
X98572286Y-92708369D01*
X98370812Y-92597201D01*
X98337674Y-92580120D01*
X98762400Y-92580120D01*
X98801313Y-92621681D01*
X98903824Y-92702309D01*
X99048590Y-92805323D01*
X99063848Y-92815723D01*
X99212105Y-92924956D01*
X99412136Y-93084277D01*
X99641045Y-93274875D01*
X99875937Y-93477936D01*
X99951967Y-93545464D01*
X100316540Y-93857136D01*
X100638575Y-94095667D01*
X100936782Y-94268982D01*
X101229870Y-94385003D01*
X101536551Y-94451654D01*
X101875532Y-94476859D01*
X102144508Y-94473996D01*
X102406852Y-94457698D01*
X102613969Y-94431227D01*
X102745457Y-94397427D01*
X102765322Y-94387429D01*
X102873865Y-94281830D01*
X102945827Y-94142510D01*
X102965510Y-94007857D01*
X102945956Y-93945688D01*
X102893777Y-93881014D01*
X102818576Y-93833413D01*
X102699067Y-93795356D01*
X102513966Y-93759314D01*
X102343800Y-93732717D01*
X101854156Y-93624175D01*
X101384433Y-93443328D01*
X100910318Y-93180212D01*
X100769000Y-93087416D01*
X100547173Y-92947119D01*
X100321382Y-92821136D01*
X100124468Y-92727060D01*
X100032400Y-92692809D01*
X99892012Y-92660216D01*
X99701615Y-92629196D01*
X99483674Y-92601743D01*
X99260651Y-92579850D01*
X99055011Y-92565510D01*
X98889218Y-92560717D01*
X98785734Y-92567464D01*
X98762400Y-92580120D01*
X98337674Y-92580120D01*
X98191960Y-92505014D01*
X98055176Y-92442450D01*
X97979904Y-92420152D01*
X97972655Y-92422411D01*
X97990488Y-92469825D01*
X98052175Y-92584579D01*
X98147341Y-92748091D01*
X98236262Y-92894490D01*
X98506521Y-93289367D01*
X98818266Y-93673435D01*
X99149448Y-94022497D01*
X99478018Y-94312355D01*
X99630929Y-94425131D01*
X99808845Y-94544313D01*
X99936371Y-94616382D01*
X100046626Y-94652095D01*
X100172731Y-94662206D01*
X100346566Y-94657520D01*
X100574196Y-94657374D01*
X100751909Y-94684694D01*
X100929655Y-94748248D01*
X100972488Y-94767397D01*
X101208183Y-94900154D01*
X101429852Y-95068953D01*
X101613554Y-95251974D01*
X101735349Y-95427398D01*
X101759508Y-95484723D01*
X101778629Y-95693704D01*
X101710047Y-95897809D01*
X101565140Y-96069671D01*
X101495956Y-96118697D01*
X101347130Y-96194515D01*
X101213783Y-96220980D01*
X101082164Y-96191356D01*
X100938525Y-96098908D01*
X100769116Y-95936901D01*
X100560187Y-95698599D01*
X100506527Y-95634020D01*
X100307959Y-95402107D01*
X100125413Y-95212455D01*
X99929433Y-95037750D01*
X99690566Y-94850682D01*
X99661404Y-94829172D01*
X99981630Y-94829172D01*
X100014297Y-94864951D01*
X100101314Y-94956240D01*
X100226160Y-95085750D01*
X100273700Y-95134811D01*
X100461240Y-95333586D01*
X100666359Y-95559320D01*
X100835495Y-95752539D01*
X100995246Y-95928730D01*
X101117730Y-96028452D01*
X101222352Y-96059558D01*
X101328516Y-96029906D01*
X101405396Y-95983244D01*
X101531947Y-95882384D01*
X101590829Y-95781804D01*
X101606342Y-95638602D01*
X101606422Y-95628317D01*
X101558979Y-95456170D01*
X101420834Y-95272380D01*
X101200618Y-95086645D01*
X101023000Y-94972635D01*
X100873917Y-94893872D01*
X100739032Y-94848981D01*
X100578756Y-94828915D01*
X100375330Y-94824600D01*
X100189862Y-94825142D01*
X100051399Y-94826581D01*
X99984373Y-94828633D01*
X99981630Y-94829172D01*
X99661404Y-94829172D01*
X99549800Y-94746855D01*
X99132021Y-94411696D01*
X98727117Y-94020625D01*
X98348159Y-93594711D01*
X98123059Y-93343837D01*
X97919902Y-93159944D01*
X97713045Y-93020245D01*
X97682051Y-93002763D01*
X97521251Y-92921350D01*
X97318246Y-92829203D01*
X97093114Y-92734117D01*
X96865932Y-92643888D01*
X96656780Y-92566310D01*
X96485735Y-92509178D01*
X96372875Y-92480288D01*
X96338948Y-92481318D01*
X96350824Y-92533391D01*
X96407979Y-92640298D01*
X96462410Y-92725530D01*
X96556919Y-92874951D01*
X96676388Y-93077008D01*
X96798817Y-93294242D01*
X96829939Y-93351400D01*
X96961307Y-93590411D01*
X97072447Y-93773388D01*
X97181550Y-93919436D01*
X97306809Y-94047658D01*
X97466417Y-94177158D01*
X97678567Y-94327041D01*
X97901225Y-94476380D01*
X98333502Y-94780723D01*
X98670653Y-95055753D01*
X98914333Y-95303064D01*
X99066200Y-95524248D01*
X99113158Y-95642239D01*
X99161205Y-95909641D01*
X99165320Y-96180299D01*
X99127210Y-96419526D01*
X99067756Y-96564500D01*
X98989835Y-96683093D01*
X98940981Y-96724068D01*
X98903100Y-96699798D01*
X98892735Y-96684196D01*
X98892600Y-96612043D01*
X98927500Y-96490222D01*
X98940537Y-96457228D01*
X99008772Y-96170006D01*
X98994930Y-95846985D01*
X98961095Y-95694259D01*
X98890020Y-95534226D01*
X98758292Y-95360322D01*
X98558790Y-95165915D01*
X98284392Y-94944371D01*
X97927977Y-94689059D01*
X97759185Y-94574881D01*
X97455685Y-94364954D01*
X97217938Y-94184925D01*
X97054228Y-94041394D01*
X96980342Y-93954434D01*
X96910107Y-93846337D01*
X96864930Y-93787060D01*
X96859343Y-93783200D01*
X96870699Y-93826837D01*
X96913433Y-93944503D01*
X96980119Y-94116332D01*
X97035002Y-94253100D01*
X97150262Y-94543801D01*
X97225561Y-94752797D01*
X97263419Y-94890676D01*
X97266354Y-94968027D01*
X97236885Y-94995438D01*
X97211192Y-94993809D01*
X97147967Y-94936365D01*
X97075601Y-94800304D01*
X97026820Y-94672200D01*
X96921659Y-94391177D01*
X96785083Y-94073870D01*
X96626601Y-93738164D01*
X96455721Y-93401946D01*
X96281955Y-93083104D01*
X96114810Y-92799525D01*
X95963795Y-92569095D01*
X95838421Y-92409701D01*
X95807522Y-92378678D01*
X95677329Y-92303220D01*
X95463456Y-92231211D01*
X95183820Y-92166657D01*
X94856339Y-92113564D01*
X94498932Y-92075939D01*
X94431699Y-92071043D01*
X94208758Y-92052127D01*
X94071228Y-92029490D01*
X94002923Y-91999266D01*
X93987199Y-91964893D01*
X94001216Y-91930285D01*
X94054911Y-91910993D01*
X94165751Y-91905420D01*
X94351204Y-91911969D01*
X94482500Y-91919608D01*
X94770310Y-91945936D01*
X95088832Y-91988114D01*
X95378849Y-92038047D01*
X95436200Y-92049974D01*
X95840895Y-92148403D01*
X96262607Y-92269626D01*
X96681945Y-92406542D01*
X97079515Y-92552045D01*
X97435926Y-92699034D01*
X97731786Y-92840404D01*
X97947700Y-92969053D01*
X97950214Y-92970837D01*
X98050371Y-93033194D01*
X98091659Y-93032785D01*
X98073342Y-92964695D01*
X97994683Y-92824008D01*
X97907524Y-92686175D01*
X97823022Y-92563221D01*
X97736967Y-92461385D01*
X97631489Y-92366212D01*
X97488718Y-92263247D01*
X97290785Y-92138036D01*
X97056624Y-91997875D01*
X96719571Y-91803023D01*
X96355985Y-91600768D01*
X95978983Y-91397686D01*
X95601678Y-91200352D01*
X95237186Y-91015344D01*
X94898620Y-90849238D01*
X94599095Y-90708608D01*
X94351727Y-90600033D01*
X94169629Y-90530088D01*
X94083069Y-90506828D01*
X93847919Y-90502949D01*
X93570552Y-90544707D01*
X93294041Y-90622530D01*
X93061461Y-90726845D01*
X93042876Y-90737995D01*
X92916214Y-90798603D01*
X92847686Y-90791100D01*
X92845224Y-90787657D01*
X92841898Y-90701968D01*
X92921873Y-90613745D01*
X93067201Y-90528898D01*
X93259933Y-90453334D01*
X93482123Y-90392963D01*
X93715821Y-90353692D01*
X93943080Y-90341430D01*
X94141070Y-90361068D01*
X94397181Y-90413532D01*
X94249086Y-90256866D01*
X94091283Y-90063860D01*
X94008851Y-89888941D01*
X93987200Y-89720515D01*
X93995549Y-89679136D01*
X94146871Y-89679136D01*
X94167640Y-89821686D01*
X94221531Y-89952703D01*
X94324073Y-90101194D01*
X94499349Y-90261691D01*
X94753911Y-90438890D01*
X95094306Y-90637485D01*
X95403646Y-90800137D01*
X95680930Y-90942657D01*
X95925597Y-91072841D01*
X96161359Y-91204209D01*
X96411930Y-91350283D01*
X96701024Y-91524584D01*
X97043980Y-91735455D01*
X97245865Y-91855180D01*
X97472986Y-91981744D01*
X97705056Y-92104807D01*
X97921789Y-92214027D01*
X98102901Y-92299063D01*
X98228105Y-92349574D01*
X98267100Y-92358975D01*
X98305171Y-92324156D01*
X98305200Y-92322682D01*
X98276496Y-92268998D01*
X98198629Y-92152393D01*
X98083959Y-91990801D01*
X97963737Y-91827382D01*
X97841044Y-91675816D01*
X97662180Y-91472029D01*
X97438427Y-91227485D01*
X97181070Y-90953651D01*
X96901391Y-90661992D01*
X96610674Y-90363973D01*
X96320203Y-90071060D01*
X96041261Y-89794718D01*
X95785130Y-89546413D01*
X95563096Y-89337610D01*
X95386440Y-89179774D01*
X95266446Y-89084372D01*
X95260010Y-89080029D01*
X95017666Y-88963987D01*
X94791567Y-88947865D01*
X94580914Y-89031888D01*
X94384902Y-89216280D01*
X94288815Y-89351403D01*
X94185892Y-89534628D01*
X94146871Y-89679136D01*
X93995549Y-89679136D01*
X94030307Y-89506888D01*
X94145325Y-89281222D01*
X94310797Y-89069569D01*
X94505267Y-88897978D01*
X94707280Y-88792500D01*
X94763356Y-88778157D01*
X94991685Y-88784944D01*
X95248927Y-88881030D01*
X95526704Y-89061201D01*
X95816641Y-89320248D01*
X96049776Y-89578439D01*
X96223621Y-89773121D01*
X96441693Y-89996377D01*
X96669049Y-90213104D01*
X96781200Y-90313177D01*
X97299822Y-90805079D01*
X97803254Y-91364556D01*
X98261844Y-91958619D01*
X98267857Y-91967100D01*
X98582682Y-92411600D01*
X99066241Y-92412841D01*
X99493663Y-92430211D01*
X99857334Y-92482673D01*
X100087323Y-92541188D01*
X100078000Y-92514317D01*
X100006238Y-92425437D01*
X99881129Y-92284688D01*
X99711767Y-92102212D01*
X99507243Y-91888151D01*
X99436599Y-91815401D01*
X99012655Y-91373524D01*
X98946869Y-91301893D01*
X99153170Y-91301893D01*
X99656285Y-91809960D01*
X100084389Y-92230640D01*
X100464047Y-92577101D01*
X100806311Y-92857483D01*
X101122232Y-93079921D01*
X101422865Y-93252554D01*
X101719262Y-93383518D01*
X101861200Y-93433300D01*
X102068775Y-93496297D01*
X102188655Y-93519883D01*
X102227525Y-93502256D01*
X102192073Y-93441614D01*
X102117954Y-93364100D01*
X102025703Y-93248542D01*
X101910524Y-93067415D01*
X101789266Y-92848641D01*
X101708929Y-92686214D01*
X101589632Y-92450166D01*
X101460453Y-92224786D01*
X101339979Y-92041204D01*
X101274027Y-91957798D01*
X101185838Y-91870263D01*
X101043977Y-91740830D01*
X100863245Y-91581906D01*
X100658444Y-91405901D01*
X100444373Y-91225222D01*
X100235833Y-91052278D01*
X100047625Y-90899476D01*
X99894550Y-90779226D01*
X99791407Y-90703934D01*
X99755099Y-90684400D01*
X99732205Y-90726820D01*
X99727600Y-90779149D01*
X99684951Y-90913621D01*
X99574454Y-91057038D01*
X99422283Y-91179838D01*
X99330255Y-91227902D01*
X99153170Y-91301893D01*
X98946869Y-91301893D01*
X98661163Y-90990808D01*
X98377339Y-90660408D01*
X98156396Y-90375479D01*
X97993548Y-90129177D01*
X97884011Y-89914655D01*
X97822998Y-89725069D01*
X97805723Y-89553575D01*
X97806464Y-89542227D01*
X97970279Y-89542227D01*
X97977235Y-89690927D01*
X98020762Y-89834941D01*
X98098983Y-89991456D01*
X98174954Y-90120257D01*
X98271828Y-90263237D01*
X98403784Y-90436113D01*
X98555529Y-90621409D01*
X98711774Y-90801652D01*
X98857227Y-90959367D01*
X98976600Y-91077079D01*
X99054600Y-91137314D01*
X99068649Y-91141600D01*
X99144319Y-91125012D01*
X99239664Y-91092828D01*
X99434635Y-90983698D01*
X99543153Y-90834615D01*
X99565878Y-90641101D01*
X99503469Y-90398680D01*
X99379500Y-90142848D01*
X99102446Y-89603632D01*
X98853692Y-89028428D01*
X98684161Y-88556865D01*
X98547288Y-88131130D01*
X98345696Y-88556865D01*
X98187601Y-88896161D01*
X98073585Y-89162029D01*
X98001769Y-89371656D01*
X97970279Y-89542227D01*
X97806464Y-89542227D01*
X97809952Y-89488830D01*
X97841462Y-89353712D01*
X97907908Y-89155840D01*
X97999059Y-88923465D01*
X98088662Y-88719182D01*
X98200979Y-88463661D01*
X98305771Y-88203175D01*
X98389479Y-87972614D01*
X98430460Y-87839600D01*
X98567882Y-87369262D01*
X98652980Y-87136381D01*
X98932065Y-87136381D01*
X98985279Y-87352012D01*
X99093646Y-87625427D01*
X99246064Y-87937384D01*
X99431433Y-88268642D01*
X99638649Y-88599958D01*
X99856613Y-88912092D01*
X100074222Y-89185801D01*
X100185029Y-89308097D01*
X100328862Y-89452060D01*
X100430551Y-89541651D01*
X100481735Y-89570679D01*
X100474049Y-89532952D01*
X100462836Y-89513793D01*
X100441180Y-89446937D01*
X100404396Y-89300121D01*
X100357103Y-89093052D01*
X100303921Y-88845431D01*
X100287162Y-88764493D01*
X100171302Y-88261791D01*
X100042112Y-87810876D01*
X99903152Y-87418863D01*
X99757980Y-87092868D01*
X99610156Y-86840007D01*
X99463239Y-86667395D01*
X99320789Y-86582148D01*
X99197730Y-86586615D01*
X99083169Y-86676746D01*
X98989759Y-86830494D01*
X98935833Y-87009919D01*
X98932065Y-87136381D01*
X98652980Y-87136381D01*
X98703704Y-86997569D01*
X98839124Y-86721604D01*
X98954664Y-86560278D01*
X99075626Y-86440618D01*
X99182075Y-86383194D01*
X99317290Y-86366675D01*
X99348009Y-86366400D01*
X99516819Y-86392500D01*
X99755382Y-86465698D01*
X100047868Y-86578336D01*
X100378447Y-86722757D01*
X100731287Y-86891304D01*
X101090560Y-87076321D01*
X101440433Y-87270150D01*
X101765078Y-87465134D01*
X102048663Y-87653618D01*
X102127375Y-87710730D01*
X102475980Y-87996006D01*
X102744306Y-88280930D01*
X102950477Y-88590423D01*
X103112622Y-88949407D01*
X103186459Y-89166815D01*
X103365002Y-89636322D01*
X103590058Y-90030424D01*
X103874899Y-90369724D01*
X104082380Y-90557516D01*
X104344327Y-90756640D01*
X104605683Y-90925050D01*
X104846654Y-91051913D01*
X105047448Y-91126395D01*
X105149456Y-91141600D01*
X105280090Y-91112353D01*
X105358245Y-91012209D01*
X105401422Y-90908854D01*
X105417200Y-90856038D01*
X105384819Y-90809008D01*
X105298994Y-90708441D01*
X105176700Y-90574040D01*
X105145684Y-90540928D01*
X104808705Y-90168890D01*
X104520725Y-89821893D01*
X104290927Y-89511774D01*
X104128493Y-89250375D01*
X104096919Y-89188737D01*
X104025329Y-89010367D01*
X103947051Y-88766627D01*
X103872521Y-88492295D01*
X103822928Y-88275713D01*
X103771310Y-88026467D01*
X103950755Y-88026467D01*
X103968112Y-88163432D01*
X104003393Y-88348425D01*
X104051048Y-88556775D01*
X104105532Y-88763811D01*
X104161299Y-88944864D01*
X104201726Y-89051283D01*
X104307253Y-89243899D01*
X104477130Y-89492741D01*
X104701501Y-89784639D01*
X104970511Y-90106420D01*
X105109030Y-90263642D01*
X105239540Y-90408078D01*
X105341365Y-90518244D01*
X105397997Y-90576377D01*
X105404075Y-90581142D01*
X105430108Y-90539185D01*
X105492250Y-90423483D01*
X105581442Y-90251298D01*
X105688622Y-90039890D01*
X105698368Y-90020472D01*
X105865073Y-89667289D01*
X105975363Y-89380463D01*
X106033424Y-89144802D01*
X106043440Y-88945115D01*
X106026569Y-88829177D01*
X105937266Y-88616046D01*
X105779391Y-88404080D01*
X105580842Y-88226318D01*
X105452254Y-88149073D01*
X105348115Y-88108038D01*
X105181515Y-88052612D01*
X104973939Y-87988837D01*
X104746869Y-87922752D01*
X104521790Y-87860397D01*
X104320186Y-87807811D01*
X104163541Y-87771033D01*
X104073339Y-87756105D01*
X104060442Y-87757798D01*
X104094291Y-87789203D01*
X104193897Y-87865573D01*
X104341724Y-87973696D01*
X104441442Y-88044895D01*
X104765836Y-88305867D01*
X105002551Y-88575381D01*
X105164672Y-88874985D01*
X105265282Y-89226230D01*
X105300296Y-89459337D01*
X105308187Y-89631213D01*
X105288238Y-89712206D01*
X105249174Y-89706223D01*
X105199720Y-89617173D01*
X105148601Y-89448965D01*
X105134536Y-89385082D01*
X105053909Y-89064906D01*
X104951804Y-88814482D01*
X104814176Y-88602237D01*
X104754237Y-88530242D01*
X104641346Y-88418033D01*
X104493460Y-88292765D01*
X104331450Y-88169307D01*
X104176185Y-88062526D01*
X104048535Y-87987288D01*
X103969369Y-87958463D01*
X103956866Y-87962200D01*
X103950755Y-88026467D01*
X103771310Y-88026467D01*
X103697573Y-87670427D01*
X103336301Y-87333373D01*
X102975029Y-86996320D01*
X102557814Y-86993459D01*
X102122375Y-86948611D01*
X101732958Y-86823823D01*
X101399279Y-86624362D01*
X101131052Y-86355499D01*
X100996855Y-86146865D01*
X100926376Y-86000096D01*
X100903514Y-85891268D01*
X100916269Y-85808481D01*
X101081595Y-85808481D01*
X101094432Y-85961768D01*
X101117434Y-86025929D01*
X101213640Y-86179017D01*
X101370425Y-86352788D01*
X101558666Y-86520220D01*
X101749237Y-86654292D01*
X101851567Y-86707056D01*
X102059150Y-86774513D01*
X102290381Y-86818443D01*
X102520026Y-86837796D01*
X102722852Y-86831526D01*
X102873624Y-86798585D01*
X102939860Y-86752244D01*
X102960220Y-86650585D01*
X102942065Y-86498840D01*
X102893565Y-86337161D01*
X102830860Y-86216538D01*
X102681568Y-86061420D01*
X102460980Y-85903325D01*
X102197269Y-85759970D01*
X101938877Y-85655691D01*
X101732439Y-85572265D01*
X101574152Y-85479829D01*
X101511148Y-85422115D01*
X101413934Y-85298527D01*
X101276969Y-85461300D01*
X101140096Y-85649957D01*
X101081595Y-85808481D01*
X100916269Y-85808481D01*
X100921846Y-85772290D01*
X100938841Y-85712532D01*
X101018481Y-85547914D01*
X101159059Y-85349650D01*
X101338451Y-85142607D01*
X101534532Y-84951649D01*
X101725181Y-84801641D01*
X101779927Y-84767220D01*
X102121095Y-84613800D01*
X102449015Y-84557323D01*
X102712099Y-84586035D01*
X102822497Y-84622134D01*
X103010959Y-84693124D01*
X103262554Y-84792979D01*
X103562349Y-84915671D01*
X103895413Y-85055176D01*
X104245832Y-85205042D01*
X104630660Y-85370669D01*
X104933662Y-85498989D01*
X105165893Y-85593876D01*
X105338406Y-85659203D01*
X105462257Y-85698844D01*
X105548499Y-85716672D01*
X105608186Y-85716560D01*
X105652374Y-85702382D01*
X105657560Y-85699705D01*
X105854874Y-85563659D01*
X106082038Y-85357053D01*
X106321079Y-85098968D01*
X106554024Y-84808484D01*
X106719678Y-84572073D01*
X107488553Y-83472623D01*
X108294300Y-82467124D01*
X109139420Y-81553917D01*
X110026412Y-80731344D01*
X110957774Y-79997748D01*
X111936007Y-79351469D01*
X112963608Y-78790850D01*
X114043077Y-78314233D01*
X115176914Y-77919960D01*
X116367617Y-77606373D01*
X117558400Y-77380961D01*
X117949161Y-77322628D01*
X118329885Y-77271726D01*
X118711394Y-77227614D01*
X119104513Y-77189655D01*
X119520065Y-77157210D01*
X119968872Y-77129639D01*
X120461758Y-77106304D01*
X121009546Y-77086566D01*
X121623060Y-77069785D01*
X122313121Y-77055323D01*
X123090555Y-77042540D01*
X123354663Y-77038768D01*
X123983985Y-77028930D01*
X124538359Y-77017948D01*
X125013483Y-77005966D01*
X125405059Y-76993129D01*
X125708786Y-76979583D01*
X125920364Y-76965473D01*
X126035493Y-76950942D01*
X126046467Y-76948031D01*
X126150823Y-76906187D01*
X126228306Y-76848703D01*
X126281673Y-76762144D01*
X126313683Y-76633076D01*
X126327094Y-76448063D01*
X126324665Y-76193670D01*
X126309154Y-75856461D01*
X126300742Y-75709543D01*
X126257265Y-75153202D01*
X126197015Y-74687861D01*
X126118205Y-74304033D01*
X126019053Y-73992228D01*
X125947811Y-73833327D01*
X125861201Y-73694450D01*
X125735619Y-73548631D01*
X125560487Y-73386637D01*
X125325225Y-73199231D01*
X125019255Y-72977177D01*
X124768643Y-72803883D01*
X124161089Y-72351368D01*
X123653159Y-71890476D01*
X123245300Y-71421720D01*
X122937957Y-70945608D01*
X122732647Y-70466000D01*
X122680511Y-70239063D01*
X123869803Y-70239063D01*
X123880297Y-70285855D01*
X123921166Y-70398563D01*
X123965476Y-70508830D01*
X124030039Y-70651330D01*
X124094396Y-70733466D01*
X124183719Y-70764565D01*
X124323179Y-70753958D01*
X124520824Y-70714648D01*
X124782648Y-70658497D01*
X125009832Y-70879748D01*
X125164612Y-71035927D01*
X125255108Y-71154081D01*
X125291805Y-71264979D01*
X125285190Y-71399383D01*
X125247974Y-71578443D01*
X125212147Y-71744216D01*
X125190907Y-71864123D01*
X125188685Y-71910997D01*
X125240167Y-71934485D01*
X125356465Y-71983712D01*
X125457800Y-72025596D01*
X125711800Y-72129702D01*
X125798753Y-72021751D01*
X125884306Y-71900419D01*
X125971956Y-71755012D01*
X125975406Y-71748700D01*
X126033969Y-71654412D01*
X126099572Y-71605156D01*
X126205349Y-71586404D01*
X126352002Y-71583600D01*
X126608980Y-71589836D01*
X126789281Y-71615236D01*
X126917415Y-71669837D01*
X127017894Y-71763675D01*
X127106533Y-71892560D01*
X127257693Y-72138226D01*
X127526146Y-72029552D01*
X127674265Y-71968927D01*
X127778086Y-71925185D01*
X127809794Y-71910610D01*
X127806789Y-71860048D01*
X127784508Y-71736857D01*
X127747704Y-71567128D01*
X127745507Y-71557625D01*
X127706204Y-71379648D01*
X127695137Y-71256400D01*
X127723341Y-71160446D01*
X127801850Y-71064352D01*
X127941700Y-70940684D01*
X128020061Y-70875027D01*
X128255886Y-70677583D01*
X128557904Y-70747790D01*
X128722179Y-70779323D01*
X128844559Y-70790476D01*
X128892807Y-70781698D01*
X128930585Y-70717254D01*
X128990848Y-70592644D01*
X129029916Y-70505170D01*
X129134140Y-70264940D01*
X128859510Y-70098770D01*
X128725383Y-70012176D01*
X128638777Y-69931193D01*
X128592663Y-69833168D01*
X128580014Y-69695446D01*
X128593803Y-69495374D01*
X128614917Y-69310303D01*
X128639786Y-69153138D01*
X128683433Y-69052660D01*
X128770778Y-68971309D01*
X128891793Y-68892954D01*
X129136635Y-68742301D01*
X129031163Y-68499250D01*
X128965281Y-68354354D01*
X128912307Y-68249993D01*
X128893492Y-68220586D01*
X128831478Y-68213936D01*
X128700543Y-68231169D01*
X128536402Y-68266813D01*
X128211512Y-68348653D01*
X127949839Y-68067505D01*
X127688166Y-67786356D01*
X127751931Y-67513278D01*
X127787968Y-67349283D01*
X127812062Y-67221291D01*
X127817847Y-67174894D01*
X127775941Y-67119657D01*
X127669523Y-67052106D01*
X127531901Y-66987393D01*
X127396379Y-66940670D01*
X127296266Y-66927087D01*
X127280812Y-66930591D01*
X127218186Y-66986873D01*
X127135310Y-67099985D01*
X127100425Y-67157156D01*
X127019232Y-67275392D01*
X126923583Y-67352028D01*
X126790400Y-67395603D01*
X126596604Y-67414659D01*
X126395607Y-67418000D01*
X126101514Y-67418000D01*
X125938682Y-67151300D01*
X125851553Y-67009403D01*
X125788169Y-66907690D01*
X125764494Y-66871403D01*
X125715654Y-66881932D01*
X125601411Y-66922902D01*
X125491169Y-66967076D01*
X125347395Y-67032471D01*
X125265225Y-67097843D01*
X125235411Y-67188464D01*
X125248702Y-67329605D01*
X125289366Y-67518505D01*
X125349533Y-67779162D01*
X125073466Y-68054775D01*
X124797400Y-68330389D01*
X124518000Y-68255797D01*
X124314388Y-68204979D01*
X124183365Y-68191226D01*
X124099813Y-68223740D01*
X124038616Y-68311726D01*
X123979009Y-68453286D01*
X123871819Y-68726371D01*
X124114079Y-68872285D01*
X124246968Y-68963512D01*
X124334274Y-69061616D01*
X124385311Y-69190146D01*
X124409393Y-69372651D01*
X124415835Y-69632677D01*
X124415840Y-69635204D01*
X124412586Y-69753956D01*
X124392647Y-69844710D01*
X124341646Y-69923366D01*
X124245208Y-70005822D01*
X124088954Y-70107979D01*
X123869803Y-70239063D01*
X122680511Y-70239063D01*
X122639963Y-70062573D01*
X122597609Y-69607501D01*
X122606535Y-69137929D01*
X122667689Y-68691006D01*
X122685271Y-68611800D01*
X122877776Y-68011243D01*
X123155201Y-67457714D01*
X123510320Y-66959214D01*
X123935905Y-66523743D01*
X124424729Y-66159303D01*
X124969566Y-65873895D01*
X125257013Y-65764574D01*
X125861354Y-65612679D01*
X126466923Y-65557908D01*
X127063925Y-65596925D01*
X127063925Y-65596925D01*
G37*
X127063925Y-65596925D02*
X127642565Y-65726395D01*
X128193048Y-65942983D01*
X128705581Y-66243354D01*
X129170368Y-66624171D01*
X129577614Y-67082100D01*
X129721317Y-67284773D01*
X130040647Y-67846283D01*
X130261419Y-68415152D01*
X130383780Y-68986136D01*
X130407874Y-69553990D01*
X130333851Y-70113471D01*
X130161856Y-70659333D01*
X129892037Y-71186334D01*
X129600544Y-71597430D01*
X129390725Y-71841787D01*
X129163397Y-72071090D01*
X128902862Y-72298452D01*
X128593422Y-72536989D01*
X128219377Y-72799812D01*
X127931639Y-72991541D01*
X127585596Y-73226104D01*
X127318583Y-73430414D01*
X127119570Y-73621249D01*
X126977529Y-73815387D01*
X126881431Y-74029609D01*
X126820247Y-74280691D01*
X126782948Y-74585413D01*
X126770099Y-74758600D01*
X126773463Y-75320145D01*
X126823345Y-75774600D01*
X126882952Y-76154803D01*
X126944251Y-76449702D01*
X127020529Y-76671355D01*
X127125071Y-76831823D01*
X127271160Y-76943166D01*
X127472082Y-77017442D01*
X127741123Y-77066712D01*
X128091566Y-77103036D01*
X128305934Y-77120463D01*
X128633799Y-77146137D01*
X129011288Y-77175590D01*
X129386725Y-77204796D01*
X129648800Y-77225115D01*
X130483565Y-77300252D01*
X131238148Y-77390012D01*
X131908111Y-77493646D01*
X132489016Y-77610402D01*
X132976426Y-77739529D01*
X133255600Y-77835330D01*
X133508892Y-77945980D01*
X133783826Y-78092763D01*
X134089944Y-78282051D01*
X134436788Y-78520217D01*
X134833900Y-78813632D01*
X135290821Y-79168670D01*
X135490800Y-79328025D01*
X135844623Y-79610780D01*
X136128996Y-79835427D01*
X136353056Y-80008251D01*
X136525939Y-80135540D01*
X136656783Y-80223579D01*
X136754724Y-80278655D01*
X136828900Y-80307052D01*
X136888447Y-80315058D01*
X136921841Y-80312564D01*
X137036441Y-80246137D01*
X137136640Y-80085787D01*
X137220945Y-79838372D01*
X137287862Y-79510746D01*
X137335899Y-79109765D01*
X137363562Y-78642283D01*
X137370040Y-78254775D01*
X137379374Y-77733715D01*
X137410544Y-77285981D01*
X137469149Y-76884608D01*
X137560787Y-76502627D01*
X137691057Y-76113071D01*
X137865559Y-75688974D01*
X137934781Y-75534705D01*
X138047165Y-75271813D01*
X138130065Y-75044137D01*
X138176172Y-74872975D01*
X138183200Y-74810805D01*
X138191599Y-74690688D01*
X138233908Y-74641174D01*
X138333209Y-74631600D01*
X138527984Y-74657681D01*
X138672317Y-74725254D01*
X138756986Y-74818310D01*
X138772767Y-74920840D01*
X138710438Y-75016835D01*
X138591794Y-75080422D01*
X138431271Y-75180149D01*
X138277568Y-75356107D01*
X138133948Y-75593773D01*
X138003674Y-75878620D01*
X137890008Y-76196124D01*
X137796212Y-76531759D01*
X137725550Y-76870999D01*
X137681284Y-77199321D01*
X137666676Y-77502198D01*
X137684988Y-77765104D01*
X137739485Y-77973516D01*
X137833427Y-78112907D01*
X137901374Y-78154239D01*
X137975443Y-78167072D01*
X138132944Y-78184259D01*
X138355885Y-78204173D01*
X138626272Y-78225190D01*
X138881153Y-78242783D01*
X139365488Y-78267464D01*
X139812131Y-78276779D01*
X140208801Y-78271195D01*
X140543219Y-78251181D01*
X140803103Y-78217205D01*
X140976176Y-78169737D01*
X140992400Y-78162230D01*
X141147003Y-78098937D01*
X141250904Y-78100550D01*
X141333980Y-78170089D01*
X141355319Y-78198903D01*
X141425040Y-78358523D01*
X141416834Y-78506928D01*
X141354868Y-78596764D01*
X141285123Y-78632274D01*
X141199333Y-78612225D01*
X141113568Y-78564884D01*
X141054001Y-78533089D01*
X140985172Y-78509313D01*
X140892861Y-78492642D01*
X140762850Y-78482160D01*
X140580921Y-78476954D01*
X140332853Y-78476110D01*
X140004429Y-78478714D01*
X139808800Y-78480983D01*
X139452809Y-78483068D01*
X139108043Y-78480940D01*
X138795424Y-78475042D01*
X138535876Y-78465815D01*
X138350323Y-78453701D01*
X138310200Y-78449315D01*
X138096565Y-78430473D01*
X137935881Y-78433323D01*
X137865616Y-78449863D01*
X137779496Y-78530722D01*
X137703436Y-78683528D01*
X137634348Y-78917198D01*
X137569144Y-79240651D01*
X137548285Y-79366527D01*
X137487482Y-79740572D01*
X137437184Y-80028267D01*
X137394316Y-80243951D01*
X137355801Y-80401962D01*
X137318565Y-80516639D01*
X137285784Y-80590438D01*
X137248144Y-80683574D01*
X137241374Y-80776082D01*
X137272126Y-80884831D01*
X137347048Y-81026690D01*
X137472790Y-81218527D01*
X137610208Y-81413400D01*
X137955101Y-81950826D01*
X138236499Y-82505070D01*
X138437153Y-83039000D01*
X138587055Y-83486263D01*
X138733937Y-83833223D01*
X138878369Y-84081112D01*
X138965698Y-84184384D01*
X139129413Y-84344457D01*
X140392818Y-84352128D01*
X140787307Y-84353969D01*
X141093039Y-84353586D01*
X141322844Y-84350194D01*
X141489555Y-84343006D01*
X141606003Y-84331238D01*
X141685021Y-84314103D01*
X141739440Y-84290817D01*
X141773421Y-84267598D01*
X141888633Y-84205413D01*
X141961050Y-84234915D01*
X141991858Y-84356840D01*
X141993200Y-84403438D01*
X141968931Y-84565103D01*
X141901758Y-84648438D01*
X141800130Y-84643958D01*
X141785397Y-84636736D01*
X141668769Y-84601011D01*
X141470304Y-84568476D01*
X141209742Y-84540096D01*
X140906821Y-84516839D01*
X140581280Y-84499672D01*
X140252859Y-84489561D01*
X139941297Y-84487473D01*
X139666331Y-84494374D01*
X139447703Y-84511232D01*
X139389700Y-84519405D01*
X139267012Y-84552360D01*
X139209903Y-84610839D01*
X139216139Y-84711723D01*
X139283491Y-84871898D01*
X139330981Y-84963759D01*
X139424072Y-85153995D01*
X139523072Y-85379480D01*
X139580017Y-85522155D01*
X139676432Y-85771818D01*
X139751944Y-85944379D01*
X139819197Y-86058635D01*
X139890833Y-86133387D01*
X139979498Y-86187432D01*
X140048555Y-86218781D01*
X140189517Y-86291792D01*
X140254042Y-86365909D01*
X140265999Y-86436278D01*
X140221025Y-86565515D01*
X140104198Y-86694126D01*
X139942666Y-86798638D01*
X139785200Y-86852013D01*
X139646626Y-86868930D01*
X139562515Y-86845585D01*
X139522937Y-86766013D01*
X139517957Y-86614252D01*
X139530960Y-86443382D01*
X139540144Y-86172811D01*
X139510385Y-85912856D01*
X139435501Y-85639765D01*
X139309310Y-85329782D01*
X139163706Y-85032368D01*
X139024190Y-84785383D01*
X138870525Y-84552332D01*
X138715825Y-84349513D01*
X138573203Y-84193223D01*
X138455770Y-84099758D01*
X138397753Y-84080400D01*
X138322849Y-84115035D01*
X138206695Y-84205481D01*
X138084873Y-84321700D01*
X137854798Y-84611355D01*
X137637323Y-84981075D01*
X137442090Y-85409366D01*
X137278739Y-85874738D01*
X137156908Y-86355697D01*
X137144716Y-86417752D01*
X137092611Y-86727804D01*
X137071213Y-86964064D01*
X137081049Y-87149753D01*
X137122647Y-87308092D01*
X137167200Y-87407799D01*
X137233197Y-87536978D01*
X137259446Y-87606320D01*
X137248307Y-87648453D01*
X137202137Y-87696003D01*
X137188971Y-87708971D01*
X137063081Y-87773116D01*
X136893383Y-87788153D01*
X136724074Y-87755737D01*
X136608399Y-87687200D01*
X136536089Y-87604587D01*
X136516871Y-87533038D01*
X136555575Y-87445244D01*
X136657031Y-87313893D01*
X136679107Y-87287374D01*
X136788733Y-87130053D01*
X136868709Y-86944264D01*
X136934442Y-86693954D01*
X136936227Y-86685667D01*
X137051203Y-86176843D01*
X137162465Y-85749178D01*
X137277251Y-85382823D01*
X137402802Y-85057931D01*
X137546356Y-84754652D01*
X137715152Y-84453139D01*
X137802199Y-84311271D01*
X137926460Y-84104404D01*
X138035071Y-83907425D01*
X138112044Y-83750065D01*
X138134260Y-83693763D01*
X138175959Y-83423903D01*
X138146436Y-83099506D01*
X138049246Y-82734816D01*
X137887947Y-82344077D01*
X137718323Y-82027684D01*
X137517998Y-81708776D01*
X137287539Y-81374715D01*
X137043074Y-81046403D01*
X136800728Y-80744740D01*
X136576630Y-80490628D01*
X136393571Y-80310764D01*
X135948873Y-79937158D01*
X135468462Y-79560994D01*
X134971783Y-79195904D01*
X134478278Y-78855519D01*
X134007391Y-78553471D01*
X133578565Y-78303391D01*
X133385578Y-78201886D01*
X133143612Y-78090494D01*
X132878090Y-77989161D01*
X132583555Y-77897361D01*
X132254550Y-77814569D01*
X131885616Y-77740260D01*
X131471295Y-77673908D01*
X131006129Y-77614987D01*
X130484660Y-77562973D01*
X129901431Y-77517339D01*
X129250983Y-77477560D01*
X128527859Y-77443111D01*
X127726600Y-77413466D01*
X126841748Y-77388100D01*
X125867846Y-77366487D01*
X124799436Y-77348102D01*
X124467200Y-77343244D01*
X123332457Y-77333894D01*
X122289013Y-77339530D01*
X121327609Y-77360612D01*
X120438986Y-77397600D01*
X119613886Y-77450953D01*
X118843051Y-77521132D01*
X118117224Y-77608596D01*
X117609382Y-77683797D01*
X116439014Y-77906756D01*
X115333274Y-78192213D01*
X114286485Y-78543907D01*
X113292967Y-78965574D01*
X112347044Y-79460951D01*
X111443036Y-80033778D01*
X110575266Y-80687790D01*
X109738056Y-81426725D01*
X108925729Y-82254321D01*
X108132604Y-83174315D01*
X107353006Y-84190445D01*
X107025924Y-84650112D01*
X106784685Y-84966578D01*
X106504047Y-85288201D01*
X106244993Y-85548850D01*
X105807873Y-85954075D01*
X105967402Y-86135769D01*
X106071691Y-86273898D01*
X106145219Y-86406300D01*
X106159343Y-86446600D01*
X106173336Y-86602425D01*
X106159905Y-86798582D01*
X106124032Y-86979109D01*
X106107683Y-87026800D01*
X106125181Y-87101312D01*
X106233049Y-87198720D01*
X106305878Y-87247364D01*
X106434695Y-87341084D01*
X106517731Y-87425468D01*
X106534800Y-87463264D01*
X106512491Y-87523760D01*
X106439821Y-87519399D01*
X106308172Y-87447847D01*
X106197673Y-87371970D01*
X106092925Y-87299898D01*
X106002289Y-87252906D01*
X105900089Y-87225519D01*
X105760646Y-87212260D01*
X105558283Y-87207651D01*
X105423653Y-87206870D01*
X105176820Y-87204136D01*
X105004598Y-87194833D01*
X104880009Y-87173666D01*
X104776071Y-87135339D01*
X104665806Y-87074555D01*
X104626084Y-87050301D01*
X104528457Y-86983940D01*
X104438809Y-86905113D01*
X104345859Y-86799318D01*
X104238327Y-86652048D01*
X104104933Y-86448799D01*
X103934398Y-86175067D01*
X103893200Y-86107905D01*
X103729382Y-85842072D01*
X103575127Y-85594839D01*
X103441697Y-85384026D01*
X103340354Y-85227454D01*
X103288654Y-85151425D01*
X103188422Y-85054680D01*
X103448854Y-85054680D01*
X103471987Y-85114186D01*
X103510407Y-85175044D01*
X103571862Y-85271291D01*
X103673635Y-85434684D01*
X103803488Y-85645418D01*
X103949187Y-85883687D01*
X104011064Y-85985400D01*
X104195259Y-86285547D01*
X104339914Y-86511154D01*
X104456177Y-86675732D01*
X104555196Y-86792793D01*
X104648120Y-86875850D01*
X104746097Y-86938413D01*
X104833000Y-86981585D01*
X105041228Y-87043728D01*
X105305052Y-87074545D01*
X105582505Y-87071077D01*
X105760661Y-87047007D01*
X105907310Y-86972595D01*
X105996768Y-86834065D01*
X106024379Y-86654267D01*
X105985486Y-86456047D01*
X105910797Y-86310412D01*
X105800987Y-86187305D01*
X105642262Y-86054734D01*
X105527723Y-85977707D01*
X105408178Y-85913872D01*
X105213682Y-85818925D01*
X104962875Y-85701287D01*
X104674397Y-85569383D01*
X104366890Y-85431633D01*
X104058994Y-85296461D01*
X103769349Y-85172290D01*
X103516597Y-85067541D01*
X103486937Y-85055596D01*
X103448854Y-85054680D01*
X103188422Y-85054680D01*
X103129385Y-84997697D01*
X102906763Y-84865917D01*
X102658970Y-84774366D01*
X102432146Y-84741296D01*
X102188235Y-84778238D01*
X101933945Y-84876682D01*
X101716320Y-85016516D01*
X101656090Y-85073032D01*
X101580746Y-85161582D01*
X101572332Y-85220563D01*
X101626140Y-85292451D01*
X101631154Y-85298003D01*
X101729308Y-85371961D01*
X101883849Y-85454050D01*
X101999247Y-85502570D01*
X102406975Y-85682431D01*
X102719115Y-85883380D01*
X102940414Y-86110541D01*
X103075621Y-86369039D01*
X103129487Y-86663998D01*
X103130916Y-86723735D01*
X103143822Y-86833672D01*
X103192834Y-86936992D01*
X103293973Y-87060248D01*
X103397900Y-87166243D01*
X103520338Y-87280731D01*
X103639059Y-87372588D01*
X103771663Y-87449435D01*
X103935750Y-87518894D01*
X104148917Y-87588585D01*
X104428765Y-87666131D01*
X104731400Y-87743708D01*
X105095462Y-87844072D01*
X105378484Y-87944909D01*
X105600567Y-88056363D01*
X105781808Y-88188578D01*
X105942307Y-88351699D01*
X105947070Y-88357245D01*
X106098778Y-88570831D01*
X106186727Y-88792009D01*
X106210172Y-89033972D01*
X106168367Y-89309915D01*
X106060568Y-89633033D01*
X105886029Y-90016519D01*
X105849194Y-90089590D01*
X105712892Y-90369154D01*
X105625212Y-90581366D01*
X105579555Y-90744157D01*
X105568851Y-90851590D01*
X105540755Y-91092263D01*
X105454520Y-91255456D01*
X105304258Y-91350821D01*
X105255454Y-91365331D01*
X105152354Y-91382698D01*
X105050256Y-91374135D01*
X104921701Y-91332801D01*
X104739231Y-91251855D01*
X104672515Y-91220092D01*
X104467313Y-91124841D01*
X104202070Y-91006347D01*
X103910868Y-90879629D01*
X103627786Y-90759701D01*
X103624626Y-90758385D01*
X103209013Y-90579546D01*
X102874894Y-90421303D01*
X102606658Y-90274367D01*
X102388694Y-90129448D01*
X102205391Y-89977259D01*
X102055774Y-89824869D01*
X101830408Y-89545910D01*
X101576534Y-89178925D01*
X101299106Y-88731818D01*
X101003079Y-88212493D01*
X100761070Y-87759710D01*
X100616886Y-87485101D01*
X100506211Y-87284091D01*
X100416551Y-87139690D01*
X100343931Y-87045910D01*
X100605955Y-87045910D01*
X100618867Y-87098496D01*
X100674276Y-87224347D01*
X100764295Y-87408499D01*
X100881034Y-87635993D01*
X101016606Y-87891866D01*
X101163121Y-88161156D01*
X101312692Y-88428903D01*
X101457430Y-88680144D01*
X101546119Y-88829063D01*
X101817387Y-89254708D01*
X102062753Y-89591240D01*
X102288125Y-89846038D01*
X102499410Y-90026484D01*
X102511218Y-90034728D01*
X102629301Y-90105574D01*
X102806280Y-90199072D01*
X103020872Y-90305368D01*
X103251794Y-90414610D01*
X103477761Y-90516944D01*
X103677491Y-90602516D01*
X103829699Y-90661475D01*
X103913102Y-90683966D01*
X103913632Y-90683974D01*
X103902963Y-90650867D01*
X103834399Y-90562392D01*
X103721458Y-90435454D01*
X103678235Y-90389559D01*
X103455807Y-90128132D01*
X103281479Y-89851923D01*
X103138376Y-89530132D01*
X103032661Y-89211200D01*
X102890636Y-88834456D01*
X102695263Y-88498427D01*
X102434451Y-88188457D01*
X102096109Y-87889889D01*
X101723198Y-87623997D01*
X101525975Y-87500126D01*
X101310134Y-87374352D01*
X101094357Y-87256340D01*
X100897326Y-87155757D01*
X100737724Y-87082270D01*
X100634232Y-87045544D01*
X100605955Y-87045910D01*
X100343931Y-87045910D01*
X100335411Y-87034908D01*
X100250298Y-86952755D01*
X100148718Y-86876241D01*
X100074202Y-86825660D01*
X99918920Y-86725325D01*
X99796159Y-86652199D01*
X99730267Y-86620704D01*
X99727672Y-86620400D01*
X99729997Y-86661125D01*
X99772587Y-86768465D01*
X99846465Y-86920164D01*
X99855745Y-86937900D01*
X100061424Y-87389542D01*
X100243422Y-87910714D01*
X100391450Y-88470229D01*
X100442171Y-88715247D01*
X100492822Y-88962194D01*
X100546084Y-89187651D01*
X100594924Y-89363538D01*
X100626137Y-89449798D01*
X100737065Y-89610964D01*
X100930137Y-89791709D01*
X101208301Y-89993976D01*
X101574507Y-90219707D01*
X102031705Y-90470842D01*
X102582845Y-90749323D01*
X102650493Y-90782272D01*
X103115874Y-91022474D01*
X103491859Y-91249840D01*
X103788521Y-91472231D01*
X104015933Y-91697505D01*
X104184168Y-91933523D01*
X104227011Y-92012326D01*
X104306858Y-92217982D01*
X104345323Y-92422055D01*
X104339766Y-92595204D01*
X104289439Y-92706240D01*
X104177387Y-92756041D01*
X104005271Y-92763942D01*
X103804423Y-92732421D01*
X103606177Y-92663952D01*
X103577246Y-92649963D01*
X103227847Y-92437495D01*
X102898228Y-92160455D01*
X102578970Y-91808934D01*
X102260648Y-91373020D01*
X102055623Y-91049405D01*
X101976005Y-90925450D01*
X101893278Y-90820522D01*
X101790873Y-90720193D01*
X101776251Y-90708575D01*
X102074090Y-90708575D01*
X102092272Y-90755699D01*
X102154263Y-90870735D01*
X102249892Y-91035523D01*
X102349371Y-91200076D01*
X102596048Y-91559978D01*
X102867595Y-91883913D01*
X103151483Y-92161336D01*
X103435182Y-92381702D01*
X103706165Y-92534470D01*
X103951902Y-92609093D01*
X104030442Y-92614800D01*
X104145101Y-92605296D01*
X104190208Y-92555911D01*
X104197523Y-92449700D01*
X104159049Y-92264194D01*
X104055187Y-92044225D01*
X103901892Y-91816203D01*
X103715121Y-91606536D01*
X103654302Y-91550601D01*
X103551669Y-91475477D01*
X103390217Y-91373903D01*
X103187465Y-91255214D01*
X102960934Y-91128746D01*
X102728142Y-91003833D01*
X102506610Y-90889813D01*
X102313857Y-90796019D01*
X102167402Y-90731788D01*
X102084766Y-90706454D01*
X102074090Y-90708575D01*
X101776251Y-90708575D01*
X101652224Y-90610035D01*
X101460763Y-90475622D01*
X101199922Y-90302525D01*
X101192023Y-90297350D01*
X100677262Y-89936707D01*
X100244286Y-89576968D01*
X99875453Y-89198137D01*
X99553120Y-88780220D01*
X99259646Y-88303219D01*
X99018503Y-87833872D01*
X98774650Y-87324969D01*
X98717725Y-87488265D01*
X98677834Y-87636752D01*
X98666775Y-87789872D01*
X98687368Y-87968364D01*
X98742436Y-88192966D01*
X98834801Y-88484416D01*
X98865534Y-88574459D01*
X99019808Y-88988074D01*
X99191127Y-89389185D01*
X99370422Y-89759970D01*
X99548624Y-90082607D01*
X99716665Y-90339273D01*
X99837945Y-90485396D01*
X99956545Y-90597637D01*
X100134573Y-90754799D01*
X100351434Y-90939203D01*
X100586531Y-91133167D01*
X100686405Y-91213749D01*
X101037395Y-91507380D01*
X101313200Y-91769571D01*
X101527947Y-92017317D01*
X101695761Y-92267615D01*
X101830770Y-92537460D01*
X101874011Y-92642528D01*
X102017793Y-92954457D01*
X102184220Y-93192236D01*
X102397461Y-93383306D01*
X102674465Y-93551322D01*
X102901875Y-93684658D01*
X103043753Y-93807823D01*
X103112430Y-93937954D01*
X103120236Y-94092186D01*
X103110455Y-94157250D01*
X103038814Y-94343987D01*
X102899120Y-94483954D01*
X102685572Y-94579205D01*
X102392370Y-94631796D01*
X102013713Y-94643782D01*
X101765744Y-94633740D01*
X101381585Y-94586115D01*
X101026672Y-94486220D01*
X100683966Y-94325367D01*
X100336430Y-94094869D01*
X99967028Y-93786038D01*
X99803800Y-93633321D01*
X99599697Y-93445948D01*
X99373362Y-93251583D01*
X99165885Y-93085217D01*
X99118000Y-93049322D01*
X98965324Y-92945072D01*
X98776938Y-92827873D01*
X98572286Y-92708369D01*
X98370812Y-92597201D01*
X98337674Y-92580120D01*
X98762400Y-92580120D01*
X98801313Y-92621681D01*
X98903824Y-92702309D01*
X99048590Y-92805323D01*
X99063848Y-92815723D01*
X99212105Y-92924956D01*
X99412136Y-93084277D01*
X99641045Y-93274875D01*
X99875937Y-93477936D01*
X99951967Y-93545464D01*
X100316540Y-93857136D01*
X100638575Y-94095667D01*
X100936782Y-94268982D01*
X101229870Y-94385003D01*
X101536551Y-94451654D01*
X101875532Y-94476859D01*
X102144508Y-94473996D01*
X102406852Y-94457698D01*
X102613969Y-94431227D01*
X102745457Y-94397427D01*
X102765322Y-94387429D01*
X102873865Y-94281830D01*
X102945827Y-94142510D01*
X102965510Y-94007857D01*
X102945956Y-93945688D01*
X102893777Y-93881014D01*
X102818576Y-93833413D01*
X102699067Y-93795356D01*
X102513966Y-93759314D01*
X102343800Y-93732717D01*
X101854156Y-93624175D01*
X101384433Y-93443328D01*
X100910318Y-93180212D01*
X100769000Y-93087416D01*
X100547173Y-92947119D01*
X100321382Y-92821136D01*
X100124468Y-92727060D01*
X100032400Y-92692809D01*
X99892012Y-92660216D01*
X99701615Y-92629196D01*
X99483674Y-92601743D01*
X99260651Y-92579850D01*
X99055011Y-92565510D01*
X98889218Y-92560717D01*
X98785734Y-92567464D01*
X98762400Y-92580120D01*
X98337674Y-92580120D01*
X98191960Y-92505014D01*
X98055176Y-92442450D01*
X97979904Y-92420152D01*
X97972655Y-92422411D01*
X97990488Y-92469825D01*
X98052175Y-92584579D01*
X98147341Y-92748091D01*
X98236262Y-92894490D01*
X98506521Y-93289367D01*
X98818266Y-93673435D01*
X99149448Y-94022497D01*
X99478018Y-94312355D01*
X99630929Y-94425131D01*
X99808845Y-94544313D01*
X99936371Y-94616382D01*
X100046626Y-94652095D01*
X100172731Y-94662206D01*
X100346566Y-94657520D01*
X100574196Y-94657374D01*
X100751909Y-94684694D01*
X100929655Y-94748248D01*
X100972488Y-94767397D01*
X101208183Y-94900154D01*
X101429852Y-95068953D01*
X101613554Y-95251974D01*
X101735349Y-95427398D01*
X101759508Y-95484723D01*
X101778629Y-95693704D01*
X101710047Y-95897809D01*
X101565140Y-96069671D01*
X101495956Y-96118697D01*
X101347130Y-96194515D01*
X101213783Y-96220980D01*
X101082164Y-96191356D01*
X100938525Y-96098908D01*
X100769116Y-95936901D01*
X100560187Y-95698599D01*
X100506527Y-95634020D01*
X100307959Y-95402107D01*
X100125413Y-95212455D01*
X99929433Y-95037750D01*
X99690566Y-94850682D01*
X99661404Y-94829172D01*
X99981630Y-94829172D01*
X100014297Y-94864951D01*
X100101314Y-94956240D01*
X100226160Y-95085750D01*
X100273700Y-95134811D01*
X100461240Y-95333586D01*
X100666359Y-95559320D01*
X100835495Y-95752539D01*
X100995246Y-95928730D01*
X101117730Y-96028452D01*
X101222352Y-96059558D01*
X101328516Y-96029906D01*
X101405396Y-95983244D01*
X101531947Y-95882384D01*
X101590829Y-95781804D01*
X101606342Y-95638602D01*
X101606422Y-95628317D01*
X101558979Y-95456170D01*
X101420834Y-95272380D01*
X101200618Y-95086645D01*
X101023000Y-94972635D01*
X100873917Y-94893872D01*
X100739032Y-94848981D01*
X100578756Y-94828915D01*
X100375330Y-94824600D01*
X100189862Y-94825142D01*
X100051399Y-94826581D01*
X99984373Y-94828633D01*
X99981630Y-94829172D01*
X99661404Y-94829172D01*
X99549800Y-94746855D01*
X99132021Y-94411696D01*
X98727117Y-94020625D01*
X98348159Y-93594711D01*
X98123059Y-93343837D01*
X97919902Y-93159944D01*
X97713045Y-93020245D01*
X97682051Y-93002763D01*
X97521251Y-92921350D01*
X97318246Y-92829203D01*
X97093114Y-92734117D01*
X96865932Y-92643888D01*
X96656780Y-92566310D01*
X96485735Y-92509178D01*
X96372875Y-92480288D01*
X96338948Y-92481318D01*
X96350824Y-92533391D01*
X96407979Y-92640298D01*
X96462410Y-92725530D01*
X96556919Y-92874951D01*
X96676388Y-93077008D01*
X96798817Y-93294242D01*
X96829939Y-93351400D01*
X96961307Y-93590411D01*
X97072447Y-93773388D01*
X97181550Y-93919436D01*
X97306809Y-94047658D01*
X97466417Y-94177158D01*
X97678567Y-94327041D01*
X97901225Y-94476380D01*
X98333502Y-94780723D01*
X98670653Y-95055753D01*
X98914333Y-95303064D01*
X99066200Y-95524248D01*
X99113158Y-95642239D01*
X99161205Y-95909641D01*
X99165320Y-96180299D01*
X99127210Y-96419526D01*
X99067756Y-96564500D01*
X98989835Y-96683093D01*
X98940981Y-96724068D01*
X98903100Y-96699798D01*
X98892735Y-96684196D01*
X98892600Y-96612043D01*
X98927500Y-96490222D01*
X98940537Y-96457228D01*
X99008772Y-96170006D01*
X98994930Y-95846985D01*
X98961095Y-95694259D01*
X98890020Y-95534226D01*
X98758292Y-95360322D01*
X98558790Y-95165915D01*
X98284392Y-94944371D01*
X97927977Y-94689059D01*
X97759185Y-94574881D01*
X97455685Y-94364954D01*
X97217938Y-94184925D01*
X97054228Y-94041394D01*
X96980342Y-93954434D01*
X96910107Y-93846337D01*
X96864930Y-93787060D01*
X96859343Y-93783200D01*
X96870699Y-93826837D01*
X96913433Y-93944503D01*
X96980119Y-94116332D01*
X97035002Y-94253100D01*
X97150262Y-94543801D01*
X97225561Y-94752797D01*
X97263419Y-94890676D01*
X97266354Y-94968027D01*
X97236885Y-94995438D01*
X97211192Y-94993809D01*
X97147967Y-94936365D01*
X97075601Y-94800304D01*
X97026820Y-94672200D01*
X96921659Y-94391177D01*
X96785083Y-94073870D01*
X96626601Y-93738164D01*
X96455721Y-93401946D01*
X96281955Y-93083104D01*
X96114810Y-92799525D01*
X95963795Y-92569095D01*
X95838421Y-92409701D01*
X95807522Y-92378678D01*
X95677329Y-92303220D01*
X95463456Y-92231211D01*
X95183820Y-92166657D01*
X94856339Y-92113564D01*
X94498932Y-92075939D01*
X94431699Y-92071043D01*
X94208758Y-92052127D01*
X94071228Y-92029490D01*
X94002923Y-91999266D01*
X93987199Y-91964893D01*
X94001216Y-91930285D01*
X94054911Y-91910993D01*
X94165751Y-91905420D01*
X94351204Y-91911969D01*
X94482500Y-91919608D01*
X94770310Y-91945936D01*
X95088832Y-91988114D01*
X95378849Y-92038047D01*
X95436200Y-92049974D01*
X95840895Y-92148403D01*
X96262607Y-92269626D01*
X96681945Y-92406542D01*
X97079515Y-92552045D01*
X97435926Y-92699034D01*
X97731786Y-92840404D01*
X97947700Y-92969053D01*
X97950214Y-92970837D01*
X98050371Y-93033194D01*
X98091659Y-93032785D01*
X98073342Y-92964695D01*
X97994683Y-92824008D01*
X97907524Y-92686175D01*
X97823022Y-92563221D01*
X97736967Y-92461385D01*
X97631489Y-92366212D01*
X97488718Y-92263247D01*
X97290785Y-92138036D01*
X97056624Y-91997875D01*
X96719571Y-91803023D01*
X96355985Y-91600768D01*
X95978983Y-91397686D01*
X95601678Y-91200352D01*
X95237186Y-91015344D01*
X94898620Y-90849238D01*
X94599095Y-90708608D01*
X94351727Y-90600033D01*
X94169629Y-90530088D01*
X94083069Y-90506828D01*
X93847919Y-90502949D01*
X93570552Y-90544707D01*
X93294041Y-90622530D01*
X93061461Y-90726845D01*
X93042876Y-90737995D01*
X92916214Y-90798603D01*
X92847686Y-90791100D01*
X92845224Y-90787657D01*
X92841898Y-90701968D01*
X92921873Y-90613745D01*
X93067201Y-90528898D01*
X93259933Y-90453334D01*
X93482123Y-90392963D01*
X93715821Y-90353692D01*
X93943080Y-90341430D01*
X94141070Y-90361068D01*
X94397181Y-90413532D01*
X94249086Y-90256866D01*
X94091283Y-90063860D01*
X94008851Y-89888941D01*
X93987200Y-89720515D01*
X93995549Y-89679136D01*
X94146871Y-89679136D01*
X94167640Y-89821686D01*
X94221531Y-89952703D01*
X94324073Y-90101194D01*
X94499349Y-90261691D01*
X94753911Y-90438890D01*
X95094306Y-90637485D01*
X95403646Y-90800137D01*
X95680930Y-90942657D01*
X95925597Y-91072841D01*
X96161359Y-91204209D01*
X96411930Y-91350283D01*
X96701024Y-91524584D01*
X97043980Y-91735455D01*
X97245865Y-91855180D01*
X97472986Y-91981744D01*
X97705056Y-92104807D01*
X97921789Y-92214027D01*
X98102901Y-92299063D01*
X98228105Y-92349574D01*
X98267100Y-92358975D01*
X98305171Y-92324156D01*
X98305200Y-92322682D01*
X98276496Y-92268998D01*
X98198629Y-92152393D01*
X98083959Y-91990801D01*
X97963737Y-91827382D01*
X97841044Y-91675816D01*
X97662180Y-91472029D01*
X97438427Y-91227485D01*
X97181070Y-90953651D01*
X96901391Y-90661992D01*
X96610674Y-90363973D01*
X96320203Y-90071060D01*
X96041261Y-89794718D01*
X95785130Y-89546413D01*
X95563096Y-89337610D01*
X95386440Y-89179774D01*
X95266446Y-89084372D01*
X95260010Y-89080029D01*
X95017666Y-88963987D01*
X94791567Y-88947865D01*
X94580914Y-89031888D01*
X94384902Y-89216280D01*
X94288815Y-89351403D01*
X94185892Y-89534628D01*
X94146871Y-89679136D01*
X93995549Y-89679136D01*
X94030307Y-89506888D01*
X94145325Y-89281222D01*
X94310797Y-89069569D01*
X94505267Y-88897978D01*
X94707280Y-88792500D01*
X94763356Y-88778157D01*
X94991685Y-88784944D01*
X95248927Y-88881030D01*
X95526704Y-89061201D01*
X95816641Y-89320248D01*
X96049776Y-89578439D01*
X96223621Y-89773121D01*
X96441693Y-89996377D01*
X96669049Y-90213104D01*
X96781200Y-90313177D01*
X97299822Y-90805079D01*
X97803254Y-91364556D01*
X98261844Y-91958619D01*
X98267857Y-91967100D01*
X98582682Y-92411600D01*
X99066241Y-92412841D01*
X99493663Y-92430211D01*
X99857334Y-92482673D01*
X100087323Y-92541188D01*
X100078000Y-92514317D01*
X100006238Y-92425437D01*
X99881129Y-92284688D01*
X99711767Y-92102212D01*
X99507243Y-91888151D01*
X99436599Y-91815401D01*
X99012655Y-91373524D01*
X98946869Y-91301893D01*
X99153170Y-91301893D01*
X99656285Y-91809960D01*
X100084389Y-92230640D01*
X100464047Y-92577101D01*
X100806311Y-92857483D01*
X101122232Y-93079921D01*
X101422865Y-93252554D01*
X101719262Y-93383518D01*
X101861200Y-93433300D01*
X102068775Y-93496297D01*
X102188655Y-93519883D01*
X102227525Y-93502256D01*
X102192073Y-93441614D01*
X102117954Y-93364100D01*
X102025703Y-93248542D01*
X101910524Y-93067415D01*
X101789266Y-92848641D01*
X101708929Y-92686214D01*
X101589632Y-92450166D01*
X101460453Y-92224786D01*
X101339979Y-92041204D01*
X101274027Y-91957798D01*
X101185838Y-91870263D01*
X101043977Y-91740830D01*
X100863245Y-91581906D01*
X100658444Y-91405901D01*
X100444373Y-91225222D01*
X100235833Y-91052278D01*
X100047625Y-90899476D01*
X99894550Y-90779226D01*
X99791407Y-90703934D01*
X99755099Y-90684400D01*
X99732205Y-90726820D01*
X99727600Y-90779149D01*
X99684951Y-90913621D01*
X99574454Y-91057038D01*
X99422283Y-91179838D01*
X99330255Y-91227902D01*
X99153170Y-91301893D01*
X98946869Y-91301893D01*
X98661163Y-90990808D01*
X98377339Y-90660408D01*
X98156396Y-90375479D01*
X97993548Y-90129177D01*
X97884011Y-89914655D01*
X97822998Y-89725069D01*
X97805723Y-89553575D01*
X97806464Y-89542227D01*
X97970279Y-89542227D01*
X97977235Y-89690927D01*
X98020762Y-89834941D01*
X98098983Y-89991456D01*
X98174954Y-90120257D01*
X98271828Y-90263237D01*
X98403784Y-90436113D01*
X98555529Y-90621409D01*
X98711774Y-90801652D01*
X98857227Y-90959367D01*
X98976600Y-91077079D01*
X99054600Y-91137314D01*
X99068649Y-91141600D01*
X99144319Y-91125012D01*
X99239664Y-91092828D01*
X99434635Y-90983698D01*
X99543153Y-90834615D01*
X99565878Y-90641101D01*
X99503469Y-90398680D01*
X99379500Y-90142848D01*
X99102446Y-89603632D01*
X98853692Y-89028428D01*
X98684161Y-88556865D01*
X98547288Y-88131130D01*
X98345696Y-88556865D01*
X98187601Y-88896161D01*
X98073585Y-89162029D01*
X98001769Y-89371656D01*
X97970279Y-89542227D01*
X97806464Y-89542227D01*
X97809952Y-89488830D01*
X97841462Y-89353712D01*
X97907908Y-89155840D01*
X97999059Y-88923465D01*
X98088662Y-88719182D01*
X98200979Y-88463661D01*
X98305771Y-88203175D01*
X98389479Y-87972614D01*
X98430460Y-87839600D01*
X98567882Y-87369262D01*
X98652980Y-87136381D01*
X98932065Y-87136381D01*
X98985279Y-87352012D01*
X99093646Y-87625427D01*
X99246064Y-87937384D01*
X99431433Y-88268642D01*
X99638649Y-88599958D01*
X99856613Y-88912092D01*
X100074222Y-89185801D01*
X100185029Y-89308097D01*
X100328862Y-89452060D01*
X100430551Y-89541651D01*
X100481735Y-89570679D01*
X100474049Y-89532952D01*
X100462836Y-89513793D01*
X100441180Y-89446937D01*
X100404396Y-89300121D01*
X100357103Y-89093052D01*
X100303921Y-88845431D01*
X100287162Y-88764493D01*
X100171302Y-88261791D01*
X100042112Y-87810876D01*
X99903152Y-87418863D01*
X99757980Y-87092868D01*
X99610156Y-86840007D01*
X99463239Y-86667395D01*
X99320789Y-86582148D01*
X99197730Y-86586615D01*
X99083169Y-86676746D01*
X98989759Y-86830494D01*
X98935833Y-87009919D01*
X98932065Y-87136381D01*
X98652980Y-87136381D01*
X98703704Y-86997569D01*
X98839124Y-86721604D01*
X98954664Y-86560278D01*
X99075626Y-86440618D01*
X99182075Y-86383194D01*
X99317290Y-86366675D01*
X99348009Y-86366400D01*
X99516819Y-86392500D01*
X99755382Y-86465698D01*
X100047868Y-86578336D01*
X100378447Y-86722757D01*
X100731287Y-86891304D01*
X101090560Y-87076321D01*
X101440433Y-87270150D01*
X101765078Y-87465134D01*
X102048663Y-87653618D01*
X102127375Y-87710730D01*
X102475980Y-87996006D01*
X102744306Y-88280930D01*
X102950477Y-88590423D01*
X103112622Y-88949407D01*
X103186459Y-89166815D01*
X103365002Y-89636322D01*
X103590058Y-90030424D01*
X103874899Y-90369724D01*
X104082380Y-90557516D01*
X104344327Y-90756640D01*
X104605683Y-90925050D01*
X104846654Y-91051913D01*
X105047448Y-91126395D01*
X105149456Y-91141600D01*
X105280090Y-91112353D01*
X105358245Y-91012209D01*
X105401422Y-90908854D01*
X105417200Y-90856038D01*
X105384819Y-90809008D01*
X105298994Y-90708441D01*
X105176700Y-90574040D01*
X105145684Y-90540928D01*
X104808705Y-90168890D01*
X104520725Y-89821893D01*
X104290927Y-89511774D01*
X104128493Y-89250375D01*
X104096919Y-89188737D01*
X104025329Y-89010367D01*
X103947051Y-88766627D01*
X103872521Y-88492295D01*
X103822928Y-88275713D01*
X103771310Y-88026467D01*
X103950755Y-88026467D01*
X103968112Y-88163432D01*
X104003393Y-88348425D01*
X104051048Y-88556775D01*
X104105532Y-88763811D01*
X104161299Y-88944864D01*
X104201726Y-89051283D01*
X104307253Y-89243899D01*
X104477130Y-89492741D01*
X104701501Y-89784639D01*
X104970511Y-90106420D01*
X105109030Y-90263642D01*
X105239540Y-90408078D01*
X105341365Y-90518244D01*
X105397997Y-90576377D01*
X105404075Y-90581142D01*
X105430108Y-90539185D01*
X105492250Y-90423483D01*
X105581442Y-90251298D01*
X105688622Y-90039890D01*
X105698368Y-90020472D01*
X105865073Y-89667289D01*
X105975363Y-89380463D01*
X106033424Y-89144802D01*
X106043440Y-88945115D01*
X106026569Y-88829177D01*
X105937266Y-88616046D01*
X105779391Y-88404080D01*
X105580842Y-88226318D01*
X105452254Y-88149073D01*
X105348115Y-88108038D01*
X105181515Y-88052612D01*
X104973939Y-87988837D01*
X104746869Y-87922752D01*
X104521790Y-87860397D01*
X104320186Y-87807811D01*
X104163541Y-87771033D01*
X104073339Y-87756105D01*
X104060442Y-87757798D01*
X104094291Y-87789203D01*
X104193897Y-87865573D01*
X104341724Y-87973696D01*
X104441442Y-88044895D01*
X104765836Y-88305867D01*
X105002551Y-88575381D01*
X105164672Y-88874985D01*
X105265282Y-89226230D01*
X105300296Y-89459337D01*
X105308187Y-89631213D01*
X105288238Y-89712206D01*
X105249174Y-89706223D01*
X105199720Y-89617173D01*
X105148601Y-89448965D01*
X105134536Y-89385082D01*
X105053909Y-89064906D01*
X104951804Y-88814482D01*
X104814176Y-88602237D01*
X104754237Y-88530242D01*
X104641346Y-88418033D01*
X104493460Y-88292765D01*
X104331450Y-88169307D01*
X104176185Y-88062526D01*
X104048535Y-87987288D01*
X103969369Y-87958463D01*
X103956866Y-87962200D01*
X103950755Y-88026467D01*
X103771310Y-88026467D01*
X103697573Y-87670427D01*
X103336301Y-87333373D01*
X102975029Y-86996320D01*
X102557814Y-86993459D01*
X102122375Y-86948611D01*
X101732958Y-86823823D01*
X101399279Y-86624362D01*
X101131052Y-86355499D01*
X100996855Y-86146865D01*
X100926376Y-86000096D01*
X100903514Y-85891268D01*
X100916269Y-85808481D01*
X101081595Y-85808481D01*
X101094432Y-85961768D01*
X101117434Y-86025929D01*
X101213640Y-86179017D01*
X101370425Y-86352788D01*
X101558666Y-86520220D01*
X101749237Y-86654292D01*
X101851567Y-86707056D01*
X102059150Y-86774513D01*
X102290381Y-86818443D01*
X102520026Y-86837796D01*
X102722852Y-86831526D01*
X102873624Y-86798585D01*
X102939860Y-86752244D01*
X102960220Y-86650585D01*
X102942065Y-86498840D01*
X102893565Y-86337161D01*
X102830860Y-86216538D01*
X102681568Y-86061420D01*
X102460980Y-85903325D01*
X102197269Y-85759970D01*
X101938877Y-85655691D01*
X101732439Y-85572265D01*
X101574152Y-85479829D01*
X101511148Y-85422115D01*
X101413934Y-85298527D01*
X101276969Y-85461300D01*
X101140096Y-85649957D01*
X101081595Y-85808481D01*
X100916269Y-85808481D01*
X100921846Y-85772290D01*
X100938841Y-85712532D01*
X101018481Y-85547914D01*
X101159059Y-85349650D01*
X101338451Y-85142607D01*
X101534532Y-84951649D01*
X101725181Y-84801641D01*
X101779927Y-84767220D01*
X102121095Y-84613800D01*
X102449015Y-84557323D01*
X102712099Y-84586035D01*
X102822497Y-84622134D01*
X103010959Y-84693124D01*
X103262554Y-84792979D01*
X103562349Y-84915671D01*
X103895413Y-85055176D01*
X104245832Y-85205042D01*
X104630660Y-85370669D01*
X104933662Y-85498989D01*
X105165893Y-85593876D01*
X105338406Y-85659203D01*
X105462257Y-85698844D01*
X105548499Y-85716672D01*
X105608186Y-85716560D01*
X105652374Y-85702382D01*
X105657560Y-85699705D01*
X105854874Y-85563659D01*
X106082038Y-85357053D01*
X106321079Y-85098968D01*
X106554024Y-84808484D01*
X106719678Y-84572073D01*
X107488553Y-83472623D01*
X108294300Y-82467124D01*
X109139420Y-81553917D01*
X110026412Y-80731344D01*
X110957774Y-79997748D01*
X111936007Y-79351469D01*
X112963608Y-78790850D01*
X114043077Y-78314233D01*
X115176914Y-77919960D01*
X116367617Y-77606373D01*
X117558400Y-77380961D01*
X117949161Y-77322628D01*
X118329885Y-77271726D01*
X118711394Y-77227614D01*
X119104513Y-77189655D01*
X119520065Y-77157210D01*
X119968872Y-77129639D01*
X120461758Y-77106304D01*
X121009546Y-77086566D01*
X121623060Y-77069785D01*
X122313121Y-77055323D01*
X123090555Y-77042540D01*
X123354663Y-77038768D01*
X123983985Y-77028930D01*
X124538359Y-77017948D01*
X125013483Y-77005966D01*
X125405059Y-76993129D01*
X125708786Y-76979583D01*
X125920364Y-76965473D01*
X126035493Y-76950942D01*
X126046467Y-76948031D01*
X126150823Y-76906187D01*
X126228306Y-76848703D01*
X126281673Y-76762144D01*
X126313683Y-76633076D01*
X126327094Y-76448063D01*
X126324665Y-76193670D01*
X126309154Y-75856461D01*
X126300742Y-75709543D01*
X126257265Y-75153202D01*
X126197015Y-74687861D01*
X126118205Y-74304033D01*
X126019053Y-73992228D01*
X125947811Y-73833327D01*
X125861201Y-73694450D01*
X125735619Y-73548631D01*
X125560487Y-73386637D01*
X125325225Y-73199231D01*
X125019255Y-72977177D01*
X124768643Y-72803883D01*
X124161089Y-72351368D01*
X123653159Y-71890476D01*
X123245300Y-71421720D01*
X122937957Y-70945608D01*
X122732647Y-70466000D01*
X122680511Y-70239063D01*
X123869803Y-70239063D01*
X123880297Y-70285855D01*
X123921166Y-70398563D01*
X123965476Y-70508830D01*
X124030039Y-70651330D01*
X124094396Y-70733466D01*
X124183719Y-70764565D01*
X124323179Y-70753958D01*
X124520824Y-70714648D01*
X124782648Y-70658497D01*
X125009832Y-70879748D01*
X125164612Y-71035927D01*
X125255108Y-71154081D01*
X125291805Y-71264979D01*
X125285190Y-71399383D01*
X125247974Y-71578443D01*
X125212147Y-71744216D01*
X125190907Y-71864123D01*
X125188685Y-71910997D01*
X125240167Y-71934485D01*
X125356465Y-71983712D01*
X125457800Y-72025596D01*
X125711800Y-72129702D01*
X125798753Y-72021751D01*
X125884306Y-71900419D01*
X125971956Y-71755012D01*
X125975406Y-71748700D01*
X126033969Y-71654412D01*
X126099572Y-71605156D01*
X126205349Y-71586404D01*
X126352002Y-71583600D01*
X126608980Y-71589836D01*
X126789281Y-71615236D01*
X126917415Y-71669837D01*
X127017894Y-71763675D01*
X127106533Y-71892560D01*
X127257693Y-72138226D01*
X127526146Y-72029552D01*
X127674265Y-71968927D01*
X127778086Y-71925185D01*
X127809794Y-71910610D01*
X127806789Y-71860048D01*
X127784508Y-71736857D01*
X127747704Y-71567128D01*
X127745507Y-71557625D01*
X127706204Y-71379648D01*
X127695137Y-71256400D01*
X127723341Y-71160446D01*
X127801850Y-71064352D01*
X127941700Y-70940684D01*
X128020061Y-70875027D01*
X128255886Y-70677583D01*
X128557904Y-70747790D01*
X128722179Y-70779323D01*
X128844559Y-70790476D01*
X128892807Y-70781698D01*
X128930585Y-70717254D01*
X128990848Y-70592644D01*
X129029916Y-70505170D01*
X129134140Y-70264940D01*
X128859510Y-70098770D01*
X128725383Y-70012176D01*
X128638777Y-69931193D01*
X128592663Y-69833168D01*
X128580014Y-69695446D01*
X128593803Y-69495374D01*
X128614917Y-69310303D01*
X128639786Y-69153138D01*
X128683433Y-69052660D01*
X128770778Y-68971309D01*
X128891793Y-68892954D01*
X129136635Y-68742301D01*
X129031163Y-68499250D01*
X128965281Y-68354354D01*
X128912307Y-68249993D01*
X128893492Y-68220586D01*
X128831478Y-68213936D01*
X128700543Y-68231169D01*
X128536402Y-68266813D01*
X128211512Y-68348653D01*
X127949839Y-68067505D01*
X127688166Y-67786356D01*
X127751931Y-67513278D01*
X127787968Y-67349283D01*
X127812062Y-67221291D01*
X127817847Y-67174894D01*
X127775941Y-67119657D01*
X127669523Y-67052106D01*
X127531901Y-66987393D01*
X127396379Y-66940670D01*
X127296266Y-66927087D01*
X127280812Y-66930591D01*
X127218186Y-66986873D01*
X127135310Y-67099985D01*
X127100425Y-67157156D01*
X127019232Y-67275392D01*
X126923583Y-67352028D01*
X126790400Y-67395603D01*
X126596604Y-67414659D01*
X126395607Y-67418000D01*
X126101514Y-67418000D01*
X125938682Y-67151300D01*
X125851553Y-67009403D01*
X125788169Y-66907690D01*
X125764494Y-66871403D01*
X125715654Y-66881932D01*
X125601411Y-66922902D01*
X125491169Y-66967076D01*
X125347395Y-67032471D01*
X125265225Y-67097843D01*
X125235411Y-67188464D01*
X125248702Y-67329605D01*
X125289366Y-67518505D01*
X125349533Y-67779162D01*
X125073466Y-68054775D01*
X124797400Y-68330389D01*
X124518000Y-68255797D01*
X124314388Y-68204979D01*
X124183365Y-68191226D01*
X124099813Y-68223740D01*
X124038616Y-68311726D01*
X123979009Y-68453286D01*
X123871819Y-68726371D01*
X124114079Y-68872285D01*
X124246968Y-68963512D01*
X124334274Y-69061616D01*
X124385311Y-69190146D01*
X124409393Y-69372651D01*
X124415835Y-69632677D01*
X124415840Y-69635204D01*
X124412586Y-69753956D01*
X124392647Y-69844710D01*
X124341646Y-69923366D01*
X124245208Y-70005822D01*
X124088954Y-70107979D01*
X123869803Y-70239063D01*
X122680511Y-70239063D01*
X122639963Y-70062573D01*
X122597609Y-69607501D01*
X122606535Y-69137929D01*
X122667689Y-68691006D01*
X122685271Y-68611800D01*
X122877776Y-68011243D01*
X123155201Y-67457714D01*
X123510320Y-66959214D01*
X123935905Y-66523743D01*
X124424729Y-66159303D01*
X124969566Y-65873895D01*
X125257013Y-65764574D01*
X125861354Y-65612679D01*
X126466923Y-65557908D01*
X127063925Y-65596925D01*
G36*
X126844579Y-68217527D02*
X127138984Y-68330207D01*
X127402141Y-68528163D01*
X127430548Y-68555935D01*
X127613834Y-68769191D01*
X127728801Y-68987624D01*
X127791007Y-69247125D01*
X127808926Y-69428804D01*
X127815070Y-69659578D01*
X127794323Y-69833583D01*
X127741121Y-69993385D01*
X127732570Y-70013004D01*
X127538702Y-70339590D01*
X127285689Y-70584381D01*
X126977848Y-70744548D01*
X126619499Y-70817259D01*
X126499200Y-70821600D01*
X126254145Y-70807462D01*
X126052005Y-70756917D01*
X125900766Y-70690650D01*
X125595492Y-70487662D01*
X125372316Y-70225545D01*
X125233430Y-69907925D01*
X125181031Y-69538427D01*
X125180631Y-69500800D01*
X125225919Y-69130377D01*
X125355446Y-68807456D01*
X125559705Y-68541571D01*
X125829187Y-68342257D01*
X126154386Y-68219048D01*
X126496474Y-68181115D01*
X126844579Y-68217527D01*
X126844579Y-68217527D01*
G37*
X126844579Y-68217527D02*
X127138984Y-68330207D01*
X127402141Y-68528163D01*
X127430548Y-68555935D01*
X127613834Y-68769191D01*
X127728801Y-68987624D01*
X127791007Y-69247125D01*
X127808926Y-69428804D01*
X127815070Y-69659578D01*
X127794323Y-69833583D01*
X127741121Y-69993385D01*
X127732570Y-70013004D01*
X127538702Y-70339590D01*
X127285689Y-70584381D01*
X126977848Y-70744548D01*
X126619499Y-70817259D01*
X126499200Y-70821600D01*
X126254145Y-70807462D01*
X126052005Y-70756917D01*
X125900766Y-70690650D01*
X125595492Y-70487662D01*
X125372316Y-70225545D01*
X125233430Y-69907925D01*
X125181031Y-69538427D01*
X125180631Y-69500800D01*
X125225919Y-69130377D01*
X125355446Y-68807456D01*
X125559705Y-68541571D01*
X125829187Y-68342257D01*
X126154386Y-68219048D01*
X126496474Y-68181115D01*
X126844579Y-68217527D01*
M02*
