G04 #@! TF.FileFunction,Other,Fab,Top*
%FSLAX46Y46*%
G04 Gerber Fmt 4.6, Leading zero omitted, Abs format (unit mm)*
G04 Created by KiCad (PCBNEW 4.0.7-e2-6376~58~ubuntu14.04.1) date Mon Aug  6 16:33:39 2018*
%MOMM*%
%LPD*%
G01*
G04 APERTURE LIST*
%ADD10C,0.100000*%
%ADD11C,0.200000*%
%ADD12C,0.300000*%
G04 APERTURE END LIST*
D10*
D11*
X94370000Y-98740000D02*
X89370000Y-98740000D01*
X91870000Y-96240000D02*
X91870000Y-101240000D01*
X89000000Y-91000000D02*
X88000000Y-92000000D01*
X89000000Y-91000000D02*
X88000000Y-90000000D01*
X89000000Y-91000000D02*
X89000000Y-91000000D01*
X83000000Y-91000000D02*
X89000000Y-91000000D01*
X67000000Y-75000000D02*
X83000000Y-91000000D01*
X67000000Y-50000000D02*
X67000000Y-75000000D01*
X70000000Y-47000000D02*
X67000000Y-50000000D01*
D12*
X67227143Y-126668571D02*
X67227143Y-125168571D01*
X68084286Y-126668571D01*
X68084286Y-125168571D01*
X69084286Y-125168571D02*
X69370000Y-125168571D01*
X69512858Y-125240000D01*
X69655715Y-125382857D01*
X69727143Y-125668571D01*
X69727143Y-126168571D01*
X69655715Y-126454286D01*
X69512858Y-126597143D01*
X69370000Y-126668571D01*
X69084286Y-126668571D01*
X68941429Y-126597143D01*
X68798572Y-126454286D01*
X68727143Y-126168571D01*
X68727143Y-125668571D01*
X68798572Y-125382857D01*
X68941429Y-125240000D01*
X69084286Y-125168571D01*
X70155715Y-125168571D02*
X71012858Y-125168571D01*
X70584287Y-126668571D02*
X70584287Y-125168571D01*
X71512858Y-125882857D02*
X72012858Y-125882857D01*
X72227144Y-126668571D02*
X71512858Y-126668571D01*
X71512858Y-125168571D01*
X72227144Y-125168571D01*
X72798572Y-126597143D02*
X73012858Y-126668571D01*
X73370001Y-126668571D01*
X73512858Y-126597143D01*
X73584287Y-126525714D01*
X73655715Y-126382857D01*
X73655715Y-126240000D01*
X73584287Y-126097143D01*
X73512858Y-126025714D01*
X73370001Y-125954286D01*
X73084287Y-125882857D01*
X72941429Y-125811429D01*
X72870001Y-125740000D01*
X72798572Y-125597143D01*
X72798572Y-125454286D01*
X72870001Y-125311429D01*
X72941429Y-125240000D01*
X73084287Y-125168571D01*
X73441429Y-125168571D01*
X73655715Y-125240000D01*
X74298572Y-126525714D02*
X74370000Y-126597143D01*
X74298572Y-126668571D01*
X74227143Y-126597143D01*
X74298572Y-126525714D01*
X74298572Y-126668571D01*
X74298572Y-125740000D02*
X74370000Y-125811429D01*
X74298572Y-125882857D01*
X74227143Y-125811429D01*
X74298572Y-125740000D01*
X74298572Y-125882857D01*
X68012857Y-129218571D02*
X67155714Y-129218571D01*
X67584286Y-129218571D02*
X67584286Y-127718571D01*
X67441429Y-127932857D01*
X67298571Y-128075714D01*
X67155714Y-128147143D01*
X68655714Y-129075714D02*
X68727142Y-129147143D01*
X68655714Y-129218571D01*
X68584285Y-129147143D01*
X68655714Y-129075714D01*
X68655714Y-129218571D01*
X71012857Y-128432857D02*
X70512857Y-128432857D01*
X70512857Y-129218571D02*
X70512857Y-127718571D01*
X71227143Y-127718571D01*
X72084285Y-127718571D02*
X72369999Y-127718571D01*
X72512857Y-127790000D01*
X72655714Y-127932857D01*
X72727142Y-128218571D01*
X72727142Y-128718571D01*
X72655714Y-129004286D01*
X72512857Y-129147143D01*
X72369999Y-129218571D01*
X72084285Y-129218571D01*
X71941428Y-129147143D01*
X71798571Y-129004286D01*
X71727142Y-128718571D01*
X71727142Y-128218571D01*
X71798571Y-127932857D01*
X71941428Y-127790000D01*
X72084285Y-127718571D01*
X73655714Y-127718571D02*
X73941428Y-127718571D01*
X74084286Y-127790000D01*
X74227143Y-127932857D01*
X74298571Y-128218571D01*
X74298571Y-128718571D01*
X74227143Y-129004286D01*
X74084286Y-129147143D01*
X73941428Y-129218571D01*
X73655714Y-129218571D01*
X73512857Y-129147143D01*
X73370000Y-129004286D01*
X73298571Y-128718571D01*
X73298571Y-128218571D01*
X73370000Y-127932857D01*
X73512857Y-127790000D01*
X73655714Y-127718571D01*
X74727143Y-127718571D02*
X75584286Y-127718571D01*
X75155715Y-129218571D02*
X75155715Y-127718571D01*
X76084286Y-129218571D02*
X76084286Y-127718571D01*
X76655714Y-127718571D01*
X76798572Y-127790000D01*
X76870000Y-127861429D01*
X76941429Y-128004286D01*
X76941429Y-128218571D01*
X76870000Y-128361429D01*
X76798572Y-128432857D01*
X76655714Y-128504286D01*
X76084286Y-128504286D01*
X78441429Y-129218571D02*
X77941429Y-128504286D01*
X77584286Y-129218571D02*
X77584286Y-127718571D01*
X78155714Y-127718571D01*
X78298572Y-127790000D01*
X78370000Y-127861429D01*
X78441429Y-128004286D01*
X78441429Y-128218571D01*
X78370000Y-128361429D01*
X78298572Y-128432857D01*
X78155714Y-128504286D01*
X77584286Y-128504286D01*
X79084286Y-129218571D02*
X79084286Y-127718571D01*
X79798572Y-129218571D02*
X79798572Y-127718571D01*
X80655715Y-129218571D01*
X80655715Y-127718571D01*
X81155715Y-127718571D02*
X82012858Y-127718571D01*
X81584287Y-129218571D02*
X81584287Y-127718571D01*
X82441429Y-129147143D02*
X82655715Y-129218571D01*
X83012858Y-129218571D01*
X83155715Y-129147143D01*
X83227144Y-129075714D01*
X83298572Y-128932857D01*
X83298572Y-128790000D01*
X83227144Y-128647143D01*
X83155715Y-128575714D01*
X83012858Y-128504286D01*
X82727144Y-128432857D01*
X82584286Y-128361429D01*
X82512858Y-128290000D01*
X82441429Y-128147143D01*
X82441429Y-128004286D01*
X82512858Y-127861429D01*
X82584286Y-127790000D01*
X82727144Y-127718571D01*
X83084286Y-127718571D01*
X83298572Y-127790000D01*
X85370000Y-127718571D02*
X85655714Y-127718571D01*
X85798572Y-127790000D01*
X85941429Y-127932857D01*
X86012857Y-128218571D01*
X86012857Y-128718571D01*
X85941429Y-129004286D01*
X85798572Y-129147143D01*
X85655714Y-129218571D01*
X85370000Y-129218571D01*
X85227143Y-129147143D01*
X85084286Y-129004286D01*
X85012857Y-128718571D01*
X85012857Y-128218571D01*
X85084286Y-127932857D01*
X85227143Y-127790000D01*
X85370000Y-127718571D01*
X87512858Y-129218571D02*
X87012858Y-128504286D01*
X86655715Y-129218571D02*
X86655715Y-127718571D01*
X87227143Y-127718571D01*
X87370001Y-127790000D01*
X87441429Y-127861429D01*
X87512858Y-128004286D01*
X87512858Y-128218571D01*
X87441429Y-128361429D01*
X87370001Y-128432857D01*
X87227143Y-128504286D01*
X86655715Y-128504286D01*
X88155715Y-129218571D02*
X88155715Y-127718571D01*
X88870001Y-128432857D02*
X89370001Y-128432857D01*
X89584287Y-129218571D02*
X88870001Y-129218571D01*
X88870001Y-127718571D01*
X89584287Y-127718571D01*
X90227144Y-129218571D02*
X90227144Y-127718571D01*
X91084287Y-129218571D01*
X91084287Y-127718571D01*
X91584287Y-127718571D02*
X92441430Y-127718571D01*
X92012859Y-129218571D02*
X92012859Y-127718571D01*
X92941430Y-128432857D02*
X93441430Y-128432857D01*
X93655716Y-129218571D02*
X92941430Y-129218571D01*
X92941430Y-127718571D01*
X93655716Y-127718571D01*
X94298573Y-129218571D02*
X94298573Y-127718571D01*
X94655716Y-127718571D01*
X94870001Y-127790000D01*
X95012859Y-127932857D01*
X95084287Y-128075714D01*
X95155716Y-128361429D01*
X95155716Y-128575714D01*
X95084287Y-128861429D01*
X95012859Y-129004286D01*
X94870001Y-129147143D01*
X94655716Y-129218571D01*
X94298573Y-129218571D01*
X96941430Y-129218571D02*
X96941430Y-127718571D01*
X97512858Y-127718571D01*
X97655716Y-127790000D01*
X97727144Y-127861429D01*
X97798573Y-128004286D01*
X97798573Y-128218571D01*
X97727144Y-128361429D01*
X97655716Y-128432857D01*
X97512858Y-128504286D01*
X96941430Y-128504286D01*
X98441430Y-128432857D02*
X98941430Y-128432857D01*
X99155716Y-129218571D02*
X98441430Y-129218571D01*
X98441430Y-127718571D01*
X99155716Y-127718571D01*
X100655716Y-129218571D02*
X100155716Y-128504286D01*
X99798573Y-129218571D02*
X99798573Y-127718571D01*
X100370001Y-127718571D01*
X100512859Y-127790000D01*
X100584287Y-127861429D01*
X100655716Y-128004286D01*
X100655716Y-128218571D01*
X100584287Y-128361429D01*
X100512859Y-128432857D01*
X100370001Y-128504286D01*
X99798573Y-128504286D01*
X102441430Y-129218571D02*
X102441430Y-127718571D01*
X103155716Y-129218571D02*
X103155716Y-127718571D01*
X103727144Y-127718571D01*
X103870002Y-127790000D01*
X103941430Y-127861429D01*
X104012859Y-128004286D01*
X104012859Y-128218571D01*
X103941430Y-128361429D01*
X103870002Y-128432857D01*
X103727144Y-128504286D01*
X103155716Y-128504286D01*
X105512859Y-129075714D02*
X105441430Y-129147143D01*
X105227144Y-129218571D01*
X105084287Y-129218571D01*
X104870002Y-129147143D01*
X104727144Y-129004286D01*
X104655716Y-128861429D01*
X104584287Y-128575714D01*
X104584287Y-128361429D01*
X104655716Y-128075714D01*
X104727144Y-127932857D01*
X104870002Y-127790000D01*
X105084287Y-127718571D01*
X105227144Y-127718571D01*
X105441430Y-127790000D01*
X105512859Y-127861429D01*
X106155716Y-128647143D02*
X107298573Y-128647143D01*
X107870002Y-127718571D02*
X108870002Y-127718571D01*
X108227145Y-129218571D01*
X109298573Y-127718571D02*
X110227144Y-127718571D01*
X109727144Y-128290000D01*
X109941430Y-128290000D01*
X110084287Y-128361429D01*
X110155716Y-128432857D01*
X110227144Y-128575714D01*
X110227144Y-128932857D01*
X110155716Y-129075714D01*
X110084287Y-129147143D01*
X109941430Y-129218571D01*
X109512858Y-129218571D01*
X109370001Y-129147143D01*
X109298573Y-129075714D01*
X111584287Y-127718571D02*
X110870001Y-127718571D01*
X110798572Y-128432857D01*
X110870001Y-128361429D01*
X111012858Y-128290000D01*
X111370001Y-128290000D01*
X111512858Y-128361429D01*
X111584287Y-128432857D01*
X111655715Y-128575714D01*
X111655715Y-128932857D01*
X111584287Y-129075714D01*
X111512858Y-129147143D01*
X111370001Y-129218571D01*
X111012858Y-129218571D01*
X110870001Y-129147143D01*
X110798572Y-129075714D01*
X113084286Y-129218571D02*
X112227143Y-129218571D01*
X112655715Y-129218571D02*
X112655715Y-127718571D01*
X112512858Y-127932857D01*
X112370000Y-128075714D01*
X112227143Y-128147143D01*
X114227143Y-128432857D02*
X113727143Y-128432857D01*
X113727143Y-129218571D02*
X113727143Y-127718571D01*
X114441429Y-127718571D01*
X115870000Y-129075714D02*
X115798571Y-129147143D01*
X115584285Y-129218571D01*
X115441428Y-129218571D01*
X115227143Y-129147143D01*
X115084285Y-129004286D01*
X115012857Y-128861429D01*
X114941428Y-128575714D01*
X114941428Y-128361429D01*
X115012857Y-128075714D01*
X115084285Y-127932857D01*
X115227143Y-127790000D01*
X115441428Y-127718571D01*
X115584285Y-127718571D01*
X115798571Y-127790000D01*
X115870000Y-127861429D01*
X118370000Y-129218571D02*
X117655714Y-129218571D01*
X117655714Y-127718571D01*
X118870000Y-128432857D02*
X119370000Y-128432857D01*
X119584286Y-129218571D02*
X118870000Y-129218571D01*
X118870000Y-127718571D01*
X119584286Y-127718571D01*
X120012857Y-127718571D02*
X120512857Y-129218571D01*
X121012857Y-127718571D01*
X121512857Y-128432857D02*
X122012857Y-128432857D01*
X122227143Y-129218571D02*
X121512857Y-129218571D01*
X121512857Y-127718571D01*
X122227143Y-127718571D01*
X123584286Y-129218571D02*
X122870000Y-129218571D01*
X122870000Y-127718571D01*
X125727143Y-128432857D02*
X125941429Y-128504286D01*
X126012857Y-128575714D01*
X126084286Y-128718571D01*
X126084286Y-128932857D01*
X126012857Y-129075714D01*
X125941429Y-129147143D01*
X125798571Y-129218571D01*
X125227143Y-129218571D01*
X125227143Y-127718571D01*
X125727143Y-127718571D01*
X125870000Y-127790000D01*
X125941429Y-127861429D01*
X126012857Y-128004286D01*
X126012857Y-128147143D01*
X125941429Y-128290000D01*
X125870000Y-128361429D01*
X125727143Y-128432857D01*
X125227143Y-128432857D01*
X128298571Y-129790000D02*
X128227143Y-129718571D01*
X128084286Y-129504286D01*
X128012857Y-129361429D01*
X127941428Y-129147143D01*
X127870000Y-128790000D01*
X127870000Y-128504286D01*
X127941428Y-128147143D01*
X128012857Y-127932857D01*
X128084286Y-127790000D01*
X128227143Y-127575714D01*
X128298571Y-127504286D01*
X128870000Y-129218571D02*
X128870000Y-127718571D01*
X129441428Y-127718571D01*
X129584286Y-127790000D01*
X129655714Y-127861429D01*
X129727143Y-128004286D01*
X129727143Y-128218571D01*
X129655714Y-128361429D01*
X129584286Y-128432857D01*
X129441428Y-128504286D01*
X128870000Y-128504286D01*
X130370000Y-129218571D02*
X130370000Y-127718571D01*
X131084286Y-129218571D02*
X131084286Y-127718571D01*
X131941429Y-129218571D01*
X131941429Y-127718571D01*
X134584286Y-129218571D02*
X133727143Y-129218571D01*
X134155715Y-129218571D02*
X134155715Y-127718571D01*
X134012858Y-127932857D01*
X133870000Y-128075714D01*
X133727143Y-128147143D01*
X136370000Y-129218571D02*
X136370000Y-127718571D01*
X137084286Y-129218571D02*
X137084286Y-127718571D01*
X137941429Y-129218571D01*
X137941429Y-127718571D01*
X140512858Y-129218571D02*
X139798572Y-129218571D01*
X139798572Y-127718571D01*
X141298572Y-127718571D02*
X141584286Y-127718571D01*
X141727144Y-127790000D01*
X141870001Y-127932857D01*
X141941429Y-128218571D01*
X141941429Y-128718571D01*
X141870001Y-129004286D01*
X141727144Y-129147143D01*
X141584286Y-129218571D01*
X141298572Y-129218571D01*
X141155715Y-129147143D01*
X141012858Y-129004286D01*
X140941429Y-128718571D01*
X140941429Y-128218571D01*
X141012858Y-127932857D01*
X141155715Y-127790000D01*
X141298572Y-127718571D01*
X142441430Y-127718571D02*
X142798573Y-129218571D01*
X143084287Y-128147143D01*
X143370001Y-129218571D01*
X143727144Y-127718571D01*
X144298573Y-128432857D02*
X144798573Y-128432857D01*
X145012859Y-129218571D02*
X144298573Y-129218571D01*
X144298573Y-127718571D01*
X145012859Y-127718571D01*
X146512859Y-129218571D02*
X146012859Y-128504286D01*
X145655716Y-129218571D02*
X145655716Y-127718571D01*
X146227144Y-127718571D01*
X146370002Y-127790000D01*
X146441430Y-127861429D01*
X146512859Y-128004286D01*
X146512859Y-128218571D01*
X146441430Y-128361429D01*
X146370002Y-128432857D01*
X146227144Y-128504286D01*
X145655716Y-128504286D01*
X149012859Y-129218571D02*
X148298573Y-129218571D01*
X148298573Y-127718571D01*
X149512859Y-128432857D02*
X150012859Y-128432857D01*
X150227145Y-129218571D02*
X149512859Y-129218571D01*
X149512859Y-127718571D01*
X150227145Y-127718571D01*
X151370002Y-128432857D02*
X150870002Y-128432857D01*
X150870002Y-129218571D02*
X150870002Y-127718571D01*
X151584288Y-127718571D01*
X151941430Y-127718571D02*
X152798573Y-127718571D01*
X152370002Y-129218571D02*
X152370002Y-127718571D01*
X153155716Y-129790000D02*
X153227144Y-129718571D01*
X153370001Y-129504286D01*
X153441430Y-129361429D01*
X153512859Y-129147143D01*
X153584287Y-128790000D01*
X153584287Y-128504286D01*
X153512859Y-128147143D01*
X153441430Y-127932857D01*
X153370001Y-127790000D01*
X153227144Y-127575714D01*
X153155716Y-127504286D01*
X67155714Y-130411429D02*
X67227143Y-130340000D01*
X67370000Y-130268571D01*
X67727143Y-130268571D01*
X67870000Y-130340000D01*
X67941429Y-130411429D01*
X68012857Y-130554286D01*
X68012857Y-130697143D01*
X67941429Y-130911429D01*
X67084286Y-131768571D01*
X68012857Y-131768571D01*
X68655714Y-131625714D02*
X68727142Y-131697143D01*
X68655714Y-131768571D01*
X68584285Y-131697143D01*
X68655714Y-131625714D01*
X68655714Y-131768571D01*
X71370000Y-131625714D02*
X71298571Y-131697143D01*
X71084285Y-131768571D01*
X70941428Y-131768571D01*
X70727143Y-131697143D01*
X70584285Y-131554286D01*
X70512857Y-131411429D01*
X70441428Y-131125714D01*
X70441428Y-130911429D01*
X70512857Y-130625714D01*
X70584285Y-130482857D01*
X70727143Y-130340000D01*
X70941428Y-130268571D01*
X71084285Y-130268571D01*
X71298571Y-130340000D01*
X71370000Y-130411429D01*
X72298571Y-130268571D02*
X72584285Y-130268571D01*
X72727143Y-130340000D01*
X72870000Y-130482857D01*
X72941428Y-130768571D01*
X72941428Y-131268571D01*
X72870000Y-131554286D01*
X72727143Y-131697143D01*
X72584285Y-131768571D01*
X72298571Y-131768571D01*
X72155714Y-131697143D01*
X72012857Y-131554286D01*
X71941428Y-131268571D01*
X71941428Y-130768571D01*
X72012857Y-130482857D01*
X72155714Y-130340000D01*
X72298571Y-130268571D01*
X73584286Y-131768571D02*
X73584286Y-130268571D01*
X74084286Y-131340000D01*
X74584286Y-130268571D01*
X74584286Y-131768571D01*
X75298572Y-131768571D02*
X75298572Y-130268571D01*
X75870000Y-130268571D01*
X76012858Y-130340000D01*
X76084286Y-130411429D01*
X76155715Y-130554286D01*
X76155715Y-130768571D01*
X76084286Y-130911429D01*
X76012858Y-130982857D01*
X75870000Y-131054286D01*
X75298572Y-131054286D01*
X77084286Y-130268571D02*
X77370000Y-130268571D01*
X77512858Y-130340000D01*
X77655715Y-130482857D01*
X77727143Y-130768571D01*
X77727143Y-131268571D01*
X77655715Y-131554286D01*
X77512858Y-131697143D01*
X77370000Y-131768571D01*
X77084286Y-131768571D01*
X76941429Y-131697143D01*
X76798572Y-131554286D01*
X76727143Y-131268571D01*
X76727143Y-130768571D01*
X76798572Y-130482857D01*
X76941429Y-130340000D01*
X77084286Y-130268571D01*
X78370001Y-131768571D02*
X78370001Y-130268571D01*
X79227144Y-131768571D01*
X79227144Y-130268571D01*
X79941430Y-130982857D02*
X80441430Y-130982857D01*
X80655716Y-131768571D02*
X79941430Y-131768571D01*
X79941430Y-130268571D01*
X80655716Y-130268571D01*
X81298573Y-131768571D02*
X81298573Y-130268571D01*
X82155716Y-131768571D01*
X82155716Y-130268571D01*
X82655716Y-130268571D02*
X83512859Y-130268571D01*
X83084288Y-131768571D02*
X83084288Y-130268571D01*
X85441430Y-130268571D02*
X85727144Y-130268571D01*
X85870002Y-130340000D01*
X86012859Y-130482857D01*
X86084287Y-130768571D01*
X86084287Y-131268571D01*
X86012859Y-131554286D01*
X85870002Y-131697143D01*
X85727144Y-131768571D01*
X85441430Y-131768571D01*
X85298573Y-131697143D01*
X85155716Y-131554286D01*
X85084287Y-131268571D01*
X85084287Y-130768571D01*
X85155716Y-130482857D01*
X85298573Y-130340000D01*
X85441430Y-130268571D01*
X87584288Y-131768571D02*
X87084288Y-131054286D01*
X86727145Y-131768571D02*
X86727145Y-130268571D01*
X87298573Y-130268571D01*
X87441431Y-130340000D01*
X87512859Y-130411429D01*
X87584288Y-130554286D01*
X87584288Y-130768571D01*
X87512859Y-130911429D01*
X87441431Y-130982857D01*
X87298573Y-131054286D01*
X86727145Y-131054286D01*
X88227145Y-131768571D02*
X88227145Y-130268571D01*
X88941431Y-130982857D02*
X89441431Y-130982857D01*
X89655717Y-131768571D02*
X88941431Y-131768571D01*
X88941431Y-130268571D01*
X89655717Y-130268571D01*
X90298574Y-131768571D02*
X90298574Y-130268571D01*
X91155717Y-131768571D01*
X91155717Y-130268571D01*
X91655717Y-130268571D02*
X92512860Y-130268571D01*
X92084289Y-131768571D02*
X92084289Y-130268571D01*
X92941431Y-131340000D02*
X93655717Y-131340000D01*
X92798574Y-131768571D02*
X93298574Y-130268571D01*
X93798574Y-131768571D01*
X94084288Y-130268571D02*
X94941431Y-130268571D01*
X94512860Y-131768571D02*
X94512860Y-130268571D01*
X95441431Y-131768571D02*
X95441431Y-130268571D01*
X96441431Y-130268571D02*
X96727145Y-130268571D01*
X96870003Y-130340000D01*
X97012860Y-130482857D01*
X97084288Y-130768571D01*
X97084288Y-131268571D01*
X97012860Y-131554286D01*
X96870003Y-131697143D01*
X96727145Y-131768571D01*
X96441431Y-131768571D01*
X96298574Y-131697143D01*
X96155717Y-131554286D01*
X96084288Y-131268571D01*
X96084288Y-130768571D01*
X96155717Y-130482857D01*
X96298574Y-130340000D01*
X96441431Y-130268571D01*
X97727146Y-131768571D02*
X97727146Y-130268571D01*
X98584289Y-131768571D01*
X98584289Y-130268571D01*
X100441432Y-131768571D02*
X100441432Y-130268571D01*
X101155718Y-131768571D02*
X101155718Y-130268571D01*
X102012861Y-131768571D01*
X102012861Y-130268571D01*
X103870004Y-131768571D02*
X103870004Y-130268571D01*
X104227147Y-130268571D01*
X104441432Y-130340000D01*
X104584290Y-130482857D01*
X104655718Y-130625714D01*
X104727147Y-130911429D01*
X104727147Y-131125714D01*
X104655718Y-131411429D01*
X104584290Y-131554286D01*
X104441432Y-131697143D01*
X104227147Y-131768571D01*
X103870004Y-131768571D01*
X105370004Y-130982857D02*
X105870004Y-130982857D01*
X106084290Y-131768571D02*
X105370004Y-131768571D01*
X105370004Y-130268571D01*
X106084290Y-130268571D01*
X107512861Y-130340000D02*
X107370004Y-130268571D01*
X107155718Y-130268571D01*
X106941433Y-130340000D01*
X106798575Y-130482857D01*
X106727147Y-130625714D01*
X106655718Y-130911429D01*
X106655718Y-131125714D01*
X106727147Y-131411429D01*
X106798575Y-131554286D01*
X106941433Y-131697143D01*
X107155718Y-131768571D01*
X107298575Y-131768571D01*
X107512861Y-131697143D01*
X107584290Y-131625714D01*
X107584290Y-131125714D01*
X107298575Y-131125714D01*
X109084290Y-131768571D02*
X108584290Y-131054286D01*
X108227147Y-131768571D02*
X108227147Y-130268571D01*
X108798575Y-130268571D01*
X108941433Y-130340000D01*
X109012861Y-130411429D01*
X109084290Y-130554286D01*
X109084290Y-130768571D01*
X109012861Y-130911429D01*
X108941433Y-130982857D01*
X108798575Y-131054286D01*
X108227147Y-131054286D01*
X109727147Y-130982857D02*
X110227147Y-130982857D01*
X110441433Y-131768571D02*
X109727147Y-131768571D01*
X109727147Y-130268571D01*
X110441433Y-130268571D01*
X111084290Y-130982857D02*
X111584290Y-130982857D01*
X111798576Y-131768571D02*
X111084290Y-131768571D01*
X111084290Y-130268571D01*
X111798576Y-130268571D01*
X112370004Y-131697143D02*
X112584290Y-131768571D01*
X112941433Y-131768571D01*
X113084290Y-131697143D01*
X113155719Y-131625714D01*
X113227147Y-131482857D01*
X113227147Y-131340000D01*
X113155719Y-131197143D01*
X113084290Y-131125714D01*
X112941433Y-131054286D01*
X112655719Y-130982857D01*
X112512861Y-130911429D01*
X112441433Y-130840000D01*
X112370004Y-130697143D01*
X112370004Y-130554286D01*
X112441433Y-130411429D01*
X112512861Y-130340000D01*
X112655719Y-130268571D01*
X113012861Y-130268571D01*
X113227147Y-130340000D01*
X115870004Y-131625714D02*
X115798575Y-131697143D01*
X115584289Y-131768571D01*
X115441432Y-131768571D01*
X115227147Y-131697143D01*
X115084289Y-131554286D01*
X115012861Y-131411429D01*
X114941432Y-131125714D01*
X114941432Y-130911429D01*
X115012861Y-130625714D01*
X115084289Y-130482857D01*
X115227147Y-130340000D01*
X115441432Y-130268571D01*
X115584289Y-130268571D01*
X115798575Y-130340000D01*
X115870004Y-130411429D01*
X116798575Y-130268571D02*
X117084289Y-130268571D01*
X117227147Y-130340000D01*
X117370004Y-130482857D01*
X117441432Y-130768571D01*
X117441432Y-131268571D01*
X117370004Y-131554286D01*
X117227147Y-131697143D01*
X117084289Y-131768571D01*
X116798575Y-131768571D01*
X116655718Y-131697143D01*
X116512861Y-131554286D01*
X116441432Y-131268571D01*
X116441432Y-130768571D01*
X116512861Y-130482857D01*
X116655718Y-130340000D01*
X116798575Y-130268571D01*
X118084290Y-130268571D02*
X118084290Y-131482857D01*
X118155718Y-131625714D01*
X118227147Y-131697143D01*
X118370004Y-131768571D01*
X118655718Y-131768571D01*
X118798576Y-131697143D01*
X118870004Y-131625714D01*
X118941433Y-131482857D01*
X118941433Y-130268571D01*
X119655719Y-131768571D02*
X119655719Y-130268571D01*
X120512862Y-131768571D01*
X120512862Y-130268571D01*
X121012862Y-130268571D02*
X121870005Y-130268571D01*
X121441434Y-131768571D02*
X121441434Y-130268571D01*
X122370005Y-130982857D02*
X122870005Y-130982857D01*
X123084291Y-131768571D02*
X122370005Y-131768571D01*
X122370005Y-130268571D01*
X123084291Y-130268571D01*
X124584291Y-131768571D02*
X124084291Y-131054286D01*
X123727148Y-131768571D02*
X123727148Y-130268571D01*
X124298576Y-130268571D01*
X124441434Y-130340000D01*
X124512862Y-130411429D01*
X124584291Y-130554286D01*
X124584291Y-130768571D01*
X124512862Y-130911429D01*
X124441434Y-130982857D01*
X124298576Y-131054286D01*
X123727148Y-131054286D01*
X125227148Y-131197143D02*
X126370005Y-131197143D01*
X127941434Y-131625714D02*
X127870005Y-131697143D01*
X127655719Y-131768571D01*
X127512862Y-131768571D01*
X127298577Y-131697143D01*
X127155719Y-131554286D01*
X127084291Y-131411429D01*
X127012862Y-131125714D01*
X127012862Y-130911429D01*
X127084291Y-130625714D01*
X127155719Y-130482857D01*
X127298577Y-130340000D01*
X127512862Y-130268571D01*
X127655719Y-130268571D01*
X127870005Y-130340000D01*
X127941434Y-130411429D01*
X129298577Y-131768571D02*
X128584291Y-131768571D01*
X128584291Y-130268571D01*
X130084291Y-130268571D02*
X130370005Y-130268571D01*
X130512863Y-130340000D01*
X130655720Y-130482857D01*
X130727148Y-130768571D01*
X130727148Y-131268571D01*
X130655720Y-131554286D01*
X130512863Y-131697143D01*
X130370005Y-131768571D01*
X130084291Y-131768571D01*
X129941434Y-131697143D01*
X129798577Y-131554286D01*
X129727148Y-131268571D01*
X129727148Y-130768571D01*
X129798577Y-130482857D01*
X129941434Y-130340000D01*
X130084291Y-130268571D01*
X132227149Y-131625714D02*
X132155720Y-131697143D01*
X131941434Y-131768571D01*
X131798577Y-131768571D01*
X131584292Y-131697143D01*
X131441434Y-131554286D01*
X131370006Y-131411429D01*
X131298577Y-131125714D01*
X131298577Y-130911429D01*
X131370006Y-130625714D01*
X131441434Y-130482857D01*
X131584292Y-130340000D01*
X131798577Y-130268571D01*
X131941434Y-130268571D01*
X132155720Y-130340000D01*
X132227149Y-130411429D01*
X132870006Y-131768571D02*
X132870006Y-130268571D01*
X133727149Y-131768571D02*
X133084292Y-130911429D01*
X133727149Y-130268571D02*
X132870006Y-131125714D01*
X134227149Y-130268571D02*
X134584292Y-131768571D01*
X134870006Y-130697143D01*
X135155720Y-131768571D01*
X135512863Y-130268571D01*
X136084292Y-131768571D02*
X136084292Y-130268571D01*
X136727149Y-131697143D02*
X136941435Y-131768571D01*
X137298578Y-131768571D01*
X137441435Y-131697143D01*
X137512864Y-131625714D01*
X137584292Y-131482857D01*
X137584292Y-131340000D01*
X137512864Y-131197143D01*
X137441435Y-131125714D01*
X137298578Y-131054286D01*
X137012864Y-130982857D01*
X136870006Y-130911429D01*
X136798578Y-130840000D01*
X136727149Y-130697143D01*
X136727149Y-130554286D01*
X136798578Y-130411429D01*
X136870006Y-130340000D01*
X137012864Y-130268571D01*
X137370006Y-130268571D01*
X137584292Y-130340000D01*
X138227149Y-130982857D02*
X138727149Y-130982857D01*
X138941435Y-131768571D02*
X138227149Y-131768571D01*
X138227149Y-130268571D01*
X138941435Y-130268571D01*
X67084286Y-132818571D02*
X68012857Y-132818571D01*
X67512857Y-133390000D01*
X67727143Y-133390000D01*
X67870000Y-133461429D01*
X67941429Y-133532857D01*
X68012857Y-133675714D01*
X68012857Y-134032857D01*
X67941429Y-134175714D01*
X67870000Y-134247143D01*
X67727143Y-134318571D01*
X67298571Y-134318571D01*
X67155714Y-134247143D01*
X67084286Y-134175714D01*
X68655714Y-134175714D02*
X68727142Y-134247143D01*
X68655714Y-134318571D01*
X68584285Y-134247143D01*
X68655714Y-134175714D01*
X68655714Y-134318571D01*
X71370000Y-134175714D02*
X71298571Y-134247143D01*
X71084285Y-134318571D01*
X70941428Y-134318571D01*
X70727143Y-134247143D01*
X70584285Y-134104286D01*
X70512857Y-133961429D01*
X70441428Y-133675714D01*
X70441428Y-133461429D01*
X70512857Y-133175714D01*
X70584285Y-133032857D01*
X70727143Y-132890000D01*
X70941428Y-132818571D01*
X71084285Y-132818571D01*
X71298571Y-132890000D01*
X71370000Y-132961429D01*
X72298571Y-132818571D02*
X72584285Y-132818571D01*
X72727143Y-132890000D01*
X72870000Y-133032857D01*
X72941428Y-133318571D01*
X72941428Y-133818571D01*
X72870000Y-134104286D01*
X72727143Y-134247143D01*
X72584285Y-134318571D01*
X72298571Y-134318571D01*
X72155714Y-134247143D01*
X72012857Y-134104286D01*
X71941428Y-133818571D01*
X71941428Y-133318571D01*
X72012857Y-133032857D01*
X72155714Y-132890000D01*
X72298571Y-132818571D01*
X73584286Y-134318571D02*
X73584286Y-132818571D01*
X74084286Y-133890000D01*
X74584286Y-132818571D01*
X74584286Y-134318571D01*
X75298572Y-134318571D02*
X75298572Y-132818571D01*
X75870000Y-132818571D01*
X76012858Y-132890000D01*
X76084286Y-132961429D01*
X76155715Y-133104286D01*
X76155715Y-133318571D01*
X76084286Y-133461429D01*
X76012858Y-133532857D01*
X75870000Y-133604286D01*
X75298572Y-133604286D01*
X77084286Y-132818571D02*
X77370000Y-132818571D01*
X77512858Y-132890000D01*
X77655715Y-133032857D01*
X77727143Y-133318571D01*
X77727143Y-133818571D01*
X77655715Y-134104286D01*
X77512858Y-134247143D01*
X77370000Y-134318571D01*
X77084286Y-134318571D01*
X76941429Y-134247143D01*
X76798572Y-134104286D01*
X76727143Y-133818571D01*
X76727143Y-133318571D01*
X76798572Y-133032857D01*
X76941429Y-132890000D01*
X77084286Y-132818571D01*
X78370001Y-134318571D02*
X78370001Y-132818571D01*
X79227144Y-134318571D01*
X79227144Y-132818571D01*
X79941430Y-133532857D02*
X80441430Y-133532857D01*
X80655716Y-134318571D02*
X79941430Y-134318571D01*
X79941430Y-132818571D01*
X80655716Y-132818571D01*
X81298573Y-134318571D02*
X81298573Y-132818571D01*
X82155716Y-134318571D01*
X82155716Y-132818571D01*
X82655716Y-132818571D02*
X83512859Y-132818571D01*
X83084288Y-134318571D02*
X83084288Y-132818571D01*
X83941430Y-134247143D02*
X84155716Y-134318571D01*
X84512859Y-134318571D01*
X84655716Y-134247143D01*
X84727145Y-134175714D01*
X84798573Y-134032857D01*
X84798573Y-133890000D01*
X84727145Y-133747143D01*
X84655716Y-133675714D01*
X84512859Y-133604286D01*
X84227145Y-133532857D01*
X84084287Y-133461429D01*
X84012859Y-133390000D01*
X83941430Y-133247143D01*
X83941430Y-133104286D01*
X84012859Y-132961429D01*
X84084287Y-132890000D01*
X84227145Y-132818571D01*
X84584287Y-132818571D01*
X84798573Y-132890000D01*
X86512858Y-133890000D02*
X87227144Y-133890000D01*
X86370001Y-134318571D02*
X86870001Y-132818571D01*
X87370001Y-134318571D01*
X88727144Y-134318571D02*
X88227144Y-133604286D01*
X87870001Y-134318571D02*
X87870001Y-132818571D01*
X88441429Y-132818571D01*
X88584287Y-132890000D01*
X88655715Y-132961429D01*
X88727144Y-133104286D01*
X88727144Y-133318571D01*
X88655715Y-133461429D01*
X88584287Y-133532857D01*
X88441429Y-133604286D01*
X87870001Y-133604286D01*
X89370001Y-133532857D02*
X89870001Y-133532857D01*
X90084287Y-134318571D02*
X89370001Y-134318571D01*
X89370001Y-132818571D01*
X90084287Y-132818571D01*
X91870001Y-134318571D02*
X91870001Y-132818571D01*
X92370001Y-133890000D01*
X92870001Y-132818571D01*
X92870001Y-134318571D01*
X93870001Y-132818571D02*
X94155715Y-132818571D01*
X94298573Y-132890000D01*
X94441430Y-133032857D01*
X94512858Y-133318571D01*
X94512858Y-133818571D01*
X94441430Y-134104286D01*
X94298573Y-134247143D01*
X94155715Y-134318571D01*
X93870001Y-134318571D01*
X93727144Y-134247143D01*
X93584287Y-134104286D01*
X93512858Y-133818571D01*
X93512858Y-133318571D01*
X93584287Y-133032857D01*
X93727144Y-132890000D01*
X93870001Y-132818571D01*
X95155716Y-132818571D02*
X95155716Y-134032857D01*
X95227144Y-134175714D01*
X95298573Y-134247143D01*
X95441430Y-134318571D01*
X95727144Y-134318571D01*
X95870002Y-134247143D01*
X95941430Y-134175714D01*
X96012859Y-134032857D01*
X96012859Y-132818571D01*
X96727145Y-134318571D02*
X96727145Y-132818571D01*
X97584288Y-134318571D01*
X97584288Y-132818571D01*
X98084288Y-132818571D02*
X98941431Y-132818571D01*
X98512860Y-134318571D02*
X98512860Y-132818571D01*
X99441431Y-133532857D02*
X99941431Y-133532857D01*
X100155717Y-134318571D02*
X99441431Y-134318571D01*
X99441431Y-132818571D01*
X100155717Y-132818571D01*
X100798574Y-134318571D02*
X100798574Y-132818571D01*
X101155717Y-132818571D01*
X101370002Y-132890000D01*
X101512860Y-133032857D01*
X101584288Y-133175714D01*
X101655717Y-133461429D01*
X101655717Y-133675714D01*
X101584288Y-133961429D01*
X101512860Y-134104286D01*
X101370002Y-134247143D01*
X101155717Y-134318571D01*
X100798574Y-134318571D01*
X103727145Y-132818571D02*
X104012859Y-132818571D01*
X104155717Y-132890000D01*
X104298574Y-133032857D01*
X104370002Y-133318571D01*
X104370002Y-133818571D01*
X104298574Y-134104286D01*
X104155717Y-134247143D01*
X104012859Y-134318571D01*
X103727145Y-134318571D01*
X103584288Y-134247143D01*
X103441431Y-134104286D01*
X103370002Y-133818571D01*
X103370002Y-133318571D01*
X103441431Y-133032857D01*
X103584288Y-132890000D01*
X103727145Y-132818571D01*
X105012860Y-134318571D02*
X105012860Y-132818571D01*
X105870003Y-134318571D01*
X105870003Y-132818571D01*
X108227146Y-133532857D02*
X108441432Y-133604286D01*
X108512860Y-133675714D01*
X108584289Y-133818571D01*
X108584289Y-134032857D01*
X108512860Y-134175714D01*
X108441432Y-134247143D01*
X108298574Y-134318571D01*
X107727146Y-134318571D01*
X107727146Y-132818571D01*
X108227146Y-132818571D01*
X108370003Y-132890000D01*
X108441432Y-132961429D01*
X108512860Y-133104286D01*
X108512860Y-133247143D01*
X108441432Y-133390000D01*
X108370003Y-133461429D01*
X108227146Y-133532857D01*
X107727146Y-133532857D01*
X109227146Y-134175714D02*
X109298574Y-134247143D01*
X109227146Y-134318571D01*
X109155717Y-134247143D01*
X109227146Y-134175714D01*
X109227146Y-134318571D01*
X110798575Y-134175714D02*
X110727146Y-134247143D01*
X110512860Y-134318571D01*
X110370003Y-134318571D01*
X110155718Y-134247143D01*
X110012860Y-134104286D01*
X109941432Y-133961429D01*
X109870003Y-133675714D01*
X109870003Y-133461429D01*
X109941432Y-133175714D01*
X110012860Y-133032857D01*
X110155718Y-132890000D01*
X110370003Y-132818571D01*
X110512860Y-132818571D01*
X110727146Y-132890000D01*
X110798575Y-132961429D01*
X111441432Y-132818571D02*
X111441432Y-134032857D01*
X111512860Y-134175714D01*
X111584289Y-134247143D01*
X111727146Y-134318571D01*
X112012860Y-134318571D01*
X112155718Y-134247143D01*
X112227146Y-134175714D01*
X112298575Y-134032857D01*
X112298575Y-132818571D01*
X114870004Y-134318571D02*
X114155718Y-134318571D01*
X114155718Y-132818571D01*
X115298575Y-133890000D02*
X116012861Y-133890000D01*
X115155718Y-134318571D02*
X115655718Y-132818571D01*
X116155718Y-134318571D01*
X116941432Y-133604286D02*
X116941432Y-134318571D01*
X116441432Y-132818571D02*
X116941432Y-133604286D01*
X117441432Y-132818571D01*
X117941432Y-133532857D02*
X118441432Y-133532857D01*
X118655718Y-134318571D02*
X117941432Y-134318571D01*
X117941432Y-132818571D01*
X118655718Y-132818571D01*
X120155718Y-134318571D02*
X119655718Y-133604286D01*
X119298575Y-134318571D02*
X119298575Y-132818571D01*
X119870003Y-132818571D01*
X120012861Y-132890000D01*
X120084289Y-132961429D01*
X120155718Y-133104286D01*
X120155718Y-133318571D01*
X120084289Y-133461429D01*
X120012861Y-133532857D01*
X119870003Y-133604286D01*
X119298575Y-133604286D01*
X122227146Y-132818571D02*
X122512860Y-132818571D01*
X122655718Y-132890000D01*
X122798575Y-133032857D01*
X122870003Y-133318571D01*
X122870003Y-133818571D01*
X122798575Y-134104286D01*
X122655718Y-134247143D01*
X122512860Y-134318571D01*
X122227146Y-134318571D01*
X122084289Y-134247143D01*
X121941432Y-134104286D01*
X121870003Y-133818571D01*
X121870003Y-133318571D01*
X121941432Y-133032857D01*
X122084289Y-132890000D01*
X122227146Y-132818571D01*
X123512861Y-134318571D02*
X123512861Y-132818571D01*
X124370004Y-134318571D01*
X124370004Y-132818571D01*
X125798576Y-134318571D02*
X125084290Y-134318571D01*
X125084290Y-132818571D01*
X126584290Y-133604286D02*
X126584290Y-134318571D01*
X126084290Y-132818571D02*
X126584290Y-133604286D01*
X127084290Y-132818571D01*
X67870000Y-135868571D02*
X67870000Y-136868571D01*
X67512857Y-135297143D02*
X67155714Y-136368571D01*
X68084286Y-136368571D01*
X68655714Y-136725714D02*
X68727142Y-136797143D01*
X68655714Y-136868571D01*
X68584285Y-136797143D01*
X68655714Y-136725714D01*
X68655714Y-136868571D01*
X70512857Y-136868571D02*
X70512857Y-135368571D01*
X71084285Y-135368571D01*
X71227143Y-135440000D01*
X71298571Y-135511429D01*
X71370000Y-135654286D01*
X71370000Y-135868571D01*
X71298571Y-136011429D01*
X71227143Y-136082857D01*
X71084285Y-136154286D01*
X70512857Y-136154286D01*
X72870000Y-136725714D02*
X72798571Y-136797143D01*
X72584285Y-136868571D01*
X72441428Y-136868571D01*
X72227143Y-136797143D01*
X72084285Y-136654286D01*
X72012857Y-136511429D01*
X71941428Y-136225714D01*
X71941428Y-136011429D01*
X72012857Y-135725714D01*
X72084285Y-135582857D01*
X72227143Y-135440000D01*
X72441428Y-135368571D01*
X72584285Y-135368571D01*
X72798571Y-135440000D01*
X72870000Y-135511429D01*
X74012857Y-136082857D02*
X74227143Y-136154286D01*
X74298571Y-136225714D01*
X74370000Y-136368571D01*
X74370000Y-136582857D01*
X74298571Y-136725714D01*
X74227143Y-136797143D01*
X74084285Y-136868571D01*
X73512857Y-136868571D01*
X73512857Y-135368571D01*
X74012857Y-135368571D01*
X74155714Y-135440000D01*
X74227143Y-135511429D01*
X74298571Y-135654286D01*
X74298571Y-135797143D01*
X74227143Y-135940000D01*
X74155714Y-136011429D01*
X74012857Y-136082857D01*
X73512857Y-136082857D01*
X76155714Y-136868571D02*
X76155714Y-135368571D01*
X76798571Y-136797143D02*
X77012857Y-136868571D01*
X77370000Y-136868571D01*
X77512857Y-136797143D01*
X77584286Y-136725714D01*
X77655714Y-136582857D01*
X77655714Y-136440000D01*
X77584286Y-136297143D01*
X77512857Y-136225714D01*
X77370000Y-136154286D01*
X77084286Y-136082857D01*
X76941428Y-136011429D01*
X76870000Y-135940000D01*
X76798571Y-135797143D01*
X76798571Y-135654286D01*
X76870000Y-135511429D01*
X76941428Y-135440000D01*
X77084286Y-135368571D01*
X77441428Y-135368571D01*
X77655714Y-135440000D01*
X80227142Y-136868571D02*
X79369999Y-136868571D01*
X79798571Y-136868571D02*
X79798571Y-135368571D01*
X79655714Y-135582857D01*
X79512856Y-135725714D01*
X79369999Y-135797143D01*
X80869999Y-136725714D02*
X80941427Y-136797143D01*
X80869999Y-136868571D01*
X80798570Y-136797143D01*
X80869999Y-136725714D01*
X80869999Y-136868571D01*
X82227142Y-135368571D02*
X81941428Y-135368571D01*
X81798571Y-135440000D01*
X81727142Y-135511429D01*
X81584285Y-135725714D01*
X81512856Y-136011429D01*
X81512856Y-136582857D01*
X81584285Y-136725714D01*
X81655713Y-136797143D01*
X81798571Y-136868571D01*
X82084285Y-136868571D01*
X82227142Y-136797143D01*
X82298571Y-136725714D01*
X82369999Y-136582857D01*
X82369999Y-136225714D01*
X82298571Y-136082857D01*
X82227142Y-136011429D01*
X82084285Y-135940000D01*
X81798571Y-135940000D01*
X81655713Y-136011429D01*
X81584285Y-136082857D01*
X81512856Y-136225714D01*
X83012856Y-136868571D02*
X83012856Y-135868571D01*
X83012856Y-136011429D02*
X83084284Y-135940000D01*
X83227142Y-135868571D01*
X83441427Y-135868571D01*
X83584284Y-135940000D01*
X83655713Y-136082857D01*
X83655713Y-136868571D01*
X83655713Y-136082857D02*
X83727142Y-135940000D01*
X83869999Y-135868571D01*
X84084284Y-135868571D01*
X84227142Y-135940000D01*
X84298570Y-136082857D01*
X84298570Y-136868571D01*
X85012856Y-136868571D02*
X85012856Y-135868571D01*
X85012856Y-136011429D02*
X85084284Y-135940000D01*
X85227142Y-135868571D01*
X85441427Y-135868571D01*
X85584284Y-135940000D01*
X85655713Y-136082857D01*
X85655713Y-136868571D01*
X85655713Y-136082857D02*
X85727142Y-135940000D01*
X85869999Y-135868571D01*
X86084284Y-135868571D01*
X86227142Y-135940000D01*
X86298570Y-136082857D01*
X86298570Y-136868571D01*
X88655713Y-136082857D02*
X88155713Y-136082857D01*
X88155713Y-136868571D02*
X88155713Y-135368571D01*
X88869999Y-135368571D01*
X90298570Y-136868571D02*
X89798570Y-136154286D01*
X89441427Y-136868571D02*
X89441427Y-135368571D01*
X90012855Y-135368571D01*
X90155713Y-135440000D01*
X90227141Y-135511429D01*
X90298570Y-135654286D01*
X90298570Y-135868571D01*
X90227141Y-136011429D01*
X90155713Y-136082857D01*
X90012855Y-136154286D01*
X89441427Y-136154286D01*
X91584284Y-135868571D02*
X91584284Y-136868571D01*
X91227141Y-135297143D02*
X90869998Y-136368571D01*
X91798570Y-136368571D01*
X94369998Y-136868571D02*
X93869998Y-136154286D01*
X93512855Y-136868571D02*
X93512855Y-135368571D01*
X94084283Y-135368571D01*
X94227141Y-135440000D01*
X94298569Y-135511429D01*
X94369998Y-135654286D01*
X94369998Y-135868571D01*
X94298569Y-136011429D01*
X94227141Y-136082857D01*
X94084283Y-136154286D01*
X93512855Y-136154286D01*
X94941426Y-136440000D02*
X95655712Y-136440000D01*
X94798569Y-136868571D02*
X95298569Y-135368571D01*
X95798569Y-136868571D01*
X96084283Y-135368571D02*
X96941426Y-135368571D01*
X96512855Y-136868571D02*
X96512855Y-135368571D01*
X97441426Y-136082857D02*
X97941426Y-136082857D01*
X98155712Y-136868571D02*
X97441426Y-136868571D01*
X97441426Y-135368571D01*
X98155712Y-135368571D01*
X98798569Y-136868571D02*
X98798569Y-135368571D01*
X99155712Y-135368571D01*
X99369997Y-135440000D01*
X99512855Y-135582857D01*
X99584283Y-135725714D01*
X99655712Y-136011429D01*
X99655712Y-136225714D01*
X99584283Y-136511429D01*
X99512855Y-136654286D01*
X99369997Y-136797143D01*
X99155712Y-136868571D01*
X98798569Y-136868571D01*
X101941426Y-136082857D02*
X101441426Y-136082857D01*
X101441426Y-136868571D02*
X101441426Y-135368571D01*
X102155712Y-135368571D01*
X103012854Y-135368571D02*
X103298568Y-135368571D01*
X103441426Y-135440000D01*
X103584283Y-135582857D01*
X103655711Y-135868571D01*
X103655711Y-136368571D01*
X103584283Y-136654286D01*
X103441426Y-136797143D01*
X103298568Y-136868571D01*
X103012854Y-136868571D01*
X102869997Y-136797143D01*
X102727140Y-136654286D01*
X102655711Y-136368571D01*
X102655711Y-135868571D01*
X102727140Y-135582857D01*
X102869997Y-135440000D01*
X103012854Y-135368571D01*
X105155712Y-136868571D02*
X104655712Y-136154286D01*
X104298569Y-136868571D02*
X104298569Y-135368571D01*
X104869997Y-135368571D01*
X105012855Y-135440000D01*
X105084283Y-135511429D01*
X105155712Y-135654286D01*
X105155712Y-135868571D01*
X105084283Y-136011429D01*
X105012855Y-136082857D01*
X104869997Y-136154286D01*
X104298569Y-136154286D01*
X107798569Y-136868571D02*
X107298569Y-136154286D01*
X106941426Y-136868571D02*
X106941426Y-135368571D01*
X107512854Y-135368571D01*
X107655712Y-135440000D01*
X107727140Y-135511429D01*
X107798569Y-135654286D01*
X107798569Y-135868571D01*
X107727140Y-136011429D01*
X107655712Y-136082857D01*
X107512854Y-136154286D01*
X106941426Y-136154286D01*
X108727140Y-135368571D02*
X109012854Y-135368571D01*
X109155712Y-135440000D01*
X109298569Y-135582857D01*
X109369997Y-135868571D01*
X109369997Y-136368571D01*
X109298569Y-136654286D01*
X109155712Y-136797143D01*
X109012854Y-136868571D01*
X108727140Y-136868571D01*
X108584283Y-136797143D01*
X108441426Y-136654286D01*
X108369997Y-136368571D01*
X108369997Y-135868571D01*
X108441426Y-135582857D01*
X108584283Y-135440000D01*
X108727140Y-135368571D01*
X110012855Y-136868571D02*
X110012855Y-135368571D01*
X110012855Y-136082857D02*
X110869998Y-136082857D01*
X110869998Y-136868571D02*
X110869998Y-135368571D01*
X111512855Y-136797143D02*
X111727141Y-136868571D01*
X112084284Y-136868571D01*
X112227141Y-136797143D01*
X112298570Y-136725714D01*
X112369998Y-136582857D01*
X112369998Y-136440000D01*
X112298570Y-136297143D01*
X112227141Y-136225714D01*
X112084284Y-136154286D01*
X111798570Y-136082857D01*
X111655712Y-136011429D01*
X111584284Y-135940000D01*
X111512855Y-135797143D01*
X111512855Y-135654286D01*
X111584284Y-135511429D01*
X111655712Y-135440000D01*
X111798570Y-135368571D01*
X112155712Y-135368571D01*
X112369998Y-135440000D01*
X115012855Y-136868571D02*
X114512855Y-136154286D01*
X114155712Y-136868571D02*
X114155712Y-135368571D01*
X114727140Y-135368571D01*
X114869998Y-135440000D01*
X114941426Y-135511429D01*
X115012855Y-135654286D01*
X115012855Y-135868571D01*
X114941426Y-136011429D01*
X114869998Y-136082857D01*
X114727140Y-136154286D01*
X114155712Y-136154286D01*
X115655712Y-136082857D02*
X116155712Y-136082857D01*
X116369998Y-136868571D02*
X115655712Y-136868571D01*
X115655712Y-135368571D01*
X116369998Y-135368571D01*
X117512855Y-136082857D02*
X117012855Y-136082857D01*
X117012855Y-136868571D02*
X117012855Y-135368571D01*
X117727141Y-135368571D01*
X119012855Y-136868571D02*
X118298569Y-136868571D01*
X118298569Y-135368571D01*
X119798569Y-135368571D02*
X120084283Y-135368571D01*
X120227141Y-135440000D01*
X120369998Y-135582857D01*
X120441426Y-135868571D01*
X120441426Y-136368571D01*
X120369998Y-136654286D01*
X120227141Y-136797143D01*
X120084283Y-136868571D01*
X119798569Y-136868571D01*
X119655712Y-136797143D01*
X119512855Y-136654286D01*
X119441426Y-136368571D01*
X119441426Y-135868571D01*
X119512855Y-135582857D01*
X119655712Y-135440000D01*
X119798569Y-135368571D01*
X120941427Y-135368571D02*
X121298570Y-136868571D01*
X121584284Y-135797143D01*
X121869998Y-136868571D01*
X122227141Y-135368571D01*
X122869998Y-136797143D02*
X122869998Y-136868571D01*
X122798570Y-137011429D01*
X122727141Y-137082857D01*
X125441427Y-136868571D02*
X124584284Y-136868571D01*
X125012856Y-136868571D02*
X125012856Y-135368571D01*
X124869999Y-135582857D01*
X124727141Y-135725714D01*
X124584284Y-135797143D01*
X126369998Y-135368571D02*
X126655712Y-135368571D01*
X126798570Y-135440000D01*
X126941427Y-135582857D01*
X127012855Y-135868571D01*
X127012855Y-136368571D01*
X126941427Y-136654286D01*
X126798570Y-136797143D01*
X126655712Y-136868571D01*
X126369998Y-136868571D01*
X126227141Y-136797143D01*
X126084284Y-136654286D01*
X126012855Y-136368571D01*
X126012855Y-135868571D01*
X126084284Y-135582857D01*
X126227141Y-135440000D01*
X126369998Y-135368571D01*
X127512856Y-135368571D02*
X128512856Y-135368571D01*
X127512856Y-136868571D01*
X128512856Y-136868571D01*
X131084284Y-136725714D02*
X131012855Y-136797143D01*
X130798569Y-136868571D01*
X130655712Y-136868571D01*
X130441427Y-136797143D01*
X130298569Y-136654286D01*
X130227141Y-136511429D01*
X130155712Y-136225714D01*
X130155712Y-136011429D01*
X130227141Y-135725714D01*
X130298569Y-135582857D01*
X130441427Y-135440000D01*
X130655712Y-135368571D01*
X130798569Y-135368571D01*
X131012855Y-135440000D01*
X131084284Y-135511429D01*
X132012855Y-135368571D02*
X132298569Y-135368571D01*
X132441427Y-135440000D01*
X132584284Y-135582857D01*
X132655712Y-135868571D01*
X132655712Y-136368571D01*
X132584284Y-136654286D01*
X132441427Y-136797143D01*
X132298569Y-136868571D01*
X132012855Y-136868571D01*
X131869998Y-136797143D01*
X131727141Y-136654286D01*
X131655712Y-136368571D01*
X131655712Y-135868571D01*
X131727141Y-135582857D01*
X131869998Y-135440000D01*
X132012855Y-135368571D01*
X133298570Y-136868571D02*
X133298570Y-135368571D01*
X133869998Y-135368571D01*
X134012856Y-135440000D01*
X134084284Y-135511429D01*
X134155713Y-135654286D01*
X134155713Y-135868571D01*
X134084284Y-136011429D01*
X134012856Y-136082857D01*
X133869998Y-136154286D01*
X133298570Y-136154286D01*
X134798570Y-136868571D02*
X134798570Y-135368571D01*
X135369998Y-135368571D01*
X135512856Y-135440000D01*
X135584284Y-135511429D01*
X135655713Y-135654286D01*
X135655713Y-135868571D01*
X135584284Y-136011429D01*
X135512856Y-136082857D01*
X135369998Y-136154286D01*
X134798570Y-136154286D01*
X136298570Y-136082857D02*
X136798570Y-136082857D01*
X137012856Y-136868571D02*
X136298570Y-136868571D01*
X136298570Y-135368571D01*
X137012856Y-135368571D01*
X138512856Y-136868571D02*
X138012856Y-136154286D01*
X137655713Y-136868571D02*
X137655713Y-135368571D01*
X138227141Y-135368571D01*
X138369999Y-135440000D01*
X138441427Y-135511429D01*
X138512856Y-135654286D01*
X138512856Y-135868571D01*
X138441427Y-136011429D01*
X138369999Y-136082857D01*
X138227141Y-136154286D01*
X137655713Y-136154286D01*
X139227141Y-136797143D02*
X139227141Y-136868571D01*
X139155713Y-137011429D01*
X139084284Y-137082857D01*
X141012856Y-136082857D02*
X141512856Y-136082857D01*
X141727142Y-136868571D02*
X141012856Y-136868571D01*
X141012856Y-135368571D01*
X141727142Y-135368571D01*
X142369999Y-136868571D02*
X142369999Y-135368571D01*
X143227142Y-136868571D01*
X143227142Y-135368571D01*
X143941428Y-136868571D02*
X143941428Y-135368571D01*
X145441428Y-135440000D02*
X145298571Y-135368571D01*
X145084285Y-135368571D01*
X144870000Y-135440000D01*
X144727142Y-135582857D01*
X144655714Y-135725714D01*
X144584285Y-136011429D01*
X144584285Y-136225714D01*
X144655714Y-136511429D01*
X144727142Y-136654286D01*
X144870000Y-136797143D01*
X145084285Y-136868571D01*
X145227142Y-136868571D01*
X145441428Y-136797143D01*
X145512857Y-136725714D01*
X145512857Y-136225714D01*
X145227142Y-136225714D01*
X147798571Y-136082857D02*
X147298571Y-136082857D01*
X147298571Y-136868571D02*
X147298571Y-135368571D01*
X148012857Y-135368571D01*
X148584285Y-136868571D02*
X148584285Y-135368571D01*
X149298571Y-136868571D02*
X149298571Y-135368571D01*
X150155714Y-136868571D01*
X150155714Y-135368571D01*
X150870000Y-136868571D02*
X150870000Y-135368571D01*
X151512857Y-136797143D02*
X151727143Y-136868571D01*
X152084286Y-136868571D01*
X152227143Y-136797143D01*
X152298572Y-136725714D01*
X152370000Y-136582857D01*
X152370000Y-136440000D01*
X152298572Y-136297143D01*
X152227143Y-136225714D01*
X152084286Y-136154286D01*
X151798572Y-136082857D01*
X151655714Y-136011429D01*
X151584286Y-135940000D01*
X151512857Y-135797143D01*
X151512857Y-135654286D01*
X151584286Y-135511429D01*
X151655714Y-135440000D01*
X151798572Y-135368571D01*
X152155714Y-135368571D01*
X152370000Y-135440000D01*
X153012857Y-136868571D02*
X153012857Y-135368571D01*
X153012857Y-136082857D02*
X153870000Y-136082857D01*
X153870000Y-136868571D02*
X153870000Y-135368571D01*
X67941429Y-137918571D02*
X67227143Y-137918571D01*
X67155714Y-138632857D01*
X67227143Y-138561429D01*
X67370000Y-138490000D01*
X67727143Y-138490000D01*
X67870000Y-138561429D01*
X67941429Y-138632857D01*
X68012857Y-138775714D01*
X68012857Y-139132857D01*
X67941429Y-139275714D01*
X67870000Y-139347143D01*
X67727143Y-139418571D01*
X67370000Y-139418571D01*
X67227143Y-139347143D01*
X67155714Y-139275714D01*
X68655714Y-139275714D02*
X68727142Y-139347143D01*
X68655714Y-139418571D01*
X68584285Y-139347143D01*
X68655714Y-139275714D01*
X68655714Y-139418571D01*
X70512857Y-139418571D02*
X70512857Y-137918571D01*
X71012857Y-138990000D01*
X71512857Y-137918571D01*
X71512857Y-139418571D01*
X72155714Y-138990000D02*
X72870000Y-138990000D01*
X72012857Y-139418571D02*
X72512857Y-137918571D01*
X73012857Y-139418571D01*
X73298571Y-137918571D02*
X74155714Y-137918571D01*
X73727143Y-139418571D02*
X73727143Y-137918571D01*
X74441428Y-137918571D02*
X75298571Y-137918571D01*
X74870000Y-139418571D02*
X74870000Y-137918571D01*
X75798571Y-138632857D02*
X76298571Y-138632857D01*
X76512857Y-139418571D02*
X75798571Y-139418571D01*
X75798571Y-137918571D01*
X76512857Y-137918571D01*
X78798571Y-138632857D02*
X79012857Y-138704286D01*
X79084285Y-138775714D01*
X79155714Y-138918571D01*
X79155714Y-139132857D01*
X79084285Y-139275714D01*
X79012857Y-139347143D01*
X78869999Y-139418571D01*
X78298571Y-139418571D01*
X78298571Y-137918571D01*
X78798571Y-137918571D01*
X78941428Y-137990000D01*
X79012857Y-138061429D01*
X79084285Y-138204286D01*
X79084285Y-138347143D01*
X79012857Y-138490000D01*
X78941428Y-138561429D01*
X78798571Y-138632857D01*
X78298571Y-138632857D01*
X80512857Y-139418571D02*
X79798571Y-139418571D01*
X79798571Y-137918571D01*
X80941428Y-138990000D02*
X81655714Y-138990000D01*
X80798571Y-139418571D02*
X81298571Y-137918571D01*
X81798571Y-139418571D01*
X83155714Y-139275714D02*
X83084285Y-139347143D01*
X82869999Y-139418571D01*
X82727142Y-139418571D01*
X82512857Y-139347143D01*
X82369999Y-139204286D01*
X82298571Y-139061429D01*
X82227142Y-138775714D01*
X82227142Y-138561429D01*
X82298571Y-138275714D01*
X82369999Y-138132857D01*
X82512857Y-137990000D01*
X82727142Y-137918571D01*
X82869999Y-137918571D01*
X83084285Y-137990000D01*
X83155714Y-138061429D01*
X83798571Y-139418571D02*
X83798571Y-137918571D01*
X84655714Y-139418571D02*
X84012857Y-138561429D01*
X84655714Y-137918571D02*
X83798571Y-138775714D01*
X86369999Y-139347143D02*
X86584285Y-139418571D01*
X86941428Y-139418571D01*
X87084285Y-139347143D01*
X87155714Y-139275714D01*
X87227142Y-139132857D01*
X87227142Y-138990000D01*
X87155714Y-138847143D01*
X87084285Y-138775714D01*
X86941428Y-138704286D01*
X86655714Y-138632857D01*
X86512856Y-138561429D01*
X86441428Y-138490000D01*
X86369999Y-138347143D01*
X86369999Y-138204286D01*
X86441428Y-138061429D01*
X86512856Y-137990000D01*
X86655714Y-137918571D01*
X87012856Y-137918571D01*
X87227142Y-137990000D01*
X88155713Y-137918571D02*
X88441427Y-137918571D01*
X88584285Y-137990000D01*
X88727142Y-138132857D01*
X88798570Y-138418571D01*
X88798570Y-138918571D01*
X88727142Y-139204286D01*
X88584285Y-139347143D01*
X88441427Y-139418571D01*
X88155713Y-139418571D01*
X88012856Y-139347143D01*
X87869999Y-139204286D01*
X87798570Y-138918571D01*
X87798570Y-138418571D01*
X87869999Y-138132857D01*
X88012856Y-137990000D01*
X88155713Y-137918571D01*
X90155714Y-139418571D02*
X89441428Y-139418571D01*
X89441428Y-137918571D01*
X90655714Y-139418571D02*
X90655714Y-137918571D01*
X91012857Y-137918571D01*
X91227142Y-137990000D01*
X91370000Y-138132857D01*
X91441428Y-138275714D01*
X91512857Y-138561429D01*
X91512857Y-138775714D01*
X91441428Y-139061429D01*
X91370000Y-139204286D01*
X91227142Y-139347143D01*
X91012857Y-139418571D01*
X90655714Y-139418571D01*
X92155714Y-138632857D02*
X92655714Y-138632857D01*
X92870000Y-139418571D02*
X92155714Y-139418571D01*
X92155714Y-137918571D01*
X92870000Y-137918571D01*
X94370000Y-139418571D02*
X93870000Y-138704286D01*
X93512857Y-139418571D02*
X93512857Y-137918571D01*
X94084285Y-137918571D01*
X94227143Y-137990000D01*
X94298571Y-138061429D01*
X94370000Y-138204286D01*
X94370000Y-138418571D01*
X94298571Y-138561429D01*
X94227143Y-138632857D01*
X94084285Y-138704286D01*
X93512857Y-138704286D01*
X96155714Y-139418571D02*
X96155714Y-137918571D01*
X96655714Y-138990000D01*
X97155714Y-137918571D01*
X97155714Y-139418571D01*
X97798571Y-138990000D02*
X98512857Y-138990000D01*
X97655714Y-139418571D02*
X98155714Y-137918571D01*
X98655714Y-139418571D01*
X99084285Y-139347143D02*
X99298571Y-139418571D01*
X99655714Y-139418571D01*
X99798571Y-139347143D01*
X99870000Y-139275714D01*
X99941428Y-139132857D01*
X99941428Y-138990000D01*
X99870000Y-138847143D01*
X99798571Y-138775714D01*
X99655714Y-138704286D01*
X99370000Y-138632857D01*
X99227142Y-138561429D01*
X99155714Y-138490000D01*
X99084285Y-138347143D01*
X99084285Y-138204286D01*
X99155714Y-138061429D01*
X99227142Y-137990000D01*
X99370000Y-137918571D01*
X99727142Y-137918571D01*
X99941428Y-137990000D01*
X100584285Y-139418571D02*
X100584285Y-137918571D01*
X101441428Y-139418571D02*
X100798571Y-138561429D01*
X101441428Y-137918571D02*
X100584285Y-138775714D01*
X103084285Y-137918571D02*
X103441428Y-139418571D01*
X103727142Y-138347143D01*
X104012856Y-139418571D01*
X104369999Y-137918571D01*
X104941428Y-139418571D02*
X104941428Y-137918571D01*
X105441428Y-137918571D02*
X106298571Y-137918571D01*
X105870000Y-139418571D02*
X105870000Y-137918571D01*
X106798571Y-139418571D02*
X106798571Y-137918571D01*
X106798571Y-138632857D02*
X107655714Y-138632857D01*
X107655714Y-139418571D02*
X107655714Y-137918571D01*
X109370000Y-137918571D02*
X109727143Y-139418571D01*
X110012857Y-138347143D01*
X110298571Y-139418571D01*
X110655714Y-137918571D01*
X111227143Y-139418571D02*
X111227143Y-137918571D01*
X111227143Y-138632857D02*
X112084286Y-138632857D01*
X112084286Y-139418571D02*
X112084286Y-137918571D01*
X112798572Y-139418571D02*
X112798572Y-137918571D01*
X113298572Y-137918571D02*
X114155715Y-137918571D01*
X113727144Y-139418571D02*
X113727144Y-137918571D01*
X114655715Y-138632857D02*
X115155715Y-138632857D01*
X115370001Y-139418571D02*
X114655715Y-139418571D01*
X114655715Y-137918571D01*
X115370001Y-137918571D01*
X117084286Y-139347143D02*
X117298572Y-139418571D01*
X117655715Y-139418571D01*
X117798572Y-139347143D01*
X117870001Y-139275714D01*
X117941429Y-139132857D01*
X117941429Y-138990000D01*
X117870001Y-138847143D01*
X117798572Y-138775714D01*
X117655715Y-138704286D01*
X117370001Y-138632857D01*
X117227143Y-138561429D01*
X117155715Y-138490000D01*
X117084286Y-138347143D01*
X117084286Y-138204286D01*
X117155715Y-138061429D01*
X117227143Y-137990000D01*
X117370001Y-137918571D01*
X117727143Y-137918571D01*
X117941429Y-137990000D01*
X118584286Y-139418571D02*
X118584286Y-137918571D01*
X120012858Y-139418571D02*
X119298572Y-139418571D01*
X119298572Y-137918571D01*
X120512858Y-139418571D02*
X120512858Y-137918571D01*
X121370001Y-139418571D02*
X120727144Y-138561429D01*
X121370001Y-137918571D02*
X120512858Y-138775714D01*
X121941429Y-139347143D02*
X122155715Y-139418571D01*
X122512858Y-139418571D01*
X122655715Y-139347143D01*
X122727144Y-139275714D01*
X122798572Y-139132857D01*
X122798572Y-138990000D01*
X122727144Y-138847143D01*
X122655715Y-138775714D01*
X122512858Y-138704286D01*
X122227144Y-138632857D01*
X122084286Y-138561429D01*
X122012858Y-138490000D01*
X121941429Y-138347143D01*
X121941429Y-138204286D01*
X122012858Y-138061429D01*
X122084286Y-137990000D01*
X122227144Y-137918571D01*
X122584286Y-137918571D01*
X122798572Y-137990000D01*
X124298572Y-139275714D02*
X124227143Y-139347143D01*
X124012857Y-139418571D01*
X123870000Y-139418571D01*
X123655715Y-139347143D01*
X123512857Y-139204286D01*
X123441429Y-139061429D01*
X123370000Y-138775714D01*
X123370000Y-138561429D01*
X123441429Y-138275714D01*
X123512857Y-138132857D01*
X123655715Y-137990000D01*
X123870000Y-137918571D01*
X124012857Y-137918571D01*
X124227143Y-137990000D01*
X124298572Y-138061429D01*
X125798572Y-139418571D02*
X125298572Y-138704286D01*
X124941429Y-139418571D02*
X124941429Y-137918571D01*
X125512857Y-137918571D01*
X125655715Y-137990000D01*
X125727143Y-138061429D01*
X125798572Y-138204286D01*
X125798572Y-138418571D01*
X125727143Y-138561429D01*
X125655715Y-138632857D01*
X125512857Y-138704286D01*
X124941429Y-138704286D01*
X126441429Y-138632857D02*
X126941429Y-138632857D01*
X127155715Y-139418571D02*
X126441429Y-139418571D01*
X126441429Y-137918571D01*
X127155715Y-137918571D01*
X127798572Y-138632857D02*
X128298572Y-138632857D01*
X128512858Y-139418571D02*
X127798572Y-139418571D01*
X127798572Y-137918571D01*
X128512858Y-137918571D01*
X129155715Y-139418571D02*
X129155715Y-137918571D01*
X130012858Y-139418571D01*
X130012858Y-137918571D01*
X67870000Y-140468571D02*
X67584286Y-140468571D01*
X67441429Y-140540000D01*
X67370000Y-140611429D01*
X67227143Y-140825714D01*
X67155714Y-141111429D01*
X67155714Y-141682857D01*
X67227143Y-141825714D01*
X67298571Y-141897143D01*
X67441429Y-141968571D01*
X67727143Y-141968571D01*
X67870000Y-141897143D01*
X67941429Y-141825714D01*
X68012857Y-141682857D01*
X68012857Y-141325714D01*
X67941429Y-141182857D01*
X67870000Y-141111429D01*
X67727143Y-141040000D01*
X67441429Y-141040000D01*
X67298571Y-141111429D01*
X67227143Y-141182857D01*
X67155714Y-141325714D01*
X68655714Y-141825714D02*
X68727142Y-141897143D01*
X68655714Y-141968571D01*
X68584285Y-141897143D01*
X68655714Y-141825714D01*
X68655714Y-141968571D01*
X70441428Y-141897143D02*
X70655714Y-141968571D01*
X71012857Y-141968571D01*
X71155714Y-141897143D01*
X71227143Y-141825714D01*
X71298571Y-141682857D01*
X71298571Y-141540000D01*
X71227143Y-141397143D01*
X71155714Y-141325714D01*
X71012857Y-141254286D01*
X70727143Y-141182857D01*
X70584285Y-141111429D01*
X70512857Y-141040000D01*
X70441428Y-140897143D01*
X70441428Y-140754286D01*
X70512857Y-140611429D01*
X70584285Y-140540000D01*
X70727143Y-140468571D01*
X71084285Y-140468571D01*
X71298571Y-140540000D01*
X72227142Y-140468571D02*
X72512856Y-140468571D01*
X72655714Y-140540000D01*
X72798571Y-140682857D01*
X72869999Y-140968571D01*
X72869999Y-141468571D01*
X72798571Y-141754286D01*
X72655714Y-141897143D01*
X72512856Y-141968571D01*
X72227142Y-141968571D01*
X72084285Y-141897143D01*
X71941428Y-141754286D01*
X71869999Y-141468571D01*
X71869999Y-140968571D01*
X71941428Y-140682857D01*
X72084285Y-140540000D01*
X72227142Y-140468571D01*
X74227143Y-141968571D02*
X73512857Y-141968571D01*
X73512857Y-140468571D01*
X74727143Y-141968571D02*
X74727143Y-140468571D01*
X75084286Y-140468571D01*
X75298571Y-140540000D01*
X75441429Y-140682857D01*
X75512857Y-140825714D01*
X75584286Y-141111429D01*
X75584286Y-141325714D01*
X75512857Y-141611429D01*
X75441429Y-141754286D01*
X75298571Y-141897143D01*
X75084286Y-141968571D01*
X74727143Y-141968571D01*
X76227143Y-141182857D02*
X76727143Y-141182857D01*
X76941429Y-141968571D02*
X76227143Y-141968571D01*
X76227143Y-140468571D01*
X76941429Y-140468571D01*
X78441429Y-141968571D02*
X77941429Y-141254286D01*
X77584286Y-141968571D02*
X77584286Y-140468571D01*
X78155714Y-140468571D01*
X78298572Y-140540000D01*
X78370000Y-140611429D01*
X78441429Y-140754286D01*
X78441429Y-140968571D01*
X78370000Y-141111429D01*
X78298572Y-141182857D01*
X78155714Y-141254286D01*
X77584286Y-141254286D01*
X80227143Y-141968571D02*
X80227143Y-140468571D01*
X80798571Y-140468571D01*
X80941429Y-140540000D01*
X81012857Y-140611429D01*
X81084286Y-140754286D01*
X81084286Y-140968571D01*
X81012857Y-141111429D01*
X80941429Y-141182857D01*
X80798571Y-141254286D01*
X80227143Y-141254286D01*
X81655714Y-141540000D02*
X82370000Y-141540000D01*
X81512857Y-141968571D02*
X82012857Y-140468571D01*
X82512857Y-141968571D01*
X82941428Y-141897143D02*
X83155714Y-141968571D01*
X83512857Y-141968571D01*
X83655714Y-141897143D01*
X83727143Y-141825714D01*
X83798571Y-141682857D01*
X83798571Y-141540000D01*
X83727143Y-141397143D01*
X83655714Y-141325714D01*
X83512857Y-141254286D01*
X83227143Y-141182857D01*
X83084285Y-141111429D01*
X83012857Y-141040000D01*
X82941428Y-140897143D01*
X82941428Y-140754286D01*
X83012857Y-140611429D01*
X83084285Y-140540000D01*
X83227143Y-140468571D01*
X83584285Y-140468571D01*
X83798571Y-140540000D01*
X84227142Y-140468571D02*
X85084285Y-140468571D01*
X84655714Y-141968571D02*
X84655714Y-140468571D01*
X85584285Y-141182857D02*
X86084285Y-141182857D01*
X86298571Y-141968571D02*
X85584285Y-141968571D01*
X85584285Y-140468571D01*
X86298571Y-140468571D01*
X88084285Y-141968571D02*
X88084285Y-140468571D01*
X88584285Y-141540000D01*
X89084285Y-140468571D01*
X89084285Y-141968571D01*
X89798571Y-140468571D02*
X89798571Y-141682857D01*
X89869999Y-141825714D01*
X89941428Y-141897143D01*
X90084285Y-141968571D01*
X90369999Y-141968571D01*
X90512857Y-141897143D01*
X90584285Y-141825714D01*
X90655714Y-141682857D01*
X90655714Y-140468571D01*
X91298571Y-141897143D02*
X91512857Y-141968571D01*
X91870000Y-141968571D01*
X92012857Y-141897143D01*
X92084286Y-141825714D01*
X92155714Y-141682857D01*
X92155714Y-141540000D01*
X92084286Y-141397143D01*
X92012857Y-141325714D01*
X91870000Y-141254286D01*
X91584286Y-141182857D01*
X91441428Y-141111429D01*
X91370000Y-141040000D01*
X91298571Y-140897143D01*
X91298571Y-140754286D01*
X91370000Y-140611429D01*
X91441428Y-140540000D01*
X91584286Y-140468571D01*
X91941428Y-140468571D01*
X92155714Y-140540000D01*
X92584285Y-140468571D02*
X93441428Y-140468571D01*
X93012857Y-141968571D02*
X93012857Y-140468571D01*
X95584285Y-141182857D02*
X95798571Y-141254286D01*
X95869999Y-141325714D01*
X95941428Y-141468571D01*
X95941428Y-141682857D01*
X95869999Y-141825714D01*
X95798571Y-141897143D01*
X95655713Y-141968571D01*
X95084285Y-141968571D01*
X95084285Y-140468571D01*
X95584285Y-140468571D01*
X95727142Y-140540000D01*
X95798571Y-140611429D01*
X95869999Y-140754286D01*
X95869999Y-140897143D01*
X95798571Y-141040000D01*
X95727142Y-141111429D01*
X95584285Y-141182857D01*
X95084285Y-141182857D01*
X96584285Y-141182857D02*
X97084285Y-141182857D01*
X97298571Y-141968571D02*
X96584285Y-141968571D01*
X96584285Y-140468571D01*
X97298571Y-140468571D01*
X99941428Y-141968571D02*
X99441428Y-141254286D01*
X99084285Y-141968571D02*
X99084285Y-140468571D01*
X99655713Y-140468571D01*
X99798571Y-140540000D01*
X99869999Y-140611429D01*
X99941428Y-140754286D01*
X99941428Y-140968571D01*
X99869999Y-141111429D01*
X99798571Y-141182857D01*
X99655713Y-141254286D01*
X99084285Y-141254286D01*
X100869999Y-140468571D02*
X101155713Y-140468571D01*
X101298571Y-140540000D01*
X101441428Y-140682857D01*
X101512856Y-140968571D01*
X101512856Y-141468571D01*
X101441428Y-141754286D01*
X101298571Y-141897143D01*
X101155713Y-141968571D01*
X100869999Y-141968571D01*
X100727142Y-141897143D01*
X100584285Y-141754286D01*
X100512856Y-141468571D01*
X100512856Y-140968571D01*
X100584285Y-140682857D01*
X100727142Y-140540000D01*
X100869999Y-140468571D01*
X102155714Y-141968571D02*
X102155714Y-140468571D01*
X102155714Y-141182857D02*
X103012857Y-141182857D01*
X103012857Y-141968571D02*
X103012857Y-140468571D01*
X103655714Y-141897143D02*
X103870000Y-141968571D01*
X104227143Y-141968571D01*
X104370000Y-141897143D01*
X104441429Y-141825714D01*
X104512857Y-141682857D01*
X104512857Y-141540000D01*
X104441429Y-141397143D01*
X104370000Y-141325714D01*
X104227143Y-141254286D01*
X103941429Y-141182857D01*
X103798571Y-141111429D01*
X103727143Y-141040000D01*
X103655714Y-140897143D01*
X103655714Y-140754286D01*
X103727143Y-140611429D01*
X103798571Y-140540000D01*
X103941429Y-140468571D01*
X104298571Y-140468571D01*
X104512857Y-140540000D01*
X107155714Y-141825714D02*
X107084285Y-141897143D01*
X106869999Y-141968571D01*
X106727142Y-141968571D01*
X106512857Y-141897143D01*
X106369999Y-141754286D01*
X106298571Y-141611429D01*
X106227142Y-141325714D01*
X106227142Y-141111429D01*
X106298571Y-140825714D01*
X106369999Y-140682857D01*
X106512857Y-140540000D01*
X106727142Y-140468571D01*
X106869999Y-140468571D01*
X107084285Y-140540000D01*
X107155714Y-140611429D01*
X108084285Y-140468571D02*
X108369999Y-140468571D01*
X108512857Y-140540000D01*
X108655714Y-140682857D01*
X108727142Y-140968571D01*
X108727142Y-141468571D01*
X108655714Y-141754286D01*
X108512857Y-141897143D01*
X108369999Y-141968571D01*
X108084285Y-141968571D01*
X107941428Y-141897143D01*
X107798571Y-141754286D01*
X107727142Y-141468571D01*
X107727142Y-140968571D01*
X107798571Y-140682857D01*
X107941428Y-140540000D01*
X108084285Y-140468571D01*
X109370000Y-141968571D02*
X109370000Y-140468571D01*
X109870000Y-141540000D01*
X110370000Y-140468571D01*
X110370000Y-141968571D01*
X111084286Y-141968571D02*
X111084286Y-140468571D01*
X111655714Y-140468571D01*
X111798572Y-140540000D01*
X111870000Y-140611429D01*
X111941429Y-140754286D01*
X111941429Y-140968571D01*
X111870000Y-141111429D01*
X111798572Y-141182857D01*
X111655714Y-141254286D01*
X111084286Y-141254286D01*
X113298572Y-141968571D02*
X112584286Y-141968571D01*
X112584286Y-140468571D01*
X113798572Y-141968571D02*
X113798572Y-140468571D01*
X114441429Y-141540000D02*
X115155715Y-141540000D01*
X114298572Y-141968571D02*
X114798572Y-140468571D01*
X115298572Y-141968571D01*
X115798572Y-141968571D02*
X115798572Y-140468571D01*
X116655715Y-141968571D01*
X116655715Y-140468571D01*
X117155715Y-140468571D02*
X118012858Y-140468571D01*
X117584287Y-141968571D02*
X117584287Y-140468571D01*
X120084286Y-142540000D02*
X120012858Y-142468571D01*
X119870001Y-142254286D01*
X119798572Y-142111429D01*
X119727143Y-141897143D01*
X119655715Y-141540000D01*
X119655715Y-141254286D01*
X119727143Y-140897143D01*
X119798572Y-140682857D01*
X119870001Y-140540000D01*
X120012858Y-140325714D01*
X120084286Y-140254286D01*
X121370001Y-141968571D02*
X120655715Y-141968571D01*
X120655715Y-140468571D01*
X121870001Y-141182857D02*
X122370001Y-141182857D01*
X122584287Y-141968571D02*
X121870001Y-141968571D01*
X121870001Y-140468571D01*
X122584287Y-140468571D01*
X123155715Y-141540000D02*
X123870001Y-141540000D01*
X123012858Y-141968571D02*
X123512858Y-140468571D01*
X124012858Y-141968571D01*
X124512858Y-141968571D02*
X124512858Y-140468571D01*
X124870001Y-140468571D01*
X125084286Y-140540000D01*
X125227144Y-140682857D01*
X125298572Y-140825714D01*
X125370001Y-141111429D01*
X125370001Y-141325714D01*
X125298572Y-141611429D01*
X125227144Y-141754286D01*
X125084286Y-141897143D01*
X124870001Y-141968571D01*
X124512858Y-141968571D01*
X126012858Y-141397143D02*
X127155715Y-141397143D01*
X128370001Y-141182857D02*
X127870001Y-141182857D01*
X127870001Y-141968571D02*
X127870001Y-140468571D01*
X128584287Y-140468571D01*
X130012858Y-141968571D02*
X129512858Y-141254286D01*
X129155715Y-141968571D02*
X129155715Y-140468571D01*
X129727143Y-140468571D01*
X129870001Y-140540000D01*
X129941429Y-140611429D01*
X130012858Y-140754286D01*
X130012858Y-140968571D01*
X129941429Y-141111429D01*
X129870001Y-141182857D01*
X129727143Y-141254286D01*
X129155715Y-141254286D01*
X130655715Y-141182857D02*
X131155715Y-141182857D01*
X131370001Y-141968571D02*
X130655715Y-141968571D01*
X130655715Y-140468571D01*
X131370001Y-140468571D01*
X132012858Y-141182857D02*
X132512858Y-141182857D01*
X132727144Y-141968571D02*
X132012858Y-141968571D01*
X132012858Y-140468571D01*
X132727144Y-140468571D01*
X133227144Y-142540000D02*
X133298572Y-142468571D01*
X133441429Y-142254286D01*
X133512858Y-142111429D01*
X133584287Y-141897143D01*
X133655715Y-141540000D01*
X133655715Y-141254286D01*
X133584287Y-140897143D01*
X133512858Y-140682857D01*
X133441429Y-140540000D01*
X133298572Y-140325714D01*
X133227144Y-140254286D01*
X67084286Y-143018571D02*
X68084286Y-143018571D01*
X67441429Y-144518571D01*
X68655714Y-144375714D02*
X68727142Y-144447143D01*
X68655714Y-144518571D01*
X68584285Y-144447143D01*
X68655714Y-144375714D01*
X68655714Y-144518571D01*
X70512857Y-144518571D02*
X70512857Y-143018571D01*
X71370000Y-144518571D01*
X71370000Y-143018571D01*
X72370000Y-143018571D02*
X72655714Y-143018571D01*
X72798572Y-143090000D01*
X72941429Y-143232857D01*
X73012857Y-143518571D01*
X73012857Y-144018571D01*
X72941429Y-144304286D01*
X72798572Y-144447143D01*
X72655714Y-144518571D01*
X72370000Y-144518571D01*
X72227143Y-144447143D01*
X72084286Y-144304286D01*
X72012857Y-144018571D01*
X72012857Y-143518571D01*
X72084286Y-143232857D01*
X72227143Y-143090000D01*
X72370000Y-143018571D01*
X74798572Y-144518571D02*
X74798572Y-143018571D01*
X75298572Y-144090000D01*
X75798572Y-143018571D01*
X75798572Y-144518571D01*
X76441429Y-144090000D02*
X77155715Y-144090000D01*
X76298572Y-144518571D02*
X76798572Y-143018571D01*
X77298572Y-144518571D01*
X78655715Y-144518571D02*
X78155715Y-143804286D01*
X77798572Y-144518571D02*
X77798572Y-143018571D01*
X78370000Y-143018571D01*
X78512858Y-143090000D01*
X78584286Y-143161429D01*
X78655715Y-143304286D01*
X78655715Y-143518571D01*
X78584286Y-143661429D01*
X78512858Y-143732857D01*
X78370000Y-143804286D01*
X77798572Y-143804286D01*
X79298572Y-144518571D02*
X79298572Y-143018571D01*
X80155715Y-144518571D02*
X79512858Y-143661429D01*
X80155715Y-143018571D02*
X79298572Y-143875714D01*
X80727143Y-144447143D02*
X80941429Y-144518571D01*
X81298572Y-144518571D01*
X81441429Y-144447143D01*
X81512858Y-144375714D01*
X81584286Y-144232857D01*
X81584286Y-144090000D01*
X81512858Y-143947143D01*
X81441429Y-143875714D01*
X81298572Y-143804286D01*
X81012858Y-143732857D01*
X80870000Y-143661429D01*
X80798572Y-143590000D01*
X80727143Y-143447143D01*
X80727143Y-143304286D01*
X80798572Y-143161429D01*
X80870000Y-143090000D01*
X81012858Y-143018571D01*
X81370000Y-143018571D01*
X81584286Y-143090000D01*
X83798571Y-145090000D02*
X83727143Y-145018571D01*
X83584286Y-144804286D01*
X83512857Y-144661429D01*
X83441428Y-144447143D01*
X83370000Y-144090000D01*
X83370000Y-143804286D01*
X83441428Y-143447143D01*
X83512857Y-143232857D01*
X83584286Y-143090000D01*
X83727143Y-142875714D01*
X83798571Y-142804286D01*
X84370000Y-143732857D02*
X84870000Y-143732857D01*
X85084286Y-144518571D02*
X84370000Y-144518571D01*
X84370000Y-143018571D01*
X85084286Y-143018571D01*
X85727143Y-143947143D02*
X86870000Y-143947143D01*
X87370000Y-143018571D02*
X88227143Y-143018571D01*
X87798572Y-144518571D02*
X87798572Y-143018571D01*
X88727143Y-143732857D02*
X89227143Y-143732857D01*
X89441429Y-144518571D02*
X88727143Y-144518571D01*
X88727143Y-143018571D01*
X89441429Y-143018571D01*
X90012857Y-144447143D02*
X90227143Y-144518571D01*
X90584286Y-144518571D01*
X90727143Y-144447143D01*
X90798572Y-144375714D01*
X90870000Y-144232857D01*
X90870000Y-144090000D01*
X90798572Y-143947143D01*
X90727143Y-143875714D01*
X90584286Y-143804286D01*
X90298572Y-143732857D01*
X90155714Y-143661429D01*
X90084286Y-143590000D01*
X90012857Y-143447143D01*
X90012857Y-143304286D01*
X90084286Y-143161429D01*
X90155714Y-143090000D01*
X90298572Y-143018571D01*
X90655714Y-143018571D01*
X90870000Y-143090000D01*
X91298571Y-143018571D02*
X92155714Y-143018571D01*
X91727143Y-144518571D02*
X91727143Y-143018571D01*
X92727142Y-144447143D02*
X92727142Y-144518571D01*
X92655714Y-144661429D01*
X92584285Y-144732857D01*
X95512857Y-144661429D02*
X95370000Y-144590000D01*
X95227143Y-144447143D01*
X95012857Y-144232857D01*
X94870000Y-144161429D01*
X94727143Y-144161429D01*
X94798571Y-144518571D02*
X94655714Y-144447143D01*
X94512857Y-144304286D01*
X94441428Y-144018571D01*
X94441428Y-143518571D01*
X94512857Y-143232857D01*
X94655714Y-143090000D01*
X94798571Y-143018571D01*
X95084285Y-143018571D01*
X95227143Y-143090000D01*
X95370000Y-143232857D01*
X95441428Y-143518571D01*
X95441428Y-144018571D01*
X95370000Y-144304286D01*
X95227143Y-144447143D01*
X95084285Y-144518571D01*
X94798571Y-144518571D01*
X96012857Y-144090000D02*
X96727143Y-144090000D01*
X95870000Y-144518571D02*
X96370000Y-143018571D01*
X96870000Y-144518571D01*
X97441428Y-144447143D02*
X97441428Y-144518571D01*
X97370000Y-144661429D01*
X97298571Y-144732857D01*
X99155714Y-144447143D02*
X99370000Y-144518571D01*
X99727143Y-144518571D01*
X99870000Y-144447143D01*
X99941429Y-144375714D01*
X100012857Y-144232857D01*
X100012857Y-144090000D01*
X99941429Y-143947143D01*
X99870000Y-143875714D01*
X99727143Y-143804286D01*
X99441429Y-143732857D01*
X99298571Y-143661429D01*
X99227143Y-143590000D01*
X99155714Y-143447143D01*
X99155714Y-143304286D01*
X99227143Y-143161429D01*
X99298571Y-143090000D01*
X99441429Y-143018571D01*
X99798571Y-143018571D01*
X100012857Y-143090000D01*
X100655714Y-143732857D02*
X101155714Y-143732857D01*
X101370000Y-144518571D02*
X100655714Y-144518571D01*
X100655714Y-143018571D01*
X101370000Y-143018571D01*
X102870000Y-144518571D02*
X102370000Y-143804286D01*
X102012857Y-144518571D02*
X102012857Y-143018571D01*
X102584285Y-143018571D01*
X102727143Y-143090000D01*
X102798571Y-143161429D01*
X102870000Y-143304286D01*
X102870000Y-143518571D01*
X102798571Y-143661429D01*
X102727143Y-143732857D01*
X102584285Y-143804286D01*
X102012857Y-143804286D01*
X103512857Y-144518571D02*
X103512857Y-143018571D01*
X104155714Y-144090000D02*
X104870000Y-144090000D01*
X104012857Y-144518571D02*
X104512857Y-143018571D01*
X105012857Y-144518571D01*
X106227143Y-144518571D02*
X105512857Y-144518571D01*
X105512857Y-143018571D01*
X107870000Y-144518571D02*
X107870000Y-143018571D01*
X108727143Y-144518571D01*
X108727143Y-143018571D01*
X109441429Y-143018571D02*
X109441429Y-144232857D01*
X109512857Y-144375714D01*
X109584286Y-144447143D01*
X109727143Y-144518571D01*
X110012857Y-144518571D01*
X110155715Y-144447143D01*
X110227143Y-144375714D01*
X110298572Y-144232857D01*
X110298572Y-143018571D01*
X111012858Y-144518571D02*
X111012858Y-143018571D01*
X111512858Y-144090000D01*
X112012858Y-143018571D01*
X112012858Y-144518571D01*
X113227144Y-143732857D02*
X113441430Y-143804286D01*
X113512858Y-143875714D01*
X113584287Y-144018571D01*
X113584287Y-144232857D01*
X113512858Y-144375714D01*
X113441430Y-144447143D01*
X113298572Y-144518571D01*
X112727144Y-144518571D01*
X112727144Y-143018571D01*
X113227144Y-143018571D01*
X113370001Y-143090000D01*
X113441430Y-143161429D01*
X113512858Y-143304286D01*
X113512858Y-143447143D01*
X113441430Y-143590000D01*
X113370001Y-143661429D01*
X113227144Y-143732857D01*
X112727144Y-143732857D01*
X114227144Y-143732857D02*
X114727144Y-143732857D01*
X114941430Y-144518571D02*
X114227144Y-144518571D01*
X114227144Y-143018571D01*
X114941430Y-143018571D01*
X116441430Y-144518571D02*
X115941430Y-143804286D01*
X115584287Y-144518571D02*
X115584287Y-143018571D01*
X116155715Y-143018571D01*
X116298573Y-143090000D01*
X116370001Y-143161429D01*
X116441430Y-143304286D01*
X116441430Y-143518571D01*
X116370001Y-143661429D01*
X116298573Y-143732857D01*
X116155715Y-143804286D01*
X115584287Y-143804286D01*
X117155715Y-144447143D02*
X117155715Y-144518571D01*
X117084287Y-144661429D01*
X117012858Y-144732857D01*
X118941430Y-143732857D02*
X119441430Y-143732857D01*
X119655716Y-144518571D02*
X118941430Y-144518571D01*
X118941430Y-143018571D01*
X119655716Y-143018571D01*
X120084287Y-143018571D02*
X120941430Y-143018571D01*
X120512859Y-144518571D02*
X120512859Y-143018571D01*
X122298573Y-144375714D02*
X122227144Y-144447143D01*
X122012858Y-144518571D01*
X121870001Y-144518571D01*
X121655716Y-144447143D01*
X121512858Y-144304286D01*
X121441430Y-144161429D01*
X121370001Y-143875714D01*
X121370001Y-143661429D01*
X121441430Y-143375714D01*
X121512858Y-143232857D01*
X121655716Y-143090000D01*
X121870001Y-143018571D01*
X122012858Y-143018571D01*
X122227144Y-143090000D01*
X122298573Y-143161429D01*
X122798573Y-145090000D02*
X122870001Y-145018571D01*
X123012858Y-144804286D01*
X123084287Y-144661429D01*
X123155716Y-144447143D01*
X123227144Y-144090000D01*
X123227144Y-143804286D01*
X123155716Y-143447143D01*
X123084287Y-143232857D01*
X123012858Y-143090000D01*
X122870001Y-142875714D01*
X122798573Y-142804286D01*
X125370001Y-143018571D02*
X125655715Y-143018571D01*
X125798573Y-143090000D01*
X125941430Y-143232857D01*
X126012858Y-143518571D01*
X126012858Y-144018571D01*
X125941430Y-144304286D01*
X125798573Y-144447143D01*
X125655715Y-144518571D01*
X125370001Y-144518571D01*
X125227144Y-144447143D01*
X125084287Y-144304286D01*
X125012858Y-144018571D01*
X125012858Y-143518571D01*
X125084287Y-143232857D01*
X125227144Y-143090000D01*
X125370001Y-143018571D01*
X126655716Y-144518571D02*
X126655716Y-143018571D01*
X127512859Y-144518571D01*
X127512859Y-143018571D01*
X129870002Y-143732857D02*
X129370002Y-143732857D01*
X129370002Y-144518571D02*
X129370002Y-143018571D01*
X130084288Y-143018571D01*
X131512859Y-144518571D02*
X131012859Y-143804286D01*
X130655716Y-144518571D02*
X130655716Y-143018571D01*
X131227144Y-143018571D01*
X131370002Y-143090000D01*
X131441430Y-143161429D01*
X131512859Y-143304286D01*
X131512859Y-143518571D01*
X131441430Y-143661429D01*
X131370002Y-143732857D01*
X131227144Y-143804286D01*
X130655716Y-143804286D01*
X132441430Y-143018571D02*
X132727144Y-143018571D01*
X132870002Y-143090000D01*
X133012859Y-143232857D01*
X133084287Y-143518571D01*
X133084287Y-144018571D01*
X133012859Y-144304286D01*
X132870002Y-144447143D01*
X132727144Y-144518571D01*
X132441430Y-144518571D01*
X132298573Y-144447143D01*
X132155716Y-144304286D01*
X132084287Y-144018571D01*
X132084287Y-143518571D01*
X132155716Y-143232857D01*
X132298573Y-143090000D01*
X132441430Y-143018571D01*
X133727145Y-144518571D02*
X133727145Y-143018571D01*
X134584288Y-144518571D01*
X134584288Y-143018571D01*
X135084288Y-143018571D02*
X135941431Y-143018571D01*
X135512860Y-144518571D02*
X135512860Y-143018571D01*
X138012859Y-145090000D02*
X137941431Y-145018571D01*
X137798574Y-144804286D01*
X137727145Y-144661429D01*
X137655716Y-144447143D01*
X137584288Y-144090000D01*
X137584288Y-143804286D01*
X137655716Y-143447143D01*
X137727145Y-143232857D01*
X137798574Y-143090000D01*
X137941431Y-142875714D01*
X138012859Y-142804286D01*
X139298574Y-144518571D02*
X138584288Y-144518571D01*
X138584288Y-143018571D01*
X140084288Y-143018571D02*
X140370002Y-143018571D01*
X140512860Y-143090000D01*
X140655717Y-143232857D01*
X140727145Y-143518571D01*
X140727145Y-144018571D01*
X140655717Y-144304286D01*
X140512860Y-144447143D01*
X140370002Y-144518571D01*
X140084288Y-144518571D01*
X139941431Y-144447143D01*
X139798574Y-144304286D01*
X139727145Y-144018571D01*
X139727145Y-143518571D01*
X139798574Y-143232857D01*
X139941431Y-143090000D01*
X140084288Y-143018571D01*
X142155717Y-143090000D02*
X142012860Y-143018571D01*
X141798574Y-143018571D01*
X141584289Y-143090000D01*
X141441431Y-143232857D01*
X141370003Y-143375714D01*
X141298574Y-143661429D01*
X141298574Y-143875714D01*
X141370003Y-144161429D01*
X141441431Y-144304286D01*
X141584289Y-144447143D01*
X141798574Y-144518571D01*
X141941431Y-144518571D01*
X142155717Y-144447143D01*
X142227146Y-144375714D01*
X142227146Y-143875714D01*
X141941431Y-143875714D01*
X143155717Y-143018571D02*
X143441431Y-143018571D01*
X143584289Y-143090000D01*
X143727146Y-143232857D01*
X143798574Y-143518571D01*
X143798574Y-144018571D01*
X143727146Y-144304286D01*
X143584289Y-144447143D01*
X143441431Y-144518571D01*
X143155717Y-144518571D01*
X143012860Y-144447143D01*
X142870003Y-144304286D01*
X142798574Y-144018571D01*
X142798574Y-143518571D01*
X142870003Y-143232857D01*
X143012860Y-143090000D01*
X143155717Y-143018571D01*
X145512860Y-144447143D02*
X145727146Y-144518571D01*
X146084289Y-144518571D01*
X146227146Y-144447143D01*
X146298575Y-144375714D01*
X146370003Y-144232857D01*
X146370003Y-144090000D01*
X146298575Y-143947143D01*
X146227146Y-143875714D01*
X146084289Y-143804286D01*
X145798575Y-143732857D01*
X145655717Y-143661429D01*
X145584289Y-143590000D01*
X145512860Y-143447143D01*
X145512860Y-143304286D01*
X145584289Y-143161429D01*
X145655717Y-143090000D01*
X145798575Y-143018571D01*
X146155717Y-143018571D01*
X146370003Y-143090000D01*
X147012860Y-144518571D02*
X147012860Y-143018571D01*
X147727146Y-144518571D02*
X147727146Y-143018571D01*
X148084289Y-143018571D01*
X148298574Y-143090000D01*
X148441432Y-143232857D01*
X148512860Y-143375714D01*
X148584289Y-143661429D01*
X148584289Y-143875714D01*
X148512860Y-144161429D01*
X148441432Y-144304286D01*
X148298574Y-144447143D01*
X148084289Y-144518571D01*
X147727146Y-144518571D01*
X149227146Y-143732857D02*
X149727146Y-143732857D01*
X149941432Y-144518571D02*
X149227146Y-144518571D01*
X149227146Y-143018571D01*
X149941432Y-143018571D01*
X150441432Y-145090000D02*
X150512860Y-145018571D01*
X150655717Y-144804286D01*
X150727146Y-144661429D01*
X150798575Y-144447143D01*
X150870003Y-144090000D01*
X150870003Y-143804286D01*
X150798575Y-143447143D01*
X150727146Y-143232857D01*
X150655717Y-143090000D01*
X150512860Y-142875714D01*
X150441432Y-142804286D01*
X153012860Y-143018571D02*
X153298574Y-143018571D01*
X153441432Y-143090000D01*
X153584289Y-143232857D01*
X153655717Y-143518571D01*
X153655717Y-144018571D01*
X153584289Y-144304286D01*
X153441432Y-144447143D01*
X153298574Y-144518571D01*
X153012860Y-144518571D01*
X152870003Y-144447143D01*
X152727146Y-144304286D01*
X152655717Y-144018571D01*
X152655717Y-143518571D01*
X152727146Y-143232857D01*
X152870003Y-143090000D01*
X153012860Y-143018571D01*
X154798575Y-143732857D02*
X154298575Y-143732857D01*
X154298575Y-144518571D02*
X154298575Y-143018571D01*
X155012861Y-143018571D01*
X157227146Y-143732857D02*
X157441432Y-143804286D01*
X157512860Y-143875714D01*
X157584289Y-144018571D01*
X157584289Y-144232857D01*
X157512860Y-144375714D01*
X157441432Y-144447143D01*
X157298574Y-144518571D01*
X156727146Y-144518571D01*
X156727146Y-143018571D01*
X157227146Y-143018571D01*
X157370003Y-143090000D01*
X157441432Y-143161429D01*
X157512860Y-143304286D01*
X157512860Y-143447143D01*
X157441432Y-143590000D01*
X157370003Y-143661429D01*
X157227146Y-143732857D01*
X156727146Y-143732857D01*
X158512860Y-143018571D02*
X158798574Y-143018571D01*
X158941432Y-143090000D01*
X159084289Y-143232857D01*
X159155717Y-143518571D01*
X159155717Y-144018571D01*
X159084289Y-144304286D01*
X158941432Y-144447143D01*
X158798574Y-144518571D01*
X158512860Y-144518571D01*
X158370003Y-144447143D01*
X158227146Y-144304286D01*
X158155717Y-144018571D01*
X158155717Y-143518571D01*
X158227146Y-143232857D01*
X158370003Y-143090000D01*
X158512860Y-143018571D01*
X159727146Y-144090000D02*
X160441432Y-144090000D01*
X159584289Y-144518571D02*
X160084289Y-143018571D01*
X160584289Y-144518571D01*
X161941432Y-144518571D02*
X161441432Y-143804286D01*
X161084289Y-144518571D02*
X161084289Y-143018571D01*
X161655717Y-143018571D01*
X161798575Y-143090000D01*
X161870003Y-143161429D01*
X161941432Y-143304286D01*
X161941432Y-143518571D01*
X161870003Y-143661429D01*
X161798575Y-143732857D01*
X161655717Y-143804286D01*
X161084289Y-143804286D01*
X162584289Y-144518571D02*
X162584289Y-143018571D01*
X162941432Y-143018571D01*
X163155717Y-143090000D01*
X163298575Y-143232857D01*
X163370003Y-143375714D01*
X163441432Y-143661429D01*
X163441432Y-143875714D01*
X163370003Y-144161429D01*
X163298575Y-144304286D01*
X163155717Y-144447143D01*
X162941432Y-144518571D01*
X162584289Y-144518571D01*
X67441429Y-146211429D02*
X67298571Y-146140000D01*
X67227143Y-146068571D01*
X67155714Y-145925714D01*
X67155714Y-145854286D01*
X67227143Y-145711429D01*
X67298571Y-145640000D01*
X67441429Y-145568571D01*
X67727143Y-145568571D01*
X67870000Y-145640000D01*
X67941429Y-145711429D01*
X68012857Y-145854286D01*
X68012857Y-145925714D01*
X67941429Y-146068571D01*
X67870000Y-146140000D01*
X67727143Y-146211429D01*
X67441429Y-146211429D01*
X67298571Y-146282857D01*
X67227143Y-146354286D01*
X67155714Y-146497143D01*
X67155714Y-146782857D01*
X67227143Y-146925714D01*
X67298571Y-146997143D01*
X67441429Y-147068571D01*
X67727143Y-147068571D01*
X67870000Y-146997143D01*
X67941429Y-146925714D01*
X68012857Y-146782857D01*
X68012857Y-146497143D01*
X67941429Y-146354286D01*
X67870000Y-146282857D01*
X67727143Y-146211429D01*
X68655714Y-146925714D02*
X68727142Y-146997143D01*
X68655714Y-147068571D01*
X68584285Y-146997143D01*
X68655714Y-146925714D01*
X68655714Y-147068571D01*
X71012857Y-146282857D02*
X71227143Y-146354286D01*
X71298571Y-146425714D01*
X71370000Y-146568571D01*
X71370000Y-146782857D01*
X71298571Y-146925714D01*
X71227143Y-146997143D01*
X71084285Y-147068571D01*
X70512857Y-147068571D01*
X70512857Y-145568571D01*
X71012857Y-145568571D01*
X71155714Y-145640000D01*
X71227143Y-145711429D01*
X71298571Y-145854286D01*
X71298571Y-145997143D01*
X71227143Y-146140000D01*
X71155714Y-146211429D01*
X71012857Y-146282857D01*
X70512857Y-146282857D01*
X72298571Y-145568571D02*
X72584285Y-145568571D01*
X72727143Y-145640000D01*
X72870000Y-145782857D01*
X72941428Y-146068571D01*
X72941428Y-146568571D01*
X72870000Y-146854286D01*
X72727143Y-146997143D01*
X72584285Y-147068571D01*
X72298571Y-147068571D01*
X72155714Y-146997143D01*
X72012857Y-146854286D01*
X71941428Y-146568571D01*
X71941428Y-146068571D01*
X72012857Y-145782857D01*
X72155714Y-145640000D01*
X72298571Y-145568571D01*
X73512857Y-146640000D02*
X74227143Y-146640000D01*
X73370000Y-147068571D02*
X73870000Y-145568571D01*
X74370000Y-147068571D01*
X75727143Y-147068571D02*
X75227143Y-146354286D01*
X74870000Y-147068571D02*
X74870000Y-145568571D01*
X75441428Y-145568571D01*
X75584286Y-145640000D01*
X75655714Y-145711429D01*
X75727143Y-145854286D01*
X75727143Y-146068571D01*
X75655714Y-146211429D01*
X75584286Y-146282857D01*
X75441428Y-146354286D01*
X74870000Y-146354286D01*
X76370000Y-147068571D02*
X76370000Y-145568571D01*
X76727143Y-145568571D01*
X76941428Y-145640000D01*
X77084286Y-145782857D01*
X77155714Y-145925714D01*
X77227143Y-146211429D01*
X77227143Y-146425714D01*
X77155714Y-146711429D01*
X77084286Y-146854286D01*
X76941428Y-146997143D01*
X76727143Y-147068571D01*
X76370000Y-147068571D01*
X77798571Y-146997143D02*
X78012857Y-147068571D01*
X78370000Y-147068571D01*
X78512857Y-146997143D01*
X78584286Y-146925714D01*
X78655714Y-146782857D01*
X78655714Y-146640000D01*
X78584286Y-146497143D01*
X78512857Y-146425714D01*
X78370000Y-146354286D01*
X78084286Y-146282857D01*
X77941428Y-146211429D01*
X77870000Y-146140000D01*
X77798571Y-145997143D01*
X77798571Y-145854286D01*
X77870000Y-145711429D01*
X77941428Y-145640000D01*
X78084286Y-145568571D01*
X78441428Y-145568571D01*
X78655714Y-145640000D01*
X80227142Y-145568571D02*
X81084285Y-145568571D01*
X80655714Y-147068571D02*
X80655714Y-145568571D01*
X81869999Y-145568571D02*
X82155713Y-145568571D01*
X82298571Y-145640000D01*
X82441428Y-145782857D01*
X82512856Y-146068571D01*
X82512856Y-146568571D01*
X82441428Y-146854286D01*
X82298571Y-146997143D01*
X82155713Y-147068571D01*
X81869999Y-147068571D01*
X81727142Y-146997143D01*
X81584285Y-146854286D01*
X81512856Y-146568571D01*
X81512856Y-146068571D01*
X81584285Y-145782857D01*
X81727142Y-145640000D01*
X81869999Y-145568571D01*
X84798571Y-146282857D02*
X85012857Y-146354286D01*
X85084285Y-146425714D01*
X85155714Y-146568571D01*
X85155714Y-146782857D01*
X85084285Y-146925714D01*
X85012857Y-146997143D01*
X84869999Y-147068571D01*
X84298571Y-147068571D01*
X84298571Y-145568571D01*
X84798571Y-145568571D01*
X84941428Y-145640000D01*
X85012857Y-145711429D01*
X85084285Y-145854286D01*
X85084285Y-145997143D01*
X85012857Y-146140000D01*
X84941428Y-146211429D01*
X84798571Y-146282857D01*
X84298571Y-146282857D01*
X85798571Y-146282857D02*
X86298571Y-146282857D01*
X86512857Y-147068571D02*
X85798571Y-147068571D01*
X85798571Y-145568571D01*
X86512857Y-145568571D01*
X88227142Y-146997143D02*
X88441428Y-147068571D01*
X88798571Y-147068571D01*
X88941428Y-146997143D01*
X89012857Y-146925714D01*
X89084285Y-146782857D01*
X89084285Y-146640000D01*
X89012857Y-146497143D01*
X88941428Y-146425714D01*
X88798571Y-146354286D01*
X88512857Y-146282857D01*
X88369999Y-146211429D01*
X88298571Y-146140000D01*
X88227142Y-145997143D01*
X88227142Y-145854286D01*
X88298571Y-145711429D01*
X88369999Y-145640000D01*
X88512857Y-145568571D01*
X88869999Y-145568571D01*
X89084285Y-145640000D01*
X89727142Y-147068571D02*
X89727142Y-145568571D01*
X89727142Y-146282857D02*
X90584285Y-146282857D01*
X90584285Y-147068571D02*
X90584285Y-145568571D01*
X91298571Y-147068571D02*
X91298571Y-145568571D01*
X92012857Y-147068571D02*
X92012857Y-145568571D01*
X92584285Y-145568571D01*
X92727143Y-145640000D01*
X92798571Y-145711429D01*
X92870000Y-145854286D01*
X92870000Y-146068571D01*
X92798571Y-146211429D01*
X92727143Y-146282857D01*
X92584285Y-146354286D01*
X92012857Y-146354286D01*
X93512857Y-147068571D02*
X93512857Y-145568571D01*
X94084285Y-145568571D01*
X94227143Y-145640000D01*
X94298571Y-145711429D01*
X94370000Y-145854286D01*
X94370000Y-146068571D01*
X94298571Y-146211429D01*
X94227143Y-146282857D01*
X94084285Y-146354286D01*
X93512857Y-146354286D01*
X95012857Y-146282857D02*
X95512857Y-146282857D01*
X95727143Y-147068571D02*
X95012857Y-147068571D01*
X95012857Y-145568571D01*
X95727143Y-145568571D01*
X96370000Y-147068571D02*
X96370000Y-145568571D01*
X96727143Y-145568571D01*
X96941428Y-145640000D01*
X97084286Y-145782857D01*
X97155714Y-145925714D01*
X97227143Y-146211429D01*
X97227143Y-146425714D01*
X97155714Y-146711429D01*
X97084286Y-146854286D01*
X96941428Y-146997143D01*
X96727143Y-147068571D01*
X96370000Y-147068571D01*
X99012857Y-147068571D02*
X99012857Y-145568571D01*
X99727143Y-147068571D02*
X99727143Y-145568571D01*
X100584286Y-147068571D01*
X100584286Y-145568571D01*
X103298572Y-146925714D02*
X103227143Y-146997143D01*
X103012857Y-147068571D01*
X102870000Y-147068571D01*
X102655715Y-146997143D01*
X102512857Y-146854286D01*
X102441429Y-146711429D01*
X102370000Y-146425714D01*
X102370000Y-146211429D01*
X102441429Y-145925714D01*
X102512857Y-145782857D01*
X102655715Y-145640000D01*
X102870000Y-145568571D01*
X103012857Y-145568571D01*
X103227143Y-145640000D01*
X103298572Y-145711429D01*
X103941429Y-145568571D02*
X103941429Y-146782857D01*
X104012857Y-146925714D01*
X104084286Y-146997143D01*
X104227143Y-147068571D01*
X104512857Y-147068571D01*
X104655715Y-146997143D01*
X104727143Y-146925714D01*
X104798572Y-146782857D01*
X104798572Y-145568571D01*
X105441429Y-146997143D02*
X105655715Y-147068571D01*
X106012858Y-147068571D01*
X106155715Y-146997143D01*
X106227144Y-146925714D01*
X106298572Y-146782857D01*
X106298572Y-146640000D01*
X106227144Y-146497143D01*
X106155715Y-146425714D01*
X106012858Y-146354286D01*
X105727144Y-146282857D01*
X105584286Y-146211429D01*
X105512858Y-146140000D01*
X105441429Y-145997143D01*
X105441429Y-145854286D01*
X105512858Y-145711429D01*
X105584286Y-145640000D01*
X105727144Y-145568571D01*
X106084286Y-145568571D01*
X106298572Y-145640000D01*
X106727143Y-145568571D02*
X107584286Y-145568571D01*
X107155715Y-147068571D02*
X107155715Y-145568571D01*
X108370000Y-145568571D02*
X108655714Y-145568571D01*
X108798572Y-145640000D01*
X108941429Y-145782857D01*
X109012857Y-146068571D01*
X109012857Y-146568571D01*
X108941429Y-146854286D01*
X108798572Y-146997143D01*
X108655714Y-147068571D01*
X108370000Y-147068571D01*
X108227143Y-146997143D01*
X108084286Y-146854286D01*
X108012857Y-146568571D01*
X108012857Y-146068571D01*
X108084286Y-145782857D01*
X108227143Y-145640000D01*
X108370000Y-145568571D01*
X109655715Y-147068571D02*
X109655715Y-145568571D01*
X110155715Y-146640000D01*
X110655715Y-145568571D01*
X110655715Y-147068571D01*
X111370001Y-146282857D02*
X111870001Y-146282857D01*
X112084287Y-147068571D02*
X111370001Y-147068571D01*
X111370001Y-145568571D01*
X112084287Y-145568571D01*
X113584287Y-147068571D02*
X113084287Y-146354286D01*
X112727144Y-147068571D02*
X112727144Y-145568571D01*
X113298572Y-145568571D01*
X113441430Y-145640000D01*
X113512858Y-145711429D01*
X113584287Y-145854286D01*
X113584287Y-146068571D01*
X113512858Y-146211429D01*
X113441430Y-146282857D01*
X113298572Y-146354286D01*
X112727144Y-146354286D01*
X114227144Y-146497143D02*
X115370001Y-146497143D01*
X116012858Y-146997143D02*
X116227144Y-147068571D01*
X116584287Y-147068571D01*
X116727144Y-146997143D01*
X116798573Y-146925714D01*
X116870001Y-146782857D01*
X116870001Y-146640000D01*
X116798573Y-146497143D01*
X116727144Y-146425714D01*
X116584287Y-146354286D01*
X116298573Y-146282857D01*
X116155715Y-146211429D01*
X116084287Y-146140000D01*
X116012858Y-145997143D01*
X116012858Y-145854286D01*
X116084287Y-145711429D01*
X116155715Y-145640000D01*
X116298573Y-145568571D01*
X116655715Y-145568571D01*
X116870001Y-145640000D01*
X117512858Y-145568571D02*
X117512858Y-146782857D01*
X117584286Y-146925714D01*
X117655715Y-146997143D01*
X117798572Y-147068571D01*
X118084286Y-147068571D01*
X118227144Y-146997143D01*
X118298572Y-146925714D01*
X118370001Y-146782857D01*
X118370001Y-145568571D01*
X119084287Y-147068571D02*
X119084287Y-145568571D01*
X119655715Y-145568571D01*
X119798573Y-145640000D01*
X119870001Y-145711429D01*
X119941430Y-145854286D01*
X119941430Y-146068571D01*
X119870001Y-146211429D01*
X119798573Y-146282857D01*
X119655715Y-146354286D01*
X119084287Y-146354286D01*
X120584287Y-147068571D02*
X120584287Y-145568571D01*
X121155715Y-145568571D01*
X121298573Y-145640000D01*
X121370001Y-145711429D01*
X121441430Y-145854286D01*
X121441430Y-146068571D01*
X121370001Y-146211429D01*
X121298573Y-146282857D01*
X121155715Y-146354286D01*
X120584287Y-146354286D01*
X122798573Y-147068571D02*
X122084287Y-147068571D01*
X122084287Y-145568571D01*
X123298573Y-147068571D02*
X123298573Y-145568571D01*
X124012859Y-146282857D02*
X124512859Y-146282857D01*
X124727145Y-147068571D02*
X124012859Y-147068571D01*
X124012859Y-145568571D01*
X124727145Y-145568571D01*
X125370002Y-147068571D02*
X125370002Y-145568571D01*
X125727145Y-145568571D01*
X125941430Y-145640000D01*
X126084288Y-145782857D01*
X126155716Y-145925714D01*
X126227145Y-146211429D01*
X126227145Y-146425714D01*
X126155716Y-146711429D01*
X126084288Y-146854286D01*
X125941430Y-146997143D01*
X125727145Y-147068571D01*
X125370002Y-147068571D01*
X128512859Y-146282857D02*
X128012859Y-146282857D01*
X128012859Y-147068571D02*
X128012859Y-145568571D01*
X128727145Y-145568571D01*
X129584287Y-145568571D02*
X129870001Y-145568571D01*
X130012859Y-145640000D01*
X130155716Y-145782857D01*
X130227144Y-146068571D01*
X130227144Y-146568571D01*
X130155716Y-146854286D01*
X130012859Y-146997143D01*
X129870001Y-147068571D01*
X129584287Y-147068571D01*
X129441430Y-146997143D01*
X129298573Y-146854286D01*
X129227144Y-146568571D01*
X129227144Y-146068571D01*
X129298573Y-145782857D01*
X129441430Y-145640000D01*
X129584287Y-145568571D01*
X130798573Y-146640000D02*
X131512859Y-146640000D01*
X130655716Y-147068571D02*
X131155716Y-145568571D01*
X131655716Y-147068571D01*
X132155716Y-147068571D02*
X132155716Y-145568571D01*
X132655716Y-146640000D01*
X133155716Y-145568571D01*
X133155716Y-147068571D01*
X134798573Y-145568571D02*
X135655716Y-145568571D01*
X135227145Y-147068571D02*
X135227145Y-145568571D01*
X137012859Y-147068571D02*
X136512859Y-146354286D01*
X136155716Y-147068571D02*
X136155716Y-145568571D01*
X136727144Y-145568571D01*
X136870002Y-145640000D01*
X136941430Y-145711429D01*
X137012859Y-145854286D01*
X137012859Y-146068571D01*
X136941430Y-146211429D01*
X136870002Y-146282857D01*
X136727144Y-146354286D01*
X136155716Y-146354286D01*
X137584287Y-146640000D02*
X138298573Y-146640000D01*
X137441430Y-147068571D02*
X137941430Y-145568571D01*
X138441430Y-147068571D01*
X139227144Y-146354286D02*
X139227144Y-147068571D01*
X138727144Y-145568571D02*
X139227144Y-146354286D01*
X139727144Y-145568571D01*
X140155715Y-146997143D02*
X140370001Y-147068571D01*
X140727144Y-147068571D01*
X140870001Y-146997143D01*
X140941430Y-146925714D01*
X141012858Y-146782857D01*
X141012858Y-146640000D01*
X140941430Y-146497143D01*
X140870001Y-146425714D01*
X140727144Y-146354286D01*
X140441430Y-146282857D01*
X140298572Y-146211429D01*
X140227144Y-146140000D01*
X140155715Y-145997143D01*
X140155715Y-145854286D01*
X140227144Y-145711429D01*
X140298572Y-145640000D01*
X140441430Y-145568571D01*
X140798572Y-145568571D01*
X141012858Y-145640000D01*
X67298571Y-149618571D02*
X67584286Y-149618571D01*
X67727143Y-149547143D01*
X67798571Y-149475714D01*
X67941429Y-149261429D01*
X68012857Y-148975714D01*
X68012857Y-148404286D01*
X67941429Y-148261429D01*
X67870000Y-148190000D01*
X67727143Y-148118571D01*
X67441429Y-148118571D01*
X67298571Y-148190000D01*
X67227143Y-148261429D01*
X67155714Y-148404286D01*
X67155714Y-148761429D01*
X67227143Y-148904286D01*
X67298571Y-148975714D01*
X67441429Y-149047143D01*
X67727143Y-149047143D01*
X67870000Y-148975714D01*
X67941429Y-148904286D01*
X68012857Y-148761429D01*
X68655714Y-149475714D02*
X68727142Y-149547143D01*
X68655714Y-149618571D01*
X68584285Y-149547143D01*
X68655714Y-149475714D01*
X68655714Y-149618571D01*
X70441428Y-149547143D02*
X70655714Y-149618571D01*
X71012857Y-149618571D01*
X71155714Y-149547143D01*
X71227143Y-149475714D01*
X71298571Y-149332857D01*
X71298571Y-149190000D01*
X71227143Y-149047143D01*
X71155714Y-148975714D01*
X71012857Y-148904286D01*
X70727143Y-148832857D01*
X70584285Y-148761429D01*
X70512857Y-148690000D01*
X70441428Y-148547143D01*
X70441428Y-148404286D01*
X70512857Y-148261429D01*
X70584285Y-148190000D01*
X70727143Y-148118571D01*
X71084285Y-148118571D01*
X71298571Y-148190000D01*
X71798571Y-148118571D02*
X72155714Y-149618571D01*
X72441428Y-148547143D01*
X72727142Y-149618571D01*
X73084285Y-148118571D01*
X73584285Y-148261429D02*
X73655714Y-148190000D01*
X73798571Y-148118571D01*
X74155714Y-148118571D01*
X74298571Y-148190000D01*
X74370000Y-148261429D01*
X74441428Y-148404286D01*
X74441428Y-148547143D01*
X74370000Y-148761429D01*
X73512857Y-149618571D01*
X74441428Y-149618571D01*
X76655713Y-150190000D02*
X76584285Y-150118571D01*
X76441428Y-149904286D01*
X76369999Y-149761429D01*
X76298570Y-149547143D01*
X76227142Y-149190000D01*
X76227142Y-148904286D01*
X76298570Y-148547143D01*
X76369999Y-148332857D01*
X76441428Y-148190000D01*
X76584285Y-147975714D01*
X76655713Y-147904286D01*
X77941428Y-149618571D02*
X77227142Y-149618571D01*
X77227142Y-148118571D01*
X78441428Y-149618571D02*
X78441428Y-148118571D01*
X79155714Y-149618571D02*
X79155714Y-148118571D01*
X79655714Y-149190000D01*
X80155714Y-148118571D01*
X80155714Y-149618571D01*
X80870000Y-149618571D02*
X80870000Y-148118571D01*
X81370000Y-148118571D02*
X82227143Y-148118571D01*
X81798572Y-149618571D02*
X81798572Y-148118571D01*
X83798571Y-149547143D02*
X84012857Y-149618571D01*
X84370000Y-149618571D01*
X84512857Y-149547143D01*
X84584286Y-149475714D01*
X84655714Y-149332857D01*
X84655714Y-149190000D01*
X84584286Y-149047143D01*
X84512857Y-148975714D01*
X84370000Y-148904286D01*
X84084286Y-148832857D01*
X83941428Y-148761429D01*
X83870000Y-148690000D01*
X83798571Y-148547143D01*
X83798571Y-148404286D01*
X83870000Y-148261429D01*
X83941428Y-148190000D01*
X84084286Y-148118571D01*
X84441428Y-148118571D01*
X84655714Y-148190000D01*
X85155714Y-148118571D02*
X85512857Y-149618571D01*
X85798571Y-148547143D01*
X86084285Y-149618571D01*
X86441428Y-148118571D01*
X87012857Y-149618571D02*
X87012857Y-148118571D01*
X87512857Y-148118571D02*
X88370000Y-148118571D01*
X87941429Y-149618571D02*
X87941429Y-148118571D01*
X89727143Y-149475714D02*
X89655714Y-149547143D01*
X89441428Y-149618571D01*
X89298571Y-149618571D01*
X89084286Y-149547143D01*
X88941428Y-149404286D01*
X88870000Y-149261429D01*
X88798571Y-148975714D01*
X88798571Y-148761429D01*
X88870000Y-148475714D01*
X88941428Y-148332857D01*
X89084286Y-148190000D01*
X89298571Y-148118571D01*
X89441428Y-148118571D01*
X89655714Y-148190000D01*
X89727143Y-148261429D01*
X90370000Y-149618571D02*
X90370000Y-148118571D01*
X90370000Y-148832857D02*
X91227143Y-148832857D01*
X91227143Y-149618571D02*
X91227143Y-148118571D01*
X91798572Y-150190000D02*
X91870000Y-150118571D01*
X92012857Y-149904286D01*
X92084286Y-149761429D01*
X92155715Y-149547143D01*
X92227143Y-149190000D01*
X92227143Y-148904286D01*
X92155715Y-148547143D01*
X92084286Y-148332857D01*
X92012857Y-148190000D01*
X91870000Y-147975714D01*
X91798572Y-147904286D01*
X93870000Y-148118571D02*
X94727143Y-148118571D01*
X94298572Y-149618571D02*
X94298572Y-148118571D01*
X95512857Y-148118571D02*
X95798571Y-148118571D01*
X95941429Y-148190000D01*
X96084286Y-148332857D01*
X96155714Y-148618571D01*
X96155714Y-149118571D01*
X96084286Y-149404286D01*
X95941429Y-149547143D01*
X95798571Y-149618571D01*
X95512857Y-149618571D01*
X95370000Y-149547143D01*
X95227143Y-149404286D01*
X95155714Y-149118571D01*
X95155714Y-148618571D01*
X95227143Y-148332857D01*
X95370000Y-148190000D01*
X95512857Y-148118571D01*
X98441429Y-148832857D02*
X98655715Y-148904286D01*
X98727143Y-148975714D01*
X98798572Y-149118571D01*
X98798572Y-149332857D01*
X98727143Y-149475714D01*
X98655715Y-149547143D01*
X98512857Y-149618571D01*
X97941429Y-149618571D01*
X97941429Y-148118571D01*
X98441429Y-148118571D01*
X98584286Y-148190000D01*
X98655715Y-148261429D01*
X98727143Y-148404286D01*
X98727143Y-148547143D01*
X98655715Y-148690000D01*
X98584286Y-148761429D01*
X98441429Y-148832857D01*
X97941429Y-148832857D01*
X99441429Y-148832857D02*
X99941429Y-148832857D01*
X100155715Y-149618571D02*
X99441429Y-149618571D01*
X99441429Y-148118571D01*
X100155715Y-148118571D01*
X101870000Y-149547143D02*
X102084286Y-149618571D01*
X102441429Y-149618571D01*
X102584286Y-149547143D01*
X102655715Y-149475714D01*
X102727143Y-149332857D01*
X102727143Y-149190000D01*
X102655715Y-149047143D01*
X102584286Y-148975714D01*
X102441429Y-148904286D01*
X102155715Y-148832857D01*
X102012857Y-148761429D01*
X101941429Y-148690000D01*
X101870000Y-148547143D01*
X101870000Y-148404286D01*
X101941429Y-148261429D01*
X102012857Y-148190000D01*
X102155715Y-148118571D01*
X102512857Y-148118571D01*
X102727143Y-148190000D01*
X103655714Y-148118571D02*
X103941428Y-148118571D01*
X104084286Y-148190000D01*
X104227143Y-148332857D01*
X104298571Y-148618571D01*
X104298571Y-149118571D01*
X104227143Y-149404286D01*
X104084286Y-149547143D01*
X103941428Y-149618571D01*
X103655714Y-149618571D01*
X103512857Y-149547143D01*
X103370000Y-149404286D01*
X103298571Y-149118571D01*
X103298571Y-148618571D01*
X103370000Y-148332857D01*
X103512857Y-148190000D01*
X103655714Y-148118571D01*
X105655715Y-149618571D02*
X104941429Y-149618571D01*
X104941429Y-148118571D01*
X106155715Y-149618571D02*
X106155715Y-148118571D01*
X106512858Y-148118571D01*
X106727143Y-148190000D01*
X106870001Y-148332857D01*
X106941429Y-148475714D01*
X107012858Y-148761429D01*
X107012858Y-148975714D01*
X106941429Y-149261429D01*
X106870001Y-149404286D01*
X106727143Y-149547143D01*
X106512858Y-149618571D01*
X106155715Y-149618571D01*
X107655715Y-148832857D02*
X108155715Y-148832857D01*
X108370001Y-149618571D02*
X107655715Y-149618571D01*
X107655715Y-148118571D01*
X108370001Y-148118571D01*
X109870001Y-149618571D02*
X109370001Y-148904286D01*
X109012858Y-149618571D02*
X109012858Y-148118571D01*
X109584286Y-148118571D01*
X109727144Y-148190000D01*
X109798572Y-148261429D01*
X109870001Y-148404286D01*
X109870001Y-148618571D01*
X109798572Y-148761429D01*
X109727144Y-148832857D01*
X109584286Y-148904286D01*
X109012858Y-148904286D01*
X110512858Y-148832857D02*
X111012858Y-148832857D01*
X111227144Y-149618571D02*
X110512858Y-149618571D01*
X110512858Y-148118571D01*
X111227144Y-148118571D01*
X111870001Y-149618571D02*
X111870001Y-148118571D01*
X112227144Y-148118571D01*
X112441429Y-148190000D01*
X112584287Y-148332857D01*
X112655715Y-148475714D01*
X112727144Y-148761429D01*
X112727144Y-148975714D01*
X112655715Y-149261429D01*
X112584287Y-149404286D01*
X112441429Y-149547143D01*
X112227144Y-149618571D01*
X111870001Y-149618571D01*
X114512858Y-149618571D02*
X114512858Y-148118571D01*
X114512858Y-148832857D02*
X115370001Y-148832857D01*
X115370001Y-149618571D02*
X115370001Y-148118571D01*
X116370001Y-148118571D02*
X116655715Y-148118571D01*
X116798573Y-148190000D01*
X116941430Y-148332857D01*
X117012858Y-148618571D01*
X117012858Y-149118571D01*
X116941430Y-149404286D01*
X116798573Y-149547143D01*
X116655715Y-149618571D01*
X116370001Y-149618571D01*
X116227144Y-149547143D01*
X116084287Y-149404286D01*
X116012858Y-149118571D01*
X116012858Y-148618571D01*
X116084287Y-148332857D01*
X116227144Y-148190000D01*
X116370001Y-148118571D01*
X118512859Y-149618571D02*
X118012859Y-148904286D01*
X117655716Y-149618571D02*
X117655716Y-148118571D01*
X118227144Y-148118571D01*
X118370002Y-148190000D01*
X118441430Y-148261429D01*
X118512859Y-148404286D01*
X118512859Y-148618571D01*
X118441430Y-148761429D01*
X118370002Y-148832857D01*
X118227144Y-148904286D01*
X117655716Y-148904286D01*
X119155716Y-149618571D02*
X119155716Y-148118571D01*
X119727145Y-148118571D02*
X120727145Y-148118571D01*
X119727145Y-149618571D01*
X120727145Y-149618571D01*
X121584287Y-148118571D02*
X121870001Y-148118571D01*
X122012859Y-148190000D01*
X122155716Y-148332857D01*
X122227144Y-148618571D01*
X122227144Y-149118571D01*
X122155716Y-149404286D01*
X122012859Y-149547143D01*
X121870001Y-149618571D01*
X121584287Y-149618571D01*
X121441430Y-149547143D01*
X121298573Y-149404286D01*
X121227144Y-149118571D01*
X121227144Y-148618571D01*
X121298573Y-148332857D01*
X121441430Y-148190000D01*
X121584287Y-148118571D01*
X122870002Y-149618571D02*
X122870002Y-148118571D01*
X123727145Y-149618571D01*
X123727145Y-148118571D01*
X124227145Y-148118571D02*
X125084288Y-148118571D01*
X124655717Y-149618571D02*
X124655717Y-148118571D01*
X125512859Y-149190000D02*
X126227145Y-149190000D01*
X125370002Y-149618571D02*
X125870002Y-148118571D01*
X126370002Y-149618571D01*
X127584288Y-149618571D02*
X126870002Y-149618571D01*
X126870002Y-148118571D01*
X128798574Y-149618571D02*
X128084288Y-149618571D01*
X128084288Y-148118571D01*
X129584288Y-148904286D02*
X129584288Y-149618571D01*
X129084288Y-148118571D02*
X129584288Y-148904286D01*
X130084288Y-148118571D01*
X131512859Y-148118571D02*
X132370002Y-148118571D01*
X131941431Y-149618571D02*
X131941431Y-148118571D01*
X133155716Y-148118571D02*
X133441430Y-148118571D01*
X133584288Y-148190000D01*
X133727145Y-148332857D01*
X133798573Y-148618571D01*
X133798573Y-149118571D01*
X133727145Y-149404286D01*
X133584288Y-149547143D01*
X133441430Y-149618571D01*
X133155716Y-149618571D01*
X133012859Y-149547143D01*
X132870002Y-149404286D01*
X132798573Y-149118571D01*
X132798573Y-148618571D01*
X132870002Y-148332857D01*
X133012859Y-148190000D01*
X133155716Y-148118571D01*
X135584288Y-148832857D02*
X136084288Y-148832857D01*
X136298574Y-149618571D02*
X135584288Y-149618571D01*
X135584288Y-148118571D01*
X136298574Y-148118571D01*
X136941431Y-149618571D02*
X136941431Y-148118571D01*
X137798574Y-149618571D01*
X137798574Y-148118571D01*
X138512860Y-149618571D02*
X138512860Y-148118571D01*
X138870003Y-148118571D01*
X139084288Y-148190000D01*
X139227146Y-148332857D01*
X139298574Y-148475714D01*
X139370003Y-148761429D01*
X139370003Y-148975714D01*
X139298574Y-149261429D01*
X139227146Y-149404286D01*
X139084288Y-149547143D01*
X138870003Y-149618571D01*
X138512860Y-149618571D01*
X141441431Y-148118571D02*
X141727145Y-148118571D01*
X141870003Y-148190000D01*
X142012860Y-148332857D01*
X142084288Y-148618571D01*
X142084288Y-149118571D01*
X142012860Y-149404286D01*
X141870003Y-149547143D01*
X141727145Y-149618571D01*
X141441431Y-149618571D01*
X141298574Y-149547143D01*
X141155717Y-149404286D01*
X141084288Y-149118571D01*
X141084288Y-148618571D01*
X141155717Y-148332857D01*
X141298574Y-148190000D01*
X141441431Y-148118571D01*
X143227146Y-148832857D02*
X142727146Y-148832857D01*
X142727146Y-149618571D02*
X142727146Y-148118571D01*
X143441432Y-148118571D01*
X145655717Y-148832857D02*
X145870003Y-148904286D01*
X145941431Y-148975714D01*
X146012860Y-149118571D01*
X146012860Y-149332857D01*
X145941431Y-149475714D01*
X145870003Y-149547143D01*
X145727145Y-149618571D01*
X145155717Y-149618571D01*
X145155717Y-148118571D01*
X145655717Y-148118571D01*
X145798574Y-148190000D01*
X145870003Y-148261429D01*
X145941431Y-148404286D01*
X145941431Y-148547143D01*
X145870003Y-148690000D01*
X145798574Y-148761429D01*
X145655717Y-148832857D01*
X145155717Y-148832857D01*
X146941431Y-148118571D02*
X147227145Y-148118571D01*
X147370003Y-148190000D01*
X147512860Y-148332857D01*
X147584288Y-148618571D01*
X147584288Y-149118571D01*
X147512860Y-149404286D01*
X147370003Y-149547143D01*
X147227145Y-149618571D01*
X146941431Y-149618571D01*
X146798574Y-149547143D01*
X146655717Y-149404286D01*
X146584288Y-149118571D01*
X146584288Y-148618571D01*
X146655717Y-148332857D01*
X146798574Y-148190000D01*
X146941431Y-148118571D01*
X148155717Y-149190000D02*
X148870003Y-149190000D01*
X148012860Y-149618571D02*
X148512860Y-148118571D01*
X149012860Y-149618571D01*
X150370003Y-149618571D02*
X149870003Y-148904286D01*
X149512860Y-149618571D02*
X149512860Y-148118571D01*
X150084288Y-148118571D01*
X150227146Y-148190000D01*
X150298574Y-148261429D01*
X150370003Y-148404286D01*
X150370003Y-148618571D01*
X150298574Y-148761429D01*
X150227146Y-148832857D01*
X150084288Y-148904286D01*
X149512860Y-148904286D01*
X151012860Y-149618571D02*
X151012860Y-148118571D01*
X151370003Y-148118571D01*
X151584288Y-148190000D01*
X151727146Y-148332857D01*
X151798574Y-148475714D01*
X151870003Y-148761429D01*
X151870003Y-148975714D01*
X151798574Y-149261429D01*
X151727146Y-149404286D01*
X151584288Y-149547143D01*
X151370003Y-149618571D01*
X151012860Y-149618571D01*
X154084288Y-150190000D02*
X154012860Y-150118571D01*
X153870003Y-149904286D01*
X153798574Y-149761429D01*
X153727145Y-149547143D01*
X153655717Y-149190000D01*
X153655717Y-148904286D01*
X153727145Y-148547143D01*
X153798574Y-148332857D01*
X153870003Y-148190000D01*
X154012860Y-147975714D01*
X154084288Y-147904286D01*
X154655717Y-149618571D02*
X154655717Y-148118571D01*
X155012860Y-148118571D01*
X155227145Y-148190000D01*
X155370003Y-148332857D01*
X155441431Y-148475714D01*
X155512860Y-148761429D01*
X155512860Y-148975714D01*
X155441431Y-149261429D01*
X155370003Y-149404286D01*
X155227145Y-149547143D01*
X155012860Y-149618571D01*
X154655717Y-149618571D01*
X156012860Y-148118571D02*
X156370003Y-149618571D01*
X156655717Y-148547143D01*
X156941431Y-149618571D01*
X157298574Y-148118571D01*
X158655717Y-148190000D02*
X158512860Y-148118571D01*
X158298574Y-148118571D01*
X158084289Y-148190000D01*
X157941431Y-148332857D01*
X157870003Y-148475714D01*
X157798574Y-148761429D01*
X157798574Y-148975714D01*
X157870003Y-149261429D01*
X157941431Y-149404286D01*
X158084289Y-149547143D01*
X158298574Y-149618571D01*
X158441431Y-149618571D01*
X158655717Y-149547143D01*
X158727146Y-149475714D01*
X158727146Y-148975714D01*
X158441431Y-148975714D01*
X159298574Y-149547143D02*
X159512860Y-149618571D01*
X159870003Y-149618571D01*
X160012860Y-149547143D01*
X160084289Y-149475714D01*
X160155717Y-149332857D01*
X160155717Y-149190000D01*
X160084289Y-149047143D01*
X160012860Y-148975714D01*
X159870003Y-148904286D01*
X159584289Y-148832857D01*
X159441431Y-148761429D01*
X159370003Y-148690000D01*
X159298574Y-148547143D01*
X159298574Y-148404286D01*
X159370003Y-148261429D01*
X159441431Y-148190000D01*
X159584289Y-148118571D01*
X159941431Y-148118571D01*
X160155717Y-148190000D01*
X160798574Y-149475714D02*
X160870002Y-149547143D01*
X160798574Y-149618571D01*
X160727145Y-149547143D01*
X160798574Y-149475714D01*
X160798574Y-149618571D01*
X161512860Y-148118571D02*
X161512860Y-149332857D01*
X161584288Y-149475714D01*
X161655717Y-149547143D01*
X161798574Y-149618571D01*
X162084288Y-149618571D01*
X162227146Y-149547143D01*
X162298574Y-149475714D01*
X162370003Y-149332857D01*
X162370003Y-148118571D01*
X163012860Y-149547143D02*
X163227146Y-149618571D01*
X163584289Y-149618571D01*
X163727146Y-149547143D01*
X163798575Y-149475714D01*
X163870003Y-149332857D01*
X163870003Y-149190000D01*
X163798575Y-149047143D01*
X163727146Y-148975714D01*
X163584289Y-148904286D01*
X163298575Y-148832857D01*
X163155717Y-148761429D01*
X163084289Y-148690000D01*
X163012860Y-148547143D01*
X163012860Y-148404286D01*
X163084289Y-148261429D01*
X163155717Y-148190000D01*
X163298575Y-148118571D01*
X163655717Y-148118571D01*
X163870003Y-148190000D01*
X164512860Y-148832857D02*
X165012860Y-148832857D01*
X165227146Y-149618571D02*
X164512860Y-149618571D01*
X164512860Y-148118571D01*
X165227146Y-148118571D01*
X166727146Y-149618571D02*
X166227146Y-148904286D01*
X165870003Y-149618571D02*
X165870003Y-148118571D01*
X166441431Y-148118571D01*
X166584289Y-148190000D01*
X166655717Y-148261429D01*
X166727146Y-148404286D01*
X166727146Y-148618571D01*
X166655717Y-148761429D01*
X166584289Y-148832857D01*
X166441431Y-148904286D01*
X165870003Y-148904286D01*
X169227146Y-149618571D02*
X168512860Y-149618571D01*
X168512860Y-148118571D01*
X169655717Y-149190000D02*
X170370003Y-149190000D01*
X169512860Y-149618571D02*
X170012860Y-148118571D01*
X170512860Y-149618571D01*
X171298574Y-148904286D02*
X171298574Y-149618571D01*
X170798574Y-148118571D02*
X171298574Y-148904286D01*
X171798574Y-148118571D01*
X172298574Y-148832857D02*
X172798574Y-148832857D01*
X173012860Y-149618571D02*
X172298574Y-149618571D01*
X172298574Y-148118571D01*
X173012860Y-148118571D01*
X174512860Y-149618571D02*
X174012860Y-148904286D01*
X173655717Y-149618571D02*
X173655717Y-148118571D01*
X174227145Y-148118571D01*
X174370003Y-148190000D01*
X174441431Y-148261429D01*
X174512860Y-148404286D01*
X174512860Y-148618571D01*
X174441431Y-148761429D01*
X174370003Y-148832857D01*
X174227145Y-148904286D01*
X173655717Y-148904286D01*
X175012860Y-150190000D02*
X175084288Y-150118571D01*
X175227145Y-149904286D01*
X175298574Y-149761429D01*
X175370003Y-149547143D01*
X175441431Y-149190000D01*
X175441431Y-148904286D01*
X175370003Y-148547143D01*
X175298574Y-148332857D01*
X175227145Y-148190000D01*
X175084288Y-147975714D01*
X175012860Y-147904286D01*
X68012857Y-152168571D02*
X67155714Y-152168571D01*
X67584286Y-152168571D02*
X67584286Y-150668571D01*
X67441429Y-150882857D01*
X67298571Y-151025714D01*
X67155714Y-151097143D01*
X68941428Y-150668571D02*
X69084285Y-150668571D01*
X69227142Y-150740000D01*
X69298571Y-150811429D01*
X69370000Y-150954286D01*
X69441428Y-151240000D01*
X69441428Y-151597143D01*
X69370000Y-151882857D01*
X69298571Y-152025714D01*
X69227142Y-152097143D01*
X69084285Y-152168571D01*
X68941428Y-152168571D01*
X68798571Y-152097143D01*
X68727142Y-152025714D01*
X68655714Y-151882857D01*
X68584285Y-151597143D01*
X68584285Y-151240000D01*
X68655714Y-150954286D01*
X68727142Y-150811429D01*
X68798571Y-150740000D01*
X68941428Y-150668571D01*
X70084285Y-152025714D02*
X70155713Y-152097143D01*
X70084285Y-152168571D01*
X70012856Y-152097143D01*
X70084285Y-152025714D01*
X70084285Y-152168571D01*
X71798571Y-150668571D02*
X72727142Y-150668571D01*
X72227142Y-151240000D01*
X72441428Y-151240000D01*
X72584285Y-151311429D01*
X72655714Y-151382857D01*
X72727142Y-151525714D01*
X72727142Y-151882857D01*
X72655714Y-152025714D01*
X72584285Y-152097143D01*
X72441428Y-152168571D01*
X72012856Y-152168571D01*
X71869999Y-152097143D01*
X71798571Y-152025714D01*
X73369999Y-152168571D02*
X73369999Y-150668571D01*
X73869999Y-151740000D01*
X74369999Y-150668571D01*
X74369999Y-152168571D01*
X75084285Y-152168571D02*
X75084285Y-150668571D01*
X75584285Y-151740000D01*
X76084285Y-150668571D01*
X76084285Y-152168571D01*
X78655714Y-152168571D02*
X77941428Y-152168571D01*
X77941428Y-150668571D01*
X79155714Y-151382857D02*
X79655714Y-151382857D01*
X79870000Y-152168571D02*
X79155714Y-152168571D01*
X79155714Y-150668571D01*
X79870000Y-150668571D01*
X80512857Y-152168571D02*
X80512857Y-150668571D01*
X80870000Y-150668571D01*
X81084285Y-150740000D01*
X81227143Y-150882857D01*
X81298571Y-151025714D01*
X81370000Y-151311429D01*
X81370000Y-151525714D01*
X81298571Y-151811429D01*
X81227143Y-151954286D01*
X81084285Y-152097143D01*
X80870000Y-152168571D01*
X80512857Y-152168571D01*
X83155714Y-152168571D02*
X83155714Y-150668571D01*
X83155714Y-151382857D02*
X84012857Y-151382857D01*
X84012857Y-152168571D02*
X84012857Y-150668571D01*
X85012857Y-150668571D02*
X85298571Y-150668571D01*
X85441429Y-150740000D01*
X85584286Y-150882857D01*
X85655714Y-151168571D01*
X85655714Y-151668571D01*
X85584286Y-151954286D01*
X85441429Y-152097143D01*
X85298571Y-152168571D01*
X85012857Y-152168571D01*
X84870000Y-152097143D01*
X84727143Y-151954286D01*
X84655714Y-151668571D01*
X84655714Y-151168571D01*
X84727143Y-150882857D01*
X84870000Y-150740000D01*
X85012857Y-150668571D01*
X87012858Y-152168571D02*
X86298572Y-152168571D01*
X86298572Y-150668571D01*
X87512858Y-151382857D02*
X88012858Y-151382857D01*
X88227144Y-152168571D02*
X87512858Y-152168571D01*
X87512858Y-150668571D01*
X88227144Y-150668571D01*
X90012858Y-152168571D02*
X90012858Y-150668571D01*
X90655715Y-152097143D02*
X90870001Y-152168571D01*
X91227144Y-152168571D01*
X91370001Y-152097143D01*
X91441430Y-152025714D01*
X91512858Y-151882857D01*
X91512858Y-151740000D01*
X91441430Y-151597143D01*
X91370001Y-151525714D01*
X91227144Y-151454286D01*
X90941430Y-151382857D01*
X90798572Y-151311429D01*
X90727144Y-151240000D01*
X90655715Y-151097143D01*
X90655715Y-150954286D01*
X90727144Y-150811429D01*
X90798572Y-150740000D01*
X90941430Y-150668571D01*
X91298572Y-150668571D01*
X91512858Y-150740000D01*
X93298572Y-152168571D02*
X93298572Y-150668571D01*
X93870000Y-150668571D01*
X94012858Y-150740000D01*
X94084286Y-150811429D01*
X94155715Y-150954286D01*
X94155715Y-151168571D01*
X94084286Y-151311429D01*
X94012858Y-151382857D01*
X93870000Y-151454286D01*
X93298572Y-151454286D01*
X95512858Y-152168571D02*
X94798572Y-152168571D01*
X94798572Y-150668571D01*
X95941429Y-151740000D02*
X96655715Y-151740000D01*
X95798572Y-152168571D02*
X96298572Y-150668571D01*
X96798572Y-152168571D01*
X97084286Y-150668571D02*
X97941429Y-150668571D01*
X97512858Y-152168571D02*
X97512858Y-150668571D01*
X98441429Y-151382857D02*
X98941429Y-151382857D01*
X99155715Y-152168571D02*
X98441429Y-152168571D01*
X98441429Y-150668571D01*
X99155715Y-150668571D01*
X99798572Y-152168571D02*
X99798572Y-150668571D01*
X100155715Y-150668571D01*
X100370000Y-150740000D01*
X100512858Y-150882857D01*
X100584286Y-151025714D01*
X100655715Y-151311429D01*
X100655715Y-151525714D01*
X100584286Y-151811429D01*
X100512858Y-151954286D01*
X100370000Y-152097143D01*
X100155715Y-152168571D01*
X99798572Y-152168571D01*
D11*
X94000000Y-100000000D02*
X95000000Y-100000000D01*
X94000000Y-100000000D02*
X94000000Y-101000000D01*
X101000000Y-107000000D02*
X94000000Y-100000000D01*
X102000000Y-107000000D02*
X101000000Y-107000000D01*
X123000000Y-107000000D02*
X102000000Y-107000000D01*
D12*
X107464285Y-103260714D02*
X107392856Y-103332143D01*
X107178570Y-103403571D01*
X107035713Y-103403571D01*
X106821428Y-103332143D01*
X106678570Y-103189286D01*
X106607142Y-103046429D01*
X106535713Y-102760714D01*
X106535713Y-102546429D01*
X106607142Y-102260714D01*
X106678570Y-102117857D01*
X106821428Y-101975000D01*
X107035713Y-101903571D01*
X107178570Y-101903571D01*
X107392856Y-101975000D01*
X107464285Y-102046429D01*
X108392856Y-101903571D02*
X108678570Y-101903571D01*
X108821428Y-101975000D01*
X108964285Y-102117857D01*
X109035713Y-102403571D01*
X109035713Y-102903571D01*
X108964285Y-103189286D01*
X108821428Y-103332143D01*
X108678570Y-103403571D01*
X108392856Y-103403571D01*
X108249999Y-103332143D01*
X108107142Y-103189286D01*
X108035713Y-102903571D01*
X108035713Y-102403571D01*
X108107142Y-102117857D01*
X108249999Y-101975000D01*
X108392856Y-101903571D01*
X109678571Y-103403571D02*
X109678571Y-101903571D01*
X110178571Y-102975000D01*
X110678571Y-101903571D01*
X110678571Y-103403571D01*
X111392857Y-103403571D02*
X111392857Y-101903571D01*
X111964285Y-101903571D01*
X112107143Y-101975000D01*
X112178571Y-102046429D01*
X112250000Y-102189286D01*
X112250000Y-102403571D01*
X112178571Y-102546429D01*
X112107143Y-102617857D01*
X111964285Y-102689286D01*
X111392857Y-102689286D01*
X113178571Y-101903571D02*
X113464285Y-101903571D01*
X113607143Y-101975000D01*
X113750000Y-102117857D01*
X113821428Y-102403571D01*
X113821428Y-102903571D01*
X113750000Y-103189286D01*
X113607143Y-103332143D01*
X113464285Y-103403571D01*
X113178571Y-103403571D01*
X113035714Y-103332143D01*
X112892857Y-103189286D01*
X112821428Y-102903571D01*
X112821428Y-102403571D01*
X112892857Y-102117857D01*
X113035714Y-101975000D01*
X113178571Y-101903571D01*
X114464286Y-103403571D02*
X114464286Y-101903571D01*
X115321429Y-103403571D01*
X115321429Y-101903571D01*
X116035715Y-102617857D02*
X116535715Y-102617857D01*
X116750001Y-103403571D02*
X116035715Y-103403571D01*
X116035715Y-101903571D01*
X116750001Y-101903571D01*
X117392858Y-103403571D02*
X117392858Y-101903571D01*
X118250001Y-103403571D01*
X118250001Y-101903571D01*
X118750001Y-101903571D02*
X119607144Y-101903571D01*
X119178573Y-103403571D02*
X119178573Y-101903571D01*
X103892856Y-105953571D02*
X103892856Y-104453571D01*
X104464284Y-104453571D01*
X104607142Y-104525000D01*
X104678570Y-104596429D01*
X104749999Y-104739286D01*
X104749999Y-104953571D01*
X104678570Y-105096429D01*
X104607142Y-105167857D01*
X104464284Y-105239286D01*
X103892856Y-105239286D01*
X105678570Y-104453571D02*
X105964284Y-104453571D01*
X106107142Y-104525000D01*
X106249999Y-104667857D01*
X106321427Y-104953571D01*
X106321427Y-105453571D01*
X106249999Y-105739286D01*
X106107142Y-105882143D01*
X105964284Y-105953571D01*
X105678570Y-105953571D01*
X105535713Y-105882143D01*
X105392856Y-105739286D01*
X105321427Y-105453571D01*
X105321427Y-104953571D01*
X105392856Y-104667857D01*
X105535713Y-104525000D01*
X105678570Y-104453571D01*
X106892856Y-105882143D02*
X107107142Y-105953571D01*
X107464285Y-105953571D01*
X107607142Y-105882143D01*
X107678571Y-105810714D01*
X107749999Y-105667857D01*
X107749999Y-105525000D01*
X107678571Y-105382143D01*
X107607142Y-105310714D01*
X107464285Y-105239286D01*
X107178571Y-105167857D01*
X107035713Y-105096429D01*
X106964285Y-105025000D01*
X106892856Y-104882143D01*
X106892856Y-104739286D01*
X106964285Y-104596429D01*
X107035713Y-104525000D01*
X107178571Y-104453571D01*
X107535713Y-104453571D01*
X107749999Y-104525000D01*
X108392856Y-105953571D02*
X108392856Y-104453571D01*
X108892856Y-104453571D02*
X109749999Y-104453571D01*
X109321428Y-105953571D02*
X109321428Y-104453571D01*
X110249999Y-105953571D02*
X110249999Y-104453571D01*
X111249999Y-104453571D02*
X111535713Y-104453571D01*
X111678571Y-104525000D01*
X111821428Y-104667857D01*
X111892856Y-104953571D01*
X111892856Y-105453571D01*
X111821428Y-105739286D01*
X111678571Y-105882143D01*
X111535713Y-105953571D01*
X111249999Y-105953571D01*
X111107142Y-105882143D01*
X110964285Y-105739286D01*
X110892856Y-105453571D01*
X110892856Y-104953571D01*
X110964285Y-104667857D01*
X111107142Y-104525000D01*
X111249999Y-104453571D01*
X112535714Y-105953571D02*
X112535714Y-104453571D01*
X113392857Y-105953571D01*
X113392857Y-104453571D01*
X115535714Y-104453571D02*
X115821428Y-104453571D01*
X115964286Y-104525000D01*
X116107143Y-104667857D01*
X116178571Y-104953571D01*
X116178571Y-105453571D01*
X116107143Y-105739286D01*
X115964286Y-105882143D01*
X115821428Y-105953571D01*
X115535714Y-105953571D01*
X115392857Y-105882143D01*
X115250000Y-105739286D01*
X115178571Y-105453571D01*
X115178571Y-104953571D01*
X115250000Y-104667857D01*
X115392857Y-104525000D01*
X115535714Y-104453571D01*
X117678572Y-105953571D02*
X117178572Y-105239286D01*
X116821429Y-105953571D02*
X116821429Y-104453571D01*
X117392857Y-104453571D01*
X117535715Y-104525000D01*
X117607143Y-104596429D01*
X117678572Y-104739286D01*
X117678572Y-104953571D01*
X117607143Y-105096429D01*
X117535715Y-105167857D01*
X117392857Y-105239286D01*
X116821429Y-105239286D01*
X118321429Y-105953571D02*
X118321429Y-104453571D01*
X119821429Y-104525000D02*
X119678572Y-104453571D01*
X119464286Y-104453571D01*
X119250001Y-104525000D01*
X119107143Y-104667857D01*
X119035715Y-104810714D01*
X118964286Y-105096429D01*
X118964286Y-105310714D01*
X119035715Y-105596429D01*
X119107143Y-105739286D01*
X119250001Y-105882143D01*
X119464286Y-105953571D01*
X119607143Y-105953571D01*
X119821429Y-105882143D01*
X119892858Y-105810714D01*
X119892858Y-105310714D01*
X119607143Y-105310714D01*
X120535715Y-105953571D02*
X120535715Y-104453571D01*
X121250001Y-105953571D02*
X121250001Y-104453571D01*
X122107144Y-105953571D01*
X122107144Y-104453571D01*
D11*
X114000000Y-90000000D02*
X115000000Y-90000000D01*
X114000000Y-90000000D02*
X114000000Y-91000000D01*
X127000000Y-103000000D02*
X114000000Y-90000000D01*
X155000000Y-103000000D02*
X127000000Y-103000000D01*
D12*
X129249999Y-99403571D02*
X128749999Y-98689286D01*
X128392856Y-99403571D02*
X128392856Y-97903571D01*
X128964284Y-97903571D01*
X129107142Y-97975000D01*
X129178570Y-98046429D01*
X129249999Y-98189286D01*
X129249999Y-98403571D01*
X129178570Y-98546429D01*
X129107142Y-98617857D01*
X128964284Y-98689286D01*
X128392856Y-98689286D01*
X130178570Y-97903571D02*
X130464284Y-97903571D01*
X130607142Y-97975000D01*
X130749999Y-98117857D01*
X130821427Y-98403571D01*
X130821427Y-98903571D01*
X130749999Y-99189286D01*
X130607142Y-99332143D01*
X130464284Y-99403571D01*
X130178570Y-99403571D01*
X130035713Y-99332143D01*
X129892856Y-99189286D01*
X129821427Y-98903571D01*
X129821427Y-98403571D01*
X129892856Y-98117857D01*
X130035713Y-97975000D01*
X130178570Y-97903571D01*
X131464285Y-97903571D02*
X131464285Y-99117857D01*
X131535713Y-99260714D01*
X131607142Y-99332143D01*
X131749999Y-99403571D01*
X132035713Y-99403571D01*
X132178571Y-99332143D01*
X132249999Y-99260714D01*
X132321428Y-99117857D01*
X132321428Y-97903571D01*
X132821428Y-97903571D02*
X133678571Y-97903571D01*
X133250000Y-99403571D02*
X133250000Y-97903571D01*
X134178571Y-98617857D02*
X134678571Y-98617857D01*
X134892857Y-99403571D02*
X134178571Y-99403571D01*
X134178571Y-97903571D01*
X134892857Y-97903571D01*
X137178571Y-98617857D02*
X137392857Y-98689286D01*
X137464285Y-98760714D01*
X137535714Y-98903571D01*
X137535714Y-99117857D01*
X137464285Y-99260714D01*
X137392857Y-99332143D01*
X137249999Y-99403571D01*
X136678571Y-99403571D01*
X136678571Y-97903571D01*
X137178571Y-97903571D01*
X137321428Y-97975000D01*
X137392857Y-98046429D01*
X137464285Y-98189286D01*
X137464285Y-98332143D01*
X137392857Y-98475000D01*
X137321428Y-98546429D01*
X137178571Y-98617857D01*
X136678571Y-98617857D01*
X138464285Y-97903571D02*
X138749999Y-97903571D01*
X138892857Y-97975000D01*
X139035714Y-98117857D01*
X139107142Y-98403571D01*
X139107142Y-98903571D01*
X139035714Y-99189286D01*
X138892857Y-99332143D01*
X138749999Y-99403571D01*
X138464285Y-99403571D01*
X138321428Y-99332143D01*
X138178571Y-99189286D01*
X138107142Y-98903571D01*
X138107142Y-98403571D01*
X138178571Y-98117857D01*
X138321428Y-97975000D01*
X138464285Y-97903571D01*
X139678571Y-98975000D02*
X140392857Y-98975000D01*
X139535714Y-99403571D02*
X140035714Y-97903571D01*
X140535714Y-99403571D01*
X141892857Y-99403571D02*
X141392857Y-98689286D01*
X141035714Y-99403571D02*
X141035714Y-97903571D01*
X141607142Y-97903571D01*
X141750000Y-97975000D01*
X141821428Y-98046429D01*
X141892857Y-98189286D01*
X141892857Y-98403571D01*
X141821428Y-98546429D01*
X141750000Y-98617857D01*
X141607142Y-98689286D01*
X141035714Y-98689286D01*
X142535714Y-99403571D02*
X142535714Y-97903571D01*
X142892857Y-97903571D01*
X143107142Y-97975000D01*
X143250000Y-98117857D01*
X143321428Y-98260714D01*
X143392857Y-98546429D01*
X143392857Y-98760714D01*
X143321428Y-99046429D01*
X143250000Y-99189286D01*
X143107142Y-99332143D01*
X142892857Y-99403571D01*
X142535714Y-99403571D01*
X145464285Y-97903571D02*
X145749999Y-97903571D01*
X145892857Y-97975000D01*
X146035714Y-98117857D01*
X146107142Y-98403571D01*
X146107142Y-98903571D01*
X146035714Y-99189286D01*
X145892857Y-99332143D01*
X145749999Y-99403571D01*
X145464285Y-99403571D01*
X145321428Y-99332143D01*
X145178571Y-99189286D01*
X145107142Y-98903571D01*
X145107142Y-98403571D01*
X145178571Y-98117857D01*
X145321428Y-97975000D01*
X145464285Y-97903571D01*
X146750000Y-97903571D02*
X146750000Y-99117857D01*
X146821428Y-99260714D01*
X146892857Y-99332143D01*
X147035714Y-99403571D01*
X147321428Y-99403571D01*
X147464286Y-99332143D01*
X147535714Y-99260714D01*
X147607143Y-99117857D01*
X147607143Y-97903571D01*
X148107143Y-97903571D02*
X148964286Y-97903571D01*
X148535715Y-99403571D02*
X148535715Y-97903571D01*
X150178572Y-99403571D02*
X149464286Y-99403571D01*
X149464286Y-97903571D01*
X150678572Y-99403571D02*
X150678572Y-97903571D01*
X151392858Y-99403571D02*
X151392858Y-97903571D01*
X152250001Y-99403571D01*
X152250001Y-97903571D01*
X152964287Y-98617857D02*
X153464287Y-98617857D01*
X153678573Y-99403571D02*
X152964287Y-99403571D01*
X152964287Y-97903571D01*
X153678573Y-97903571D01*
X128178572Y-101167857D02*
X128678572Y-101167857D01*
X128892858Y-101953571D02*
X128178572Y-101953571D01*
X128178572Y-100453571D01*
X128892858Y-100453571D01*
X129392858Y-100453571D02*
X130392858Y-101953571D01*
X130392858Y-100453571D02*
X129392858Y-101953571D01*
X131821429Y-101810714D02*
X131750000Y-101882143D01*
X131535714Y-101953571D01*
X131392857Y-101953571D01*
X131178572Y-101882143D01*
X131035714Y-101739286D01*
X130964286Y-101596429D01*
X130892857Y-101310714D01*
X130892857Y-101096429D01*
X130964286Y-100810714D01*
X131035714Y-100667857D01*
X131178572Y-100525000D01*
X131392857Y-100453571D01*
X131535714Y-100453571D01*
X131750000Y-100525000D01*
X131821429Y-100596429D01*
X132464286Y-101167857D02*
X132964286Y-101167857D01*
X133178572Y-101953571D02*
X132464286Y-101953571D01*
X132464286Y-100453571D01*
X133178572Y-100453571D01*
X133821429Y-101953571D02*
X133821429Y-100453571D01*
X134392857Y-100453571D01*
X134535715Y-100525000D01*
X134607143Y-100596429D01*
X134678572Y-100739286D01*
X134678572Y-100953571D01*
X134607143Y-101096429D01*
X134535715Y-101167857D01*
X134392857Y-101239286D01*
X133821429Y-101239286D01*
X135107143Y-100453571D02*
X135964286Y-100453571D01*
X135535715Y-101953571D02*
X135535715Y-100453571D01*
X138107143Y-101167857D02*
X137607143Y-101167857D01*
X137607143Y-101953571D02*
X137607143Y-100453571D01*
X138321429Y-100453571D01*
X139178571Y-100453571D02*
X139464285Y-100453571D01*
X139607143Y-100525000D01*
X139750000Y-100667857D01*
X139821428Y-100953571D01*
X139821428Y-101453571D01*
X139750000Y-101739286D01*
X139607143Y-101882143D01*
X139464285Y-101953571D01*
X139178571Y-101953571D01*
X139035714Y-101882143D01*
X138892857Y-101739286D01*
X138821428Y-101453571D01*
X138821428Y-100953571D01*
X138892857Y-100667857D01*
X139035714Y-100525000D01*
X139178571Y-100453571D01*
X141321429Y-101953571D02*
X140821429Y-101239286D01*
X140464286Y-101953571D02*
X140464286Y-100453571D01*
X141035714Y-100453571D01*
X141178572Y-100525000D01*
X141250000Y-100596429D01*
X141321429Y-100739286D01*
X141321429Y-100953571D01*
X141250000Y-101096429D01*
X141178572Y-101167857D01*
X141035714Y-101239286D01*
X140464286Y-101239286D01*
X142892857Y-100453571D02*
X143750000Y-100453571D01*
X143321429Y-101953571D02*
X143321429Y-100453571D01*
X144107143Y-100453571D02*
X144464286Y-101953571D01*
X144750000Y-100882143D01*
X145035714Y-101953571D01*
X145392857Y-100453571D01*
X146250000Y-100453571D02*
X146535714Y-100453571D01*
X146678572Y-100525000D01*
X146821429Y-100667857D01*
X146892857Y-100953571D01*
X146892857Y-101453571D01*
X146821429Y-101739286D01*
X146678572Y-101882143D01*
X146535714Y-101953571D01*
X146250000Y-101953571D01*
X146107143Y-101882143D01*
X145964286Y-101739286D01*
X145892857Y-101453571D01*
X145892857Y-100953571D01*
X145964286Y-100667857D01*
X146107143Y-100525000D01*
X146250000Y-100453571D01*
X148678572Y-101167857D02*
X149178572Y-101167857D01*
X149392858Y-101953571D02*
X148678572Y-101953571D01*
X148678572Y-100453571D01*
X149392858Y-100453571D01*
X150035715Y-101953571D02*
X150035715Y-100453571D01*
X150892858Y-101953571D01*
X150892858Y-100453571D01*
X151607144Y-101953571D02*
X151607144Y-100453571D01*
X151964287Y-100453571D01*
X152178572Y-100525000D01*
X152321430Y-100667857D01*
X152392858Y-100810714D01*
X152464287Y-101096429D01*
X152464287Y-101310714D01*
X152392858Y-101596429D01*
X152321430Y-101739286D01*
X152178572Y-101882143D01*
X151964287Y-101953571D01*
X151607144Y-101953571D01*
X153035715Y-101882143D02*
X153250001Y-101953571D01*
X153607144Y-101953571D01*
X153750001Y-101882143D01*
X153821430Y-101810714D01*
X153892858Y-101667857D01*
X153892858Y-101525000D01*
X153821430Y-101382143D01*
X153750001Y-101310714D01*
X153607144Y-101239286D01*
X153321430Y-101167857D01*
X153178572Y-101096429D01*
X153107144Y-101025000D01*
X153035715Y-100882143D01*
X153035715Y-100739286D01*
X153107144Y-100596429D01*
X153178572Y-100525000D01*
X153321430Y-100453571D01*
X153678572Y-100453571D01*
X153892858Y-100525000D01*
D11*
X139000000Y-71000000D02*
X140000000Y-70000000D01*
X139000000Y-71000000D02*
X138000000Y-70000000D01*
X139000000Y-53000000D02*
X139000000Y-71000000D01*
X133000000Y-47000000D02*
X139000000Y-53000000D01*
X70000000Y-47000000D02*
X133000000Y-47000000D01*
D12*
X72535714Y-44178571D02*
X73035714Y-45678571D01*
X73535714Y-44178571D01*
X74035714Y-45107143D02*
X75178571Y-45107143D01*
X75821428Y-45607143D02*
X76035714Y-45678571D01*
X76392857Y-45678571D01*
X76535714Y-45607143D01*
X76607143Y-45535714D01*
X76678571Y-45392857D01*
X76678571Y-45250000D01*
X76607143Y-45107143D01*
X76535714Y-45035714D01*
X76392857Y-44964286D01*
X76107143Y-44892857D01*
X75964285Y-44821429D01*
X75892857Y-44750000D01*
X75821428Y-44607143D01*
X75821428Y-44464286D01*
X75892857Y-44321429D01*
X75964285Y-44250000D01*
X76107143Y-44178571D01*
X76464285Y-44178571D01*
X76678571Y-44250000D01*
X78178571Y-45535714D02*
X78107142Y-45607143D01*
X77892856Y-45678571D01*
X77749999Y-45678571D01*
X77535714Y-45607143D01*
X77392856Y-45464286D01*
X77321428Y-45321429D01*
X77249999Y-45035714D01*
X77249999Y-44821429D01*
X77321428Y-44535714D01*
X77392856Y-44392857D01*
X77535714Y-44250000D01*
X77749999Y-44178571D01*
X77892856Y-44178571D01*
X78107142Y-44250000D01*
X78178571Y-44321429D01*
X79107142Y-44178571D02*
X79392856Y-44178571D01*
X79535714Y-44250000D01*
X79678571Y-44392857D01*
X79749999Y-44678571D01*
X79749999Y-45178571D01*
X79678571Y-45464286D01*
X79535714Y-45607143D01*
X79392856Y-45678571D01*
X79107142Y-45678571D01*
X78964285Y-45607143D01*
X78821428Y-45464286D01*
X78749999Y-45178571D01*
X78749999Y-44678571D01*
X78821428Y-44392857D01*
X78964285Y-44250000D01*
X79107142Y-44178571D01*
X81250000Y-45678571D02*
X80750000Y-44964286D01*
X80392857Y-45678571D02*
X80392857Y-44178571D01*
X80964285Y-44178571D01*
X81107143Y-44250000D01*
X81178571Y-44321429D01*
X81250000Y-44464286D01*
X81250000Y-44678571D01*
X81178571Y-44821429D01*
X81107143Y-44892857D01*
X80964285Y-44964286D01*
X80392857Y-44964286D01*
X81892857Y-44892857D02*
X82392857Y-44892857D01*
X82607143Y-45678571D02*
X81892857Y-45678571D01*
X81892857Y-44178571D01*
X82607143Y-44178571D01*
X84392857Y-45678571D02*
X84392857Y-44178571D01*
X84964285Y-44178571D01*
X85107143Y-44250000D01*
X85178571Y-44321429D01*
X85250000Y-44464286D01*
X85250000Y-44678571D01*
X85178571Y-44821429D01*
X85107143Y-44892857D01*
X84964285Y-44964286D01*
X84392857Y-44964286D01*
X85821428Y-45250000D02*
X86535714Y-45250000D01*
X85678571Y-45678571D02*
X86178571Y-44178571D01*
X86678571Y-45678571D01*
X88035714Y-45678571D02*
X87535714Y-44964286D01*
X87178571Y-45678571D02*
X87178571Y-44178571D01*
X87749999Y-44178571D01*
X87892857Y-44250000D01*
X87964285Y-44321429D01*
X88035714Y-44464286D01*
X88035714Y-44678571D01*
X87964285Y-44821429D01*
X87892857Y-44892857D01*
X87749999Y-44964286D01*
X87178571Y-44964286D01*
X88607142Y-45250000D02*
X89321428Y-45250000D01*
X88464285Y-45678571D02*
X88964285Y-44178571D01*
X89464285Y-45678571D01*
X90678571Y-45678571D02*
X89964285Y-45678571D01*
X89964285Y-44178571D01*
X91892857Y-45678571D02*
X91178571Y-45678571D01*
X91178571Y-44178571D01*
X92392857Y-44892857D02*
X92892857Y-44892857D01*
X93107143Y-45678571D02*
X92392857Y-45678571D01*
X92392857Y-44178571D01*
X93107143Y-44178571D01*
X94464286Y-45678571D02*
X93750000Y-45678571D01*
X93750000Y-44178571D01*
X96107143Y-44892857D02*
X96607143Y-44892857D01*
X96821429Y-45678571D02*
X96107143Y-45678571D01*
X96107143Y-44178571D01*
X96821429Y-44178571D01*
X97464286Y-45678571D02*
X97464286Y-44178571D01*
X98321429Y-45678571D01*
X98321429Y-44178571D01*
X99035715Y-45678571D02*
X99035715Y-44178571D01*
X99392858Y-44178571D01*
X99607143Y-44250000D01*
X99750001Y-44392857D01*
X99821429Y-44535714D01*
X99892858Y-44821429D01*
X99892858Y-45035714D01*
X99821429Y-45321429D01*
X99750001Y-45464286D01*
X99607143Y-45607143D01*
X99392858Y-45678571D01*
X99035715Y-45678571D01*
X100464286Y-45607143D02*
X100678572Y-45678571D01*
X101035715Y-45678571D01*
X101178572Y-45607143D01*
X101250001Y-45535714D01*
X101321429Y-45392857D01*
X101321429Y-45250000D01*
X101250001Y-45107143D01*
X101178572Y-45035714D01*
X101035715Y-44964286D01*
X100750001Y-44892857D01*
X100607143Y-44821429D01*
X100535715Y-44750000D01*
X100464286Y-44607143D01*
X100464286Y-44464286D01*
X100535715Y-44321429D01*
X100607143Y-44250000D01*
X100750001Y-44178571D01*
X101107143Y-44178571D01*
X101321429Y-44250000D01*
M02*
