G04 #@! TF.FileFunction,Legend,Bot*
%FSLAX46Y46*%
G04 Gerber Fmt 4.6, Leading zero omitted, Abs format (unit mm)*
G04 Created by KiCad (PCBNEW 4.0.5-e0-6337~49~ubuntu14.04.1) date Wed May 17 08:50:27 2017*
%MOMM*%
%LPD*%
G01*
G04 APERTURE LIST*
%ADD10C,0.100000*%
%ADD11C,0.140000*%
%ADD12C,0.150000*%
G04 APERTURE END LIST*
D10*
D11*
X131845889Y-82978800D02*
X132138261Y-82022495D01*
X131390506Y-82839575D02*
X131682878Y-81883271D01*
X131455187Y-81813658D01*
X131304648Y-81817429D01*
X131185727Y-81880661D01*
X131112344Y-81957815D01*
X131011116Y-82126046D01*
X130969348Y-82262661D01*
X130959196Y-82458737D01*
X130976890Y-82563736D01*
X131040121Y-82682657D01*
X131162815Y-82769963D01*
X131390506Y-82839575D01*
D12*
X113505732Y-75821795D02*
X115230896Y-79207620D01*
X115230896Y-79207620D02*
X104494268Y-84678205D01*
X104494268Y-84678205D02*
X102769104Y-81292380D01*
X102769104Y-81292380D02*
X113505732Y-75821795D01*
X137809010Y-90277996D02*
X135122004Y-87590990D01*
X135122004Y-87590990D02*
X140990990Y-81722004D01*
X140990990Y-81722004D02*
X143677996Y-84409010D01*
X143677996Y-84409010D02*
X137809010Y-90277996D01*
D10*
X124823607Y-67800000D02*
G75*
G03X124823607Y-67800000I-223607J0D01*
G01*
X129500000Y-66500000D02*
X129500000Y-72500000D01*
X123500000Y-66500000D02*
X129500000Y-66500000D01*
X123500000Y-72500000D02*
X123500000Y-66500000D01*
X129500000Y-72500000D02*
X123500000Y-72500000D01*
D12*
X128100000Y-70900000D02*
X124900000Y-70900000D01*
X124900000Y-70900000D02*
X124900000Y-68100000D01*
X124900000Y-68100000D02*
X128100000Y-68100000D01*
X128100000Y-68100000D02*
X128100000Y-70900000D01*
X122300000Y-83000000D02*
X122300000Y-81600000D01*
X120400000Y-83000000D02*
X117700000Y-83000000D01*
X117700000Y-83000000D02*
X117700000Y-81600000D01*
X117700000Y-81600000D02*
X120400000Y-81600000D01*
X143677996Y-78590990D02*
X140990990Y-81277996D01*
X140990990Y-81277996D02*
X135122004Y-75409010D01*
X135122004Y-75409010D02*
X137809010Y-72722004D01*
X137809010Y-72722004D02*
X143677996Y-78590990D01*
X133100000Y-77900000D02*
X133100000Y-76900000D01*
X133100000Y-76900000D02*
X131100000Y-76900000D01*
X131100000Y-76900000D02*
X131100000Y-77900000D01*
X131100000Y-77900000D02*
X133100000Y-77900000D01*
X127106747Y-84654851D02*
X127837677Y-82264089D01*
X127837677Y-82264089D02*
X134531810Y-84310691D01*
X134531810Y-84310691D02*
X133800881Y-86701453D01*
X133800881Y-86701453D02*
X127106747Y-84654851D01*
D10*
X126750000Y-75568019D02*
G75*
G03X126750000Y-75568019I-250000J0D01*
G01*
X129328427Y-78750000D02*
X126500000Y-75921573D01*
X126500000Y-81578427D02*
X129328427Y-78750000D01*
X123671573Y-78750000D02*
X126500000Y-81578427D01*
X126500000Y-75921573D02*
X123671573Y-78750000D01*
X124400000Y-74800000D02*
G75*
G03X124400000Y-74800000I-200000J0D01*
G01*
X124000000Y-73400000D02*
X122000000Y-73400000D01*
X124000000Y-74600000D02*
X124000000Y-73400000D01*
X122000000Y-74600000D02*
X124000000Y-74600000D01*
X122000000Y-73400000D02*
X122000000Y-74600000D01*
X134000000Y-73300000D02*
G75*
G03X134000000Y-73300000I-200000J0D01*
G01*
X133600000Y-71900000D02*
X131600000Y-71900000D01*
X133600000Y-73100000D02*
X133600000Y-71900000D01*
X131600000Y-73100000D02*
X133600000Y-73100000D01*
X131600000Y-71900000D02*
X131600000Y-73100000D01*
D12*
X91842342Y-89719382D02*
G75*
G03X93653806Y-91472182I2589281J863495D01*
G01*
X97330761Y-87795227D02*
X93653806Y-91472182D01*
M02*
