G04 #@! TF.FileFunction,Legend,Top*
%FSLAX46Y46*%
G04 Gerber Fmt 4.6, Leading zero omitted, Abs format (unit mm)*
G04 Created by KiCad (PCBNEW 4.0.7-e2-6376~58~ubuntu14.04.1) date Mon Aug  6 16:33:39 2018*
%MOMM*%
%LPD*%
G01*
G04 APERTURE LIST*
%ADD10C,0.100000*%
%ADD11C,0.140000*%
G04 APERTURE END LIST*
D10*
D11*
X115720833Y-81852381D02*
X116292262Y-81852381D01*
X115881547Y-82852381D02*
X116006547Y-81852381D01*
X116816071Y-81852381D02*
X117006548Y-81852381D01*
X117095834Y-81900000D01*
X117179167Y-81995238D01*
X117202977Y-82185714D01*
X117161310Y-82519048D01*
X117089882Y-82709524D01*
X116982739Y-82804762D01*
X116881548Y-82852381D01*
X116691071Y-82852381D01*
X116601786Y-82804762D01*
X116518453Y-82709524D01*
X116494643Y-82519048D01*
X116536310Y-82185714D01*
X116607738Y-81995238D01*
X116714881Y-81900000D01*
X116816071Y-81852381D01*
X117673214Y-81852381D02*
X117572024Y-82661905D01*
X117607738Y-82757143D01*
X117649405Y-82804762D01*
X117738690Y-82852381D01*
X117929167Y-82852381D01*
X118030358Y-82804762D01*
X118083929Y-82757143D01*
X118143453Y-82661905D01*
X118244643Y-81852381D01*
X119179167Y-82757143D02*
X119125596Y-82804762D01*
X118976786Y-82852381D01*
X118881548Y-82852381D01*
X118744643Y-82804762D01*
X118661310Y-82709524D01*
X118625595Y-82614286D01*
X118601786Y-82423810D01*
X118619643Y-82280952D01*
X118691072Y-82090476D01*
X118750595Y-81995238D01*
X118857738Y-81900000D01*
X119006548Y-81852381D01*
X119101786Y-81852381D01*
X119238691Y-81900000D01*
X119280358Y-81947619D01*
X119595833Y-82852381D02*
X119720833Y-81852381D01*
X119661310Y-82328571D02*
X120232739Y-82328571D01*
X120167262Y-82852381D02*
X120292262Y-81852381D01*
X121363691Y-82804762D02*
X121500595Y-82852381D01*
X121738691Y-82852381D01*
X121839882Y-82804762D01*
X121893453Y-82757143D01*
X121952977Y-82661905D01*
X121964882Y-82566667D01*
X121929167Y-82471429D01*
X121887501Y-82423810D01*
X121798215Y-82376190D01*
X121613691Y-82328571D01*
X121524405Y-82280952D01*
X121482738Y-82233333D01*
X121447024Y-82138095D01*
X121458929Y-82042857D01*
X121518453Y-81947619D01*
X121572024Y-81900000D01*
X121673214Y-81852381D01*
X121911310Y-81852381D01*
X122048215Y-81900000D01*
X122423215Y-82328571D02*
X122756549Y-82328571D01*
X122833929Y-82852381D02*
X122357738Y-82852381D01*
X122482738Y-81852381D01*
X122958929Y-81852381D01*
X123262500Y-82852381D02*
X123387500Y-81852381D01*
X123833929Y-82852381D01*
X123958929Y-81852381D01*
X124268453Y-82804762D02*
X124405357Y-82852381D01*
X124643453Y-82852381D01*
X124744644Y-82804762D01*
X124798215Y-82757143D01*
X124857739Y-82661905D01*
X124869644Y-82566667D01*
X124833929Y-82471429D01*
X124792263Y-82423810D01*
X124702977Y-82376190D01*
X124518453Y-82328571D01*
X124429167Y-82280952D01*
X124387500Y-82233333D01*
X124351786Y-82138095D01*
X124363691Y-82042857D01*
X124423215Y-81947619D01*
X124476786Y-81900000D01*
X124577976Y-81852381D01*
X124816072Y-81852381D01*
X124952977Y-81900000D01*
X125577976Y-81852381D02*
X125768453Y-81852381D01*
X125857739Y-81900000D01*
X125941072Y-81995238D01*
X125964882Y-82185714D01*
X125923215Y-82519048D01*
X125851787Y-82709524D01*
X125744644Y-82804762D01*
X125643453Y-82852381D01*
X125452976Y-82852381D01*
X125363691Y-82804762D01*
X125280358Y-82709524D01*
X125256548Y-82519048D01*
X125298215Y-82185714D01*
X125369643Y-81995238D01*
X125476786Y-81900000D01*
X125577976Y-81852381D01*
X126881548Y-82852381D02*
X126607738Y-82376190D01*
X126310119Y-82852381D02*
X126435119Y-81852381D01*
X126816072Y-81852381D01*
X126905358Y-81900000D01*
X126947025Y-81947619D01*
X126982739Y-82042857D01*
X126964882Y-82185714D01*
X126905358Y-82280952D01*
X126851787Y-82328571D01*
X126750596Y-82376190D01*
X126369643Y-82376190D01*
X127560119Y-82376190D02*
X127500595Y-82852381D01*
X127292262Y-81852381D02*
X127560119Y-82376190D01*
X127958929Y-81852381D01*
X128929167Y-82852381D02*
X129054167Y-81852381D01*
X129500596Y-82852381D01*
X129625596Y-81852381D01*
X130042263Y-82328571D02*
X130375597Y-82328571D01*
X130452977Y-82852381D02*
X129976786Y-82852381D01*
X130101786Y-81852381D01*
X130577977Y-81852381D01*
X131006548Y-81852381D02*
X130905358Y-82661905D01*
X130941072Y-82757143D01*
X130982739Y-82804762D01*
X131072024Y-82852381D01*
X131262501Y-82852381D01*
X131363692Y-82804762D01*
X131417263Y-82757143D01*
X131476787Y-82661905D01*
X131577977Y-81852381D01*
X132500596Y-82852381D02*
X132226786Y-82376190D01*
X131929167Y-82852381D02*
X132054167Y-81852381D01*
X132435120Y-81852381D01*
X132524406Y-81900000D01*
X132566073Y-81947619D01*
X132601787Y-82042857D01*
X132583930Y-82185714D01*
X132524406Y-82280952D01*
X132470835Y-82328571D01*
X132369644Y-82376190D01*
X131988691Y-82376190D01*
X133244643Y-81852381D02*
X133435120Y-81852381D01*
X133524406Y-81900000D01*
X133607739Y-81995238D01*
X133631549Y-82185714D01*
X133589882Y-82519048D01*
X133518454Y-82709524D01*
X133411311Y-82804762D01*
X133310120Y-82852381D01*
X133119643Y-82852381D01*
X133030358Y-82804762D01*
X132947025Y-82709524D01*
X132923215Y-82519048D01*
X132964882Y-82185714D01*
X133036310Y-81995238D01*
X133143453Y-81900000D01*
X133244643Y-81852381D01*
X133976786Y-82852381D02*
X134101786Y-81852381D01*
X134548215Y-82852381D01*
X134673215Y-81852381D01*
X119438095Y-83685714D02*
X119438095Y-84352381D01*
X119438095Y-83780952D02*
X119485714Y-83733333D01*
X119580952Y-83685714D01*
X119723810Y-83685714D01*
X119819048Y-83733333D01*
X119866667Y-83828571D01*
X119866667Y-84352381D01*
X120723810Y-84304762D02*
X120628572Y-84352381D01*
X120438095Y-84352381D01*
X120342857Y-84304762D01*
X120295238Y-84209524D01*
X120295238Y-83828571D01*
X120342857Y-83733333D01*
X120438095Y-83685714D01*
X120628572Y-83685714D01*
X120723810Y-83733333D01*
X120771429Y-83828571D01*
X120771429Y-83923810D01*
X120295238Y-84019048D01*
X121628572Y-83685714D02*
X121628572Y-84352381D01*
X121200000Y-83685714D02*
X121200000Y-84209524D01*
X121247619Y-84304762D01*
X121342857Y-84352381D01*
X121485715Y-84352381D01*
X121580953Y-84304762D01*
X121628572Y-84257143D01*
X122104762Y-84352381D02*
X122104762Y-83685714D01*
X122104762Y-83876190D02*
X122152381Y-83780952D01*
X122200000Y-83733333D01*
X122295238Y-83685714D01*
X122390477Y-83685714D01*
X122866667Y-84352381D02*
X122771429Y-84304762D01*
X122723810Y-84257143D01*
X122676191Y-84161905D01*
X122676191Y-83876190D01*
X122723810Y-83780952D01*
X122771429Y-83733333D01*
X122866667Y-83685714D01*
X123009525Y-83685714D01*
X123104763Y-83733333D01*
X123152382Y-83780952D01*
X123200001Y-83876190D01*
X123200001Y-84161905D01*
X123152382Y-84257143D01*
X123104763Y-84304762D01*
X123009525Y-84352381D01*
X122866667Y-84352381D01*
X123485715Y-83685714D02*
X123866667Y-83685714D01*
X123628572Y-83352381D02*
X123628572Y-84209524D01*
X123676191Y-84304762D01*
X123771429Y-84352381D01*
X123866667Y-84352381D01*
X124200001Y-84352381D02*
X124200001Y-83685714D01*
X124200001Y-83352381D02*
X124152382Y-83400000D01*
X124200001Y-83447619D01*
X124247620Y-83400000D01*
X124200001Y-83352381D01*
X124200001Y-83447619D01*
X124676191Y-83685714D02*
X124676191Y-84352381D01*
X124676191Y-83780952D02*
X124723810Y-83733333D01*
X124819048Y-83685714D01*
X124961906Y-83685714D01*
X125057144Y-83733333D01*
X125104763Y-83828571D01*
X125104763Y-84352381D01*
X125580953Y-84352381D02*
X125580953Y-83352381D01*
X125676191Y-83971429D02*
X125961906Y-84352381D01*
X125961906Y-83685714D02*
X125580953Y-84066667D01*
X126771430Y-84304762D02*
X126676192Y-84352381D01*
X126485715Y-84352381D01*
X126390477Y-84304762D01*
X126342858Y-84209524D01*
X126342858Y-83828571D01*
X126390477Y-83733333D01*
X126485715Y-83685714D01*
X126676192Y-83685714D01*
X126771430Y-83733333D01*
X126819049Y-83828571D01*
X126819049Y-83923810D01*
X126342858Y-84019048D01*
X127247620Y-84352381D02*
X127247620Y-83685714D01*
X127247620Y-83876190D02*
X127295239Y-83780952D01*
X127342858Y-83733333D01*
X127438096Y-83685714D01*
X127533335Y-83685714D01*
X127866668Y-84257143D02*
X127914287Y-84304762D01*
X127866668Y-84352381D01*
X127819049Y-84304762D01*
X127866668Y-84257143D01*
X127866668Y-84352381D01*
X128771430Y-84304762D02*
X128676192Y-84352381D01*
X128485715Y-84352381D01*
X128390477Y-84304762D01*
X128342858Y-84257143D01*
X128295239Y-84161905D01*
X128295239Y-83876190D01*
X128342858Y-83780952D01*
X128390477Y-83733333D01*
X128485715Y-83685714D01*
X128676192Y-83685714D01*
X128771430Y-83733333D01*
X129342858Y-84352381D02*
X129247620Y-84304762D01*
X129200001Y-84257143D01*
X129152382Y-84161905D01*
X129152382Y-83876190D01*
X129200001Y-83780952D01*
X129247620Y-83733333D01*
X129342858Y-83685714D01*
X129485716Y-83685714D01*
X129580954Y-83733333D01*
X129628573Y-83780952D01*
X129676192Y-83876190D01*
X129676192Y-84161905D01*
X129628573Y-84257143D01*
X129580954Y-84304762D01*
X129485716Y-84352381D01*
X129342858Y-84352381D01*
X130104763Y-84352381D02*
X130104763Y-83685714D01*
X130104763Y-83780952D02*
X130152382Y-83733333D01*
X130247620Y-83685714D01*
X130390478Y-83685714D01*
X130485716Y-83733333D01*
X130533335Y-83828571D01*
X130533335Y-84352381D01*
X130533335Y-83828571D02*
X130580954Y-83733333D01*
X130676192Y-83685714D01*
X130819049Y-83685714D01*
X130914287Y-83733333D01*
X130961906Y-83828571D01*
X130961906Y-84352381D01*
M02*
