G04 #@! TF.FileFunction,Drawing*
%FSLAX46Y46*%
G04 Gerber Fmt 4.6, Leading zero omitted, Abs format (unit mm)*
G04 Created by KiCad (PCBNEW 4.0.7-e2-6376~58~ubuntu14.04.1) date Wed May 23 17:45:24 2018*
%MOMM*%
%LPD*%
G01*
G04 APERTURE LIST*
%ADD10C,0.100000*%
%ADD11C,0.200000*%
%ADD12C,0.300000*%
G04 APERTURE END LIST*
D10*
D11*
X82000000Y-97000000D02*
X81000000Y-98000000D01*
X81000000Y-96000000D02*
X82000000Y-97000000D01*
X82000000Y-97000000D02*
X81000000Y-96000000D01*
X45000000Y-97000000D02*
X82000000Y-97000000D01*
D12*
X45892857Y-96107143D02*
X46107143Y-96178571D01*
X46464286Y-96178571D01*
X46607143Y-96107143D01*
X46678572Y-96035714D01*
X46750000Y-95892857D01*
X46750000Y-95750000D01*
X46678572Y-95607143D01*
X46607143Y-95535714D01*
X46464286Y-95464286D01*
X46178572Y-95392857D01*
X46035714Y-95321429D01*
X45964286Y-95250000D01*
X45892857Y-95107143D01*
X45892857Y-94964286D01*
X45964286Y-94821429D01*
X46035714Y-94750000D01*
X46178572Y-94678571D01*
X46535714Y-94678571D01*
X46750000Y-94750000D01*
X47250000Y-94678571D02*
X47607143Y-96178571D01*
X47892857Y-95107143D01*
X48178571Y-96178571D01*
X48535714Y-94678571D01*
X49035714Y-94821429D02*
X49107143Y-94750000D01*
X49250000Y-94678571D01*
X49607143Y-94678571D01*
X49750000Y-94750000D01*
X49821429Y-94821429D01*
X49892857Y-94964286D01*
X49892857Y-95107143D01*
X49821429Y-95321429D01*
X48964286Y-96178571D01*
X49892857Y-96178571D01*
X52107142Y-96750000D02*
X52035714Y-96678571D01*
X51892857Y-96464286D01*
X51821428Y-96321429D01*
X51749999Y-96107143D01*
X51678571Y-95750000D01*
X51678571Y-95464286D01*
X51749999Y-95107143D01*
X51821428Y-94892857D01*
X51892857Y-94750000D01*
X52035714Y-94535714D01*
X52107142Y-94464286D01*
X52678571Y-96178571D02*
X52678571Y-94678571D01*
X52678571Y-95392857D02*
X53535714Y-95392857D01*
X53535714Y-96178571D02*
X53535714Y-94678571D01*
X54535714Y-94678571D02*
X54821428Y-94678571D01*
X54964286Y-94750000D01*
X55107143Y-94892857D01*
X55178571Y-95178571D01*
X55178571Y-95678571D01*
X55107143Y-95964286D01*
X54964286Y-96107143D01*
X54821428Y-96178571D01*
X54535714Y-96178571D01*
X54392857Y-96107143D01*
X54250000Y-95964286D01*
X54178571Y-95678571D01*
X54178571Y-95178571D01*
X54250000Y-94892857D01*
X54392857Y-94750000D01*
X54535714Y-94678571D01*
X56678572Y-96178571D02*
X56178572Y-95464286D01*
X55821429Y-96178571D02*
X55821429Y-94678571D01*
X56392857Y-94678571D01*
X56535715Y-94750000D01*
X56607143Y-94821429D01*
X56678572Y-94964286D01*
X56678572Y-95178571D01*
X56607143Y-95321429D01*
X56535715Y-95392857D01*
X56392857Y-95464286D01*
X55821429Y-95464286D01*
X57321429Y-96178571D02*
X57321429Y-94678571D01*
X57892858Y-94678571D02*
X58892858Y-94678571D01*
X57892858Y-96178571D01*
X58892858Y-96178571D01*
X59750000Y-94678571D02*
X60035714Y-94678571D01*
X60178572Y-94750000D01*
X60321429Y-94892857D01*
X60392857Y-95178571D01*
X60392857Y-95678571D01*
X60321429Y-95964286D01*
X60178572Y-96107143D01*
X60035714Y-96178571D01*
X59750000Y-96178571D01*
X59607143Y-96107143D01*
X59464286Y-95964286D01*
X59392857Y-95678571D01*
X59392857Y-95178571D01*
X59464286Y-94892857D01*
X59607143Y-94750000D01*
X59750000Y-94678571D01*
X61035715Y-96178571D02*
X61035715Y-94678571D01*
X61892858Y-96178571D01*
X61892858Y-94678571D01*
X62392858Y-94678571D02*
X63250001Y-94678571D01*
X62821430Y-96178571D02*
X62821430Y-94678571D01*
X63678572Y-95750000D02*
X64392858Y-95750000D01*
X63535715Y-96178571D02*
X64035715Y-94678571D01*
X64535715Y-96178571D01*
X65750001Y-96178571D02*
X65035715Y-96178571D01*
X65035715Y-94678571D01*
X67392858Y-96178571D02*
X67392858Y-94678571D01*
X67892858Y-95750000D01*
X68392858Y-94678571D01*
X68392858Y-96178571D01*
X68892858Y-94678571D02*
X69750001Y-94678571D01*
X69321430Y-96178571D02*
X69321430Y-94678571D01*
X71035715Y-94750000D02*
X70892858Y-94678571D01*
X70678572Y-94678571D01*
X70464287Y-94750000D01*
X70321429Y-94892857D01*
X70250001Y-95035714D01*
X70178572Y-95321429D01*
X70178572Y-95535714D01*
X70250001Y-95821429D01*
X70321429Y-95964286D01*
X70464287Y-96107143D01*
X70678572Y-96178571D01*
X70821429Y-96178571D01*
X71035715Y-96107143D01*
X71107144Y-96035714D01*
X71107144Y-95535714D01*
X70821429Y-95535714D01*
X71607144Y-96750000D02*
X71678572Y-96678571D01*
X71821429Y-96464286D01*
X71892858Y-96321429D01*
X71964287Y-96107143D01*
X72035715Y-95750000D01*
X72035715Y-95464286D01*
X71964287Y-95107143D01*
X71892858Y-94892857D01*
X71821429Y-94750000D01*
X71678572Y-94535714D01*
X71607144Y-94464286D01*
D11*
X93706226Y-93300000D02*
G75*
G03X93706226Y-93300000I-806226J0D01*
G01*
X98000000Y-97600000D02*
G75*
G03X98000000Y-97600000I-800000J0D01*
G01*
X91700000Y-89900000D02*
X100700000Y-98900000D01*
X83300000Y-93900000D02*
X83300000Y-93900000D01*
X89900000Y-100500000D02*
X83300000Y-93900000D01*
X83284158Y-93977397D02*
G75*
G03X88400000Y-99000000I4215842J-822603D01*
G01*
X91000000Y-100500000D02*
X89900000Y-100500000D01*
X92300000Y-100500000D02*
X91000000Y-100500000D01*
X95500000Y-103700000D02*
X92300000Y-100500000D01*
X95900000Y-103300000D02*
X95500000Y-103700000D01*
X92800000Y-100800000D02*
X93100000Y-100500000D01*
X93200000Y-101200000D02*
X92800000Y-100800000D01*
X93500000Y-100900000D02*
X93200000Y-101200000D01*
X87100000Y-94500000D02*
X96100000Y-103500000D01*
X91700000Y-89900000D02*
X87100000Y-94500000D01*
X100700000Y-98900000D02*
X96100000Y-103500000D01*
M02*
