G04 #@! TF.FileFunction,Other,Fab,Bot*
%FSLAX46Y46*%
G04 Gerber Fmt 4.6, Leading zero omitted, Abs format (unit mm)*
G04 Created by KiCad (PCBNEW 4.0.5-e0-6337~49~ubuntu14.04.1) date Wed May 17 08:50:27 2017*
%MOMM*%
%LPD*%
G01*
G04 APERTURE LIST*
%ADD10C,0.100000*%
%ADD11C,0.150000*%
G04 APERTURE END LIST*
D10*
D11*
X109287313Y-79851800D02*
X108833323Y-78960794D01*
X108493891Y-79133743D01*
X108430652Y-79219409D01*
X108409842Y-79283456D01*
X108410650Y-79389932D01*
X108475506Y-79517219D01*
X108561172Y-79580458D01*
X108625219Y-79601268D01*
X108731696Y-79600460D01*
X109071127Y-79427511D01*
X107929589Y-80543595D02*
X108438736Y-80284172D01*
X108184163Y-80413883D02*
X107730172Y-79522877D01*
X107879886Y-79606926D01*
X108007980Y-79648547D01*
X108114457Y-79647739D01*
X107179405Y-79910395D02*
X107115357Y-79889585D01*
X107008881Y-79890393D01*
X106796736Y-79998486D01*
X106733497Y-80084152D01*
X106712687Y-80148200D01*
X106713495Y-80254676D01*
X106756732Y-80339534D01*
X106864017Y-80445202D01*
X107632587Y-80694925D01*
X107081011Y-80975967D01*
X140138095Y-86452381D02*
X140138095Y-85452381D01*
X139757142Y-85452381D01*
X139661904Y-85500000D01*
X139614285Y-85547619D01*
X139566666Y-85642857D01*
X139566666Y-85785714D01*
X139614285Y-85880952D01*
X139661904Y-85928571D01*
X139757142Y-85976190D01*
X140138095Y-85976190D01*
X139233333Y-85452381D02*
X138566666Y-85452381D01*
X138995238Y-86452381D01*
X127238095Y-67652381D02*
X127238095Y-66652381D01*
X127000000Y-66652381D01*
X126857142Y-66700000D01*
X126761904Y-66795238D01*
X126714285Y-66890476D01*
X126666666Y-67080952D01*
X126666666Y-67223810D01*
X126714285Y-67414286D01*
X126761904Y-67509524D01*
X126857142Y-67604762D01*
X127000000Y-67652381D01*
X127238095Y-67652381D01*
X125714285Y-67652381D02*
X126285714Y-67652381D01*
X126000000Y-67652381D02*
X126000000Y-66652381D01*
X126095238Y-66795238D01*
X126190476Y-66890476D01*
X126285714Y-66938095D01*
X102166666Y-85857143D02*
X102214285Y-85904762D01*
X102357142Y-85952381D01*
X102452380Y-85952381D01*
X102595238Y-85904762D01*
X102690476Y-85809524D01*
X102738095Y-85714286D01*
X102785714Y-85523810D01*
X102785714Y-85380952D01*
X102738095Y-85190476D01*
X102690476Y-85095238D01*
X102595238Y-85000000D01*
X102452380Y-84952381D01*
X102357142Y-84952381D01*
X102214285Y-85000000D01*
X102166666Y-85047619D01*
X101214285Y-85952381D02*
X101785714Y-85952381D01*
X101500000Y-85952381D02*
X101500000Y-84952381D01*
X101595238Y-85095238D01*
X101690476Y-85190476D01*
X101785714Y-85238095D01*
X120166666Y-84357143D02*
X120214285Y-84404762D01*
X120357142Y-84452381D01*
X120452380Y-84452381D01*
X120595238Y-84404762D01*
X120690476Y-84309524D01*
X120738095Y-84214286D01*
X120785714Y-84023810D01*
X120785714Y-83880952D01*
X120738095Y-83690476D01*
X120690476Y-83595238D01*
X120595238Y-83500000D01*
X120452380Y-83452381D01*
X120357142Y-83452381D01*
X120214285Y-83500000D01*
X120166666Y-83547619D01*
X119785714Y-83547619D02*
X119738095Y-83500000D01*
X119642857Y-83452381D01*
X119404761Y-83452381D01*
X119309523Y-83500000D01*
X119261904Y-83547619D01*
X119214285Y-83642857D01*
X119214285Y-83738095D01*
X119261904Y-83880952D01*
X119833333Y-84452381D01*
X119214285Y-84452381D01*
X123666666Y-82857143D02*
X123714285Y-82904762D01*
X123857142Y-82952381D01*
X123952380Y-82952381D01*
X124095238Y-82904762D01*
X124190476Y-82809524D01*
X124238095Y-82714286D01*
X124285714Y-82523810D01*
X124285714Y-82380952D01*
X124238095Y-82190476D01*
X124190476Y-82095238D01*
X124095238Y-82000000D01*
X123952380Y-81952381D01*
X123857142Y-81952381D01*
X123714285Y-82000000D01*
X123666666Y-82047619D01*
X123333333Y-81952381D02*
X122714285Y-81952381D01*
X123047619Y-82333333D01*
X122904761Y-82333333D01*
X122809523Y-82380952D01*
X122761904Y-82428571D01*
X122714285Y-82523810D01*
X122714285Y-82761905D01*
X122761904Y-82857143D01*
X122809523Y-82904762D01*
X122904761Y-82952381D01*
X123190476Y-82952381D01*
X123285714Y-82904762D01*
X123333333Y-82857143D01*
X107666666Y-91357143D02*
X107714285Y-91404762D01*
X107857142Y-91452381D01*
X107952380Y-91452381D01*
X108095238Y-91404762D01*
X108190476Y-91309524D01*
X108238095Y-91214286D01*
X108285714Y-91023810D01*
X108285714Y-90880952D01*
X108238095Y-90690476D01*
X108190476Y-90595238D01*
X108095238Y-90500000D01*
X107952380Y-90452381D01*
X107857142Y-90452381D01*
X107714285Y-90500000D01*
X107666666Y-90547619D01*
X106809523Y-90785714D02*
X106809523Y-91452381D01*
X107047619Y-90404762D02*
X107285714Y-91119048D01*
X106666666Y-91119048D01*
X129666665Y-74857143D02*
X129714284Y-74904762D01*
X129857141Y-74952381D01*
X129952379Y-74952381D01*
X130095237Y-74904762D01*
X130190475Y-74809524D01*
X130238094Y-74714286D01*
X130285713Y-74523810D01*
X130285713Y-74380952D01*
X130238094Y-74190476D01*
X130190475Y-74095238D01*
X130095237Y-74000000D01*
X129952379Y-73952381D01*
X129857141Y-73952381D01*
X129714284Y-74000000D01*
X129666665Y-74047619D01*
X128761903Y-73952381D02*
X129238094Y-73952381D01*
X129285713Y-74428571D01*
X129238094Y-74380952D01*
X129142856Y-74333333D01*
X128904760Y-74333333D01*
X128809522Y-74380952D01*
X128761903Y-74428571D01*
X128714284Y-74523810D01*
X128714284Y-74761905D01*
X128761903Y-74857143D01*
X128809522Y-74904762D01*
X128904760Y-74952381D01*
X129142856Y-74952381D01*
X129238094Y-74904762D01*
X129285713Y-74857143D01*
X139910709Y-77452381D02*
X139910709Y-76452381D01*
X139529756Y-76452381D01*
X139434518Y-76500000D01*
X139386899Y-76547619D01*
X139339280Y-76642857D01*
X139339280Y-76785714D01*
X139386899Y-76880952D01*
X139434518Y-76928571D01*
X139529756Y-76976190D01*
X139910709Y-76976190D01*
X138482137Y-76452381D02*
X138672614Y-76452381D01*
X138767852Y-76500000D01*
X138815471Y-76547619D01*
X138910709Y-76690476D01*
X138958328Y-76880952D01*
X138958328Y-77261905D01*
X138910709Y-77357143D01*
X138863090Y-77404762D01*
X138767852Y-77452381D01*
X138577375Y-77452381D01*
X138482137Y-77404762D01*
X138434518Y-77357143D01*
X138386899Y-77261905D01*
X138386899Y-77023810D01*
X138434518Y-76928571D01*
X138482137Y-76880952D01*
X138577375Y-76833333D01*
X138767852Y-76833333D01*
X138863090Y-76880952D01*
X138910709Y-76928571D01*
X138958328Y-77023810D01*
X120666666Y-72552381D02*
X121000000Y-72076190D01*
X121238095Y-72552381D02*
X121238095Y-71552381D01*
X120857142Y-71552381D01*
X120761904Y-71600000D01*
X120714285Y-71647619D01*
X120666666Y-71742857D01*
X120666666Y-71885714D01*
X120714285Y-71980952D01*
X120761904Y-72028571D01*
X120857142Y-72076190D01*
X121238095Y-72076190D01*
X119714285Y-72552381D02*
X120285714Y-72552381D01*
X120000000Y-72552381D02*
X120000000Y-71552381D01*
X120095238Y-71695238D01*
X120190476Y-71790476D01*
X120285714Y-71838095D01*
X123666666Y-71452381D02*
X124000000Y-70976190D01*
X124238095Y-71452381D02*
X124238095Y-70452381D01*
X123857142Y-70452381D01*
X123761904Y-70500000D01*
X123714285Y-70547619D01*
X123666666Y-70642857D01*
X123666666Y-70785714D01*
X123714285Y-70880952D01*
X123761904Y-70928571D01*
X123857142Y-70976190D01*
X124238095Y-70976190D01*
X123285714Y-70547619D02*
X123238095Y-70500000D01*
X123142857Y-70452381D01*
X122904761Y-70452381D01*
X122809523Y-70500000D01*
X122761904Y-70547619D01*
X122714285Y-70642857D01*
X122714285Y-70738095D01*
X122761904Y-70880952D01*
X123333333Y-71452381D01*
X122714285Y-71452381D01*
X132166666Y-70952381D02*
X132500000Y-70476190D01*
X132738095Y-70952381D02*
X132738095Y-69952381D01*
X132357142Y-69952381D01*
X132261904Y-70000000D01*
X132214285Y-70047619D01*
X132166666Y-70142857D01*
X132166666Y-70285714D01*
X132214285Y-70380952D01*
X132261904Y-70428571D01*
X132357142Y-70476190D01*
X132738095Y-70476190D01*
X131833333Y-69952381D02*
X131214285Y-69952381D01*
X131547619Y-70333333D01*
X131404761Y-70333333D01*
X131309523Y-70380952D01*
X131261904Y-70428571D01*
X131214285Y-70523810D01*
X131214285Y-70761905D01*
X131261904Y-70857143D01*
X131309523Y-70904762D01*
X131404761Y-70952381D01*
X131690476Y-70952381D01*
X131785714Y-70904762D01*
X131833333Y-70857143D01*
X107261905Y-85952382D02*
X107261905Y-86761906D01*
X107214286Y-86857144D01*
X107166667Y-86904763D01*
X107071429Y-86952382D01*
X106880952Y-86952382D01*
X106785714Y-86904763D01*
X106738095Y-86857144D01*
X106690476Y-86761906D01*
X106690476Y-85952382D01*
X106261905Y-86047620D02*
X106214286Y-86000001D01*
X106119048Y-85952382D01*
X105880952Y-85952382D01*
X105785714Y-86000001D01*
X105738095Y-86047620D01*
X105690476Y-86142858D01*
X105690476Y-86238096D01*
X105738095Y-86380953D01*
X106309524Y-86952382D01*
X105690476Y-86952382D01*
X130627326Y-76713041D02*
X130960660Y-76236850D01*
X131198755Y-76713041D02*
X131198755Y-75713041D01*
X130817802Y-75713041D01*
X130722564Y-75760660D01*
X130674945Y-75808279D01*
X130627326Y-75903517D01*
X130627326Y-76046374D01*
X130674945Y-76141612D01*
X130722564Y-76189231D01*
X130817802Y-76236850D01*
X131198755Y-76236850D01*
X129770183Y-76046374D02*
X129770183Y-76713041D01*
X130008279Y-75665422D02*
X130246374Y-76379708D01*
X129627326Y-76379708D01*
X132690476Y-79452381D02*
X133023810Y-78976190D01*
X133261905Y-79452381D02*
X133261905Y-78452381D01*
X132880952Y-78452381D01*
X132785714Y-78500000D01*
X132738095Y-78547619D01*
X132690476Y-78642857D01*
X132690476Y-78785714D01*
X132738095Y-78880952D01*
X132785714Y-78928571D01*
X132880952Y-78976190D01*
X133261905Y-78976190D01*
X132261905Y-79452381D02*
X132261905Y-78452381D01*
X131690476Y-79452381D01*
X131690476Y-78452381D01*
X130690476Y-79452381D02*
X131261905Y-79452381D01*
X130976191Y-79452381D02*
X130976191Y-78452381D01*
X131071429Y-78595238D01*
X131166667Y-78690476D01*
X131261905Y-78738095D01*
X131318174Y-87411362D02*
X131167636Y-87415133D01*
X130939944Y-87345520D01*
X130862790Y-87272137D01*
X130831174Y-87212676D01*
X130813481Y-87107677D01*
X130841326Y-87016601D01*
X130914709Y-86939447D01*
X130974170Y-86907831D01*
X131079169Y-86890136D01*
X131275245Y-86900288D01*
X131380244Y-86882595D01*
X131439705Y-86850979D01*
X131513088Y-86773825D01*
X131540933Y-86682748D01*
X131523240Y-86577749D01*
X131491624Y-86518289D01*
X131414470Y-86444905D01*
X131186778Y-86375293D01*
X131036240Y-86379064D01*
X130731395Y-86236068D02*
X130211332Y-87122761D01*
X130238015Y-86383996D01*
X129847025Y-87011381D01*
X129911705Y-85985464D01*
X128754105Y-86677242D02*
X129300565Y-86844312D01*
X129027336Y-86760777D02*
X129319707Y-85804472D01*
X129369016Y-85968932D01*
X129432248Y-86087853D01*
X129509402Y-86161237D01*
X127261905Y-78202381D02*
X127261905Y-79011905D01*
X127214286Y-79107143D01*
X127166667Y-79154762D01*
X127071429Y-79202381D01*
X126880952Y-79202381D01*
X126785714Y-79154762D01*
X126738095Y-79107143D01*
X126690476Y-79011905D01*
X126690476Y-78202381D01*
X125690476Y-79202381D02*
X126261905Y-79202381D01*
X125976191Y-79202381D02*
X125976191Y-78202381D01*
X126071429Y-78345238D01*
X126166667Y-78440476D01*
X126261905Y-78488095D01*
X123095238Y-76547619D02*
X123190476Y-76500000D01*
X123285714Y-76404762D01*
X123428571Y-76261905D01*
X123523810Y-76214286D01*
X123619048Y-76214286D01*
X123571429Y-76452381D02*
X123666667Y-76404762D01*
X123761905Y-76309524D01*
X123809524Y-76119048D01*
X123809524Y-75785714D01*
X123761905Y-75595238D01*
X123666667Y-75500000D01*
X123571429Y-75452381D01*
X123380952Y-75452381D01*
X123285714Y-75500000D01*
X123190476Y-75595238D01*
X123142857Y-75785714D01*
X123142857Y-76119048D01*
X123190476Y-76309524D01*
X123285714Y-76404762D01*
X123380952Y-76452381D01*
X123571429Y-76452381D01*
X122190476Y-76452381D02*
X122761905Y-76452381D01*
X122476191Y-76452381D02*
X122476191Y-75452381D01*
X122571429Y-75595238D01*
X122666667Y-75690476D01*
X122761905Y-75738095D01*
X132695238Y-74547619D02*
X132790476Y-74500000D01*
X132885714Y-74404762D01*
X133028571Y-74261905D01*
X133123810Y-74214286D01*
X133219048Y-74214286D01*
X133171429Y-74452381D02*
X133266667Y-74404762D01*
X133361905Y-74309524D01*
X133409524Y-74119048D01*
X133409524Y-73785714D01*
X133361905Y-73595238D01*
X133266667Y-73500000D01*
X133171429Y-73452381D01*
X132980952Y-73452381D01*
X132885714Y-73500000D01*
X132790476Y-73595238D01*
X132742857Y-73785714D01*
X132742857Y-74119048D01*
X132790476Y-74309524D01*
X132885714Y-74404762D01*
X132980952Y-74452381D01*
X133171429Y-74452381D01*
X132361905Y-73547619D02*
X132314286Y-73500000D01*
X132219048Y-73452381D01*
X131980952Y-73452381D01*
X131885714Y-73500000D01*
X131838095Y-73547619D01*
X131790476Y-73642857D01*
X131790476Y-73738095D01*
X131838095Y-73880952D01*
X132409524Y-74452381D01*
X131790476Y-74452381D01*
X94833333Y-97404762D02*
X94690476Y-97452381D01*
X94452380Y-97452381D01*
X94357142Y-97404762D01*
X94309523Y-97357143D01*
X94261904Y-97261905D01*
X94261904Y-97166667D01*
X94309523Y-97071429D01*
X94357142Y-97023810D01*
X94452380Y-96976190D01*
X94642857Y-96928571D01*
X94738095Y-96880952D01*
X94785714Y-96833333D01*
X94833333Y-96738095D01*
X94833333Y-96642857D01*
X94785714Y-96547619D01*
X94738095Y-96500000D01*
X94642857Y-96452381D01*
X94404761Y-96452381D01*
X94261904Y-96500000D01*
X93928571Y-96452381D02*
X93690476Y-97452381D01*
X93499999Y-96738095D01*
X93309523Y-97452381D01*
X93071428Y-96452381D01*
X92738095Y-96547619D02*
X92690476Y-96500000D01*
X92595238Y-96452381D01*
X92357142Y-96452381D01*
X92261904Y-96500000D01*
X92214285Y-96547619D01*
X92166666Y-96642857D01*
X92166666Y-96738095D01*
X92214285Y-96880952D01*
X92785714Y-97452381D01*
X92166666Y-97452381D01*
M02*
