G04 #@! TF.GenerationSoftware,KiCad,Pcbnew,5.0.2-bee76a0~70~ubuntu18.04.1*
G04 #@! TF.CreationDate,2019-01-05T10:05:45+08:00*
G04 #@! TF.ProjectId,NeuroBytes_Touch_Sensor,4e657572-6f42-4797-9465-735f546f7563,D*
G04 #@! TF.SameCoordinates,Original*
G04 #@! TF.FileFunction,Other,Fab,Top*
%FSLAX46Y46*%
G04 Gerber Fmt 4.6, Leading zero omitted, Abs format (unit mm)*
G04 Created by KiCad (PCBNEW 5.0.2-bee76a0~70~ubuntu18.04.1) date Sat 05 Jan 2019 10:05:45 AM HKT*
%MOMM*%
%LPD*%
G01*
G04 APERTURE LIST*
%ADD10C,0.200000*%
%ADD11C,0.300000*%
G04 APERTURE END LIST*
D10*
X94370000Y-98740000D02*
X89370000Y-98740000D01*
X91870000Y-96240000D02*
X91870000Y-101240000D01*
X89000000Y-91000000D02*
X88000000Y-92000000D01*
X89000000Y-91000000D02*
X88000000Y-90000000D01*
X89000000Y-91000000D02*
X89000000Y-91000000D01*
X83000000Y-91000000D02*
X89000000Y-91000000D01*
X67000000Y-75000000D02*
X83000000Y-91000000D01*
X67000000Y-50000000D02*
X67000000Y-75000000D01*
X70000000Y-47000000D02*
X67000000Y-50000000D01*
D11*
X67422142Y-126668571D02*
X67422142Y-125168571D01*
X68279285Y-126668571D01*
X68279285Y-125168571D01*
X69279285Y-125168571D02*
X69565000Y-125168571D01*
X69707857Y-125240000D01*
X69850714Y-125382857D01*
X69922142Y-125668571D01*
X69922142Y-126168571D01*
X69850714Y-126454285D01*
X69707857Y-126597142D01*
X69565000Y-126668571D01*
X69279285Y-126668571D01*
X69136428Y-126597142D01*
X68993571Y-126454285D01*
X68922142Y-126168571D01*
X68922142Y-125668571D01*
X68993571Y-125382857D01*
X69136428Y-125240000D01*
X69279285Y-125168571D01*
X70350714Y-125168571D02*
X71207857Y-125168571D01*
X70779285Y-126668571D02*
X70779285Y-125168571D01*
X71707857Y-125882857D02*
X72207857Y-125882857D01*
X72422142Y-126668571D02*
X71707857Y-126668571D01*
X71707857Y-125168571D01*
X72422142Y-125168571D01*
X72993571Y-126597142D02*
X73207857Y-126668571D01*
X73565000Y-126668571D01*
X73707857Y-126597142D01*
X73779285Y-126525714D01*
X73850714Y-126382857D01*
X73850714Y-126240000D01*
X73779285Y-126097142D01*
X73707857Y-126025714D01*
X73565000Y-125954285D01*
X73279285Y-125882857D01*
X73136428Y-125811428D01*
X73065000Y-125740000D01*
X72993571Y-125597142D01*
X72993571Y-125454285D01*
X73065000Y-125311428D01*
X73136428Y-125240000D01*
X73279285Y-125168571D01*
X73636428Y-125168571D01*
X73850714Y-125240000D01*
X74493571Y-126525714D02*
X74565000Y-126597142D01*
X74493571Y-126668571D01*
X74422142Y-126597142D01*
X74493571Y-126525714D01*
X74493571Y-126668571D01*
X74493571Y-125740000D02*
X74565000Y-125811428D01*
X74493571Y-125882857D01*
X74422142Y-125811428D01*
X74493571Y-125740000D01*
X74493571Y-125882857D01*
X68207857Y-129218571D02*
X67350714Y-129218571D01*
X67779285Y-129218571D02*
X67779285Y-127718571D01*
X67636428Y-127932857D01*
X67493571Y-128075714D01*
X67350714Y-128147142D01*
X68850714Y-129075714D02*
X68922142Y-129147142D01*
X68850714Y-129218571D01*
X68779285Y-129147142D01*
X68850714Y-129075714D01*
X68850714Y-129218571D01*
X71207857Y-128432857D02*
X70707857Y-128432857D01*
X70707857Y-129218571D02*
X70707857Y-127718571D01*
X71422142Y-127718571D01*
X72279285Y-127718571D02*
X72565000Y-127718571D01*
X72707857Y-127790000D01*
X72850714Y-127932857D01*
X72922142Y-128218571D01*
X72922142Y-128718571D01*
X72850714Y-129004285D01*
X72707857Y-129147142D01*
X72565000Y-129218571D01*
X72279285Y-129218571D01*
X72136428Y-129147142D01*
X71993571Y-129004285D01*
X71922142Y-128718571D01*
X71922142Y-128218571D01*
X71993571Y-127932857D01*
X72136428Y-127790000D01*
X72279285Y-127718571D01*
X73850714Y-127718571D02*
X74136428Y-127718571D01*
X74279285Y-127790000D01*
X74422142Y-127932857D01*
X74493571Y-128218571D01*
X74493571Y-128718571D01*
X74422142Y-129004285D01*
X74279285Y-129147142D01*
X74136428Y-129218571D01*
X73850714Y-129218571D01*
X73707857Y-129147142D01*
X73565000Y-129004285D01*
X73493571Y-128718571D01*
X73493571Y-128218571D01*
X73565000Y-127932857D01*
X73707857Y-127790000D01*
X73850714Y-127718571D01*
X74922142Y-127718571D02*
X75779285Y-127718571D01*
X75350714Y-129218571D02*
X75350714Y-127718571D01*
X76279285Y-129218571D02*
X76279285Y-127718571D01*
X76850714Y-127718571D01*
X76993571Y-127790000D01*
X77065000Y-127861428D01*
X77136428Y-128004285D01*
X77136428Y-128218571D01*
X77065000Y-128361428D01*
X76993571Y-128432857D01*
X76850714Y-128504285D01*
X76279285Y-128504285D01*
X78636428Y-129218571D02*
X78136428Y-128504285D01*
X77779285Y-129218571D02*
X77779285Y-127718571D01*
X78350714Y-127718571D01*
X78493571Y-127790000D01*
X78565000Y-127861428D01*
X78636428Y-128004285D01*
X78636428Y-128218571D01*
X78565000Y-128361428D01*
X78493571Y-128432857D01*
X78350714Y-128504285D01*
X77779285Y-128504285D01*
X79279285Y-129218571D02*
X79279285Y-127718571D01*
X79993571Y-129218571D02*
X79993571Y-127718571D01*
X80850714Y-129218571D01*
X80850714Y-127718571D01*
X81350714Y-127718571D02*
X82207857Y-127718571D01*
X81779285Y-129218571D02*
X81779285Y-127718571D01*
X82636428Y-129147142D02*
X82850714Y-129218571D01*
X83207857Y-129218571D01*
X83350714Y-129147142D01*
X83422142Y-129075714D01*
X83493571Y-128932857D01*
X83493571Y-128790000D01*
X83422142Y-128647142D01*
X83350714Y-128575714D01*
X83207857Y-128504285D01*
X82922142Y-128432857D01*
X82779285Y-128361428D01*
X82707857Y-128290000D01*
X82636428Y-128147142D01*
X82636428Y-128004285D01*
X82707857Y-127861428D01*
X82779285Y-127790000D01*
X82922142Y-127718571D01*
X83279285Y-127718571D01*
X83493571Y-127790000D01*
X85565000Y-127718571D02*
X85850714Y-127718571D01*
X85993571Y-127790000D01*
X86136428Y-127932857D01*
X86207857Y-128218571D01*
X86207857Y-128718571D01*
X86136428Y-129004285D01*
X85993571Y-129147142D01*
X85850714Y-129218571D01*
X85565000Y-129218571D01*
X85422142Y-129147142D01*
X85279285Y-129004285D01*
X85207857Y-128718571D01*
X85207857Y-128218571D01*
X85279285Y-127932857D01*
X85422142Y-127790000D01*
X85565000Y-127718571D01*
X87707857Y-129218571D02*
X87207857Y-128504285D01*
X86850714Y-129218571D02*
X86850714Y-127718571D01*
X87422142Y-127718571D01*
X87565000Y-127790000D01*
X87636428Y-127861428D01*
X87707857Y-128004285D01*
X87707857Y-128218571D01*
X87636428Y-128361428D01*
X87565000Y-128432857D01*
X87422142Y-128504285D01*
X86850714Y-128504285D01*
X88350714Y-129218571D02*
X88350714Y-127718571D01*
X89065000Y-128432857D02*
X89565000Y-128432857D01*
X89779285Y-129218571D02*
X89065000Y-129218571D01*
X89065000Y-127718571D01*
X89779285Y-127718571D01*
X90422142Y-129218571D02*
X90422142Y-127718571D01*
X91279285Y-129218571D01*
X91279285Y-127718571D01*
X91779285Y-127718571D02*
X92636428Y-127718571D01*
X92207857Y-129218571D02*
X92207857Y-127718571D01*
X93136428Y-128432857D02*
X93636428Y-128432857D01*
X93850714Y-129218571D02*
X93136428Y-129218571D01*
X93136428Y-127718571D01*
X93850714Y-127718571D01*
X94493571Y-129218571D02*
X94493571Y-127718571D01*
X94850714Y-127718571D01*
X95065000Y-127790000D01*
X95207857Y-127932857D01*
X95279285Y-128075714D01*
X95350714Y-128361428D01*
X95350714Y-128575714D01*
X95279285Y-128861428D01*
X95207857Y-129004285D01*
X95065000Y-129147142D01*
X94850714Y-129218571D01*
X94493571Y-129218571D01*
X97136428Y-129218571D02*
X97136428Y-127718571D01*
X97707857Y-127718571D01*
X97850714Y-127790000D01*
X97922142Y-127861428D01*
X97993571Y-128004285D01*
X97993571Y-128218571D01*
X97922142Y-128361428D01*
X97850714Y-128432857D01*
X97707857Y-128504285D01*
X97136428Y-128504285D01*
X98636428Y-128432857D02*
X99136428Y-128432857D01*
X99350714Y-129218571D02*
X98636428Y-129218571D01*
X98636428Y-127718571D01*
X99350714Y-127718571D01*
X100850714Y-129218571D02*
X100350714Y-128504285D01*
X99993571Y-129218571D02*
X99993571Y-127718571D01*
X100565000Y-127718571D01*
X100707857Y-127790000D01*
X100779285Y-127861428D01*
X100850714Y-128004285D01*
X100850714Y-128218571D01*
X100779285Y-128361428D01*
X100707857Y-128432857D01*
X100565000Y-128504285D01*
X99993571Y-128504285D01*
X102636428Y-129218571D02*
X102636428Y-127718571D01*
X103350714Y-129218571D02*
X103350714Y-127718571D01*
X103922142Y-127718571D01*
X104065000Y-127790000D01*
X104136428Y-127861428D01*
X104207857Y-128004285D01*
X104207857Y-128218571D01*
X104136428Y-128361428D01*
X104065000Y-128432857D01*
X103922142Y-128504285D01*
X103350714Y-128504285D01*
X105707857Y-129075714D02*
X105636428Y-129147142D01*
X105422142Y-129218571D01*
X105279285Y-129218571D01*
X105065000Y-129147142D01*
X104922142Y-129004285D01*
X104850714Y-128861428D01*
X104779285Y-128575714D01*
X104779285Y-128361428D01*
X104850714Y-128075714D01*
X104922142Y-127932857D01*
X105065000Y-127790000D01*
X105279285Y-127718571D01*
X105422142Y-127718571D01*
X105636428Y-127790000D01*
X105707857Y-127861428D01*
X106350714Y-128647142D02*
X107493571Y-128647142D01*
X108065000Y-127718571D02*
X109065000Y-127718571D01*
X108422142Y-129218571D01*
X109493571Y-127718571D02*
X110422142Y-127718571D01*
X109922142Y-128290000D01*
X110136428Y-128290000D01*
X110279285Y-128361428D01*
X110350714Y-128432857D01*
X110422142Y-128575714D01*
X110422142Y-128932857D01*
X110350714Y-129075714D01*
X110279285Y-129147142D01*
X110136428Y-129218571D01*
X109707857Y-129218571D01*
X109565000Y-129147142D01*
X109493571Y-129075714D01*
X111779285Y-127718571D02*
X111065000Y-127718571D01*
X110993571Y-128432857D01*
X111065000Y-128361428D01*
X111207857Y-128290000D01*
X111565000Y-128290000D01*
X111707857Y-128361428D01*
X111779285Y-128432857D01*
X111850714Y-128575714D01*
X111850714Y-128932857D01*
X111779285Y-129075714D01*
X111707857Y-129147142D01*
X111565000Y-129218571D01*
X111207857Y-129218571D01*
X111065000Y-129147142D01*
X110993571Y-129075714D01*
X113279285Y-129218571D02*
X112422142Y-129218571D01*
X112850714Y-129218571D02*
X112850714Y-127718571D01*
X112707857Y-127932857D01*
X112564999Y-128075714D01*
X112422142Y-128147142D01*
X114422142Y-128432857D02*
X113922142Y-128432857D01*
X113922142Y-129218571D02*
X113922142Y-127718571D01*
X114636428Y-127718571D01*
X116064999Y-129075714D02*
X115993571Y-129147142D01*
X115779285Y-129218571D01*
X115636428Y-129218571D01*
X115422142Y-129147142D01*
X115279285Y-129004285D01*
X115207857Y-128861428D01*
X115136428Y-128575714D01*
X115136428Y-128361428D01*
X115207857Y-128075714D01*
X115279285Y-127932857D01*
X115422142Y-127790000D01*
X115636428Y-127718571D01*
X115779285Y-127718571D01*
X115993571Y-127790000D01*
X116064999Y-127861428D01*
X118564999Y-129218571D02*
X117850714Y-129218571D01*
X117850714Y-127718571D01*
X119064999Y-128432857D02*
X119564999Y-128432857D01*
X119779285Y-129218571D02*
X119064999Y-129218571D01*
X119064999Y-127718571D01*
X119779285Y-127718571D01*
X120207857Y-127718571D02*
X120707857Y-129218571D01*
X121207857Y-127718571D01*
X121707857Y-128432857D02*
X122207857Y-128432857D01*
X122422142Y-129218571D02*
X121707857Y-129218571D01*
X121707857Y-127718571D01*
X122422142Y-127718571D01*
X123779285Y-129218571D02*
X123064999Y-129218571D01*
X123064999Y-127718571D01*
X125922142Y-128432857D02*
X126136428Y-128504285D01*
X126207857Y-128575714D01*
X126279285Y-128718571D01*
X126279285Y-128932857D01*
X126207857Y-129075714D01*
X126136428Y-129147142D01*
X125993571Y-129218571D01*
X125422142Y-129218571D01*
X125422142Y-127718571D01*
X125922142Y-127718571D01*
X126064999Y-127790000D01*
X126136428Y-127861428D01*
X126207857Y-128004285D01*
X126207857Y-128147142D01*
X126136428Y-128290000D01*
X126064999Y-128361428D01*
X125922142Y-128432857D01*
X125422142Y-128432857D01*
X128493571Y-129790000D02*
X128422142Y-129718571D01*
X128279285Y-129504285D01*
X128207857Y-129361428D01*
X128136428Y-129147142D01*
X128064999Y-128790000D01*
X128064999Y-128504285D01*
X128136428Y-128147142D01*
X128207857Y-127932857D01*
X128279285Y-127790000D01*
X128422142Y-127575714D01*
X128493571Y-127504285D01*
X129064999Y-129218571D02*
X129064999Y-127718571D01*
X129636428Y-127718571D01*
X129779285Y-127790000D01*
X129850714Y-127861428D01*
X129922142Y-128004285D01*
X129922142Y-128218571D01*
X129850714Y-128361428D01*
X129779285Y-128432857D01*
X129636428Y-128504285D01*
X129064999Y-128504285D01*
X130564999Y-129218571D02*
X130564999Y-127718571D01*
X131279285Y-129218571D02*
X131279285Y-127718571D01*
X132136428Y-129218571D01*
X132136428Y-127718571D01*
X134779285Y-129218571D02*
X133922142Y-129218571D01*
X134350714Y-129218571D02*
X134350714Y-127718571D01*
X134207857Y-127932857D01*
X134064999Y-128075714D01*
X133922142Y-128147142D01*
X136565000Y-129218571D02*
X136565000Y-127718571D01*
X137279285Y-129218571D02*
X137279285Y-127718571D01*
X138136428Y-129218571D01*
X138136428Y-127718571D01*
X140707857Y-129218571D02*
X139993571Y-129218571D01*
X139993571Y-127718571D01*
X141493571Y-127718571D02*
X141779285Y-127718571D01*
X141922142Y-127790000D01*
X142065000Y-127932857D01*
X142136428Y-128218571D01*
X142136428Y-128718571D01*
X142065000Y-129004285D01*
X141922142Y-129147142D01*
X141779285Y-129218571D01*
X141493571Y-129218571D01*
X141350714Y-129147142D01*
X141207857Y-129004285D01*
X141136428Y-128718571D01*
X141136428Y-128218571D01*
X141207857Y-127932857D01*
X141350714Y-127790000D01*
X141493571Y-127718571D01*
X142636428Y-127718571D02*
X142993571Y-129218571D01*
X143279285Y-128147142D01*
X143565000Y-129218571D01*
X143922142Y-127718571D01*
X144493571Y-128432857D02*
X144993571Y-128432857D01*
X145207857Y-129218571D02*
X144493571Y-129218571D01*
X144493571Y-127718571D01*
X145207857Y-127718571D01*
X146707857Y-129218571D02*
X146207857Y-128504285D01*
X145850714Y-129218571D02*
X145850714Y-127718571D01*
X146422142Y-127718571D01*
X146565000Y-127790000D01*
X146636428Y-127861428D01*
X146707857Y-128004285D01*
X146707857Y-128218571D01*
X146636428Y-128361428D01*
X146565000Y-128432857D01*
X146422142Y-128504285D01*
X145850714Y-128504285D01*
X149207857Y-129218571D02*
X148493571Y-129218571D01*
X148493571Y-127718571D01*
X149707857Y-128432857D02*
X150207857Y-128432857D01*
X150422142Y-129218571D02*
X149707857Y-129218571D01*
X149707857Y-127718571D01*
X150422142Y-127718571D01*
X151565000Y-128432857D02*
X151065000Y-128432857D01*
X151065000Y-129218571D02*
X151065000Y-127718571D01*
X151779285Y-127718571D01*
X152136428Y-127718571D02*
X152993571Y-127718571D01*
X152565000Y-129218571D02*
X152565000Y-127718571D01*
X153350714Y-129790000D02*
X153422142Y-129718571D01*
X153565000Y-129504285D01*
X153636428Y-129361428D01*
X153707857Y-129147142D01*
X153779285Y-128790000D01*
X153779285Y-128504285D01*
X153707857Y-128147142D01*
X153636428Y-127932857D01*
X153565000Y-127790000D01*
X153422142Y-127575714D01*
X153350714Y-127504285D01*
X67350714Y-130411428D02*
X67422142Y-130340000D01*
X67565000Y-130268571D01*
X67922142Y-130268571D01*
X68065000Y-130340000D01*
X68136428Y-130411428D01*
X68207857Y-130554285D01*
X68207857Y-130697142D01*
X68136428Y-130911428D01*
X67279285Y-131768571D01*
X68207857Y-131768571D01*
X68850714Y-131625714D02*
X68922142Y-131697142D01*
X68850714Y-131768571D01*
X68779285Y-131697142D01*
X68850714Y-131625714D01*
X68850714Y-131768571D01*
X71565000Y-131625714D02*
X71493571Y-131697142D01*
X71279285Y-131768571D01*
X71136428Y-131768571D01*
X70922142Y-131697142D01*
X70779285Y-131554285D01*
X70707857Y-131411428D01*
X70636428Y-131125714D01*
X70636428Y-130911428D01*
X70707857Y-130625714D01*
X70779285Y-130482857D01*
X70922142Y-130340000D01*
X71136428Y-130268571D01*
X71279285Y-130268571D01*
X71493571Y-130340000D01*
X71565000Y-130411428D01*
X72493571Y-130268571D02*
X72779285Y-130268571D01*
X72922142Y-130340000D01*
X73065000Y-130482857D01*
X73136428Y-130768571D01*
X73136428Y-131268571D01*
X73065000Y-131554285D01*
X72922142Y-131697142D01*
X72779285Y-131768571D01*
X72493571Y-131768571D01*
X72350714Y-131697142D01*
X72207857Y-131554285D01*
X72136428Y-131268571D01*
X72136428Y-130768571D01*
X72207857Y-130482857D01*
X72350714Y-130340000D01*
X72493571Y-130268571D01*
X73779285Y-131768571D02*
X73779285Y-130268571D01*
X74279285Y-131340000D01*
X74779285Y-130268571D01*
X74779285Y-131768571D01*
X75493571Y-131768571D02*
X75493571Y-130268571D01*
X76065000Y-130268571D01*
X76207857Y-130340000D01*
X76279285Y-130411428D01*
X76350714Y-130554285D01*
X76350714Y-130768571D01*
X76279285Y-130911428D01*
X76207857Y-130982857D01*
X76065000Y-131054285D01*
X75493571Y-131054285D01*
X77279285Y-130268571D02*
X77565000Y-130268571D01*
X77707857Y-130340000D01*
X77850714Y-130482857D01*
X77922142Y-130768571D01*
X77922142Y-131268571D01*
X77850714Y-131554285D01*
X77707857Y-131697142D01*
X77565000Y-131768571D01*
X77279285Y-131768571D01*
X77136428Y-131697142D01*
X76993571Y-131554285D01*
X76922142Y-131268571D01*
X76922142Y-130768571D01*
X76993571Y-130482857D01*
X77136428Y-130340000D01*
X77279285Y-130268571D01*
X78565000Y-131768571D02*
X78565000Y-130268571D01*
X79422142Y-131768571D01*
X79422142Y-130268571D01*
X80136428Y-130982857D02*
X80636428Y-130982857D01*
X80850714Y-131768571D02*
X80136428Y-131768571D01*
X80136428Y-130268571D01*
X80850714Y-130268571D01*
X81493571Y-131768571D02*
X81493571Y-130268571D01*
X82350714Y-131768571D01*
X82350714Y-130268571D01*
X82850714Y-130268571D02*
X83707857Y-130268571D01*
X83279285Y-131768571D02*
X83279285Y-130268571D01*
X85636428Y-130268571D02*
X85922142Y-130268571D01*
X86065000Y-130340000D01*
X86207857Y-130482857D01*
X86279285Y-130768571D01*
X86279285Y-131268571D01*
X86207857Y-131554285D01*
X86065000Y-131697142D01*
X85922142Y-131768571D01*
X85636428Y-131768571D01*
X85493571Y-131697142D01*
X85350714Y-131554285D01*
X85279285Y-131268571D01*
X85279285Y-130768571D01*
X85350714Y-130482857D01*
X85493571Y-130340000D01*
X85636428Y-130268571D01*
X87779285Y-131768571D02*
X87279285Y-131054285D01*
X86922142Y-131768571D02*
X86922142Y-130268571D01*
X87493571Y-130268571D01*
X87636428Y-130340000D01*
X87707857Y-130411428D01*
X87779285Y-130554285D01*
X87779285Y-130768571D01*
X87707857Y-130911428D01*
X87636428Y-130982857D01*
X87493571Y-131054285D01*
X86922142Y-131054285D01*
X88422142Y-131768571D02*
X88422142Y-130268571D01*
X89136428Y-130982857D02*
X89636428Y-130982857D01*
X89850714Y-131768571D02*
X89136428Y-131768571D01*
X89136428Y-130268571D01*
X89850714Y-130268571D01*
X90493571Y-131768571D02*
X90493571Y-130268571D01*
X91350714Y-131768571D01*
X91350714Y-130268571D01*
X91850714Y-130268571D02*
X92707857Y-130268571D01*
X92279285Y-131768571D02*
X92279285Y-130268571D01*
X93136428Y-131340000D02*
X93850714Y-131340000D01*
X92993571Y-131768571D02*
X93493571Y-130268571D01*
X93993571Y-131768571D01*
X94279285Y-130268571D02*
X95136428Y-130268571D01*
X94707857Y-131768571D02*
X94707857Y-130268571D01*
X95636428Y-131768571D02*
X95636428Y-130268571D01*
X96636428Y-130268571D02*
X96922142Y-130268571D01*
X97065000Y-130340000D01*
X97207857Y-130482857D01*
X97279285Y-130768571D01*
X97279285Y-131268571D01*
X97207857Y-131554285D01*
X97065000Y-131697142D01*
X96922142Y-131768571D01*
X96636428Y-131768571D01*
X96493571Y-131697142D01*
X96350714Y-131554285D01*
X96279285Y-131268571D01*
X96279285Y-130768571D01*
X96350714Y-130482857D01*
X96493571Y-130340000D01*
X96636428Y-130268571D01*
X97922142Y-131768571D02*
X97922142Y-130268571D01*
X98779285Y-131768571D01*
X98779285Y-130268571D01*
X100636428Y-131768571D02*
X100636428Y-130268571D01*
X101350714Y-131768571D02*
X101350714Y-130268571D01*
X102207857Y-131768571D01*
X102207857Y-130268571D01*
X104065000Y-131768571D02*
X104065000Y-130268571D01*
X104422142Y-130268571D01*
X104636428Y-130340000D01*
X104779285Y-130482857D01*
X104850714Y-130625714D01*
X104922142Y-130911428D01*
X104922142Y-131125714D01*
X104850714Y-131411428D01*
X104779285Y-131554285D01*
X104636428Y-131697142D01*
X104422142Y-131768571D01*
X104065000Y-131768571D01*
X105565000Y-130982857D02*
X106065000Y-130982857D01*
X106279285Y-131768571D02*
X105565000Y-131768571D01*
X105565000Y-130268571D01*
X106279285Y-130268571D01*
X107707857Y-130340000D02*
X107565000Y-130268571D01*
X107350714Y-130268571D01*
X107136428Y-130340000D01*
X106993571Y-130482857D01*
X106922142Y-130625714D01*
X106850714Y-130911428D01*
X106850714Y-131125714D01*
X106922142Y-131411428D01*
X106993571Y-131554285D01*
X107136428Y-131697142D01*
X107350714Y-131768571D01*
X107493571Y-131768571D01*
X107707857Y-131697142D01*
X107779285Y-131625714D01*
X107779285Y-131125714D01*
X107493571Y-131125714D01*
X109279285Y-131768571D02*
X108779285Y-131054285D01*
X108422142Y-131768571D02*
X108422142Y-130268571D01*
X108993571Y-130268571D01*
X109136428Y-130340000D01*
X109207857Y-130411428D01*
X109279285Y-130554285D01*
X109279285Y-130768571D01*
X109207857Y-130911428D01*
X109136428Y-130982857D01*
X108993571Y-131054285D01*
X108422142Y-131054285D01*
X109922142Y-130982857D02*
X110422142Y-130982857D01*
X110636428Y-131768571D02*
X109922142Y-131768571D01*
X109922142Y-130268571D01*
X110636428Y-130268571D01*
X111279285Y-130982857D02*
X111779285Y-130982857D01*
X111993571Y-131768571D02*
X111279285Y-131768571D01*
X111279285Y-130268571D01*
X111993571Y-130268571D01*
X112565000Y-131697142D02*
X112779285Y-131768571D01*
X113136428Y-131768571D01*
X113279285Y-131697142D01*
X113350714Y-131625714D01*
X113422142Y-131482857D01*
X113422142Y-131340000D01*
X113350714Y-131197142D01*
X113279285Y-131125714D01*
X113136428Y-131054285D01*
X112850714Y-130982857D01*
X112707857Y-130911428D01*
X112636428Y-130840000D01*
X112565000Y-130697142D01*
X112565000Y-130554285D01*
X112636428Y-130411428D01*
X112707857Y-130340000D01*
X112850714Y-130268571D01*
X113207857Y-130268571D01*
X113422142Y-130340000D01*
X116065000Y-131625714D02*
X115993571Y-131697142D01*
X115779285Y-131768571D01*
X115636428Y-131768571D01*
X115422142Y-131697142D01*
X115279285Y-131554285D01*
X115207857Y-131411428D01*
X115136428Y-131125714D01*
X115136428Y-130911428D01*
X115207857Y-130625714D01*
X115279285Y-130482857D01*
X115422142Y-130340000D01*
X115636428Y-130268571D01*
X115779285Y-130268571D01*
X115993571Y-130340000D01*
X116065000Y-130411428D01*
X116993571Y-130268571D02*
X117279285Y-130268571D01*
X117422142Y-130340000D01*
X117565000Y-130482857D01*
X117636428Y-130768571D01*
X117636428Y-131268571D01*
X117565000Y-131554285D01*
X117422142Y-131697142D01*
X117279285Y-131768571D01*
X116993571Y-131768571D01*
X116850714Y-131697142D01*
X116707857Y-131554285D01*
X116636428Y-131268571D01*
X116636428Y-130768571D01*
X116707857Y-130482857D01*
X116850714Y-130340000D01*
X116993571Y-130268571D01*
X118279285Y-130268571D02*
X118279285Y-131482857D01*
X118350714Y-131625714D01*
X118422142Y-131697142D01*
X118565000Y-131768571D01*
X118850714Y-131768571D01*
X118993571Y-131697142D01*
X119065000Y-131625714D01*
X119136428Y-131482857D01*
X119136428Y-130268571D01*
X119850714Y-131768571D02*
X119850714Y-130268571D01*
X120707857Y-131768571D01*
X120707857Y-130268571D01*
X121207857Y-130268571D02*
X122065000Y-130268571D01*
X121636428Y-131768571D02*
X121636428Y-130268571D01*
X122565000Y-130982857D02*
X123065000Y-130982857D01*
X123279285Y-131768571D02*
X122565000Y-131768571D01*
X122565000Y-130268571D01*
X123279285Y-130268571D01*
X124779285Y-131768571D02*
X124279285Y-131054285D01*
X123922142Y-131768571D02*
X123922142Y-130268571D01*
X124493571Y-130268571D01*
X124636428Y-130340000D01*
X124707857Y-130411428D01*
X124779285Y-130554285D01*
X124779285Y-130768571D01*
X124707857Y-130911428D01*
X124636428Y-130982857D01*
X124493571Y-131054285D01*
X123922142Y-131054285D01*
X125422142Y-131197142D02*
X126565000Y-131197142D01*
X128136428Y-131625714D02*
X128065000Y-131697142D01*
X127850714Y-131768571D01*
X127707857Y-131768571D01*
X127493571Y-131697142D01*
X127350714Y-131554285D01*
X127279285Y-131411428D01*
X127207857Y-131125714D01*
X127207857Y-130911428D01*
X127279285Y-130625714D01*
X127350714Y-130482857D01*
X127493571Y-130340000D01*
X127707857Y-130268571D01*
X127850714Y-130268571D01*
X128065000Y-130340000D01*
X128136428Y-130411428D01*
X129493571Y-131768571D02*
X128779285Y-131768571D01*
X128779285Y-130268571D01*
X130279285Y-130268571D02*
X130565000Y-130268571D01*
X130707857Y-130340000D01*
X130850714Y-130482857D01*
X130922142Y-130768571D01*
X130922142Y-131268571D01*
X130850714Y-131554285D01*
X130707857Y-131697142D01*
X130565000Y-131768571D01*
X130279285Y-131768571D01*
X130136428Y-131697142D01*
X129993571Y-131554285D01*
X129922142Y-131268571D01*
X129922142Y-130768571D01*
X129993571Y-130482857D01*
X130136428Y-130340000D01*
X130279285Y-130268571D01*
X132422142Y-131625714D02*
X132350714Y-131697142D01*
X132136428Y-131768571D01*
X131993571Y-131768571D01*
X131779285Y-131697142D01*
X131636428Y-131554285D01*
X131565000Y-131411428D01*
X131493571Y-131125714D01*
X131493571Y-130911428D01*
X131565000Y-130625714D01*
X131636428Y-130482857D01*
X131779285Y-130340000D01*
X131993571Y-130268571D01*
X132136428Y-130268571D01*
X132350714Y-130340000D01*
X132422142Y-130411428D01*
X133065000Y-131768571D02*
X133065000Y-130268571D01*
X133922142Y-131768571D02*
X133279285Y-130911428D01*
X133922142Y-130268571D02*
X133065000Y-131125714D01*
X134422142Y-130268571D02*
X134779285Y-131768571D01*
X135065000Y-130697142D01*
X135350714Y-131768571D01*
X135707857Y-130268571D01*
X136279285Y-131768571D02*
X136279285Y-130268571D01*
X136922142Y-131697142D02*
X137136428Y-131768571D01*
X137493571Y-131768571D01*
X137636428Y-131697142D01*
X137707857Y-131625714D01*
X137779285Y-131482857D01*
X137779285Y-131340000D01*
X137707857Y-131197142D01*
X137636428Y-131125714D01*
X137493571Y-131054285D01*
X137207857Y-130982857D01*
X137065000Y-130911428D01*
X136993571Y-130840000D01*
X136922142Y-130697142D01*
X136922142Y-130554285D01*
X136993571Y-130411428D01*
X137065000Y-130340000D01*
X137207857Y-130268571D01*
X137565000Y-130268571D01*
X137779285Y-130340000D01*
X138422142Y-130982857D02*
X138922142Y-130982857D01*
X139136428Y-131768571D02*
X138422142Y-131768571D01*
X138422142Y-130268571D01*
X139136428Y-130268571D01*
X67279285Y-132818571D02*
X68207857Y-132818571D01*
X67707857Y-133390000D01*
X67922142Y-133390000D01*
X68065000Y-133461428D01*
X68136428Y-133532857D01*
X68207857Y-133675714D01*
X68207857Y-134032857D01*
X68136428Y-134175714D01*
X68065000Y-134247142D01*
X67922142Y-134318571D01*
X67493571Y-134318571D01*
X67350714Y-134247142D01*
X67279285Y-134175714D01*
X68850714Y-134175714D02*
X68922142Y-134247142D01*
X68850714Y-134318571D01*
X68779285Y-134247142D01*
X68850714Y-134175714D01*
X68850714Y-134318571D01*
X71565000Y-134175714D02*
X71493571Y-134247142D01*
X71279285Y-134318571D01*
X71136428Y-134318571D01*
X70922142Y-134247142D01*
X70779285Y-134104285D01*
X70707857Y-133961428D01*
X70636428Y-133675714D01*
X70636428Y-133461428D01*
X70707857Y-133175714D01*
X70779285Y-133032857D01*
X70922142Y-132890000D01*
X71136428Y-132818571D01*
X71279285Y-132818571D01*
X71493571Y-132890000D01*
X71565000Y-132961428D01*
X72493571Y-132818571D02*
X72779285Y-132818571D01*
X72922142Y-132890000D01*
X73065000Y-133032857D01*
X73136428Y-133318571D01*
X73136428Y-133818571D01*
X73065000Y-134104285D01*
X72922142Y-134247142D01*
X72779285Y-134318571D01*
X72493571Y-134318571D01*
X72350714Y-134247142D01*
X72207857Y-134104285D01*
X72136428Y-133818571D01*
X72136428Y-133318571D01*
X72207857Y-133032857D01*
X72350714Y-132890000D01*
X72493571Y-132818571D01*
X73779285Y-134318571D02*
X73779285Y-132818571D01*
X74279285Y-133890000D01*
X74779285Y-132818571D01*
X74779285Y-134318571D01*
X75493571Y-134318571D02*
X75493571Y-132818571D01*
X76065000Y-132818571D01*
X76207857Y-132890000D01*
X76279285Y-132961428D01*
X76350714Y-133104285D01*
X76350714Y-133318571D01*
X76279285Y-133461428D01*
X76207857Y-133532857D01*
X76065000Y-133604285D01*
X75493571Y-133604285D01*
X77279285Y-132818571D02*
X77565000Y-132818571D01*
X77707857Y-132890000D01*
X77850714Y-133032857D01*
X77922142Y-133318571D01*
X77922142Y-133818571D01*
X77850714Y-134104285D01*
X77707857Y-134247142D01*
X77565000Y-134318571D01*
X77279285Y-134318571D01*
X77136428Y-134247142D01*
X76993571Y-134104285D01*
X76922142Y-133818571D01*
X76922142Y-133318571D01*
X76993571Y-133032857D01*
X77136428Y-132890000D01*
X77279285Y-132818571D01*
X78565000Y-134318571D02*
X78565000Y-132818571D01*
X79422142Y-134318571D01*
X79422142Y-132818571D01*
X80136428Y-133532857D02*
X80636428Y-133532857D01*
X80850714Y-134318571D02*
X80136428Y-134318571D01*
X80136428Y-132818571D01*
X80850714Y-132818571D01*
X81493571Y-134318571D02*
X81493571Y-132818571D01*
X82350714Y-134318571D01*
X82350714Y-132818571D01*
X82850714Y-132818571D02*
X83707857Y-132818571D01*
X83279285Y-134318571D02*
X83279285Y-132818571D01*
X84136428Y-134247142D02*
X84350714Y-134318571D01*
X84707857Y-134318571D01*
X84850714Y-134247142D01*
X84922142Y-134175714D01*
X84993571Y-134032857D01*
X84993571Y-133890000D01*
X84922142Y-133747142D01*
X84850714Y-133675714D01*
X84707857Y-133604285D01*
X84422142Y-133532857D01*
X84279285Y-133461428D01*
X84207857Y-133390000D01*
X84136428Y-133247142D01*
X84136428Y-133104285D01*
X84207857Y-132961428D01*
X84279285Y-132890000D01*
X84422142Y-132818571D01*
X84779285Y-132818571D01*
X84993571Y-132890000D01*
X86707857Y-133890000D02*
X87422142Y-133890000D01*
X86565000Y-134318571D02*
X87065000Y-132818571D01*
X87565000Y-134318571D01*
X88922142Y-134318571D02*
X88422142Y-133604285D01*
X88065000Y-134318571D02*
X88065000Y-132818571D01*
X88636428Y-132818571D01*
X88779285Y-132890000D01*
X88850714Y-132961428D01*
X88922142Y-133104285D01*
X88922142Y-133318571D01*
X88850714Y-133461428D01*
X88779285Y-133532857D01*
X88636428Y-133604285D01*
X88065000Y-133604285D01*
X89565000Y-133532857D02*
X90065000Y-133532857D01*
X90279285Y-134318571D02*
X89565000Y-134318571D01*
X89565000Y-132818571D01*
X90279285Y-132818571D01*
X92065000Y-134318571D02*
X92065000Y-132818571D01*
X92565000Y-133890000D01*
X93065000Y-132818571D01*
X93065000Y-134318571D01*
X94065000Y-132818571D02*
X94350714Y-132818571D01*
X94493571Y-132890000D01*
X94636428Y-133032857D01*
X94707857Y-133318571D01*
X94707857Y-133818571D01*
X94636428Y-134104285D01*
X94493571Y-134247142D01*
X94350714Y-134318571D01*
X94065000Y-134318571D01*
X93922142Y-134247142D01*
X93779285Y-134104285D01*
X93707857Y-133818571D01*
X93707857Y-133318571D01*
X93779285Y-133032857D01*
X93922142Y-132890000D01*
X94065000Y-132818571D01*
X95350714Y-132818571D02*
X95350714Y-134032857D01*
X95422142Y-134175714D01*
X95493571Y-134247142D01*
X95636428Y-134318571D01*
X95922142Y-134318571D01*
X96065000Y-134247142D01*
X96136428Y-134175714D01*
X96207857Y-134032857D01*
X96207857Y-132818571D01*
X96922142Y-134318571D02*
X96922142Y-132818571D01*
X97779285Y-134318571D01*
X97779285Y-132818571D01*
X98279285Y-132818571D02*
X99136428Y-132818571D01*
X98707857Y-134318571D02*
X98707857Y-132818571D01*
X99636428Y-133532857D02*
X100136428Y-133532857D01*
X100350714Y-134318571D02*
X99636428Y-134318571D01*
X99636428Y-132818571D01*
X100350714Y-132818571D01*
X100993571Y-134318571D02*
X100993571Y-132818571D01*
X101350714Y-132818571D01*
X101565000Y-132890000D01*
X101707857Y-133032857D01*
X101779285Y-133175714D01*
X101850714Y-133461428D01*
X101850714Y-133675714D01*
X101779285Y-133961428D01*
X101707857Y-134104285D01*
X101565000Y-134247142D01*
X101350714Y-134318571D01*
X100993571Y-134318571D01*
X103922142Y-132818571D02*
X104207857Y-132818571D01*
X104350714Y-132890000D01*
X104493571Y-133032857D01*
X104565000Y-133318571D01*
X104565000Y-133818571D01*
X104493571Y-134104285D01*
X104350714Y-134247142D01*
X104207857Y-134318571D01*
X103922142Y-134318571D01*
X103779285Y-134247142D01*
X103636428Y-134104285D01*
X103565000Y-133818571D01*
X103565000Y-133318571D01*
X103636428Y-133032857D01*
X103779285Y-132890000D01*
X103922142Y-132818571D01*
X105207857Y-134318571D02*
X105207857Y-132818571D01*
X106065000Y-134318571D01*
X106065000Y-132818571D01*
X108422142Y-133532857D02*
X108636428Y-133604285D01*
X108707857Y-133675714D01*
X108779285Y-133818571D01*
X108779285Y-134032857D01*
X108707857Y-134175714D01*
X108636428Y-134247142D01*
X108493571Y-134318571D01*
X107922142Y-134318571D01*
X107922142Y-132818571D01*
X108422142Y-132818571D01*
X108565000Y-132890000D01*
X108636428Y-132961428D01*
X108707857Y-133104285D01*
X108707857Y-133247142D01*
X108636428Y-133390000D01*
X108565000Y-133461428D01*
X108422142Y-133532857D01*
X107922142Y-133532857D01*
X109422142Y-134175714D02*
X109493571Y-134247142D01*
X109422142Y-134318571D01*
X109350714Y-134247142D01*
X109422142Y-134175714D01*
X109422142Y-134318571D01*
X110993571Y-134175714D02*
X110922142Y-134247142D01*
X110707857Y-134318571D01*
X110565000Y-134318571D01*
X110350714Y-134247142D01*
X110207857Y-134104285D01*
X110136428Y-133961428D01*
X110065000Y-133675714D01*
X110065000Y-133461428D01*
X110136428Y-133175714D01*
X110207857Y-133032857D01*
X110350714Y-132890000D01*
X110565000Y-132818571D01*
X110707857Y-132818571D01*
X110922142Y-132890000D01*
X110993571Y-132961428D01*
X111636428Y-132818571D02*
X111636428Y-134032857D01*
X111707857Y-134175714D01*
X111779285Y-134247142D01*
X111922142Y-134318571D01*
X112207857Y-134318571D01*
X112350714Y-134247142D01*
X112422142Y-134175714D01*
X112493571Y-134032857D01*
X112493571Y-132818571D01*
X115065000Y-134318571D02*
X114350714Y-134318571D01*
X114350714Y-132818571D01*
X115493571Y-133890000D02*
X116207857Y-133890000D01*
X115350714Y-134318571D02*
X115850714Y-132818571D01*
X116350714Y-134318571D01*
X117136428Y-133604285D02*
X117136428Y-134318571D01*
X116636428Y-132818571D02*
X117136428Y-133604285D01*
X117636428Y-132818571D01*
X118136428Y-133532857D02*
X118636428Y-133532857D01*
X118850714Y-134318571D02*
X118136428Y-134318571D01*
X118136428Y-132818571D01*
X118850714Y-132818571D01*
X120350714Y-134318571D02*
X119850714Y-133604285D01*
X119493571Y-134318571D02*
X119493571Y-132818571D01*
X120065000Y-132818571D01*
X120207857Y-132890000D01*
X120279285Y-132961428D01*
X120350714Y-133104285D01*
X120350714Y-133318571D01*
X120279285Y-133461428D01*
X120207857Y-133532857D01*
X120065000Y-133604285D01*
X119493571Y-133604285D01*
X122422142Y-132818571D02*
X122707857Y-132818571D01*
X122850714Y-132890000D01*
X122993571Y-133032857D01*
X123065000Y-133318571D01*
X123065000Y-133818571D01*
X122993571Y-134104285D01*
X122850714Y-134247142D01*
X122707857Y-134318571D01*
X122422142Y-134318571D01*
X122279285Y-134247142D01*
X122136428Y-134104285D01*
X122065000Y-133818571D01*
X122065000Y-133318571D01*
X122136428Y-133032857D01*
X122279285Y-132890000D01*
X122422142Y-132818571D01*
X123707857Y-134318571D02*
X123707857Y-132818571D01*
X124565000Y-134318571D01*
X124565000Y-132818571D01*
X125993571Y-134318571D02*
X125279285Y-134318571D01*
X125279285Y-132818571D01*
X126779285Y-133604285D02*
X126779285Y-134318571D01*
X126279285Y-132818571D02*
X126779285Y-133604285D01*
X127279285Y-132818571D01*
X68065000Y-135868571D02*
X68065000Y-136868571D01*
X67707857Y-135297142D02*
X67350714Y-136368571D01*
X68279285Y-136368571D01*
X68850714Y-136725714D02*
X68922142Y-136797142D01*
X68850714Y-136868571D01*
X68779285Y-136797142D01*
X68850714Y-136725714D01*
X68850714Y-136868571D01*
X70707857Y-136868571D02*
X70707857Y-135368571D01*
X71279285Y-135368571D01*
X71422142Y-135440000D01*
X71493571Y-135511428D01*
X71565000Y-135654285D01*
X71565000Y-135868571D01*
X71493571Y-136011428D01*
X71422142Y-136082857D01*
X71279285Y-136154285D01*
X70707857Y-136154285D01*
X73065000Y-136725714D02*
X72993571Y-136797142D01*
X72779285Y-136868571D01*
X72636428Y-136868571D01*
X72422142Y-136797142D01*
X72279285Y-136654285D01*
X72207857Y-136511428D01*
X72136428Y-136225714D01*
X72136428Y-136011428D01*
X72207857Y-135725714D01*
X72279285Y-135582857D01*
X72422142Y-135440000D01*
X72636428Y-135368571D01*
X72779285Y-135368571D01*
X72993571Y-135440000D01*
X73065000Y-135511428D01*
X74207857Y-136082857D02*
X74422142Y-136154285D01*
X74493571Y-136225714D01*
X74565000Y-136368571D01*
X74565000Y-136582857D01*
X74493571Y-136725714D01*
X74422142Y-136797142D01*
X74279285Y-136868571D01*
X73707857Y-136868571D01*
X73707857Y-135368571D01*
X74207857Y-135368571D01*
X74350714Y-135440000D01*
X74422142Y-135511428D01*
X74493571Y-135654285D01*
X74493571Y-135797142D01*
X74422142Y-135940000D01*
X74350714Y-136011428D01*
X74207857Y-136082857D01*
X73707857Y-136082857D01*
X76350714Y-136868571D02*
X76350714Y-135368571D01*
X76993571Y-136797142D02*
X77207857Y-136868571D01*
X77565000Y-136868571D01*
X77707857Y-136797142D01*
X77779285Y-136725714D01*
X77850714Y-136582857D01*
X77850714Y-136440000D01*
X77779285Y-136297142D01*
X77707857Y-136225714D01*
X77565000Y-136154285D01*
X77279285Y-136082857D01*
X77136428Y-136011428D01*
X77065000Y-135940000D01*
X76993571Y-135797142D01*
X76993571Y-135654285D01*
X77065000Y-135511428D01*
X77136428Y-135440000D01*
X77279285Y-135368571D01*
X77636428Y-135368571D01*
X77850714Y-135440000D01*
X80422142Y-136868571D02*
X79565000Y-136868571D01*
X79993571Y-136868571D02*
X79993571Y-135368571D01*
X79850714Y-135582857D01*
X79707857Y-135725714D01*
X79565000Y-135797142D01*
X81065000Y-136725714D02*
X81136428Y-136797142D01*
X81065000Y-136868571D01*
X80993571Y-136797142D01*
X81065000Y-136725714D01*
X81065000Y-136868571D01*
X82422142Y-135368571D02*
X82136428Y-135368571D01*
X81993571Y-135440000D01*
X81922142Y-135511428D01*
X81779285Y-135725714D01*
X81707857Y-136011428D01*
X81707857Y-136582857D01*
X81779285Y-136725714D01*
X81850714Y-136797142D01*
X81993571Y-136868571D01*
X82279285Y-136868571D01*
X82422142Y-136797142D01*
X82493571Y-136725714D01*
X82565000Y-136582857D01*
X82565000Y-136225714D01*
X82493571Y-136082857D01*
X82422142Y-136011428D01*
X82279285Y-135940000D01*
X81993571Y-135940000D01*
X81850714Y-136011428D01*
X81779285Y-136082857D01*
X81707857Y-136225714D01*
X83207857Y-136868571D02*
X83207857Y-135868571D01*
X83207857Y-136011428D02*
X83279285Y-135940000D01*
X83422142Y-135868571D01*
X83636428Y-135868571D01*
X83779285Y-135940000D01*
X83850714Y-136082857D01*
X83850714Y-136868571D01*
X83850714Y-136082857D02*
X83922142Y-135940000D01*
X84065000Y-135868571D01*
X84279285Y-135868571D01*
X84422142Y-135940000D01*
X84493571Y-136082857D01*
X84493571Y-136868571D01*
X85207857Y-136868571D02*
X85207857Y-135868571D01*
X85207857Y-136011428D02*
X85279285Y-135940000D01*
X85422142Y-135868571D01*
X85636428Y-135868571D01*
X85779285Y-135940000D01*
X85850714Y-136082857D01*
X85850714Y-136868571D01*
X85850714Y-136082857D02*
X85922142Y-135940000D01*
X86065000Y-135868571D01*
X86279285Y-135868571D01*
X86422142Y-135940000D01*
X86493571Y-136082857D01*
X86493571Y-136868571D01*
X88850714Y-136082857D02*
X88350714Y-136082857D01*
X88350714Y-136868571D02*
X88350714Y-135368571D01*
X89065000Y-135368571D01*
X90493571Y-136868571D02*
X89993571Y-136154285D01*
X89636428Y-136868571D02*
X89636428Y-135368571D01*
X90207857Y-135368571D01*
X90350714Y-135440000D01*
X90422142Y-135511428D01*
X90493571Y-135654285D01*
X90493571Y-135868571D01*
X90422142Y-136011428D01*
X90350714Y-136082857D01*
X90207857Y-136154285D01*
X89636428Y-136154285D01*
X91779285Y-135868571D02*
X91779285Y-136868571D01*
X91422142Y-135297142D02*
X91065000Y-136368571D01*
X91993571Y-136368571D01*
X94565000Y-136868571D02*
X94065000Y-136154285D01*
X93707857Y-136868571D02*
X93707857Y-135368571D01*
X94279285Y-135368571D01*
X94422142Y-135440000D01*
X94493571Y-135511428D01*
X94565000Y-135654285D01*
X94565000Y-135868571D01*
X94493571Y-136011428D01*
X94422142Y-136082857D01*
X94279285Y-136154285D01*
X93707857Y-136154285D01*
X95136428Y-136440000D02*
X95850714Y-136440000D01*
X94993571Y-136868571D02*
X95493571Y-135368571D01*
X95993571Y-136868571D01*
X96279285Y-135368571D02*
X97136428Y-135368571D01*
X96707857Y-136868571D02*
X96707857Y-135368571D01*
X97636428Y-136082857D02*
X98136428Y-136082857D01*
X98350714Y-136868571D02*
X97636428Y-136868571D01*
X97636428Y-135368571D01*
X98350714Y-135368571D01*
X98993571Y-136868571D02*
X98993571Y-135368571D01*
X99350714Y-135368571D01*
X99565000Y-135440000D01*
X99707857Y-135582857D01*
X99779285Y-135725714D01*
X99850714Y-136011428D01*
X99850714Y-136225714D01*
X99779285Y-136511428D01*
X99707857Y-136654285D01*
X99565000Y-136797142D01*
X99350714Y-136868571D01*
X98993571Y-136868571D01*
X102136428Y-136082857D02*
X101636428Y-136082857D01*
X101636428Y-136868571D02*
X101636428Y-135368571D01*
X102350714Y-135368571D01*
X103207857Y-135368571D02*
X103493571Y-135368571D01*
X103636428Y-135440000D01*
X103779285Y-135582857D01*
X103850714Y-135868571D01*
X103850714Y-136368571D01*
X103779285Y-136654285D01*
X103636428Y-136797142D01*
X103493571Y-136868571D01*
X103207857Y-136868571D01*
X103065000Y-136797142D01*
X102922142Y-136654285D01*
X102850714Y-136368571D01*
X102850714Y-135868571D01*
X102922142Y-135582857D01*
X103065000Y-135440000D01*
X103207857Y-135368571D01*
X105350714Y-136868571D02*
X104850714Y-136154285D01*
X104493571Y-136868571D02*
X104493571Y-135368571D01*
X105065000Y-135368571D01*
X105207857Y-135440000D01*
X105279285Y-135511428D01*
X105350714Y-135654285D01*
X105350714Y-135868571D01*
X105279285Y-136011428D01*
X105207857Y-136082857D01*
X105065000Y-136154285D01*
X104493571Y-136154285D01*
X107993571Y-136868571D02*
X107493571Y-136154285D01*
X107136428Y-136868571D02*
X107136428Y-135368571D01*
X107707857Y-135368571D01*
X107850714Y-135440000D01*
X107922142Y-135511428D01*
X107993571Y-135654285D01*
X107993571Y-135868571D01*
X107922142Y-136011428D01*
X107850714Y-136082857D01*
X107707857Y-136154285D01*
X107136428Y-136154285D01*
X108922142Y-135368571D02*
X109207857Y-135368571D01*
X109350714Y-135440000D01*
X109493571Y-135582857D01*
X109565000Y-135868571D01*
X109565000Y-136368571D01*
X109493571Y-136654285D01*
X109350714Y-136797142D01*
X109207857Y-136868571D01*
X108922142Y-136868571D01*
X108779285Y-136797142D01*
X108636428Y-136654285D01*
X108565000Y-136368571D01*
X108565000Y-135868571D01*
X108636428Y-135582857D01*
X108779285Y-135440000D01*
X108922142Y-135368571D01*
X110207857Y-136868571D02*
X110207857Y-135368571D01*
X110207857Y-136082857D02*
X111065000Y-136082857D01*
X111065000Y-136868571D02*
X111065000Y-135368571D01*
X111707857Y-136797142D02*
X111922142Y-136868571D01*
X112279285Y-136868571D01*
X112422142Y-136797142D01*
X112493571Y-136725714D01*
X112565000Y-136582857D01*
X112565000Y-136440000D01*
X112493571Y-136297142D01*
X112422142Y-136225714D01*
X112279285Y-136154285D01*
X111993571Y-136082857D01*
X111850714Y-136011428D01*
X111779285Y-135940000D01*
X111707857Y-135797142D01*
X111707857Y-135654285D01*
X111779285Y-135511428D01*
X111850714Y-135440000D01*
X111993571Y-135368571D01*
X112350714Y-135368571D01*
X112565000Y-135440000D01*
X115207857Y-136868571D02*
X114707857Y-136154285D01*
X114350714Y-136868571D02*
X114350714Y-135368571D01*
X114922142Y-135368571D01*
X115065000Y-135440000D01*
X115136428Y-135511428D01*
X115207857Y-135654285D01*
X115207857Y-135868571D01*
X115136428Y-136011428D01*
X115065000Y-136082857D01*
X114922142Y-136154285D01*
X114350714Y-136154285D01*
X115850714Y-136082857D02*
X116350714Y-136082857D01*
X116565000Y-136868571D02*
X115850714Y-136868571D01*
X115850714Y-135368571D01*
X116565000Y-135368571D01*
X117707857Y-136082857D02*
X117207857Y-136082857D01*
X117207857Y-136868571D02*
X117207857Y-135368571D01*
X117922142Y-135368571D01*
X119207857Y-136868571D02*
X118493571Y-136868571D01*
X118493571Y-135368571D01*
X119993571Y-135368571D02*
X120279285Y-135368571D01*
X120422142Y-135440000D01*
X120565000Y-135582857D01*
X120636428Y-135868571D01*
X120636428Y-136368571D01*
X120565000Y-136654285D01*
X120422142Y-136797142D01*
X120279285Y-136868571D01*
X119993571Y-136868571D01*
X119850714Y-136797142D01*
X119707857Y-136654285D01*
X119636428Y-136368571D01*
X119636428Y-135868571D01*
X119707857Y-135582857D01*
X119850714Y-135440000D01*
X119993571Y-135368571D01*
X121136428Y-135368571D02*
X121493571Y-136868571D01*
X121779285Y-135797142D01*
X122065000Y-136868571D01*
X122422142Y-135368571D01*
X123065000Y-136797142D02*
X123065000Y-136868571D01*
X122993571Y-137011428D01*
X122922142Y-137082857D01*
X125636428Y-136868571D02*
X124779285Y-136868571D01*
X125207857Y-136868571D02*
X125207857Y-135368571D01*
X125065000Y-135582857D01*
X124922142Y-135725714D01*
X124779285Y-135797142D01*
X126565000Y-135368571D02*
X126850714Y-135368571D01*
X126993571Y-135440000D01*
X127136428Y-135582857D01*
X127207857Y-135868571D01*
X127207857Y-136368571D01*
X127136428Y-136654285D01*
X126993571Y-136797142D01*
X126850714Y-136868571D01*
X126565000Y-136868571D01*
X126422142Y-136797142D01*
X126279285Y-136654285D01*
X126207857Y-136368571D01*
X126207857Y-135868571D01*
X126279285Y-135582857D01*
X126422142Y-135440000D01*
X126565000Y-135368571D01*
X127707857Y-135368571D02*
X128707857Y-135368571D01*
X127707857Y-136868571D01*
X128707857Y-136868571D01*
X131279285Y-136725714D02*
X131207857Y-136797142D01*
X130993571Y-136868571D01*
X130850714Y-136868571D01*
X130636428Y-136797142D01*
X130493571Y-136654285D01*
X130422142Y-136511428D01*
X130350714Y-136225714D01*
X130350714Y-136011428D01*
X130422142Y-135725714D01*
X130493571Y-135582857D01*
X130636428Y-135440000D01*
X130850714Y-135368571D01*
X130993571Y-135368571D01*
X131207857Y-135440000D01*
X131279285Y-135511428D01*
X132207857Y-135368571D02*
X132493571Y-135368571D01*
X132636428Y-135440000D01*
X132779285Y-135582857D01*
X132850714Y-135868571D01*
X132850714Y-136368571D01*
X132779285Y-136654285D01*
X132636428Y-136797142D01*
X132493571Y-136868571D01*
X132207857Y-136868571D01*
X132065000Y-136797142D01*
X131922142Y-136654285D01*
X131850714Y-136368571D01*
X131850714Y-135868571D01*
X131922142Y-135582857D01*
X132065000Y-135440000D01*
X132207857Y-135368571D01*
X133493571Y-136868571D02*
X133493571Y-135368571D01*
X134065000Y-135368571D01*
X134207857Y-135440000D01*
X134279285Y-135511428D01*
X134350714Y-135654285D01*
X134350714Y-135868571D01*
X134279285Y-136011428D01*
X134207857Y-136082857D01*
X134065000Y-136154285D01*
X133493571Y-136154285D01*
X134993571Y-136868571D02*
X134993571Y-135368571D01*
X135565000Y-135368571D01*
X135707857Y-135440000D01*
X135779285Y-135511428D01*
X135850714Y-135654285D01*
X135850714Y-135868571D01*
X135779285Y-136011428D01*
X135707857Y-136082857D01*
X135565000Y-136154285D01*
X134993571Y-136154285D01*
X136493571Y-136082857D02*
X136993571Y-136082857D01*
X137207857Y-136868571D02*
X136493571Y-136868571D01*
X136493571Y-135368571D01*
X137207857Y-135368571D01*
X138707857Y-136868571D02*
X138207857Y-136154285D01*
X137850714Y-136868571D02*
X137850714Y-135368571D01*
X138422142Y-135368571D01*
X138565000Y-135440000D01*
X138636428Y-135511428D01*
X138707857Y-135654285D01*
X138707857Y-135868571D01*
X138636428Y-136011428D01*
X138565000Y-136082857D01*
X138422142Y-136154285D01*
X137850714Y-136154285D01*
X139422142Y-136797142D02*
X139422142Y-136868571D01*
X139350714Y-137011428D01*
X139279285Y-137082857D01*
X141207857Y-136082857D02*
X141707857Y-136082857D01*
X141922142Y-136868571D02*
X141207857Y-136868571D01*
X141207857Y-135368571D01*
X141922142Y-135368571D01*
X142565000Y-136868571D02*
X142565000Y-135368571D01*
X143422142Y-136868571D01*
X143422142Y-135368571D01*
X144136428Y-136868571D02*
X144136428Y-135368571D01*
X145636428Y-135440000D02*
X145493571Y-135368571D01*
X145279285Y-135368571D01*
X145065000Y-135440000D01*
X144922142Y-135582857D01*
X144850714Y-135725714D01*
X144779285Y-136011428D01*
X144779285Y-136225714D01*
X144850714Y-136511428D01*
X144922142Y-136654285D01*
X145065000Y-136797142D01*
X145279285Y-136868571D01*
X145422142Y-136868571D01*
X145636428Y-136797142D01*
X145707857Y-136725714D01*
X145707857Y-136225714D01*
X145422142Y-136225714D01*
X147993571Y-136082857D02*
X147493571Y-136082857D01*
X147493571Y-136868571D02*
X147493571Y-135368571D01*
X148207857Y-135368571D01*
X148779285Y-136868571D02*
X148779285Y-135368571D01*
X149493571Y-136868571D02*
X149493571Y-135368571D01*
X150350714Y-136868571D01*
X150350714Y-135368571D01*
X151065000Y-136868571D02*
X151065000Y-135368571D01*
X151707857Y-136797142D02*
X151922142Y-136868571D01*
X152279285Y-136868571D01*
X152422142Y-136797142D01*
X152493571Y-136725714D01*
X152565000Y-136582857D01*
X152565000Y-136440000D01*
X152493571Y-136297142D01*
X152422142Y-136225714D01*
X152279285Y-136154285D01*
X151993571Y-136082857D01*
X151850714Y-136011428D01*
X151779285Y-135940000D01*
X151707857Y-135797142D01*
X151707857Y-135654285D01*
X151779285Y-135511428D01*
X151850714Y-135440000D01*
X151993571Y-135368571D01*
X152350714Y-135368571D01*
X152565000Y-135440000D01*
X153207857Y-136868571D02*
X153207857Y-135368571D01*
X153207857Y-136082857D02*
X154065000Y-136082857D01*
X154065000Y-136868571D02*
X154065000Y-135368571D01*
X68136428Y-137918571D02*
X67422142Y-137918571D01*
X67350714Y-138632857D01*
X67422142Y-138561428D01*
X67565000Y-138490000D01*
X67922142Y-138490000D01*
X68065000Y-138561428D01*
X68136428Y-138632857D01*
X68207857Y-138775714D01*
X68207857Y-139132857D01*
X68136428Y-139275714D01*
X68065000Y-139347142D01*
X67922142Y-139418571D01*
X67565000Y-139418571D01*
X67422142Y-139347142D01*
X67350714Y-139275714D01*
X68850714Y-139275714D02*
X68922142Y-139347142D01*
X68850714Y-139418571D01*
X68779285Y-139347142D01*
X68850714Y-139275714D01*
X68850714Y-139418571D01*
X70707857Y-139418571D02*
X70707857Y-137918571D01*
X71207857Y-138990000D01*
X71707857Y-137918571D01*
X71707857Y-139418571D01*
X72350714Y-138990000D02*
X73065000Y-138990000D01*
X72207857Y-139418571D02*
X72707857Y-137918571D01*
X73207857Y-139418571D01*
X73493571Y-137918571D02*
X74350714Y-137918571D01*
X73922142Y-139418571D02*
X73922142Y-137918571D01*
X74636428Y-137918571D02*
X75493571Y-137918571D01*
X75065000Y-139418571D02*
X75065000Y-137918571D01*
X75993571Y-138632857D02*
X76493571Y-138632857D01*
X76707857Y-139418571D02*
X75993571Y-139418571D01*
X75993571Y-137918571D01*
X76707857Y-137918571D01*
X78993571Y-138632857D02*
X79207857Y-138704285D01*
X79279285Y-138775714D01*
X79350714Y-138918571D01*
X79350714Y-139132857D01*
X79279285Y-139275714D01*
X79207857Y-139347142D01*
X79065000Y-139418571D01*
X78493571Y-139418571D01*
X78493571Y-137918571D01*
X78993571Y-137918571D01*
X79136428Y-137990000D01*
X79207857Y-138061428D01*
X79279285Y-138204285D01*
X79279285Y-138347142D01*
X79207857Y-138490000D01*
X79136428Y-138561428D01*
X78993571Y-138632857D01*
X78493571Y-138632857D01*
X80707857Y-139418571D02*
X79993571Y-139418571D01*
X79993571Y-137918571D01*
X81136428Y-138990000D02*
X81850714Y-138990000D01*
X80993571Y-139418571D02*
X81493571Y-137918571D01*
X81993571Y-139418571D01*
X83350714Y-139275714D02*
X83279285Y-139347142D01*
X83065000Y-139418571D01*
X82922142Y-139418571D01*
X82707857Y-139347142D01*
X82565000Y-139204285D01*
X82493571Y-139061428D01*
X82422142Y-138775714D01*
X82422142Y-138561428D01*
X82493571Y-138275714D01*
X82565000Y-138132857D01*
X82707857Y-137990000D01*
X82922142Y-137918571D01*
X83065000Y-137918571D01*
X83279285Y-137990000D01*
X83350714Y-138061428D01*
X83993571Y-139418571D02*
X83993571Y-137918571D01*
X84850714Y-139418571D02*
X84207857Y-138561428D01*
X84850714Y-137918571D02*
X83993571Y-138775714D01*
X86565000Y-139347142D02*
X86779285Y-139418571D01*
X87136428Y-139418571D01*
X87279285Y-139347142D01*
X87350714Y-139275714D01*
X87422142Y-139132857D01*
X87422142Y-138990000D01*
X87350714Y-138847142D01*
X87279285Y-138775714D01*
X87136428Y-138704285D01*
X86850714Y-138632857D01*
X86707857Y-138561428D01*
X86636428Y-138490000D01*
X86565000Y-138347142D01*
X86565000Y-138204285D01*
X86636428Y-138061428D01*
X86707857Y-137990000D01*
X86850714Y-137918571D01*
X87207857Y-137918571D01*
X87422142Y-137990000D01*
X88350714Y-137918571D02*
X88636428Y-137918571D01*
X88779285Y-137990000D01*
X88922142Y-138132857D01*
X88993571Y-138418571D01*
X88993571Y-138918571D01*
X88922142Y-139204285D01*
X88779285Y-139347142D01*
X88636428Y-139418571D01*
X88350714Y-139418571D01*
X88207857Y-139347142D01*
X88065000Y-139204285D01*
X87993571Y-138918571D01*
X87993571Y-138418571D01*
X88065000Y-138132857D01*
X88207857Y-137990000D01*
X88350714Y-137918571D01*
X90350714Y-139418571D02*
X89636428Y-139418571D01*
X89636428Y-137918571D01*
X90850714Y-139418571D02*
X90850714Y-137918571D01*
X91207857Y-137918571D01*
X91422142Y-137990000D01*
X91565000Y-138132857D01*
X91636428Y-138275714D01*
X91707857Y-138561428D01*
X91707857Y-138775714D01*
X91636428Y-139061428D01*
X91565000Y-139204285D01*
X91422142Y-139347142D01*
X91207857Y-139418571D01*
X90850714Y-139418571D01*
X92350714Y-138632857D02*
X92850714Y-138632857D01*
X93065000Y-139418571D02*
X92350714Y-139418571D01*
X92350714Y-137918571D01*
X93065000Y-137918571D01*
X94565000Y-139418571D02*
X94065000Y-138704285D01*
X93707857Y-139418571D02*
X93707857Y-137918571D01*
X94279285Y-137918571D01*
X94422142Y-137990000D01*
X94493571Y-138061428D01*
X94565000Y-138204285D01*
X94565000Y-138418571D01*
X94493571Y-138561428D01*
X94422142Y-138632857D01*
X94279285Y-138704285D01*
X93707857Y-138704285D01*
X96350714Y-139418571D02*
X96350714Y-137918571D01*
X96850714Y-138990000D01*
X97350714Y-137918571D01*
X97350714Y-139418571D01*
X97993571Y-138990000D02*
X98707857Y-138990000D01*
X97850714Y-139418571D02*
X98350714Y-137918571D01*
X98850714Y-139418571D01*
X99279285Y-139347142D02*
X99493571Y-139418571D01*
X99850714Y-139418571D01*
X99993571Y-139347142D01*
X100065000Y-139275714D01*
X100136428Y-139132857D01*
X100136428Y-138990000D01*
X100065000Y-138847142D01*
X99993571Y-138775714D01*
X99850714Y-138704285D01*
X99565000Y-138632857D01*
X99422142Y-138561428D01*
X99350714Y-138490000D01*
X99279285Y-138347142D01*
X99279285Y-138204285D01*
X99350714Y-138061428D01*
X99422142Y-137990000D01*
X99565000Y-137918571D01*
X99922142Y-137918571D01*
X100136428Y-137990000D01*
X100779285Y-139418571D02*
X100779285Y-137918571D01*
X101636428Y-139418571D02*
X100993571Y-138561428D01*
X101636428Y-137918571D02*
X100779285Y-138775714D01*
X103279285Y-137918571D02*
X103636428Y-139418571D01*
X103922142Y-138347142D01*
X104207857Y-139418571D01*
X104565000Y-137918571D01*
X105136428Y-139418571D02*
X105136428Y-137918571D01*
X105636428Y-137918571D02*
X106493571Y-137918571D01*
X106065000Y-139418571D02*
X106065000Y-137918571D01*
X106993571Y-139418571D02*
X106993571Y-137918571D01*
X106993571Y-138632857D02*
X107850714Y-138632857D01*
X107850714Y-139418571D02*
X107850714Y-137918571D01*
X109565000Y-137918571D02*
X109922142Y-139418571D01*
X110207857Y-138347142D01*
X110493571Y-139418571D01*
X110850714Y-137918571D01*
X111422142Y-139418571D02*
X111422142Y-137918571D01*
X111422142Y-138632857D02*
X112279285Y-138632857D01*
X112279285Y-139418571D02*
X112279285Y-137918571D01*
X112993571Y-139418571D02*
X112993571Y-137918571D01*
X113493571Y-137918571D02*
X114350714Y-137918571D01*
X113922142Y-139418571D02*
X113922142Y-137918571D01*
X114850714Y-138632857D02*
X115350714Y-138632857D01*
X115565000Y-139418571D02*
X114850714Y-139418571D01*
X114850714Y-137918571D01*
X115565000Y-137918571D01*
X117279285Y-139347142D02*
X117493571Y-139418571D01*
X117850714Y-139418571D01*
X117993571Y-139347142D01*
X118065000Y-139275714D01*
X118136428Y-139132857D01*
X118136428Y-138990000D01*
X118065000Y-138847142D01*
X117993571Y-138775714D01*
X117850714Y-138704285D01*
X117565000Y-138632857D01*
X117422142Y-138561428D01*
X117350714Y-138490000D01*
X117279285Y-138347142D01*
X117279285Y-138204285D01*
X117350714Y-138061428D01*
X117422142Y-137990000D01*
X117565000Y-137918571D01*
X117922142Y-137918571D01*
X118136428Y-137990000D01*
X118779285Y-139418571D02*
X118779285Y-137918571D01*
X120207857Y-139418571D02*
X119493571Y-139418571D01*
X119493571Y-137918571D01*
X120707857Y-139418571D02*
X120707857Y-137918571D01*
X121565000Y-139418571D02*
X120922142Y-138561428D01*
X121565000Y-137918571D02*
X120707857Y-138775714D01*
X122136428Y-139347142D02*
X122350714Y-139418571D01*
X122707857Y-139418571D01*
X122850714Y-139347142D01*
X122922142Y-139275714D01*
X122993571Y-139132857D01*
X122993571Y-138990000D01*
X122922142Y-138847142D01*
X122850714Y-138775714D01*
X122707857Y-138704285D01*
X122422142Y-138632857D01*
X122279285Y-138561428D01*
X122207857Y-138490000D01*
X122136428Y-138347142D01*
X122136428Y-138204285D01*
X122207857Y-138061428D01*
X122279285Y-137990000D01*
X122422142Y-137918571D01*
X122779285Y-137918571D01*
X122993571Y-137990000D01*
X124493571Y-139275714D02*
X124422142Y-139347142D01*
X124207857Y-139418571D01*
X124065000Y-139418571D01*
X123850714Y-139347142D01*
X123707857Y-139204285D01*
X123636428Y-139061428D01*
X123565000Y-138775714D01*
X123565000Y-138561428D01*
X123636428Y-138275714D01*
X123707857Y-138132857D01*
X123850714Y-137990000D01*
X124065000Y-137918571D01*
X124207857Y-137918571D01*
X124422142Y-137990000D01*
X124493571Y-138061428D01*
X125993571Y-139418571D02*
X125493571Y-138704285D01*
X125136428Y-139418571D02*
X125136428Y-137918571D01*
X125707857Y-137918571D01*
X125850714Y-137990000D01*
X125922142Y-138061428D01*
X125993571Y-138204285D01*
X125993571Y-138418571D01*
X125922142Y-138561428D01*
X125850714Y-138632857D01*
X125707857Y-138704285D01*
X125136428Y-138704285D01*
X126636428Y-138632857D02*
X127136428Y-138632857D01*
X127350714Y-139418571D02*
X126636428Y-139418571D01*
X126636428Y-137918571D01*
X127350714Y-137918571D01*
X127993571Y-138632857D02*
X128493571Y-138632857D01*
X128707857Y-139418571D02*
X127993571Y-139418571D01*
X127993571Y-137918571D01*
X128707857Y-137918571D01*
X129350714Y-139418571D02*
X129350714Y-137918571D01*
X130207857Y-139418571D01*
X130207857Y-137918571D01*
X68065000Y-140468571D02*
X67779285Y-140468571D01*
X67636428Y-140540000D01*
X67565000Y-140611428D01*
X67422142Y-140825714D01*
X67350714Y-141111428D01*
X67350714Y-141682857D01*
X67422142Y-141825714D01*
X67493571Y-141897142D01*
X67636428Y-141968571D01*
X67922142Y-141968571D01*
X68065000Y-141897142D01*
X68136428Y-141825714D01*
X68207857Y-141682857D01*
X68207857Y-141325714D01*
X68136428Y-141182857D01*
X68065000Y-141111428D01*
X67922142Y-141040000D01*
X67636428Y-141040000D01*
X67493571Y-141111428D01*
X67422142Y-141182857D01*
X67350714Y-141325714D01*
X68850714Y-141825714D02*
X68922142Y-141897142D01*
X68850714Y-141968571D01*
X68779285Y-141897142D01*
X68850714Y-141825714D01*
X68850714Y-141968571D01*
X70636428Y-141897142D02*
X70850714Y-141968571D01*
X71207857Y-141968571D01*
X71350714Y-141897142D01*
X71422142Y-141825714D01*
X71493571Y-141682857D01*
X71493571Y-141540000D01*
X71422142Y-141397142D01*
X71350714Y-141325714D01*
X71207857Y-141254285D01*
X70922142Y-141182857D01*
X70779285Y-141111428D01*
X70707857Y-141040000D01*
X70636428Y-140897142D01*
X70636428Y-140754285D01*
X70707857Y-140611428D01*
X70779285Y-140540000D01*
X70922142Y-140468571D01*
X71279285Y-140468571D01*
X71493571Y-140540000D01*
X72422142Y-140468571D02*
X72707857Y-140468571D01*
X72850714Y-140540000D01*
X72993571Y-140682857D01*
X73065000Y-140968571D01*
X73065000Y-141468571D01*
X72993571Y-141754285D01*
X72850714Y-141897142D01*
X72707857Y-141968571D01*
X72422142Y-141968571D01*
X72279285Y-141897142D01*
X72136428Y-141754285D01*
X72065000Y-141468571D01*
X72065000Y-140968571D01*
X72136428Y-140682857D01*
X72279285Y-140540000D01*
X72422142Y-140468571D01*
X74422142Y-141968571D02*
X73707857Y-141968571D01*
X73707857Y-140468571D01*
X74922142Y-141968571D02*
X74922142Y-140468571D01*
X75279285Y-140468571D01*
X75493571Y-140540000D01*
X75636428Y-140682857D01*
X75707857Y-140825714D01*
X75779285Y-141111428D01*
X75779285Y-141325714D01*
X75707857Y-141611428D01*
X75636428Y-141754285D01*
X75493571Y-141897142D01*
X75279285Y-141968571D01*
X74922142Y-141968571D01*
X76422142Y-141182857D02*
X76922142Y-141182857D01*
X77136428Y-141968571D02*
X76422142Y-141968571D01*
X76422142Y-140468571D01*
X77136428Y-140468571D01*
X78636428Y-141968571D02*
X78136428Y-141254285D01*
X77779285Y-141968571D02*
X77779285Y-140468571D01*
X78350714Y-140468571D01*
X78493571Y-140540000D01*
X78565000Y-140611428D01*
X78636428Y-140754285D01*
X78636428Y-140968571D01*
X78565000Y-141111428D01*
X78493571Y-141182857D01*
X78350714Y-141254285D01*
X77779285Y-141254285D01*
X80422142Y-141968571D02*
X80422142Y-140468571D01*
X80993571Y-140468571D01*
X81136428Y-140540000D01*
X81207857Y-140611428D01*
X81279285Y-140754285D01*
X81279285Y-140968571D01*
X81207857Y-141111428D01*
X81136428Y-141182857D01*
X80993571Y-141254285D01*
X80422142Y-141254285D01*
X81850714Y-141540000D02*
X82565000Y-141540000D01*
X81707857Y-141968571D02*
X82207857Y-140468571D01*
X82707857Y-141968571D01*
X83136428Y-141897142D02*
X83350714Y-141968571D01*
X83707857Y-141968571D01*
X83850714Y-141897142D01*
X83922142Y-141825714D01*
X83993571Y-141682857D01*
X83993571Y-141540000D01*
X83922142Y-141397142D01*
X83850714Y-141325714D01*
X83707857Y-141254285D01*
X83422142Y-141182857D01*
X83279285Y-141111428D01*
X83207857Y-141040000D01*
X83136428Y-140897142D01*
X83136428Y-140754285D01*
X83207857Y-140611428D01*
X83279285Y-140540000D01*
X83422142Y-140468571D01*
X83779285Y-140468571D01*
X83993571Y-140540000D01*
X84422142Y-140468571D02*
X85279285Y-140468571D01*
X84850714Y-141968571D02*
X84850714Y-140468571D01*
X85779285Y-141182857D02*
X86279285Y-141182857D01*
X86493571Y-141968571D02*
X85779285Y-141968571D01*
X85779285Y-140468571D01*
X86493571Y-140468571D01*
X88279285Y-141968571D02*
X88279285Y-140468571D01*
X88779285Y-141540000D01*
X89279285Y-140468571D01*
X89279285Y-141968571D01*
X89993571Y-140468571D02*
X89993571Y-141682857D01*
X90065000Y-141825714D01*
X90136428Y-141897142D01*
X90279285Y-141968571D01*
X90565000Y-141968571D01*
X90707857Y-141897142D01*
X90779285Y-141825714D01*
X90850714Y-141682857D01*
X90850714Y-140468571D01*
X91493571Y-141897142D02*
X91707857Y-141968571D01*
X92065000Y-141968571D01*
X92207857Y-141897142D01*
X92279285Y-141825714D01*
X92350714Y-141682857D01*
X92350714Y-141540000D01*
X92279285Y-141397142D01*
X92207857Y-141325714D01*
X92065000Y-141254285D01*
X91779285Y-141182857D01*
X91636428Y-141111428D01*
X91565000Y-141040000D01*
X91493571Y-140897142D01*
X91493571Y-140754285D01*
X91565000Y-140611428D01*
X91636428Y-140540000D01*
X91779285Y-140468571D01*
X92136428Y-140468571D01*
X92350714Y-140540000D01*
X92779285Y-140468571D02*
X93636428Y-140468571D01*
X93207857Y-141968571D02*
X93207857Y-140468571D01*
X95779285Y-141182857D02*
X95993571Y-141254285D01*
X96064999Y-141325714D01*
X96136428Y-141468571D01*
X96136428Y-141682857D01*
X96064999Y-141825714D01*
X95993571Y-141897142D01*
X95850714Y-141968571D01*
X95279285Y-141968571D01*
X95279285Y-140468571D01*
X95779285Y-140468571D01*
X95922142Y-140540000D01*
X95993571Y-140611428D01*
X96064999Y-140754285D01*
X96064999Y-140897142D01*
X95993571Y-141040000D01*
X95922142Y-141111428D01*
X95779285Y-141182857D01*
X95279285Y-141182857D01*
X96779285Y-141182857D02*
X97279285Y-141182857D01*
X97493571Y-141968571D02*
X96779285Y-141968571D01*
X96779285Y-140468571D01*
X97493571Y-140468571D01*
X100136428Y-141968571D02*
X99636428Y-141254285D01*
X99279285Y-141968571D02*
X99279285Y-140468571D01*
X99850714Y-140468571D01*
X99993571Y-140540000D01*
X100064999Y-140611428D01*
X100136428Y-140754285D01*
X100136428Y-140968571D01*
X100064999Y-141111428D01*
X99993571Y-141182857D01*
X99850714Y-141254285D01*
X99279285Y-141254285D01*
X101065000Y-140468571D02*
X101350714Y-140468571D01*
X101493571Y-140540000D01*
X101636428Y-140682857D01*
X101707857Y-140968571D01*
X101707857Y-141468571D01*
X101636428Y-141754285D01*
X101493571Y-141897142D01*
X101350714Y-141968571D01*
X101065000Y-141968571D01*
X100922142Y-141897142D01*
X100779285Y-141754285D01*
X100707857Y-141468571D01*
X100707857Y-140968571D01*
X100779285Y-140682857D01*
X100922142Y-140540000D01*
X101065000Y-140468571D01*
X102350714Y-141968571D02*
X102350714Y-140468571D01*
X102350714Y-141182857D02*
X103207857Y-141182857D01*
X103207857Y-141968571D02*
X103207857Y-140468571D01*
X103850714Y-141897142D02*
X104065000Y-141968571D01*
X104422142Y-141968571D01*
X104565000Y-141897142D01*
X104636428Y-141825714D01*
X104707857Y-141682857D01*
X104707857Y-141540000D01*
X104636428Y-141397142D01*
X104565000Y-141325714D01*
X104422142Y-141254285D01*
X104136428Y-141182857D01*
X103993571Y-141111428D01*
X103922142Y-141040000D01*
X103850714Y-140897142D01*
X103850714Y-140754285D01*
X103922142Y-140611428D01*
X103993571Y-140540000D01*
X104136428Y-140468571D01*
X104493571Y-140468571D01*
X104707857Y-140540000D01*
X107350714Y-141825714D02*
X107279285Y-141897142D01*
X107064999Y-141968571D01*
X106922142Y-141968571D01*
X106707857Y-141897142D01*
X106564999Y-141754285D01*
X106493571Y-141611428D01*
X106422142Y-141325714D01*
X106422142Y-141111428D01*
X106493571Y-140825714D01*
X106564999Y-140682857D01*
X106707857Y-140540000D01*
X106922142Y-140468571D01*
X107064999Y-140468571D01*
X107279285Y-140540000D01*
X107350714Y-140611428D01*
X108279285Y-140468571D02*
X108564999Y-140468571D01*
X108707857Y-140540000D01*
X108850714Y-140682857D01*
X108922142Y-140968571D01*
X108922142Y-141468571D01*
X108850714Y-141754285D01*
X108707857Y-141897142D01*
X108564999Y-141968571D01*
X108279285Y-141968571D01*
X108136428Y-141897142D01*
X107993571Y-141754285D01*
X107922142Y-141468571D01*
X107922142Y-140968571D01*
X107993571Y-140682857D01*
X108136428Y-140540000D01*
X108279285Y-140468571D01*
X109565000Y-141968571D02*
X109565000Y-140468571D01*
X110065000Y-141540000D01*
X110565000Y-140468571D01*
X110565000Y-141968571D01*
X111279285Y-141968571D02*
X111279285Y-140468571D01*
X111850714Y-140468571D01*
X111993571Y-140540000D01*
X112065000Y-140611428D01*
X112136428Y-140754285D01*
X112136428Y-140968571D01*
X112065000Y-141111428D01*
X111993571Y-141182857D01*
X111850714Y-141254285D01*
X111279285Y-141254285D01*
X113493571Y-141968571D02*
X112779285Y-141968571D01*
X112779285Y-140468571D01*
X113993571Y-141968571D02*
X113993571Y-140468571D01*
X114636428Y-141540000D02*
X115350714Y-141540000D01*
X114493571Y-141968571D02*
X114993571Y-140468571D01*
X115493571Y-141968571D01*
X115993571Y-141968571D02*
X115993571Y-140468571D01*
X116850714Y-141968571D01*
X116850714Y-140468571D01*
X117350714Y-140468571D02*
X118207857Y-140468571D01*
X117779285Y-141968571D02*
X117779285Y-140468571D01*
X120279285Y-142540000D02*
X120207857Y-142468571D01*
X120065000Y-142254285D01*
X119993571Y-142111428D01*
X119922142Y-141897142D01*
X119850714Y-141540000D01*
X119850714Y-141254285D01*
X119922142Y-140897142D01*
X119993571Y-140682857D01*
X120065000Y-140540000D01*
X120207857Y-140325714D01*
X120279285Y-140254285D01*
X121565000Y-141968571D02*
X120850714Y-141968571D01*
X120850714Y-140468571D01*
X122065000Y-141182857D02*
X122565000Y-141182857D01*
X122779285Y-141968571D02*
X122065000Y-141968571D01*
X122065000Y-140468571D01*
X122779285Y-140468571D01*
X123350714Y-141540000D02*
X124065000Y-141540000D01*
X123207857Y-141968571D02*
X123707857Y-140468571D01*
X124207857Y-141968571D01*
X124707857Y-141968571D02*
X124707857Y-140468571D01*
X125065000Y-140468571D01*
X125279285Y-140540000D01*
X125422142Y-140682857D01*
X125493571Y-140825714D01*
X125565000Y-141111428D01*
X125565000Y-141325714D01*
X125493571Y-141611428D01*
X125422142Y-141754285D01*
X125279285Y-141897142D01*
X125065000Y-141968571D01*
X124707857Y-141968571D01*
X126207857Y-141397142D02*
X127350714Y-141397142D01*
X128565000Y-141182857D02*
X128065000Y-141182857D01*
X128065000Y-141968571D02*
X128065000Y-140468571D01*
X128779285Y-140468571D01*
X130207857Y-141968571D02*
X129707857Y-141254285D01*
X129350714Y-141968571D02*
X129350714Y-140468571D01*
X129922142Y-140468571D01*
X130065000Y-140540000D01*
X130136428Y-140611428D01*
X130207857Y-140754285D01*
X130207857Y-140968571D01*
X130136428Y-141111428D01*
X130065000Y-141182857D01*
X129922142Y-141254285D01*
X129350714Y-141254285D01*
X130850714Y-141182857D02*
X131350714Y-141182857D01*
X131565000Y-141968571D02*
X130850714Y-141968571D01*
X130850714Y-140468571D01*
X131565000Y-140468571D01*
X132207857Y-141182857D02*
X132707857Y-141182857D01*
X132922142Y-141968571D02*
X132207857Y-141968571D01*
X132207857Y-140468571D01*
X132922142Y-140468571D01*
X133422142Y-142540000D02*
X133493571Y-142468571D01*
X133636428Y-142254285D01*
X133707857Y-142111428D01*
X133779285Y-141897142D01*
X133850714Y-141540000D01*
X133850714Y-141254285D01*
X133779285Y-140897142D01*
X133707857Y-140682857D01*
X133636428Y-140540000D01*
X133493571Y-140325714D01*
X133422142Y-140254285D01*
X67279285Y-143018571D02*
X68279285Y-143018571D01*
X67636428Y-144518571D01*
X68850714Y-144375714D02*
X68922142Y-144447142D01*
X68850714Y-144518571D01*
X68779285Y-144447142D01*
X68850714Y-144375714D01*
X68850714Y-144518571D01*
X70707857Y-144518571D02*
X70707857Y-143018571D01*
X71565000Y-144518571D01*
X71565000Y-143018571D01*
X72565000Y-143018571D02*
X72850714Y-143018571D01*
X72993571Y-143090000D01*
X73136428Y-143232857D01*
X73207857Y-143518571D01*
X73207857Y-144018571D01*
X73136428Y-144304285D01*
X72993571Y-144447142D01*
X72850714Y-144518571D01*
X72565000Y-144518571D01*
X72422142Y-144447142D01*
X72279285Y-144304285D01*
X72207857Y-144018571D01*
X72207857Y-143518571D01*
X72279285Y-143232857D01*
X72422142Y-143090000D01*
X72565000Y-143018571D01*
X74993571Y-144518571D02*
X74993571Y-143018571D01*
X75493571Y-144090000D01*
X75993571Y-143018571D01*
X75993571Y-144518571D01*
X76636428Y-144090000D02*
X77350714Y-144090000D01*
X76493571Y-144518571D02*
X76993571Y-143018571D01*
X77493571Y-144518571D01*
X78850714Y-144518571D02*
X78350714Y-143804285D01*
X77993571Y-144518571D02*
X77993571Y-143018571D01*
X78565000Y-143018571D01*
X78707857Y-143090000D01*
X78779285Y-143161428D01*
X78850714Y-143304285D01*
X78850714Y-143518571D01*
X78779285Y-143661428D01*
X78707857Y-143732857D01*
X78565000Y-143804285D01*
X77993571Y-143804285D01*
X79493571Y-144518571D02*
X79493571Y-143018571D01*
X80350714Y-144518571D02*
X79707857Y-143661428D01*
X80350714Y-143018571D02*
X79493571Y-143875714D01*
X80922142Y-144447142D02*
X81136428Y-144518571D01*
X81493571Y-144518571D01*
X81636428Y-144447142D01*
X81707857Y-144375714D01*
X81779285Y-144232857D01*
X81779285Y-144090000D01*
X81707857Y-143947142D01*
X81636428Y-143875714D01*
X81493571Y-143804285D01*
X81207857Y-143732857D01*
X81065000Y-143661428D01*
X80993571Y-143590000D01*
X80922142Y-143447142D01*
X80922142Y-143304285D01*
X80993571Y-143161428D01*
X81065000Y-143090000D01*
X81207857Y-143018571D01*
X81565000Y-143018571D01*
X81779285Y-143090000D01*
X83993571Y-145090000D02*
X83922142Y-145018571D01*
X83779285Y-144804285D01*
X83707857Y-144661428D01*
X83636428Y-144447142D01*
X83565000Y-144090000D01*
X83565000Y-143804285D01*
X83636428Y-143447142D01*
X83707857Y-143232857D01*
X83779285Y-143090000D01*
X83922142Y-142875714D01*
X83993571Y-142804285D01*
X84565000Y-143732857D02*
X85065000Y-143732857D01*
X85279285Y-144518571D02*
X84565000Y-144518571D01*
X84565000Y-143018571D01*
X85279285Y-143018571D01*
X85922142Y-143947142D02*
X87065000Y-143947142D01*
X87565000Y-143018571D02*
X88422142Y-143018571D01*
X87993571Y-144518571D02*
X87993571Y-143018571D01*
X88922142Y-143732857D02*
X89422142Y-143732857D01*
X89636428Y-144518571D02*
X88922142Y-144518571D01*
X88922142Y-143018571D01*
X89636428Y-143018571D01*
X90207857Y-144447142D02*
X90422142Y-144518571D01*
X90779285Y-144518571D01*
X90922142Y-144447142D01*
X90993571Y-144375714D01*
X91065000Y-144232857D01*
X91065000Y-144090000D01*
X90993571Y-143947142D01*
X90922142Y-143875714D01*
X90779285Y-143804285D01*
X90493571Y-143732857D01*
X90350714Y-143661428D01*
X90279285Y-143590000D01*
X90207857Y-143447142D01*
X90207857Y-143304285D01*
X90279285Y-143161428D01*
X90350714Y-143090000D01*
X90493571Y-143018571D01*
X90850714Y-143018571D01*
X91065000Y-143090000D01*
X91493571Y-143018571D02*
X92350714Y-143018571D01*
X91922142Y-144518571D02*
X91922142Y-143018571D01*
X92922142Y-144447142D02*
X92922142Y-144518571D01*
X92850714Y-144661428D01*
X92779285Y-144732857D01*
X95707857Y-144661428D02*
X95565000Y-144590000D01*
X95422142Y-144447142D01*
X95207857Y-144232857D01*
X95065000Y-144161428D01*
X94922142Y-144161428D01*
X94993571Y-144518571D02*
X94850714Y-144447142D01*
X94707857Y-144304285D01*
X94636428Y-144018571D01*
X94636428Y-143518571D01*
X94707857Y-143232857D01*
X94850714Y-143090000D01*
X94993571Y-143018571D01*
X95279285Y-143018571D01*
X95422142Y-143090000D01*
X95565000Y-143232857D01*
X95636428Y-143518571D01*
X95636428Y-144018571D01*
X95565000Y-144304285D01*
X95422142Y-144447142D01*
X95279285Y-144518571D01*
X94993571Y-144518571D01*
X96207857Y-144090000D02*
X96922142Y-144090000D01*
X96065000Y-144518571D02*
X96565000Y-143018571D01*
X97065000Y-144518571D01*
X97636428Y-144447142D02*
X97636428Y-144518571D01*
X97565000Y-144661428D01*
X97493571Y-144732857D01*
X99350714Y-144447142D02*
X99565000Y-144518571D01*
X99922142Y-144518571D01*
X100065000Y-144447142D01*
X100136428Y-144375714D01*
X100207857Y-144232857D01*
X100207857Y-144090000D01*
X100136428Y-143947142D01*
X100065000Y-143875714D01*
X99922142Y-143804285D01*
X99636428Y-143732857D01*
X99493571Y-143661428D01*
X99422142Y-143590000D01*
X99350714Y-143447142D01*
X99350714Y-143304285D01*
X99422142Y-143161428D01*
X99493571Y-143090000D01*
X99636428Y-143018571D01*
X99993571Y-143018571D01*
X100207857Y-143090000D01*
X100850714Y-143732857D02*
X101350714Y-143732857D01*
X101565000Y-144518571D02*
X100850714Y-144518571D01*
X100850714Y-143018571D01*
X101565000Y-143018571D01*
X103065000Y-144518571D02*
X102565000Y-143804285D01*
X102207857Y-144518571D02*
X102207857Y-143018571D01*
X102779285Y-143018571D01*
X102922142Y-143090000D01*
X102993571Y-143161428D01*
X103065000Y-143304285D01*
X103065000Y-143518571D01*
X102993571Y-143661428D01*
X102922142Y-143732857D01*
X102779285Y-143804285D01*
X102207857Y-143804285D01*
X103707857Y-144518571D02*
X103707857Y-143018571D01*
X104350714Y-144090000D02*
X105065000Y-144090000D01*
X104207857Y-144518571D02*
X104707857Y-143018571D01*
X105207857Y-144518571D01*
X106422142Y-144518571D02*
X105707857Y-144518571D01*
X105707857Y-143018571D01*
X108065000Y-144518571D02*
X108065000Y-143018571D01*
X108922142Y-144518571D01*
X108922142Y-143018571D01*
X109636428Y-143018571D02*
X109636428Y-144232857D01*
X109707857Y-144375714D01*
X109779285Y-144447142D01*
X109922142Y-144518571D01*
X110207857Y-144518571D01*
X110350714Y-144447142D01*
X110422142Y-144375714D01*
X110493571Y-144232857D01*
X110493571Y-143018571D01*
X111207857Y-144518571D02*
X111207857Y-143018571D01*
X111707857Y-144090000D01*
X112207857Y-143018571D01*
X112207857Y-144518571D01*
X113422142Y-143732857D02*
X113636428Y-143804285D01*
X113707857Y-143875714D01*
X113779285Y-144018571D01*
X113779285Y-144232857D01*
X113707857Y-144375714D01*
X113636428Y-144447142D01*
X113493571Y-144518571D01*
X112922142Y-144518571D01*
X112922142Y-143018571D01*
X113422142Y-143018571D01*
X113565000Y-143090000D01*
X113636428Y-143161428D01*
X113707857Y-143304285D01*
X113707857Y-143447142D01*
X113636428Y-143590000D01*
X113565000Y-143661428D01*
X113422142Y-143732857D01*
X112922142Y-143732857D01*
X114422142Y-143732857D02*
X114922142Y-143732857D01*
X115136428Y-144518571D02*
X114422142Y-144518571D01*
X114422142Y-143018571D01*
X115136428Y-143018571D01*
X116636428Y-144518571D02*
X116136428Y-143804285D01*
X115779285Y-144518571D02*
X115779285Y-143018571D01*
X116350714Y-143018571D01*
X116493571Y-143090000D01*
X116565000Y-143161428D01*
X116636428Y-143304285D01*
X116636428Y-143518571D01*
X116565000Y-143661428D01*
X116493571Y-143732857D01*
X116350714Y-143804285D01*
X115779285Y-143804285D01*
X117350714Y-144447142D02*
X117350714Y-144518571D01*
X117279285Y-144661428D01*
X117207857Y-144732857D01*
X119136428Y-143732857D02*
X119636428Y-143732857D01*
X119850714Y-144518571D02*
X119136428Y-144518571D01*
X119136428Y-143018571D01*
X119850714Y-143018571D01*
X120279285Y-143018571D02*
X121136428Y-143018571D01*
X120707857Y-144518571D02*
X120707857Y-143018571D01*
X122493571Y-144375714D02*
X122422142Y-144447142D01*
X122207857Y-144518571D01*
X122065000Y-144518571D01*
X121850714Y-144447142D01*
X121707857Y-144304285D01*
X121636428Y-144161428D01*
X121565000Y-143875714D01*
X121565000Y-143661428D01*
X121636428Y-143375714D01*
X121707857Y-143232857D01*
X121850714Y-143090000D01*
X122065000Y-143018571D01*
X122207857Y-143018571D01*
X122422142Y-143090000D01*
X122493571Y-143161428D01*
X122993571Y-145090000D02*
X123065000Y-145018571D01*
X123207857Y-144804285D01*
X123279285Y-144661428D01*
X123350714Y-144447142D01*
X123422142Y-144090000D01*
X123422142Y-143804285D01*
X123350714Y-143447142D01*
X123279285Y-143232857D01*
X123207857Y-143090000D01*
X123065000Y-142875714D01*
X122993571Y-142804285D01*
X125565000Y-143018571D02*
X125850714Y-143018571D01*
X125993571Y-143090000D01*
X126136428Y-143232857D01*
X126207857Y-143518571D01*
X126207857Y-144018571D01*
X126136428Y-144304285D01*
X125993571Y-144447142D01*
X125850714Y-144518571D01*
X125565000Y-144518571D01*
X125422142Y-144447142D01*
X125279285Y-144304285D01*
X125207857Y-144018571D01*
X125207857Y-143518571D01*
X125279285Y-143232857D01*
X125422142Y-143090000D01*
X125565000Y-143018571D01*
X126850714Y-144518571D02*
X126850714Y-143018571D01*
X127707857Y-144518571D01*
X127707857Y-143018571D01*
X130065000Y-143732857D02*
X129565000Y-143732857D01*
X129565000Y-144518571D02*
X129565000Y-143018571D01*
X130279285Y-143018571D01*
X131707857Y-144518571D02*
X131207857Y-143804285D01*
X130850714Y-144518571D02*
X130850714Y-143018571D01*
X131422142Y-143018571D01*
X131565000Y-143090000D01*
X131636428Y-143161428D01*
X131707857Y-143304285D01*
X131707857Y-143518571D01*
X131636428Y-143661428D01*
X131565000Y-143732857D01*
X131422142Y-143804285D01*
X130850714Y-143804285D01*
X132636428Y-143018571D02*
X132922142Y-143018571D01*
X133065000Y-143090000D01*
X133207857Y-143232857D01*
X133279285Y-143518571D01*
X133279285Y-144018571D01*
X133207857Y-144304285D01*
X133065000Y-144447142D01*
X132922142Y-144518571D01*
X132636428Y-144518571D01*
X132493571Y-144447142D01*
X132350714Y-144304285D01*
X132279285Y-144018571D01*
X132279285Y-143518571D01*
X132350714Y-143232857D01*
X132493571Y-143090000D01*
X132636428Y-143018571D01*
X133922142Y-144518571D02*
X133922142Y-143018571D01*
X134779285Y-144518571D01*
X134779285Y-143018571D01*
X135279285Y-143018571D02*
X136136428Y-143018571D01*
X135707857Y-144518571D02*
X135707857Y-143018571D01*
X138207857Y-145090000D02*
X138136428Y-145018571D01*
X137993571Y-144804285D01*
X137922142Y-144661428D01*
X137850714Y-144447142D01*
X137779285Y-144090000D01*
X137779285Y-143804285D01*
X137850714Y-143447142D01*
X137922142Y-143232857D01*
X137993571Y-143090000D01*
X138136428Y-142875714D01*
X138207857Y-142804285D01*
X139493571Y-144518571D02*
X138779285Y-144518571D01*
X138779285Y-143018571D01*
X140279285Y-143018571D02*
X140565000Y-143018571D01*
X140707857Y-143090000D01*
X140850714Y-143232857D01*
X140922142Y-143518571D01*
X140922142Y-144018571D01*
X140850714Y-144304285D01*
X140707857Y-144447142D01*
X140565000Y-144518571D01*
X140279285Y-144518571D01*
X140136428Y-144447142D01*
X139993571Y-144304285D01*
X139922142Y-144018571D01*
X139922142Y-143518571D01*
X139993571Y-143232857D01*
X140136428Y-143090000D01*
X140279285Y-143018571D01*
X142350714Y-143090000D02*
X142207857Y-143018571D01*
X141993571Y-143018571D01*
X141779285Y-143090000D01*
X141636428Y-143232857D01*
X141565000Y-143375714D01*
X141493571Y-143661428D01*
X141493571Y-143875714D01*
X141565000Y-144161428D01*
X141636428Y-144304285D01*
X141779285Y-144447142D01*
X141993571Y-144518571D01*
X142136428Y-144518571D01*
X142350714Y-144447142D01*
X142422142Y-144375714D01*
X142422142Y-143875714D01*
X142136428Y-143875714D01*
X143350714Y-143018571D02*
X143636428Y-143018571D01*
X143779285Y-143090000D01*
X143922142Y-143232857D01*
X143993571Y-143518571D01*
X143993571Y-144018571D01*
X143922142Y-144304285D01*
X143779285Y-144447142D01*
X143636428Y-144518571D01*
X143350714Y-144518571D01*
X143207857Y-144447142D01*
X143065000Y-144304285D01*
X142993571Y-144018571D01*
X142993571Y-143518571D01*
X143065000Y-143232857D01*
X143207857Y-143090000D01*
X143350714Y-143018571D01*
X145707857Y-144447142D02*
X145922142Y-144518571D01*
X146279285Y-144518571D01*
X146422142Y-144447142D01*
X146493571Y-144375714D01*
X146565000Y-144232857D01*
X146565000Y-144090000D01*
X146493571Y-143947142D01*
X146422142Y-143875714D01*
X146279285Y-143804285D01*
X145993571Y-143732857D01*
X145850714Y-143661428D01*
X145779285Y-143590000D01*
X145707857Y-143447142D01*
X145707857Y-143304285D01*
X145779285Y-143161428D01*
X145850714Y-143090000D01*
X145993571Y-143018571D01*
X146350714Y-143018571D01*
X146565000Y-143090000D01*
X147207857Y-144518571D02*
X147207857Y-143018571D01*
X147922142Y-144518571D02*
X147922142Y-143018571D01*
X148279285Y-143018571D01*
X148493571Y-143090000D01*
X148636428Y-143232857D01*
X148707857Y-143375714D01*
X148779285Y-143661428D01*
X148779285Y-143875714D01*
X148707857Y-144161428D01*
X148636428Y-144304285D01*
X148493571Y-144447142D01*
X148279285Y-144518571D01*
X147922142Y-144518571D01*
X149422142Y-143732857D02*
X149922142Y-143732857D01*
X150136428Y-144518571D02*
X149422142Y-144518571D01*
X149422142Y-143018571D01*
X150136428Y-143018571D01*
X150636428Y-145090000D02*
X150707857Y-145018571D01*
X150850714Y-144804285D01*
X150922142Y-144661428D01*
X150993571Y-144447142D01*
X151065000Y-144090000D01*
X151065000Y-143804285D01*
X150993571Y-143447142D01*
X150922142Y-143232857D01*
X150850714Y-143090000D01*
X150707857Y-142875714D01*
X150636428Y-142804285D01*
X153207857Y-143018571D02*
X153493571Y-143018571D01*
X153636428Y-143090000D01*
X153779285Y-143232857D01*
X153850714Y-143518571D01*
X153850714Y-144018571D01*
X153779285Y-144304285D01*
X153636428Y-144447142D01*
X153493571Y-144518571D01*
X153207857Y-144518571D01*
X153065000Y-144447142D01*
X152922142Y-144304285D01*
X152850714Y-144018571D01*
X152850714Y-143518571D01*
X152922142Y-143232857D01*
X153065000Y-143090000D01*
X153207857Y-143018571D01*
X154993571Y-143732857D02*
X154493571Y-143732857D01*
X154493571Y-144518571D02*
X154493571Y-143018571D01*
X155207857Y-143018571D01*
X157422142Y-143732857D02*
X157636428Y-143804285D01*
X157707857Y-143875714D01*
X157779285Y-144018571D01*
X157779285Y-144232857D01*
X157707857Y-144375714D01*
X157636428Y-144447142D01*
X157493571Y-144518571D01*
X156922142Y-144518571D01*
X156922142Y-143018571D01*
X157422142Y-143018571D01*
X157565000Y-143090000D01*
X157636428Y-143161428D01*
X157707857Y-143304285D01*
X157707857Y-143447142D01*
X157636428Y-143590000D01*
X157565000Y-143661428D01*
X157422142Y-143732857D01*
X156922142Y-143732857D01*
X158707857Y-143018571D02*
X158993571Y-143018571D01*
X159136428Y-143090000D01*
X159279285Y-143232857D01*
X159350714Y-143518571D01*
X159350714Y-144018571D01*
X159279285Y-144304285D01*
X159136428Y-144447142D01*
X158993571Y-144518571D01*
X158707857Y-144518571D01*
X158565000Y-144447142D01*
X158422142Y-144304285D01*
X158350714Y-144018571D01*
X158350714Y-143518571D01*
X158422142Y-143232857D01*
X158565000Y-143090000D01*
X158707857Y-143018571D01*
X159922142Y-144090000D02*
X160636428Y-144090000D01*
X159779285Y-144518571D02*
X160279285Y-143018571D01*
X160779285Y-144518571D01*
X162136428Y-144518571D02*
X161636428Y-143804285D01*
X161279285Y-144518571D02*
X161279285Y-143018571D01*
X161850714Y-143018571D01*
X161993571Y-143090000D01*
X162065000Y-143161428D01*
X162136428Y-143304285D01*
X162136428Y-143518571D01*
X162065000Y-143661428D01*
X161993571Y-143732857D01*
X161850714Y-143804285D01*
X161279285Y-143804285D01*
X162779285Y-144518571D02*
X162779285Y-143018571D01*
X163136428Y-143018571D01*
X163350714Y-143090000D01*
X163493571Y-143232857D01*
X163565000Y-143375714D01*
X163636428Y-143661428D01*
X163636428Y-143875714D01*
X163565000Y-144161428D01*
X163493571Y-144304285D01*
X163350714Y-144447142D01*
X163136428Y-144518571D01*
X162779285Y-144518571D01*
X67636428Y-146211428D02*
X67493571Y-146140000D01*
X67422142Y-146068571D01*
X67350714Y-145925714D01*
X67350714Y-145854285D01*
X67422142Y-145711428D01*
X67493571Y-145640000D01*
X67636428Y-145568571D01*
X67922142Y-145568571D01*
X68065000Y-145640000D01*
X68136428Y-145711428D01*
X68207857Y-145854285D01*
X68207857Y-145925714D01*
X68136428Y-146068571D01*
X68065000Y-146140000D01*
X67922142Y-146211428D01*
X67636428Y-146211428D01*
X67493571Y-146282857D01*
X67422142Y-146354285D01*
X67350714Y-146497142D01*
X67350714Y-146782857D01*
X67422142Y-146925714D01*
X67493571Y-146997142D01*
X67636428Y-147068571D01*
X67922142Y-147068571D01*
X68065000Y-146997142D01*
X68136428Y-146925714D01*
X68207857Y-146782857D01*
X68207857Y-146497142D01*
X68136428Y-146354285D01*
X68065000Y-146282857D01*
X67922142Y-146211428D01*
X68850714Y-146925714D02*
X68922142Y-146997142D01*
X68850714Y-147068571D01*
X68779285Y-146997142D01*
X68850714Y-146925714D01*
X68850714Y-147068571D01*
X71207857Y-146282857D02*
X71422142Y-146354285D01*
X71493571Y-146425714D01*
X71565000Y-146568571D01*
X71565000Y-146782857D01*
X71493571Y-146925714D01*
X71422142Y-146997142D01*
X71279285Y-147068571D01*
X70707857Y-147068571D01*
X70707857Y-145568571D01*
X71207857Y-145568571D01*
X71350714Y-145640000D01*
X71422142Y-145711428D01*
X71493571Y-145854285D01*
X71493571Y-145997142D01*
X71422142Y-146140000D01*
X71350714Y-146211428D01*
X71207857Y-146282857D01*
X70707857Y-146282857D01*
X72493571Y-145568571D02*
X72779285Y-145568571D01*
X72922142Y-145640000D01*
X73065000Y-145782857D01*
X73136428Y-146068571D01*
X73136428Y-146568571D01*
X73065000Y-146854285D01*
X72922142Y-146997142D01*
X72779285Y-147068571D01*
X72493571Y-147068571D01*
X72350714Y-146997142D01*
X72207857Y-146854285D01*
X72136428Y-146568571D01*
X72136428Y-146068571D01*
X72207857Y-145782857D01*
X72350714Y-145640000D01*
X72493571Y-145568571D01*
X73707857Y-146640000D02*
X74422142Y-146640000D01*
X73565000Y-147068571D02*
X74065000Y-145568571D01*
X74565000Y-147068571D01*
X75922142Y-147068571D02*
X75422142Y-146354285D01*
X75065000Y-147068571D02*
X75065000Y-145568571D01*
X75636428Y-145568571D01*
X75779285Y-145640000D01*
X75850714Y-145711428D01*
X75922142Y-145854285D01*
X75922142Y-146068571D01*
X75850714Y-146211428D01*
X75779285Y-146282857D01*
X75636428Y-146354285D01*
X75065000Y-146354285D01*
X76565000Y-147068571D02*
X76565000Y-145568571D01*
X76922142Y-145568571D01*
X77136428Y-145640000D01*
X77279285Y-145782857D01*
X77350714Y-145925714D01*
X77422142Y-146211428D01*
X77422142Y-146425714D01*
X77350714Y-146711428D01*
X77279285Y-146854285D01*
X77136428Y-146997142D01*
X76922142Y-147068571D01*
X76565000Y-147068571D01*
X77993571Y-146997142D02*
X78207857Y-147068571D01*
X78565000Y-147068571D01*
X78707857Y-146997142D01*
X78779285Y-146925714D01*
X78850714Y-146782857D01*
X78850714Y-146640000D01*
X78779285Y-146497142D01*
X78707857Y-146425714D01*
X78565000Y-146354285D01*
X78279285Y-146282857D01*
X78136428Y-146211428D01*
X78065000Y-146140000D01*
X77993571Y-145997142D01*
X77993571Y-145854285D01*
X78065000Y-145711428D01*
X78136428Y-145640000D01*
X78279285Y-145568571D01*
X78636428Y-145568571D01*
X78850714Y-145640000D01*
X80422142Y-145568571D02*
X81279285Y-145568571D01*
X80850714Y-147068571D02*
X80850714Y-145568571D01*
X82065000Y-145568571D02*
X82350714Y-145568571D01*
X82493571Y-145640000D01*
X82636428Y-145782857D01*
X82707857Y-146068571D01*
X82707857Y-146568571D01*
X82636428Y-146854285D01*
X82493571Y-146997142D01*
X82350714Y-147068571D01*
X82065000Y-147068571D01*
X81922142Y-146997142D01*
X81779285Y-146854285D01*
X81707857Y-146568571D01*
X81707857Y-146068571D01*
X81779285Y-145782857D01*
X81922142Y-145640000D01*
X82065000Y-145568571D01*
X84993571Y-146282857D02*
X85207857Y-146354285D01*
X85279285Y-146425714D01*
X85350714Y-146568571D01*
X85350714Y-146782857D01*
X85279285Y-146925714D01*
X85207857Y-146997142D01*
X85065000Y-147068571D01*
X84493571Y-147068571D01*
X84493571Y-145568571D01*
X84993571Y-145568571D01*
X85136428Y-145640000D01*
X85207857Y-145711428D01*
X85279285Y-145854285D01*
X85279285Y-145997142D01*
X85207857Y-146140000D01*
X85136428Y-146211428D01*
X84993571Y-146282857D01*
X84493571Y-146282857D01*
X85993571Y-146282857D02*
X86493571Y-146282857D01*
X86707857Y-147068571D02*
X85993571Y-147068571D01*
X85993571Y-145568571D01*
X86707857Y-145568571D01*
X88422142Y-146997142D02*
X88636428Y-147068571D01*
X88993571Y-147068571D01*
X89136428Y-146997142D01*
X89207857Y-146925714D01*
X89279285Y-146782857D01*
X89279285Y-146640000D01*
X89207857Y-146497142D01*
X89136428Y-146425714D01*
X88993571Y-146354285D01*
X88707857Y-146282857D01*
X88565000Y-146211428D01*
X88493571Y-146140000D01*
X88422142Y-145997142D01*
X88422142Y-145854285D01*
X88493571Y-145711428D01*
X88565000Y-145640000D01*
X88707857Y-145568571D01*
X89065000Y-145568571D01*
X89279285Y-145640000D01*
X89922142Y-147068571D02*
X89922142Y-145568571D01*
X89922142Y-146282857D02*
X90779285Y-146282857D01*
X90779285Y-147068571D02*
X90779285Y-145568571D01*
X91493571Y-147068571D02*
X91493571Y-145568571D01*
X92207857Y-147068571D02*
X92207857Y-145568571D01*
X92779285Y-145568571D01*
X92922142Y-145640000D01*
X92993571Y-145711428D01*
X93065000Y-145854285D01*
X93065000Y-146068571D01*
X92993571Y-146211428D01*
X92922142Y-146282857D01*
X92779285Y-146354285D01*
X92207857Y-146354285D01*
X93707857Y-147068571D02*
X93707857Y-145568571D01*
X94279285Y-145568571D01*
X94422142Y-145640000D01*
X94493571Y-145711428D01*
X94565000Y-145854285D01*
X94565000Y-146068571D01*
X94493571Y-146211428D01*
X94422142Y-146282857D01*
X94279285Y-146354285D01*
X93707857Y-146354285D01*
X95207857Y-146282857D02*
X95707857Y-146282857D01*
X95922142Y-147068571D02*
X95207857Y-147068571D01*
X95207857Y-145568571D01*
X95922142Y-145568571D01*
X96565000Y-147068571D02*
X96565000Y-145568571D01*
X96922142Y-145568571D01*
X97136428Y-145640000D01*
X97279285Y-145782857D01*
X97350714Y-145925714D01*
X97422142Y-146211428D01*
X97422142Y-146425714D01*
X97350714Y-146711428D01*
X97279285Y-146854285D01*
X97136428Y-146997142D01*
X96922142Y-147068571D01*
X96565000Y-147068571D01*
X99207857Y-147068571D02*
X99207857Y-145568571D01*
X99922142Y-147068571D02*
X99922142Y-145568571D01*
X100779285Y-147068571D01*
X100779285Y-145568571D01*
X103493571Y-146925714D02*
X103422142Y-146997142D01*
X103207857Y-147068571D01*
X103065000Y-147068571D01*
X102850714Y-146997142D01*
X102707857Y-146854285D01*
X102636428Y-146711428D01*
X102565000Y-146425714D01*
X102565000Y-146211428D01*
X102636428Y-145925714D01*
X102707857Y-145782857D01*
X102850714Y-145640000D01*
X103065000Y-145568571D01*
X103207857Y-145568571D01*
X103422142Y-145640000D01*
X103493571Y-145711428D01*
X104136428Y-145568571D02*
X104136428Y-146782857D01*
X104207857Y-146925714D01*
X104279285Y-146997142D01*
X104422142Y-147068571D01*
X104707857Y-147068571D01*
X104850714Y-146997142D01*
X104922142Y-146925714D01*
X104993571Y-146782857D01*
X104993571Y-145568571D01*
X105636428Y-146997142D02*
X105850714Y-147068571D01*
X106207857Y-147068571D01*
X106350714Y-146997142D01*
X106422142Y-146925714D01*
X106493571Y-146782857D01*
X106493571Y-146640000D01*
X106422142Y-146497142D01*
X106350714Y-146425714D01*
X106207857Y-146354285D01*
X105922142Y-146282857D01*
X105779285Y-146211428D01*
X105707857Y-146140000D01*
X105636428Y-145997142D01*
X105636428Y-145854285D01*
X105707857Y-145711428D01*
X105779285Y-145640000D01*
X105922142Y-145568571D01*
X106279285Y-145568571D01*
X106493571Y-145640000D01*
X106922142Y-145568571D02*
X107779285Y-145568571D01*
X107350714Y-147068571D02*
X107350714Y-145568571D01*
X108565000Y-145568571D02*
X108850714Y-145568571D01*
X108993571Y-145640000D01*
X109136428Y-145782857D01*
X109207857Y-146068571D01*
X109207857Y-146568571D01*
X109136428Y-146854285D01*
X108993571Y-146997142D01*
X108850714Y-147068571D01*
X108565000Y-147068571D01*
X108422142Y-146997142D01*
X108279285Y-146854285D01*
X108207857Y-146568571D01*
X108207857Y-146068571D01*
X108279285Y-145782857D01*
X108422142Y-145640000D01*
X108565000Y-145568571D01*
X109850714Y-147068571D02*
X109850714Y-145568571D01*
X110350714Y-146640000D01*
X110850714Y-145568571D01*
X110850714Y-147068571D01*
X111565000Y-146282857D02*
X112065000Y-146282857D01*
X112279285Y-147068571D02*
X111565000Y-147068571D01*
X111565000Y-145568571D01*
X112279285Y-145568571D01*
X113779285Y-147068571D02*
X113279285Y-146354285D01*
X112922142Y-147068571D02*
X112922142Y-145568571D01*
X113493571Y-145568571D01*
X113636428Y-145640000D01*
X113707857Y-145711428D01*
X113779285Y-145854285D01*
X113779285Y-146068571D01*
X113707857Y-146211428D01*
X113636428Y-146282857D01*
X113493571Y-146354285D01*
X112922142Y-146354285D01*
X114422142Y-146497142D02*
X115565000Y-146497142D01*
X116207857Y-146997142D02*
X116422142Y-147068571D01*
X116779285Y-147068571D01*
X116922142Y-146997142D01*
X116993571Y-146925714D01*
X117065000Y-146782857D01*
X117065000Y-146640000D01*
X116993571Y-146497142D01*
X116922142Y-146425714D01*
X116779285Y-146354285D01*
X116493571Y-146282857D01*
X116350714Y-146211428D01*
X116279285Y-146140000D01*
X116207857Y-145997142D01*
X116207857Y-145854285D01*
X116279285Y-145711428D01*
X116350714Y-145640000D01*
X116493571Y-145568571D01*
X116850714Y-145568571D01*
X117065000Y-145640000D01*
X117707857Y-145568571D02*
X117707857Y-146782857D01*
X117779285Y-146925714D01*
X117850714Y-146997142D01*
X117993571Y-147068571D01*
X118279285Y-147068571D01*
X118422142Y-146997142D01*
X118493571Y-146925714D01*
X118565000Y-146782857D01*
X118565000Y-145568571D01*
X119279285Y-147068571D02*
X119279285Y-145568571D01*
X119850714Y-145568571D01*
X119993571Y-145640000D01*
X120065000Y-145711428D01*
X120136428Y-145854285D01*
X120136428Y-146068571D01*
X120065000Y-146211428D01*
X119993571Y-146282857D01*
X119850714Y-146354285D01*
X119279285Y-146354285D01*
X120779285Y-147068571D02*
X120779285Y-145568571D01*
X121350714Y-145568571D01*
X121493571Y-145640000D01*
X121565000Y-145711428D01*
X121636428Y-145854285D01*
X121636428Y-146068571D01*
X121565000Y-146211428D01*
X121493571Y-146282857D01*
X121350714Y-146354285D01*
X120779285Y-146354285D01*
X122993571Y-147068571D02*
X122279285Y-147068571D01*
X122279285Y-145568571D01*
X123493571Y-147068571D02*
X123493571Y-145568571D01*
X124207857Y-146282857D02*
X124707857Y-146282857D01*
X124922142Y-147068571D02*
X124207857Y-147068571D01*
X124207857Y-145568571D01*
X124922142Y-145568571D01*
X125565000Y-147068571D02*
X125565000Y-145568571D01*
X125922142Y-145568571D01*
X126136428Y-145640000D01*
X126279285Y-145782857D01*
X126350714Y-145925714D01*
X126422142Y-146211428D01*
X126422142Y-146425714D01*
X126350714Y-146711428D01*
X126279285Y-146854285D01*
X126136428Y-146997142D01*
X125922142Y-147068571D01*
X125565000Y-147068571D01*
X128707857Y-146282857D02*
X128207857Y-146282857D01*
X128207857Y-147068571D02*
X128207857Y-145568571D01*
X128922142Y-145568571D01*
X129779285Y-145568571D02*
X130065000Y-145568571D01*
X130207857Y-145640000D01*
X130350714Y-145782857D01*
X130422142Y-146068571D01*
X130422142Y-146568571D01*
X130350714Y-146854285D01*
X130207857Y-146997142D01*
X130065000Y-147068571D01*
X129779285Y-147068571D01*
X129636428Y-146997142D01*
X129493571Y-146854285D01*
X129422142Y-146568571D01*
X129422142Y-146068571D01*
X129493571Y-145782857D01*
X129636428Y-145640000D01*
X129779285Y-145568571D01*
X130993571Y-146640000D02*
X131707857Y-146640000D01*
X130850714Y-147068571D02*
X131350714Y-145568571D01*
X131850714Y-147068571D01*
X132350714Y-147068571D02*
X132350714Y-145568571D01*
X132850714Y-146640000D01*
X133350714Y-145568571D01*
X133350714Y-147068571D01*
X134993571Y-145568571D02*
X135850714Y-145568571D01*
X135422142Y-147068571D02*
X135422142Y-145568571D01*
X137207857Y-147068571D02*
X136707857Y-146354285D01*
X136350714Y-147068571D02*
X136350714Y-145568571D01*
X136922142Y-145568571D01*
X137065000Y-145640000D01*
X137136428Y-145711428D01*
X137207857Y-145854285D01*
X137207857Y-146068571D01*
X137136428Y-146211428D01*
X137065000Y-146282857D01*
X136922142Y-146354285D01*
X136350714Y-146354285D01*
X137779285Y-146640000D02*
X138493571Y-146640000D01*
X137636428Y-147068571D02*
X138136428Y-145568571D01*
X138636428Y-147068571D01*
X139422142Y-146354285D02*
X139422142Y-147068571D01*
X138922142Y-145568571D02*
X139422142Y-146354285D01*
X139922142Y-145568571D01*
X140350714Y-146997142D02*
X140565000Y-147068571D01*
X140922142Y-147068571D01*
X141065000Y-146997142D01*
X141136428Y-146925714D01*
X141207857Y-146782857D01*
X141207857Y-146640000D01*
X141136428Y-146497142D01*
X141065000Y-146425714D01*
X140922142Y-146354285D01*
X140636428Y-146282857D01*
X140493571Y-146211428D01*
X140422142Y-146140000D01*
X140350714Y-145997142D01*
X140350714Y-145854285D01*
X140422142Y-145711428D01*
X140493571Y-145640000D01*
X140636428Y-145568571D01*
X140993571Y-145568571D01*
X141207857Y-145640000D01*
X67493571Y-149618571D02*
X67779285Y-149618571D01*
X67922142Y-149547142D01*
X67993571Y-149475714D01*
X68136428Y-149261428D01*
X68207857Y-148975714D01*
X68207857Y-148404285D01*
X68136428Y-148261428D01*
X68065000Y-148190000D01*
X67922142Y-148118571D01*
X67636428Y-148118571D01*
X67493571Y-148190000D01*
X67422142Y-148261428D01*
X67350714Y-148404285D01*
X67350714Y-148761428D01*
X67422142Y-148904285D01*
X67493571Y-148975714D01*
X67636428Y-149047142D01*
X67922142Y-149047142D01*
X68065000Y-148975714D01*
X68136428Y-148904285D01*
X68207857Y-148761428D01*
X68850714Y-149475714D02*
X68922142Y-149547142D01*
X68850714Y-149618571D01*
X68779285Y-149547142D01*
X68850714Y-149475714D01*
X68850714Y-149618571D01*
X70636428Y-149547142D02*
X70850714Y-149618571D01*
X71207857Y-149618571D01*
X71350714Y-149547142D01*
X71422142Y-149475714D01*
X71493571Y-149332857D01*
X71493571Y-149190000D01*
X71422142Y-149047142D01*
X71350714Y-148975714D01*
X71207857Y-148904285D01*
X70922142Y-148832857D01*
X70779285Y-148761428D01*
X70707857Y-148690000D01*
X70636428Y-148547142D01*
X70636428Y-148404285D01*
X70707857Y-148261428D01*
X70779285Y-148190000D01*
X70922142Y-148118571D01*
X71279285Y-148118571D01*
X71493571Y-148190000D01*
X71993571Y-148118571D02*
X72350714Y-149618571D01*
X72636428Y-148547142D01*
X72922142Y-149618571D01*
X73279285Y-148118571D01*
X73779285Y-148261428D02*
X73850714Y-148190000D01*
X73993571Y-148118571D01*
X74350714Y-148118571D01*
X74493571Y-148190000D01*
X74565000Y-148261428D01*
X74636428Y-148404285D01*
X74636428Y-148547142D01*
X74565000Y-148761428D01*
X73707857Y-149618571D01*
X74636428Y-149618571D01*
X76850714Y-150190000D02*
X76779285Y-150118571D01*
X76636428Y-149904285D01*
X76565000Y-149761428D01*
X76493571Y-149547142D01*
X76422142Y-149190000D01*
X76422142Y-148904285D01*
X76493571Y-148547142D01*
X76565000Y-148332857D01*
X76636428Y-148190000D01*
X76779285Y-147975714D01*
X76850714Y-147904285D01*
X78136428Y-149618571D02*
X77422142Y-149618571D01*
X77422142Y-148118571D01*
X78636428Y-149618571D02*
X78636428Y-148118571D01*
X79350714Y-149618571D02*
X79350714Y-148118571D01*
X79850714Y-149190000D01*
X80350714Y-148118571D01*
X80350714Y-149618571D01*
X81065000Y-149618571D02*
X81065000Y-148118571D01*
X81565000Y-148118571D02*
X82422142Y-148118571D01*
X81993571Y-149618571D02*
X81993571Y-148118571D01*
X83993571Y-149547142D02*
X84207857Y-149618571D01*
X84565000Y-149618571D01*
X84707857Y-149547142D01*
X84779285Y-149475714D01*
X84850714Y-149332857D01*
X84850714Y-149190000D01*
X84779285Y-149047142D01*
X84707857Y-148975714D01*
X84565000Y-148904285D01*
X84279285Y-148832857D01*
X84136428Y-148761428D01*
X84065000Y-148690000D01*
X83993571Y-148547142D01*
X83993571Y-148404285D01*
X84065000Y-148261428D01*
X84136428Y-148190000D01*
X84279285Y-148118571D01*
X84636428Y-148118571D01*
X84850714Y-148190000D01*
X85350714Y-148118571D02*
X85707857Y-149618571D01*
X85993571Y-148547142D01*
X86279285Y-149618571D01*
X86636428Y-148118571D01*
X87207857Y-149618571D02*
X87207857Y-148118571D01*
X87707857Y-148118571D02*
X88565000Y-148118571D01*
X88136428Y-149618571D02*
X88136428Y-148118571D01*
X89922142Y-149475714D02*
X89850714Y-149547142D01*
X89636428Y-149618571D01*
X89493571Y-149618571D01*
X89279285Y-149547142D01*
X89136428Y-149404285D01*
X89065000Y-149261428D01*
X88993571Y-148975714D01*
X88993571Y-148761428D01*
X89065000Y-148475714D01*
X89136428Y-148332857D01*
X89279285Y-148190000D01*
X89493571Y-148118571D01*
X89636428Y-148118571D01*
X89850714Y-148190000D01*
X89922142Y-148261428D01*
X90565000Y-149618571D02*
X90565000Y-148118571D01*
X90565000Y-148832857D02*
X91422142Y-148832857D01*
X91422142Y-149618571D02*
X91422142Y-148118571D01*
X91993571Y-150190000D02*
X92065000Y-150118571D01*
X92207857Y-149904285D01*
X92279285Y-149761428D01*
X92350714Y-149547142D01*
X92422142Y-149190000D01*
X92422142Y-148904285D01*
X92350714Y-148547142D01*
X92279285Y-148332857D01*
X92207857Y-148190000D01*
X92065000Y-147975714D01*
X91993571Y-147904285D01*
X94065000Y-148118571D02*
X94922142Y-148118571D01*
X94493571Y-149618571D02*
X94493571Y-148118571D01*
X95707857Y-148118571D02*
X95993571Y-148118571D01*
X96136428Y-148190000D01*
X96279285Y-148332857D01*
X96350714Y-148618571D01*
X96350714Y-149118571D01*
X96279285Y-149404285D01*
X96136428Y-149547142D01*
X95993571Y-149618571D01*
X95707857Y-149618571D01*
X95565000Y-149547142D01*
X95422142Y-149404285D01*
X95350714Y-149118571D01*
X95350714Y-148618571D01*
X95422142Y-148332857D01*
X95565000Y-148190000D01*
X95707857Y-148118571D01*
X98636428Y-148832857D02*
X98850714Y-148904285D01*
X98922142Y-148975714D01*
X98993571Y-149118571D01*
X98993571Y-149332857D01*
X98922142Y-149475714D01*
X98850714Y-149547142D01*
X98707857Y-149618571D01*
X98136428Y-149618571D01*
X98136428Y-148118571D01*
X98636428Y-148118571D01*
X98779285Y-148190000D01*
X98850714Y-148261428D01*
X98922142Y-148404285D01*
X98922142Y-148547142D01*
X98850714Y-148690000D01*
X98779285Y-148761428D01*
X98636428Y-148832857D01*
X98136428Y-148832857D01*
X99636428Y-148832857D02*
X100136428Y-148832857D01*
X100350714Y-149618571D02*
X99636428Y-149618571D01*
X99636428Y-148118571D01*
X100350714Y-148118571D01*
X102064999Y-149547142D02*
X102279285Y-149618571D01*
X102636428Y-149618571D01*
X102779285Y-149547142D01*
X102850714Y-149475714D01*
X102922142Y-149332857D01*
X102922142Y-149190000D01*
X102850714Y-149047142D01*
X102779285Y-148975714D01*
X102636428Y-148904285D01*
X102350714Y-148832857D01*
X102207857Y-148761428D01*
X102136428Y-148690000D01*
X102064999Y-148547142D01*
X102064999Y-148404285D01*
X102136428Y-148261428D01*
X102207857Y-148190000D01*
X102350714Y-148118571D01*
X102707857Y-148118571D01*
X102922142Y-148190000D01*
X103850714Y-148118571D02*
X104136428Y-148118571D01*
X104279285Y-148190000D01*
X104422142Y-148332857D01*
X104493571Y-148618571D01*
X104493571Y-149118571D01*
X104422142Y-149404285D01*
X104279285Y-149547142D01*
X104136428Y-149618571D01*
X103850714Y-149618571D01*
X103707857Y-149547142D01*
X103564999Y-149404285D01*
X103493571Y-149118571D01*
X103493571Y-148618571D01*
X103564999Y-148332857D01*
X103707857Y-148190000D01*
X103850714Y-148118571D01*
X105850714Y-149618571D02*
X105136428Y-149618571D01*
X105136428Y-148118571D01*
X106350714Y-149618571D02*
X106350714Y-148118571D01*
X106707857Y-148118571D01*
X106922142Y-148190000D01*
X107065000Y-148332857D01*
X107136428Y-148475714D01*
X107207857Y-148761428D01*
X107207857Y-148975714D01*
X107136428Y-149261428D01*
X107065000Y-149404285D01*
X106922142Y-149547142D01*
X106707857Y-149618571D01*
X106350714Y-149618571D01*
X107850714Y-148832857D02*
X108350714Y-148832857D01*
X108565000Y-149618571D02*
X107850714Y-149618571D01*
X107850714Y-148118571D01*
X108565000Y-148118571D01*
X110065000Y-149618571D02*
X109565000Y-148904285D01*
X109207857Y-149618571D02*
X109207857Y-148118571D01*
X109779285Y-148118571D01*
X109922142Y-148190000D01*
X109993571Y-148261428D01*
X110065000Y-148404285D01*
X110065000Y-148618571D01*
X109993571Y-148761428D01*
X109922142Y-148832857D01*
X109779285Y-148904285D01*
X109207857Y-148904285D01*
X110707857Y-148832857D02*
X111207857Y-148832857D01*
X111422142Y-149618571D02*
X110707857Y-149618571D01*
X110707857Y-148118571D01*
X111422142Y-148118571D01*
X112065000Y-149618571D02*
X112065000Y-148118571D01*
X112422142Y-148118571D01*
X112636428Y-148190000D01*
X112779285Y-148332857D01*
X112850714Y-148475714D01*
X112922142Y-148761428D01*
X112922142Y-148975714D01*
X112850714Y-149261428D01*
X112779285Y-149404285D01*
X112636428Y-149547142D01*
X112422142Y-149618571D01*
X112065000Y-149618571D01*
X114707857Y-149618571D02*
X114707857Y-148118571D01*
X114707857Y-148832857D02*
X115565000Y-148832857D01*
X115565000Y-149618571D02*
X115565000Y-148118571D01*
X116565000Y-148118571D02*
X116850714Y-148118571D01*
X116993571Y-148190000D01*
X117136428Y-148332857D01*
X117207857Y-148618571D01*
X117207857Y-149118571D01*
X117136428Y-149404285D01*
X116993571Y-149547142D01*
X116850714Y-149618571D01*
X116565000Y-149618571D01*
X116422142Y-149547142D01*
X116279285Y-149404285D01*
X116207857Y-149118571D01*
X116207857Y-148618571D01*
X116279285Y-148332857D01*
X116422142Y-148190000D01*
X116565000Y-148118571D01*
X118707857Y-149618571D02*
X118207857Y-148904285D01*
X117850714Y-149618571D02*
X117850714Y-148118571D01*
X118422142Y-148118571D01*
X118565000Y-148190000D01*
X118636428Y-148261428D01*
X118707857Y-148404285D01*
X118707857Y-148618571D01*
X118636428Y-148761428D01*
X118565000Y-148832857D01*
X118422142Y-148904285D01*
X117850714Y-148904285D01*
X119350714Y-149618571D02*
X119350714Y-148118571D01*
X119922142Y-148118571D02*
X120922142Y-148118571D01*
X119922142Y-149618571D01*
X120922142Y-149618571D01*
X121779285Y-148118571D02*
X122065000Y-148118571D01*
X122207857Y-148190000D01*
X122350714Y-148332857D01*
X122422142Y-148618571D01*
X122422142Y-149118571D01*
X122350714Y-149404285D01*
X122207857Y-149547142D01*
X122065000Y-149618571D01*
X121779285Y-149618571D01*
X121636428Y-149547142D01*
X121493571Y-149404285D01*
X121422142Y-149118571D01*
X121422142Y-148618571D01*
X121493571Y-148332857D01*
X121636428Y-148190000D01*
X121779285Y-148118571D01*
X123065000Y-149618571D02*
X123065000Y-148118571D01*
X123922142Y-149618571D01*
X123922142Y-148118571D01*
X124422142Y-148118571D02*
X125279285Y-148118571D01*
X124850714Y-149618571D02*
X124850714Y-148118571D01*
X125707857Y-149190000D02*
X126422142Y-149190000D01*
X125565000Y-149618571D02*
X126065000Y-148118571D01*
X126565000Y-149618571D01*
X127779285Y-149618571D02*
X127065000Y-149618571D01*
X127065000Y-148118571D01*
X128993571Y-149618571D02*
X128279285Y-149618571D01*
X128279285Y-148118571D01*
X129779285Y-148904285D02*
X129779285Y-149618571D01*
X129279285Y-148118571D02*
X129779285Y-148904285D01*
X130279285Y-148118571D01*
X131707857Y-148118571D02*
X132565000Y-148118571D01*
X132136428Y-149618571D02*
X132136428Y-148118571D01*
X133350714Y-148118571D02*
X133636428Y-148118571D01*
X133779285Y-148190000D01*
X133922142Y-148332857D01*
X133993571Y-148618571D01*
X133993571Y-149118571D01*
X133922142Y-149404285D01*
X133779285Y-149547142D01*
X133636428Y-149618571D01*
X133350714Y-149618571D01*
X133207857Y-149547142D01*
X133065000Y-149404285D01*
X132993571Y-149118571D01*
X132993571Y-148618571D01*
X133065000Y-148332857D01*
X133207857Y-148190000D01*
X133350714Y-148118571D01*
X135779285Y-148832857D02*
X136279285Y-148832857D01*
X136493571Y-149618571D02*
X135779285Y-149618571D01*
X135779285Y-148118571D01*
X136493571Y-148118571D01*
X137136428Y-149618571D02*
X137136428Y-148118571D01*
X137993571Y-149618571D01*
X137993571Y-148118571D01*
X138707857Y-149618571D02*
X138707857Y-148118571D01*
X139065000Y-148118571D01*
X139279285Y-148190000D01*
X139422142Y-148332857D01*
X139493571Y-148475714D01*
X139565000Y-148761428D01*
X139565000Y-148975714D01*
X139493571Y-149261428D01*
X139422142Y-149404285D01*
X139279285Y-149547142D01*
X139065000Y-149618571D01*
X138707857Y-149618571D01*
X141636428Y-148118571D02*
X141922142Y-148118571D01*
X142065000Y-148190000D01*
X142207857Y-148332857D01*
X142279285Y-148618571D01*
X142279285Y-149118571D01*
X142207857Y-149404285D01*
X142065000Y-149547142D01*
X141922142Y-149618571D01*
X141636428Y-149618571D01*
X141493571Y-149547142D01*
X141350714Y-149404285D01*
X141279285Y-149118571D01*
X141279285Y-148618571D01*
X141350714Y-148332857D01*
X141493571Y-148190000D01*
X141636428Y-148118571D01*
X143422142Y-148832857D02*
X142922142Y-148832857D01*
X142922142Y-149618571D02*
X142922142Y-148118571D01*
X143636428Y-148118571D01*
X145850714Y-148832857D02*
X146065000Y-148904285D01*
X146136428Y-148975714D01*
X146207857Y-149118571D01*
X146207857Y-149332857D01*
X146136428Y-149475714D01*
X146065000Y-149547142D01*
X145922142Y-149618571D01*
X145350714Y-149618571D01*
X145350714Y-148118571D01*
X145850714Y-148118571D01*
X145993571Y-148190000D01*
X146065000Y-148261428D01*
X146136428Y-148404285D01*
X146136428Y-148547142D01*
X146065000Y-148690000D01*
X145993571Y-148761428D01*
X145850714Y-148832857D01*
X145350714Y-148832857D01*
X147136428Y-148118571D02*
X147422142Y-148118571D01*
X147565000Y-148190000D01*
X147707857Y-148332857D01*
X147779285Y-148618571D01*
X147779285Y-149118571D01*
X147707857Y-149404285D01*
X147565000Y-149547142D01*
X147422142Y-149618571D01*
X147136428Y-149618571D01*
X146993571Y-149547142D01*
X146850714Y-149404285D01*
X146779285Y-149118571D01*
X146779285Y-148618571D01*
X146850714Y-148332857D01*
X146993571Y-148190000D01*
X147136428Y-148118571D01*
X148350714Y-149190000D02*
X149065000Y-149190000D01*
X148207857Y-149618571D02*
X148707857Y-148118571D01*
X149207857Y-149618571D01*
X150565000Y-149618571D02*
X150065000Y-148904285D01*
X149707857Y-149618571D02*
X149707857Y-148118571D01*
X150279285Y-148118571D01*
X150422142Y-148190000D01*
X150493571Y-148261428D01*
X150565000Y-148404285D01*
X150565000Y-148618571D01*
X150493571Y-148761428D01*
X150422142Y-148832857D01*
X150279285Y-148904285D01*
X149707857Y-148904285D01*
X151207857Y-149618571D02*
X151207857Y-148118571D01*
X151565000Y-148118571D01*
X151779285Y-148190000D01*
X151922142Y-148332857D01*
X151993571Y-148475714D01*
X152065000Y-148761428D01*
X152065000Y-148975714D01*
X151993571Y-149261428D01*
X151922142Y-149404285D01*
X151779285Y-149547142D01*
X151565000Y-149618571D01*
X151207857Y-149618571D01*
X154279285Y-150190000D02*
X154207857Y-150118571D01*
X154065000Y-149904285D01*
X153993571Y-149761428D01*
X153922142Y-149547142D01*
X153850714Y-149190000D01*
X153850714Y-148904285D01*
X153922142Y-148547142D01*
X153993571Y-148332857D01*
X154065000Y-148190000D01*
X154207857Y-147975714D01*
X154279285Y-147904285D01*
X154850714Y-149618571D02*
X154850714Y-148118571D01*
X155207857Y-148118571D01*
X155422142Y-148190000D01*
X155565000Y-148332857D01*
X155636428Y-148475714D01*
X155707857Y-148761428D01*
X155707857Y-148975714D01*
X155636428Y-149261428D01*
X155565000Y-149404285D01*
X155422142Y-149547142D01*
X155207857Y-149618571D01*
X154850714Y-149618571D01*
X156207857Y-148118571D02*
X156565000Y-149618571D01*
X156850714Y-148547142D01*
X157136428Y-149618571D01*
X157493571Y-148118571D01*
X158850714Y-148190000D02*
X158707857Y-148118571D01*
X158493571Y-148118571D01*
X158279285Y-148190000D01*
X158136428Y-148332857D01*
X158065000Y-148475714D01*
X157993571Y-148761428D01*
X157993571Y-148975714D01*
X158065000Y-149261428D01*
X158136428Y-149404285D01*
X158279285Y-149547142D01*
X158493571Y-149618571D01*
X158636428Y-149618571D01*
X158850714Y-149547142D01*
X158922142Y-149475714D01*
X158922142Y-148975714D01*
X158636428Y-148975714D01*
X159493571Y-149547142D02*
X159707857Y-149618571D01*
X160065000Y-149618571D01*
X160207857Y-149547142D01*
X160279285Y-149475714D01*
X160350714Y-149332857D01*
X160350714Y-149190000D01*
X160279285Y-149047142D01*
X160207857Y-148975714D01*
X160065000Y-148904285D01*
X159779285Y-148832857D01*
X159636428Y-148761428D01*
X159565000Y-148690000D01*
X159493571Y-148547142D01*
X159493571Y-148404285D01*
X159565000Y-148261428D01*
X159636428Y-148190000D01*
X159779285Y-148118571D01*
X160136428Y-148118571D01*
X160350714Y-148190000D01*
X160993571Y-149475714D02*
X161065000Y-149547142D01*
X160993571Y-149618571D01*
X160922142Y-149547142D01*
X160993571Y-149475714D01*
X160993571Y-149618571D01*
X161707857Y-148118571D02*
X161707857Y-149332857D01*
X161779285Y-149475714D01*
X161850714Y-149547142D01*
X161993571Y-149618571D01*
X162279285Y-149618571D01*
X162422142Y-149547142D01*
X162493571Y-149475714D01*
X162565000Y-149332857D01*
X162565000Y-148118571D01*
X163207857Y-149547142D02*
X163422142Y-149618571D01*
X163779285Y-149618571D01*
X163922142Y-149547142D01*
X163993571Y-149475714D01*
X164065000Y-149332857D01*
X164065000Y-149190000D01*
X163993571Y-149047142D01*
X163922142Y-148975714D01*
X163779285Y-148904285D01*
X163493571Y-148832857D01*
X163350714Y-148761428D01*
X163279285Y-148690000D01*
X163207857Y-148547142D01*
X163207857Y-148404285D01*
X163279285Y-148261428D01*
X163350714Y-148190000D01*
X163493571Y-148118571D01*
X163850714Y-148118571D01*
X164065000Y-148190000D01*
X164707857Y-148832857D02*
X165207857Y-148832857D01*
X165422142Y-149618571D02*
X164707857Y-149618571D01*
X164707857Y-148118571D01*
X165422142Y-148118571D01*
X166922142Y-149618571D02*
X166422142Y-148904285D01*
X166065000Y-149618571D02*
X166065000Y-148118571D01*
X166636428Y-148118571D01*
X166779285Y-148190000D01*
X166850714Y-148261428D01*
X166922142Y-148404285D01*
X166922142Y-148618571D01*
X166850714Y-148761428D01*
X166779285Y-148832857D01*
X166636428Y-148904285D01*
X166065000Y-148904285D01*
X169422142Y-149618571D02*
X168707857Y-149618571D01*
X168707857Y-148118571D01*
X169850714Y-149190000D02*
X170565000Y-149190000D01*
X169707857Y-149618571D02*
X170207857Y-148118571D01*
X170707857Y-149618571D01*
X171493571Y-148904285D02*
X171493571Y-149618571D01*
X170993571Y-148118571D02*
X171493571Y-148904285D01*
X171993571Y-148118571D01*
X172493571Y-148832857D02*
X172993571Y-148832857D01*
X173207857Y-149618571D02*
X172493571Y-149618571D01*
X172493571Y-148118571D01*
X173207857Y-148118571D01*
X174707857Y-149618571D02*
X174207857Y-148904285D01*
X173850714Y-149618571D02*
X173850714Y-148118571D01*
X174422142Y-148118571D01*
X174565000Y-148190000D01*
X174636428Y-148261428D01*
X174707857Y-148404285D01*
X174707857Y-148618571D01*
X174636428Y-148761428D01*
X174565000Y-148832857D01*
X174422142Y-148904285D01*
X173850714Y-148904285D01*
X175207857Y-150190000D02*
X175279285Y-150118571D01*
X175422142Y-149904285D01*
X175493571Y-149761428D01*
X175565000Y-149547142D01*
X175636428Y-149190000D01*
X175636428Y-148904285D01*
X175565000Y-148547142D01*
X175493571Y-148332857D01*
X175422142Y-148190000D01*
X175279285Y-147975714D01*
X175207857Y-147904285D01*
X68207857Y-152168571D02*
X67350714Y-152168571D01*
X67779285Y-152168571D02*
X67779285Y-150668571D01*
X67636428Y-150882857D01*
X67493571Y-151025714D01*
X67350714Y-151097142D01*
X69136428Y-150668571D02*
X69279285Y-150668571D01*
X69422142Y-150740000D01*
X69493571Y-150811428D01*
X69565000Y-150954285D01*
X69636428Y-151240000D01*
X69636428Y-151597142D01*
X69565000Y-151882857D01*
X69493571Y-152025714D01*
X69422142Y-152097142D01*
X69279285Y-152168571D01*
X69136428Y-152168571D01*
X68993571Y-152097142D01*
X68922142Y-152025714D01*
X68850714Y-151882857D01*
X68779285Y-151597142D01*
X68779285Y-151240000D01*
X68850714Y-150954285D01*
X68922142Y-150811428D01*
X68993571Y-150740000D01*
X69136428Y-150668571D01*
X70279285Y-152025714D02*
X70350714Y-152097142D01*
X70279285Y-152168571D01*
X70207857Y-152097142D01*
X70279285Y-152025714D01*
X70279285Y-152168571D01*
X71993571Y-150668571D02*
X72922142Y-150668571D01*
X72422142Y-151240000D01*
X72636428Y-151240000D01*
X72779285Y-151311428D01*
X72850714Y-151382857D01*
X72922142Y-151525714D01*
X72922142Y-151882857D01*
X72850714Y-152025714D01*
X72779285Y-152097142D01*
X72636428Y-152168571D01*
X72207857Y-152168571D01*
X72065000Y-152097142D01*
X71993571Y-152025714D01*
X73565000Y-152168571D02*
X73565000Y-150668571D01*
X74065000Y-151740000D01*
X74565000Y-150668571D01*
X74565000Y-152168571D01*
X75279285Y-152168571D02*
X75279285Y-150668571D01*
X75779285Y-151740000D01*
X76279285Y-150668571D01*
X76279285Y-152168571D01*
X78850714Y-152168571D02*
X78136428Y-152168571D01*
X78136428Y-150668571D01*
X79350714Y-151382857D02*
X79850714Y-151382857D01*
X80065000Y-152168571D02*
X79350714Y-152168571D01*
X79350714Y-150668571D01*
X80065000Y-150668571D01*
X80707857Y-152168571D02*
X80707857Y-150668571D01*
X81065000Y-150668571D01*
X81279285Y-150740000D01*
X81422142Y-150882857D01*
X81493571Y-151025714D01*
X81565000Y-151311428D01*
X81565000Y-151525714D01*
X81493571Y-151811428D01*
X81422142Y-151954285D01*
X81279285Y-152097142D01*
X81065000Y-152168571D01*
X80707857Y-152168571D01*
X83350714Y-152168571D02*
X83350714Y-150668571D01*
X83350714Y-151382857D02*
X84207857Y-151382857D01*
X84207857Y-152168571D02*
X84207857Y-150668571D01*
X85207857Y-150668571D02*
X85493571Y-150668571D01*
X85636428Y-150740000D01*
X85779285Y-150882857D01*
X85850714Y-151168571D01*
X85850714Y-151668571D01*
X85779285Y-151954285D01*
X85636428Y-152097142D01*
X85493571Y-152168571D01*
X85207857Y-152168571D01*
X85065000Y-152097142D01*
X84922142Y-151954285D01*
X84850714Y-151668571D01*
X84850714Y-151168571D01*
X84922142Y-150882857D01*
X85065000Y-150740000D01*
X85207857Y-150668571D01*
X87207857Y-152168571D02*
X86493571Y-152168571D01*
X86493571Y-150668571D01*
X87707857Y-151382857D02*
X88207857Y-151382857D01*
X88422142Y-152168571D02*
X87707857Y-152168571D01*
X87707857Y-150668571D01*
X88422142Y-150668571D01*
X90207857Y-152168571D02*
X90207857Y-150668571D01*
X90850714Y-152097142D02*
X91065000Y-152168571D01*
X91422142Y-152168571D01*
X91565000Y-152097142D01*
X91636428Y-152025714D01*
X91707857Y-151882857D01*
X91707857Y-151740000D01*
X91636428Y-151597142D01*
X91565000Y-151525714D01*
X91422142Y-151454285D01*
X91136428Y-151382857D01*
X90993571Y-151311428D01*
X90922142Y-151240000D01*
X90850714Y-151097142D01*
X90850714Y-150954285D01*
X90922142Y-150811428D01*
X90993571Y-150740000D01*
X91136428Y-150668571D01*
X91493571Y-150668571D01*
X91707857Y-150740000D01*
X93493571Y-152168571D02*
X93493571Y-150668571D01*
X94065000Y-150668571D01*
X94207857Y-150740000D01*
X94279285Y-150811428D01*
X94350714Y-150954285D01*
X94350714Y-151168571D01*
X94279285Y-151311428D01*
X94207857Y-151382857D01*
X94065000Y-151454285D01*
X93493571Y-151454285D01*
X95707857Y-152168571D02*
X94993571Y-152168571D01*
X94993571Y-150668571D01*
X96136428Y-151740000D02*
X96850714Y-151740000D01*
X95993571Y-152168571D02*
X96493571Y-150668571D01*
X96993571Y-152168571D01*
X97279285Y-150668571D02*
X98136428Y-150668571D01*
X97707857Y-152168571D02*
X97707857Y-150668571D01*
X98636428Y-151382857D02*
X99136428Y-151382857D01*
X99350714Y-152168571D02*
X98636428Y-152168571D01*
X98636428Y-150668571D01*
X99350714Y-150668571D01*
X99993571Y-152168571D02*
X99993571Y-150668571D01*
X100350714Y-150668571D01*
X100565000Y-150740000D01*
X100707857Y-150882857D01*
X100779285Y-151025714D01*
X100850714Y-151311428D01*
X100850714Y-151525714D01*
X100779285Y-151811428D01*
X100707857Y-151954285D01*
X100565000Y-152097142D01*
X100350714Y-152168571D01*
X99993571Y-152168571D01*
D10*
X94000000Y-100000000D02*
X95000000Y-100000000D01*
X94000000Y-100000000D02*
X94000000Y-101000000D01*
X101000000Y-107000000D02*
X94000000Y-100000000D01*
X102000000Y-107000000D02*
X101000000Y-107000000D01*
X123000000Y-107000000D02*
X102000000Y-107000000D01*
D11*
X107464285Y-103260714D02*
X107392857Y-103332142D01*
X107178571Y-103403571D01*
X107035714Y-103403571D01*
X106821428Y-103332142D01*
X106678571Y-103189285D01*
X106607142Y-103046428D01*
X106535714Y-102760714D01*
X106535714Y-102546428D01*
X106607142Y-102260714D01*
X106678571Y-102117857D01*
X106821428Y-101975000D01*
X107035714Y-101903571D01*
X107178571Y-101903571D01*
X107392857Y-101975000D01*
X107464285Y-102046428D01*
X108392857Y-101903571D02*
X108678571Y-101903571D01*
X108821428Y-101975000D01*
X108964285Y-102117857D01*
X109035714Y-102403571D01*
X109035714Y-102903571D01*
X108964285Y-103189285D01*
X108821428Y-103332142D01*
X108678571Y-103403571D01*
X108392857Y-103403571D01*
X108250000Y-103332142D01*
X108107142Y-103189285D01*
X108035714Y-102903571D01*
X108035714Y-102403571D01*
X108107142Y-102117857D01*
X108250000Y-101975000D01*
X108392857Y-101903571D01*
X109678571Y-103403571D02*
X109678571Y-101903571D01*
X110178571Y-102975000D01*
X110678571Y-101903571D01*
X110678571Y-103403571D01*
X111392857Y-103403571D02*
X111392857Y-101903571D01*
X111964285Y-101903571D01*
X112107142Y-101975000D01*
X112178571Y-102046428D01*
X112250000Y-102189285D01*
X112250000Y-102403571D01*
X112178571Y-102546428D01*
X112107142Y-102617857D01*
X111964285Y-102689285D01*
X111392857Y-102689285D01*
X113178571Y-101903571D02*
X113464285Y-101903571D01*
X113607142Y-101975000D01*
X113750000Y-102117857D01*
X113821428Y-102403571D01*
X113821428Y-102903571D01*
X113750000Y-103189285D01*
X113607142Y-103332142D01*
X113464285Y-103403571D01*
X113178571Y-103403571D01*
X113035714Y-103332142D01*
X112892857Y-103189285D01*
X112821428Y-102903571D01*
X112821428Y-102403571D01*
X112892857Y-102117857D01*
X113035714Y-101975000D01*
X113178571Y-101903571D01*
X114464285Y-103403571D02*
X114464285Y-101903571D01*
X115321428Y-103403571D01*
X115321428Y-101903571D01*
X116035714Y-102617857D02*
X116535714Y-102617857D01*
X116750000Y-103403571D02*
X116035714Y-103403571D01*
X116035714Y-101903571D01*
X116750000Y-101903571D01*
X117392857Y-103403571D02*
X117392857Y-101903571D01*
X118250000Y-103403571D01*
X118250000Y-101903571D01*
X118750000Y-101903571D02*
X119607142Y-101903571D01*
X119178571Y-103403571D02*
X119178571Y-101903571D01*
X103892857Y-105953571D02*
X103892857Y-104453571D01*
X104464285Y-104453571D01*
X104607142Y-104525000D01*
X104678571Y-104596428D01*
X104750000Y-104739285D01*
X104750000Y-104953571D01*
X104678571Y-105096428D01*
X104607142Y-105167857D01*
X104464285Y-105239285D01*
X103892857Y-105239285D01*
X105678571Y-104453571D02*
X105964285Y-104453571D01*
X106107142Y-104525000D01*
X106250000Y-104667857D01*
X106321428Y-104953571D01*
X106321428Y-105453571D01*
X106250000Y-105739285D01*
X106107142Y-105882142D01*
X105964285Y-105953571D01*
X105678571Y-105953571D01*
X105535714Y-105882142D01*
X105392857Y-105739285D01*
X105321428Y-105453571D01*
X105321428Y-104953571D01*
X105392857Y-104667857D01*
X105535714Y-104525000D01*
X105678571Y-104453571D01*
X106892857Y-105882142D02*
X107107142Y-105953571D01*
X107464285Y-105953571D01*
X107607142Y-105882142D01*
X107678571Y-105810714D01*
X107750000Y-105667857D01*
X107750000Y-105525000D01*
X107678571Y-105382142D01*
X107607142Y-105310714D01*
X107464285Y-105239285D01*
X107178571Y-105167857D01*
X107035714Y-105096428D01*
X106964285Y-105025000D01*
X106892857Y-104882142D01*
X106892857Y-104739285D01*
X106964285Y-104596428D01*
X107035714Y-104525000D01*
X107178571Y-104453571D01*
X107535714Y-104453571D01*
X107750000Y-104525000D01*
X108392857Y-105953571D02*
X108392857Y-104453571D01*
X108892857Y-104453571D02*
X109750000Y-104453571D01*
X109321428Y-105953571D02*
X109321428Y-104453571D01*
X110250000Y-105953571D02*
X110250000Y-104453571D01*
X111250000Y-104453571D02*
X111535714Y-104453571D01*
X111678571Y-104525000D01*
X111821428Y-104667857D01*
X111892857Y-104953571D01*
X111892857Y-105453571D01*
X111821428Y-105739285D01*
X111678571Y-105882142D01*
X111535714Y-105953571D01*
X111250000Y-105953571D01*
X111107142Y-105882142D01*
X110964285Y-105739285D01*
X110892857Y-105453571D01*
X110892857Y-104953571D01*
X110964285Y-104667857D01*
X111107142Y-104525000D01*
X111250000Y-104453571D01*
X112535714Y-105953571D02*
X112535714Y-104453571D01*
X113392857Y-105953571D01*
X113392857Y-104453571D01*
X115535714Y-104453571D02*
X115821428Y-104453571D01*
X115964285Y-104525000D01*
X116107142Y-104667857D01*
X116178571Y-104953571D01*
X116178571Y-105453571D01*
X116107142Y-105739285D01*
X115964285Y-105882142D01*
X115821428Y-105953571D01*
X115535714Y-105953571D01*
X115392857Y-105882142D01*
X115250000Y-105739285D01*
X115178571Y-105453571D01*
X115178571Y-104953571D01*
X115250000Y-104667857D01*
X115392857Y-104525000D01*
X115535714Y-104453571D01*
X117678571Y-105953571D02*
X117178571Y-105239285D01*
X116821428Y-105953571D02*
X116821428Y-104453571D01*
X117392857Y-104453571D01*
X117535714Y-104525000D01*
X117607142Y-104596428D01*
X117678571Y-104739285D01*
X117678571Y-104953571D01*
X117607142Y-105096428D01*
X117535714Y-105167857D01*
X117392857Y-105239285D01*
X116821428Y-105239285D01*
X118321428Y-105953571D02*
X118321428Y-104453571D01*
X119821428Y-104525000D02*
X119678571Y-104453571D01*
X119464285Y-104453571D01*
X119250000Y-104525000D01*
X119107142Y-104667857D01*
X119035714Y-104810714D01*
X118964285Y-105096428D01*
X118964285Y-105310714D01*
X119035714Y-105596428D01*
X119107142Y-105739285D01*
X119250000Y-105882142D01*
X119464285Y-105953571D01*
X119607142Y-105953571D01*
X119821428Y-105882142D01*
X119892857Y-105810714D01*
X119892857Y-105310714D01*
X119607142Y-105310714D01*
X120535714Y-105953571D02*
X120535714Y-104453571D01*
X121250000Y-105953571D02*
X121250000Y-104453571D01*
X122107142Y-105953571D01*
X122107142Y-104453571D01*
D10*
X114000000Y-90000000D02*
X115000000Y-90000000D01*
X114000000Y-90000000D02*
X114000000Y-91000000D01*
X127000000Y-103000000D02*
X114000000Y-90000000D01*
X155000000Y-103000000D02*
X127000000Y-103000000D01*
D11*
X129250000Y-99403571D02*
X128750000Y-98689285D01*
X128392857Y-99403571D02*
X128392857Y-97903571D01*
X128964285Y-97903571D01*
X129107142Y-97975000D01*
X129178571Y-98046428D01*
X129250000Y-98189285D01*
X129250000Y-98403571D01*
X129178571Y-98546428D01*
X129107142Y-98617857D01*
X128964285Y-98689285D01*
X128392857Y-98689285D01*
X130178571Y-97903571D02*
X130464285Y-97903571D01*
X130607142Y-97975000D01*
X130750000Y-98117857D01*
X130821428Y-98403571D01*
X130821428Y-98903571D01*
X130750000Y-99189285D01*
X130607142Y-99332142D01*
X130464285Y-99403571D01*
X130178571Y-99403571D01*
X130035714Y-99332142D01*
X129892857Y-99189285D01*
X129821428Y-98903571D01*
X129821428Y-98403571D01*
X129892857Y-98117857D01*
X130035714Y-97975000D01*
X130178571Y-97903571D01*
X131464285Y-97903571D02*
X131464285Y-99117857D01*
X131535714Y-99260714D01*
X131607142Y-99332142D01*
X131750000Y-99403571D01*
X132035714Y-99403571D01*
X132178571Y-99332142D01*
X132250000Y-99260714D01*
X132321428Y-99117857D01*
X132321428Y-97903571D01*
X132821428Y-97903571D02*
X133678571Y-97903571D01*
X133250000Y-99403571D02*
X133250000Y-97903571D01*
X134178571Y-98617857D02*
X134678571Y-98617857D01*
X134892857Y-99403571D02*
X134178571Y-99403571D01*
X134178571Y-97903571D01*
X134892857Y-97903571D01*
X137178571Y-98617857D02*
X137392857Y-98689285D01*
X137464285Y-98760714D01*
X137535714Y-98903571D01*
X137535714Y-99117857D01*
X137464285Y-99260714D01*
X137392857Y-99332142D01*
X137250000Y-99403571D01*
X136678571Y-99403571D01*
X136678571Y-97903571D01*
X137178571Y-97903571D01*
X137321428Y-97975000D01*
X137392857Y-98046428D01*
X137464285Y-98189285D01*
X137464285Y-98332142D01*
X137392857Y-98475000D01*
X137321428Y-98546428D01*
X137178571Y-98617857D01*
X136678571Y-98617857D01*
X138464285Y-97903571D02*
X138750000Y-97903571D01*
X138892857Y-97975000D01*
X139035714Y-98117857D01*
X139107142Y-98403571D01*
X139107142Y-98903571D01*
X139035714Y-99189285D01*
X138892857Y-99332142D01*
X138750000Y-99403571D01*
X138464285Y-99403571D01*
X138321428Y-99332142D01*
X138178571Y-99189285D01*
X138107142Y-98903571D01*
X138107142Y-98403571D01*
X138178571Y-98117857D01*
X138321428Y-97975000D01*
X138464285Y-97903571D01*
X139678571Y-98975000D02*
X140392857Y-98975000D01*
X139535714Y-99403571D02*
X140035714Y-97903571D01*
X140535714Y-99403571D01*
X141892857Y-99403571D02*
X141392857Y-98689285D01*
X141035714Y-99403571D02*
X141035714Y-97903571D01*
X141607142Y-97903571D01*
X141750000Y-97975000D01*
X141821428Y-98046428D01*
X141892857Y-98189285D01*
X141892857Y-98403571D01*
X141821428Y-98546428D01*
X141750000Y-98617857D01*
X141607142Y-98689285D01*
X141035714Y-98689285D01*
X142535714Y-99403571D02*
X142535714Y-97903571D01*
X142892857Y-97903571D01*
X143107142Y-97975000D01*
X143250000Y-98117857D01*
X143321428Y-98260714D01*
X143392857Y-98546428D01*
X143392857Y-98760714D01*
X143321428Y-99046428D01*
X143250000Y-99189285D01*
X143107142Y-99332142D01*
X142892857Y-99403571D01*
X142535714Y-99403571D01*
X145464285Y-97903571D02*
X145750000Y-97903571D01*
X145892857Y-97975000D01*
X146035714Y-98117857D01*
X146107142Y-98403571D01*
X146107142Y-98903571D01*
X146035714Y-99189285D01*
X145892857Y-99332142D01*
X145750000Y-99403571D01*
X145464285Y-99403571D01*
X145321428Y-99332142D01*
X145178571Y-99189285D01*
X145107142Y-98903571D01*
X145107142Y-98403571D01*
X145178571Y-98117857D01*
X145321428Y-97975000D01*
X145464285Y-97903571D01*
X146750000Y-97903571D02*
X146750000Y-99117857D01*
X146821428Y-99260714D01*
X146892857Y-99332142D01*
X147035714Y-99403571D01*
X147321428Y-99403571D01*
X147464285Y-99332142D01*
X147535714Y-99260714D01*
X147607142Y-99117857D01*
X147607142Y-97903571D01*
X148107142Y-97903571D02*
X148964285Y-97903571D01*
X148535714Y-99403571D02*
X148535714Y-97903571D01*
X150178571Y-99403571D02*
X149464285Y-99403571D01*
X149464285Y-97903571D01*
X150678571Y-99403571D02*
X150678571Y-97903571D01*
X151392857Y-99403571D02*
X151392857Y-97903571D01*
X152250000Y-99403571D01*
X152250000Y-97903571D01*
X152964285Y-98617857D02*
X153464285Y-98617857D01*
X153678571Y-99403571D02*
X152964285Y-99403571D01*
X152964285Y-97903571D01*
X153678571Y-97903571D01*
X128178571Y-101167857D02*
X128678571Y-101167857D01*
X128892857Y-101953571D02*
X128178571Y-101953571D01*
X128178571Y-100453571D01*
X128892857Y-100453571D01*
X129392857Y-100453571D02*
X130392857Y-101953571D01*
X130392857Y-100453571D02*
X129392857Y-101953571D01*
X131821428Y-101810714D02*
X131750000Y-101882142D01*
X131535714Y-101953571D01*
X131392857Y-101953571D01*
X131178571Y-101882142D01*
X131035714Y-101739285D01*
X130964285Y-101596428D01*
X130892857Y-101310714D01*
X130892857Y-101096428D01*
X130964285Y-100810714D01*
X131035714Y-100667857D01*
X131178571Y-100525000D01*
X131392857Y-100453571D01*
X131535714Y-100453571D01*
X131750000Y-100525000D01*
X131821428Y-100596428D01*
X132464285Y-101167857D02*
X132964285Y-101167857D01*
X133178571Y-101953571D02*
X132464285Y-101953571D01*
X132464285Y-100453571D01*
X133178571Y-100453571D01*
X133821428Y-101953571D02*
X133821428Y-100453571D01*
X134392857Y-100453571D01*
X134535714Y-100525000D01*
X134607142Y-100596428D01*
X134678571Y-100739285D01*
X134678571Y-100953571D01*
X134607142Y-101096428D01*
X134535714Y-101167857D01*
X134392857Y-101239285D01*
X133821428Y-101239285D01*
X135107142Y-100453571D02*
X135964285Y-100453571D01*
X135535714Y-101953571D02*
X135535714Y-100453571D01*
X138107142Y-101167857D02*
X137607142Y-101167857D01*
X137607142Y-101953571D02*
X137607142Y-100453571D01*
X138321428Y-100453571D01*
X139178571Y-100453571D02*
X139464285Y-100453571D01*
X139607142Y-100525000D01*
X139750000Y-100667857D01*
X139821428Y-100953571D01*
X139821428Y-101453571D01*
X139750000Y-101739285D01*
X139607142Y-101882142D01*
X139464285Y-101953571D01*
X139178571Y-101953571D01*
X139035714Y-101882142D01*
X138892857Y-101739285D01*
X138821428Y-101453571D01*
X138821428Y-100953571D01*
X138892857Y-100667857D01*
X139035714Y-100525000D01*
X139178571Y-100453571D01*
X141321428Y-101953571D02*
X140821428Y-101239285D01*
X140464285Y-101953571D02*
X140464285Y-100453571D01*
X141035714Y-100453571D01*
X141178571Y-100525000D01*
X141250000Y-100596428D01*
X141321428Y-100739285D01*
X141321428Y-100953571D01*
X141250000Y-101096428D01*
X141178571Y-101167857D01*
X141035714Y-101239285D01*
X140464285Y-101239285D01*
X142892857Y-100453571D02*
X143750000Y-100453571D01*
X143321428Y-101953571D02*
X143321428Y-100453571D01*
X144107142Y-100453571D02*
X144464285Y-101953571D01*
X144750000Y-100882142D01*
X145035714Y-101953571D01*
X145392857Y-100453571D01*
X146250000Y-100453571D02*
X146535714Y-100453571D01*
X146678571Y-100525000D01*
X146821428Y-100667857D01*
X146892857Y-100953571D01*
X146892857Y-101453571D01*
X146821428Y-101739285D01*
X146678571Y-101882142D01*
X146535714Y-101953571D01*
X146250000Y-101953571D01*
X146107142Y-101882142D01*
X145964285Y-101739285D01*
X145892857Y-101453571D01*
X145892857Y-100953571D01*
X145964285Y-100667857D01*
X146107142Y-100525000D01*
X146250000Y-100453571D01*
X148678571Y-101167857D02*
X149178571Y-101167857D01*
X149392857Y-101953571D02*
X148678571Y-101953571D01*
X148678571Y-100453571D01*
X149392857Y-100453571D01*
X150035714Y-101953571D02*
X150035714Y-100453571D01*
X150892857Y-101953571D01*
X150892857Y-100453571D01*
X151607142Y-101953571D02*
X151607142Y-100453571D01*
X151964285Y-100453571D01*
X152178571Y-100525000D01*
X152321428Y-100667857D01*
X152392857Y-100810714D01*
X152464285Y-101096428D01*
X152464285Y-101310714D01*
X152392857Y-101596428D01*
X152321428Y-101739285D01*
X152178571Y-101882142D01*
X151964285Y-101953571D01*
X151607142Y-101953571D01*
X153035714Y-101882142D02*
X153250000Y-101953571D01*
X153607142Y-101953571D01*
X153750000Y-101882142D01*
X153821428Y-101810714D01*
X153892857Y-101667857D01*
X153892857Y-101525000D01*
X153821428Y-101382142D01*
X153750000Y-101310714D01*
X153607142Y-101239285D01*
X153321428Y-101167857D01*
X153178571Y-101096428D01*
X153107142Y-101025000D01*
X153035714Y-100882142D01*
X153035714Y-100739285D01*
X153107142Y-100596428D01*
X153178571Y-100525000D01*
X153321428Y-100453571D01*
X153678571Y-100453571D01*
X153892857Y-100525000D01*
D10*
X139000000Y-71000000D02*
X140000000Y-70000000D01*
X139000000Y-71000000D02*
X138000000Y-70000000D01*
X139000000Y-53000000D02*
X139000000Y-71000000D01*
X133000000Y-47000000D02*
X139000000Y-53000000D01*
X70000000Y-47000000D02*
X133000000Y-47000000D01*
D11*
X72535714Y-44178571D02*
X73035714Y-45678571D01*
X73535714Y-44178571D01*
X74035714Y-45107142D02*
X75178571Y-45107142D01*
X75821428Y-45607142D02*
X76035714Y-45678571D01*
X76392857Y-45678571D01*
X76535714Y-45607142D01*
X76607142Y-45535714D01*
X76678571Y-45392857D01*
X76678571Y-45250000D01*
X76607142Y-45107142D01*
X76535714Y-45035714D01*
X76392857Y-44964285D01*
X76107142Y-44892857D01*
X75964285Y-44821428D01*
X75892857Y-44750000D01*
X75821428Y-44607142D01*
X75821428Y-44464285D01*
X75892857Y-44321428D01*
X75964285Y-44250000D01*
X76107142Y-44178571D01*
X76464285Y-44178571D01*
X76678571Y-44250000D01*
X78178571Y-45535714D02*
X78107142Y-45607142D01*
X77892857Y-45678571D01*
X77749999Y-45678571D01*
X77535714Y-45607142D01*
X77392857Y-45464285D01*
X77321428Y-45321428D01*
X77249999Y-45035714D01*
X77249999Y-44821428D01*
X77321428Y-44535714D01*
X77392857Y-44392857D01*
X77535714Y-44250000D01*
X77749999Y-44178571D01*
X77892857Y-44178571D01*
X78107142Y-44250000D01*
X78178571Y-44321428D01*
X79107142Y-44178571D02*
X79392857Y-44178571D01*
X79535714Y-44250000D01*
X79678571Y-44392857D01*
X79749999Y-44678571D01*
X79749999Y-45178571D01*
X79678571Y-45464285D01*
X79535714Y-45607142D01*
X79392857Y-45678571D01*
X79107142Y-45678571D01*
X78964285Y-45607142D01*
X78821428Y-45464285D01*
X78749999Y-45178571D01*
X78749999Y-44678571D01*
X78821428Y-44392857D01*
X78964285Y-44250000D01*
X79107142Y-44178571D01*
X81249999Y-45678571D02*
X80749999Y-44964285D01*
X80392857Y-45678571D02*
X80392857Y-44178571D01*
X80964285Y-44178571D01*
X81107142Y-44250000D01*
X81178571Y-44321428D01*
X81249999Y-44464285D01*
X81249999Y-44678571D01*
X81178571Y-44821428D01*
X81107142Y-44892857D01*
X80964285Y-44964285D01*
X80392857Y-44964285D01*
X81892857Y-44892857D02*
X82392857Y-44892857D01*
X82607142Y-45678571D02*
X81892857Y-45678571D01*
X81892857Y-44178571D01*
X82607142Y-44178571D01*
X84392857Y-45678571D02*
X84392857Y-44178571D01*
X84964285Y-44178571D01*
X85107142Y-44250000D01*
X85178571Y-44321428D01*
X85249999Y-44464285D01*
X85249999Y-44678571D01*
X85178571Y-44821428D01*
X85107142Y-44892857D01*
X84964285Y-44964285D01*
X84392857Y-44964285D01*
X85821428Y-45250000D02*
X86535714Y-45250000D01*
X85678571Y-45678571D02*
X86178571Y-44178571D01*
X86678571Y-45678571D01*
X88035714Y-45678571D02*
X87535714Y-44964285D01*
X87178571Y-45678571D02*
X87178571Y-44178571D01*
X87749999Y-44178571D01*
X87892857Y-44250000D01*
X87964285Y-44321428D01*
X88035714Y-44464285D01*
X88035714Y-44678571D01*
X87964285Y-44821428D01*
X87892857Y-44892857D01*
X87749999Y-44964285D01*
X87178571Y-44964285D01*
X88607142Y-45250000D02*
X89321428Y-45250000D01*
X88464285Y-45678571D02*
X88964285Y-44178571D01*
X89464285Y-45678571D01*
X90678571Y-45678571D02*
X89964285Y-45678571D01*
X89964285Y-44178571D01*
X91892857Y-45678571D02*
X91178571Y-45678571D01*
X91178571Y-44178571D01*
X92392857Y-44892857D02*
X92892857Y-44892857D01*
X93107142Y-45678571D02*
X92392857Y-45678571D01*
X92392857Y-44178571D01*
X93107142Y-44178571D01*
X94464285Y-45678571D02*
X93749999Y-45678571D01*
X93749999Y-44178571D01*
X96107142Y-44892857D02*
X96607142Y-44892857D01*
X96821428Y-45678571D02*
X96107142Y-45678571D01*
X96107142Y-44178571D01*
X96821428Y-44178571D01*
X97464285Y-45678571D02*
X97464285Y-44178571D01*
X98321428Y-45678571D01*
X98321428Y-44178571D01*
X99035714Y-45678571D02*
X99035714Y-44178571D01*
X99392857Y-44178571D01*
X99607142Y-44250000D01*
X99749999Y-44392857D01*
X99821428Y-44535714D01*
X99892857Y-44821428D01*
X99892857Y-45035714D01*
X99821428Y-45321428D01*
X99749999Y-45464285D01*
X99607142Y-45607142D01*
X99392857Y-45678571D01*
X99035714Y-45678571D01*
X100464285Y-45607142D02*
X100678571Y-45678571D01*
X101035714Y-45678571D01*
X101178571Y-45607142D01*
X101249999Y-45535714D01*
X101321428Y-45392857D01*
X101321428Y-45250000D01*
X101249999Y-45107142D01*
X101178571Y-45035714D01*
X101035714Y-44964285D01*
X100749999Y-44892857D01*
X100607142Y-44821428D01*
X100535714Y-44750000D01*
X100464285Y-44607142D01*
X100464285Y-44464285D01*
X100535714Y-44321428D01*
X100607142Y-44250000D01*
X100749999Y-44178571D01*
X101107142Y-44178571D01*
X101321428Y-44250000D01*
M02*
