G04 #@! TF.GenerationSoftware,KiCad,Pcbnew,5.0.2-bee76a0~70~ubuntu18.04.1*
G04 #@! TF.CreationDate,2019-01-05T10:05:45+08:00*
G04 #@! TF.ProjectId,NeuroBytes_Touch_Sensor,4e657572-6f42-4797-9465-735f546f7563,D*
G04 #@! TF.SameCoordinates,Original*
G04 #@! TF.FileFunction,Drawing*
%FSLAX46Y46*%
G04 Gerber Fmt 4.6, Leading zero omitted, Abs format (unit mm)*
G04 Created by KiCad (PCBNEW 5.0.2-bee76a0~70~ubuntu18.04.1) date Sat 05 Jan 2019 10:05:45 AM HKT*
%MOMM*%
%LPD*%
G01*
G04 APERTURE LIST*
%ADD10C,0.200000*%
%ADD11C,0.300000*%
G04 APERTURE END LIST*
D10*
X82000000Y-97000000D02*
X81000000Y-98000000D01*
X81000000Y-96000000D02*
X82000000Y-97000000D01*
X82000000Y-97000000D02*
X81000000Y-96000000D01*
X45000000Y-97000000D02*
X82000000Y-97000000D01*
D11*
X45892857Y-96107142D02*
X46107142Y-96178571D01*
X46464285Y-96178571D01*
X46607142Y-96107142D01*
X46678571Y-96035714D01*
X46749999Y-95892857D01*
X46749999Y-95750000D01*
X46678571Y-95607142D01*
X46607142Y-95535714D01*
X46464285Y-95464285D01*
X46178571Y-95392857D01*
X46035714Y-95321428D01*
X45964285Y-95250000D01*
X45892857Y-95107142D01*
X45892857Y-94964285D01*
X45964285Y-94821428D01*
X46035714Y-94750000D01*
X46178571Y-94678571D01*
X46535714Y-94678571D01*
X46749999Y-94750000D01*
X47249999Y-94678571D02*
X47607142Y-96178571D01*
X47892857Y-95107142D01*
X48178571Y-96178571D01*
X48535714Y-94678571D01*
X49035714Y-94821428D02*
X49107142Y-94750000D01*
X49249999Y-94678571D01*
X49607142Y-94678571D01*
X49749999Y-94750000D01*
X49821428Y-94821428D01*
X49892857Y-94964285D01*
X49892857Y-95107142D01*
X49821428Y-95321428D01*
X48964285Y-96178571D01*
X49892857Y-96178571D01*
X52107142Y-96750000D02*
X52035714Y-96678571D01*
X51892857Y-96464285D01*
X51821428Y-96321428D01*
X51749999Y-96107142D01*
X51678571Y-95750000D01*
X51678571Y-95464285D01*
X51749999Y-95107142D01*
X51821428Y-94892857D01*
X51892857Y-94750000D01*
X52035714Y-94535714D01*
X52107142Y-94464285D01*
X52678571Y-96178571D02*
X52678571Y-94678571D01*
X52678571Y-95392857D02*
X53535714Y-95392857D01*
X53535714Y-96178571D02*
X53535714Y-94678571D01*
X54535714Y-94678571D02*
X54821428Y-94678571D01*
X54964285Y-94750000D01*
X55107142Y-94892857D01*
X55178571Y-95178571D01*
X55178571Y-95678571D01*
X55107142Y-95964285D01*
X54964285Y-96107142D01*
X54821428Y-96178571D01*
X54535714Y-96178571D01*
X54392857Y-96107142D01*
X54249999Y-95964285D01*
X54178571Y-95678571D01*
X54178571Y-95178571D01*
X54249999Y-94892857D01*
X54392857Y-94750000D01*
X54535714Y-94678571D01*
X56678571Y-96178571D02*
X56178571Y-95464285D01*
X55821428Y-96178571D02*
X55821428Y-94678571D01*
X56392857Y-94678571D01*
X56535714Y-94750000D01*
X56607142Y-94821428D01*
X56678571Y-94964285D01*
X56678571Y-95178571D01*
X56607142Y-95321428D01*
X56535714Y-95392857D01*
X56392857Y-95464285D01*
X55821428Y-95464285D01*
X57321428Y-96178571D02*
X57321428Y-94678571D01*
X57892857Y-94678571D02*
X58892857Y-94678571D01*
X57892857Y-96178571D01*
X58892857Y-96178571D01*
X59749999Y-94678571D02*
X60035714Y-94678571D01*
X60178571Y-94750000D01*
X60321428Y-94892857D01*
X60392857Y-95178571D01*
X60392857Y-95678571D01*
X60321428Y-95964285D01*
X60178571Y-96107142D01*
X60035714Y-96178571D01*
X59749999Y-96178571D01*
X59607142Y-96107142D01*
X59464285Y-95964285D01*
X59392857Y-95678571D01*
X59392857Y-95178571D01*
X59464285Y-94892857D01*
X59607142Y-94750000D01*
X59749999Y-94678571D01*
X61035714Y-96178571D02*
X61035714Y-94678571D01*
X61892857Y-96178571D01*
X61892857Y-94678571D01*
X62392857Y-94678571D02*
X63249999Y-94678571D01*
X62821428Y-96178571D02*
X62821428Y-94678571D01*
X63678571Y-95750000D02*
X64392857Y-95750000D01*
X63535714Y-96178571D02*
X64035714Y-94678571D01*
X64535714Y-96178571D01*
X65749999Y-96178571D02*
X65035714Y-96178571D01*
X65035714Y-94678571D01*
X67392857Y-96178571D02*
X67392857Y-94678571D01*
X67892857Y-95750000D01*
X68392857Y-94678571D01*
X68392857Y-96178571D01*
X68892857Y-94678571D02*
X69749999Y-94678571D01*
X69321428Y-96178571D02*
X69321428Y-94678571D01*
X71035714Y-94750000D02*
X70892857Y-94678571D01*
X70678571Y-94678571D01*
X70464285Y-94750000D01*
X70321428Y-94892857D01*
X70249999Y-95035714D01*
X70178571Y-95321428D01*
X70178571Y-95535714D01*
X70249999Y-95821428D01*
X70321428Y-95964285D01*
X70464285Y-96107142D01*
X70678571Y-96178571D01*
X70821428Y-96178571D01*
X71035714Y-96107142D01*
X71107142Y-96035714D01*
X71107142Y-95535714D01*
X70821428Y-95535714D01*
X71607142Y-96750000D02*
X71678571Y-96678571D01*
X71821428Y-96464285D01*
X71892857Y-96321428D01*
X71964285Y-96107142D01*
X72035714Y-95750000D01*
X72035714Y-95464285D01*
X71964285Y-95107142D01*
X71892857Y-94892857D01*
X71821428Y-94750000D01*
X71678571Y-94535714D01*
X71607142Y-94464285D01*
D10*
X93706226Y-93300000D02*
G75*
G03X93706226Y-93300000I-806226J0D01*
G01*
X98000000Y-97600000D02*
G75*
G03X98000000Y-97600000I-800000J0D01*
G01*
X91700000Y-89900000D02*
X100700000Y-98900000D01*
X83300000Y-93900000D02*
X83300000Y-93900000D01*
X89900000Y-100500000D02*
X83300000Y-93900000D01*
X83284158Y-93977397D02*
G75*
G03X88400000Y-99000000I4215842J-822603D01*
G01*
X91000000Y-100500000D02*
X89900000Y-100500000D01*
X92300000Y-100500000D02*
X91000000Y-100500000D01*
X95500000Y-103700000D02*
X92300000Y-100500000D01*
X95900000Y-103300000D02*
X95500000Y-103700000D01*
X92800000Y-100800000D02*
X93100000Y-100500000D01*
X93200000Y-101200000D02*
X92800000Y-100800000D01*
X93500000Y-100900000D02*
X93200000Y-101200000D01*
X87100000Y-94500000D02*
X96100000Y-103500000D01*
X91700000Y-89900000D02*
X87100000Y-94500000D01*
X100700000Y-98900000D02*
X96100000Y-103500000D01*
M02*
