G04 #@! TF.FileFunction,Paste,Bot*
%FSLAX46Y46*%
G04 Gerber Fmt 4.6, Leading zero omitted, Abs format (unit mm)*
G04 Created by KiCad (PCBNEW 4.0.5-e0-6337~49~ubuntu14.04.1) date Tue May 16 18:33:42 2017*
%MOMM*%
%LPD*%
G01*
G04 APERTURE LIST*
%ADD10C,0.100000*%
%ADD11R,1.600000X0.800000*%
%ADD12R,1.000000X1.200000*%
%ADD13R,1.800000X1.250000*%
%ADD14R,0.500000X0.800000*%
%ADD15R,0.300000X0.800000*%
G04 APERTURE END LIST*
D10*
G36*
X109094409Y-83849457D02*
X108322625Y-82334746D01*
X108857229Y-82062351D01*
X109629013Y-83577062D01*
X109094409Y-83849457D01*
X109094409Y-83849457D01*
G37*
G36*
X110208167Y-83281969D02*
X109436383Y-81767258D01*
X109970987Y-81494863D01*
X110742771Y-83009574D01*
X110208167Y-83281969D01*
X110208167Y-83281969D01*
G37*
G36*
X107980651Y-84416945D02*
X107208867Y-82902234D01*
X107743471Y-82629839D01*
X108515255Y-84144550D01*
X107980651Y-84416945D01*
X107980651Y-84416945D01*
G37*
G36*
X106866893Y-84984433D02*
X106095109Y-83469722D01*
X106629713Y-83197327D01*
X107401497Y-84712038D01*
X106866893Y-84984433D01*
X106866893Y-84984433D01*
G37*
G36*
X113928752Y-78524304D02*
X112702978Y-76118586D01*
X113593984Y-75664596D01*
X114819758Y-78070314D01*
X113928752Y-78524304D01*
X113928752Y-78524304D01*
G37*
G36*
X103815829Y-83677097D02*
X102590055Y-81271379D01*
X103481061Y-80817389D01*
X104706835Y-83223107D01*
X103815829Y-83677097D01*
X103815829Y-83677097D01*
G37*
G36*
X111856529Y-82442086D02*
X111321925Y-82714481D01*
X110550141Y-81199770D01*
X111084745Y-80927375D01*
X111856529Y-82442086D01*
X111856529Y-82442086D01*
G37*
G36*
X112970288Y-81874597D02*
X112435684Y-82146992D01*
X111663900Y-80632281D01*
X112198504Y-80359886D01*
X112970288Y-81874597D01*
X112970288Y-81874597D01*
G37*
G36*
X114084046Y-81307109D02*
X113549442Y-81579504D01*
X112777658Y-80064793D01*
X113312262Y-79792398D01*
X114084046Y-81307109D01*
X114084046Y-81307109D01*
G37*
G36*
X136872093Y-83931712D02*
X138074175Y-85133794D01*
X137649911Y-85558058D01*
X136447829Y-84355976D01*
X136872093Y-83931712D01*
X136872093Y-83931712D01*
G37*
G36*
X135988210Y-84815596D02*
X137190292Y-86017678D01*
X136766028Y-86441942D01*
X135563946Y-85239860D01*
X135988210Y-84815596D01*
X135988210Y-84815596D01*
G37*
G36*
X137755976Y-83047829D02*
X138958058Y-84249911D01*
X138533794Y-84674175D01*
X137331712Y-83472093D01*
X137755976Y-83047829D01*
X137755976Y-83047829D01*
G37*
G36*
X138639860Y-82163946D02*
X139841942Y-83366028D01*
X139417678Y-83790292D01*
X138215596Y-82588210D01*
X138639860Y-82163946D01*
X138639860Y-82163946D01*
G37*
G36*
X136571573Y-87838477D02*
X138480762Y-89747666D01*
X137773655Y-90454773D01*
X135864466Y-88545584D01*
X136571573Y-87838477D01*
X136571573Y-87838477D01*
G37*
G36*
X141945584Y-82464466D02*
X143854773Y-84373655D01*
X143147666Y-85080762D01*
X141238477Y-83171573D01*
X141945584Y-82464466D01*
X141945584Y-82464466D01*
G37*
D11*
X129200000Y-70300000D03*
X129200000Y-68700000D03*
X123800000Y-70300000D03*
X123800000Y-68700000D03*
D12*
X123500000Y-70500000D03*
X123500000Y-68500000D03*
X129500000Y-70500000D03*
X129500000Y-68500000D03*
D10*
G36*
X123950000Y-71100000D02*
X123400000Y-70700000D01*
X124600000Y-70700000D01*
X124050000Y-71100000D01*
X123950000Y-71100000D01*
X123950000Y-71100000D01*
G37*
G36*
X124050000Y-67900000D02*
X124600000Y-68300000D01*
X123400000Y-68300000D01*
X123950000Y-67900000D01*
X124050000Y-67900000D01*
X124050000Y-67900000D01*
G37*
G36*
X128950000Y-71100000D02*
X128400000Y-70700000D01*
X129600000Y-70700000D01*
X129050000Y-71100000D01*
X128950000Y-71100000D01*
X128950000Y-71100000D01*
G37*
G36*
X129050000Y-67900000D02*
X129600000Y-68300000D01*
X128400000Y-68300000D01*
X128950000Y-67900000D01*
X129050000Y-67900000D01*
X129050000Y-67900000D01*
G37*
G36*
X103386396Y-85015076D02*
X104234924Y-85863604D01*
X103527818Y-86570710D01*
X102679290Y-85722182D01*
X103386396Y-85015076D01*
X103386396Y-85015076D01*
G37*
G36*
X101972182Y-86429290D02*
X102820710Y-87277818D01*
X102113604Y-87984924D01*
X101265076Y-87136396D01*
X101972182Y-86429290D01*
X101972182Y-86429290D01*
G37*
D13*
X118700000Y-82300000D03*
X121300000Y-82300000D03*
D10*
G36*
X122866117Y-80969670D02*
X123219670Y-80616117D01*
X123785355Y-81181802D01*
X123431802Y-81535355D01*
X122866117Y-80969670D01*
X122866117Y-80969670D01*
G37*
G36*
X123714645Y-81818198D02*
X124068198Y-81464645D01*
X124633883Y-82030330D01*
X124280330Y-82383883D01*
X123714645Y-81818198D01*
X123714645Y-81818198D01*
G37*
G36*
X105613604Y-91484924D02*
X104765076Y-90636396D01*
X105472182Y-89929290D01*
X106320710Y-90777818D01*
X105613604Y-91484924D01*
X105613604Y-91484924D01*
G37*
G36*
X107027818Y-90070710D02*
X106179290Y-89222182D01*
X106886396Y-88515076D01*
X107734924Y-89363604D01*
X107027818Y-90070710D01*
X107027818Y-90070710D01*
G37*
G36*
X129569670Y-76783883D02*
X129216117Y-76430330D01*
X129781802Y-75864645D01*
X130135355Y-76218198D01*
X129569670Y-76783883D01*
X129569670Y-76783883D01*
G37*
G36*
X130418198Y-75935355D02*
X130064645Y-75581802D01*
X130630330Y-75016117D01*
X130983883Y-75369670D01*
X130418198Y-75935355D01*
X130418198Y-75935355D01*
G37*
G36*
X137331712Y-79527907D02*
X138533794Y-78325825D01*
X138958058Y-78750089D01*
X137755976Y-79952171D01*
X137331712Y-79527907D01*
X137331712Y-79527907D01*
G37*
G36*
X138215596Y-80411790D02*
X139417678Y-79209708D01*
X139841942Y-79633972D01*
X138639860Y-80836054D01*
X138215596Y-80411790D01*
X138215596Y-80411790D01*
G37*
G36*
X136447829Y-78644024D02*
X137649911Y-77441942D01*
X138074175Y-77866206D01*
X136872093Y-79068288D01*
X136447829Y-78644024D01*
X136447829Y-78644024D01*
G37*
G36*
X135563946Y-77760140D02*
X136766028Y-76558058D01*
X137190292Y-76982322D01*
X135988210Y-78184404D01*
X135563946Y-77760140D01*
X135563946Y-77760140D01*
G37*
G36*
X141238477Y-79828427D02*
X143147666Y-77919238D01*
X143854773Y-78626345D01*
X141945584Y-80535534D01*
X141238477Y-79828427D01*
X141238477Y-79828427D01*
G37*
G36*
X135864466Y-74454416D02*
X137773655Y-72545227D01*
X138480762Y-73252334D01*
X136571573Y-75161523D01*
X135864466Y-74454416D01*
X135864466Y-74454416D01*
G37*
D14*
X121600000Y-71500000D03*
X121600000Y-72700000D03*
X122400000Y-70300000D03*
X122400000Y-71500000D03*
X130700000Y-70300000D03*
X130700000Y-71500000D03*
D10*
G36*
X105949569Y-87224695D02*
X105101041Y-88073223D01*
X104676777Y-87648959D01*
X105525305Y-86800431D01*
X105949569Y-87224695D01*
X105949569Y-87224695D01*
G37*
G36*
X105277817Y-86552944D02*
X104429289Y-87401472D01*
X104005025Y-86977208D01*
X104853553Y-86128680D01*
X105277817Y-86552944D01*
X105277817Y-86552944D01*
G37*
G36*
X106621320Y-87896447D02*
X105772792Y-88744975D01*
X105348528Y-88320711D01*
X106197056Y-87472183D01*
X106621320Y-87896447D01*
X106621320Y-87896447D01*
G37*
G36*
X104994975Y-89522792D02*
X104146447Y-90371320D01*
X103722183Y-89947056D01*
X104570711Y-89098528D01*
X104994975Y-89522792D01*
X104994975Y-89522792D01*
G37*
G36*
X103651472Y-88179289D02*
X102802944Y-89027817D01*
X102378680Y-88603553D01*
X103227208Y-87755025D01*
X103651472Y-88179289D01*
X103651472Y-88179289D01*
G37*
G36*
X129930330Y-74316117D02*
X130283883Y-74669670D01*
X129718198Y-75235355D01*
X129364645Y-74881802D01*
X129930330Y-74316117D01*
X129930330Y-74316117D01*
G37*
G36*
X129081802Y-75164645D02*
X129435355Y-75518198D01*
X128869670Y-76083883D01*
X128516117Y-75730330D01*
X129081802Y-75164645D01*
X129081802Y-75164645D01*
G37*
D15*
X131350000Y-78050000D03*
X131850000Y-78050000D03*
X132350000Y-78050000D03*
X132850000Y-78050000D03*
X132850000Y-76750000D03*
X132350000Y-76750000D03*
X131850000Y-76750000D03*
X131350000Y-76750000D03*
D10*
G36*
X104401829Y-94866296D02*
X100866296Y-98401829D01*
X99310661Y-96846194D01*
X102846194Y-93310661D01*
X104401829Y-94866296D01*
X104401829Y-94866296D01*
G37*
G36*
X100795584Y-91260051D02*
X97260051Y-94795584D01*
X95704416Y-93239949D01*
X99239949Y-89704416D01*
X100795584Y-91260051D01*
X100795584Y-91260051D01*
G37*
G36*
X97189339Y-87653806D02*
X93653806Y-91189339D01*
X92098171Y-89633704D01*
X95633704Y-86098171D01*
X97189339Y-87653806D01*
X97189339Y-87653806D01*
G37*
G36*
X135049557Y-86037520D02*
X134757186Y-86993825D01*
X126150443Y-84362480D01*
X126442814Y-83406175D01*
X135049557Y-86037520D01*
X135049557Y-86037520D01*
G37*
G36*
X133919652Y-83234698D02*
X133510331Y-84573524D01*
X132554026Y-84281152D01*
X132963347Y-82942326D01*
X133919652Y-83234698D01*
X133919652Y-83234698D01*
G37*
G36*
X129903172Y-82006737D02*
X129493851Y-83345563D01*
X128537546Y-83053191D01*
X128946867Y-81714365D01*
X129903172Y-82006737D01*
X129903172Y-82006737D01*
G37*
G36*
X127560660Y-75780152D02*
X126924264Y-76416548D01*
X126712132Y-76204416D01*
X127348528Y-75568020D01*
X127560660Y-75780152D01*
X127560660Y-75780152D01*
G37*
G36*
X127914213Y-76133705D02*
X127065685Y-76982233D01*
X126853553Y-76770101D01*
X127702081Y-75921573D01*
X127914213Y-76133705D01*
X127914213Y-76133705D01*
G37*
G36*
X128267767Y-76487258D02*
X127419239Y-77335786D01*
X127207107Y-77123654D01*
X128055635Y-76275126D01*
X128267767Y-76487258D01*
X128267767Y-76487258D01*
G37*
G36*
X128621320Y-76840812D02*
X127772792Y-77689340D01*
X127560660Y-77477208D01*
X128409188Y-76628680D01*
X128621320Y-76840812D01*
X128621320Y-76840812D01*
G37*
G36*
X128974874Y-77194365D02*
X128126346Y-78042893D01*
X127914214Y-77830761D01*
X128762742Y-76982233D01*
X128974874Y-77194365D01*
X128974874Y-77194365D01*
G37*
G36*
X129328427Y-77547919D02*
X128479899Y-78396447D01*
X128267767Y-78184315D01*
X129116295Y-77335787D01*
X129328427Y-77547919D01*
X129328427Y-77547919D01*
G37*
G36*
X129681980Y-77901472D02*
X129045584Y-78537868D01*
X128833452Y-78325736D01*
X129469848Y-77689340D01*
X129681980Y-77901472D01*
X129681980Y-77901472D01*
G37*
G36*
X129469848Y-79810660D02*
X128833452Y-79174264D01*
X129045584Y-78962132D01*
X129681980Y-79598528D01*
X129469848Y-79810660D01*
X129469848Y-79810660D01*
G37*
G36*
X129116295Y-80164213D02*
X128267767Y-79315685D01*
X128479899Y-79103553D01*
X129328427Y-79952081D01*
X129116295Y-80164213D01*
X129116295Y-80164213D01*
G37*
G36*
X128762742Y-80517767D02*
X127914214Y-79669239D01*
X128126346Y-79457107D01*
X128974874Y-80305635D01*
X128762742Y-80517767D01*
X128762742Y-80517767D01*
G37*
G36*
X128409188Y-80871320D02*
X127560660Y-80022792D01*
X127772792Y-79810660D01*
X128621320Y-80659188D01*
X128409188Y-80871320D01*
X128409188Y-80871320D01*
G37*
G36*
X128055635Y-81224874D02*
X127207107Y-80376346D01*
X127419239Y-80164214D01*
X128267767Y-81012742D01*
X128055635Y-81224874D01*
X128055635Y-81224874D01*
G37*
G36*
X127702081Y-81578427D02*
X126853553Y-80729899D01*
X127065685Y-80517767D01*
X127914213Y-81366295D01*
X127702081Y-81578427D01*
X127702081Y-81578427D01*
G37*
G36*
X127348528Y-81931980D02*
X126712132Y-81295584D01*
X126924264Y-81083452D01*
X127560660Y-81719848D01*
X127348528Y-81931980D01*
X127348528Y-81931980D01*
G37*
G36*
X126287868Y-81295584D02*
X125651472Y-81931980D01*
X125439340Y-81719848D01*
X126075736Y-81083452D01*
X126287868Y-81295584D01*
X126287868Y-81295584D01*
G37*
G36*
X126146447Y-80729899D02*
X125297919Y-81578427D01*
X125085787Y-81366295D01*
X125934315Y-80517767D01*
X126146447Y-80729899D01*
X126146447Y-80729899D01*
G37*
G36*
X125792893Y-80376346D02*
X124944365Y-81224874D01*
X124732233Y-81012742D01*
X125580761Y-80164214D01*
X125792893Y-80376346D01*
X125792893Y-80376346D01*
G37*
G36*
X125439340Y-80022792D02*
X124590812Y-80871320D01*
X124378680Y-80659188D01*
X125227208Y-79810660D01*
X125439340Y-80022792D01*
X125439340Y-80022792D01*
G37*
G36*
X125085786Y-79669239D02*
X124237258Y-80517767D01*
X124025126Y-80305635D01*
X124873654Y-79457107D01*
X125085786Y-79669239D01*
X125085786Y-79669239D01*
G37*
G36*
X124732233Y-79315685D02*
X123883705Y-80164213D01*
X123671573Y-79952081D01*
X124520101Y-79103553D01*
X124732233Y-79315685D01*
X124732233Y-79315685D01*
G37*
G36*
X124166548Y-79174264D02*
X123530152Y-79810660D01*
X123318020Y-79598528D01*
X123954416Y-78962132D01*
X124166548Y-79174264D01*
X124166548Y-79174264D01*
G37*
G36*
X123954416Y-78537868D02*
X123318020Y-77901472D01*
X123530152Y-77689340D01*
X124166548Y-78325736D01*
X123954416Y-78537868D01*
X123954416Y-78537868D01*
G37*
G36*
X124520101Y-78396447D02*
X123671573Y-77547919D01*
X123883705Y-77335787D01*
X124732233Y-78184315D01*
X124520101Y-78396447D01*
X124520101Y-78396447D01*
G37*
G36*
X124873654Y-78042893D02*
X124025126Y-77194365D01*
X124237258Y-76982233D01*
X125085786Y-77830761D01*
X124873654Y-78042893D01*
X124873654Y-78042893D01*
G37*
G36*
X125227208Y-77689340D02*
X124378680Y-76840812D01*
X124590812Y-76628680D01*
X125439340Y-77477208D01*
X125227208Y-77689340D01*
X125227208Y-77689340D01*
G37*
G36*
X125580761Y-77335786D02*
X124732233Y-76487258D01*
X124944365Y-76275126D01*
X125792893Y-77123654D01*
X125580761Y-77335786D01*
X125580761Y-77335786D01*
G37*
G36*
X125934315Y-76982233D02*
X125085787Y-76133705D01*
X125297919Y-75921573D01*
X126146447Y-76770101D01*
X125934315Y-76982233D01*
X125934315Y-76982233D01*
G37*
G36*
X126075736Y-76416548D02*
X125439340Y-75780152D01*
X125651472Y-75568020D01*
X126287868Y-76204416D01*
X126075736Y-76416548D01*
X126075736Y-76416548D01*
G37*
G36*
X127242462Y-76098349D02*
X126676776Y-76664035D01*
X126676776Y-76239771D01*
X126818198Y-76098349D01*
X127242462Y-76098349D01*
X127242462Y-76098349D01*
G37*
G36*
X126323224Y-76664035D02*
X125757538Y-76098349D01*
X126181802Y-76098349D01*
X126323224Y-76239771D01*
X126323224Y-76664035D01*
X126323224Y-76664035D01*
G37*
G36*
X126676776Y-80835965D02*
X127242462Y-81401651D01*
X126818198Y-81401651D01*
X126676776Y-81260229D01*
X126676776Y-80835965D01*
X126676776Y-80835965D01*
G37*
G36*
X125757538Y-81401651D02*
X126323224Y-80835965D01*
X126323224Y-81260229D01*
X126181802Y-81401651D01*
X125757538Y-81401651D01*
X125757538Y-81401651D01*
G37*
G36*
X128585965Y-78573224D02*
X129151651Y-78007538D01*
X129151651Y-78431802D01*
X129010229Y-78573224D01*
X128585965Y-78573224D01*
X128585965Y-78573224D01*
G37*
G36*
X129151651Y-79492462D02*
X128585965Y-78926776D01*
X129010229Y-78926776D01*
X129151651Y-79068198D01*
X129151651Y-79492462D01*
X129151651Y-79492462D01*
G37*
G36*
X124414035Y-78926776D02*
X123848349Y-79492462D01*
X123848349Y-79068198D01*
X123989771Y-78926776D01*
X124414035Y-78926776D01*
X124414035Y-78926776D01*
G37*
G36*
X123848349Y-78007538D02*
X124414035Y-78573224D01*
X123989771Y-78573224D01*
X123848349Y-78431802D01*
X123848349Y-78007538D01*
X123848349Y-78007538D01*
G37*
D15*
X123650000Y-75000000D03*
X123000000Y-75000000D03*
X122350000Y-75000000D03*
X122350000Y-73000000D03*
X123000000Y-73000000D03*
X123650000Y-73000000D03*
X133250000Y-73500000D03*
X132600000Y-73500000D03*
X131950000Y-73500000D03*
X131950000Y-71500000D03*
X132600000Y-71500000D03*
X133250000Y-71500000D03*
M02*
