M48
;DRILL file {KiCad 4.0.5-e0-6337~49~ubuntu14.04.1} date Tue May 16 18:33:45 2017
;FORMAT={-:-/ absolute / metric / decimal}
FMAT,2
METRIC,TZ
T1C0.400
T2C3.000
%
G90
G05
M71
T1
X106.508Y-91.568
X108.6Y-89.1
X117.Y-82.4
X118.5Y-80.6
X119.4Y-73.8
X122.4Y-73.8
X124.6Y-82.8
X124.8Y-75.
X125.3Y-78.5
X127.7Y-74.3
X128.2Y-75.
X128.4Y-73.7
X131.276Y-74.724
X131.8Y-68.5
X132.5Y-75.1
X135.Y-76.1
X135.791Y-76.858
X139.5Y-82.4
X140.5Y-79.5
X140.5Y-83.2
T2
X126.5Y-69.5
T0
M30
