<?xml version="1.0" standalone="no"?>
 <!DOCTYPE svg PUBLIC "-//W3C//DTD SVG 1.1//EN" 
 "http://www.w3.org/Graphics/SVG/1.1/DTD/svg11.dtd"> 
<svg xmlns="http://www.w3.org/2000/svg" version="1.1" 
    width="12.8016cm" height="10.1016cm" viewBox="0 0 50400 39770 ">
<title>SVG Picture created as NeuroBytes_Touch_Sensor-brd.svg date 2017/09/06 15:40:55 </title>
  <desc>Picture generated by PCBNEW </desc>
<g style="fill:#000000; fill-opacity:1;stroke:#000000; stroke-opacity:1;
stroke-linecap:round; stroke-linejoin:round; "
 transform="translate(0 0) scale(1 1)">
</g>
<g style="fill:#000000; fill-opacity:0.0; 
stroke:#000000; stroke-width:-0.000393701; stroke-opacity:1; 
stroke-linecap:round; stroke-linejoin:round;">
</g>
<g style="fill:#000000; fill-opacity:0.0; 
stroke:#000000; stroke-width:66.9291; stroke-opacity:1; 
stroke-linecap:round; stroke-linejoin:round;">
<path d="M23712 15695
L23927 15274
L24087 15355
L24117 15396
L24127 15426
L24126 15476
L24096 15537
L24055 15566
L24025 15576
L23975 15576
L23814 15494
" />
<path d="M24428 15529
L24508 15570
L24538 15610
L24558 15671
L24537 15761
L24465 15902
L24404 15971
L24344 15991
L24293 15991
L24213 15950
L24183 15909
L24164 15849
L24185 15759
L24256 15618
L24317 15548
L24377 15529
L24428 15529
" />
<path d="M24749 15692
L24634 16164
L24868 15905
L24795 16246
L25109 15876
" />
<path d="M25168 16158
L25308 16230
" />
<path d="M25256 16481
L25055 16379
L25270 15958
L25470 16060
" />
<path d="M25677 16695
L25638 16424
" />
<path d="M25436 16573
L25651 16152
L25811 16234
L25841 16274
L25851 16304
L25850 16355
L25820 16415
L25779 16445
L25749 16455
L25699 16454
L25538 16372
" />
<path d="M16142 15470
L16003 15018
" />
<path d="M16357 15404
L16219 14952
L16326 14919
L16397 14921
L16453 14951
L16488 14987
L16536 15067
L16556 15131
L16561 15224
L16552 15274
L16522 15330
L16464 15371
L16357 15404
" />
</g>
<g style="fill:#000000; fill-opacity:0.0; 
stroke:#000000; stroke-width:59.0551; stroke-opacity:1; 
stroke-linecap:round; stroke-linejoin:round;">
<path d="M24258 12978
L23579 14311
" />
<path d="M23579 14311
L26929 16018
" />
<path d="M26929 16018
L27608 14685
" />
<path d="M27608 14685
L24258 12978
" />
</g>
<g style="fill:#000000; fill-opacity:0.0; 
stroke:#000000; stroke-width:39.3701; stroke-opacity:1; 
stroke-linecap:round; stroke-linejoin:round;">
<circle cx="19022" cy="9448.82" r="88.0343" /> 
<path d="M17092 8937
L17092 11299
" />
<path d="M19455 8937
L17092 8937
" />
<path d="M19455 11299
L19455 8937
" />
<path d="M17092 11299
L19455 11299
" />
</g>
<g style="fill:#000000; fill-opacity:0.0; 
stroke:#000000; stroke-width:59.0551; stroke-opacity:1; 
stroke-linecap:round; stroke-linejoin:round;">
<path d="M17644 10669
L18903 10669
" />
<path d="M18903 10669
L18903 9566
" />
<path d="M18903 9566
L17644 9566
" />
<path d="M17644 9566
L17644 10669
" />
</g>
<g style="fill:#000000; fill-opacity:0.0; 
stroke:#000000; stroke-width:39.3701; stroke-opacity:1; 
stroke-linecap:round; stroke-linejoin:round;">
<circle cx="18274" cy="12507.1" r="98.4252" /> 
<path d="M17160 13759
L18274 12646
" />
<path d="M18274 14873
L17160 13759
" />
<path d="M19387 13759
L18274 14873
" />
<path d="M18274 12646
L19387 13759
" />
</g>
<g style="fill:#000000; fill-opacity:0.0; 
stroke:#000000; stroke-width:59.0551; stroke-opacity:1; 
stroke-linecap:round; stroke-linejoin:round;">
<path d="M31205.6 18768.6 A1074.59 1074.59 0.0 0 0 31918.8 18078.5 " />
<path d="M29757 17320
L31205 18768
" />
<path d="M18025 16083
L17737 15142
" />
<path d="M17737 15142
L15102 15948
" />
<path d="M15102 15948
L15390 16889
" />
<path d="M15390 16889
L18025 16083
" />
<path d="M13813 18306
L14871 17248
" />
<path d="M14871 17248
L12561 14937
" />
<path d="M12561 14937
L11503 15995
" />
<path d="M11503 15995
L13813 18306
" />
<path d="M11513 13689
L12570 14747
" />
<path d="M12570 14747
L14881 12436
" />
<path d="M14881 12436
L13823 11378
" />
<path d="M13823 11378
L11513 13689
" />
</g>
<g style="fill:#000000; fill-opacity:0.0; 
stroke:#000000; stroke-width:0; stroke-opacity:1; 
stroke-linecap:round; stroke-linejoin:round;">
</g>
<g style="fill:#000000; fill-opacity:1.0; 
stroke:#000000; stroke-width:0; stroke-opacity:1; 
stroke-linecap:round; stroke-linejoin:round;">
<polyline style="fill-rule:evenodd;"
points="25118,15692
25422,15096
25211,14988
24908,15585
25118,15692
" /> 
<polyline style="fill-rule:evenodd;"
points="24680,15469
24983,14872
24773,14765
24469,15361
24680,15469
" /> 
<polyline style="fill-rule:evenodd;"
points="25557,15916
25860,15319
25650,15212
25346,15808
25557,15916
" /> 
<polyline style="fill-rule:evenodd;"
points="25995,16139
26299,15543
26088,15435
25785,16032
25995,16139
" /> 
<polyline style="fill-rule:evenodd;"
points="24065,14029
24548,13082
24197,12903
23715,13850
24065,14029
" /> 
<polyline style="fill-rule:evenodd;"
points="27223,15638
27705,14690
27354,14512
26872,15459
27223,15638
" /> 
<polyline style="fill-rule:evenodd;"
points="24031,15138
24241,15245
24545,14649
24334,14542
24031,15138
" /> 
<polyline style="fill-rule:evenodd;"
points="17525,10590
17525,10275
16896,10275
16896,10590
17525,10590
" /> 
<polyline style="fill-rule:evenodd;"
points="17525,9960
17525,9645
16896,9645
16896,9960
17525,9960
" /> 
<polyline style="fill-rule:evenodd;"
points="19651,10590
19651,10275
19022,10275
19022,10590
19651,10590
" /> 
<polyline style="fill-rule:evenodd;"
points="19651,9960
19651,9645
19022,9645
19022,9960
19651,9960
" /> 
<polyline style="fill-rule:evenodd;"
points="19651,10748
19651,10275
19258,10275
19258,10748
19651,10748
" /> 
<polyline style="fill-rule:evenodd;"
points="19651,9960
19651,9488
19258,9488
19258,9960
19651,9960
" /> 
<polyline style="fill-rule:evenodd;"
points="17289,10748
17289,10275
16896,10275
16896,10748
17289,10748
" /> 
<polyline style="fill-rule:evenodd;"
points="17289,9960
17289,9488
16896,9488
16896,9960
17289,9960
" /> 
<polyline style="fill-rule:evenodd;"
points="19277,10748
19494,10590
19022,10590
19238,10748
19277,10748
" /> 
<polyline style="fill-rule:evenodd;"
points="19238,9488
19022,9645
19494,9645
19277,9488
19238,9488
" /> 
<polyline style="fill-rule:evenodd;"
points="17309,10748
17525,10590
17053,10590
17270,10748
17309,10748
" /> 
<polyline style="fill-rule:evenodd;"
points="17270,9488
17053,9645
17525,9645
17309,9488
17270,9488
" /> 
<polyline style="fill-rule:evenodd;"
points="27373,16226
27039,16560
27318,16838
27652,16504
27373,16226
" /> 
<polyline style="fill-rule:evenodd;"
points="27930,16783
27596,17117
27874,17395
28209,17061
27930,16783
" /> 
<polyline style="fill-rule:evenodd;"
points="19704,14633
19565,14494
19342,14717
19481,14856
19704,14633
" /> 
<polyline style="fill-rule:evenodd;"
points="19370,14967
19231,14828
19008,15051
19147,15190
19370,14967
" /> 
<polyline style="fill-rule:evenodd;"
points="26497,18773
26831,18439
26552,18161
26218,18495
26497,18773
" /> 
<polyline style="fill-rule:evenodd;"
points="25940,18216
26274,17882
25995,17604
25661,17938
25940,18216
" /> 
<polyline style="fill-rule:evenodd;"
points="17065,12985
17204,12846
16981,12623
16842,12763
17065,12985
" /> 
<polyline style="fill-rule:evenodd;"
points="16731,12651
16870,12512
16647,12289
16508,12429
16731,12651
" /> 
<polyline style="fill-rule:evenodd;"
points="20301,10748
20104,10748
20104,11062
20301,11062
20301,10748
" /> 
<polyline style="fill-rule:evenodd;"
points="20301,11220
20104,11220
20104,11535
20301,11535
20301,11220
" /> 
<polyline style="fill-rule:evenodd;"
points="19986,10275
19789,10275
19789,10590
19986,10590
19986,10275
" /> 
<polyline style="fill-rule:evenodd;"
points="19986,10748
19789,10748
19789,11062
19986,11062
19986,10748
" /> 
<polyline style="fill-rule:evenodd;"
points="16718,10275
16522,10275
16522,10590
16718,10590
16718,10275
" /> 
<polyline style="fill-rule:evenodd;"
points="16718,10748
16522,10748
16522,11062
16718,11062
16718,10748
" /> 
<polyline style="fill-rule:evenodd;"
points="26364,17096
26698,17430
26865,17263
26531,16929
26364,17096
" /> 
<polyline style="fill-rule:evenodd;"
points="26629,16831
26963,17165
27130,16998
26796,16664
26629,16831
" /> 
<polyline style="fill-rule:evenodd;"
points="26100,17360
26434,17694
26601,17527
26267,17193
26100,17360
" /> 
<polyline style="fill-rule:evenodd;"
points="26740,18001
27074,18335
27241,18168
26907,17834
26740,18001
" /> 
<polyline style="fill-rule:evenodd;"
points="27269,17472
27603,17806
27770,17639
27436,17305
27269,17472
" /> 
<polyline style="fill-rule:evenodd;"
points="16923,12014
16784,12153
17007,12376
17146,12236
16923,12014
" /> 
<polyline style="fill-rule:evenodd;"
points="17257,12348
17118,12487
17341,12710
17480,12570
17257,12348
" /> 
<circle cx="29396.1" cy="16712.6" r="590.551" /> 
</g>
<g style="fill:#000000; fill-opacity:1.0; 
stroke:#000000; stroke-width:39.3701; stroke-opacity:1; 
stroke-linecap:round; stroke-linejoin:round;">
</g>
<g style="fill:#000000; fill-opacity:1.0; 
stroke:#000000; stroke-width:0; stroke-opacity:1; 
stroke-linecap:round; stroke-linejoin:round;">
<circle cx="23128.3" cy="13519.7" r="590.551" /> 
</g>
<g style="fill:#000000; fill-opacity:1.0; 
stroke:#000000; stroke-width:39.3701; stroke-opacity:1; 
stroke-linecap:round; stroke-linejoin:round;">
</g>
<g style="fill:#000000; fill-opacity:1.0; 
stroke:#000000; stroke-width:0; stroke-opacity:1; 
stroke-linecap:round; stroke-linejoin:round;">
<polyline style="fill-rule:evenodd;"
points="17856,12590
18106,12841
18190,12757
17939,12507
17856,12590
" /> 
<polyline style="fill-rule:evenodd;"
points="17717,12729
18051,13063
18134,12980
17800,12646
17717,12729
" /> 
<polyline style="fill-rule:evenodd;"
points="17578,12868
17912,13203
17995,13119
17661,12785
17578,12868
" /> 
<polyline style="fill-rule:evenodd;"
points="17438,13008
17772,13342
17856,13258
17522,12924
17438,13008
" /> 
<polyline style="fill-rule:evenodd;"
points="17299,13147
17633,13481
17717,13397
17383,13063
17299,13147
" /> 
<polyline style="fill-rule:evenodd;"
points="17160,13286
17494,13620
17578,13537
17243,13203
17160,13286
" /> 
<polyline style="fill-rule:evenodd;"
points="17021,13425
17271,13676
17355,13592
17104,13342
17021,13425
" /> 
<polyline style="fill-rule:evenodd;"
points="17104,14177
17355,13926
17271,13843
17021,14093
17104,14177
" /> 
<polyline style="fill-rule:evenodd;"
points="17243,14316
17578,13982
17494,13899
17160,14233
17243,14316
" /> 
<polyline style="fill-rule:evenodd;"
points="17383,14455
17717,14121
17633,14038
17299,14372
17383,14455
" /> 
<polyline style="fill-rule:evenodd;"
points="17522,14595
17856,14260
17772,14177
17438,14511
17522,14595
" /> 
<polyline style="fill-rule:evenodd;"
points="17661,14734
17995,14400
17912,14316
17578,14650
17661,14734
" /> 
<polyline style="fill-rule:evenodd;"
points="17800,14873
18134,14539
18051,14455
17717,14789
17800,14873
" /> 
<polyline style="fill-rule:evenodd;"
points="17939,15012
18190,14762
18106,14678
17856,14929
17939,15012
" /> 
<polyline style="fill-rule:evenodd;"
points="18357,14762
18608,15012
18691,14929
18441,14678
18357,14762
" /> 
<polyline style="fill-rule:evenodd;"
points="18413,14539
18747,14873
18830,14789
18496,14455
18413,14539
" /> 
<polyline style="fill-rule:evenodd;"
points="18552,14400
18886,14734
18969,14650
18635,14316
18552,14400
" /> 
<polyline style="fill-rule:evenodd;"
points="18691,14260
19025,14595
19109,14511
18775,14177
18691,14260
" /> 
<polyline style="fill-rule:evenodd;"
points="18830,14121
19164,14455
19248,14372
18914,14038
18830,14121
" /> 
<polyline style="fill-rule:evenodd;"
points="18969,13982
19304,14316
19387,14233
19053,13899
18969,13982
" /> 
<polyline style="fill-rule:evenodd;"
points="19192,13926
19443,14177
19526,14093
19276,13843
19192,13926
" /> 
<polyline style="fill-rule:evenodd;"
points="19276,13676
19526,13425
19443,13342
19192,13592
19276,13676
" /> 
<polyline style="fill-rule:evenodd;"
points="19053,13620
19387,13286
19304,13203
18969,13537
19053,13620
" /> 
<polyline style="fill-rule:evenodd;"
points="18914,13481
19248,13147
19164,13063
18830,13397
18914,13481
" /> 
<polyline style="fill-rule:evenodd;"
points="18775,13342
19109,13008
19025,12924
18691,13258
18775,13342
" /> 
<polyline style="fill-rule:evenodd;"
points="18635,13203
18969,12868
18886,12785
18552,13119
18635,13203
" /> 
<polyline style="fill-rule:evenodd;"
points="18496,13063
18830,12729
18747,12646
18413,12980
18496,13063
" /> 
<polyline style="fill-rule:evenodd;"
points="18441,12841
18691,12590
18608,12507
18357,12757
18441,12841
" /> 
<polyline style="fill-rule:evenodd;"
points="17981,12715
18204,12938
18204,12771
18148,12715
17981,12715
" /> 
<polyline style="fill-rule:evenodd;"
points="18343,12938
18566,12715
18399,12715
18343,12771
18343,12938
" /> 
<polyline style="fill-rule:evenodd;"
points="18204,14581
17981,14803
18148,14803
18204,14748
18204,14581
" /> 
<polyline style="fill-rule:evenodd;"
points="18566,14803
18343,14581
18343,14748
18399,14803
18566,14803
" /> 
<polyline style="fill-rule:evenodd;"
points="17452,13690
17230,13467
17230,13634
17285,13690
17452,13690
" /> 
<polyline style="fill-rule:evenodd;"
points="17230,14052
17452,13829
17285,13829
17230,13885
17230,14052
" /> 
<polyline style="fill-rule:evenodd;"
points="19095,13829
19317,14052
19317,13885
19262,13829
19095,13829
" /> 
<polyline style="fill-rule:evenodd;"
points="19317,13467
19095,13690
19262,13690
19317,13634
19317,13467
" /> 
<polyline style="fill-rule:evenodd;"
points="26974,20104
28366,21496
28978,20884
27586,19492
26974,20104
" /> 
<polyline style="fill-rule:evenodd;"
points="28393,18685
29785,20077
30398,19464
29006,18072
28393,18685
" /> 
<polyline style="fill-rule:evenodd;"
points="29813,17265
31205,18657
31818,18044
30426,16652
29813,17265
" /> 
<polyline style="fill-rule:evenodd;"
points="15343,15524
15504,16051
15881,15936
15719,15409
15343,15524
" /> 
<polyline style="fill-rule:evenodd;"
points="16924,15041
17085,15568
17462,15453
17301,14925
16924,15041
" /> 
<polyline style="fill-rule:evenodd;"
points="14898,16627
15013,17004
15766,16774
15651,16397
14898,16627
" /> 
<polyline style="fill-rule:evenodd;"
points="17534,15822
17649,16198
18402,15968
18287,15592
17534,15822
" /> 
<polyline style="fill-rule:evenodd;"
points="14182,15807
13709,16281
13876,16448
14349,15974
14182,15807
" /> 
<polyline style="fill-rule:evenodd;"
points="14530,16155
14057,16628
14224,16796
14697,16322
14530,16155
" /> 
<polyline style="fill-rule:evenodd;"
points="13834,15459
13361,15933
13528,16100
14001,15626
13834,15459
" /> 
<polyline style="fill-rule:evenodd;"
points="13486,15111
13013,15585
13180,15752
13653,15278
13486,15111
" /> 
<polyline style="fill-rule:evenodd;"
points="14300,17345
13549,18097
13827,18375
14579,17624
14300,17345
" /> 
<polyline style="fill-rule:evenodd;"
points="12185,15230
11433,15981
11711,16260
12463,15508
12185,15230
" /> 
<polyline style="fill-rule:evenodd;"
points="14011,14058
13538,13584
13371,13752
13844,14225
14011,14058
" /> 
<polyline style="fill-rule:evenodd;"
points="13663,14406
13190,13932
13023,14099
13496,14573
13663,14406
" /> 
<polyline style="fill-rule:evenodd;"
points="14359,13710
13886,13236
13719,13404
14192,13877
14359,13710
" /> 
<polyline style="fill-rule:evenodd;"
points="14707,13362
14234,12889
14067,13056
14540,13529
14707,13362
" /> 
<polyline style="fill-rule:evenodd;"
points="12473,14176
11721,13424
11443,13703
12195,14454
12473,14176
" /> 
<polyline style="fill-rule:evenodd;"
points="14589,12060
13837,11309
13559,11587
14310,12339
14589,12060
" /> 
<polyline style="fill-rule:evenodd;"
points="21620,15462
21620,14970
20911,14970
20911,15462
21620,15462
" /> 
<polyline style="fill-rule:evenodd;"
points="20596,15462
20596,14970
19888,14970
19888,15462
20596,15462
" /> 
<polyline style="fill-rule:evenodd;"
points="20262,11791
19789,11791
19789,12027
20262,12027
20262,11791
" /> 
<polyline style="fill-rule:evenodd;"
points="19356,11417
18884,11417
18884,11653
19356,11653
19356,11417
" /> 
<polyline style="fill-rule:evenodd;"
points="19356,12165
18884,12165
18884,12401
19356,12401
19356,12165
" /> 
<polyline style="fill-rule:evenodd;"
points="15557,11574
15557,12047
15793,12047
15793,11574
15557,11574
" /> 
<polyline style="fill-rule:evenodd;"
points="15183,12480
15183,12952
15419,12952
15419,12480
15183,12480
" /> 
<polyline style="fill-rule:evenodd;"
points="15931,12480
15931,12952
16167,12952
16167,12480
15931,12480
" /> 
<polyline style="fill-rule:evenodd;"
points="15557,9960
15557,10433
15793,10433
15793,9960
15557,9960
" /> 
<polyline style="fill-rule:evenodd;"
points="15183,10866
15183,11338
15419,11338
15419,10866
15183,10866
" /> 
<polyline style="fill-rule:evenodd;"
points="15931,10866
15931,11338
16167,11338
16167,10866
15931,10866
" /> 
<polyline style="fill-rule:evenodd;"
points="18667,12007
18667,11811
18352,11811
18352,12007
18667,12007
" /> 
<polyline style="fill-rule:evenodd;"
points="18195,12007
18195,11811
17880,11811
17880,12007
18195,12007
" /> 
<polyline style="fill-rule:evenodd;"
points="15911,13464
15911,13661
16226,13661
16226,13464
15911,13464
" /> 
<polyline style="fill-rule:evenodd;"
points="16384,13464
16384,13661
16699,13661
16699,13464
16384,13464
" /> 
<polyline style="fill-rule:evenodd;"
points="15911,13858
15911,14055
16226,14055
16226,13858
15911,13858
" /> 
<polyline style="fill-rule:evenodd;"
points="16384,13858
16384,14055
16699,14055
16699,13858
16384,13858
" /> 
<polyline style="fill-rule:evenodd;"
points="25118,15692
25422,15096
25211,14988
24908,15585
25118,15692
" /> 
<polyline style="fill-rule:evenodd;"
points="24680,15469
24983,14872
24773,14765
24469,15361
24680,15469
" /> 
<polyline style="fill-rule:evenodd;"
points="25557,15916
25860,15319
25650,15212
25346,15808
25557,15916
" /> 
<polyline style="fill-rule:evenodd;"
points="25995,16139
26299,15543
26088,15435
25785,16032
25995,16139
" /> 
<polyline style="fill-rule:evenodd;"
points="24065,14029
24548,13082
24197,12903
23715,13850
24065,14029
" /> 
<polyline style="fill-rule:evenodd;"
points="27223,15638
27705,14690
27354,14512
26872,15459
27223,15638
" /> 
<polyline style="fill-rule:evenodd;"
points="24031,15138
24241,15245
24545,14649
24334,14542
24031,15138
" /> 
<circle cx="18274" cy="10118.1" r="590.551" /> 
</g>
<g style="fill:#000000; fill-opacity:1.0; 
stroke:#000000; stroke-width:39.3701; stroke-opacity:1; 
stroke-linecap:round; stroke-linejoin:round;">
</g>
<g style="fill:#000000; fill-opacity:1.0; 
stroke:#000000; stroke-width:0; stroke-opacity:1; 
stroke-linecap:round; stroke-linejoin:round;">
<polyline style="fill-rule:evenodd;"
points="17525,10590
17525,10275
16896,10275
16896,10590
17525,10590
" /> 
<polyline style="fill-rule:evenodd;"
points="17525,9960
17525,9645
16896,9645
16896,9960
17525,9960
" /> 
<polyline style="fill-rule:evenodd;"
points="19651,10590
19651,10275
19022,10275
19022,10590
19651,10590
" /> 
<polyline style="fill-rule:evenodd;"
points="19651,9960
19651,9645
19022,9645
19022,9960
19651,9960
" /> 
<polyline style="fill-rule:evenodd;"
points="19651,10748
19651,10275
19258,10275
19258,10748
19651,10748
" /> 
<polyline style="fill-rule:evenodd;"
points="19651,9960
19651,9488
19258,9488
19258,9960
19651,9960
" /> 
<polyline style="fill-rule:evenodd;"
points="17289,10748
17289,10275
16896,10275
16896,10748
17289,10748
" /> 
<polyline style="fill-rule:evenodd;"
points="17289,9960
17289,9488
16896,9488
16896,9960
17289,9960
" /> 
<polyline style="fill-rule:evenodd;"
points="19277,10748
19494,10590
19022,10590
19238,10748
19277,10748
" /> 
<polyline style="fill-rule:evenodd;"
points="19238,9488
19022,9645
19494,9645
19277,9488
19238,9488
" /> 
<polyline style="fill-rule:evenodd;"
points="17309,10748
17525,10590
17053,10590
17270,10748
17309,10748
" /> 
<polyline style="fill-rule:evenodd;"
points="17270,9488
17053,9645
17525,9645
17309,9488
17270,9488
" /> 
<polyline style="fill-rule:evenodd;"
points="27373,16226
27039,16560
27318,16838
27652,16504
27373,16226
" /> 
<polyline style="fill-rule:evenodd;"
points="27930,16783
27596,17117
27874,17395
28209,17061
27930,16783
" /> 
<polyline style="fill-rule:evenodd;"
points="19704,14633
19565,14494
19342,14717
19481,14856
19704,14633
" /> 
<polyline style="fill-rule:evenodd;"
points="19370,14967
19231,14828
19008,15051
19147,15190
19370,14967
" /> 
<polyline style="fill-rule:evenodd;"
points="26497,18773
26831,18439
26552,18161
26218,18495
26497,18773
" /> 
<polyline style="fill-rule:evenodd;"
points="25940,18216
26274,17882
25995,17604
25661,17938
25940,18216
" /> 
<polyline style="fill-rule:evenodd;"
points="17065,12985
17204,12846
16981,12623
16842,12763
17065,12985
" /> 
<polyline style="fill-rule:evenodd;"
points="16731,12651
16870,12512
16647,12289
16508,12429
16731,12651
" /> 
<polyline style="fill-rule:evenodd;"
points="20301,10748
20104,10748
20104,11062
20301,11062
20301,10748
" /> 
<polyline style="fill-rule:evenodd;"
points="20301,11220
20104,11220
20104,11535
20301,11535
20301,11220
" /> 
<polyline style="fill-rule:evenodd;"
points="19986,10275
19789,10275
19789,10590
19986,10590
19986,10275
" /> 
<polyline style="fill-rule:evenodd;"
points="19986,10748
19789,10748
19789,11062
19986,11062
19986,10748
" /> 
<polyline style="fill-rule:evenodd;"
points="16718,10275
16522,10275
16522,10590
16718,10590
16718,10275
" /> 
<polyline style="fill-rule:evenodd;"
points="16718,10748
16522,10748
16522,11062
16718,11062
16718,10748
" /> 
<polyline style="fill-rule:evenodd;"
points="26364,17096
26698,17430
26865,17263
26531,16929
26364,17096
" /> 
<polyline style="fill-rule:evenodd;"
points="26629,16831
26963,17165
27130,16998
26796,16664
26629,16831
" /> 
<polyline style="fill-rule:evenodd;"
points="26100,17360
26434,17694
26601,17527
26267,17193
26100,17360
" /> 
<polyline style="fill-rule:evenodd;"
points="26740,18001
27074,18335
27241,18168
26907,17834
26740,18001
" /> 
<polyline style="fill-rule:evenodd;"
points="27269,17472
27603,17806
27770,17639
27436,17305
27269,17472
" /> 
<polyline style="fill-rule:evenodd;"
points="16923,12014
16784,12153
17007,12376
17146,12236
16923,12014
" /> 
<polyline style="fill-rule:evenodd;"
points="17257,12348
17118,12487
17341,12710
17480,12570
17257,12348
" /> 
<circle cx="29396.1" cy="16712.6" r="196.85" /> 
</g>
<g style="fill:#000000; fill-opacity:1.0; 
stroke:#000000; stroke-width:39.3701; stroke-opacity:1; 
stroke-linecap:round; stroke-linejoin:round;">
</g>
<g style="fill:#000000; fill-opacity:1.0; 
stroke:#000000; stroke-width:0; stroke-opacity:1; 
stroke-linecap:round; stroke-linejoin:round;">
<circle cx="23128.3" cy="13519.7" r="196.85" /> 
</g>
<g style="fill:#000000; fill-opacity:1.0; 
stroke:#000000; stroke-width:39.3701; stroke-opacity:1; 
stroke-linecap:round; stroke-linejoin:round;">
</g>
<g style="fill:#000000; fill-opacity:1.0; 
stroke:#000000; stroke-width:0; stroke-opacity:1; 
stroke-linecap:round; stroke-linejoin:round;">
<polyline style="fill-rule:evenodd;"
points="17856,12590
18106,12841
18190,12757
17939,12507
17856,12590
" /> 
<polyline style="fill-rule:evenodd;"
points="17717,12729
18051,13063
18134,12980
17800,12646
17717,12729
" /> 
<polyline style="fill-rule:evenodd;"
points="17578,12868
17912,13203
17995,13119
17661,12785
17578,12868
" /> 
<polyline style="fill-rule:evenodd;"
points="17438,13008
17772,13342
17856,13258
17522,12924
17438,13008
" /> 
<polyline style="fill-rule:evenodd;"
points="17299,13147
17633,13481
17717,13397
17383,13063
17299,13147
" /> 
<polyline style="fill-rule:evenodd;"
points="17160,13286
17494,13620
17578,13537
17243,13203
17160,13286
" /> 
<polyline style="fill-rule:evenodd;"
points="17021,13425
17271,13676
17355,13592
17104,13342
17021,13425
" /> 
<polyline style="fill-rule:evenodd;"
points="17104,14177
17355,13926
17271,13843
17021,14093
17104,14177
" /> 
<polyline style="fill-rule:evenodd;"
points="17243,14316
17578,13982
17494,13899
17160,14233
17243,14316
" /> 
<polyline style="fill-rule:evenodd;"
points="17383,14455
17717,14121
17633,14038
17299,14372
17383,14455
" /> 
<polyline style="fill-rule:evenodd;"
points="17522,14595
17856,14260
17772,14177
17438,14511
17522,14595
" /> 
<polyline style="fill-rule:evenodd;"
points="17661,14734
17995,14400
17912,14316
17578,14650
17661,14734
" /> 
<polyline style="fill-rule:evenodd;"
points="17800,14873
18134,14539
18051,14455
17717,14789
17800,14873
" /> 
<polyline style="fill-rule:evenodd;"
points="17939,15012
18190,14762
18106,14678
17856,14929
17939,15012
" /> 
<polyline style="fill-rule:evenodd;"
points="18357,14762
18608,15012
18691,14929
18441,14678
18357,14762
" /> 
<polyline style="fill-rule:evenodd;"
points="18413,14539
18747,14873
18830,14789
18496,14455
18413,14539
" /> 
<polyline style="fill-rule:evenodd;"
points="18552,14400
18886,14734
18969,14650
18635,14316
18552,14400
" /> 
<polyline style="fill-rule:evenodd;"
points="18691,14260
19025,14595
19109,14511
18775,14177
18691,14260
" /> 
<polyline style="fill-rule:evenodd;"
points="18830,14121
19164,14455
19248,14372
18914,14038
18830,14121
" /> 
<polyline style="fill-rule:evenodd;"
points="18969,13982
19304,14316
19387,14233
19053,13899
18969,13982
" /> 
<polyline style="fill-rule:evenodd;"
points="19192,13926
19443,14177
19526,14093
19276,13843
19192,13926
" /> 
<polyline style="fill-rule:evenodd;"
points="19276,13676
19526,13425
19443,13342
19192,13592
19276,13676
" /> 
<polyline style="fill-rule:evenodd;"
points="19053,13620
19387,13286
19304,13203
18969,13537
19053,13620
" /> 
<polyline style="fill-rule:evenodd;"
points="18914,13481
19248,13147
19164,13063
18830,13397
18914,13481
" /> 
<polyline style="fill-rule:evenodd;"
points="18775,13342
19109,13008
19025,12924
18691,13258
18775,13342
" /> 
<polyline style="fill-rule:evenodd;"
points="18635,13203
18969,12868
18886,12785
18552,13119
18635,13203
" /> 
<polyline style="fill-rule:evenodd;"
points="18496,13063
18830,12729
18747,12646
18413,12980
18496,13063
" /> 
<polyline style="fill-rule:evenodd;"
points="18441,12841
18691,12590
18608,12507
18357,12757
18441,12841
" /> 
<polyline style="fill-rule:evenodd;"
points="17981,12715
18204,12938
18204,12771
18148,12715
17981,12715
" /> 
<polyline style="fill-rule:evenodd;"
points="18343,12938
18566,12715
18399,12715
18343,12771
18343,12938
" /> 
<polyline style="fill-rule:evenodd;"
points="18204,14581
17981,14803
18148,14803
18204,14748
18204,14581
" /> 
<polyline style="fill-rule:evenodd;"
points="18566,14803
18343,14581
18343,14748
18399,14803
18566,14803
" /> 
<polyline style="fill-rule:evenodd;"
points="17452,13690
17230,13467
17230,13634
17285,13690
17452,13690
" /> 
<polyline style="fill-rule:evenodd;"
points="17230,14052
17452,13829
17285,13829
17230,13885
17230,14052
" /> 
<polyline style="fill-rule:evenodd;"
points="19095,13829
19317,14052
19317,13885
19262,13829
19095,13829
" /> 
<polyline style="fill-rule:evenodd;"
points="19317,13467
19095,13690
19262,13690
19317,13634
19317,13467
" /> 
<polyline style="fill-rule:evenodd;"
points="26974,20104
28366,21496
28978,20884
27586,19492
26974,20104
" /> 
<polyline style="fill-rule:evenodd;"
points="28393,18685
29785,20077
30398,19464
29006,18072
28393,18685
" /> 
<polyline style="fill-rule:evenodd;"
points="29813,17265
31205,18657
31818,18044
30426,16652
29813,17265
" /> 
<polyline style="fill-rule:evenodd;"
points="15343,15524
15504,16051
15881,15936
15719,15409
15343,15524
" /> 
<polyline style="fill-rule:evenodd;"
points="16924,15041
17085,15568
17462,15453
17301,14925
16924,15041
" /> 
<polyline style="fill-rule:evenodd;"
points="14898,16627
15013,17004
15766,16774
15651,16397
14898,16627
" /> 
<polyline style="fill-rule:evenodd;"
points="17534,15822
17649,16198
18402,15968
18287,15592
17534,15822
" /> 
<polyline style="fill-rule:evenodd;"
points="14182,15807
13709,16281
13876,16448
14349,15974
14182,15807
" /> 
<polyline style="fill-rule:evenodd;"
points="14530,16155
14057,16628
14224,16796
14697,16322
14530,16155
" /> 
<polyline style="fill-rule:evenodd;"
points="13834,15459
13361,15933
13528,16100
14001,15626
13834,15459
" /> 
<polyline style="fill-rule:evenodd;"
points="13486,15111
13013,15585
13180,15752
13653,15278
13486,15111
" /> 
<polyline style="fill-rule:evenodd;"
points="14300,17345
13549,18097
13827,18375
14579,17624
14300,17345
" /> 
<polyline style="fill-rule:evenodd;"
points="12185,15230
11433,15981
11711,16260
12463,15508
12185,15230
" /> 
<polyline style="fill-rule:evenodd;"
points="14011,14058
13538,13584
13371,13752
13844,14225
14011,14058
" /> 
<polyline style="fill-rule:evenodd;"
points="13663,14406
13190,13932
13023,14099
13496,14573
13663,14406
" /> 
<polyline style="fill-rule:evenodd;"
points="14359,13710
13886,13236
13719,13404
14192,13877
14359,13710
" /> 
<polyline style="fill-rule:evenodd;"
points="14707,13362
14234,12889
14067,13056
14540,13529
14707,13362
" /> 
<polyline style="fill-rule:evenodd;"
points="12473,14176
11721,13424
11443,13703
12195,14454
12473,14176
" /> 
<polyline style="fill-rule:evenodd;"
points="14589,12060
13837,11309
13559,11587
14310,12339
14589,12060
" /> 
<polyline style="fill-rule:evenodd;"
points="21620,15462
21620,14970
20911,14970
20911,15462
21620,15462
" /> 
<polyline style="fill-rule:evenodd;"
points="20596,15462
20596,14970
19888,14970
19888,15462
20596,15462
" /> 
<polyline style="fill-rule:evenodd;"
points="20262,11791
19789,11791
19789,12027
20262,12027
20262,11791
" /> 
<polyline style="fill-rule:evenodd;"
points="19356,11417
18884,11417
18884,11653
19356,11653
19356,11417
" /> 
<polyline style="fill-rule:evenodd;"
points="19356,12165
18884,12165
18884,12401
19356,12401
19356,12165
" /> 
<polyline style="fill-rule:evenodd;"
points="15557,11574
15557,12047
15793,12047
15793,11574
15557,11574
" /> 
<polyline style="fill-rule:evenodd;"
points="15183,12480
15183,12952
15419,12952
15419,12480
15183,12480
" /> 
<polyline style="fill-rule:evenodd;"
points="15931,12480
15931,12952
16167,12952
16167,12480
15931,12480
" /> 
<polyline style="fill-rule:evenodd;"
points="15557,9960
15557,10433
15793,10433
15793,9960
15557,9960
" /> 
<polyline style="fill-rule:evenodd;"
points="15183,10866
15183,11338
15419,11338
15419,10866
15183,10866
" /> 
<polyline style="fill-rule:evenodd;"
points="15931,10866
15931,11338
16167,11338
16167,10866
15931,10866
" /> 
<polyline style="fill-rule:evenodd;"
points="18667,12007
18667,11811
18352,11811
18352,12007
18667,12007
" /> 
<polyline style="fill-rule:evenodd;"
points="18195,12007
18195,11811
17880,11811
17880,12007
18195,12007
" /> 
<polyline style="fill-rule:evenodd;"
points="15911,13464
15911,13661
16226,13661
16226,13464
15911,13464
" /> 
<polyline style="fill-rule:evenodd;"
points="16384,13464
16384,13661
16699,13661
16699,13464
16384,13464
" /> 
<polyline style="fill-rule:evenodd;"
points="15911,13858
15911,14055
16226,14055
16226,13858
15911,13858
" /> 
<polyline style="fill-rule:evenodd;"
points="16384,13858
16384,14055
16699,14055
16699,13858
16384,13858
" /> 
<circle cx="12774" cy="15763.8" r="118.11" /> 
</g>
<g style="fill:#000000; fill-opacity:1.0; 
stroke:#000000; stroke-width:39.3701; stroke-opacity:1; 
stroke-linecap:round; stroke-linejoin:round;">
</g>
<g style="fill:#000000; fill-opacity:1.0; 
stroke:#000000; stroke-width:0; stroke-opacity:1; 
stroke-linecap:round; stroke-linejoin:round;">
<circle cx="14022" cy="12421.3" r="118.11" /> 
</g>
<g style="fill:#000000; fill-opacity:1.0; 
stroke:#000000; stroke-width:39.3701; stroke-opacity:1; 
stroke-linecap:round; stroke-linejoin:round;">
</g>
<g style="fill:#000000; fill-opacity:1.0; 
stroke:#000000; stroke-width:0; stroke-opacity:1; 
stroke-linecap:round; stroke-linejoin:round;">
<circle cx="16187.4" cy="9724.41" r="118.11" /> 
</g>
<g style="fill:#000000; fill-opacity:1.0; 
stroke:#000000; stroke-width:39.3701; stroke-opacity:1; 
stroke-linecap:round; stroke-linejoin:round;">
</g>
<g style="fill:#000000; fill-opacity:1.0; 
stroke:#000000; stroke-width:0; stroke-opacity:1; 
stroke-linecap:round; stroke-linejoin:round;">
<circle cx="12762.2" cy="14055.1" r="118.11" /> 
</g>
<g style="fill:#000000; fill-opacity:1.0; 
stroke:#000000; stroke-width:39.3701; stroke-opacity:1; 
stroke-linecap:round; stroke-linejoin:round;">
</g>
<g style="fill:#000000; fill-opacity:1.0; 
stroke:#000000; stroke-width:0; stroke-opacity:1; 
stroke-linecap:round; stroke-linejoin:round;">
<circle cx="14616" cy="13015" r="118.11" /> 
</g>
<g style="fill:#000000; fill-opacity:1.0; 
stroke:#000000; stroke-width:39.3701; stroke-opacity:1; 
stroke-linecap:round; stroke-linejoin:round;">
</g>
<g style="fill:#000000; fill-opacity:1.0; 
stroke:#000000; stroke-width:0; stroke-opacity:1; 
stroke-linecap:round; stroke-linejoin:round;">
<circle cx="13155.9" cy="15196.9" r="118.11" /> 
</g>
<g style="fill:#000000; fill-opacity:1.0; 
stroke:#000000; stroke-width:39.3701; stroke-opacity:1; 
stroke-linecap:round; stroke-linejoin:round;">
</g>
<g style="fill:#000000; fill-opacity:1.0; 
stroke:#000000; stroke-width:0; stroke-opacity:1; 
stroke-linecap:round; stroke-linejoin:round;">
<circle cx="21868.5" cy="15645.7" r="118.11" /> 
</g>
<g style="fill:#000000; fill-opacity:1.0; 
stroke:#000000; stroke-width:39.3701; stroke-opacity:1; 
stroke-linecap:round; stroke-linejoin:round;">
</g>
<g style="fill:#000000; fill-opacity:1.0; 
stroke:#000000; stroke-width:0; stroke-opacity:1; 
stroke-linecap:round; stroke-linejoin:round;">
<circle cx="25321.3" cy="17834.6" r="118.11" /> 
</g>
<g style="fill:#000000; fill-opacity:1.0; 
stroke:#000000; stroke-width:39.3701; stroke-opacity:1; 
stroke-linecap:round; stroke-linejoin:round;">
</g>
<g style="fill:#000000; fill-opacity:1.0; 
stroke:#000000; stroke-width:0; stroke-opacity:1; 
stroke-linecap:round; stroke-linejoin:round;">
<circle cx="18746.5" cy="13661.4" r="118.11" /> 
</g>
<g style="fill:#000000; fill-opacity:1.0; 
stroke:#000000; stroke-width:39.3701; stroke-opacity:1; 
stroke-linecap:round; stroke-linejoin:round;">
</g>
<g style="fill:#000000; fill-opacity:1.0; 
stroke:#000000; stroke-width:0; stroke-opacity:1; 
stroke-linecap:round; stroke-linejoin:round;">
<circle cx="21423.6" cy="14488.2" r="118.11" /> 
</g>
<g style="fill:#000000; fill-opacity:1.0; 
stroke:#000000; stroke-width:39.3701; stroke-opacity:1; 
stroke-linecap:round; stroke-linejoin:round;">
</g>
<g style="fill:#000000; fill-opacity:1.0; 
stroke:#000000; stroke-width:0; stroke-opacity:1; 
stroke-linecap:round; stroke-linejoin:round;">
<circle cx="16896.1" cy="11200.8" r="118.11" /> 
</g>
<g style="fill:#000000; fill-opacity:1.0; 
stroke:#000000; stroke-width:39.3701; stroke-opacity:1; 
stroke-linecap:round; stroke-linejoin:round;">
</g>
<g style="fill:#000000; fill-opacity:1.0; 
stroke:#000000; stroke-width:0; stroke-opacity:1; 
stroke-linecap:round; stroke-linejoin:round;">
<circle cx="16226.8" cy="11870.1" r="118.11" /> 
</g>
<g style="fill:#000000; fill-opacity:1.0; 
stroke:#000000; stroke-width:39.3701; stroke-opacity:1; 
stroke-linecap:round; stroke-linejoin:round;">
</g>
<g style="fill:#000000; fill-opacity:1.0; 
stroke:#000000; stroke-width:0; stroke-opacity:1; 
stroke-linecap:round; stroke-linejoin:round;">
<circle cx="17880.3" cy="12263.8" r="118.11" /> 
</g>
<g style="fill:#000000; fill-opacity:1.0; 
stroke:#000000; stroke-width:39.3701; stroke-opacity:1; 
stroke-linecap:round; stroke-linejoin:round;">
</g>
<g style="fill:#000000; fill-opacity:1.0; 
stroke:#000000; stroke-width:0; stroke-opacity:1; 
stroke-linecap:round; stroke-linejoin:round;">
<circle cx="16659.8" cy="12854.3" r="118.11" /> 
</g>
<g style="fill:#000000; fill-opacity:1.0; 
stroke:#000000; stroke-width:39.3701; stroke-opacity:1; 
stroke-linecap:round; stroke-linejoin:round;">
</g>
<g style="fill:#000000; fill-opacity:1.0; 
stroke:#000000; stroke-width:0; stroke-opacity:1; 
stroke-linecap:round; stroke-linejoin:round;">
<circle cx="18837" cy="15527.6" r="118.11" /> 
</g>
<g style="fill:#000000; fill-opacity:1.0; 
stroke:#000000; stroke-width:39.3701; stroke-opacity:1; 
stroke-linecap:round; stroke-linejoin:round;">
</g>
<g style="fill:#000000; fill-opacity:1.0; 
stroke:#000000; stroke-width:0; stroke-opacity:1; 
stroke-linecap:round; stroke-linejoin:round;">
<circle cx="26487" cy="19183.5" r="118.11" /> 
</g>
<g style="fill:#000000; fill-opacity:1.0; 
stroke:#000000; stroke-width:39.3701; stroke-opacity:1; 
stroke-linecap:round; stroke-linejoin:round;">
</g>
<g style="fill:#000000; fill-opacity:1.0; 
stroke:#000000; stroke-width:0; stroke-opacity:1; 
stroke-linecap:round; stroke-linejoin:round;">
<circle cx="15045.7" cy="10570.9" r="118.11" /> 
</g>
<g style="fill:#000000; fill-opacity:1.0; 
stroke:#000000; stroke-width:39.3701; stroke-opacity:1; 
stroke-linecap:round; stroke-linejoin:round;">
</g>
<g style="fill:#000000; fill-opacity:1.0; 
stroke:#000000; stroke-width:0; stroke-opacity:1; 
stroke-linecap:round; stroke-linejoin:round;">
<circle cx="15045.7" cy="12066.9" r="118.11" /> 
</g>
<g style="fill:#000000; fill-opacity:1.0; 
stroke:#000000; stroke-width:39.3701; stroke-opacity:1; 
stroke-linecap:round; stroke-linejoin:round;">
</g>
<g style="fill:#000000; fill-opacity:1.0; 
stroke:#000000; stroke-width:196.85; stroke-opacity:1; 
stroke-linecap:round; stroke-linejoin:round;">
</g>
<g style="fill:#000000; fill-opacity:0.0; 
stroke:#000000; stroke-width:196.85; stroke-opacity:1; 
stroke-linecap:round; stroke-linejoin:round;">
<path d="M12774 15763
L13049 16039
" />
<path d="M13049 16039
L13403 16039
" />
<path d="M13403 16039
L13408 16044
" />
<path d="M13408 16044
L13417 16044
" />
<path d="M13417 16044
L13681 15779
" />
<path d="M24821 14543
L26514 15409
" />
<path d="M24288 14893
L24638 14543
" />
<path d="M24638 14543
L24821 14543
" />
<path d="M26514 15409
L26514 15470
" />
<path d="M23116 14570
L23439 14893
" />
<path d="M23439 14893
L24288 14893
" />
<path d="M23116 14566
L23116 14570
" />
<path d="M13352 13090
L12762 13681
" />
<path d="M14022 12421
L13352 13090
" />
<path d="M13352 13090
L13572 13090
" />
<path d="M13572 13090
L14039 13557
" />
<path d="M12762 13681
L12762 14055
" />
<path d="M16187 9724
L17092 9724
" />
</g>
<g style="fill:#000000; fill-opacity:0.0; 
stroke:#000000; stroke-width:78.7402; stroke-opacity:1; 
stroke-linecap:round; stroke-linejoin:round;">
<path d="M26879 16915
L26684 16720
" />
<path d="M26155 17138
L26155 17249
" />
<path d="M26684 16720
L26573 16720
" />
<path d="M26573 16720
L26155 17138
" />
<path d="M26155 17249
L26350 17444
" />
</g>
<g style="fill:#000000; fill-opacity:0.0; 
stroke:#000000; stroke-width:196.85; stroke-opacity:1; 
stroke-linecap:round; stroke-linejoin:round;">
<path d="M17092 9724
L17092 9685
" />
<path d="M17092 9685
L17525 9251
" />
<path d="M17525 9251
L19734 9251
" />
<path d="M19829 9507
L20478 10157
" />
<path d="M19734 9251
L19829 9346
" />
<path d="M19829 9346
L19829 9507
" />
<path d="M20478 10157
L20478 11929
" />
<path d="M20478 11929
L23116 14566
" />
<path d="M26620 15807
L26514 15470
" />
<path d="M26514 15470
L26502 15433
" />
<path d="M17053 9803
L17211 9803
" />
<path d="M27346 16532
L26620 15807
" />
<path d="M26620 15807
L26676 15863
" />
<path d="M26879 16915
L26963 16915
" />
<path d="M26963 16915
L27346 16532
" />
</g>
<g style="fill:#000000; fill-opacity:0.0; 
stroke:#000000; stroke-width:393.701; stroke-opacity:1; 
stroke-linecap:round; stroke-linejoin:round;">
<path d="M15332 16701
L15332 16010
" />
<path d="M15332 16010
L15612 15730
" />
<path d="M15332 16701
L17870 15925
" />
<path d="M17870 15925
L17968 15895
" />
</g>
<g style="fill:#000000; fill-opacity:0.0; 
stroke:#000000; stroke-width:78.7402; stroke-opacity:1; 
stroke-linecap:round; stroke-linejoin:round;">
<path d="M14587 13014
L14615 13014
" />
<path d="M14385 13217
L14587 13014
" />
<path d="M13341 15424
L13341 15382
" />
<path d="M13341 15382
L13155 15196
" />
<path d="M16965 12195
L16689 12470
" />
<path d="M19189 15009
L18966 15009
" />
<path d="M18966 15009
L18622 14664
" />
</g>
<g style="fill:#000000; fill-opacity:0.0; 
stroke:#000000; stroke-width:196.85; stroke-opacity:1; 
stroke-linecap:round; stroke-linejoin:round;">
<path d="M21868 15645
L21695 15645
" />
<path d="M21695 15645
L21266 15216
" />
</g>
<g style="fill:#000000; fill-opacity:0.0; 
stroke:#000000; stroke-width:78.7402; stroke-opacity:1; 
stroke-linecap:round; stroke-linejoin:round;">
<path d="M19523 14675
L19621 14772
" />
<path d="M19621 14772
L20852 14772
" />
<path d="M20852 14772
L21236 15157
" />
<path d="M21236 15157
L21344 15157
" />
<path d="M21236 15157
L20911 14832
" />
<path d="M20852 14772
L20911 14832
" />
</g>
<g style="fill:#000000; fill-opacity:0.0; 
stroke:#000000; stroke-width:196.85; stroke-opacity:1; 
stroke-linecap:round; stroke-linejoin:round;">
<path d="M26524 18467
L25940 18467
" />
<path d="M25321 17848
L25321 17834
" />
<path d="M25940 18467
L25321 17848
" />
<path d="M27520 17555
L27520 18140
" />
<path d="M27520 18140
L27025 18634
" />
<path d="M27025 18634
L26691 18634
" />
<path d="M26691 18634
L26524 18467
" />
</g>
<g style="fill:#000000; fill-opacity:0.0; 
stroke:#000000; stroke-width:78.7402; stroke-opacity:1; 
stroke-linecap:round; stroke-linejoin:round;">
<path d="M19523 14675
L19426 14578
" />
<path d="M19426 14578
L19209 14578
" />
<path d="M19209 14578
L19067 14720
" />
<path d="M19067 14720
L18956 14720
" />
<path d="M18566 14330
L17508 13272
" />
<path d="M18761 14525
L18566 14330
" />
<path d="M18956 14720
L18761 14525
" />
<path d="M24860 16551
L25254 15803
" />
<path d="M18175 13661
L18746 13661
" />
<path d="M17647 13133
L18175 13661
" />
<path d="M21777 14488
L23205 15915
" />
<path d="M21777 14488
L21423 14488
" />
<path d="M23205 15915
L23205 15919
" />
<path d="M23205 15919
L23837 16551
" />
<path d="M23837 16551
L24860 16551
" />
<path d="M25254 15803
L25451 15763
" />
<path d="M25451 15763
L25603 15564
" />
<path d="M17023 12804
L17202 12804
" />
<path d="M17202 12804
L17336 12938
" />
<path d="M17336 12938
L17452 12938
" />
<path d="M17452 12938
L17647 13133
" />
<path d="M16620 10433
L17014 10433
" />
<path d="M17014 10433
L17092 10511
" />
<path d="M19888 10433
L19533 10433
" />
<path d="M19533 10433
L19455 10511
" />
<path d="M19455 10472
L19455 10511
" />
<path d="M20203 10905
L20203 10196
" />
<path d="M20203 10196
L19730 9724
" />
<path d="M19730 9724
L19455 9724
" />
<path d="M20025 11909
L20025 11555
" />
<path d="M20025 11555
L20203 11377
" />
<path d="M16896 11200
L17191 10905
" />
<path d="M17191 10905
L18573 10905
" />
<path d="M15675 11811
L16167 11811
" />
<path d="M16167 11811
L16226 11870
" />
<path d="M19888 10905
L18573 10905
" />
<path d="M17880 12263
L17880 12066
" />
<path d="M17880 12066
L18037 11909
" />
<path d="M17369 13411
L17174 13216
" />
<path d="M17174 13216
L17022 13216
" />
<path d="M17022 13216
L16659 12854
" />
<path d="M16541 13956
L17134 13956
" />
<path d="M17134 13956
L17188 14010
" />
<path d="M17188 13509
L16595 13509
" />
<path d="M16595 13509
L16541 13562
" />
<path d="M17660 15208
L18023 14845
" />
<path d="M17242 15208
L17660 15208
" />
<path d="M18524 14845
L18524 15215
" />
<path d="M18524 15215
L18837 15527
" />
<path d="M29396 19074
L26595 19074
" />
<path d="M26595 19074
L26486 19183
" />
<path d="M18549 14881
L18524 14845
" />
<path d="M17870 12521
L18023 12674
" />
<path d="M17486 12521
L17870 12521
" />
<path d="M17477 12529
L17486 12521
" />
<path d="M17299 12529
L17477 12529
" />
<path d="M17055 14295
L17051 14291
" />
<path d="M17051 14291
L14067 14291
" />
<path d="M17181 14295
L17055 14295
" />
<path d="M13953 14177
L13689 13912
" />
<path d="M14067 14291
L13953 14177
" />
<path d="M17369 14107
L17181 14295
" />
<path d="M17313 14441
L17508 14247
" />
<path d="M17306 14448
L17313 14441
" />
<path d="M17218 14453
L17223 14448
" />
<path d="M16986 14448
L16990 14453
" />
<path d="M13735 14448
L16986 14448
" />
<path d="M13341 14260
L13547 14260
" />
<path d="M17223 14448
L17306 14448
" />
<path d="M13547 14260
L13735 14448
" />
<path d="M16990 14453
L17218 14453
" />
<path d="M15546 14610
L14301 15855
" />
<path d="M17647 14386
L17423 14610
" />
<path d="M14301 15855
L14037 16120
" />
<path d="M17423 14610
L15546 14610
" />
<path d="M14385 16261
L14385 16468
" />
<path d="M15843 14803
L14385 16261
" />
<path d="M17509 14803
L15843 14803
" />
<path d="M17786 14525
L17509 14803
" />
<path d="M15675 10196
L15911 10196
" />
<path d="M15911 10196
L16620 10905
" />
<path d="M18510 11909
L18746 11909
" />
<path d="M18746 11909
L19120 11535
" />
<path d="M16069 13562
L15833 13562
" />
<path d="M15833 13562
L15301 13031
" />
<path d="M15301 13031
L15301 12716
" />
<path d="M15045 10570
L15045 10846
" />
<path d="M15045 10846
L15301 11102
" />
<path d="M15065 13188
L15065 12086
" />
<path d="M15065 12086
L15045 12066
" />
<path d="M16069 13956
L15833 13956
" />
<path d="M15833 13956
L15065 13188
" />
<path d="M24309 16354
L24703 15606
" />
<path d="M19359 14010
L21536 14010
" />
<path d="M21536 14010
L23218 15692
" />
<path d="M23218 15692
L23218 15696
" />
<path d="M23218 15696
L23915 16393
" />
<path d="M23915 16393
L24270 16393
" />
<path d="M24270 16393
L24309 16354
" />
<path d="M24703 15606
L25018 15527
" />
<path d="M25018 15527
L25165 15340
" />
<path d="M23994 15921
L24270 15370
" />
<path d="M19482 13509
L19487 13503
" />
<path d="M19359 13509
L19482 13509
" />
<path d="M19487 13503
L21266 13503
" />
<path d="M21266 13503
L23231 15468
" />
<path d="M23231 15468
L23231 15472
" />
<path d="M23231 15472
L23679 15921
" />
<path d="M23679 15921
L23994 15921
" />
<path d="M24270 15370
L24624 15251
" />
<path d="M24624 15251
L24726 15117
" />
</g>
<g style="fill:#000000; fill-opacity:1.0; 
stroke:#000000; stroke-width:118.11; stroke-opacity:1; 
stroke-linecap:round; stroke-linejoin:round;">
<polyline style="fill-rule:evenodd;"
points="17933,7984
17673,8022
17441,8083
17236,8161
17056,8251
16902,8349
16773,8448
16668,8545
13968,11245
14272,11549
14272,11597
14074,11796
14068,11790
14040,11818
14046,11824
13847,12022
13799,12022
13495,11718
11852,13360
12156,13665
12156,13713
11958,13912
11952,13906
11925,13934
11930,13939
11732,14138
11683,14138
11463,13918
11463,15756
11673,15546
11722,15546
11920,15745
11915,15750
11943,15778
11948,15772
12146,15971
12146,16020
11858,16308
13501,17950
13789,17662
13838,17662
14036,17860
14030,17866
14058,17894
14064,17888
14069,17894
14097,17866
14092,17860
14527,17425
14575,17425
14639,17489
14757,17403
14758,17402
14759,17401
14761,17400
14834,17349
14499,17349
14499,17398
14064,17833
13865,17634
13865,17585
14193,17258
14213,17238
14235,17223
14260,17213
14287,17208
14314,17208
14341,17213
14366,17223
14388,17238
14499,17349
14834,17349
14981,17247
14982,17247
14984,17246
14985,17245
15207,17102
15208,17101
15209,17100
15211,17099
15251,17075
15040,17140
15013,17142
14986,17140
14960,17132
14936,17119
14915,17102
14898,17081
14885,17057
14877,17031
14840,16908
14863,16865
15319,16725
15321,16733
15359,16721
15357,16714
15442,16688
15308,16688
14851,16827
14808,16804
14770,16681
14762,16655
14760,16628
14762,16601
14770,16575
14783,16551
14800,16530
14821,16513
14845,16500
15182,16396
15225,16419
15308,16688
15442,16688
15813,16574
15856,16597
15894,16721
15894,16722
15896,16721
16122,16616
16123,16615
16125,16615
16127,16614
16353,16518
16355,16517
16356,16517
16359,16516
16417,16493
15825,16493
15802,16536
15345,16676
15263,16408
15286,16365
15624,16262
15651,16259
15678,16261
15704,16269
15728,16282
15749,16299
15766,16320
15779,16344
15787,16370
15825,16493
16417,16493
16586,16429
16588,16429
16589,16428
16591,16427
16819,16349
16821,16349
16823,16348
16825,16348
17054,16279
17055,16278
17057,16278
17059,16277
17289,16217
17291,16216
17292,16216
17294,16215
17496,16170
17475,16102
17498,16059
17955,15919
17957,15927
17994,15915
17992,15908
18078,15882
17943,15882
17486,16021
17443,15999
17406,15875
17398,15849
17395,15822
17398,15795
17405,15769
17418,15745
17435,15724
17456,15707
17480,15694
17818,15591
17861,15614
17943,15882
18078,15882
18449,15768
18492,15791
18529,15915
18537,15941
18540,15968
18537,15995
18530,16021
18522,16036
18713,16027
18715,16027
18716,16027
18718,16027
18952,16025
18954,16025
18955,16025
18957,16025
19191,16030
19193,16031
19194,16030
19197,16031
19431,16044
19432,16044
19434,16044
19436,16044
19671,16065
19672,16066
19673,16066
19676,16066
19910,16094
19912,16095
19913,16095
19915,16095
20150,16131
20152,16131
20153,16131
20155,16132
20390,16175
20392,16176
20393,16176
20395,16176
20630,16227
20631,16227
20633,16227
20635,16228
20870,16285
20871,16286
20872,16286
20874,16286
21110,16351
21111,16351
21112,16352
21114,16352
21349,16424
21350,16424
21351,16424
21353,16425
21589,16503
21590,16504
21590,16504
21593,16505
21828,16590
21829,16590
21829,16590
21831,16591
22067,16683
22067,16683
22068,16683
22070,16684
22305,16782
22306,16783
22306,16783
22308,16784
22543,16888
22544,16889
22544,16889
22546,16890
22781,17000
22781,17001
22782,17001
22784,17002
23018,17119
23018,17119
23019,17119
23021,17120
23255,17243
23255,17244
23256,17244
23257,17245
23491,17374
23491,17374
23492,17374
23493,17375
23726,17510
23727,17510
23727,17510
23729,17511
23961,17652
23962,17652
23962,17652
23964,17653
24196,17799
24196,17800
24196,17800
24198,17801
24429,17953
24429,17953
24430,17953
24431,17954
24662,18111
24662,18111
24662,18111
24664,18113
24894,18275
24894,18275
24894,18275
24896,18276
25125,18444
25125,18444
25125,18444
25127,18445
25356,18618
25356,18618
25356,18618
25358,18619
25585,18797
25585,18797
25585,18797
25587,18798
25814,18981
25814,18981
25814,18981
25815,18982
26041,19169
26041,19169
26041,19169
26043,19171
26268,19363
26268,19363
26269,19364
26493,19560
26493,19560
26493,19560
26493,19560
26493,19560
26495,19562
26717,19763
26717,19763
26719,19764
26927,19956
27144,19739
27193,19739
27948,20494
27942,20500
27970,20527
27976,20522
27981,20527
28009,20500
28004,20494
28369,20129
28418,20129
29025,20736
29637,20124
29565,20052
28341,20052
28341,20101
27976,20466
27221,19711
27221,19662
27498,19385
27521,19370
27546,19359
27572,19354
27600,19354
27626,19359
27651,19370
27674,19385
27693,19404
28341,20052
29565,20052
28764,19251
26734,19251
26734,19254
26715,19301
26688,19343
26653,19379
26612,19407
26566,19428
26517,19438
26467,19439
26417,19431
26371,19413
26328,19386
26292,19351
26263,19310
26242,19264
26231,19215
26231,19158
26240,19109
26259,19062
26287,19020
26323,18985
26364,18957
26410,18937
26460,18927
26497,18927
26511,18919
26525,18911
26526,18911
26527,18911
26543,18906
26558,18901
26559,18901
26560,18901
26576,18899
26593,18897
26595,18897
26595,18897
26595,18897
26595,18897
28410,18897
28295,18782
28281,18766
28263,18731
28255,18693
28258,18654
28272,18618
28295,18587
28908,17974
28925,17960
28959,17942
28997,17934
29036,17937
29073,17951
29104,17974
30446,19316
31057,18705
29715,17363
29701,17346
29683,17311
29680,17297
29597,17333
29473,17360
29345,17363
29220,17341
29154,17315
28101,17315
28101,17364
27981,17483
27962,17502
27940,17517
27915,17528
27888,17533
27861,17533
27860,17533
27868,17541
27882,17558
27900,17592
27908,17630
27905,17669
27891,17705
27868,17737
27756,17849
27756,18140
27754,18162
27752,18183
27751,18184
27751,18186
27745,18207
27739,18228
27738,18229
27738,18230
27728,18249
27718,18268
27717,18269
27716,18271
27703,18287
27689,18304
27687,18306
27687,18306
27687,18306
27687,18307
27192,18801
27176,18815
27159,18829
27158,18829
27157,18830
27138,18841
27119,18851
27117,18851
27116,18852
27095,18858
27075,18865
27073,18865
27072,18865
27050,18868
27029,18870
27026,18870
27026,18870
27026,18870
27025,18870
26691,18870
26670,18868
26648,18866
26647,18866
26645,18866
26625,18859
26610,18855
26594,18871
26578,18885
26543,18903
26505,18911
26466,18908
26430,18894
26399,18871
26231,18703
25940,18703
25918,18701
25896,18699
25895,18699
25894,18699
25873,18692
25852,18686
25851,18686
25850,18685
25830,18675
25811,18665
25810,18664
25809,18664
25792,18650
25775,18636
25773,18635
25773,18634
25773,18634
25773,18634
25198,18060
25162,18037
25126,18002
25097,17961
25077,17915
25066,17866
25065,17809
25075,17760
25094,17713
25121,17672
25157,17636
25198,17608
25245,17589
25294,17578
25344,17578
25393,17587
25440,17606
25482,17634
25518,17669
25546,17710
25566,17756
25567,17760
25606,17799
25693,17712
25741,17712
25940,17910
25934,17916
25962,17943
25968,17938
26166,18136
26166,18185
26120,18231
26286,18231
26454,18063
26471,18048
26505,18030
26544,18022
26583,18026
26607,18035
26602,18009
26605,17970
26619,17934
26642,17903
26809,17736
26826,17721
26860,17703
26899,17695
26937,17698
26974,17712
27005,17736
27283,18014
27283,17682
27171,17570
27157,17553
27139,17518
27131,17480
27134,17441
27148,17405
27171,17374
27338,17207
27355,17192
27389,17174
27428,17166
27466,17170
27469,17171
27464,17157
27458,17130
27458,17103
27464,17077
27474,17051
27489,17029
27508,17010
27627,16891
27676,16891
27874,17089
27869,17094
27897,17122
27902,17117
28101,17315
29154,17315
29101,17295
28994,17226
28901,17139
28837,17048
28346,17048
28346,17075
28341,17101
28331,17126
28316,17149
28296,17168
28177,17287
28128,17287
27930,17089
28156,16863
28205,16863
28316,16973
28331,16996
28341,17021
28346,17048
28837,17048
28828,17035
28776,16918
28748,16794
28748,16786
28128,16786
28128,16835
27902,17061
27704,16863
27704,16814
27823,16695
27842,16676
27865,16661
27890,16650
27917,16645
27944,16645
27970,16650
27995,16661
28018,16676
28128,16786
28748,16786
28746,16648
28771,16523
28782,16496
27790,16496
27787,16535
27773,16571
27750,16602
27416,16936
27399,16951
27364,16969
27326,16977
27287,16973
27263,16964
27268,16990
27265,17029
27251,17065
27228,17096
27061,17263
27044,17278
27009,17296
26999,17298
26998,17303
26987,17328
26972,17351
26918,17406
26869,17406
26643,17179
26648,17174
26620,17146
26615,17152
26609,17146
26581,17174
26587,17179
26581,17185
26609,17213
26615,17207
26841,17433
26841,17482
26786,17537
26764,17552
26738,17562
26734,17563
26722,17594
26699,17625
26532,17792
26515,17807
26481,17825
26442,17833
26404,17829
26401,17828
26406,17842
26412,17869
26412,17896
26406,17922
26396,17948
26381,17970
26362,17989
26242,18108
26194,18108
25995,17910
26001,17905
25973,17877
25968,17882
25769,17684
25769,17635
25888,17516
25908,17497
25930,17482
25955,17471
25982,17466
26009,17466
26010,17466
26002,17458
25988,17441
25969,17407
25962,17369
25965,17330
25978,17294
25983,17288
25982,17286
25982,17285
25982,17284
25980,17268
25978,17251
25978,17250
25978,17250
25978,17250
25978,17249
25978,17138
25980,17121
25981,17105
25982,17104
25982,17103
25986,17088
25991,17072
25991,17071
25992,17070
25999,17056
26007,17041
26007,17040
26008,17040
26018,17027
26028,17014
26030,17013
26030,17013
26030,17013
26030,17012
26448,16595
26460,16584
26473,16574
26474,16573
26474,16573
26489,16565
26503,16557
26504,16557
26505,16556
26521,16552
26536,16547
26537,16547
26538,16546
26554,16545
26571,16543
26572,16543
26572,16543
26572,16543
26573,16543
26684,16543
26701,16544
26717,16546
26718,16546
26719,16546
26723,16548
26749,16534
26787,16526
26826,16529
26862,16543
26894,16566
26902,16575
26901,16568
26904,16530
26918,16493
26941,16462
26453,15974
26447,15967
26441,15961
26433,15949
26424,15938
26420,15930
26414,15923
26409,15910
26402,15897
26399,15889
26396,15881
26395,15878
26352,15742
26294,15855
26248,15870
26068,15779
26072,15772
26037,15754
26033,15761
26026,15757
26008,15792
26015,15796
26012,15803
26047,15821
26050,15814
26230,15905
26245,15952
26124,16189
26112,16214
26099,16230
26100,16241
26093,16264
25778,16854
25766,16870
25745,16882
25722,16885
25699,16879
25059,16553
25017,16633
25012,16640
25008,16648
25003,16655
24998,16662
24992,16668
24987,16675
24980,16680
24974,16687
24967,16691
24960,16697
24952,16701
24945,16706
24937,16709
24930,16714
24921,16716
24913,16720
24905,16721
24897,16724
24888,16725
24879,16727
24871,16727
24863,16728
24860,16728
23837,16728
23820,16726
23804,16725
23803,16725
23802,16724
23786,16720
23771,16715
23770,16715
23769,16714
23755,16707
23740,16699
23739,16699
23738,16698
23726,16688
23713,16678
23712,16676
23712,16676
23712,16676
23711,16676
23080,16044
23069,16032
23061,16021
21704,14665
21608,14665
21590,14684
21549,14712
21503,14732
21454,14743
21403,14744
21354,14735
21307,14717
21265,14690
21228,14656
21200,14615
21179,14569
21168,14520
21167,14463
21177,14413
21196,14367
21224,14325
21259,14290
21301,14261
21347,14242
21396,14232
21446,14232
21496,14241
21530,14255
21462,14187
19627,14187
19624,14191
19541,14275
19524,14289
19509,14297
19508,14299
19485,14331
19415,14400
19426,14400
19442,14402
19458,14403
19459,14404
19460,14404
19467,14396
19484,14382
19518,14364
19556,14356
19595,14359
19632,14373
19663,14396
19802,14535
19816,14552
19835,14587
19836,14595
20852,14595
20868,14597
20884,14598
20885,14599
20886,14599
20902,14603
20917,14608
20918,14608
20919,14609
20934,14616
20948,14624
20949,14624
20950,14625
20962,14635
20975,14645
20976,14647
20976,14647
20976,14647
20977,14647
21161,14832
21620,14832
21642,14833
21679,14845
21712,14866
21737,14896
21753,14931
21758,14970
21758,15375
21786,15402
21792,15400
21841,15389
21891,15389
21941,15398
21987,15417
22029,15445
22065,15480
22093,15521
22113,15567
22124,15617
22124,15667
22115,15716
22097,15763
22070,15805
22035,15841
21993,15870
21947,15890
21898,15901
21848,15902
21799,15893
21769,15881
21695,15881
21673,15879
21651,15877
21650,15877
21649,15877
21628,15871
21607,15864
21606,15864
21605,15864
21585,15853
21566,15843
21565,15843
21564,15842
21547,15828
21530,15815
21528,15813
21528,15813
21528,15813
21528,15812
21316,15601
20911,15601
20889,15599
20852,15587
20820,15566
20794,15536
20778,15501
20773,15462
20773,15270
20734,15270
20734,15476
20729,15502
20718,15527
20703,15550
20684,15569
20662,15584
20637,15595
20610,15600
20296,15600
20262,15565
20262,15236
20222,15236
20222,15565
20188,15600
19874,15600
19847,15595
19822,15584
19800,15569
19781,15550
19766,15527
19755,15502
19750,15476
19750,15270
19784,15236
20222,15236
20262,15236
20700,15236
20734,15270
20773,15270
20773,14970
20774,14950
20733,14950
20734,14956
20734,15162
20700,15196
20262,15196
20262,15188
20222,15188
20222,15196
19784,15196
19754,15166
19318,15166
19318,15214
19235,15297
19213,15312
19188,15323
19161,15328
19134,15328
19107,15323
19082,15312
19060,15297
19019,15256
19019,15207
19189,15037
19318,15166
19754,15166
19750,15162
19750,14956
19751,14950
19621,14950
19604,14948
19588,14947
19587,14946
19587,14946
19579,14954
19563,14968
19528,14986
19506,14991
19503,15007
19492,15033
19477,15055
19394,15138
19346,15138
19217,15009
19223,15003
19195,14976
19189,14981
19184,14976
19156,15003
19161,15009
18991,15180
18942,15180
18901,15139
18886,15116
18876,15091
18870,15064
18870,15037
18876,15011
18886,14986
18901,14963
18967,14897
18956,14897
18939,14895
18923,14894
18922,14894
18921,14894
18910,14890
18876,14890
18853,14868
18819,14855
18793,14835
18803,14847
18821,14882
18824,14894
18848,14918
18848,14967
18835,14980
18813,14995
18812,14995
18789,15026
18705,15110
18701,15114
18701,15141
18831,15271
18860,15271
18909,15280
18956,15299
18998,15327
19033,15362
19062,15403
19082,15449
19092,15498
19093,15549
19084,15598
19065,15645
19038,15687
19003,15723
18962,15752
18916,15772
18867,15782
18817,15783
18767,15775
18721,15757
18678,15730
18642,15695
18637,15688
18460,15688
18437,15731
17981,15870
17899,15602
17922,15559
18259,15456
18286,15453
18313,15456
18339,15463
18363,15476
18384,15493
18401,15514
18414,15538
18422,15564
18460,15688
18637,15688
18613,15654
18593,15608
18581,15559
18581,15522
18399,15340
18388,15327
18378,15315
18377,15314
18377,15313
18369,15299
18361,15284
18361,15284
18361,15283
18356,15267
18351,15251
18351,15251
18350,15250
18349,15233
18347,15217
18347,15215
18347,15215
18347,15215
18347,15215
18347,14947
18301,14901
18301,14901
18274,14874
18246,14901
18246,14901
18037,15110
18021,15124
17986,15142
17974,15145
17785,15333
17773,15344
17760,15354
17759,15355
17758,15355
17744,15363
17730,15371
17729,15371
17728,15372
17712,15376
17697,15381
17696,15382
17695,15382
17679,15383
17662,15385
17661,15385
17660,15385
17660,15385
17660,15385
17586,15385
17594,15412
17599,15434
17599,15473
17588,15510
17567,15543
17538,15568
17502,15585
17126,15700
17104,15705
17065,15705
17028,15694
16995,15673
16969,15643
16953,15608
16884,15384
15937,15678
15948,15684
16008,15883
16016,15909
16019,15936
16016,15963
16009,15989
15996,16013
15979,16034
15958,16051
15934,16064
15784,16110
15763,16098
15704,16098
15681,16141
15531,16187
15504,16190
15477,16187
15451,16179
15427,16166
15406,16149
15389,16128
15376,16104
15368,16078
15308,15880
15330,15837
15599,15755
15704,16098
15763,16098
15741,16087
15636,15743
15644,15741
15632,15703
15625,15705
15622,15698
15585,15709
15587,15717
15319,15799
15276,15776
15239,15657
14734,16163
14795,16224
14809,16241
14828,16276
14835,16314
14832,16353
14818,16389
14795,16420
14322,16893
14305,16908
14271,16926
14232,16934
14194,16931
14157,16917
14126,16893
13959,16726
13945,16710
13927,16675
13919,16637
13922,16598
13931,16573
13923,16578
13884,16586
13846,16583
13809,16569
13778,16545
13611,16378
13597,16362
13579,16327
13571,16289
13574,16250
13583,16225
13575,16230
13556,16234
13550,16239
13549,16239
13548,16240
13529,16250
13510,16261
13508,16261
13507,16262
13486,16268
13466,16275
13464,16275
13463,16275
13442,16278
13420,16280
13417,16280
13417,16280
13417,16280
13417,16280
13408,16280
13387,16278
13365,16276
13364,16276
13363,16276
13361,16275
13049,16275
13027,16273
13006,16271
13004,16271
13003,16271
12982,16264
12961,16258
12960,16258
12959,16257
12940,16247
12920,16237
12919,16236
12918,16236
12901,16222
12884,16208
12883,16207
12883,16206
12883,16206
12882,16206
12676,16000
12658,15993
12615,15966
12579,15931
12550,15890
12530,15844
12518,15796
12518,15738
12527,15689
12546,15643
12574,15601
12610,15565
12651,15537
12697,15518
12747,15508
12797,15507
12846,15517
12885,15532
12891,15519
12906,15497
12908,15494
12601,15494
12601,15522
12596,15548
12585,15573
12570,15596
12551,15615
12223,15943
12174,15943
11976,15745
12411,15310
12460,15310
12570,15420
12585,15443
12596,15468
12601,15494
12908,15494
13114,15289
13163,15289
13305,15431
13300,15437
13327,15465
13333,15459
13339,15465
13366,15437
13361,15431
13657,15136
13705,15136
13760,15190
13775,15213
13786,15238
13791,15265
13791,15292
13786,15319
13780,15333
13787,15329
13826,15321
13864,15324
13901,15338
13932,15361
14099,15528
14113,15545
14132,15580
14139,15618
14136,15657
14127,15681
14135,15677
14174,15669
14212,15672
14228,15678
14847,15059
13629,15059
13629,15108
13333,15404
13190,15261
13190,15233
12383,15233
12383,15282
11948,15717
11750,15518
11750,15470
12078,15142
12097,15123
12119,15107
12145,15097
12171,15092
12198,15092
12225,15097
12250,15107
12273,15123
12383,15233
13190,15233
13190,15212
13398,15004
13421,14989
13446,14979
13473,14973
13500,14973
13526,14979
13551,14989
13574,15004
13629,15059
14847,15059
15280,14625
13735,14625
13719,14624
13703,14622
13702,14622
13701,14622
13685,14617
13669,14613
13669,14612
13668,14612
13658,14607
13594,14671
13577,14685
13543,14703
13505,14711
13466,14708
13429,14694
13398,14671
13130,14402
12393,14402
12393,14451
12282,14561
12260,14577
12235,14587
12208,14592
12181,14592
12154,14587
12129,14577
12107,14561
12088,14542
11760,14214
11760,14166
11958,13967
12393,14402
13130,14402
12953,14225
12928,14250
12887,14279
12841,14299
12792,14310
12742,14311
12693,14302
12646,14284
12603,14257
12592,14246
12580,14264
12469,14374
12421,14374
11986,13939
12184,13741
12233,13741
12508,14017
12516,13980
12525,13956
12525,13681
12528,13659
12530,13637
12530,13636
12530,13635
12536,13614
12542,13593
12543,13592
12543,13591
12554,13571
12564,13552
12564,13551
12565,13550
12579,13533
12592,13516
12594,13514
12594,13514
12594,13514
12595,13514
13785,12323
13795,12300
13822,12258
13858,12223
13899,12195
13946,12175
13951,12174
13875,12099
13875,12050
14074,11852
14509,12286
14509,12335
14398,12446
14376,12461
14351,12471
14324,12476
14297,12476
14272,12472
14269,12492
14250,12538
14223,12580
14188,12617
14147,12645
14119,12658
13796,12980
13919,13102
13940,13111
13934,13096
13929,13069
13929,13042
13934,13015
13945,12990
13960,12968
14015,12913
14063,12913
14359,13209
14353,13214
14381,13242
14387,13236
14683,13532
14683,13581
14628,13636
14605,13651
14580,13661
14554,13667
14526,13667
14500,13661
14485,13655
14489,13663
14497,13701
14494,13740
14480,13777
14457,13808
14290,13975
14273,13989
14239,14007
14201,14015
14162,14012
14137,14003
14141,14011
14149,14049
14146,14088
14138,14111
14141,14114
15753,14114
15751,14112
15736,14105
15735,14104
15735,14104
15722,14093
15709,14083
15708,14082
15708,14082
15708,14082
15707,14081
14974,13348
14845,13348
14845,13375
14840,13402
14829,13427
14814,13450
14759,13504
14710,13504
14415,13209
14557,13066
14606,13066
14814,13274
14829,13296
14840,13322
14845,13348
14974,13348
14940,13314
14929,13301
14919,13289
14918,13288
14918,13287
14910,13273
14902,13258
14902,13257
14901,13257
14897,13241
14892,13225
14891,13224
14891,13223
14890,13207
14888,13191
14888,13189
14888,13189
14888,13189
14888,13188
14888,12989
14530,12989
14530,13038
14387,13181
14091,12885
14091,12836
14146,12781
14168,12766
14194,12756
14220,12751
14247,12751
14274,12756
14299,12766
14322,12781
14530,12989
14888,12989
14888,12270
14887,12269
14851,12234
14822,12193
14801,12148
14790,12099
14789,12047
14726,12047
14726,12074
14721,12100
14711,12126
14696,12148
14585,12259
14536,12259
14102,11824
14300,11625
14349,11625
14677,11953
14696,11972
14711,11995
14721,12020
14726,12047
14789,12047
14789,12041
14799,11992
14818,11946
14846,11904
14881,11868
14923,11840
14969,11821
15018,11811
15068,11810
15118,11820
15164,11839
15206,11866
15242,11901
15271,11943
15290,11989
15301,12038
15301,12088
15292,12137
15274,12184
15247,12226
15242,12231
15242,12341
15419,12341
15441,12343
15478,12355
15511,12376
15536,12406
15552,12441
15558,12480
15558,12952
15556,12974
15544,13011
15539,13019
15858,13338
15873,13331
15911,13326
16226,13326
16248,13327
16285,13339
16305,13351
16310,13347
16345,13331
16384,13326
16699,13326
16721,13327
16734,13332
16887,13332
16665,13110
16640,13110
16590,13102
16543,13083
16501,13056
16465,13022
16436,12981
16415,12935
16404,12886
16403,12829
16413,12780
16417,12770
16305,12770
16305,12966
16300,12992
16289,13018
16274,13040
16255,13059
16232,13074
16207,13085
16181,13090
16103,13090
16069,13056
16069,12736
16029,12736
16029,13056
15995,13090
15917,13090
15891,13085
15866,13074
15843,13059
15824,13040
15809,13018
15798,12992
15793,12966
15793,12770
15828,12736
16029,12736
16069,12736
16271,12736
16305,12770
16417,12770
16432,12733
16460,12691
16495,12656
16537,12628
16576,12611
16689,12498
16695,12504
16723,12476
16717,12470
16661,12470
16533,12599
16484,12599
16401,12516
16386,12494
16376,12469
16375,12466
16305,12466
16305,12662
16271,12696
16069,12696
16069,12376
16029,12376
16029,12696
15828,12696
15793,12662
15793,12466
15798,12440
15809,12415
15824,12392
15843,12373
15866,12358
15891,12347
15917,12342
15995,12342
16029,12376
16069,12376
16103,12342
16181,12342
16207,12347
16232,12358
16255,12373
16274,12392
16289,12415
16300,12440
16305,12466
16375,12466
16370,12442
16370,12415
16376,12388
16386,12363
16401,12341
16442,12300
16491,12300
16661,12470
16717,12470
16965,12223
16970,12228
16998,12200
16993,12195
16937,12195
16689,12442
16519,12272
16519,12223
16560,12182
16582,12167
16607,12157
16634,12152
16646,12152
16646,12139
16651,12113
16662,12088
16677,12065
16718,12024
16766,12024
16937,12195
16993,12195
17121,12066
17170,12066
17253,12149
17268,12171
17278,12196
17281,12212
17287,12213
17324,12226
17355,12250
17452,12347
17467,12345
17483,12343
17485,12343
17485,12343
17485,12343
17486,12343
17636,12343
17625,12296
17624,12238
17634,12189
17653,12143
17681,12101
17703,12078
17703,12066
17704,12050
17706,12034
17706,12033
17706,12032
17711,12016
17715,12001
17716,12000
17716,11999
17721,11989
17094,11989
17094,12038
16965,12167
16794,11996
16794,11948
16835,11907
16858,11892
16859,11891
16483,11891
16473,11940
16455,11987
16428,12029
16393,12065
16352,12094
16306,12114
16257,12125
16207,12126
16157,12117
16110,12099
16068,12072
16032,12038
16003,11997
15999,11988
15932,11988
15932,12047
15930,12069
15918,12106
15897,12138
15867,12164
15832,12180
15793,12185
15557,12185
15535,12183
15498,12172
15465,12150
15440,12121
15424,12085
15419,12047
15419,11574
15420,11552
15432,11515
15453,11483
15477,11462
15458,11471
15419,11477
15183,11477
15161,11475
15124,11463
15091,11442
15066,11412
15050,11377
15045,11338
15045,11096
14920,10971
14910,10959
14899,10946
14899,10945
14898,10945
14890,10930
14882,10916
14882,10915
14882,10914
14877,10898
14872,10883
14872,10882
14871,10881
14870,10865
14868,10848
14868,10847
14868,10847
14868,10847
14868,10846
14868,10755
14851,10738
14822,10697
14801,10652
14790,10603
14789,10545
14799,10496
14818,10450
14846,10408
14881,10372
14923,10344
14969,10325
15018,10315
15068,10314
15118,10324
15164,10342
15206,10370
15242,10405
15271,10446
15290,10493
15301,10542
15301,10592
15292,10641
15274,10688
15249,10727
15419,10727
15441,10729
15478,10740
15511,10762
15536,10792
15552,10827
15558,10866
15558,11338
15556,11360
15544,11397
15523,11430
15499,11450
15518,11441
15557,11436
15793,11436
15815,11438
15846,11447
15843,11445
15824,11426
15809,11403
15798,11378
15793,11352
15793,11156
15828,11122
16029,11122
16029,11441
15995,11476
15917,11476
15891,11471
15875,11464
15885,11471
15910,11500
15926,11536
15932,11574
15932,11633
16128,11633
16150,11624
16199,11614
16250,11613
16299,11623
16345,11642
16387,11669
16423,11704
16452,11746
16471,11792
16482,11841
16483,11891
16859,11891
16883,11881
16909,11876
16937,11876
16963,11881
16988,11892
17011,11907
17094,11989
17721,11989
17724,11984
17731,11970
17732,11969
17732,11968
17741,11957
17741,11811
17743,11789
17755,11751
17776,11719
17806,11694
17841,11678
17880,11672
18195,11672
18217,11674
18254,11685
18273,11698
18278,11694
18314,11678
18352,11672
18667,11672
18689,11674
18721,11684
18746,11658
18745,11653
18745,11417
18747,11395
18759,11358
18780,11325
18810,11300
18845,11284
18884,11278
19356,11278
19378,11280
19415,11292
19448,11313
19473,11343
19489,11378
19495,11417
19495,11653
19493,11675
19481,11712
19460,11745
19430,11770
19395,11786
19356,11792
19114,11792
18878,12027
19066,12027
19100,12062
19100,12263
18780,12263
18746,12229
18746,12151
18751,12125
18757,12111
18741,12124
18706,12140
18667,12146
18352,12146
18330,12144
18293,12133
18274,12120
18269,12124
18233,12140
18195,12146
18108,12146
18125,12186
18135,12235
18136,12285
18127,12334
18109,12381
18081,12423
18067,12438
18246,12617
18246,12617
18274,12645
18301,12617
18301,12617
18510,12409
18526,12394
18561,12376
18599,12368
18638,12371
18674,12385
18705,12409
18761,12464
18751,12441
18746,12415
18746,12337
18780,12303
19100,12303
19100,12504
19066,12539
18870,12539
18844,12534
18818,12523
18807,12515
18811,12524
18814,12524
18845,12548
18928,12631
18942,12648
18950,12663
18953,12664
18984,12687
19067,12771
19082,12787
19089,12802
19092,12803
19123,12826
19207,12910
19221,12927
19229,12941
19231,12942
19262,12965
19346,13049
19360,13066
19368,13080
19370,13081
19401,13105
19485,13188
19499,13205
19507,13219
19510,13220
19541,13244
19623,13326
21266,13326
21282,13328
21298,13329
21299,13330
21300,13330
21316,13334
21331,13339
21332,13339
21333,13340
21348,13347
21362,13355
21363,13355
21364,13356
21376,13366
21389,13376
21390,13378
21390,13378
21390,13378
21391,13378
23356,15343
23366,15356
23375,15366
23577,15568
23811,15130
23439,15130
23417,15128
23396,15126
23394,15125
23393,15125
23372,15119
23351,15113
23350,15112
23349,15112
23330,15102
23310,15092
23309,15091
23308,15090
23292,15076
23274,15063
23273,15061
23273,15061
23273,15061
23272,15060
22949,14737
22935,14721
22930,14715
20553,12337
19494,12337
19494,12415
19489,12441
19478,12466
19463,12489
19444,12508
19421,12523
19396,12534
19370,12539
19174,12539
19140,12504
19140,12303
19460,12303
19494,12337
20553,12337
20349,12133
20336,12144
20300,12160
20262,12166
19789,12166
19767,12164
19730,12152
19729,12151
19494,12151
19494,12229
19460,12263
19140,12263
19140,12062
19174,12027
19370,12027
19396,12032
19421,12043
19444,12058
19463,12077
19478,12100
19489,12125
19494,12151
19729,12151
19698,12131
19672,12101
19656,12066
19651,12027
19651,11791
19653,11769
19664,11732
19686,11699
19715,11674
19751,11658
19789,11652
19848,11652
19848,11555
19850,11538
19851,11522
19852,11521
19852,11520
19856,11505
19861,11489
19861,11488
19862,11487
19869,11473
19877,11458
19877,11457
19878,11457
19888,11444
19898,11431
19900,11430
19900,11430
19900,11430
19900,11429
19966,11364
19966,11220
19967,11201
19789,11201
19767,11199
19730,11188
19698,11166
19672,11137
19656,11101
19654,11082
17264,11082
17151,11195
17152,11222
17143,11271
17124,11318
17097,11360
17062,11396
17021,11425
16975,11445
16926,11456
16876,11457
16826,11448
16780,11430
16737,11403
16701,11368
16672,11327
16652,11281
16640,11233
16640,11201
16522,11201
16500,11199
16462,11188
16430,11166
16421,11156
16305,11156
16305,11352
16300,11378
16289,11403
16274,11426
16255,11445
16232,11460
16207,11471
16181,11476
16103,11476
16069,11441
16069,11122
16271,11122
16305,11156
16421,11156
16405,11137
16389,11101
16383,11062
16383,10919
16302,10838
16305,10852
16305,11048
16271,11082
16069,11082
16069,10762
16029,10762
16029,11082
15828,11082
15793,11048
15793,10852
15798,10825
15809,10800
15824,10778
15843,10759
15866,10744
15891,10733
15917,10728
15995,10728
16029,10762
16069,10762
16103,10728
16181,10728
16195,10731
15927,10463
15918,10492
15897,10524
15867,10550
15832,10566
15793,10571
15557,10571
15535,10569
15498,10558
15465,10536
15440,10507
15424,10471
15419,10433
15419,9960
15420,9938
15432,9901
15453,9868
15483,9843
15518,9827
15557,9822
15793,9822
15815,9823
15852,9835
15885,9856
15910,9886
15926,9922
15932,9960
15932,10021
15944,10022
15945,10022
15946,10023
15961,10027
15977,10032
15978,10032
15979,10033
15993,10040
16008,10048
16009,10048
16009,10049
16022,10059
16035,10069
16036,10071
16036,10071
16036,10071
16037,10071
16383,10418
16383,10275
16385,10253
16396,10216
16418,10183
16447,10158
16483,10142
16522,10137
16718,10137
16740,10138
16778,10150
16808,10170
16821,10158
16857,10142
16896,10137
17525,10137
17546,10138
17546,10096
17525,10099
16896,10099
16874,10097
16836,10085
16804,10064
16779,10034
16763,9999
16757,9960
16285,9960
16266,9968
16217,9979
16167,9980
16118,9972
16071,9953
16029,9927
15992,9892
15963,9851
15943,9805
15932,9756
15931,9699
15941,9650
15960,9603
15988,9561
16023,9526
16065,9498
16111,9478
16160,9468
16210,9468
16260,9477
16285,9488
16757,9488
16759,9466
16770,9429
16792,9396
16821,9371
16857,9355
16896,9349
17094,9349
17358,9084
17375,9071
17392,9057
17393,9056
17394,9055
17413,9045
17432,9034
17434,9034
17435,9033
17456,9027
17476,9020
17478,9020
17479,9020
17500,9018
17522,9015
17525,9015
17525,9015
17525,9015
17525,9015
19734,9015
19756,9017
19778,9019
19779,9020
19780,9020
19801,9026
19822,9032
19823,9033
19824,9033
19843,9043
19863,9053
19864,9054
19865,9055
19882,9068
19899,9082
19901,9084
19901,9084
19901,9084
19901,9084
19996,9179
20010,9196
20024,9212
20024,9214
20025,9215
20035,9234
20046,9253
20046,9254
20047,9255
20053,9276
20060,9297
20060,9298
20060,9299
20062,9321
20065,9343
20065,9345
20065,9345
20065,9345
20065,9346
20065,9410
20645,9990
20659,10007
20673,10024
20674,10025
20675,10026
20685,10045
20695,10064
20696,10065
20696,10066
20703,10087
20709,10108
20709,10109
20710,10110
20712,10132
20714,10154
20714,10156
20714,10156
20714,10156
20714,10157
20714,11831
22480,13597
22478,13455
22503,13331
22552,13213
22622,13107
22712,13016
22817,12945
22935,12896
23060,12870
23187,12869
23312,12893
23430,12941
23537,13010
23628,13100
23700,13205
23750,13322
23773,13431
23809,13362
23855,13347
24105,13475
23826,14023
23779,14038
23640,13967
23619,13950
23617,13948
23551,14016
23446,14089
23330,14140
23205,14167
23078,14170
23049,14165
23283,14399
23297,14416
23302,14422
23537,14657
24120,14657
24211,14479
24223,14460
24250,14432
24284,14413
24322,14404
24360,14406
24397,14418
24418,14429
24471,14376
24488,14362
24505,14348
24506,14347
24507,14347
24526,14336
24545,14326
24546,14325
24548,14325
24568,14318
24589,14312
24590,14312
24592,14311
24613,14309
24635,14307
24638,14307
24638,14307
24638,14307
24638,14307
24821,14307
24829,14307
24837,14307
24852,14310
24867,14311
24874,14313
24882,14315
24896,14320
24911,14324
24918,14328
24925,14331
24928,14333
26621,15199
26632,15205
26643,15211
26651,15218
26660,15224
26669,15232
26679,15240
26686,15248
26693,15256
26700,15266
26709,15275
26714,15285
26720,15293
26725,15305
26731,15316
26734,15326
26738,15336
26741,15348
26745,15360
26746,15370
26748,15381
26748,15393
26749,15397
26755,15384
26966,14971
27012,14956
27262,15083
26983,15631
26936,15646
26797,15576
26794,15573
26828,15680
27275,16128
27292,16114
27327,16096
27365,16088
27404,16091
27440,16105
27471,16128
27750,16406
27764,16423
27782,16458
27790,16496
28782,16496
28819,16406
28890,16300
28979,16209
29085,16138
29203,16089
29327,16063
29455,16062
29545,16079
29464,16017
29257,15863
29052,15715
28848,15572
28645,15435
28443,15302
28400,15275
27562,15275
27351,15688
27339,15712
27322,15734
27302,15751
27278,15764
27252,15773
27225,15776
27198,15774
27172,15767
27033,15696
27018,15649
27297,15101
27547,15229
27562,15275
28400,15275
28242,15175
28042,15051
27843,14932
27761,14884
27611,15178
27565,15193
27315,15066
27318,15059
27283,15041
27280,15048
27030,14921
27015,14875
27178,14554
27057,14488
26863,14385
26670,14283
26478,14184
26286,14086
26096,13990
25907,13895
25907,13895
25719,13800
25532,13707
25532,13707
25532,13707
25452,13666
24405,13666
24194,14079
24182,14104
24165,14125
24145,14143
24121,14156
24095,14164
24068,14167
24041,14165
24015,14158
23876,14087
23861,14041
24140,13493
24390,13620
24405,13666
25452,13666
25346,13613
25346,13613
25345,13613
25161,13519
25161,13519
25160,13519
24977,13425
24977,13425
24976,13425
24794,13331
24794,13331
24793,13330
24622,13240
24454,13570
24408,13585
24158,13457
24161,13450
24126,13433
24123,13440
23873,13312
23858,13266
24035,12918
23894,12837
23894,12837
23893,12836
23718,12732
23718,12732
23718,12732
23716,12731
23542,12625
23542,12625
23542,12625
23540,12624
23368,12514
23368,12514
23367,12514
23366,12513
23195,12400
23194,12400
23194,12400
23192,12399
23023,12283
23022,12283
23022,12282
23020,12281
22852,12161
22851,12161
22851,12161
22849,12160
22682,12036
22682,12035
22681,12035
22680,12034
22514,11906
22513,11905
22513,11905
22511,11904
22347,11771
22346,11770
22346,11770
22344,11769
22181,11631
22180,11630
22180,11630
22178,11629
22016,11486
22016,11485
22015,11485
22014,11483
21853,11335
21853,11334
21852,11334
21851,11332
21692,11178
21691,11177
21690,11177
21689,11175
21531,11015
21531,11014
21530,11013
21529,11012
21372,10845
21372,10844
21371,10844
21370,10842
21215,10669
21214,10668
21214,10667
21212,10666
21059,10485
21058,10484
21058,10484
21056,10482
20904,10294
20904,10294
20903,10293
20902,10291
20751,10096
20751,10095
20750,10095
20749,10093
20600,9890
20599,9889
20599,9889
20597,9887
20450,9675
20449,9675
20449,9674
20448,9672
20301,9452
20301,9452
20300,9451
20299,9449
20154,9221
20154,9220
20154,9220
20152,9218
20011,8984
19872,8778
19708,8592
19518,8424
19303,8277
19064,8155
18804,8062
18522,8001
18219,7975
17933,7984
" /> 
</g>
<g style="fill:#FFFFFF; fill-opacity:1.0; 
stroke:#FFFFFF; stroke-width:118.11; stroke-opacity:1; 
stroke-linecap:round; stroke-linejoin:round;">
</g>
<g style="fill:#FFFFFF; fill-opacity:1.0; 
stroke:#FFFFFF; stroke-width:0; stroke-opacity:1; 
stroke-linecap:round; stroke-linejoin:round;">
<circle cx="12774" cy="15763.8" r="78.7402" /> 
</g>
<g style="fill:#FFFFFF; fill-opacity:1.0; 
stroke:#FFFFFF; stroke-width:39.3701; stroke-opacity:1; 
stroke-linecap:round; stroke-linejoin:round;">
</g>
<g style="fill:#FFFFFF; fill-opacity:1.0; 
stroke:#FFFFFF; stroke-width:0; stroke-opacity:1; 
stroke-linecap:round; stroke-linejoin:round;">
<circle cx="14022" cy="12421.3" r="78.7402" /> 
</g>
<g style="fill:#FFFFFF; fill-opacity:1.0; 
stroke:#FFFFFF; stroke-width:39.3701; stroke-opacity:1; 
stroke-linecap:round; stroke-linejoin:round;">
</g>
<g style="fill:#FFFFFF; fill-opacity:1.0; 
stroke:#FFFFFF; stroke-width:0; stroke-opacity:1; 
stroke-linecap:round; stroke-linejoin:round;">
<circle cx="16187.4" cy="9724.41" r="78.7402" /> 
</g>
<g style="fill:#FFFFFF; fill-opacity:1.0; 
stroke:#FFFFFF; stroke-width:39.3701; stroke-opacity:1; 
stroke-linecap:round; stroke-linejoin:round;">
</g>
<g style="fill:#FFFFFF; fill-opacity:1.0; 
stroke:#FFFFFF; stroke-width:0; stroke-opacity:1; 
stroke-linecap:round; stroke-linejoin:round;">
<circle cx="12762.2" cy="14055.1" r="78.7402" /> 
</g>
<g style="fill:#FFFFFF; fill-opacity:1.0; 
stroke:#FFFFFF; stroke-width:39.3701; stroke-opacity:1; 
stroke-linecap:round; stroke-linejoin:round;">
</g>
<g style="fill:#FFFFFF; fill-opacity:1.0; 
stroke:#FFFFFF; stroke-width:0; stroke-opacity:1; 
stroke-linecap:round; stroke-linejoin:round;">
<circle cx="14616" cy="13015" r="78.7402" /> 
</g>
<g style="fill:#FFFFFF; fill-opacity:1.0; 
stroke:#FFFFFF; stroke-width:39.3701; stroke-opacity:1; 
stroke-linecap:round; stroke-linejoin:round;">
</g>
<g style="fill:#FFFFFF; fill-opacity:1.0; 
stroke:#FFFFFF; stroke-width:0; stroke-opacity:1; 
stroke-linecap:round; stroke-linejoin:round;">
<circle cx="13155.9" cy="15196.9" r="78.7402" /> 
</g>
<g style="fill:#FFFFFF; fill-opacity:1.0; 
stroke:#FFFFFF; stroke-width:39.3701; stroke-opacity:1; 
stroke-linecap:round; stroke-linejoin:round;">
</g>
<g style="fill:#FFFFFF; fill-opacity:1.0; 
stroke:#FFFFFF; stroke-width:0; stroke-opacity:1; 
stroke-linecap:round; stroke-linejoin:round;">
<circle cx="21868.5" cy="15645.7" r="78.7402" /> 
</g>
<g style="fill:#FFFFFF; fill-opacity:1.0; 
stroke:#FFFFFF; stroke-width:39.3701; stroke-opacity:1; 
stroke-linecap:round; stroke-linejoin:round;">
</g>
<g style="fill:#FFFFFF; fill-opacity:1.0; 
stroke:#FFFFFF; stroke-width:0; stroke-opacity:1; 
stroke-linecap:round; stroke-linejoin:round;">
<circle cx="25321.3" cy="17834.6" r="78.7402" /> 
</g>
<g style="fill:#FFFFFF; fill-opacity:1.0; 
stroke:#FFFFFF; stroke-width:39.3701; stroke-opacity:1; 
stroke-linecap:round; stroke-linejoin:round;">
</g>
<g style="fill:#FFFFFF; fill-opacity:1.0; 
stroke:#FFFFFF; stroke-width:0; stroke-opacity:1; 
stroke-linecap:round; stroke-linejoin:round;">
<circle cx="18746.5" cy="13661.4" r="78.7402" /> 
</g>
<g style="fill:#FFFFFF; fill-opacity:1.0; 
stroke:#FFFFFF; stroke-width:39.3701; stroke-opacity:1; 
stroke-linecap:round; stroke-linejoin:round;">
</g>
<g style="fill:#FFFFFF; fill-opacity:1.0; 
stroke:#FFFFFF; stroke-width:0; stroke-opacity:1; 
stroke-linecap:round; stroke-linejoin:round;">
<circle cx="21423.6" cy="14488.2" r="78.7402" /> 
</g>
<g style="fill:#FFFFFF; fill-opacity:1.0; 
stroke:#FFFFFF; stroke-width:39.3701; stroke-opacity:1; 
stroke-linecap:round; stroke-linejoin:round;">
</g>
<g style="fill:#FFFFFF; fill-opacity:1.0; 
stroke:#FFFFFF; stroke-width:0; stroke-opacity:1; 
stroke-linecap:round; stroke-linejoin:round;">
<circle cx="16896.1" cy="11200.8" r="78.7402" /> 
</g>
<g style="fill:#FFFFFF; fill-opacity:1.0; 
stroke:#FFFFFF; stroke-width:39.3701; stroke-opacity:1; 
stroke-linecap:round; stroke-linejoin:round;">
</g>
<g style="fill:#FFFFFF; fill-opacity:1.0; 
stroke:#FFFFFF; stroke-width:0; stroke-opacity:1; 
stroke-linecap:round; stroke-linejoin:round;">
<circle cx="16226.8" cy="11870.1" r="78.7402" /> 
</g>
<g style="fill:#FFFFFF; fill-opacity:1.0; 
stroke:#FFFFFF; stroke-width:39.3701; stroke-opacity:1; 
stroke-linecap:round; stroke-linejoin:round;">
</g>
<g style="fill:#FFFFFF; fill-opacity:1.0; 
stroke:#FFFFFF; stroke-width:0; stroke-opacity:1; 
stroke-linecap:round; stroke-linejoin:round;">
<circle cx="17880.3" cy="12263.8" r="78.7402" /> 
</g>
<g style="fill:#FFFFFF; fill-opacity:1.0; 
stroke:#FFFFFF; stroke-width:39.3701; stroke-opacity:1; 
stroke-linecap:round; stroke-linejoin:round;">
</g>
<g style="fill:#FFFFFF; fill-opacity:1.0; 
stroke:#FFFFFF; stroke-width:0; stroke-opacity:1; 
stroke-linecap:round; stroke-linejoin:round;">
<circle cx="16659.8" cy="12854.3" r="78.7402" /> 
</g>
<g style="fill:#FFFFFF; fill-opacity:1.0; 
stroke:#FFFFFF; stroke-width:39.3701; stroke-opacity:1; 
stroke-linecap:round; stroke-linejoin:round;">
</g>
<g style="fill:#FFFFFF; fill-opacity:1.0; 
stroke:#FFFFFF; stroke-width:0; stroke-opacity:1; 
stroke-linecap:round; stroke-linejoin:round;">
<circle cx="18837" cy="15527.6" r="78.7402" /> 
</g>
<g style="fill:#FFFFFF; fill-opacity:1.0; 
stroke:#FFFFFF; stroke-width:39.3701; stroke-opacity:1; 
stroke-linecap:round; stroke-linejoin:round;">
</g>
<g style="fill:#FFFFFF; fill-opacity:1.0; 
stroke:#FFFFFF; stroke-width:0; stroke-opacity:1; 
stroke-linecap:round; stroke-linejoin:round;">
<circle cx="26487" cy="19183.5" r="78.7402" /> 
</g>
<g style="fill:#FFFFFF; fill-opacity:1.0; 
stroke:#FFFFFF; stroke-width:39.3701; stroke-opacity:1; 
stroke-linecap:round; stroke-linejoin:round;">
</g>
<g style="fill:#FFFFFF; fill-opacity:1.0; 
stroke:#FFFFFF; stroke-width:0; stroke-opacity:1; 
stroke-linecap:round; stroke-linejoin:round;">
<circle cx="15045.7" cy="10570.9" r="78.7402" /> 
</g>
<g style="fill:#FFFFFF; fill-opacity:1.0; 
stroke:#FFFFFF; stroke-width:39.3701; stroke-opacity:1; 
stroke-linecap:round; stroke-linejoin:round;">
</g>
<g style="fill:#FFFFFF; fill-opacity:1.0; 
stroke:#FFFFFF; stroke-width:0; stroke-opacity:1; 
stroke-linecap:round; stroke-linejoin:round;">
<circle cx="15045.7" cy="12066.9" r="78.7402" /> 
</g>
<g style="fill:#FFFFFF; fill-opacity:1.0; 
stroke:#FFFFFF; stroke-width:39.3701; stroke-opacity:1; 
stroke-linecap:round; stroke-linejoin:round;">
</g>
<g style="fill:#FFFFFF; fill-opacity:1.0; 
stroke:#FFFFFF; stroke-width:0; stroke-opacity:1; 
stroke-linecap:round; stroke-linejoin:round;">
<circle cx="18274" cy="10118.1" r="590.551" /> 
</g>
<g style="fill:#FFFFFF; fill-opacity:1.0; 
stroke:#FFFFFF; stroke-width:39.3701; stroke-opacity:1; 
stroke-linecap:round; stroke-linejoin:round;">
</g>
<g style="fill:#000000; fill-opacity:1.0; 
stroke:#000000; stroke-width:39.3701; stroke-opacity:1; 
stroke-linecap:round; stroke-linejoin:round;">
</g>
<g style="fill:#000000; fill-opacity:0.0; 
stroke:#000000; stroke-width:39.3701; stroke-opacity:1; 
stroke-linecap:round; stroke-linejoin:round;">
<path d="M20876 10000
L21027 10195
" />
<path d="M16188 16759
L15963 16864
" />
<path d="M24343 18084
L24112 17933
" />
<path d="M31043 17168
L31259 17381
" />
<path d="M30828 16963
L31043 17168
" />
<path d="M26165 19482
L25941 19291
" />
<path d="M27724 14679
L27924 14796
" />
<path d="M21179 10383
L21332 10564
" />
<path d="M23973 12701
L24149 12802
" />
<path d="M21643 10904
L21801 11065
" />
<path d="M23281 12269
L23452 12381
" />
<path d="M25978 13754
L26167 13849
" />
<path d="M27492 20725
L27274 20507
" />
<path d="M14850 17529
L14631 17691
" />
<path d="M29559 15891
L29768 16053
" />
<path d="M16672 8327
L16812 8220
" />
<path d="M20362 16330
L20127 16287
" />
<path d="M11306 13684
L16559 8431
" />
<path d="M24505 12999
L24685 13096
" />
<path d="M16559 8431
L16672 8327
" />
<path d="M20127 16287
L19891 16251
" />
<path d="M19820 8481
L19996 8682
" />
<path d="M17642 7867
L17919 7827
" />
<path d="M19891 16251
L19657 16222
" />
<path d="M21774 16738
L21539 16653
" />
<path d="M24573 18241
L24343 18084
" />
<path d="M19383 8141
L19615 8299
" />
<path d="M18022 16239
L17790 16274
" />
<path d="M23415 17512
L23181 17383
" />
<path d="M22009 16830
L21774 16738
" />
<path d="M20579 9585
L20727 9797
" />
<path d="M15292 17234
L15071 17377
" />
<path d="M29978 16221
L30189 16395
" />
<path d="M22121 11368
L22282 11511
" />
<path d="M25602 13566
L25790 13660
" />
<path d="M26834 20085
L26612 19879
" />
<path d="M18954 16182
L18720 16184
" />
<path d="M26743 14144
L26937 14246
" />
<path d="M18720 16184
L18487 16195
" />
<path d="M21487 10737
L21643 10904
" />
<path d="M22943 12033
L23111 12153
" />
<path d="M18847 7910
L19127 8011
" />
<path d="M27274 20507
L27054 20294
" />
<path d="M31694 17832
L31913 18072
" />
<path d="M25232 13379
L25417 13472
" />
<path d="M31259 17381
L31476 17602
" />
<path d="M21068 16503
L20833 16438
" />
<path d="M28124 14917
L28326 15041
" />
<path d="M25048 13285
L25232 13379
" />
<path d="M20287 9136
L20432 9365
" />
<path d="M21304 16575
L21068 16503
" />
<path d="M19615 8299
L19820 8481
" />
<path d="M20833 16438
L20597 16381
" />
<path d="M28351 21633
L28138 21401
" />
<path d="M21960 11219
L22121 11368
" />
<path d="M24803 18403
L24573 18241
" />
<path d="M25261 18743
L25032 18571
" />
<path d="M16812 8220
L16979 8114
" />
<path d="M30614 16766
L30828 16963
" />
<path d="M19657 16222
L19422 16201
" />
<path d="M16642 16576
L16415 16663
" />
<path d="M22948 17260
L22714 17143
" />
<path d="M15963 16864
L15738 16978
" />
<path d="M19996 8682
L20144 8899
" />
<path d="M21027 10195
L21179 10383
" />
<path d="M17393 7933
L17642 7867
" />
<path d="M25941 19291
L25715 19103
" />
<path d="M17099 16429
L16870 16498
" />
<path d="M20727 9797
L20876 10000
" />
<path d="M22714 17143
L22479 17032
" />
<path d="M23181 17383
L22948 17260
" />
<path d="M28529 15170
L28733 15304
" />
<path d="M25417 13472
L25602 13566
" />
<path d="M19422 16201
L19188 16188
" />
<path d="M21332 10564
L21487 10737
" />
<path d="M18487 16195
L18254 16213
" />
<path d="M22610 11781
L22776 11909
" />
<path d="M26358 13946
L26550 14044
" />
<path d="M23452 12381
L23624 12491
" />
<path d="M21801 11065
L21960 11219
" />
<path d="M29351 15736
L29559 15891
" />
<path d="M14631 17691
L14413 17863
" />
<path d="M23111 12153
L23281 12269
" />
<path d="M26389 19679
L26165 19482
" />
<path d="M30401 16577
L30614 16766
" />
<path d="M19188 16188
L18954 16182
" />
<path d="M27328 14457
L27525 14566
" />
<path d="M18254 16213
L18022 16239
" />
<path d="M26937 14246
L27132 14350
" />
<path d="M22244 16928
L22009 16830
" />
<path d="M28733 15304
L28938 15442
" />
<path d="M23624 12491
L23798 12597
" />
<path d="M24685 13096
L24866 13191
" />
<path d="M25790 13660
L25978 13754
" />
<path d="M27924 14796
L28124 14917
" />
<path d="M28138 21401
L27924 21172
" />
<path d="M17790 16274
L17559 16317
" />
<path d="M19127 8011
L19383 8141
" />
<path d="M26550 14044
L26743 14144
" />
<path d="M16870 16498
L16642 16576
" />
<path d="M25715 19103
L25488 18921
" />
<path d="M29768 16053
L29978 16221
" />
<path d="M28326 15041
L28529 15170
" />
<path d="M25488 18921
L25261 18743
" />
<path d="M27709 20946
L27492 20725
" />
<path d="M14197 18045
L13982 18237
" />
<path d="M18545 7845
L18847 7910
" />
<path d="M16415 16663
L16188 16759
" />
<path d="M17919 7827
L18224 7817
" />
<path d="M24326 12902
L24505 12999
" />
<path d="M27132 14350
L27328 14457
" />
<path d="M29144 15586
L29351 15736
" />
<path d="M21539 16653
L21304 16575
" />
<path d="M27054 20294
L26834 20085
" />
<path d="M20144 8899
L20287 9136
" />
<path d="M15738 16978
L15515 17101
" />
<path d="M16979 8114
L17172 8017
" />
<path d="M17329 16369
L17099 16429
" />
<path d="M27924 21172
L27709 20946
" />
<path d="M24112 17933
L23880 17787
" />
<path d="M31913 18072
L28351 21633
" />
<path d="M28938 15442
L29144 15586
" />
<path d="M24149 12802
L24326 12902
" />
<path d="M17172 8017
L17393 7933
" />
<path d="M30189 16395
L30401 16577
" />
<path d="M14413 17863
L14197 18045
" />
<path d="M31476 17602
L31694 17832
" />
<path d="M25032 18571
L24803 18403
" />
<path d="M23647 17646
L23415 17512
" />
<path d="M18224 7817
L18545 7845
" />
<path d="M22446 11648
L22610 11781
" />
<path d="M23798 12597
L23973 12701
" />
<path d="M26167 13849
L26358 13946
" />
<path d="M17559 16317
L17329 16369
" />
<path d="M26612 19879
L26389 19679
" />
<path d="M23880 17787
L23647 17646
" />
<path d="M20597 16381
L20362 16330
" />
<path d="M22282 11511
L22446 11648
" />
<path d="M15515 17101
L15292 17234
" />
<path d="M11306 15979
L11306 13684
" />
<path d="M22776 11909
L22943 12033
" />
<path d="M13768 18439
L11306 15979
" />
<path d="M22479 17032
L22244 16928
" />
<path d="M13982 18237
L13768 18439
" />
<path d="M24866 13191
L25048 13285
" />
<path d="M20432 9365
L20579 9585
" />
<path d="M15071 17377
L14850 17529
" />
<path d="M27525 14566
L27724 14679
" />
</g> 
</svg>
