<?xml version="1.0" encoding="UTF-8" standalone="no"?>
<svg
   xmlns:dc="http://purl.org/dc/elements/1.1/"
   xmlns:cc="http://creativecommons.org/ns#"
   xmlns:rdf="http://www.w3.org/1999/02/22-rdf-syntax-ns#"
   xmlns:svg="http://www.w3.org/2000/svg"
   xmlns="http://www.w3.org/2000/svg"
   xmlns:sodipodi="http://sodipodi.sourceforge.net/DTD/sodipodi-0.dtd"
   xmlns:inkscape="http://www.inkscape.org/namespaces/inkscape"
   version="1.1"
   width="13.0886cm"
   height="10.9017cm"
   viewBox="0 0 51530 42920 "
   id="svg808"
   sodipodi:docname="NeuroBytes_Touch_Sensor-brd.svg"
   inkscape:version="0.92.3 (2405546, 2018-03-11)">
  <metadata
     id="metadata814">
    <rdf:RDF>
      <cc:Work
         rdf:about="">
        <dc:format>image/svg+xml</dc:format>
        <dc:type
           rdf:resource="http://purl.org/dc/dcmitype/StillImage" />
      </cc:Work>
    </rdf:RDF>
  </metadata>
  <defs
     id="defs812" />
  <sodipodi:namedview
     pagecolor="#ffffff"
     bordercolor="#666666"
     borderopacity="1"
     objecttolerance="10"
     gridtolerance="10"
     guidetolerance="10"
     inkscape:pageopacity="0"
     inkscape:pageshadow="2"
     inkscape:window-width="1366"
     inkscape:window-height="713"
     id="namedview810"
     showgrid="false"
     inkscape:zoom="2.045737"
     inkscape:cx="252.23184"
     inkscape:cy="251.83157"
     inkscape:window-x="0"
     inkscape:window-y="0"
     inkscape:window-maximized="1"
     inkscape:current-layer="svg808" />
  <title
     id="title2">SVG Picture created as NeuroBytes_Touch_Sensor-brd.svg date 2018/08/06 16:24:14 </title>
  <desc
     id="desc4">Picture generated by PCBNEW </desc>
  <g
     style="fill:#000000; fill-opacity:1;stroke:#000000; stroke-opacity:1; stroke-linecap:round; stroke-linejoin:round; "
     transform="translate(0 0) scale(1 1)"
     id="g6" />
  <g
     style="fill:#000000; fill-opacity:0.0;  stroke:#000000; stroke-width:-0.000393701; stroke-opacity:1;  stroke-linecap:round; stroke-linejoin:round;"
     id="g8" />
  <g
     style="fill:#840000; fill-opacity:0.0;  stroke:#840000; stroke-width:-0.000393701; stroke-opacity:1;  stroke-linecap:round; stroke-linejoin:round;"
     id="g10" />
  <g
     style="fill:#840000; fill-opacity:0.0;  stroke:#840000; stroke-width:39.3701; stroke-opacity:1;  stroke-linecap:round; stroke-linejoin:round;"
     id="g28">
    <path
       d="M28420 16699 L28643 16476 "
       id="path12" />
    <path
       d="M28865 17145 L28420 16699 "
       id="path14" />
    <path
       d="M29088 16922 L28865 17145 "
       id="path16" />
    <path
       d="M28643 16476 L29088 16922 "
       id="path18" />
    <path
       d="M27710 18300 L27487 18523 "
       id="path20" />
    <path
       d="M27265 17854 L27710 18300 "
       id="path22" />
    <path
       d="M27042 18077 L27265 17854 "
       id="path24" />
    <path
       d="M27487 18523 L27042 18077 "
       id="path26" />
  </g>
  <g
     style="fill:#840000; fill-opacity:0.0;  stroke:#840000; stroke-width:59.0551; stroke-opacity:1;  stroke-linecap:round; stroke-linejoin:round;"
     id="g102">
    <path
       d="M17238 14055 L17238 13858 "
       id="path30" />
    <path
       d="M17632 14055 L17238 14055 "
       id="path32" />
    <path
       d="M17632 13858 L17632 14055 "
       id="path34" />
    <path
       d="M17238 13858 L17632 13858 "
       id="path36" />
    <path
       d="M17238 13661 L17238 13464 "
       id="path38" />
    <path
       d="M17632 13661 L17238 13661 "
       id="path40" />
    <path
       d="M17632 13464 L17632 13661 "
       id="path42" />
    <path
       d="M17238 13464 L17632 13464 "
       id="path44" />
    <path
       d="M19600 11811 L19600 12007 "
       id="path46" />
    <path
       d="M19207 11811 L19600 11811 "
       id="path48" />
    <path
       d="M19207 12007 L19207 11811 "
       id="path50" />
    <path
       d="M19600 12007 L19207 12007 "
       id="path52" />
    <path
       d="M17652 10472 L17848 10472 "
       id="path54" />
    <path
       d="M17652 10866 L17652 10472 "
       id="path56" />
    <path
       d="M17848 10866 L17652 10866 "
       id="path58" />
    <path
       d="M17848 10472 L17848 10866 "
       id="path60" />
    <path
       d="M20919 10472 L21116 10472 "
       id="path62" />
    <path
       d="M20919 10866 L20919 10472 "
       id="path64" />
    <path
       d="M21116 10866 L20919 10866 "
       id="path66" />
    <path
       d="M21116 10472 L21116 10866 "
       id="path68" />
    <path
       d="M21234 10944 L21431 10944 "
       id="path70" />
    <path
       d="M21234 11338 L21234 10944 "
       id="path72" />
    <path
       d="M21431 11338 L21234 11338 "
       id="path74" />
    <path
       d="M21431 10944 L21431 11338 "
       id="path76" />
    <path
       d="M18195 12707 L18056 12846 "
       id="path78" />
    <path
       d="M17917 12429 L18195 12707 "
       id="path80" />
    <path
       d="M17777 12568 L17917 12429 "
       id="path82" />
    <path
       d="M18056 12846 L17777 12568 "
       id="path84" />
    <path
       d="M20655 14661 L20852 14661 "
       id="path86" />
    <path
       d="M20655 15055 L20655 14661 "
       id="path88" />
    <path
       d="M20852 15055 L20655 15055 "
       id="path90" />
    <path
       d="M20852 14661 L20852 15055 "
       id="path92" />
    <path
       d="M18053 12292 L18192 12153 "
       id="path94" />
    <path
       d="M18331 12570 L18053 12292 "
       id="path96" />
    <path
       d="M18471 12431 L18331 12570 "
       id="path98" />
    <path
       d="M18192 12153 L18471 12431 "
       id="path100" />
  </g>
  <g
     style="fill:#840000; fill-opacity:0.0;  stroke:#840000; stroke-width:39.3701; stroke-opacity:1;  stroke-linecap:round; stroke-linejoin:round;"
     id="g112">
    <path
       d="M20990 14228 L21620 14228 "
       id="path104" />
    <path
       d="M20990 15488 L20990 14228 "
       id="path106" />
    <path
       d="M21620 15488 L20990 15488 "
       id="path108" />
    <path
       d="M21620 14228 L21620 15488 "
       id="path110" />
  </g>
  <path
     style="fill:#840000;fill-opacity:0;stroke:#840000;stroke-width:59.05509949;stroke-linecap:round;stroke-linejoin:round;stroke-opacity:1"
     inkscape:connector-curvature="0"
     id="path114"
     d="m 26786,14768 -351,-179 68,-133 34,-25 25,-8 h 42 l 50,25 25,34 9,25 -1,42 -68,134" />
  <path
     style="fill:#840000;fill-opacity:0;stroke:#840000;stroke-width:59.05509949;stroke-linecap:round;stroke-linejoin:round;stroke-opacity:1"
     inkscape:connector-curvature="0"
     id="path116"
     d="m 27059,14233 -103,201" />
  <path
     style="fill:#840000;fill-opacity:0;stroke:#840000;stroke-width:59.05509949;stroke-linecap:round;stroke-linejoin:round;stroke-opacity:1"
     inkscape:connector-curvature="0"
     id="path118"
     d="m 27007,14334 -350,-179 33,59 16,50 v 42" />
  <path
     style="fill:#840000;fill-opacity:0;stroke:#840000;stroke-width:59.05509949;stroke-linecap:round;stroke-linejoin:round;stroke-opacity:1"
     inkscape:connector-curvature="0"
     id="path120"
     d="m 19113,9390 v -393 h 94 l 56,18 37,38 19,37 19,75 v 56 l -19,75 -19,38 -37,37 -56,19 h -94" />
  <path
     style="fill:#840000;fill-opacity:0;stroke:#840000;stroke-width:59.05509949;stroke-linecap:round;stroke-linejoin:round;stroke-opacity:1"
     inkscape:connector-curvature="0"
     id="path122"
     d="m 19713,9390 h -225" />
  <path
     style="fill:#840000;fill-opacity:0;stroke:#840000;stroke-width:59.05509949;stroke-linecap:round;stroke-linejoin:round;stroke-opacity:1"
     inkscape:connector-curvature="0"
     id="path124"
     d="m 19600,9390 v -393 l -37,56 -38,37 -37,19" />
  <path
     style="fill:#840000;fill-opacity:0;stroke:#840000;stroke-width:59.05509949;stroke-linecap:round;stroke-linejoin:round;stroke-opacity:1"
     inkscape:connector-curvature="0"
     id="path126"
     d="m 19104,13544 v 318 l 18,38 19,19 38,18 h 75 l 37,-18 19,-19 19,-38 v -318" />
  <path
     style="fill:#840000;fill-opacity:0;stroke:#840000;stroke-width:59.05509949;stroke-linecap:round;stroke-linejoin:round;stroke-opacity:1"
     inkscape:connector-curvature="0"
     id="path128"
     d="m 19722,13937 h -225" />
  <path
     style="fill:#840000;fill-opacity:0;stroke:#840000;stroke-width:59.05509949;stroke-linecap:round;stroke-linejoin:round;stroke-opacity:1"
     inkscape:connector-curvature="0"
     id="path130"
     d="m 19610,13937 v -393 l -38,56 -37,37 -38,19" />
  <path
     style="fill:#840000;fill-opacity:0;stroke:#840000;stroke-width:59.05509949;stroke-linecap:round;stroke-linejoin:round;stroke-opacity:1"
     inkscape:connector-curvature="0"
     id="path132"
     d="m 31871,21104 56,18 h 94 l 37,-18 19,-19 19,-38 v -37 l -19,-37 -19,-19 -37,-19 -75,-19 -38,-18 -19,-19 -18,-38 v -37 l 18,-38 19,-18 38,-19 h 93 l 57,19" />
  <path
     style="fill:#840000;fill-opacity:0;stroke:#840000;stroke-width:59.05509949;stroke-linecap:round;stroke-linejoin:round;stroke-opacity:1"
     inkscape:connector-curvature="0"
     id="path134"
     d="m 32227,20729 94,393 75,-281 75,281 93,-393" />
  <path
     style="fill:#840000;fill-opacity:0;stroke:#840000;stroke-width:59.05509949;stroke-linecap:round;stroke-linejoin:round;stroke-opacity:1"
     inkscape:connector-curvature="0"
     id="path136"
     d="m 32696,20766 18,-18 38,-19 h 94 l 37,19 19,18 19,38 v 37 l -19,57 -225,224 h 244" />
  <path
     style="fill:#840000;fill-opacity:0;stroke:#840000;stroke-width:59.05509949;stroke-linecap:round;stroke-linejoin:round;stroke-opacity:1"
     inkscape:connector-curvature="0"
     id="path138"
     d="m 14237,16953 -278,-278 106,-106 40,-14 h 26 l 40,14 40,39 13,40 v 27 l -13,39 -106,106" />
  <path
     style="fill:#840000;fill-opacity:0;stroke:#840000;stroke-width:59.05509949;stroke-linecap:round;stroke-linejoin:round;stroke-opacity:1"
     inkscape:connector-curvature="0"
     id="path140"
     d="m 14211,16423 185,-186 160,398" />
  <path
     style="fill:#840000;fill-opacity:0;stroke:#840000;stroke-width:59.05509949;stroke-linecap:round;stroke-linejoin:round;stroke-opacity:1"
     inkscape:connector-curvature="0"
     id="path142"
     d="m 13995,12983 279,-278 106,106 13,39 v 27 l -13,40 -40,39 -40,14 h -26 l -40,-14 -106,-106" />
  <path
     style="fill:#840000;fill-opacity:0;stroke:#840000;stroke-width:59.05509949;stroke-linecap:round;stroke-linejoin:round;stroke-opacity:1"
     inkscape:connector-curvature="0"
     id="path144"
     d="m 14671,13102 -53,-53 -39,-13 h -27 l -66,13 -66,40 -107,106 -13,40 v 26 l 13,40 54,53 39,13 h 27 l 40,-13 66,-66 13,-40 v -26 l -13,-40 -53,-53 -40,-13 h -26 l -40,13" />
  <path
     style="fill:#840000;fill-opacity:0;stroke:#840000;stroke-width:59.05509949;stroke-linecap:round;stroke-linejoin:round;stroke-opacity:1"
     inkscape:connector-curvature="0"
     id="path146"
     d="m 28956,16516 h -26 l -53,-27 -27,-26 -26,-53 v -54 l 13,-39 40,-67 39,-39 67,-40 39,-13 h 53 l 53,26 27,27 26,53 v 26" />
  <path
     style="fill:#840000;fill-opacity:0;stroke:#840000;stroke-width:59.05509949;stroke-linecap:round;stroke-linejoin:round;stroke-opacity:1"
     inkscape:connector-curvature="0"
     id="path148"
     d="m 29195,16807 -159,-159" />
  <path
     style="fill:#840000;fill-opacity:0;stroke:#840000;stroke-width:59.05509949;stroke-linecap:round;stroke-linejoin:round;stroke-opacity:1"
     inkscape:connector-curvature="0"
     id="path150"
     d="m 29115,16728 279,-279 -67,14 h -53 l -40,-14" />
  <path
     style="fill:#840000;fill-opacity:0;stroke:#840000;stroke-width:59.05509949;stroke-linecap:round;stroke-linejoin:round;stroke-opacity:1"
     inkscape:connector-curvature="0"
     id="path152"
     d="m 26882,18589 h -26 l -53,-26 -27,-27 -26,-53 v -53 l 13,-39 40,-67 39,-39 67,-40 39,-13 h 53 l 53,26 27,27 27,53 v 26" />
  <path
     style="fill:#840000;fill-opacity:0;stroke:#840000;stroke-width:59.05509949;stroke-linecap:round;stroke-linejoin:round;stroke-opacity:1"
     inkscape:connector-curvature="0"
     id="path154"
     d="m 27280,18669 -186,186" />
  <path
     style="fill:#840000;fill-opacity:0;stroke:#840000;stroke-width:59.05509949;stroke-linecap:round;stroke-linejoin:round;stroke-opacity:1"
     inkscape:connector-curvature="0"
     id="path156"
     d="m 27320,18497 -266,132 173,173" />
  <path
     style="fill:#840000;fill-opacity:0;stroke:#840000;stroke-width:59.05509949;stroke-linecap:round;stroke-linejoin:round;stroke-opacity:1"
     inkscape:connector-curvature="0"
     id="path158"
     d="m 16673,14248 -132,-187" />
  <path
     style="fill:#840000;fill-opacity:0;stroke:#840000;stroke-width:59.05509949;stroke-linecap:round;stroke-linejoin:round;stroke-opacity:1"
     inkscape:connector-curvature="0"
     id="path160"
     d="m 16448,14248 v -393 h 150 l 37,19 19,18 19,38 v 56 l -19,37 -19,19 -37,19 h -150" />
  <path
     style="fill:#840000;fill-opacity:0;stroke:#840000;stroke-width:59.05509949;stroke-linecap:round;stroke-linejoin:round;stroke-opacity:1"
     inkscape:connector-curvature="0"
     id="path162"
     d="m 16804,13855 h 262 l -168,393" />
  <path
     style="fill:#840000;fill-opacity:0;stroke:#840000;stroke-width:59.05509949;stroke-linecap:round;stroke-linejoin:round;stroke-opacity:1"
     inkscape:connector-curvature="0"
     id="path164"
     d="m 16673,13697 -132,-187" />
  <path
     style="fill:#840000;fill-opacity:0;stroke:#840000;stroke-width:59.05509949;stroke-linecap:round;stroke-linejoin:round;stroke-opacity:1"
     inkscape:connector-curvature="0"
     id="path166"
     d="m 16448,13697 v -393 h 150 l 37,18 19,19 19,38 v 56 l -19,37 -19,19 -37,19 h -150" />
  <path
     style="fill:#840000;fill-opacity:0;stroke:#840000;stroke-width:59.05509949;stroke-linecap:round;stroke-linejoin:round;stroke-opacity:1"
     inkscape:connector-curvature="0"
     id="path168"
     d="m 17010,13304 h -75 l -37,18 -19,19 -38,56 -18,75 v 150 l 18,38 19,19 38,18 h 75 l 37,-18 19,-19 18,-38 v -93 l -18,-38 -19,-19 -37,-18 h -75 l -38,18 -19,19 -18,38" />
  <path
     style="fill:#840000;fill-opacity:0;stroke:#840000;stroke-width:59.05509949;stroke-linecap:round;stroke-linejoin:round;stroke-opacity:1"
     inkscape:connector-curvature="0"
     id="path170"
     d="m 19350,11729 -132,-188" />
  <path
     style="fill:#840000;fill-opacity:0;stroke:#840000;stroke-width:59.05509949;stroke-linecap:round;stroke-linejoin:round;stroke-opacity:1"
     inkscape:connector-curvature="0"
     id="path172"
     d="m 19125,11729 v -394 h 150 l 37,19 19,19 19,37 v 56 l -19,38 -19,19 -37,18 h -150" />
  <path
     style="fill:#840000;fill-opacity:0;stroke:#840000;stroke-width:59.05509949;stroke-linecap:round;stroke-linejoin:round;stroke-opacity:1"
     inkscape:connector-curvature="0"
     id="path174"
     d="m 19706,11335 h -188 l -18,188 18,-19 38,-19 h 94 l 37,19 19,19 19,37 v 94 l -19,37 -19,19 -37,19 h -94 l -38,-19 -18,-19" />
  <path
     style="fill:#840000;fill-opacity:0;stroke:#840000;stroke-width:59.05509949;stroke-linecap:round;stroke-linejoin:round;stroke-opacity:1"
     inkscape:connector-curvature="0"
     id="path176"
     d="m 17584,11170 187,-131" />
  <path
     style="fill:#840000;fill-opacity:0;stroke:#840000;stroke-width:59.05509949;stroke-linecap:round;stroke-linejoin:round;stroke-opacity:1"
     inkscape:connector-curvature="0"
     id="path178"
     d="m 17584,10945 h 393 v 150 l -18,38 -19,18 -38,19 h -56 l -37,-19 -19,-18 -19,-38 v -150" />
  <path
     style="fill:#840000;fill-opacity:0;stroke:#840000;stroke-width:59.05509949;stroke-linecap:round;stroke-linejoin:round;stroke-opacity:1"
     inkscape:connector-curvature="0"
     id="path180"
     d="m 17977,11301 v 244 l -150,-131 v 56 l -18,38 -19,18 -38,19 h -93 l -38,-19 -19,-18 -18,-38 v -112 l 18,-38 19,-19" />
  <path
     style="fill:#840000;fill-opacity:0;stroke:#840000;stroke-width:59.05509949;stroke-linecap:round;stroke-linejoin:round;stroke-opacity:1"
     inkscape:connector-curvature="0"
     id="path182"
     d="m 20418,10603 188,-131" />
  <path
     style="fill:#840000;fill-opacity:0;stroke:#840000;stroke-width:59.05509949;stroke-linecap:round;stroke-linejoin:round;stroke-opacity:1"
     inkscape:connector-curvature="0"
     id="path184"
     d="m 20418,10378 h 394 v 150 l -19,38 -18,18 -38,19 h -56 l -38,-19 -18,-18 -19,-38 v -150" />
  <path
     style="fill:#840000;fill-opacity:0;stroke:#840000;stroke-width:59.05509949;stroke-linecap:round;stroke-linejoin:round;stroke-opacity:1"
     inkscape:connector-curvature="0"
     id="path186"
     d="m 20775,10753 18,19 19,37 v 94 l -19,38 -18,18 -38,19 h -37 l -57,-19 -225,-225 v 244" />
  <path
     style="fill:#840000;fill-opacity:0;stroke:#840000;stroke-width:59.05509949;stroke-linecap:round;stroke-linejoin:round;stroke-opacity:1"
     inkscape:connector-curvature="0"
     id="path188"
     d="m 21521,11091 187,-131" />
  <path
     style="fill:#840000;fill-opacity:0;stroke:#840000;stroke-width:59.05509949;stroke-linecap:round;stroke-linejoin:round;stroke-opacity:1"
     inkscape:connector-curvature="0"
     id="path190"
     d="m 21521,10866 h 393 v 150 l -18,38 -19,19 -38,18 h -56 l -37,-18 -19,-19 -19,-38 v -150" />
  <path
     style="fill:#840000;fill-opacity:0;stroke:#840000;stroke-width:59.05509949;stroke-linecap:round;stroke-linejoin:round;stroke-opacity:1"
     inkscape:connector-curvature="0"
     id="path192"
     d="m 21521,11466 v -225" />
  <path
     style="fill:#840000;fill-opacity:0;stroke:#840000;stroke-width:59.05509949;stroke-linecap:round;stroke-linejoin:round;stroke-opacity:1"
     inkscape:connector-curvature="0"
     id="path194"
     d="m 21521,11354 h 393 l -56,-38 -37,-37 -19,-38" />
  <path
     style="fill:#840000;fill-opacity:0;stroke:#840000;stroke-width:59.05509949;stroke-linecap:round;stroke-linejoin:round;stroke-opacity:1"
     inkscape:connector-curvature="0"
     id="path196"
     d="m 17537,13021 h -26 l -53,-26 -27,-27 -26,-53 v -53 l 13,-40 40,-66 39,-40 67,-40 40,-13 h 53 l 53,27 26,26 27,53 v 27" />
  <path
     style="fill:#840000;fill-opacity:0;stroke:#840000;stroke-width:59.05509949;stroke-linecap:round;stroke-linejoin:round;stroke-opacity:1"
     inkscape:connector-curvature="0"
     id="path198"
     d="m 18041,13021 -133,-133 -145,120 h 26 l 40,13 66,66 13,40 v 27 l -13,39 -66,67 -40,13 h -26 l -40,-13 -66,-67 -14,-39 v -27" />
  <path
     style="fill:#840000;fill-opacity:0;stroke:#840000;stroke-width:59.05509949;stroke-linecap:round;stroke-linejoin:round;stroke-opacity:1"
     inkscape:connector-curvature="0"
     id="path200"
     d="m 20121,14792 -19,-19 -18,-56 v -37 l 18,-57 38,-37 37,-19 75,-19 h 57 l 75,19 37,19 38,37 18,57 v 37 l -18,56 -19,19" />
  <path
     style="fill:#840000;fill-opacity:0;stroke:#840000;stroke-width:59.05509949;stroke-linecap:round;stroke-linejoin:round;stroke-opacity:1"
     inkscape:connector-curvature="0"
     id="path202"
     d="m 20477,14923 v 244 l -150,-131 v 56 l -18,38 -19,18 -38,19 h -93 l -38,-19 -19,-18 -18,-38 v -112 l 18,-38 19,-19" />
  <path
     style="fill:#840000;fill-opacity:0;stroke:#840000;stroke-width:59.05509949;stroke-linecap:round;stroke-linejoin:round;stroke-opacity:1"
     inkscape:connector-curvature="0"
     id="path204"
     d="m 18377,12181 40,-225" />
  <path
     style="fill:#840000;fill-opacity:0;stroke:#840000;stroke-width:59.05509949;stroke-linecap:round;stroke-linejoin:round;stroke-opacity:1"
     inkscape:connector-curvature="0"
     id="path206"
     d="m 18218,12022 278,-278 106,106 13,40 v 26 l -13,40 -40,40 -39,13 h -27 l -40,-13 -106,-106" />
  <path
     style="fill:#840000;fill-opacity:0;stroke:#840000;stroke-width:59.05509949;stroke-linecap:round;stroke-linejoin:round;stroke-opacity:1"
     inkscape:connector-curvature="0"
     id="path208"
     d="m 18801,12234 -186,186" />
  <path
     style="fill:#840000;fill-opacity:0;stroke:#840000;stroke-width:59.05509949;stroke-linecap:round;stroke-linejoin:round;stroke-opacity:1"
     inkscape:connector-curvature="0"
     id="path210"
     d="m 18841,12062 -265,133 172,172" />
  <path
     style="fill:#840000;fill-opacity:0;stroke:#840000;stroke-width:59.05509949;stroke-linecap:round;stroke-linejoin:round;stroke-opacity:1"
     inkscape:connector-curvature="0"
     id="path212"
     d="m 16768,10865 -38,-19 -37,-38 -57,-56 -37,-19 h -38" />
  <path
     style="fill:#840000;fill-opacity:0;stroke:#840000;stroke-width:59.05509949;stroke-linecap:round;stroke-linejoin:round;stroke-opacity:1"
     inkscape:connector-curvature="0"
     id="path214"
     d="m 16580,10827 -37,-19 -38,-37 -19,-75 v -131 l 19,-75 38,-38 37,-18 h 75 l 38,18 37,38 19,75 v 131 l -19,75 -37,37 -38,19 h -75" />
  <path
     style="fill:#840000;fill-opacity:0;stroke:#840000;stroke-width:59.05509949;stroke-linecap:round;stroke-linejoin:round;stroke-opacity:1"
     inkscape:connector-curvature="0"
     id="path216"
     d="m 16880,10434 h 244 l -131,149 h 56 l 37,19 19,19 19,37 v 94 l -19,38 -19,18 -37,19 h -113 l -37,-19 -19,-18" />
  <path
     style="fill:#840000;fill-opacity:0;stroke:#840000;stroke-width:59.05509949;stroke-linecap:round;stroke-linejoin:round;stroke-opacity:1"
     inkscape:connector-curvature="0"
     id="path218"
     d="m 16768,12479 -38,-19 -37,-37 -57,-57 -37,-18 h -38" />
  <path
     style="fill:#840000;fill-opacity:0;stroke:#840000;stroke-width:59.05509949;stroke-linecap:round;stroke-linejoin:round;stroke-opacity:1"
     inkscape:connector-curvature="0"
     id="path220"
     d="m 16580,12441 -37,-18 -38,-38 -19,-75 v -131 l 19,-75 38,-38 37,-18 h 75 l 38,18 37,38 19,75 v 131 l -19,75 -37,38 -38,18 h -75" />
  <path
     style="fill:#840000;fill-opacity:0;stroke:#840000;stroke-width:59.05509949;stroke-linecap:round;stroke-linejoin:round;stroke-opacity:1"
     inkscape:connector-curvature="0"
     id="path222"
     d="m 16899,12085 19,-19 37,-18 h 94 l 37,18 19,19 19,38 v 37 l -19,56 -225,225 h 244" />
  <path
     style="fill:#840000;fill-opacity:0;stroke:#840000;stroke-width:59.05509949;stroke-linecap:round;stroke-linejoin:round;stroke-opacity:1"
     inkscape:connector-curvature="0"
     id="path224"
     d="m 20487,11871 19,-37 37,-38 57,-56 18,-37 v -38" />
  <path
     style="fill:#840000;fill-opacity:0;stroke:#840000;stroke-width:59.05509949;stroke-linecap:round;stroke-linejoin:round;stroke-opacity:1"
     inkscape:connector-curvature="0"
     id="path226"
     d="m 20525,11684 18,-38 38,-37 75,-19 h 131 l 75,19 38,37 18,38 v 75 l -18,37 -38,38 -75,19 h -131 l -75,-19 -38,-38 -18,-37 v -75" />
  <path
     style="fill:#840000;fill-opacity:0;stroke:#840000;stroke-width:59.05509949;stroke-linecap:round;stroke-linejoin:round;stroke-opacity:1"
     inkscape:connector-curvature="0"
     id="path228"
     d="m 20525,12228 v -225" />
  <path
     style="fill:#840000;fill-opacity:0;stroke:#840000;stroke-width:59.05509949;stroke-linecap:round;stroke-linejoin:round;stroke-opacity:1"
     inkscape:connector-curvature="0"
     id="path230"
     d="m 20525,12115 h 393 l -56,-37 -37,-38 -19,-37" />
  <g
     id="g1717"
     transform="rotate(90,28085,17493)">
    <path
       d="m 28005,17135 -225,225 -13,40 v 27 l 13,39 53,53 40,14 h 26 l 40,-14 225,-225"
       id="path232"
       inkscape:connector-curvature="0"
       style="fill:#840000;fill-opacity:0;stroke:#840000;stroke-width:59.05509949;stroke-linecap:round;stroke-linejoin:round;stroke-opacity:1" />
    <path
       d="m 28257,17440 h 27 l 39,13 67,66 13,40 v 27 l -13,39 -27,27 -53,26 h -318 l 172,173"
       id="path234"
       inkscape:connector-curvature="0"
       style="fill:#840000;fill-opacity:0;stroke:#840000;stroke-width:59.05509949;stroke-linecap:round;stroke-linejoin:round;stroke-opacity:1" />
  </g>
  <path
     style="fill:#840000;fill-opacity:0;stroke:#840000;stroke-width:59.05509949;stroke-linecap:round;stroke-linejoin:round;stroke-opacity:1"
     inkscape:connector-curvature="0"
     id="path236"
     d="m 21164,14792 -18,-19 -19,-56 v -37 l 19,-57 37,-37 38,-19 75,-19 h 56 l 75,19 37,19 38,37 19,57 v 37 l -19,56 -19,19" />
  <path
     style="fill:#840000;fill-opacity:0;stroke:#840000;stroke-width:59.05509949;stroke-linecap:round;stroke-linejoin:round;stroke-opacity:1"
     inkscape:connector-curvature="0"
     id="path238"
     d="m 21483,14942 19,19 19,37 v 94 l -19,38 -19,18 -37,19 h -38 l -56,-19 -225,-225 v 244" />
  <path
     style="fill:#840000;fill-opacity:0;stroke:#840000;stroke-width:59.05509949;stroke-linecap:round;stroke-linejoin:round;stroke-opacity:1"
     inkscape:connector-curvature="0"
     id="path240"
     d="m 17244,16340 59,2 90,-28 30,-29 13,-23 7,-41 -11,-36 -29,-31 -24,-12 -41,-7 -77,4 -42,-7 -23,-13 -29,-30 -11,-36 7,-41 13,-24 30,-28 90,-28 59,2" />
  <path
     style="fill:#840000;fill-opacity:0;stroke:#840000;stroke-width:59.05509949;stroke-linecap:round;stroke-linejoin:round;stroke-opacity:1"
     inkscape:connector-curvature="0"
     id="path242"
     d="m 17475,15877 205,349 -11,-290 154,247 -25,-404" />
  <path
     style="fill:#840000;fill-opacity:0;stroke:#840000;stroke-width:59.05509949;stroke-linecap:round;stroke-linejoin:round;stroke-opacity:1"
     inkscape:connector-curvature="0"
     id="path244"
     d="m 18253,16051 -215,66" />
  <path
     style="fill:#840000;fill-opacity:0;stroke:#840000;stroke-width:59.05509949;stroke-linecap:round;stroke-linejoin:round;stroke-opacity:1"
     inkscape:connector-curvature="0"
     id="path246"
     d="m 18146,16084 -115,-377 -20,65 -25,47 -30,29" />
  <g
     style="fill:#000000; fill-opacity:0.0;  stroke:#000000; stroke-width:59.0551; stroke-opacity:1;  stroke-linecap:round; stroke-linejoin:round;"
     id="g250" />
  <g
     style="fill:#840084; fill-opacity:0.0;  stroke:#840084; stroke-width:59.0551; stroke-opacity:1;  stroke-linecap:round; stroke-linejoin:round;"
     id="g252" />
  <g
     style="fill:#840084; fill-opacity:0.0;  stroke:#840084; stroke-width:66.9291; stroke-opacity:1;  stroke-linecap:round; stroke-linejoin:round;"
     id="g272">
    <path
       d="M24842 15695 L25057 15274 L25217 15355 L25247 15396 L25257 15426 L25256 15476 L25226 15537 L25185 15566 L25155 15576 L25105 15576 L24944 15494 "
       id="path254" />
    <path
       d="M25558 15529 L25638 15570 L25668 15610 L25688 15671 L25667 15761 L25595 15902 L25534 15971 L25474 15991 L25423 15991 L25343 15950 L25313 15909 L25294 15849 L25315 15759 L25386 15618 L25447 15548 L25507 15529 L25558 15529 "
       id="path256" />
    <path
       d="M25879 15692 L25764 16164 L25998 15905 L25925 16246 L26239 15876 "
       id="path258" />
    <path
       d="M26298 16158 L26438 16230 "
       id="path260" />
    <path
       d="M26386 16481 L26185 16379 L26400 15958 L26600 16060 "
       id="path262" />
    <path
       d="M26807 16695 L26768 16424 "
       id="path264" />
    <path
       d="M26566 16573 L26781 16152 L26941 16234 L26971 16274 L26981 16304 L26980 16355 L26950 16415 L26909 16445 L26879 16455 L26829 16454 L26668 16372 "
       id="path266" />
    <path
       d="M17272 15470 L17133 15018 "
       id="path268" />
    <path
       d="M17487 15404 L17349 14952 L17456 14919 L17527 14921 L17583 14951 L17618 14987 L17666 15067 L17686 15131 L17691 15224 L17682 15274 L17652 15330 L17594 15371 L17487 15404 "
       id="path270" />
  </g>
  <g
     style="fill:#840084; fill-opacity:0.0;  stroke:#840084; stroke-width:59.0551; stroke-opacity:1;  stroke-linecap:round; stroke-linejoin:round;"
     id="g282">
    <path
       d="M25388 12978 L24709 14311 "
       id="path274" />
    <path
       d="M24709 14311 L28059 16018 "
       id="path276" />
    <path
       d="M28059 16018 L28738 14685 "
       id="path278" />
    <path
       d="M28738 14685 L25388 12978 "
       id="path280" />
  </g>
  <g
     style="fill:#840084; fill-opacity:0.0;  stroke:#840084; stroke-width:39.3701; stroke-opacity:1;  stroke-linecap:round; stroke-linejoin:round;"
     id="g294">
    <circle
       cx="20152"
       cy="9448.82"
       r="88.0343"
       id="circle284" />
    <path
       d="M18222 8937 L18222 11299 "
       id="path286" />
    <path
       d="M20585 8937 L18222 8937 "
       id="path288" />
    <path
       d="M20585 11299 L20585 8937 "
       id="path290" />
    <path
       d="M18222 11299 L20585 11299 "
       id="path292" />
  </g>
  <g
     style="fill:#840084; fill-opacity:0.0;  stroke:#840084; stroke-width:59.0551; stroke-opacity:1;  stroke-linecap:round; stroke-linejoin:round;"
     id="g304">
    <path
       d="M18774 10669 L20033 10669 "
       id="path296" />
    <path
       d="M20033 10669 L20033 9566 "
       id="path298" />
    <path
       d="M20033 9566 L18774 9566 "
       id="path300" />
    <path
       d="M18774 9566 L18774 10669 "
       id="path302" />
  </g>
  <g
     style="fill:#840084; fill-opacity:0.0;  stroke:#840084; stroke-width:39.3701; stroke-opacity:1;  stroke-linecap:round; stroke-linejoin:round;"
     id="g316">
    <circle
       cx="19404"
       cy="12507.1"
       r="98.4252"
       id="circle306" />
    <path
       d="M18290 13759 L19404 12646 "
       id="path308" />
    <path
       d="M19404 14873 L18290 13759 "
       id="path310" />
    <path
       d="M20517 13759 L19404 14873 "
       id="path312" />
    <path
       d="M19404 12646 L20517 13759 "
       id="path314" />
  </g>
  <g
     style="fill:#840084; fill-opacity:0.0;  stroke:#840084; stroke-width:59.0551; stroke-opacity:1;  stroke-linecap:round; stroke-linejoin:round;"
     id="g338">
    <path
       d="M32335.6 18768.6 A1074.59 1074.59 0.0 0 0 33048.8 18078.5 "
       id="path318" />
    <path
       d="M30887 17320 L32335 18768 "
       id="path320" />
    <path
       d="M14943 18306 L16001 17248 "
       id="path322" />
    <path
       d="M16001 17248 L13691 14937 "
       id="path324" />
    <path
       d="M13691 14937 L12633 15995 "
       id="path326" />
    <path
       d="M12633 15995 L14943 18306 "
       id="path328" />
    <path
       d="M12643 13689 L13700 14747 "
       id="path330" />
    <path
       d="M13700 14747 L16011 12436 "
       id="path332" />
    <path
       d="M16011 12436 L14953 11378 "
       id="path334" />
    <path
       d="M14953 11378 L12643 13689 "
       id="path336" />
  </g>
  <g
     style="fill:#840084; fill-opacity:0.0;  stroke:#840084; stroke-width:47.2441; stroke-opacity:1;  stroke-linecap:round; stroke-linejoin:round;"
     id="g348">
    <path
       d="M28824 16546 L29018 16741 "
       id="path340" />
    <path
       d="M28684 17075 L28489 16880 "
       id="path342" />
    <path
       d="M27306 18453 L27111 18258 "
       id="path344" />
    <path
       d="M27446 17924 L27640 18119 "
       id="path346" />
  </g>
  <circle
     style="fill:#840084;fill-opacity:0;stroke:#840084;stroke-width:59.05509949;stroke-linecap:round;stroke-linejoin:round;stroke-opacity:1"
     id="circle350"
     r="98.425201"
     cy="11043.3"
     cx="16116.6" />
  <path
     style="fill:#840084;fill-opacity:0;stroke:#840084;stroke-width:59.05509949;stroke-linecap:round;stroke-linejoin:round;stroke-opacity:1"
     inkscape:connector-curvature="0"
     id="path352"
     d="m 17396,10354 v 590" />
  <path
     style="fill:#840084;fill-opacity:0;stroke:#840084;stroke-width:59.05509949;stroke-linecap:round;stroke-linejoin:round;stroke-opacity:1"
     inkscape:connector-curvature="0"
     id="path354"
     d="m 16215,10354 h 1181" />
  <path
     style="fill:#840084;fill-opacity:0;stroke:#840084;stroke-width:59.05509949;stroke-linecap:round;stroke-linejoin:round;stroke-opacity:1"
     inkscape:connector-curvature="0"
     id="path356"
     d="m 16215,10944 v -590" />
  <path
     style="fill:#840084;fill-opacity:0;stroke:#840084;stroke-width:59.05509949;stroke-linecap:round;stroke-linejoin:round;stroke-opacity:1"
     inkscape:connector-curvature="0"
     id="path358"
     d="M 17396,10944 H 16215" />
  <circle
     style="fill:#840084;fill-opacity:0;stroke:#840084;stroke-width:59.05509949;stroke-linecap:round;stroke-linejoin:round;stroke-opacity:1"
     id="circle360"
     r="98.425201"
     cy="12657.5"
     cx="16116.6" />
  <path
     style="fill:#840084;fill-opacity:0;stroke:#840084;stroke-width:59.05509949;stroke-linecap:round;stroke-linejoin:round;stroke-opacity:1"
     inkscape:connector-curvature="0"
     id="path362"
     d="m 17396,11968 v 591" />
  <path
     style="fill:#840084;fill-opacity:0;stroke:#840084;stroke-width:59.05509949;stroke-linecap:round;stroke-linejoin:round;stroke-opacity:1"
     inkscape:connector-curvature="0"
     id="path364"
     d="m 16215,11968 h 1181" />
  <path
     style="fill:#840084;fill-opacity:0;stroke:#840084;stroke-width:59.05509949;stroke-linecap:round;stroke-linejoin:round;stroke-opacity:1"
     inkscape:connector-curvature="0"
     id="path366"
     d="m 16215,12559 v -591" />
  <path
     style="fill:#840084;fill-opacity:0;stroke:#840084;stroke-width:59.05509949;stroke-linecap:round;stroke-linejoin:round;stroke-opacity:1"
     inkscape:connector-curvature="0"
     id="path368"
     d="M 17396,12559 H 16215" />
  <circle
     style="fill:#840084;fill-opacity:0;stroke:#840084;stroke-width:59.05509949;stroke-linecap:round;stroke-linejoin:round;stroke-opacity:1"
     id="circle370"
     r="98.425201"
     cy="11220.5"
     cx="20309.5" />
  <path
     style="fill:#840084;fill-opacity:0;stroke:#840084;stroke-width:59.05509949;stroke-linecap:round;stroke-linejoin:round;stroke-opacity:1"
     inkscape:connector-curvature="0"
     id="path372"
     d="m 20998,12500 h -591" />
  <path
     style="fill:#840084;fill-opacity:0;stroke:#840084;stroke-width:59.05509949;stroke-linecap:round;stroke-linejoin:round;stroke-opacity:1"
     inkscape:connector-curvature="0"
     id="path374"
     d="m 20998,11318 v 1182" />
  <path
     style="fill:#840084;fill-opacity:0;stroke:#840084;stroke-width:59.05509949;stroke-linecap:round;stroke-linejoin:round;stroke-opacity:1"
     inkscape:connector-curvature="0"
     id="path376"
     d="m 20407,11318 h 591" />
  <path
     style="fill:#840084;fill-opacity:0;stroke:#840084;stroke-width:59.05509949;stroke-linecap:round;stroke-linejoin:round;stroke-opacity:1"
     inkscape:connector-curvature="0"
     id="path378"
     d="M 20407,12500 V 11318" />
  <g
     id="g1646"
     transform="rotate(90,28061.255,17499.5)">
    <circle
       cx="27369.5"
       cy="17360.801"
       r="98.425201"
       id="circle380"
       style="fill:#840084;fill-opacity:0;stroke:#840084;stroke-width:59.05509949;stroke-linecap:round;stroke-linejoin:round;stroke-opacity:1" />
    <path
       d="m 27926,16943 -418,417"
       id="path382"
       inkscape:connector-curvature="0"
       style="fill:#840084;fill-opacity:0;stroke:#840084;stroke-width:59.05509949;stroke-linecap:round;stroke-linejoin:round;stroke-opacity:1" />
    <path
       d="m 28622,17639 -696,-696"
       id="path384"
       inkscape:connector-curvature="0"
       style="fill:#840084;fill-opacity:0;stroke:#840084;stroke-width:59.05509949;stroke-linecap:round;stroke-linejoin:round;stroke-opacity:1" />
    <path
       d="m 28204,18056 418,-417"
       id="path386"
       inkscape:connector-curvature="0"
       style="fill:#840084;fill-opacity:0;stroke:#840084;stroke-width:59.05509949;stroke-linecap:round;stroke-linejoin:round;stroke-opacity:1" />
    <path
       d="m 27508,17360 696,696"
       id="path388"
       inkscape:connector-curvature="0"
       style="fill:#840084;fill-opacity:0;stroke:#840084;stroke-width:59.05509949;stroke-linecap:round;stroke-linejoin:round;stroke-opacity:1" />
  </g>
  <g
     style="fill:#840084; fill-opacity:0.0;  stroke:#840084; stroke-width:47.2441; stroke-opacity:1;  stroke-linecap:round; stroke-linejoin:round;"
     id="g396">
    <path
       d="M21707 15251 L21707 14464 "
       id="path392" />
    <path
       d="M20904 14464 L20904 15251 "
       id="path394" />
  </g>
  <g
     style="fill:#840084; fill-opacity:0.0;  stroke:#840084; stroke-width:59.0551; stroke-opacity:1;  stroke-linecap:round; stroke-linejoin:round;"
     id="g406">
    <path
       d="M19155 16083 L18867 15142 "
       id="path398" />
    <path
       d="M18867 15142 L16232 15948 "
       id="path400" />
    <path
       d="M16232 15948 L16520 16889 "
       id="path402" />
    <path
       d="M16520 16889 L19155 16083 "
       id="path404" />
  </g>
  <g
     style="fill:#000000; fill-opacity:0.0;  stroke:#000000; stroke-width:59.0551; stroke-opacity:1;  stroke-linecap:round; stroke-linejoin:round;"
     id="g408" />
  <g
     style="fill:#000084; fill-opacity:0.0;  stroke:#000084; stroke-width:59.0551; stroke-opacity:1;  stroke-linecap:round; stroke-linejoin:round;"
     id="g410" />
  <g
     style="fill:#000084; fill-opacity:0.0;  stroke:#000084; stroke-width:78.7402; stroke-opacity:1;  stroke-linecap:round; stroke-linejoin:round;"
     id="g504">
    <circle
       cx="32632.4"
       cy="19488.2"
       r="317.412"
       id="circle472" />
    <circle
       cx="30939.4"
       cy="21181.1"
       r="314.961"
       id="circle474" />
    <path
       d="M33104 18149 L29561 21692 "
       id="path476" />
    <path
       d="M36411 19724 L36411 19724 "
       id="path478" />
    <path
       d="M33813 22322 L36411 19724 "
       id="path480" />
    <path
       d="M34404 21732.3 A1691.08 1691.08 0.0 0 0 36418.1 19754.9 "
       id="path482" />
    <path
       d="M33380 22322 L33813 22322 "
       id="path484" />
    <path
       d="M32868 22322 L33380 22322 "
       id="path486" />
    <path
       d="M31608 23582 L32868 22322 "
       id="path488" />
    <path
       d="M31451 23425 L31608 23582 "
       id="path490" />
    <path
       d="M32671 22440 L32553 22322 "
       id="path492" />
    <path
       d="M32514 22598 L32671 22440 "
       id="path494" />
    <path
       d="M32396 22480 L32514 22598 "
       id="path496" />
    <path
       d="M34915 19960 L31372 23503 "
       id="path498" />
    <path
       d="M33104 18149 L34915 19960 "
       id="path500" />
    <path
       d="M29561 21692 L31372 23503 "
       id="path502" />
  </g>
  <g
     style="fill:#000000; fill-opacity:0.0;  stroke:#000000; stroke-width:78.7402; stroke-opacity:1;  stroke-linecap:round; stroke-linejoin:round;"
     id="g506" />
  <g
     style="fill:#C2C200; fill-opacity:0.0;  stroke:#C2C200; stroke-width:78.7402; stroke-opacity:1;  stroke-linecap:round; stroke-linejoin:round;"
     id="g508" />
  <g
     style="fill:#C2C200; fill-opacity:0.0;  stroke:#C2C200; stroke-width:39.3701; stroke-opacity:1;  stroke-linecap:round; stroke-linejoin:round;"
     id="g806">
    <path
       d="M22006 10000 L22157 10195 "
       id="path510" />
    <path
       d="M17318 16759 L17093 16864 "
       id="path512" />
    <path
       d="M25473 18084 L25242 17933 "
       id="path514" />
    <path
       d="M32173 17168 L32389 17381 "
       id="path516" />
    <path
       d="M31958 16963 L32173 17168 "
       id="path518" />
    <path
       d="M27295 19482 L27071 19291 "
       id="path520" />
    <path
       d="M28854 14679 L29054 14796 "
       id="path522" />
    <path
       d="M22309 10383 L22462 10564 "
       id="path524" />
    <path
       d="M25103 12701 L25279 12802 "
       id="path526" />
    <path
       d="M22773 10904 L22931 11065 "
       id="path528" />
    <path
       d="M24411 12269 L24582 12381 "
       id="path530" />
    <path
       d="M27108 13754 L27297 13849 "
       id="path532" />
    <path
       d="M28622 20725 L28404 20507 "
       id="path534" />
    <path
       d="M15980 17529 L15761 17691 "
       id="path536" />
    <path
       d="M30689 15891 L30898 16053 "
       id="path538" />
    <path
       d="M17802 8327 L17942 8220 "
       id="path540" />
    <path
       d="M21492 16330 L21257 16287 "
       id="path542" />
    <path
       d="M12436 13684 L17689 8431 "
       id="path544" />
    <path
       d="M25635 12999 L25815 13096 "
       id="path546" />
    <path
       d="M17689 8431 L17802 8327 "
       id="path548" />
    <path
       d="M21257 16287 L21021 16251 "
       id="path550" />
    <path
       d="M20950 8481 L21126 8682 "
       id="path552" />
    <path
       d="M18772 7867 L19049 7827 "
       id="path554" />
    <path
       d="M21021 16251 L20787 16222 "
       id="path556" />
    <path
       d="M22904 16738 L22669 16653 "
       id="path558" />
    <path
       d="M25703 18241 L25473 18084 "
       id="path560" />
    <path
       d="M20513 8141 L20745 8299 "
       id="path562" />
    <path
       d="M19152 16239 L18920 16274 "
       id="path564" />
    <path
       d="M24545 17512 L24311 17383 "
       id="path566" />
    <path
       d="M23139 16830 L22904 16738 "
       id="path568" />
    <path
       d="M21709 9585 L21857 9797 "
       id="path570" />
    <path
       d="M16422 17234 L16201 17377 "
       id="path572" />
    <path
       d="M31108 16221 L31319 16395 "
       id="path574" />
    <path
       d="M23251 11368 L23412 11511 "
       id="path576" />
    <path
       d="M26732 13566 L26920 13660 "
       id="path578" />
    <path
       d="M27964 20085 L27742 19879 "
       id="path580" />
    <path
       d="M20084 16182 L19850 16184 "
       id="path582" />
    <path
       d="M27873 14144 L28067 14246 "
       id="path584" />
    <path
       d="M19850 16184 L19617 16195 "
       id="path586" />
    <path
       d="M22617 10737 L22773 10904 "
       id="path588" />
    <path
       d="M24073 12033 L24241 12153 "
       id="path590" />
    <path
       d="M19977 7910 L20257 8011 "
       id="path592" />
    <path
       d="M28404 20507 L28184 20294 "
       id="path594" />
    <path
       d="M32824 17832 L33043 18072 "
       id="path596" />
    <path
       d="M26362 13379 L26547 13472 "
       id="path598" />
    <path
       d="M32389 17381 L32606 17602 "
       id="path600" />
    <path
       d="M22198 16503 L21963 16438 "
       id="path602" />
    <path
       d="M29254 14917 L29456 15041 "
       id="path604" />
    <path
       d="M26178 13285 L26362 13379 "
       id="path606" />
    <path
       d="M21417 9136 L21562 9365 "
       id="path608" />
    <path
       d="M22434 16575 L22198 16503 "
       id="path610" />
    <path
       d="M20745 8299 L20950 8481 "
       id="path612" />
    <path
       d="M21963 16438 L21727 16381 "
       id="path614" />
    <path
       d="M29481 21633 L29268 21401 "
       id="path616" />
    <path
       d="M23090 11219 L23251 11368 "
       id="path618" />
    <path
       d="M25933 18403 L25703 18241 "
       id="path620" />
    <path
       d="M26391 18743 L26162 18571 "
       id="path622" />
    <path
       d="M17942 8220 L18109 8114 "
       id="path624" />
    <path
       d="M31744 16766 L31958 16963 "
       id="path626" />
    <path
       d="M20787 16222 L20552 16201 "
       id="path628" />
    <path
       d="M17772 16576 L17545 16663 "
       id="path630" />
    <path
       d="M24078 17260 L23844 17143 "
       id="path632" />
    <path
       d="M17093 16864 L16868 16978 "
       id="path634" />
    <path
       d="M21126 8682 L21274 8899 "
       id="path636" />
    <path
       d="M22157 10195 L22309 10383 "
       id="path638" />
    <path
       d="M18523 7933 L18772 7867 "
       id="path640" />
    <path
       d="M27071 19291 L26845 19103 "
       id="path642" />
    <path
       d="M18229 16429 L18000 16498 "
       id="path644" />
    <path
       d="M21857 9797 L22006 10000 "
       id="path646" />
    <path
       d="M23844 17143 L23609 17032 "
       id="path648" />
    <path
       d="M24311 17383 L24078 17260 "
       id="path650" />
    <path
       d="M29659 15170 L29863 15304 "
       id="path652" />
    <path
       d="M26547 13472 L26732 13566 "
       id="path654" />
    <path
       d="M20552 16201 L20318 16188 "
       id="path656" />
    <path
       d="M22462 10564 L22617 10737 "
       id="path658" />
    <path
       d="M19617 16195 L19384 16213 "
       id="path660" />
    <path
       d="M23740 11781 L23906 11909 "
       id="path662" />
    <path
       d="M27488 13946 L27680 14044 "
       id="path664" />
    <path
       d="M24582 12381 L24754 12491 "
       id="path666" />
    <path
       d="M22931 11065 L23090 11219 "
       id="path668" />
    <path
       d="M30481 15736 L30689 15891 "
       id="path670" />
    <path
       d="M15761 17691 L15543 17863 "
       id="path672" />
    <path
       d="M24241 12153 L24411 12269 "
       id="path674" />
    <path
       d="M27519 19679 L27295 19482 "
       id="path676" />
    <path
       d="M31531 16577 L31744 16766 "
       id="path678" />
    <path
       d="M20318 16188 L20084 16182 "
       id="path680" />
    <path
       d="M28458 14457 L28655 14566 "
       id="path682" />
    <path
       d="M19384 16213 L19152 16239 "
       id="path684" />
    <path
       d="M28067 14246 L28262 14350 "
       id="path686" />
    <path
       d="M23374 16928 L23139 16830 "
       id="path688" />
    <path
       d="M29863 15304 L30068 15442 "
       id="path690" />
    <path
       d="M24754 12491 L24928 12597 "
       id="path692" />
    <path
       d="M25815 13096 L25996 13191 "
       id="path694" />
    <path
       d="M26920 13660 L27108 13754 "
       id="path696" />
    <path
       d="M29054 14796 L29254 14917 "
       id="path698" />
    <path
       d="M29268 21401 L29054 21172 "
       id="path700" />
    <path
       d="M18920 16274 L18689 16317 "
       id="path702" />
    <path
       d="M20257 8011 L20513 8141 "
       id="path704" />
    <path
       d="M27680 14044 L27873 14144 "
       id="path706" />
    <path
       d="M18000 16498 L17772 16576 "
       id="path708" />
    <path
       d="M26845 19103 L26618 18921 "
       id="path710" />
    <path
       d="M30898 16053 L31108 16221 "
       id="path712" />
    <path
       d="M29456 15041 L29659 15170 "
       id="path714" />
    <path
       d="M26618 18921 L26391 18743 "
       id="path716" />
    <path
       d="M28839 20946 L28622 20725 "
       id="path718" />
    <path
       d="M15327 18045 L15112 18237 "
       id="path720" />
    <path
       d="M19675 7845 L19977 7910 "
       id="path722" />
    <path
       d="M17545 16663 L17318 16759 "
       id="path724" />
    <path
       d="M19049 7827 L19354 7817 "
       id="path726" />
    <path
       d="M25456 12902 L25635 12999 "
       id="path728" />
    <path
       d="M28262 14350 L28458 14457 "
       id="path730" />
    <path
       d="M30274 15586 L30481 15736 "
       id="path732" />
    <path
       d="M22669 16653 L22434 16575 "
       id="path734" />
    <path
       d="M28184 20294 L27964 20085 "
       id="path736" />
    <path
       d="M21274 8899 L21417 9136 "
       id="path738" />
    <path
       d="M16868 16978 L16645 17101 "
       id="path740" />
    <path
       d="M18109 8114 L18302 8017 "
       id="path742" />
    <path
       d="M18459 16369 L18229 16429 "
       id="path744" />
    <path
       d="M29054 21172 L28839 20946 "
       id="path746" />
    <path
       d="M25242 17933 L25010 17787 "
       id="path748" />
    <path
       d="M33043 18072 L29481 21633 "
       id="path750" />
    <path
       d="M30068 15442 L30274 15586 "
       id="path752" />
    <path
       d="M25279 12802 L25456 12902 "
       id="path754" />
    <path
       d="M18302 8017 L18523 7933 "
       id="path756" />
    <path
       d="M31319 16395 L31531 16577 "
       id="path758" />
    <path
       d="M15543 17863 L15327 18045 "
       id="path760" />
    <path
       d="M32606 17602 L32824 17832 "
       id="path762" />
    <path
       d="M26162 18571 L25933 18403 "
       id="path764" />
    <path
       d="M24777 17646 L24545 17512 "
       id="path766" />
    <path
       d="M19354 7817 L19675 7845 "
       id="path768" />
    <path
       d="M23576 11648 L23740 11781 "
       id="path770" />
    <path
       d="M24928 12597 L25103 12701 "
       id="path772" />
    <path
       d="M27297 13849 L27488 13946 "
       id="path774" />
    <path
       d="M18689 16317 L18459 16369 "
       id="path776" />
    <path
       d="M27742 19879 L27519 19679 "
       id="path778" />
    <path
       d="M25010 17787 L24777 17646 "
       id="path780" />
    <path
       d="M21727 16381 L21492 16330 "
       id="path782" />
    <path
       d="M23412 11511 L23576 11648 "
       id="path784" />
    <path
       d="M16645 17101 L16422 17234 "
       id="path786" />
    <path
       d="M12436 15979 L12436 13684 "
       id="path788" />
    <path
       d="M23906 11909 L24073 12033 "
       id="path790" />
    <path
       d="M14898 18439 L12436 15979 "
       id="path792" />
    <path
       d="M23609 17032 L23374 16928 "
       id="path794" />
    <path
       d="M15112 18237 L14898 18439 "
       id="path796" />
    <path
       d="M25996 13191 L26178 13285 "
       id="path798" />
    <path
       d="M21562 9365 L21709 9585 "
       id="path800" />
    <path
       d="M16201 17377 L15980 17529 "
       id="path802" />
    <path
       d="M28655 14566 L28854 14679 "
       id="path804" />
  </g>
</svg>
