  0
SECTION
  2
HEADER
  9
$ACADVER
  1
AC1014
  9
$HANDSEED
  5
FFFF
  9
$MEASUREMENT
 70
     1
  0
ENDSEC
  0
SECTION
  2
TABLES
  0
TABLE
  2
VPORT
  5
8
330
0
100
AcDbSymbolTable
 70
     4
  0
VPORT
  5
2E
330
8
100
AcDbSymbolTableRecord
100
AcDbViewportTableRecord
  2
*ACTIVE
 70
     0
 10
0.0
 20
0.0
 11
1.0
 21
1.0
 12
210.0
 22
148.5
 13
0.0
 23
0.0
 14
10.0
 24
10.0
 15
10.0
 25
10.0
 16
0.0
 26
0.0
 36
1.0
 17
0.0
 27
0.0
 37
0.0
 40
341.0
 41
1.24
 42
50.0
 43
0.0
 44
0.0
 50
0.0
 51
0.0
 71
     0
 72
   100
 73
     1
 74
     3
 75
     0
 76
     0
 77
     0
 78
     0
  0
ENDTAB
  0
TABLE
  2
LTYPE
  5
5
330
0
100
AcDbSymbolTable
 70
     1
  0
LTYPE
  5
14
330
5
100
AcDbSymbolTableRecord
100
AcDbLinetypeTableRecord
  2
BYBLOCK
 70
     0
  3

 72
    65
 73
     0
 40
0.0
  0
LTYPE
  5
15
330
5
100
AcDbSymbolTableRecord
100
AcDbLinetypeTableRecord
  2
BYLAYER
 70
     0
  3

 72
    65
 73
     0
 40
0.0
  0
LTYPE
  5
16
330
5
100
AcDbSymbolTableRecord
100
AcDbLinetypeTableRecord
  2
CONTINUOUS
 70
     0
  3
Solid line
 72
    65
 73
     0
 40
0.0
  0
ENDTAB
  0
TABLE
  2
LAYER
  5
2
100
AcDbSymbolTable
 70
11
  0
LAYER
  5
50
100
AcDbSymbolTableRecord
100
AcDbLayerTableRecord
  2
0
 70
0
  6
CONTINUOUS
  0
LAYER
  5
51
100
AcDbSymbolTableRecord
100
AcDbLayerTableRecord
  2
background_white
 70
0
  6
CONTINUOUS
  0
LAYER
  5
52
100
AcDbSymbolTableRecord
100
AcDbLayerTableRecord
  2
img
 70
0
  6
CONTINUOUS
  0
LAYER
  5
53
100
AcDbSymbolTableRecord
100
AcDbLayerTableRecord
  2
pads
 70
0
  6
CONTINUOUS
  0
LAYER
  5
54
100
AcDbSymbolTableRecord
100
AcDbLayerTableRecord
  2
copper_large
 70
0
  6
CONTINUOUS
  0
LAYER
  5
55
100
AcDbSymbolTableRecord
100
AcDbLayerTableRecord
  2
silk_large
 70
0
  6
CONTINUOUS
  0
LAYER
  5
56
100
AcDbSymbolTableRecord
100
AcDbLayerTableRecord
  2
guide
 70
0
  6
CONTINUOUS
  0
LAYER
  5
57
100
AcDbSymbolTableRecord
100
AcDbLayerTableRecord
  2
mask
 70
0
  6
CONTINUOUS
  0
LAYER
  5
58
100
AcDbSymbolTableRecord
100
AcDbLayerTableRecord
  2
gear
 70
0
  6
CONTINUOUS
  0
LAYER
  5
59
100
AcDbSymbolTableRecord
100
AcDbLayerTableRecord
  2
outline
 70
0
  6
CONTINUOUS
  0
LAYER
  5
5a
100
AcDbSymbolTableRecord
100
AcDbLayerTableRecord
  2
outline_segments
 70
0
  6
CONTINUOUS
  0
ENDTAB
  0
TABLE
  2
STYLE
  5
3
330
0
100
AcDbSymbolTable
 70
     1
  0
STYLE
  5
11
330
3
100
AcDbSymbolTableRecord
100
AcDbTextStyleTableRecord
  2
STANDARD
 70
     0
 40
0.0
 41
1.0
 50
0.0
 71
     0
 42
2.5
  3
txt
  4

  0
ENDTAB
  0
TABLE
  2
VIEW
  5
6
330
0
100
AcDbSymbolTable
 70
     0
  0
ENDTAB
  0
TABLE
  2
UCS
  5
7
330
0
100
AcDbSymbolTable
 70
     0
  0
ENDTAB
  0
TABLE
  2
APPID
  5
9
330
0
100
AcDbSymbolTable
 70
     2
  0
APPID
  5
12
330
9
100
AcDbSymbolTableRecord
100
AcDbRegAppTableRecord
  2
ACAD
 70
     0
  0
ENDTAB
  0
TABLE
  2
DIMSTYLE
  5
A
330
0
100
AcDbSymbolTable
 70
     1
  0
DIMSTYLE
105
27
330
A
100
AcDbSymbolTableRecord
100
AcDbDimStyleTableRecord
  2
ISO-25
 70
     0
  3

  4

  5

  6

  7

 40
1.0
 41
2.5
 42
0.625
 43
3.75
 44
1.25
 45
0.0
 46
0.0
 47
0.0
 48
0.0
140
2.5
141
2.5
142
0.0
143
0.03937007874016
144
1.0
145
0.0
146
1.0
147
0.625
 71
     0
 72
     0
 73
     0
 74
     0
 75
     0
 76
     0
 77
     1
 78
     8
170
     0
171
     3
172
     1
173
     0
174
     0
175
     0
176
     0
177
     0
178
     0
270
     2
271
     2
272
     2
273
     2
274
     3
340
11
275
     0
280
     0
281
     0
282
     0
283
     0
284
     8
285
     0
286
     0
287
     3
288
     0
  0
ENDTAB
  0
TABLE
  2
BLOCK_RECORD
  5
1
330
0
100
AcDbSymbolTable
 70
     1
  0
BLOCK_RECORD
  5
1F
330
1
100
AcDbSymbolTableRecord
100
AcDbBlockTableRecord
  2
*MODEL_SPACE
  0
BLOCK_RECORD
  5
1B
330
1
100
AcDbSymbolTableRecord
100
AcDbBlockTableRecord
  2
*PAPER_SPACE
  0
ENDTAB
  0
ENDSEC
  0
SECTION
  2
BLOCKS
  0
BLOCK
  5
20
330
1F
100
AcDbEntity
  8
0
100
AcDbBlockBegin
  2
*MODEL_SPACE
 70
     0
 10
0.0
 20
0.0
 30
0.0
  3
*MODEL_SPACE
  1

  0
ENDBLK
  5
21
330
1F
100
AcDbEntity
  8
0
100
AcDbBlockEnd
  0
BLOCK
  5
1C
330
1B
100
AcDbEntity
 67
     1
  8
0
100
AcDbBlockBegin
  2
*PAPER_SPACE
  1

  0
ENDBLK
  5
1D
330
1B
100
AcDbEntity
 67
     1
  8
0
100
AcDbBlockEnd
  0
ENDSEC
  0
SECTION
  2
ENTITIES
  0
LINE
  5
100
100
AcDbEntity
  8
outline_segments
 62
7
100
AcDbLine
 10
106.266417
 20
196.451134
 30
0.0
 11
112.519378
 21
202.700110
 31
0.0
  0
LINE
  5
101
100
AcDbEntity
  8
outline_segments
 62
7
100
AcDbLine
 10
112.519378
 20
202.700110
 30
0.0
 11
112.519195
 21
208.529776
 31
0.0
  0
LINE
  5
102
100
AcDbEntity
  8
outline_segments
 62
7
100
AcDbLine
 10
112.519195
 20
208.529776
 30
0.0
 11
99.177139
 21
221.872687
 31
0.0
  0
LINE
  5
103
100
AcDbEntity
  8
outline_segments
 62
7
100
AcDbLine
 10
99.177139
 20
221.872687
 30
0.0
 11
98.889162
 21
222.136576
 31
0.0
  0
LINE
  5
104
100
AcDbEntity
  8
outline_segments
 62
7
100
AcDbLine
 10
98.889162
 20
222.136576
 30
0.0
 11
98.533915
 21
222.409471
 31
0.0
  0
LINE
  5
105
100
AcDbEntity
  8
outline_segments
 62
7
100
AcDbLine
 10
98.533915
 20
222.409471
 30
0.0
 11
98.110661
 21
222.677015
 31
0.0
  0
LINE
  5
106
100
AcDbEntity
  8
outline_segments
 62
7
100
AcDbLine
 10
98.110661
 20
222.677015
 30
0.0
 11
97.618671
 21
222.924857
 31
0.0
  0
LINE
  5
107
100
AcDbEntity
  8
outline_segments
 62
7
100
AcDbLine
 10
97.618671
 20
222.924857
 30
0.0
 11
97.057204
 21
223.138646
 31
0.0
  0
LINE
  5
108
100
AcDbEntity
  8
outline_segments
 62
7
100
AcDbLine
 10
97.057204
 20
223.138646
 30
0.0
 11
96.425529
 21
223.304022
 31
0.0
  0
LINE
  5
109
100
AcDbEntity
  8
outline_segments
 62
7
100
AcDbLine
 10
96.425529
 20
223.304022
 30
0.0
 11
95.722908
 21
223.406641
 31
0.0
  0
LINE
  5
10a
100
AcDbEntity
  8
outline_segments
 62
7
100
AcDbLine
 10
95.722908
 20
223.406641
 30
0.0
 11
94.948612
 21
223.432154
 31
0.0
  0
LINE
  5
10b
100
AcDbEntity
  8
outline_segments
 62
7
100
AcDbLine
 10
94.948612
 20
223.432154
 30
0.0
 11
94.130921
 21
223.362042
 31
0.0
  0
LINE
  5
10c
100
AcDbEntity
  8
outline_segments
 62
7
100
AcDbLine
 10
94.130921
 20
223.362042
 30
0.0
 11
93.364741
 21
223.195045
 31
0.0
  0
LINE
  5
10d
100
AcDbEntity
  8
outline_segments
 62
7
100
AcDbLine
 10
93.364741
 20
223.195045
 30
0.0
 11
92.654038
 21
222.940551
 31
0.0
  0
LINE
  5
10e
100
AcDbEntity
  8
outline_segments
 62
7
100
AcDbLine
 10
92.654038
 20
222.940551
 30
0.0
 11
92.002774
 21
222.607958
 31
0.0
  0
LINE
  5
10f
100
AcDbEntity
  8
outline_segments
 62
7
100
AcDbLine
 10
92.002774
 20
222.607958
 30
0.0
 11
91.414916
 21
222.206649
 31
0.0
  0
LINE
  5
110
100
AcDbEntity
  8
outline_segments
 62
7
100
AcDbLine
 10
91.414916
 20
222.206649
 30
0.0
 11
90.894425
 21
221.746023
 31
0.0
  0
LINE
  5
111
100
AcDbEntity
  8
outline_segments
 62
7
100
AcDbLine
 10
90.894425
 20
221.746023
 30
0.0
 11
90.445268
 21
221.235469
 31
0.0
  0
LINE
  5
112
100
AcDbEntity
  8
outline_segments
 62
7
100
AcDbLine
 10
90.445268
 20
221.235469
 30
0.0
 11
90.071411
 21
220.684376
 31
0.0
  0
LINE
  5
113
100
AcDbEntity
  8
outline_segments
 62
7
100
AcDbLine
 10
90.071411
 20
220.684376
 30
0.0
 11
89.706820
 21
220.080616
 31
0.0
  0
LINE
  5
114
100
AcDbEntity
  8
outline_segments
 62
7
100
AcDbLine
 10
89.706820
 20
220.080616
 30
0.0
 11
89.338537
 21
219.499814
 31
0.0
  0
LINE
  5
115
100
AcDbEntity
  8
outline_segments
 62
7
100
AcDbLine
 10
89.338537
 20
219.499814
 30
0.0
 11
88.966582
 21
218.941225
 31
0.0
  0
LINE
  5
116
100
AcDbEntity
  8
outline_segments
 62
7
100
AcDbLine
 10
88.966582
 20
218.941225
 30
0.0
 11
88.590978
 21
218.404108
 31
0.0
  0
LINE
  5
117
100
AcDbEntity
  8
outline_segments
 62
7
100
AcDbLine
 10
88.590978
 20
218.404108
 30
0.0
 11
88.211742
 21
217.887723
 31
0.0
  0
LINE
  5
118
100
AcDbEntity
  8
outline_segments
 62
7
100
AcDbLine
 10
88.211742
 20
217.887723
 30
0.0
 11
87.828902
 21
217.391323
 31
0.0
  0
LINE
  5
119
100
AcDbEntity
  8
outline_segments
 62
7
100
AcDbLine
 10
87.828902
 20
217.391323
 30
0.0
 11
87.442475
 21
216.914167
 31
0.0
  0
LINE
  5
11a
100
AcDbEntity
  8
outline_segments
 62
7
100
AcDbLine
 10
87.442475
 20
216.914167
 30
0.0
 11
87.052480
 21
216.455513
 31
0.0
  0
LINE
  5
11b
100
AcDbEntity
  8
outline_segments
 62
7
100
AcDbLine
 10
87.052480
 20
216.455513
 30
0.0
 11
86.658944
 21
216.014617
 31
0.0
  0
LINE
  5
11c
100
AcDbEntity
  8
outline_segments
 62
7
100
AcDbLine
 10
86.658944
 20
216.014617
 30
0.0
 11
86.261885
 21
215.590739
 31
0.0
  0
LINE
  5
11d
100
AcDbEntity
  8
outline_segments
 62
7
100
AcDbLine
 10
86.261885
 20
215.590739
 30
0.0
 11
85.861325
 21
215.183134
 31
0.0
  0
LINE
  5
11e
100
AcDbEntity
  8
outline_segments
 62
7
100
AcDbLine
 10
85.861325
 20
215.183134
 30
0.0
 11
85.457284
 21
214.791060
 31
0.0
  0
LINE
  5
11f
100
AcDbEntity
  8
outline_segments
 62
7
100
AcDbLine
 10
85.457284
 20
214.791060
 30
0.0
 11
85.049783
 21
214.413774
 31
0.0
  0
LINE
  5
120
100
AcDbEntity
  8
outline_segments
 62
7
100
AcDbLine
 10
85.049783
 20
214.413774
 30
0.0
 11
84.638848
 21
214.050534
 31
0.0
  0
LINE
  5
121
100
AcDbEntity
  8
outline_segments
 62
7
100
AcDbLine
 10
84.638848
 20
214.050534
 30
0.0
 11
84.224492
 21
213.700598
 31
0.0
  0
LINE
  5
122
100
AcDbEntity
  8
outline_segments
 62
7
100
AcDbLine
 10
84.224492
 20
213.700598
 30
0.0
 11
83.806744
 21
213.363224
 31
0.0
  0
LINE
  5
123
100
AcDbEntity
  8
outline_segments
 62
7
100
AcDbLine
 10
83.806744
 20
213.363224
 30
0.0
 11
83.385620
 21
213.037667
 31
0.0
  0
LINE
  5
124
100
AcDbEntity
  8
outline_segments
 62
7
100
AcDbLine
 10
83.385620
 20
213.037667
 30
0.0
 11
82.961144
 21
212.723187
 31
0.0
  0
LINE
  5
125
100
AcDbEntity
  8
outline_segments
 62
7
100
AcDbLine
 10
82.961144
 20
212.723187
 30
0.0
 11
82.533335
 21
212.419036
 31
0.0
  0
LINE
  5
126
100
AcDbEntity
  8
outline_segments
 62
7
100
AcDbLine
 10
82.533335
 20
212.419036
 30
0.0
 11
82.102218
 21
212.124478
 31
0.0
  0
LINE
  5
127
100
AcDbEntity
  8
outline_segments
 62
7
100
AcDbLine
 10
82.102218
 20
212.124478
 30
0.0
 11
81.667810
 21
211.838767
 31
0.0
  0
LINE
  5
128
100
AcDbEntity
  8
outline_segments
 62
7
100
AcDbLine
 10
81.667810
 20
211.838767
 30
0.0
 11
81.230134
 21
211.561162
 31
0.0
  0
LINE
  5
129
100
AcDbEntity
  8
outline_segments
 62
7
100
AcDbLine
 10
81.230134
 20
211.561162
 30
0.0
 11
80.789213
 21
211.290920
 31
0.0
  0
LINE
  5
12a
100
AcDbEntity
  8
outline_segments
 62
7
100
AcDbLine
 10
80.789213
 20
211.290920
 30
0.0
 11
80.345063
 21
211.027296
 31
0.0
  0
LINE
  5
12b
100
AcDbEntity
  8
outline_segments
 62
7
100
AcDbLine
 10
80.345063
 20
211.027296
 30
0.0
 11
79.897712
 21
210.769551
 31
0.0
  0
LINE
  5
12c
100
AcDbEntity
  8
outline_segments
 62
7
100
AcDbLine
 10
79.897712
 20
210.769551
 30
0.0
 11
79.447176
 21
210.516940
 31
0.0
  0
LINE
  5
12d
100
AcDbEntity
  8
outline_segments
 62
7
100
AcDbLine
 10
79.447176
 20
210.516940
 30
0.0
 11
78.993478
 21
210.268720
 31
0.0
  0
LINE
  5
12e
100
AcDbEntity
  8
outline_segments
 62
7
100
AcDbLine
 10
78.993478
 20
210.268720
 30
0.0
 11
78.536642
 21
210.024152
 31
0.0
  0
LINE
  5
12f
100
AcDbEntity
  8
outline_segments
 62
7
100
AcDbLine
 10
78.536642
 20
210.024152
 30
0.0
 11
78.076685
 21
209.782488
 31
0.0
  0
LINE
  5
130
100
AcDbEntity
  8
outline_segments
 62
7
100
AcDbLine
 10
78.076685
 20
209.782488
 30
0.0
 11
77.613629
 21
209.542991
 31
0.0
  0
LINE
  5
131
100
AcDbEntity
  8
outline_segments
 62
7
100
AcDbLine
 10
77.613629
 20
209.542991
 30
0.0
 11
77.147496
 21
209.304914
 31
0.0
  0
LINE
  5
132
100
AcDbEntity
  8
outline_segments
 62
7
100
AcDbLine
 10
77.147496
 20
209.304914
 30
0.0
 11
76.678307
 21
209.067517
 31
0.0
  0
LINE
  5
133
100
AcDbEntity
  8
outline_segments
 62
7
100
AcDbLine
 10
76.678307
 20
209.067517
 30
0.0
 11
76.206085
 21
208.830055
 31
0.0
  0
LINE
  5
134
100
AcDbEntity
  8
outline_segments
 62
7
100
AcDbLine
 10
76.206085
 20
208.830055
 30
0.0
 11
75.730851
 21
208.591789
 31
0.0
  0
LINE
  5
135
100
AcDbEntity
  8
outline_segments
 62
7
100
AcDbLine
 10
75.730851
 20
208.591789
 30
0.0
 11
75.252622
 21
208.351974
 31
0.0
  0
LINE
  5
136
100
AcDbEntity
  8
outline_segments
 62
7
100
AcDbLine
 10
75.252622
 20
208.351974
 30
0.0
 11
74.771422
 21
208.109866
 31
0.0
  0
LINE
  5
137
100
AcDbEntity
  8
outline_segments
 62
7
100
AcDbLine
 10
74.771422
 20
208.109866
 30
0.0
 11
74.287273
 21
207.864725
 31
0.0
  0
LINE
  5
138
100
AcDbEntity
  8
outline_segments
 62
7
100
AcDbLine
 10
74.287273
 20
207.864725
 30
0.0
 11
73.800197
 21
207.615808
 31
0.0
  0
LINE
  5
139
100
AcDbEntity
  8
outline_segments
 62
7
100
AcDbLine
 10
73.800197
 20
207.615808
 30
0.0
 11
73.310214
 21
207.362370
 31
0.0
  0
LINE
  5
13a
100
AcDbEntity
  8
outline_segments
 62
7
100
AcDbLine
 10
73.310214
 20
207.362370
 30
0.0
 11
72.817344
 21
207.103671
 31
0.0
  0
LINE
  5
13b
100
AcDbEntity
  8
outline_segments
 62
7
100
AcDbLine
 10
72.817344
 20
207.103671
 30
0.0
 11
72.321609
 21
206.838969
 31
0.0
  0
LINE
  5
13c
100
AcDbEntity
  8
outline_segments
 62
7
100
AcDbLine
 10
72.321609
 20
206.838969
 30
0.0
 11
71.823030
 21
206.567519
 31
0.0
  0
LINE
  5
13d
100
AcDbEntity
  8
outline_segments
 62
7
100
AcDbLine
 10
71.823030
 20
206.567519
 30
0.0
 11
71.321631
 21
206.288579
 31
0.0
  0
LINE
  5
13e
100
AcDbEntity
  8
outline_segments
 62
7
100
AcDbLine
 10
71.321631
 20
206.288579
 30
0.0
 11
70.817430
 21
206.001410
 31
0.0
  0
LINE
  5
13f
100
AcDbEntity
  8
outline_segments
 62
7
100
AcDbLine
 10
70.817430
 20
206.001410
 30
0.0
 11
70.310446
 21
205.705263
 31
0.0
  0
LINE
  5
140
100
AcDbEntity
  8
outline_segments
 62
7
100
AcDbLine
 10
70.310446
 20
205.705263
 30
0.0
 11
69.800707
 21
205.399399
 31
0.0
  0
LINE
  5
141
100
AcDbEntity
  8
outline_segments
 62
7
100
AcDbLine
 10
69.800707
 20
205.399399
 30
0.0
 11
69.288228
 21
205.083075
 31
0.0
  0
LINE
  5
142
100
AcDbEntity
  8
outline_segments
 62
7
100
AcDbLine
 10
69.288228
 20
205.083075
 30
0.0
 11
68.773037
 21
204.755548
 31
0.0
  0
LINE
  5
143
100
AcDbEntity
  8
outline_segments
 62
7
100
AcDbLine
 10
68.773037
 20
204.755548
 30
0.0
 11
68.255148
 21
204.416077
 31
0.0
  0
LINE
  5
144
100
AcDbEntity
  8
outline_segments
 62
7
100
AcDbLine
 10
68.255148
 20
204.416077
 30
0.0
 11
67.734586
 21
204.063917
 31
0.0
  0
LINE
  5
145
100
AcDbEntity
  8
outline_segments
 62
7
100
AcDbLine
 10
67.734586
 20
204.063917
 30
0.0
 11
67.211369
 21
203.698330
 31
0.0
  0
LINE
  5
146
100
AcDbEntity
  8
outline_segments
 62
7
100
AcDbLine
 10
67.211369
 20
203.698330
 30
0.0
 11
66.685524
 21
203.318566
 31
0.0
  0
LINE
  5
147
100
AcDbEntity
  8
outline_segments
 62
7
100
AcDbLine
 10
66.685524
 20
203.318566
 30
0.0
 11
66.157069
 21
202.923889
 31
0.0
  0
LINE
  5
148
100
AcDbEntity
  8
outline_segments
 62
7
100
AcDbLine
 10
66.157069
 20
202.923889
 30
0.0
 11
65.626022
 21
202.513552
 31
0.0
  0
LINE
  5
149
100
AcDbEntity
  8
outline_segments
 62
7
100
AcDbLine
 10
65.626022
 20
202.513552
 30
0.0
 11
65.092411
 21
202.086815
 31
0.0
  0
LINE
  5
14a
100
AcDbEntity
  8
outline_segments
 62
7
100
AcDbLine
 10
65.092411
 20
202.086815
 30
0.0
 11
64.556251
 21
201.642933
 31
0.0
  0
LINE
  5
14b
100
AcDbEntity
  8
outline_segments
 62
7
100
AcDbLine
 10
64.556251
 20
201.642933
 30
0.0
 11
64.017567
 21
201.181167
 31
0.0
  0
LINE
  5
14c
100
AcDbEntity
  8
outline_segments
 62
7
100
AcDbLine
 10
64.017567
 20
201.181167
 30
0.0
 11
63.476381
 21
200.700771
 31
0.0
  0
LINE
  5
14d
100
AcDbEntity
  8
outline_segments
 62
7
100
AcDbLine
 10
63.476381
 20
200.700771
 30
0.0
 11
62.932708
 21
200.201006
 31
0.0
  0
LINE
  5
14e
100
AcDbEntity
  8
outline_segments
 62
7
100
AcDbLine
 10
62.932708
 20
200.201006
 30
0.0
 11
62.386577
 21
199.681125
 31
0.0
  0
LINE
  5
14f
100
AcDbEntity
  8
outline_segments
 62
7
100
AcDbLine
 10
62.386577
 20
199.681125
 30
0.0
 11
61.838005
 21
199.140390
 31
0.0
  0
LINE
  5
150
100
AcDbEntity
  8
outline_segments
 62
7
100
AcDbLine
 10
61.838005
 20
199.140390
 30
0.0
 11
61.287014
 21
198.578054
 31
0.0
  0
LINE
  5
151
100
AcDbEntity
  8
outline_segments
 62
7
100
AcDbLine
 10
61.287014
 20
198.578054
 30
0.0
 11
60.733624
 21
197.993377
 31
0.0
  0
LINE
  5
152
100
AcDbEntity
  8
outline_segments
 62
7
100
AcDbLine
 10
60.733624
 20
197.993377
 30
0.0
 11
60.177858
 21
197.385614
 31
0.0
  0
LINE
  5
153
100
AcDbEntity
  8
outline_segments
 62
7
100
AcDbLine
 10
60.177858
 20
197.385614
 30
0.0
 11
69.224023
 21
188.339449
 31
0.0
  0
LINE
  5
154
100
AcDbEntity
  8
outline_segments
 62
7
100
AcDbLine
 10
69.224023
 20
188.339449
 30
0.0
 11
69.764611
 21
188.929996
 31
0.0
  0
LINE
  5
155
100
AcDbEntity
  8
outline_segments
 62
7
100
AcDbLine
 10
69.764611
 20
188.929996
 30
0.0
 11
70.308752
 21
189.511428
 31
0.0
  0
LINE
  5
156
100
AcDbEntity
  8
outline_segments
 62
7
100
AcDbLine
 10
70.308752
 20
189.511428
 30
0.0
 11
70.856334
 21
190.083475
 31
0.0
  0
LINE
  5
157
100
AcDbEntity
  8
outline_segments
 62
7
100
AcDbLine
 10
70.856334
 20
190.083475
 30
0.0
 11
71.407240
 21
190.645862
 31
0.0
  0
LINE
  5
158
100
AcDbEntity
  8
outline_segments
 62
7
100
AcDbLine
 10
71.407240
 20
190.645862
 30
0.0
 11
71.961358
 21
191.198321
 31
0.0
  0
LINE
  5
159
100
AcDbEntity
  8
outline_segments
 62
7
100
AcDbLine
 10
71.961358
 20
191.198321
 30
0.0
 11
72.518578
 21
191.740580
 31
0.0
  0
LINE
  5
15a
100
AcDbEntity
  8
outline_segments
 62
7
100
AcDbLine
 10
72.518578
 20
191.740580
 30
0.0
 11
73.078780
 21
192.272368
 31
0.0
  0
LINE
  5
15b
100
AcDbEntity
  8
outline_segments
 62
7
100
AcDbLine
 10
73.078780
 20
192.272368
 30
0.0
 11
73.641859
 21
192.793410
 31
0.0
  0
LINE
  5
15c
100
AcDbEntity
  8
outline_segments
 62
7
100
AcDbLine
 10
73.641859
 20
192.793410
 30
0.0
 11
74.207697
 21
193.303439
 31
0.0
  0
LINE
  5
15d
100
AcDbEntity
  8
outline_segments
 62
7
100
AcDbLine
 10
74.207697
 20
193.303439
 30
0.0
 11
74.776180
 21
193.802182
 31
0.0
  0
LINE
  5
15e
100
AcDbEntity
  8
outline_segments
 62
7
100
AcDbLine
 10
74.776180
 20
193.802182
 30
0.0
 11
75.347198
 21
194.289365
 31
0.0
  0
LINE
  5
15f
100
AcDbEntity
  8
outline_segments
 62
7
100
AcDbLine
 10
75.347198
 20
194.289365
 30
0.0
 11
75.920637
 21
194.764723
 31
0.0
  0
LINE
  5
160
100
AcDbEntity
  8
outline_segments
 62
7
100
AcDbLine
 10
75.920637
 20
194.764723
 30
0.0
 11
76.496381
 21
195.227977
 31
0.0
  0
LINE
  5
161
100
AcDbEntity
  8
outline_segments
 62
7
100
AcDbLine
 10
76.496381
 20
195.227977
 30
0.0
 11
77.074322
 21
195.678861
 31
0.0
  0
LINE
  5
162
100
AcDbEntity
  8
outline_segments
 62
7
100
AcDbLine
 10
77.074322
 20
195.678861
 30
0.0
 11
77.654339
 21
196.117104
 31
0.0
  0
LINE
  5
163
100
AcDbEntity
  8
outline_segments
 62
7
100
AcDbLine
 10
77.654339
 20
196.117104
 30
0.0
 11
78.236326
 21
196.542430
 31
0.0
  0
LINE
  5
164
100
AcDbEntity
  8
outline_segments
 62
7
100
AcDbLine
 10
78.236326
 20
196.542430
 30
0.0
 11
78.820168
 21
196.954570
 31
0.0
  0
LINE
  5
165
100
AcDbEntity
  8
outline_segments
 62
7
100
AcDbLine
 10
78.820168
 20
196.954570
 30
0.0
 11
79.405748
 21
197.353252
 31
0.0
  0
LINE
  5
166
100
AcDbEntity
  8
outline_segments
 62
7
100
AcDbLine
 10
79.405748
 20
197.353252
 30
0.0
 11
79.992959
 21
197.738205
 31
0.0
  0
LINE
  5
167
100
AcDbEntity
  8
outline_segments
 62
7
100
AcDbLine
 10
79.992959
 20
197.738205
 30
0.0
 11
80.581683
 21
198.109161
 31
0.0
  0
LINE
  5
168
100
AcDbEntity
  8
outline_segments
 62
7
100
AcDbLine
 10
80.581683
 20
198.109161
 30
0.0
 11
81.171807
 21
198.465845
 31
0.0
  0
LINE
  5
169
100
AcDbEntity
  8
outline_segments
 62
7
100
AcDbLine
 10
81.171807
 20
198.465845
 30
0.0
 11
81.763221
 21
198.807983
 31
0.0
  0
LINE
  5
16a
100
AcDbEntity
  8
outline_segments
 62
7
100
AcDbLine
 10
81.763221
 20
198.807983
 30
0.0
 11
82.355811
 21
199.135310
 31
0.0
  0
LINE
  5
16b
100
AcDbEntity
  8
outline_segments
 62
7
100
AcDbLine
 10
82.355811
 20
199.135310
 30
0.0
 11
82.949460
 21
199.447549
 31
0.0
  0
LINE
  5
16c
100
AcDbEntity
  8
outline_segments
 62
7
100
AcDbLine
 10
82.949460
 20
199.447549
 30
0.0
 11
83.544060
 21
199.744430
 31
0.0
  0
LINE
  5
16d
100
AcDbEntity
  8
outline_segments
 62
7
100
AcDbLine
 10
83.544060
 20
199.744430
 30
0.0
 11
84.139492
 21
200.025684
 31
0.0
  0
LINE
  5
16e
100
AcDbEntity
  8
outline_segments
 62
7
100
AcDbLine
 10
84.139492
 20
200.025684
 30
0.0
 11
84.735650
 21
200.291038
 31
0.0
  0
LINE
  5
16f
100
AcDbEntity
  8
outline_segments
 62
7
100
AcDbLine
 10
84.735650
 20
200.291038
 30
0.0
 11
85.332415
 21
200.540221
 31
0.0
  0
LINE
  5
170
100
AcDbEntity
  8
outline_segments
 62
7
100
AcDbLine
 10
85.332415
 20
200.540221
 30
0.0
 11
85.929676
 21
200.772961
 31
0.0
  0
LINE
  5
171
100
AcDbEntity
  8
outline_segments
 62
7
100
AcDbLine
 10
85.929676
 20
200.772961
 30
0.0
 11
86.527318
 21
200.988988
 31
0.0
  0
LINE
  5
172
100
AcDbEntity
  8
outline_segments
 62
7
100
AcDbLine
 10
86.527318
 20
200.988988
 30
0.0
 11
87.125231
 21
201.188028
 31
0.0
  0
LINE
  5
173
100
AcDbEntity
  8
outline_segments
 62
7
100
AcDbLine
 10
87.125231
 20
201.188028
 30
0.0
 11
87.723300
 21
201.369810
 31
0.0
  0
LINE
  5
174
100
AcDbEntity
  8
outline_segments
 62
7
100
AcDbLine
 10
87.723300
 20
201.369810
 30
0.0
 11
88.321411
 21
201.534066
 31
0.0
  0
LINE
  5
175
100
AcDbEntity
  8
outline_segments
 62
7
100
AcDbLine
 10
88.321411
 20
201.534066
 30
0.0
 11
88.919451
 21
201.680520
 31
0.0
  0
LINE
  5
176
100
AcDbEntity
  8
outline_segments
 62
7
100
AcDbLine
 10
88.919451
 20
201.680520
 30
0.0
 11
89.517307
 21
201.808905
 31
0.0
  0
LINE
  5
177
100
AcDbEntity
  8
outline_segments
 62
7
100
AcDbLine
 10
89.517307
 20
201.808905
 30
0.0
 11
90.114868
 21
201.918947
 31
0.0
  0
LINE
  5
178
100
AcDbEntity
  8
outline_segments
 62
7
100
AcDbLine
 10
90.114868
 20
201.918947
 30
0.0
 11
90.712019
 21
202.010373
 31
0.0
  0
LINE
  5
179
100
AcDbEntity
  8
outline_segments
 62
7
100
AcDbLine
 10
90.712019
 20
202.010373
 30
0.0
 11
91.308645
 21
202.082915
 31
0.0
  0
LINE
  5
17a
100
AcDbEntity
  8
outline_segments
 62
7
100
AcDbLine
 10
91.308645
 20
202.082915
 30
0.0
 11
91.904637
 21
202.136300
 31
0.0
  0
LINE
  5
17b
100
AcDbEntity
  8
outline_segments
 62
7
100
AcDbLine
 10
91.904637
 20
202.136300
 30
0.0
 11
92.499877
 21
202.170257
 31
0.0
  0
LINE
  5
17c
100
AcDbEntity
  8
outline_segments
 62
7
100
AcDbLine
 10
92.499877
 20
202.170257
 30
0.0
 11
93.094254
 21
202.184509
 31
0.0
  0
LINE
  5
17d
100
AcDbEntity
  8
outline_segments
 62
7
100
AcDbLine
 10
93.094254
 20
202.184509
 30
0.0
 11
93.687657
 21
202.178808
 31
0.0
  0
LINE
  5
17e
100
AcDbEntity
  8
outline_segments
 62
7
100
AcDbLine
 10
93.687657
 20
202.178808
 30
0.0
 11
94.279971
 21
202.152844
 31
0.0
  0
LINE
  5
17f
100
AcDbEntity
  8
outline_segments
 62
7
100
AcDbLine
 10
94.279971
 20
202.152844
 30
0.0
 11
94.871080
 21
202.106376
 31
0.0
  0
LINE
  5
180
100
AcDbEntity
  8
outline_segments
 62
7
100
AcDbLine
 10
94.871080
 20
202.106376
 30
0.0
 11
95.460874
 21
202.039120
 31
0.0
  0
LINE
  5
181
100
AcDbEntity
  8
outline_segments
 62
7
100
AcDbLine
 10
95.460874
 20
202.039120
 30
0.0
 11
96.049239
 21
201.950810
 31
0.0
  0
LINE
  5
182
100
AcDbEntity
  8
outline_segments
 62
7
100
AcDbLine
 10
96.049239
 20
201.950810
 30
0.0
 11
96.636064
 21
201.841169
 31
0.0
  0
LINE
  5
183
100
AcDbEntity
  8
outline_segments
 62
7
100
AcDbLine
 10
96.636064
 20
201.841169
 30
0.0
 11
97.221232
 21
201.709933
 31
0.0
  0
LINE
  5
184
100
AcDbEntity
  8
outline_segments
 62
7
100
AcDbLine
 10
97.221232
 20
201.709933
 30
0.0
 11
97.804630
 21
201.556822
 31
0.0
  0
LINE
  5
185
100
AcDbEntity
  8
outline_segments
 62
7
100
AcDbLine
 10
97.804630
 20
201.556822
 30
0.0
 11
98.386149
 21
201.381573
 31
0.0
  0
LINE
  5
186
100
AcDbEntity
  8
outline_segments
 62
7
100
AcDbLine
 10
98.386149
 20
201.381573
 30
0.0
 11
98.965673
 21
201.183907
 31
0.0
  0
LINE
  5
187
100
AcDbEntity
  8
outline_segments
 62
7
100
AcDbLine
 10
98.965673
 20
201.183907
 30
0.0
 11
99.543088
 21
200.963557
 31
0.0
  0
LINE
  5
188
100
AcDbEntity
  8
outline_segments
 62
7
100
AcDbLine
 10
99.543088
 20
200.963557
 30
0.0
 11
100.118280
 21
200.720250
 31
0.0
  0
LINE
  5
189
100
AcDbEntity
  8
outline_segments
 62
7
100
AcDbLine
 10
100.118280
 20
200.720250
 30
0.0
 11
100.691140
 21
200.453717
 31
0.0
  0
LINE
  5
18a
100
AcDbEntity
  8
outline_segments
 62
7
100
AcDbLine
 10
100.691140
 20
200.453717
 30
0.0
 11
101.261551
 21
200.163683
 31
0.0
  0
LINE
  5
18b
100
AcDbEntity
  8
outline_segments
 62
7
100
AcDbLine
 10
101.261551
 20
200.163683
 30
0.0
 11
101.829399
 21
199.849880
 31
0.0
  0
LINE
  5
18c
100
AcDbEntity
  8
outline_segments
 62
7
100
AcDbLine
 10
101.829399
 20
199.849880
 30
0.0
 11
102.394574
 21
199.512034
 31
0.0
  0
LINE
  5
18d
100
AcDbEntity
  8
outline_segments
 62
7
100
AcDbLine
 10
102.394574
 20
199.512034
 30
0.0
 11
102.956964
 21
199.149875
 31
0.0
  0
LINE
  5
18e
100
AcDbEntity
  8
outline_segments
 62
7
100
AcDbLine
 10
102.956964
 20
199.149875
 30
0.0
 11
103.516453
 21
198.763132
 31
0.0
  0
LINE
  5
18f
100
AcDbEntity
  8
outline_segments
 62
7
100
AcDbLine
 10
103.516453
 20
198.763132
 30
0.0
 11
104.072924
 21
198.351531
 31
0.0
  0
LINE
  5
190
100
AcDbEntity
  8
outline_segments
 62
7
100
AcDbLine
 10
104.072924
 20
198.351531
 30
0.0
 11
104.626272
 21
197.914803
 31
0.0
  0
LINE
  5
191
100
AcDbEntity
  8
outline_segments
 62
7
100
AcDbLine
 10
104.626272
 20
197.914803
 30
0.0
 11
105.176379
 21
197.452678
 31
0.0
  0
LINE
  5
192
100
AcDbEntity
  8
outline_segments
 62
7
100
AcDbLine
 10
105.176379
 20
197.452678
 30
0.0
 11
105.723131
 21
196.964880
 31
0.0
  0
LINE
  5
193
100
AcDbEntity
  8
outline_segments
 62
7
100
AcDbLine
 10
105.723131
 20
196.964880
 30
0.0
 11
106.266417
 21
196.451134
 31
0.0
  0
ENDSEC
  0
SECTION
  2
OBJECTS
  0
DICTIONARY
  5
C
330
0
100
AcDbDictionary
  3
ACAD_GROUP
350
D
  3
ACAD_MLINESTYLE
350
17
  0
DICTIONARY
  5
D
330
C
100
AcDbDictionary
  0
DICTIONARY
  5
1A
330
C
100
AcDbDictionary
  0
DICTIONARY
  5
17
330
C
100
AcDbDictionary
  3
STANDARD
350
18
  0
DICTIONARY
  5
19
330
C
100
AcDbDictionary
  0
ENDSEC
  0
EOF
