<?xml version="1.0" standalone="no"?>
 <!DOCTYPE svg PUBLIC "-//W3C//DTD SVG 1.1//EN" 
 "http://www.w3.org/Graphics/SVG/1.1/DTD/svg11.dtd"> 
<svg xmlns="http://www.w3.org/2000/svg" version="1.1" 
    width="13.0886cm" height="10.9017cm" viewBox="0 0 51530 42920 ">
<title>SVG Picture created as NeuroBytes_Touch_Sensor-brd.svg date 2018/08/06 16:24:14 </title>
  <desc>Picture generated by PCBNEW </desc>
<g style="fill:#000000; fill-opacity:1;stroke:#000000; stroke-opacity:1;
stroke-linecap:round; stroke-linejoin:round; "
 transform="translate(0 0) scale(1 1)">
</g>
<g style="fill:#000000; fill-opacity:0.0; 
stroke:#000000; stroke-width:-0.000393701; stroke-opacity:1; 
stroke-linecap:round; stroke-linejoin:round;">
</g>
<g style="fill:#840000; fill-opacity:0.0; 
stroke:#840000; stroke-width:-0.000393701; stroke-opacity:1; 
stroke-linecap:round; stroke-linejoin:round;">
</g>
<g style="fill:#840000; fill-opacity:0.0; 
stroke:#840000; stroke-width:39.3701; stroke-opacity:1; 
stroke-linecap:round; stroke-linejoin:round;">
<path d="M28420 16699
L28643 16476
" />
<path d="M28865 17145
L28420 16699
" />
<path d="M29088 16922
L28865 17145
" />
<path d="M28643 16476
L29088 16922
" />
<path d="M27710 18300
L27487 18523
" />
<path d="M27265 17854
L27710 18300
" />
<path d="M27042 18077
L27265 17854
" />
<path d="M27487 18523
L27042 18077
" />
</g>
<g style="fill:#840000; fill-opacity:0.0; 
stroke:#840000; stroke-width:59.0551; stroke-opacity:1; 
stroke-linecap:round; stroke-linejoin:round;">
<path d="M17238 14055
L17238 13858
" />
<path d="M17632 14055
L17238 14055
" />
<path d="M17632 13858
L17632 14055
" />
<path d="M17238 13858
L17632 13858
" />
<path d="M17238 13661
L17238 13464
" />
<path d="M17632 13661
L17238 13661
" />
<path d="M17632 13464
L17632 13661
" />
<path d="M17238 13464
L17632 13464
" />
<path d="M19600 11811
L19600 12007
" />
<path d="M19207 11811
L19600 11811
" />
<path d="M19207 12007
L19207 11811
" />
<path d="M19600 12007
L19207 12007
" />
<path d="M17652 10472
L17848 10472
" />
<path d="M17652 10866
L17652 10472
" />
<path d="M17848 10866
L17652 10866
" />
<path d="M17848 10472
L17848 10866
" />
<path d="M20919 10472
L21116 10472
" />
<path d="M20919 10866
L20919 10472
" />
<path d="M21116 10866
L20919 10866
" />
<path d="M21116 10472
L21116 10866
" />
<path d="M21234 10944
L21431 10944
" />
<path d="M21234 11338
L21234 10944
" />
<path d="M21431 11338
L21234 11338
" />
<path d="M21431 10944
L21431 11338
" />
<path d="M18195 12707
L18056 12846
" />
<path d="M17917 12429
L18195 12707
" />
<path d="M17777 12568
L17917 12429
" />
<path d="M18056 12846
L17777 12568
" />
<path d="M20655 14661
L20852 14661
" />
<path d="M20655 15055
L20655 14661
" />
<path d="M20852 15055
L20655 15055
" />
<path d="M20852 14661
L20852 15055
" />
<path d="M18053 12292
L18192 12153
" />
<path d="M18331 12570
L18053 12292
" />
<path d="M18471 12431
L18331 12570
" />
<path d="M18192 12153
L18471 12431
" />
</g>
<g style="fill:#840000; fill-opacity:0.0; 
stroke:#840000; stroke-width:39.3701; stroke-opacity:1; 
stroke-linecap:round; stroke-linejoin:round;">
<path d="M20990 14228
L21620 14228
" />
<path d="M20990 15488
L20990 14228
" />
<path d="M21620 15488
L20990 15488
" />
<path d="M21620 14228
L21620 15488
" />
</g>
<g style="fill:#840000; fill-opacity:0.0; 
stroke:#840000; stroke-width:59.0551; stroke-opacity:1; 
stroke-linecap:round; stroke-linejoin:round;">
<path d="M26786 14768
L26435 14589
L26503 14456
L26537 14431
L26562 14423
L26604 14423
L26654 14448
L26679 14482
L26688 14507
L26687 14549
L26619 14683
" />
<path d="M27059 14233
L26956 14434
" />
<path d="M27007 14334
L26657 14155
L26690 14214
L26706 14264
L26706 14306
" />
<path d="M19113 9390
L19113 8997
L19207 8997
L19263 9015
L19300 9053
L19319 9090
L19338 9165
L19338 9221
L19319 9296
L19300 9334
L19263 9371
L19207 9390
L19113 9390
" />
<path d="M19713 9390
L19488 9390
" />
<path d="M19600 9390
L19600 8997
L19563 9053
L19525 9090
L19488 9109
" />
<path d="M19104 13544
L19104 13862
L19122 13900
L19141 13919
L19179 13937
L19254 13937
L19291 13919
L19310 13900
L19329 13862
L19329 13544
" />
<path d="M19722 13937
L19497 13937
" />
<path d="M19610 13937
L19610 13544
L19572 13600
L19535 13637
L19497 13656
" />
<path d="M31871 21104
L31927 21122
L32021 21122
L32058 21104
L32077 21085
L32096 21047
L32096 21010
L32077 20973
L32058 20954
L32021 20935
L31946 20916
L31908 20898
L31889 20879
L31871 20841
L31871 20804
L31889 20766
L31908 20748
L31946 20729
L32039 20729
L32096 20748
" />
<path d="M32227 20729
L32321 21122
L32396 20841
L32471 21122
L32564 20729
" />
<path d="M32696 20766
L32714 20748
L32752 20729
L32846 20729
L32883 20748
L32902 20766
L32921 20804
L32921 20841
L32902 20898
L32677 21122
L32921 21122
" />
<path d="M14237 16953
L13959 16675
L14065 16569
L14105 16555
L14131 16555
L14171 16569
L14211 16608
L14224 16648
L14224 16675
L14211 16714
L14105 16820
" />
<path d="M14211 16423
L14396 16237
L14556 16635
" />
<path d="M13995 12983
L14274 12705
L14380 12811
L14393 12850
L14393 12877
L14380 12917
L14340 12956
L14300 12970
L14274 12970
L14234 12956
L14128 12850
" />
<path d="M14671 13102
L14618 13049
L14579 13036
L14552 13036
L14486 13049
L14420 13089
L14313 13195
L14300 13235
L14300 13261
L14313 13301
L14367 13354
L14406 13367
L14433 13367
L14473 13354
L14539 13288
L14552 13248
L14552 13222
L14539 13182
L14486 13129
L14446 13116
L14420 13116
L14380 13129
" />
<path d="M28956 16516
L28930 16516
L28877 16489
L28850 16463
L28824 16410
L28824 16356
L28837 16317
L28877 16250
L28916 16211
L28983 16171
L29022 16158
L29075 16158
L29128 16184
L29155 16211
L29181 16264
L29181 16290
" />
<path d="M29195 16807
L29036 16648
" />
<path d="M29115 16728
L29394 16449
L29327 16463
L29274 16463
L29234 16449
" />
<path d="M26882 18589
L26856 18589
L26803 18563
L26776 18536
L26750 18483
L26750 18430
L26763 18391
L26803 18324
L26842 18285
L26909 18245
L26948 18232
L27001 18232
L27054 18258
L27081 18285
L27108 18338
L27108 18364
" />
<path d="M27280 18669
L27094 18855
" />
<path d="M27320 18497
L27054 18629
L27227 18802
" />
<path d="M16673 14248
L16541 14061
" />
<path d="M16448 14248
L16448 13855
L16598 13855
L16635 13874
L16654 13892
L16673 13930
L16673 13986
L16654 14023
L16635 14042
L16598 14061
L16448 14061
" />
<path d="M16804 13855
L17066 13855
L16898 14248
" />
<path d="M16673 13697
L16541 13510
" />
<path d="M16448 13697
L16448 13304
L16598 13304
L16635 13322
L16654 13341
L16673 13379
L16673 13435
L16654 13472
L16635 13491
L16598 13510
L16448 13510
" />
<path d="M17010 13304
L16935 13304
L16898 13322
L16879 13341
L16841 13397
L16823 13472
L16823 13622
L16841 13660
L16860 13679
L16898 13697
L16973 13697
L17010 13679
L17029 13660
L17047 13622
L17047 13529
L17029 13491
L17010 13472
L16973 13454
L16898 13454
L16860 13472
L16841 13491
L16823 13529
" />
<path d="M19350 11729
L19218 11541
" />
<path d="M19125 11729
L19125 11335
L19275 11335
L19312 11354
L19331 11373
L19350 11410
L19350 11466
L19331 11504
L19312 11523
L19275 11541
L19125 11541
" />
<path d="M19706 11335
L19518 11335
L19500 11523
L19518 11504
L19556 11485
L19650 11485
L19687 11504
L19706 11523
L19725 11560
L19725 11654
L19706 11691
L19687 11710
L19650 11729
L19556 11729
L19518 11710
L19500 11691
" />
<path d="M17584 11170
L17771 11039
" />
<path d="M17584 10945
L17977 10945
L17977 11095
L17959 11133
L17940 11151
L17902 11170
L17846 11170
L17809 11151
L17790 11133
L17771 11095
L17771 10945
" />
<path d="M17977 11301
L17977 11545
L17827 11414
L17827 11470
L17809 11508
L17790 11526
L17752 11545
L17659 11545
L17621 11526
L17602 11508
L17584 11470
L17584 11358
L17602 11320
L17621 11301
" />
<path d="M20418 10603
L20606 10472
" />
<path d="M20418 10378
L20812 10378
L20812 10528
L20793 10566
L20775 10584
L20737 10603
L20681 10603
L20643 10584
L20625 10566
L20606 10528
L20606 10378
" />
<path d="M20775 10753
L20793 10772
L20812 10809
L20812 10903
L20793 10941
L20775 10959
L20737 10978
L20700 10978
L20643 10959
L20418 10734
L20418 10978
" />
<path d="M21521 11091
L21708 10960
" />
<path d="M21521 10866
L21914 10866
L21914 11016
L21896 11054
L21877 11073
L21839 11091
L21783 11091
L21746 11073
L21727 11054
L21708 11016
L21708 10866
" />
<path d="M21521 11466
L21521 11241
" />
<path d="M21521 11354
L21914 11354
L21858 11316
L21821 11279
L21802 11241
" />
<path d="M17537 13021
L17511 13021
L17458 12995
L17431 12968
L17405 12915
L17405 12862
L17418 12822
L17458 12756
L17497 12716
L17564 12676
L17604 12663
L17657 12663
L17710 12690
L17736 12716
L17763 12769
L17763 12796
" />
<path d="M18041 13021
L17908 12888
L17763 13008
L17789 13008
L17829 13021
L17895 13087
L17908 13127
L17908 13154
L17895 13193
L17829 13260
L17789 13273
L17763 13273
L17723 13260
L17657 13193
L17643 13154
L17643 13127
" />
<path d="M20121 14792
L20102 14773
L20084 14717
L20084 14680
L20102 14623
L20140 14586
L20177 14567
L20252 14548
L20309 14548
L20384 14567
L20421 14586
L20459 14623
L20477 14680
L20477 14717
L20459 14773
L20440 14792
" />
<path d="M20477 14923
L20477 15167
L20327 15036
L20327 15092
L20309 15130
L20290 15148
L20252 15167
L20159 15167
L20121 15148
L20102 15130
L20084 15092
L20084 14980
L20102 14942
L20121 14923
" />
<path d="M18377 12181
L18417 11956
" />
<path d="M18218 12022
L18496 11744
L18602 11850
L18615 11890
L18615 11916
L18602 11956
L18562 11996
L18523 12009
L18496 12009
L18456 11996
L18350 11890
" />
<path d="M18801 12234
L18615 12420
" />
<path d="M18841 12062
L18576 12195
L18748 12367
" />
<path d="M16768 10865
L16730 10846
L16693 10808
L16636 10752
L16599 10733
L16561 10733
" />
<path d="M16580 10827
L16543 10808
L16505 10771
L16486 10696
L16486 10565
L16505 10490
L16543 10452
L16580 10434
L16655 10434
L16693 10452
L16730 10490
L16749 10565
L16749 10696
L16730 10771
L16693 10808
L16655 10827
L16580 10827
" />
<path d="M16880 10434
L17124 10434
L16993 10583
L17049 10583
L17086 10602
L17105 10621
L17124 10658
L17124 10752
L17105 10790
L17086 10808
L17049 10827
L16936 10827
L16899 10808
L16880 10790
" />
<path d="M16768 12479
L16730 12460
L16693 12423
L16636 12366
L16599 12348
L16561 12348
" />
<path d="M16580 12441
L16543 12423
L16505 12385
L16486 12310
L16486 12179
L16505 12104
L16543 12066
L16580 12048
L16655 12048
L16693 12066
L16730 12104
L16749 12179
L16749 12310
L16730 12385
L16693 12423
L16655 12441
L16580 12441
" />
<path d="M16899 12085
L16918 12066
L16955 12048
L17049 12048
L17086 12066
L17105 12085
L17124 12123
L17124 12160
L17105 12216
L16880 12441
L17124 12441
" />
<path d="M20487 11871
L20506 11834
L20543 11796
L20600 11740
L20618 11703
L20618 11665
" />
<path d="M20525 11684
L20543 11646
L20581 11609
L20656 11590
L20787 11590
L20862 11609
L20900 11646
L20918 11684
L20918 11759
L20900 11796
L20862 11834
L20787 11853
L20656 11853
L20581 11834
L20543 11796
L20525 11759
L20525 11684
" />
<path d="M20525 12228
L20525 12003
" />
<path d="M20525 12115
L20918 12115
L20862 12078
L20825 12040
L20806 12003
" />
<path d="M28005 17135
L27780 17360
L27767 17400
L27767 17427
L27780 17466
L27833 17519
L27873 17533
L27899 17533
L27939 17519
L28164 17294
" />
<path d="M28257 17440
L28284 17440
L28323 17453
L28390 17519
L28403 17559
L28403 17586
L28390 17625
L28363 17652
L28310 17678
L27992 17678
L28164 17851
" />
<path d="M21164 14792
L21146 14773
L21127 14717
L21127 14680
L21146 14623
L21183 14586
L21221 14567
L21296 14548
L21352 14548
L21427 14567
L21464 14586
L21502 14623
L21521 14680
L21521 14717
L21502 14773
L21483 14792
" />
<path d="M21483 14942
L21502 14961
L21521 14998
L21521 15092
L21502 15130
L21483 15148
L21446 15167
L21408 15167
L21352 15148
L21127 14923
L21127 15167
" />
<path d="M17244 16340
L17303 16342
L17393 16314
L17423 16285
L17436 16262
L17443 16221
L17432 16185
L17403 16154
L17379 16142
L17338 16135
L17261 16139
L17219 16132
L17196 16119
L17167 16089
L17156 16053
L17163 16012
L17176 15988
L17206 15960
L17296 15932
L17355 15934
" />
<path d="M17475 15877
L17680 16226
L17669 15936
L17823 16183
L17798 15779
" />
<path d="M18253 16051
L18038 16117
" />
<path d="M18146 16084
L18031 15707
L18011 15772
L17986 15819
L17956 15848
" />
</g>
<g style="fill:#000000; fill-opacity:0.0; 
stroke:#000000; stroke-width:59.0551; stroke-opacity:1; 
stroke-linecap:round; stroke-linejoin:round;">
</g>
<g style="fill:#840084; fill-opacity:0.0; 
stroke:#840084; stroke-width:59.0551; stroke-opacity:1; 
stroke-linecap:round; stroke-linejoin:round;">
</g>
<g style="fill:#840084; fill-opacity:0.0; 
stroke:#840084; stroke-width:66.9291; stroke-opacity:1; 
stroke-linecap:round; stroke-linejoin:round;">
<path d="M24842 15695
L25057 15274
L25217 15355
L25247 15396
L25257 15426
L25256 15476
L25226 15537
L25185 15566
L25155 15576
L25105 15576
L24944 15494
" />
<path d="M25558 15529
L25638 15570
L25668 15610
L25688 15671
L25667 15761
L25595 15902
L25534 15971
L25474 15991
L25423 15991
L25343 15950
L25313 15909
L25294 15849
L25315 15759
L25386 15618
L25447 15548
L25507 15529
L25558 15529
" />
<path d="M25879 15692
L25764 16164
L25998 15905
L25925 16246
L26239 15876
" />
<path d="M26298 16158
L26438 16230
" />
<path d="M26386 16481
L26185 16379
L26400 15958
L26600 16060
" />
<path d="M26807 16695
L26768 16424
" />
<path d="M26566 16573
L26781 16152
L26941 16234
L26971 16274
L26981 16304
L26980 16355
L26950 16415
L26909 16445
L26879 16455
L26829 16454
L26668 16372
" />
<path d="M17272 15470
L17133 15018
" />
<path d="M17487 15404
L17349 14952
L17456 14919
L17527 14921
L17583 14951
L17618 14987
L17666 15067
L17686 15131
L17691 15224
L17682 15274
L17652 15330
L17594 15371
L17487 15404
" />
</g>
<g style="fill:#840084; fill-opacity:0.0; 
stroke:#840084; stroke-width:59.0551; stroke-opacity:1; 
stroke-linecap:round; stroke-linejoin:round;">
<path d="M25388 12978
L24709 14311
" />
<path d="M24709 14311
L28059 16018
" />
<path d="M28059 16018
L28738 14685
" />
<path d="M28738 14685
L25388 12978
" />
</g>
<g style="fill:#840084; fill-opacity:0.0; 
stroke:#840084; stroke-width:39.3701; stroke-opacity:1; 
stroke-linecap:round; stroke-linejoin:round;">
<circle cx="20152" cy="9448.82" r="88.0343" /> 
<path d="M18222 8937
L18222 11299
" />
<path d="M20585 8937
L18222 8937
" />
<path d="M20585 11299
L20585 8937
" />
<path d="M18222 11299
L20585 11299
" />
</g>
<g style="fill:#840084; fill-opacity:0.0; 
stroke:#840084; stroke-width:59.0551; stroke-opacity:1; 
stroke-linecap:round; stroke-linejoin:round;">
<path d="M18774 10669
L20033 10669
" />
<path d="M20033 10669
L20033 9566
" />
<path d="M20033 9566
L18774 9566
" />
<path d="M18774 9566
L18774 10669
" />
</g>
<g style="fill:#840084; fill-opacity:0.0; 
stroke:#840084; stroke-width:39.3701; stroke-opacity:1; 
stroke-linecap:round; stroke-linejoin:round;">
<circle cx="19404" cy="12507.1" r="98.4252" /> 
<path d="M18290 13759
L19404 12646
" />
<path d="M19404 14873
L18290 13759
" />
<path d="M20517 13759
L19404 14873
" />
<path d="M19404 12646
L20517 13759
" />
</g>
<g style="fill:#840084; fill-opacity:0.0; 
stroke:#840084; stroke-width:59.0551; stroke-opacity:1; 
stroke-linecap:round; stroke-linejoin:round;">
<path d="M32335.6 18768.6 A1074.59 1074.59 0.0 0 0 33048.8 18078.5 " />
<path d="M30887 17320
L32335 18768
" />
<path d="M14943 18306
L16001 17248
" />
<path d="M16001 17248
L13691 14937
" />
<path d="M13691 14937
L12633 15995
" />
<path d="M12633 15995
L14943 18306
" />
<path d="M12643 13689
L13700 14747
" />
<path d="M13700 14747
L16011 12436
" />
<path d="M16011 12436
L14953 11378
" />
<path d="M14953 11378
L12643 13689
" />
</g>
<g style="fill:#840084; fill-opacity:0.0; 
stroke:#840084; stroke-width:47.2441; stroke-opacity:1; 
stroke-linecap:round; stroke-linejoin:round;">
<path d="M28824 16546
L29018 16741
" />
<path d="M28684 17075
L28489 16880
" />
<path d="M27306 18453
L27111 18258
" />
<path d="M27446 17924
L27640 18119
" />
</g>
<g style="fill:#840084; fill-opacity:0.0; 
stroke:#840084; stroke-width:59.0551; stroke-opacity:1; 
stroke-linecap:round; stroke-linejoin:round;">
<circle cx="16116.6" cy="11043.3" r="98.4252" /> 
<path d="M17396 10354
L17396 10944
" />
<path d="M16215 10354
L17396 10354
" />
<path d="M16215 10944
L16215 10354
" />
<path d="M17396 10944
L16215 10944
" />
<circle cx="16116.6" cy="12657.5" r="98.4252" /> 
<path d="M17396 11968
L17396 12559
" />
<path d="M16215 11968
L17396 11968
" />
<path d="M16215 12559
L16215 11968
" />
<path d="M17396 12559
L16215 12559
" />
<circle cx="20309.5" cy="11220.5" r="98.4252" /> 
<path d="M20998 12500
L20407 12500
" />
<path d="M20998 11318
L20998 12500
" />
<path d="M20407 11318
L20998 11318
" />
<path d="M20407 12500
L20407 11318
" />
<circle cx="27369.5" cy="17360.8" r="98.4252" /> 
<path d="M27926 16943
L27508 17360
" />
<path d="M28622 17639
L27926 16943
" />
<path d="M28204 18056
L28622 17639
" />
<path d="M27508 17360
L28204 18056
" />
</g>
<g style="fill:#840084; fill-opacity:0.0; 
stroke:#840084; stroke-width:47.2441; stroke-opacity:1; 
stroke-linecap:round; stroke-linejoin:round;">
<path d="M21707 15251
L21707 14464
" />
<path d="M20904 14464
L20904 15251
" />
</g>
<g style="fill:#840084; fill-opacity:0.0; 
stroke:#840084; stroke-width:59.0551; stroke-opacity:1; 
stroke-linecap:round; stroke-linejoin:round;">
<path d="M19155 16083
L18867 15142
" />
<path d="M18867 15142
L16232 15948
" />
<path d="M16232 15948
L16520 16889
" />
<path d="M16520 16889
L19155 16083
" />
</g>
<g style="fill:#000000; fill-opacity:0.0; 
stroke:#000000; stroke-width:59.0551; stroke-opacity:1; 
stroke-linecap:round; stroke-linejoin:round;">
</g>
<g style="fill:#000084; fill-opacity:0.0; 
stroke:#000084; stroke-width:59.0551; stroke-opacity:1; 
stroke-linecap:round; stroke-linejoin:round;">
</g>
<g style="fill:#000084; fill-opacity:0.0; 
stroke:#000084; stroke-width:78.7402; stroke-opacity:1; 
stroke-linecap:round; stroke-linejoin:round;">
<path d="M36923 20944
L37317 21338
" />
<path d="M37317 20551
L36923 20944
" />
<path d="M36923 20944
L37317 20551
" />
<path d="M51490 20944
L36923 20944
" />
</g>
<g style="fill:#000084; fill-opacity:0.0; 
stroke:#000084; stroke-width:118.11; stroke-opacity:1; 
stroke-linecap:round; stroke-linejoin:round;">
<path d="M51139 20593
L51054 20621
L50914 20621
L50857 20593
L50829 20565
L50801 20508
L50801 20452
L50829 20396
L50857 20368
L50914 20340
L51026 20312
L51082 20284
L51110 20255
L51139 20199
L51139 20143
L51110 20087
L51082 20059
L51026 20030
L50886 20030
L50801 20059
" />
<path d="M50604 20030
L50464 20621
L50351 20199
L50239 20621
L50098 20030
" />
<path d="M49901 20087
L49873 20059
L49817 20030
L49676 20030
L49620 20059
L49592 20087
L49564 20143
L49564 20199
L49592 20284
L49929 20621
L49564 20621
" />
<path d="M48692 20846
L48720 20818
L48776 20733
L48805 20677
L48833 20593
L48861 20452
L48861 20340
L48833 20199
L48805 20115
L48776 20059
L48720 19974
L48692 19946
" />
<path d="M48467 20621
L48467 20030
" />
<path d="M48467 20312
L48130 20312
" />
<path d="M48130 20621
L48130 20030
" />
<path d="M47736 20030
L47623 20030
L47567 20059
L47511 20115
L47483 20227
L47483 20424
L47511 20537
L47567 20593
L47623 20621
L47736 20621
L47792 20593
L47848 20537
L47877 20424
L47877 20227
L47848 20115
L47792 20059
L47736 20030
" />
<path d="M46892 20621
L47089 20340
" />
<path d="M47230 20621
L47230 20030
L47005 20030
L46949 20059
L46920 20087
L46892 20143
L46892 20227
L46920 20284
L46949 20312
L47005 20340
L47230 20340
" />
<path d="M46639 20621
L46639 20030
" />
<path d="M46414 20030
L46021 20030
L46414 20621
L46021 20621
" />
<path d="M45683 20030
L45571 20030
L45514 20059
L45458 20115
L45430 20227
L45430 20424
L45458 20537
L45514 20593
L45571 20621
L45683 20621
L45739 20593
L45796 20537
L45824 20424
L45824 20227
L45796 20115
L45739 20059
L45683 20030
" />
<path d="M45177 20621
L45177 20030
L44839 20621
L44839 20030
" />
<path d="M44643 20030
L44305 20030
" />
<path d="M44474 20621
L44474 20030
" />
<path d="M44136 20452
L43855 20452
" />
<path d="M44193 20621
L43996 20030
L43799 20621
" />
<path d="M43321 20621
L43602 20621
L43602 20030
" />
<path d="M42674 20621
L42674 20030
L42477 20452
L42280 20030
L42280 20621
" />
<path d="M42083 20030
L41746 20030
" />
<path d="M41915 20621
L41915 20030
" />
<path d="M41240 20059
L41296 20030
L41380 20030
L41465 20059
L41521 20115
L41549 20171
L41577 20284
L41577 20368
L41549 20480
L41521 20537
L41465 20593
L41380 20621
L41324 20621
L41240 20593
L41212 20565
L41212 20368
L41324 20368
" />
<path d="M41015 20846
L40987 20818
L40931 20733
L40902 20677
L40874 20593
L40846 20452
L40846 20340
L40874 20199
L40902 20115
L40931 20059
L40987 19974
L41015 19946
" />
</g>
<g style="fill:#000084; fill-opacity:0.0; 
stroke:#000084; stroke-width:78.7402; stroke-opacity:1; 
stroke-linecap:round; stroke-linejoin:round;">
<circle cx="32632.4" cy="19488.2" r="317.412" /> 
<circle cx="30939.4" cy="21181.1" r="314.961" /> 
<path d="M33104 18149
L29561 21692
" />
<path d="M36411 19724
L36411 19724
" />
<path d="M33813 22322
L36411 19724
" />
<path d="M34404 21732.3 A1691.08 1691.08 0.0 0 0 36418.1 19754.9 " />
<path d="M33380 22322
L33813 22322
" />
<path d="M32868 22322
L33380 22322
" />
<path d="M31608 23582
L32868 22322
" />
<path d="M31451 23425
L31608 23582
" />
<path d="M32671 22440
L32553 22322
" />
<path d="M32514 22598
L32671 22440
" />
<path d="M32396 22480
L32514 22598
" />
<path d="M34915 19960
L31372 23503
" />
<path d="M33104 18149
L34915 19960
" />
<path d="M29561 21692
L31372 23503
" />
</g>
<g style="fill:#000000; fill-opacity:0.0; 
stroke:#000000; stroke-width:78.7402; stroke-opacity:1; 
stroke-linecap:round; stroke-linejoin:round;">
</g>
<g style="fill:#C2C200; fill-opacity:0.0; 
stroke:#C2C200; stroke-width:78.7402; stroke-opacity:1; 
stroke-linecap:round; stroke-linejoin:round;">
</g>
<g style="fill:#C2C200; fill-opacity:0.0; 
stroke:#C2C200; stroke-width:39.3701; stroke-opacity:1; 
stroke-linecap:round; stroke-linejoin:round;">
<path d="M22006 10000
L22157 10195
" />
<path d="M17318 16759
L17093 16864
" />
<path d="M25473 18084
L25242 17933
" />
<path d="M32173 17168
L32389 17381
" />
<path d="M31958 16963
L32173 17168
" />
<path d="M27295 19482
L27071 19291
" />
<path d="M28854 14679
L29054 14796
" />
<path d="M22309 10383
L22462 10564
" />
<path d="M25103 12701
L25279 12802
" />
<path d="M22773 10904
L22931 11065
" />
<path d="M24411 12269
L24582 12381
" />
<path d="M27108 13754
L27297 13849
" />
<path d="M28622 20725
L28404 20507
" />
<path d="M15980 17529
L15761 17691
" />
<path d="M30689 15891
L30898 16053
" />
<path d="M17802 8327
L17942 8220
" />
<path d="M21492 16330
L21257 16287
" />
<path d="M12436 13684
L17689 8431
" />
<path d="M25635 12999
L25815 13096
" />
<path d="M17689 8431
L17802 8327
" />
<path d="M21257 16287
L21021 16251
" />
<path d="M20950 8481
L21126 8682
" />
<path d="M18772 7867
L19049 7827
" />
<path d="M21021 16251
L20787 16222
" />
<path d="M22904 16738
L22669 16653
" />
<path d="M25703 18241
L25473 18084
" />
<path d="M20513 8141
L20745 8299
" />
<path d="M19152 16239
L18920 16274
" />
<path d="M24545 17512
L24311 17383
" />
<path d="M23139 16830
L22904 16738
" />
<path d="M21709 9585
L21857 9797
" />
<path d="M16422 17234
L16201 17377
" />
<path d="M31108 16221
L31319 16395
" />
<path d="M23251 11368
L23412 11511
" />
<path d="M26732 13566
L26920 13660
" />
<path d="M27964 20085
L27742 19879
" />
<path d="M20084 16182
L19850 16184
" />
<path d="M27873 14144
L28067 14246
" />
<path d="M19850 16184
L19617 16195
" />
<path d="M22617 10737
L22773 10904
" />
<path d="M24073 12033
L24241 12153
" />
<path d="M19977 7910
L20257 8011
" />
<path d="M28404 20507
L28184 20294
" />
<path d="M32824 17832
L33043 18072
" />
<path d="M26362 13379
L26547 13472
" />
<path d="M32389 17381
L32606 17602
" />
<path d="M22198 16503
L21963 16438
" />
<path d="M29254 14917
L29456 15041
" />
<path d="M26178 13285
L26362 13379
" />
<path d="M21417 9136
L21562 9365
" />
<path d="M22434 16575
L22198 16503
" />
<path d="M20745 8299
L20950 8481
" />
<path d="M21963 16438
L21727 16381
" />
<path d="M29481 21633
L29268 21401
" />
<path d="M23090 11219
L23251 11368
" />
<path d="M25933 18403
L25703 18241
" />
<path d="M26391 18743
L26162 18571
" />
<path d="M17942 8220
L18109 8114
" />
<path d="M31744 16766
L31958 16963
" />
<path d="M20787 16222
L20552 16201
" />
<path d="M17772 16576
L17545 16663
" />
<path d="M24078 17260
L23844 17143
" />
<path d="M17093 16864
L16868 16978
" />
<path d="M21126 8682
L21274 8899
" />
<path d="M22157 10195
L22309 10383
" />
<path d="M18523 7933
L18772 7867
" />
<path d="M27071 19291
L26845 19103
" />
<path d="M18229 16429
L18000 16498
" />
<path d="M21857 9797
L22006 10000
" />
<path d="M23844 17143
L23609 17032
" />
<path d="M24311 17383
L24078 17260
" />
<path d="M29659 15170
L29863 15304
" />
<path d="M26547 13472
L26732 13566
" />
<path d="M20552 16201
L20318 16188
" />
<path d="M22462 10564
L22617 10737
" />
<path d="M19617 16195
L19384 16213
" />
<path d="M23740 11781
L23906 11909
" />
<path d="M27488 13946
L27680 14044
" />
<path d="M24582 12381
L24754 12491
" />
<path d="M22931 11065
L23090 11219
" />
<path d="M30481 15736
L30689 15891
" />
<path d="M15761 17691
L15543 17863
" />
<path d="M24241 12153
L24411 12269
" />
<path d="M27519 19679
L27295 19482
" />
<path d="M31531 16577
L31744 16766
" />
<path d="M20318 16188
L20084 16182
" />
<path d="M28458 14457
L28655 14566
" />
<path d="M19384 16213
L19152 16239
" />
<path d="M28067 14246
L28262 14350
" />
<path d="M23374 16928
L23139 16830
" />
<path d="M29863 15304
L30068 15442
" />
<path d="M24754 12491
L24928 12597
" />
<path d="M25815 13096
L25996 13191
" />
<path d="M26920 13660
L27108 13754
" />
<path d="M29054 14796
L29254 14917
" />
<path d="M29268 21401
L29054 21172
" />
<path d="M18920 16274
L18689 16317
" />
<path d="M20257 8011
L20513 8141
" />
<path d="M27680 14044
L27873 14144
" />
<path d="M18000 16498
L17772 16576
" />
<path d="M26845 19103
L26618 18921
" />
<path d="M30898 16053
L31108 16221
" />
<path d="M29456 15041
L29659 15170
" />
<path d="M26618 18921
L26391 18743
" />
<path d="M28839 20946
L28622 20725
" />
<path d="M15327 18045
L15112 18237
" />
<path d="M19675 7845
L19977 7910
" />
<path d="M17545 16663
L17318 16759
" />
<path d="M19049 7827
L19354 7817
" />
<path d="M25456 12902
L25635 12999
" />
<path d="M28262 14350
L28458 14457
" />
<path d="M30274 15586
L30481 15736
" />
<path d="M22669 16653
L22434 16575
" />
<path d="M28184 20294
L27964 20085
" />
<path d="M21274 8899
L21417 9136
" />
<path d="M16868 16978
L16645 17101
" />
<path d="M18109 8114
L18302 8017
" />
<path d="M18459 16369
L18229 16429
" />
<path d="M29054 21172
L28839 20946
" />
<path d="M25242 17933
L25010 17787
" />
<path d="M33043 18072
L29481 21633
" />
<path d="M30068 15442
L30274 15586
" />
<path d="M25279 12802
L25456 12902
" />
<path d="M18302 8017
L18523 7933
" />
<path d="M31319 16395
L31531 16577
" />
<path d="M15543 17863
L15327 18045
" />
<path d="M32606 17602
L32824 17832
" />
<path d="M26162 18571
L25933 18403
" />
<path d="M24777 17646
L24545 17512
" />
<path d="M19354 7817
L19675 7845
" />
<path d="M23576 11648
L23740 11781
" />
<path d="M24928 12597
L25103 12701
" />
<path d="M27297 13849
L27488 13946
" />
<path d="M18689 16317
L18459 16369
" />
<path d="M27742 19879
L27519 19679
" />
<path d="M25010 17787
L24777 17646
" />
<path d="M21727 16381
L21492 16330
" />
<path d="M23412 11511
L23576 11648
" />
<path d="M16645 17101
L16422 17234
" />
<path d="M12436 15979
L12436 13684
" />
<path d="M23906 11909
L24073 12033
" />
<path d="M14898 18439
L12436 15979
" />
<path d="M23609 17032
L23374 16928
" />
<path d="M15112 18237
L14898 18439
" />
<path d="M25996 13191
L26178 13285
" />
<path d="M21562 9365
L21709 9585
" />
<path d="M16201 17377
L15980 17529
" />
<path d="M28655 14566
L28854 14679
" />
</g> 
</svg>
